<svg xmlns="http://www.w3.org/2000/svg" fill="none" viewBox="0 0 189 196" height="196" width="189">
<g clip-path="url(#clip0_955_3608)">
<path fill="#018D43" d="M44.4829 14.6087C44.4829 14.6087 45.1955 14.123 46.6029 13.3277C47.3014 12.923 48.1656 12.4268 49.178 11.839C50.208 11.2865 51.4108 10.6812 52.7477 9.99145C53.0864 9.82253 53.4215 9.63601 53.7848 9.47412C54.1446 9.30872 54.515 9.14332 54.8924 8.97087C55.6508 8.62951 56.441 8.27055 57.2699 7.89751C57.478 7.80601 57.6861 7.71099 57.8943 7.61597C58.1094 7.53151 58.3246 7.44353 58.5433 7.35555C58.9807 7.1831 59.4287 7.00714 59.8837 6.82766C60.7973 6.47574 61.7321 6.0851 62.7163 5.72966C64.7022 5.07509 66.7904 4.29382 69.0621 3.70259C69.6265 3.54422 70.198 3.38234 70.7765 3.22045C71.0657 3.13951 71.3549 3.05857 71.6477 2.97762C71.944 2.91076 72.2403 2.84037 72.5402 2.77351C73.7395 2.49901 74.967 2.22099 76.2158 1.93593C86.276 -0.0700283 98.3575 -0.833701 110.933 1.18986C117.208 2.18932 123.582 3.85039 129.78 6.19772C135.978 8.53801 141.992 11.5857 147.583 15.1999C153.177 18.8106 158.352 22.9985 162.938 27.5559C167.527 32.1133 171.527 37.0403 174.868 42.0868C178.212 47.1334 180.896 52.2926 182.967 57.3005C185.065 62.3013 186.455 67.186 187.411 71.6554C188.409 76.1213 188.769 80.2318 188.97 83.7475C188.991 85.5177 188.991 87.1435 188.942 88.6075C188.833 90.0821 188.702 91.3948 188.547 92.5385C188.505 92.8236 188.473 93.0981 188.423 93.3655C188.367 93.6295 188.311 93.8829 188.258 94.1292C188.145 94.6149 188.028 95.0583 187.908 95.456C187.669 96.2513 187.415 96.8672 187.143 97.293C186.603 98.1447 186.004 98.2432 185.333 97.5218C185.333 97.5218 185.284 96.7123 185.192 95.2483C185.171 94.8823 185.146 94.4776 185.122 94.0307C185.108 93.809 185.101 93.5767 185.076 93.3374C185.051 93.0981 185.023 92.8482 184.995 92.5878C184.885 91.5566 184.762 90.3812 184.624 89.0826C184.43 87.7946 184.215 86.3834 183.99 84.8701C183.873 84.1135 183.69 83.3428 183.538 82.5439C183.379 81.745 183.213 80.9251 183.044 80.084C182.226 76.7513 181.309 73.0983 179.958 69.3925C179.358 67.5133 178.547 65.6657 177.82 63.7618C177.404 62.8292 176.988 61.8931 176.568 60.9499C176.356 60.4818 176.159 60.0032 175.933 59.5387L175.238 58.1521L174.547 56.7585C174.314 56.294 174.095 55.8259 173.834 55.3754C173.333 54.4675 172.832 53.5595 172.335 52.6551C172.095 52.1976 171.823 51.7577 171.555 51.3178C171.287 50.8779 171.023 50.438 170.758 49.9981C170.494 49.5582 170.229 49.1183 169.968 48.6819C169.707 48.2455 169.411 47.8302 169.135 47.4079C168.582 46.5598 168.028 45.7187 167.485 44.8881C166.906 44.0787 166.335 43.2763 165.77 42.4845C165.488 42.0903 165.216 41.6856 164.931 41.302C164.638 40.922 164.349 40.5454 164.059 40.1688C163.488 39.4122 162.927 38.6697 162.373 37.9412C161.795 37.2303 161.23 36.537 160.677 35.8543C160.402 35.5094 160.133 35.168 159.865 34.8337C159.601 34.4923 159.312 34.1862 159.043 33.8659C157.95 32.6025 156.973 31.3391 155.978 30.2481C152.133 25.7435 147.572 21.4184 141.692 17.2974C141.325 17.0369 140.955 16.7765 140.581 16.5126C140.2 16.2592 139.808 16.0199 139.42 15.77C138.634 15.2773 137.833 14.7741 137.018 14.2638C136.196 13.7605 135.329 13.3101 134.461 12.8209C133.586 12.3458 132.701 11.8285 131.762 11.3991C130.828 10.9522 129.872 10.4947 128.902 10.0302C127.921 9.5797 126.898 9.18555 125.864 8.74916C125.346 8.53449 124.82 8.31982 124.291 8.10514C123.751 7.9151 123.208 7.72155 122.658 7.52799C122.108 7.33443 121.55 7.14087 120.986 6.9438C120.422 6.75024 119.854 6.53909 119.268 6.38072C118.097 6.04287 116.901 5.69799 115.684 5.34959C114.457 5.02582 113.19 4.75836 111.899 4.4557C110.612 4.13193 109.275 3.94189 107.917 3.69555C107.236 3.57941 106.548 3.45624 105.853 3.34714C105.155 3.26268 104.446 3.17822 103.733 3.09376C98.0153 2.41103 91.7435 2.19284 84.9391 2.77703C78.1417 3.36122 70.8223 4.75836 63.1713 7.30276C62.2189 7.63005 61.27 7.99605 60.3035 8.34797C59.8202 8.52745 59.337 8.70693 58.8502 8.88641C58.3599 9.05886 57.8872 9.28409 57.4039 9.48468C56.4374 9.89643 55.4639 10.3152 54.4797 10.734C53.5061 11.1739 52.5396 11.6666 51.5555 12.1382C51.0651 12.3775 50.5713 12.6203 50.0739 12.8596C49.5871 13.1165 49.1039 13.3875 48.6136 13.655C47.64 14.1969 46.6453 14.7248 45.6611 15.2949C44.6946 15.8897 43.714 16.4915 42.7298 17.1003C42.4829 17.2516 42.236 17.4065 41.989 17.5578C41.7421 17.7126 41.5058 17.8851 41.2624 18.047C40.7791 18.3778 40.2959 18.7086 39.8056 19.0429C39.8056 19.0429 39.4175 19.2928 38.8002 19.6904C38.1724 20.074 37.3505 20.6653 36.451 21.2987C35.9995 21.6155 35.5303 21.9463 35.0576 22.2736C34.5885 22.6044 34.1088 22.9246 33.6784 23.266C32.8036 23.9311 31.9923 24.5329 31.3962 24.9517C30.2039 25.7928 29.8547 25.9089 31.5196 24.3394C31.9359 23.9487 32.4791 23.449 33.1669 22.8331C33.3398 22.6783 33.5197 22.5164 33.7102 22.3475C33.9077 22.1856 34.1158 22.0202 34.331 21.8442C34.7684 21.4958 35.2411 21.1157 35.7561 20.7005C36.2746 20.2922 36.8355 19.8488 37.4387 19.3702C38.063 18.9233 38.7368 18.4446 39.4528 17.9308C39.8126 17.6739 40.1865 17.41 40.571 17.139C40.9555 16.8645 41.3506 16.583 41.7774 16.3225C42.631 15.7876 43.5305 15.214 44.4829 14.6087Z"></path>
<path fill="#018D43" d="M22.8496 34.6095C22.8496 34.6095 23.0965 34.335 23.5656 33.8176C23.802 33.5607 24.0912 33.2405 24.4369 32.8639C24.7967 32.5014 25.213 32.0862 25.6786 31.6181C26.1477 31.1501 26.6663 30.6327 27.2342 30.0661C27.3753 29.9254 27.5199 29.7811 27.6681 29.6333C27.8233 29.4925 27.9785 29.3482 28.1407 29.2039C28.4617 28.9118 28.7968 28.6092 29.1425 28.296C29.8374 27.6731 30.5641 26.9903 31.3648 26.3041C32.1796 25.6354 33.0403 24.9281 33.9434 24.189C37.6048 21.2927 42.1482 18.1113 47.4852 15.2079C52.8116 12.2975 58.9282 9.66868 65.4998 7.72958C72.0679 5.78345 79.0839 4.5306 86.0753 4.12941C93.0667 3.7071 100.026 4.17868 106.478 5.31187C112.933 6.44506 118.877 8.27506 123.964 10.4112C129.064 12.5333 133.276 15.0425 136.511 17.3054C138.112 18.4703 139.216 19.3254 139.837 20.0117C140.472 20.6733 140.677 21.0639 140.518 21.2188C140.19 21.539 138.44 20.8493 135.541 19.7161C135.181 19.5683 134.807 19.4099 134.412 19.248C134.02 19.0826 133.597 18.9418 133.167 18.7729C132.302 18.4456 131.378 18.0867 130.398 17.696C128.401 17.0098 126.196 16.1722 123.745 15.4613C118.87 13.9692 113.145 12.6284 107.014 11.8717C100.891 11.1045 94.3648 10.925 88.0401 11.4001C81.7119 11.8612 75.5953 12.9803 70.2089 14.4513C64.8155 15.9118 60.1628 17.7136 56.5719 19.2058C55.6759 19.5894 54.8399 19.9378 54.0709 20.251C53.316 20.5924 52.6317 20.9091 52.0144 21.1766C50.7833 21.7115 49.8309 22.0704 49.2489 22.2746C48.6563 22.4646 48.0214 22.6793 47.3441 22.9186C46.6703 23.1649 45.9366 23.4078 45.2029 23.7491C44.4622 24.0764 43.6756 24.4318 42.8501 24.8225C42.441 25.0196 42.0036 25.2061 41.5838 25.4383C41.1605 25.6706 40.7301 25.9064 40.2857 26.1492C36.7053 28.0672 32.61 30.7876 28.2077 34.5883C27.0719 35.5069 26.0137 36.5767 24.8637 37.6536C24.578 37.9246 24.2923 38.1991 24.003 38.4771C23.7208 38.7622 23.4492 39.0578 23.167 39.3534C22.6062 39.9481 22.0383 40.5534 21.4598 41.1693C20.8672 41.7781 20.3239 42.4433 19.7595 43.1119C19.1952 43.7841 18.6237 44.4703 18.0417 45.1636C17.4808 45.8745 16.9376 46.6206 16.3697 47.3667C15.8159 48.1233 15.2127 48.8694 14.6906 49.6858C14.1509 50.4917 13.6042 51.3117 13.0468 52.1458C12.9093 52.3534 12.7682 52.5646 12.6306 52.7757C12.5001 52.9939 12.3731 53.2086 12.2426 53.4268C11.9815 53.8632 11.7205 54.3066 11.456 54.75C11.1914 55.197 10.9268 55.6439 10.6623 56.0979C10.5282 56.3231 10.3977 56.5519 10.2637 56.7806C10.1402 57.0164 10.0168 57.2487 9.8933 57.4845C9.39946 58.4311 8.89857 59.3919 8.39062 60.3667C8.12606 60.8524 7.90736 61.3591 7.67455 61.8659C7.44174 62.3727 7.20892 62.8865 6.97611 63.4003C6.7433 63.9176 6.50696 64.4385 6.27063 64.9628C6.04487 65.4907 5.84381 66.0327 5.62863 66.5746C5.2124 67.6621 4.75383 68.7565 4.35876 69.8897C3.98132 71.03 3.60036 72.1843 3.21234 73.3562C3.21234 73.3562 3.16648 73.0746 3.27936 72.0611C3.3358 71.5543 3.4381 70.861 3.60389 69.9285C3.64621 69.6962 3.68854 69.4463 3.74498 69.1824C3.80848 68.922 3.87903 68.6439 3.94957 68.3518C4.09773 67.7641 4.27057 67.1131 4.47163 66.3846C5.26883 63.4777 6.66923 59.42 9.35008 54.0391C9.69224 53.3705 10.045 52.6772 10.4154 51.9557C10.7893 51.2413 11.2267 50.5305 11.657 49.7773C12.0944 49.0313 12.5389 48.257 13.0186 47.4687C13.5266 46.698 14.0486 45.8992 14.5918 45.0792C14.8635 44.6709 15.1421 44.2522 15.4208 43.8298C15.71 43.4111 16.024 43.0028 16.3309 42.5805C16.9552 41.7394 17.5972 40.8737 18.2604 39.9798C19.6819 38.2695 21.1282 36.4113 22.8496 34.6095Z"></path>
<path fill="#018D43" d="M39.8304 176.96C41.7529 178.333 43.7494 179.512 45.6824 180.705C46.6666 181.272 47.6578 181.803 48.6314 182.341C49.1217 182.609 49.6014 182.88 50.0917 183.137C50.5856 183.38 51.0794 183.619 51.5697 183.858C52.5539 184.33 53.5169 184.822 54.4904 185.262C55.4746 185.681 56.4482 186.1 57.4147 186.512C57.9015 186.709 58.3706 186.937 58.8609 187.11C59.3477 187.289 59.831 187.469 60.3142 187.648C61.2807 188 62.2296 188.366 63.182 188.69C70.8295 191.231 78.1489 192.628 84.9428 193.212C91.7437 193.796 98.0155 193.578 103.733 192.896C104.45 192.811 105.155 192.727 105.853 192.642C106.552 192.533 107.236 192.41 107.917 192.294C109.275 192.047 110.612 191.861 111.899 191.534C113.19 191.231 114.457 190.963 115.684 190.64C116.905 190.288 118.097 189.943 119.268 189.605C119.854 189.447 120.422 189.236 120.986 189.042C121.551 188.845 122.108 188.651 122.658 188.458C123.208 188.264 123.755 188.071 124.295 187.881C124.824 187.662 125.35 187.448 125.868 187.237C126.902 186.8 127.928 186.406 128.909 185.956C129.879 185.491 130.835 185.034 131.769 184.583C132.711 184.154 133.593 183.636 134.472 183.161C135.343 182.672 136.211 182.222 137.032 181.718C137.847 181.208 138.648 180.705 139.435 180.212C139.826 179.962 140.218 179.723 140.595 179.47C140.969 179.206 141.339 178.945 141.706 178.685C147.587 174.56 152.151 170.232 155.992 165.731C156.984 164.636 157.961 163.373 159.054 162.113C159.322 161.793 159.612 161.483 159.873 161.145C160.141 160.811 160.409 160.469 160.684 160.124C161.238 159.445 161.802 158.748 162.377 158.041C162.927 157.313 163.492 156.57 164.063 155.817C164.352 155.444 164.642 155.064 164.934 154.684C165.22 154.297 165.488 153.895 165.774 153.501C166.338 152.709 166.91 151.911 167.488 151.101C168.032 150.271 168.585 149.43 169.139 148.581C169.414 148.156 169.711 147.744 169.972 147.307C170.233 146.871 170.497 146.431 170.762 145.991C171.026 145.551 171.294 145.115 171.559 144.672C171.827 144.232 172.102 143.795 172.339 143.334C172.836 142.43 173.337 141.522 173.838 140.614C174.099 140.167 174.321 139.695 174.55 139.231L175.242 137.837L175.937 136.451C176.162 135.986 176.36 135.507 176.571 135.039C176.991 134.1 177.407 133.16 177.824 132.231C178.55 130.327 179.365 128.48 179.961 126.6C181.312 122.898 182.229 119.242 183.048 115.912C183.217 115.071 183.379 114.251 183.542 113.452C183.693 112.654 183.877 111.883 183.993 111.126C184.222 109.613 184.434 108.202 184.628 106.914C184.766 105.615 184.889 104.44 184.998 103.409C185.027 103.152 185.055 102.902 185.08 102.659C185.104 102.42 185.108 102.187 185.125 101.966C185.15 101.522 185.175 101.114 185.196 100.748C185.288 99.284 185.337 98.4746 185.337 98.4746C186.004 97.7567 186.607 97.8517 187.147 98.7034C187.415 99.1292 187.672 99.7451 187.912 100.54C188.032 100.938 188.148 101.382 188.261 101.867C188.314 102.11 188.371 102.367 188.427 102.631C188.48 102.895 188.512 103.169 188.551 103.458C188.706 104.602 188.836 105.914 188.946 107.385C188.995 108.853 188.992 110.475 188.974 112.245C188.773 115.761 188.417 119.872 187.415 124.337C186.459 128.807 185.069 133.692 182.974 138.689C180.903 143.697 178.219 148.856 174.875 153.902C171.534 158.949 167.538 163.876 162.948 168.433C158.363 172.994 153.192 177.179 147.594 180.793C141.999 184.407 135.988 187.451 129.791 189.795C123.593 192.142 117.222 193.804 110.947 194.803C98.3717 196.827 86.2903 196.066 76.23 194.06C74.9778 193.775 73.7502 193.494 72.5544 193.223C72.2546 193.152 71.9583 193.086 71.662 193.019C71.3692 192.938 71.08 192.857 70.7907 192.776C70.2122 192.614 69.6408 192.452 69.0764 192.294C66.8047 191.703 64.72 190.925 62.7305 190.267C61.7464 189.915 60.8116 189.524 59.898 189.172C59.4429 188.993 58.995 188.817 58.5576 188.644C58.3389 188.556 58.1202 188.472 57.9085 188.384C57.6969 188.289 57.4887 188.194 57.2842 188.102C56.4587 187.729 55.6651 187.37 54.9102 187.029C54.5328 186.857 54.1624 186.688 53.8026 186.526C53.4393 186.364 53.1041 186.174 52.7655 186.008C51.4286 185.319 50.2258 184.713 49.1957 184.161C48.1834 183.577 47.3192 183.077 46.6207 182.672C45.9258 182.264 45.3791 181.965 45.0298 181.736C44.6771 181.511 44.4972 181.391 44.4972 181.391C43.5448 180.786 42.6453 180.212 41.7987 179.674C41.3719 179.41 40.9733 179.132 40.5888 178.854C40.2043 178.579 39.8304 178.315 39.4706 178.062C38.751 177.548 38.0808 177.07 37.4529 176.619C36.8497 176.141 36.2889 175.701 35.7703 175.289C35.2553 174.877 34.7791 174.493 34.3452 174.145C34.1265 173.969 33.9219 173.8 33.7244 173.642C33.5339 173.473 33.354 173.311 33.1812 173.156C32.4933 172.54 31.9501 172.041 31.5339 171.65C29.8689 170.08 30.2181 170.197 31.4139 171.038C32.0136 171.46 32.8214 172.062 33.6997 172.73C34.1301 173.072 34.6098 173.392 35.0825 173.723C35.5516 174.054 36.0243 174.384 36.4758 174.701C36.9273 175.018 37.3577 175.324 37.7527 175.602C38.1443 175.887 38.5217 176.105 38.8286 176.313C39.4424 176.707 39.8304 176.96 39.8304 176.96Z"></path>
<path fill="#018D43" d="M49.2591 173.723C49.8411 173.927 50.7935 174.286 52.0281 174.821C52.6454 175.088 53.3298 175.405 54.0846 175.747C54.8536 176.06 55.6931 176.408 56.5856 176.792C60.1765 178.284 64.8292 180.086 70.2227 181.546C75.6091 183.017 81.7292 184.136 88.0574 184.594C94.3821 185.065 100.908 184.886 107.031 184.119C113.162 183.362 118.891 182.021 123.762 180.526C126.214 179.815 128.418 178.977 130.415 178.287C131.395 177.897 132.32 177.538 133.184 177.211C133.614 177.042 134.037 176.901 134.429 176.735C134.821 176.57 135.198 176.415 135.558 176.267C138.457 175.134 140.207 174.444 140.535 174.765C140.697 174.92 140.489 175.31 139.858 175.972C139.237 176.658 138.136 177.517 136.531 178.678C133.3 180.941 129.092 183.454 123.988 185.572C118.901 187.712 112.961 189.542 106.502 190.675C100.051 191.812 93.0946 192.283 86.0996 191.865C79.1047 191.463 72.0887 190.214 65.5206 188.268C58.9454 186.332 52.8324 183.704 47.5024 180.793C42.1654 177.89 37.6186 174.708 33.9571 171.812C33.0541 171.073 32.1934 170.366 31.375 169.697C30.5707 169.014 29.8476 168.328 29.1492 167.705C28.8035 167.392 28.4684 167.089 28.1474 166.797C27.9851 166.649 27.8299 166.509 27.6747 166.368C27.5266 166.22 27.3819 166.076 27.2408 165.935C26.6729 165.368 26.1544 164.851 25.6852 164.383C25.2196 163.915 24.8034 163.5 24.4436 163.137C24.1014 162.761 23.8087 162.44 23.5723 162.183C23.1032 161.666 22.8562 161.392 22.8562 161.392C21.1349 159.586 19.6851 157.732 18.2671 156.018C17.6039 155.124 16.9619 154.258 16.3375 153.417C16.0307 152.995 15.7167 152.583 15.4275 152.168C15.1453 151.745 14.8701 151.327 14.5985 150.918C14.0588 150.095 13.5332 149.3 13.0253 148.525C12.542 147.737 12.1011 146.963 11.6637 146.217C11.2333 145.467 10.7959 144.753 10.422 144.038C10.0552 143.32 9.69891 142.627 9.35675 141.955C6.67237 136.571 5.27551 132.516 4.47831 129.613C4.27724 128.885 4.1044 128.233 3.95624 127.646C3.88217 127.354 3.81515 127.076 3.75165 126.815C3.69169 126.555 3.65289 126.305 3.60703 126.069C3.44124 125.137 3.34247 124.447 3.2825 123.94C3.1661 122.926 3.21548 122.648 3.21548 122.648C3.6035 123.82 3.98446 124.975 4.3619 126.115C4.7605 127.248 5.21554 128.343 5.63178 129.43C5.84695 129.972 6.04801 130.514 6.2773 131.042C6.51364 131.566 6.74997 132.087 6.98278 132.601C7.2156 133.115 7.44841 133.628 7.68122 134.135C7.91403 134.642 8.13273 135.149 8.39729 135.634C8.90524 136.609 9.40613 137.57 9.89997 138.517C10.0234 138.752 10.1469 138.988 10.2704 139.22C10.4044 139.449 10.5384 139.678 10.6725 139.903C10.9406 140.354 11.2051 140.804 11.4662 141.251C11.7307 141.695 11.9917 142.134 12.2528 142.574C12.3833 142.793 12.5138 143.011 12.6443 143.225C12.7854 143.437 12.923 143.644 13.0606 143.855C13.6179 144.689 14.1646 145.506 14.7043 146.315C15.2264 147.132 15.8296 147.878 16.3834 148.634C16.9513 149.384 17.491 150.127 18.0554 150.837C18.6374 151.531 19.2089 152.217 19.7733 152.889C20.3377 153.558 20.8809 154.223 21.4735 154.832C22.052 155.448 22.6199 156.053 23.1808 156.648C23.463 156.943 23.7346 157.239 24.0168 157.524C24.306 157.802 24.5917 158.077 24.8775 158.348C26.0274 159.424 27.0856 160.494 28.2215 161.413C32.6237 165.214 36.7191 167.934 40.2994 169.852C40.7439 170.095 41.1777 170.33 41.5975 170.563C42.0173 170.792 42.4547 170.978 42.8639 171.179C43.6928 171.566 44.4759 171.925 45.2167 172.252C45.9468 172.593 46.6876 172.836 47.3578 173.083C48.0316 173.318 48.663 173.533 49.2591 173.723Z"></path>
<path fill="#018D43" d="M23.262 45.2428C23.7558 44.8521 24.1297 44.6163 24.3907 44.5213C24.6624 44.4298 24.8176 44.4756 24.874 44.6339C24.9798 44.9436 24.74 45.746 24.2179 46.8581C23.9604 47.4141 23.6359 48.0546 23.2549 48.7549C22.8986 49.4694 22.5106 50.2612 22.0767 51.0952C21.858 51.5105 21.6323 51.9363 21.3995 52.3762C21.1596 52.8091 20.9586 53.2807 20.7293 53.7452C20.2742 54.6743 19.8016 55.6386 19.3183 56.6204C17.4558 60.576 15.7909 64.9047 14.6303 68.255C14.1047 69.9478 13.6603 71.3801 13.3499 72.3901C13.0818 73.4107 12.9231 74.0054 12.9231 74.0054C11.3145 80.1113 10.3727 86.2453 10.0129 91.9641C9.64607 97.6828 9.84713 102.976 10.2739 107.442C10.4045 108.557 10.5315 109.624 10.6479 110.634C10.6937 111.14 10.789 111.63 10.8666 112.105C10.9442 112.58 11.0218 113.041 11.0958 113.488C11.1699 113.935 11.2405 114.367 11.3075 114.783C11.3428 114.99 11.3745 115.195 11.4063 115.395C11.4486 115.592 11.4909 115.789 11.5332 115.979C11.6955 116.743 11.8472 117.443 11.9812 118.073C12.1188 118.703 12.2246 119.27 12.3446 119.755C12.4715 120.238 12.5809 120.649 12.6656 120.984C12.8384 121.649 12.9301 122.004 12.9301 122.004C12.9301 122.004 13.0853 122.599 13.3569 123.62C13.6709 124.63 14.1153 126.062 14.6374 127.751C15.7979 131.098 17.4664 135.427 19.3253 139.382C19.8051 140.364 20.2813 141.328 20.7363 142.257C20.9691 142.722 21.1667 143.193 21.4101 143.626C21.6429 144.066 21.8686 144.492 22.0873 144.907C22.5212 145.738 22.9092 146.53 23.2655 147.244C23.6429 147.944 23.9675 148.581 24.225 149.137C24.7435 150.25 24.9869 151.052 24.8811 151.362C24.8246 151.52 24.6659 151.562 24.3943 151.474C24.1297 151.379 23.7593 151.143 23.2655 150.753C22.5424 150.179 21.791 149.549 21.015 148.87C20.2601 148.177 19.5194 147.41 18.7398 146.611C18.3553 146.206 17.9532 145.801 17.5722 145.368C17.2018 144.928 16.8244 144.478 16.4434 144.024C16.066 143.563 15.685 143.095 15.297 142.62C15.1065 142.381 14.9055 142.145 14.7256 141.895C14.5457 141.645 14.3622 141.392 14.1823 141.138C13.4628 140.118 12.7044 139.076 11.9989 137.982C11.3145 136.876 10.6302 135.74 9.94237 134.585C9.29685 133.414 8.68308 132.21 8.05872 130.999C7.7342 130.398 7.46258 129.775 7.18744 129.152L6.3585 127.276C4.21029 122.244 2.64411 116.986 1.62115 112.122C1.39892 110.898 1.18375 109.708 0.972102 108.554C0.922717 108.265 0.866278 107.98 0.823949 107.695C0.788675 107.41 0.7534 107.125 0.718126 106.847C0.647577 106.284 0.580556 105.735 0.513535 105.193C0.450041 104.651 0.386547 104.123 0.323053 103.609C0.294834 103.352 0.25956 103.095 0.238395 102.842C0.220758 102.589 0.203121 102.339 0.189011 102.092C0.125517 101.107 0.0655506 100.174 0.012639 99.3052C-0.0296902 98.0383 0.044386 96.7748 0.0867152 95.5079C0.153736 94.6105 0.185483 93.6568 0.294834 92.6609C0.414767 91.6649 0.541754 90.6232 0.672269 89.5393C0.746346 88.9973 0.792202 88.4448 0.894498 87.8888C0.993266 87.3327 1.09556 86.7662 1.19786 86.1925C1.30368 85.6189 1.4095 85.0382 1.51533 84.447C1.56824 84.1514 1.62468 83.8558 1.68112 83.5601C1.74108 83.2645 1.81869 82.9654 1.88923 82.6662C2.17848 81.4767 2.47479 80.2556 2.77462 79.0168C3.12031 77.7886 3.51186 76.5533 3.89282 75.3075C3.98806 74.9978 4.08683 74.6846 4.18207 74.3714C4.28789 74.0617 4.40782 73.752 4.5207 73.4424C4.74999 72.8265 4.97927 72.2036 5.20855 71.5842C5.44489 70.9648 5.66359 70.3419 5.91757 69.726C6.18565 69.1172 6.45374 68.5084 6.72182 67.8996L7.53313 66.0801C7.66365 65.7775 7.8118 65.4783 7.96701 65.1862L8.42205 64.3029C8.7254 63.7187 9.03229 63.1345 9.33565 62.5539L9.79422 61.6881C9.95295 61.4031 10.1258 61.125 10.2881 60.847C10.9583 59.7314 11.6179 58.6334 12.2916 57.5706C13.0077 56.5289 13.7238 55.5119 14.4293 54.53C14.7714 54.0338 15.1559 53.5657 15.5298 53.1047C15.9037 52.6472 16.2741 52.1968 16.641 51.7498C17.0114 51.3064 17.3712 50.8735 17.738 50.4547C18.1225 50.05 18.5035 49.6524 18.8774 49.2582C19.6358 48.4875 20.3483 47.7414 21.0891 47.0728C21.8298 46.4111 22.5565 45.7988 23.262 45.2428Z"></path>
</g>
<g clip-path="url(#clip1_955_3608)">
<path fill="#313131" d="M144.803 73.5072C143.262 58.9808 133.178 50.7441 124.325 51.1679C121.242 51.3166 118.589 52.5156 116.655 54.6359C114.591 56.897 113.482 60.1183 113.446 63.9507C113.417 67.2468 114.428 69.1806 115.321 70.8869C115.715 71.5895 116.049 72.3246 116.318 73.0839C116.57 73.8883 116.735 74.717 116.812 75.5562H110.08C107.166 75.5595 104.373 76.7185 102.312 78.7788C100.252 80.8392 99.0929 83.6327 99.0896 86.5464V107.044C96.3798 106.633 93.6242 106.625 90.912 107.02V86.547C90.9088 83.6333 89.7499 80.8399 87.6896 78.7795C85.6293 76.7191 82.8359 75.5602 79.9222 75.5568H73.1864C73.2639 74.7181 73.4303 73.89 73.6827 73.0865C73.9523 72.3265 74.2861 71.5909 74.6806 70.8877C75.5734 69.1814 76.5849 67.2474 76.5556 63.9515C76.5198 60.1191 75.4105 56.8984 73.3474 54.6373C71.4138 52.5172 68.7611 51.317 65.6779 51.1689C56.822 50.7361 46.7372 58.9795 45.1933 73.5095C44.9356 75.7776 44.9356 78.0675 45.1933 80.3355C46.6989 94.5048 56.3261 102.691 65.0175 102.691C65.2378 102.691 65.4587 102.686 65.6777 102.675C68.7609 102.527 71.4128 101.328 73.3472 99.2072C75.4103 96.9459 76.5197 93.7252 76.5554 89.892C76.5845 86.5961 75.573 84.6621 74.6804 82.9558C74.2857 82.2523 73.9518 81.5162 73.6823 80.7558C73.4299 79.9545 73.2636 79.1285 73.1863 78.292H79.922C82.1106 78.2945 84.2088 79.165 85.7563 80.7126C87.3038 82.2602 88.1743 84.3585 88.1767 86.547V107.558C87.0171 107.846 85.8758 108.203 84.7587 108.627C81.5437 109.843 79.6415 112.32 79.2591 115.79C78.8837 119.195 80.0073 123.466 82.4232 127.815C84.4661 131.494 87.2083 134.758 89.8656 136.702V143.478C89.8656 143.841 90.0096 144.189 90.266 144.445C90.5224 144.702 90.8701 144.846 91.2327 144.846H98.7626C99.1252 144.846 99.473 144.702 99.7294 144.445C99.9858 144.189 100.13 143.841 100.13 143.478V136.678C102.798 134.715 105.549 131.427 107.596 127.726C110.016 123.35 111.131 119.07 110.733 115.674C110.331 112.236 108.419 109.798 105.207 108.621C104.099 108.214 102.97 107.868 101.824 107.585V86.547C101.827 84.3583 102.697 82.2601 104.245 80.7125C105.793 79.165 107.891 78.2946 110.08 78.2923H116.811C116.735 79.1292 116.57 79.9556 116.319 80.7576C116.049 81.5176 115.715 82.2532 115.321 82.9564C114.428 84.6627 113.417 86.5964 113.446 89.8931C113.481 93.7257 114.591 96.9468 116.654 99.2082C118.588 101.328 121.241 102.527 124.325 102.676C124.544 102.686 124.763 102.691 124.983 102.692C133.675 102.692 143.301 94.5039 144.802 80.3371C145.066 78.0681 145.066 75.7762 144.803 73.5072ZM71.0796 81.5963C71.3947 82.5047 71.7888 83.3839 72.2574 84.2236C73.0732 85.7836 73.8441 87.2568 73.821 89.8681C73.7644 95.93 70.671 99.697 65.546 99.9445C59.1407 100.25 49.4261 94.2849 47.9136 80.0484C47.6745 77.9714 47.6745 75.8738 47.9136 73.7968C49.389 59.908 58.663 53.8884 65.0679 53.8884C65.2288 53.8884 65.3888 53.8923 65.546 53.9C70.6706 54.1476 73.764 57.9144 73.821 63.9756C73.8441 66.5867 73.0732 68.0601 72.2574 69.6201C71.7888 70.4597 71.3948 71.3388 71.0798 72.2472C70.7408 73.3225 70.5259 74.4329 70.4392 75.557H66.2306C65.8981 73.1622 64.7115 70.9682 62.8893 69.379C61.0671 67.7898 58.7322 66.9126 56.3144 66.9088C55.9518 66.9088 55.604 67.0528 55.3476 67.3092C55.0912 67.5656 54.9472 67.9133 54.9472 68.2759C54.9472 68.6385 55.0912 68.9863 55.3476 69.2427C55.604 69.4991 55.9518 69.6431 56.3144 69.6431C58.0068 69.6458 59.6455 70.2373 60.9494 71.3161C62.2534 72.395 63.1412 73.894 63.4607 75.556H56.3144C55.9518 75.556 55.604 75.7001 55.3476 75.9565C55.0912 76.2129 54.9472 76.5606 54.9472 76.9232C54.9472 77.2858 55.0912 77.6336 55.3476 77.89C55.604 78.1464 55.9518 78.2904 56.3144 78.2904H63.4605C63.1401 79.9514 62.2518 81.4492 60.948 82.5271C59.6442 83.6049 58.006 84.1956 56.3144 84.1978C55.9518 84.1978 55.604 84.3419 55.3476 84.5983C55.0912 84.8547 54.9472 85.2024 54.9472 85.565C54.9472 85.9276 55.0912 86.2754 55.3476 86.5318C55.604 86.7881 55.9518 86.9322 56.3144 86.9322C58.731 86.9289 61.0651 86.0529 62.8871 84.4654C64.7091 82.8779 65.8964 80.6857 66.2306 78.2923H70.4386C70.5253 79.4145 70.7404 80.5231 71.0796 81.5963ZM108.017 115.992C108.732 122.097 103.111 131.451 98.0085 134.826C97.82 134.95 97.6654 135.12 97.5584 135.319C97.4514 135.518 97.3954 135.74 97.3954 135.966V142.111H92.6007V135.988C92.6008 135.761 92.5445 135.538 92.4369 135.338C92.3293 135.139 92.1737 134.969 91.9843 134.845C86.9161 131.514 81.3034 122.205 81.9779 116.089C82.248 113.641 83.4743 112.036 85.7279 111.184C91.7708 108.893 98.0083 108.895 104.267 111.189C106.508 112.011 107.734 113.582 108.017 115.992ZM142.083 80.0468C140.61 93.9353 131.338 99.9554 124.934 99.955C124.774 99.955 124.614 99.9511 124.457 99.9435C119.332 99.6966 116.238 95.9296 116.181 89.8677C116.158 87.257 116.929 85.7838 117.744 84.2232C118.213 83.383 118.607 82.5033 118.922 81.5943C119.259 80.5211 119.472 79.4129 119.558 78.2914H123.77C124.103 80.6854 125.29 82.8784 127.113 84.4665C128.935 86.0546 131.269 86.9308 133.687 86.9339C134.049 86.9339 134.397 86.7899 134.653 86.5335C134.91 86.2771 135.054 85.9294 135.054 85.5668C135.054 85.2042 134.91 84.8564 134.653 84.6C134.397 84.3436 134.049 84.1996 133.687 84.1996C131.995 84.1972 130.357 83.6065 129.053 82.5287C127.75 81.4509 126.862 79.9532 126.541 78.2923H133.687C134.05 78.2923 134.398 78.1483 134.654 77.8919C134.911 77.6355 135.055 77.2878 135.055 76.9252C135.055 76.5626 134.911 76.2148 134.654 75.9584C134.398 75.702 134.05 75.558 133.687 75.558H126.541C126.86 73.896 127.748 72.397 129.052 71.3181C130.356 70.2392 131.995 69.6477 133.687 69.6451C134.05 69.6451 134.398 69.501 134.654 69.2446C134.911 68.9882 135.055 68.6405 135.055 68.2779C135.055 67.9153 134.911 67.5675 134.654 67.3111C134.398 67.0547 134.05 66.9107 133.687 66.9107C131.27 66.9141 128.935 67.7909 127.112 69.3796C125.29 70.9684 124.103 73.1621 123.77 75.5568H119.559C119.472 74.4331 119.259 73.3229 118.922 72.2474C118.607 71.3391 118.213 70.4601 117.744 69.6205C116.928 68.0607 116.158 66.5873 116.182 63.9759C116.239 57.914 119.333 54.1472 124.458 53.9002C130.861 53.5888 140.574 59.5597 142.084 73.7982C142.328 75.874 142.327 77.9712 142.083 80.0468Z"></path>
</g>
<defs>
<clipPath id="clip0_955_3608">
<rect fill="white" height="196" width="189"></rect>
</clipPath>
<clipPath id="clip1_955_3608">
<rect transform="translate(45 48)" fill="white" height="100" width="100"></rect>
</clipPath>
</defs>
</svg>
