<svg xmlns="http://www.w3.org/2000/svg" fill="none" viewBox="0 0 189 196" height="196" width="189">
<g clip-path="url(#clip0_79_969)">
<path fill="#018D43" d="M44.4829 14.6087C44.4829 14.6087 45.1955 14.123 46.6029 13.3277C47.3014 12.923 48.1656 12.4268 49.178 11.839C50.208 11.2865 51.4108 10.6812 52.7477 9.99145C53.0864 9.82253 53.4215 9.63601 53.7848 9.47412C54.1446 9.30872 54.515 9.14332 54.8924 8.97087C55.6508 8.62951 56.441 8.27055 57.2699 7.89751C57.478 7.80601 57.6861 7.71099 57.8943 7.61597C58.1094 7.53151 58.3246 7.44353 58.5433 7.35555C58.9807 7.1831 59.4287 7.00714 59.8837 6.82766C60.7973 6.47574 61.7321 6.0851 62.7163 5.72966C64.7022 5.07509 66.7904 4.29382 69.0621 3.70259C69.6265 3.54422 70.198 3.38234 70.7765 3.22045C71.0657 3.13951 71.3549 3.05857 71.6477 2.97762C71.944 2.91076 72.2403 2.84037 72.5402 2.77351C73.7395 2.49901 74.967 2.22099 76.2158 1.93593C86.276 -0.0700283 98.3575 -0.833701 110.933 1.18986C117.208 2.18932 123.582 3.85039 129.78 6.19772C135.978 8.53801 141.992 11.5857 147.583 15.1999C153.177 18.8106 158.352 22.9985 162.938 27.5559C167.527 32.1133 171.527 37.0403 174.868 42.0868C178.212 47.1334 180.896 52.2926 182.967 57.3005C185.065 62.3013 186.455 67.186 187.411 71.6554C188.409 76.1213 188.769 80.2318 188.97 83.7475C188.991 85.5177 188.991 87.1435 188.942 88.6075C188.833 90.0821 188.702 91.3948 188.547 92.5385C188.505 92.8236 188.473 93.0981 188.423 93.3655C188.367 93.6295 188.311 93.8829 188.258 94.1292C188.145 94.6149 188.028 95.0583 187.908 95.456C187.669 96.2513 187.415 96.8672 187.143 97.293C186.603 98.1447 186.004 98.2432 185.333 97.5218C185.333 97.5218 185.284 96.7123 185.192 95.2483C185.171 94.8823 185.146 94.4776 185.122 94.0307C185.108 93.809 185.101 93.5767 185.076 93.3374C185.051 93.0981 185.023 92.8482 184.995 92.5878C184.885 91.5566 184.762 90.3812 184.624 89.0826C184.43 87.7946 184.215 86.3834 183.99 84.8701C183.873 84.1135 183.69 83.3428 183.538 82.5439C183.379 81.745 183.213 80.9251 183.044 80.084C182.226 76.7513 181.309 73.0983 179.958 69.3925C179.358 67.5133 178.547 65.6657 177.82 63.7618C177.404 62.8292 176.988 61.8931 176.568 60.9499C176.356 60.4818 176.159 60.0032 175.933 59.5387L175.238 58.1521L174.547 56.7585C174.314 56.294 174.095 55.8259 173.834 55.3754C173.333 54.4675 172.832 53.5595 172.335 52.6551C172.095 52.1976 171.823 51.7577 171.555 51.3178C171.287 50.8779 171.023 50.438 170.758 49.9981C170.494 49.5582 170.229 49.1183 169.968 48.6819C169.707 48.2455 169.411 47.8302 169.135 47.4079C168.582 46.5598 168.028 45.7187 167.485 44.8881C166.906 44.0787 166.335 43.2763 165.77 42.4845C165.488 42.0903 165.216 41.6856 164.931 41.302C164.638 40.922 164.349 40.5454 164.059 40.1688C163.488 39.4122 162.927 38.6697 162.373 37.9412C161.795 37.2303 161.23 36.537 160.677 35.8543C160.402 35.5094 160.133 35.168 159.865 34.8337C159.601 34.4923 159.312 34.1862 159.043 33.8659C157.95 32.6025 156.973 31.3391 155.978 30.2481C152.133 25.7435 147.572 21.4184 141.692 17.2974C141.325 17.0369 140.955 16.7765 140.581 16.5126C140.2 16.2592 139.808 16.0199 139.42 15.77C138.634 15.2773 137.833 14.7741 137.018 14.2638C136.196 13.7605 135.329 13.3101 134.461 12.8209C133.586 12.3458 132.701 11.8285 131.762 11.3991C130.828 10.9522 129.872 10.4947 128.902 10.0302C127.921 9.5797 126.898 9.18555 125.864 8.74916C125.346 8.53449 124.82 8.31982 124.291 8.10514C123.751 7.9151 123.208 7.72155 122.658 7.52799C122.108 7.33443 121.55 7.14087 120.986 6.9438C120.422 6.75024 119.854 6.53909 119.268 6.38072C118.097 6.04287 116.901 5.69799 115.684 5.34959C114.457 5.02582 113.19 4.75836 111.899 4.4557C110.612 4.13193 109.275 3.94189 107.917 3.69555C107.236 3.57941 106.548 3.45624 105.853 3.34714C105.155 3.26268 104.446 3.17822 103.733 3.09376C98.0153 2.41103 91.7435 2.19284 84.9391 2.77703C78.1417 3.36122 70.8223 4.75836 63.1713 7.30276C62.2189 7.63005 61.27 7.99605 60.3035 8.34797C59.8202 8.52745 59.337 8.70693 58.8502 8.88641C58.3599 9.05886 57.8872 9.28409 57.4039 9.48468C56.4374 9.89643 55.4639 10.3152 54.4797 10.734C53.5061 11.1739 52.5396 11.6666 51.5555 12.1382C51.0651 12.3775 50.5713 12.6203 50.0739 12.8596C49.5871 13.1165 49.1039 13.3875 48.6136 13.655C47.64 14.1969 46.6453 14.7248 45.6611 15.2949C44.6946 15.8897 43.714 16.4915 42.7298 17.1003C42.4829 17.2516 42.236 17.4065 41.989 17.5578C41.7421 17.7126 41.5058 17.8851 41.2624 18.047C40.7791 18.3778 40.2959 18.7086 39.8056 19.0429C39.8056 19.0429 39.4175 19.2928 38.8002 19.6904C38.1724 20.074 37.3505 20.6653 36.451 21.2987C35.9995 21.6155 35.5303 21.9463 35.0576 22.2736C34.5885 22.6044 34.1088 22.9246 33.6784 23.266C32.8036 23.9311 31.9923 24.5329 31.3962 24.9517C30.2039 25.7928 29.8547 25.9089 31.5196 24.3394C31.9359 23.9487 32.4791 23.449 33.1669 22.8331C33.3398 22.6783 33.5197 22.5164 33.7102 22.3475C33.9077 22.1856 34.1158 22.0202 34.331 21.8442C34.7684 21.4958 35.2411 21.1157 35.7561 20.7005C36.2746 20.2922 36.8355 19.8488 37.4387 19.3702C38.063 18.9233 38.7368 18.4446 39.4528 17.9308C39.8126 17.6739 40.1865 17.41 40.571 17.139C40.9555 16.8645 41.3506 16.583 41.7774 16.3225C42.631 15.7876 43.5305 15.214 44.4829 14.6087Z"></path>
<path fill="#018D43" d="M22.8496 34.6085C22.8496 34.6085 23.0965 34.334 23.5656 33.8167C23.802 33.5598 24.0912 33.2395 24.4369 32.8629C24.7967 32.5005 25.213 32.0852 25.6786 31.6171C26.1477 31.1491 26.6663 30.6318 27.2342 30.0652C27.3753 29.9244 27.5199 29.7801 27.6681 29.6323C27.8233 29.4915 27.9785 29.3472 28.1407 29.2029C28.4617 28.9109 28.7968 28.6082 29.1425 28.295C29.8374 27.6721 30.5641 26.9894 31.3648 26.3031C32.1796 25.6344 33.0403 24.9271 33.9434 24.188C37.6048 21.2917 42.1482 18.1103 47.4852 15.207C52.8116 12.2966 58.9282 9.6677 65.4998 7.72861C72.0679 5.78247 79.0839 4.52963 86.0753 4.12843C93.0667 3.70613 100.026 4.1777 106.478 5.3109C112.933 6.44409 118.877 8.27409 123.964 10.4103C129.064 12.5324 133.276 15.0416 136.511 17.3044C138.112 18.4693 139.216 19.3245 139.837 20.0107C140.472 20.6723 140.677 21.063 140.518 21.2178C140.19 21.5381 138.44 20.8483 135.541 19.7151C135.181 19.5673 134.807 19.4089 134.412 19.247C134.02 19.0816 133.597 18.9409 133.167 18.7719C132.302 18.4447 131.378 18.0857 130.398 17.6951C128.401 17.0088 126.196 16.1712 123.745 15.4604C118.87 13.9682 113.145 12.6274 107.014 11.8707C100.891 11.1035 94.3648 10.9241 88.0401 11.3992C81.7119 11.8602 75.5953 12.9793 70.2089 14.4503C64.8155 15.9108 60.1628 17.7127 56.5719 19.2048C55.6759 19.5884 54.8399 19.9368 54.0709 20.25C53.316 20.5914 52.6317 20.9081 52.0144 21.1756C50.7833 21.7105 49.8309 22.0695 49.2489 22.2736C48.6563 22.4636 48.0214 22.6783 47.3441 22.9176C46.6703 23.1639 45.9366 23.4068 45.2029 23.7481C44.4622 24.0754 43.6756 24.4309 42.8501 24.8215C42.441 25.0186 42.0036 25.2051 41.5838 25.4374C41.1605 25.6696 40.7301 25.9054 40.2857 26.1483C36.7053 28.0662 32.61 30.7866 28.2077 34.5874C27.0719 35.5059 26.0137 36.5757 24.8637 37.6526C24.578 37.9236 24.2923 38.1981 24.003 38.4761C23.7208 38.7612 23.4492 39.0568 23.167 39.3524C22.6062 39.9472 22.0383 40.5525 21.4598 41.1683C20.8672 41.7772 20.3239 42.4423 19.7595 43.1109C19.1952 43.7831 18.6237 44.4694 18.0417 45.1627C17.4808 45.8735 16.9376 46.6196 16.3697 47.3657C15.8159 48.1223 15.2127 48.8684 14.6906 49.6849C14.1509 50.4908 13.6042 51.3108 13.0468 52.1448C12.9093 52.3524 12.7682 52.5636 12.6306 52.7747C12.5001 52.9929 12.3731 53.2076 12.2426 53.4258C11.9815 53.8622 11.7205 54.3056 11.456 54.749C11.1914 55.196 10.9268 55.6429 10.6623 56.0969C10.5282 56.3221 10.3977 56.5509 10.2637 56.7796C10.1402 57.0154 10.0168 57.2477 9.8933 57.4835C9.39946 58.4302 8.89857 59.3909 8.39062 60.3657C8.12606 60.8514 7.90736 61.3582 7.67455 61.8649C7.44174 62.3717 7.20892 62.8855 6.97611 63.3993C6.7433 63.9166 6.50696 64.4375 6.27063 64.9618C6.04487 65.4897 5.84381 66.0317 5.62863 66.5737C5.2124 67.6611 4.75383 68.7556 4.35876 69.8888C3.98132 71.029 3.60036 72.1833 3.21234 73.3552C3.21234 73.3552 3.16648 73.0737 3.27936 72.0601C3.3358 71.5534 3.4381 70.8601 3.60389 69.9275C3.64621 69.6952 3.68854 69.4453 3.74498 69.1814C3.80848 68.921 3.87903 68.643 3.94957 68.3509C4.09773 67.7632 4.27057 67.1121 4.47163 66.3836C5.26883 63.4767 6.66923 59.4191 9.35008 54.0382C9.69224 53.3695 10.045 52.6762 10.4154 51.9548C10.7893 51.2404 11.2267 50.5295 11.657 49.7764C12.0944 49.0303 12.5389 48.2561 13.0186 47.4678C13.5266 46.697 14.0486 45.8982 14.5918 45.0782C14.8635 44.67 15.1421 44.2512 15.4208 43.8289C15.71 43.4101 16.024 43.0019 16.3309 42.5795C16.9552 41.7384 17.5972 40.8727 18.2604 39.9788C19.6819 38.2685 21.1282 36.4103 22.8496 34.6085Z"></path>
<path fill="#018D43" d="M39.8304 176.96C41.7529 178.333 43.7494 179.512 45.6824 180.705C46.6666 181.272 47.6578 181.803 48.6314 182.341C49.1217 182.609 49.6014 182.88 50.0917 183.137C50.5856 183.38 51.0794 183.619 51.5697 183.858C52.5539 184.33 53.5169 184.822 54.4904 185.262C55.4746 185.681 56.4482 186.1 57.4147 186.512C57.9015 186.709 58.3706 186.937 58.8609 187.11C59.3477 187.289 59.831 187.469 60.3142 187.648C61.2807 188 62.2296 188.366 63.182 188.69C70.8295 191.231 78.1489 192.628 84.9428 193.212C91.7437 193.796 98.0155 193.578 103.733 192.896C104.45 192.811 105.155 192.727 105.853 192.642C106.552 192.533 107.236 192.41 107.917 192.294C109.275 192.047 110.612 191.861 111.899 191.534C113.19 191.231 114.457 190.963 115.684 190.64C116.905 190.288 118.097 189.943 119.268 189.605C119.854 189.447 120.422 189.236 120.986 189.042C121.551 188.845 122.108 188.651 122.658 188.458C123.208 188.264 123.755 188.071 124.295 187.881C124.824 187.662 125.35 187.448 125.868 187.237C126.902 186.8 127.928 186.406 128.909 185.956C129.879 185.491 130.835 185.034 131.769 184.583C132.711 184.154 133.593 183.636 134.472 183.161C135.343 182.672 136.211 182.222 137.032 181.718C137.847 181.208 138.648 180.705 139.435 180.212C139.826 179.962 140.218 179.723 140.595 179.47C140.969 179.206 141.339 178.945 141.706 178.685C147.587 174.56 152.151 170.232 155.992 165.731C156.984 164.636 157.961 163.373 159.054 162.113C159.322 161.793 159.612 161.483 159.873 161.145C160.141 160.811 160.409 160.469 160.684 160.124C161.238 159.445 161.802 158.748 162.377 158.041C162.927 157.313 163.492 156.57 164.063 155.817C164.352 155.444 164.642 155.064 164.934 154.684C165.22 154.297 165.488 153.895 165.774 153.501C166.338 152.709 166.91 151.911 167.488 151.101C168.032 150.271 168.585 149.43 169.139 148.581C169.414 148.156 169.711 147.744 169.972 147.307C170.233 146.871 170.497 146.431 170.762 145.991C171.026 145.551 171.294 145.115 171.559 144.672C171.827 144.232 172.102 143.795 172.339 143.334C172.836 142.43 173.337 141.522 173.838 140.614C174.099 140.167 174.321 139.695 174.55 139.231L175.242 137.837L175.937 136.451C176.162 135.986 176.36 135.507 176.571 135.039C176.991 134.1 177.407 133.16 177.824 132.231C178.55 130.327 179.365 128.48 179.961 126.6C181.312 122.898 182.229 119.242 183.048 115.912C183.217 115.071 183.379 114.251 183.542 113.452C183.693 112.654 183.877 111.883 183.993 111.126C184.222 109.613 184.434 108.202 184.628 106.914C184.766 105.615 184.889 104.44 184.998 103.409C185.027 103.152 185.055 102.902 185.08 102.659C185.104 102.42 185.108 102.187 185.125 101.966C185.15 101.522 185.175 101.114 185.196 100.748C185.288 99.284 185.337 98.4746 185.337 98.4746C186.004 97.7567 186.607 97.8517 187.147 98.7034C187.415 99.1292 187.672 99.7451 187.912 100.54C188.032 100.938 188.148 101.382 188.261 101.867C188.314 102.11 188.371 102.367 188.427 102.631C188.48 102.895 188.512 103.169 188.551 103.458C188.706 104.602 188.836 105.914 188.946 107.385C188.995 108.853 188.992 110.475 188.974 112.245C188.773 115.761 188.417 119.872 187.415 124.337C186.459 128.807 185.069 133.692 182.974 138.689C180.903 143.697 178.219 148.856 174.875 153.902C171.534 158.949 167.538 163.876 162.948 168.433C158.363 172.994 153.192 177.179 147.594 180.793C141.999 184.407 135.988 187.451 129.791 189.795C123.593 192.142 117.222 193.804 110.947 194.803C98.3717 196.827 86.2903 196.066 76.23 194.06C74.9778 193.775 73.7502 193.494 72.5544 193.223C72.2546 193.152 71.9583 193.086 71.662 193.019C71.3692 192.938 71.08 192.857 70.7907 192.776C70.2122 192.614 69.6408 192.452 69.0764 192.294C66.8047 191.703 64.72 190.925 62.7305 190.267C61.7464 189.915 60.8116 189.524 59.898 189.172C59.4429 188.993 58.995 188.817 58.5576 188.644C58.3389 188.556 58.1202 188.472 57.9085 188.384C57.6969 188.289 57.4887 188.194 57.2842 188.102C56.4587 187.729 55.6651 187.37 54.9102 187.029C54.5328 186.857 54.1624 186.688 53.8026 186.526C53.4393 186.364 53.1041 186.174 52.7655 186.008C51.4286 185.319 50.2258 184.713 49.1957 184.161C48.1834 183.577 47.3192 183.077 46.6207 182.672C45.9258 182.264 45.3791 181.965 45.0298 181.736C44.6771 181.511 44.4972 181.391 44.4972 181.391C43.5448 180.786 42.6453 180.212 41.7987 179.674C41.3719 179.41 40.9733 179.132 40.5888 178.854C40.2043 178.579 39.8304 178.315 39.4706 178.062C38.751 177.548 38.0808 177.07 37.4529 176.619C36.8497 176.141 36.2889 175.701 35.7703 175.289C35.2553 174.877 34.7791 174.493 34.3452 174.145C34.1265 173.969 33.9219 173.8 33.7244 173.642C33.5339 173.473 33.354 173.311 33.1812 173.156C32.4933 172.54 31.9501 172.041 31.5339 171.65C29.8689 170.08 30.2181 170.197 31.4139 171.038C32.0136 171.46 32.8214 172.062 33.6997 172.73C34.1301 173.072 34.6098 173.392 35.0825 173.723C35.5516 174.054 36.0243 174.384 36.4758 174.701C36.9273 175.018 37.3577 175.324 37.7527 175.602C38.1443 175.887 38.5217 176.105 38.8286 176.313C39.4424 176.707 39.8304 176.96 39.8304 176.96Z"></path>
<path fill="#018D43" d="M49.2591 173.723C49.8411 173.927 50.7935 174.286 52.0281 174.821C52.6454 175.088 53.3298 175.405 54.0846 175.747C54.8536 176.06 55.6931 176.408 56.5856 176.792C60.1765 178.284 64.8292 180.086 70.2227 181.546C75.6091 183.017 81.7292 184.136 88.0574 184.594C94.3821 185.065 100.908 184.886 107.031 184.119C113.162 183.362 118.891 182.021 123.762 180.526C126.214 179.815 128.418 178.977 130.415 178.287C131.395 177.897 132.32 177.538 133.184 177.211C133.614 177.042 134.037 176.901 134.429 176.735C134.821 176.57 135.198 176.415 135.558 176.267C138.457 175.134 140.207 174.444 140.535 174.765C140.697 174.92 140.489 175.31 139.858 175.972C139.237 176.658 138.136 177.517 136.531 178.678C133.3 180.941 129.092 183.454 123.988 185.572C118.901 187.712 112.961 189.542 106.502 190.675C100.051 191.812 93.0946 192.283 86.0996 191.865C79.1047 191.463 72.0887 190.214 65.5206 188.268C58.9454 186.332 52.8324 183.704 47.5024 180.793C42.1654 177.89 37.6186 174.708 33.9571 171.812C33.0541 171.073 32.1934 170.366 31.375 169.697C30.5707 169.014 29.8476 168.328 29.1492 167.705C28.8035 167.392 28.4684 167.089 28.1474 166.797C27.9851 166.649 27.8299 166.509 27.6747 166.368C27.5266 166.22 27.3819 166.076 27.2408 165.935C26.6729 165.368 26.1544 164.851 25.6852 164.383C25.2196 163.915 24.8034 163.5 24.4436 163.137C24.1014 162.761 23.8087 162.44 23.5723 162.183C23.1032 161.666 22.8562 161.392 22.8562 161.392C21.1349 159.586 19.6851 157.732 18.2671 156.018C17.6039 155.124 16.9619 154.258 16.3375 153.417C16.0307 152.995 15.7167 152.583 15.4275 152.168C15.1453 151.745 14.8701 151.327 14.5985 150.918C14.0588 150.095 13.5332 149.3 13.0253 148.525C12.542 147.737 12.1011 146.963 11.6637 146.217C11.2333 145.467 10.7959 144.753 10.422 144.038C10.0552 143.32 9.69891 142.627 9.35675 141.955C6.67237 136.571 5.27551 132.516 4.47831 129.613C4.27724 128.885 4.1044 128.233 3.95624 127.646C3.88217 127.354 3.81515 127.076 3.75165 126.815C3.69169 126.555 3.65289 126.305 3.60703 126.069C3.44124 125.137 3.34247 124.447 3.2825 123.94C3.1661 122.926 3.21548 122.648 3.21548 122.648C3.6035 123.82 3.98446 124.975 4.3619 126.115C4.7605 127.248 5.21554 128.343 5.63178 129.43C5.84695 129.972 6.04801 130.514 6.2773 131.042C6.51364 131.566 6.74997 132.087 6.98278 132.601C7.2156 133.115 7.44841 133.628 7.68122 134.135C7.91403 134.642 8.13273 135.149 8.39729 135.634C8.90524 136.609 9.40613 137.57 9.89997 138.517C10.0234 138.752 10.1469 138.988 10.2704 139.22C10.4044 139.449 10.5384 139.678 10.6725 139.903C10.9406 140.354 11.2051 140.804 11.4662 141.251C11.7307 141.695 11.9917 142.134 12.2528 142.574C12.3833 142.793 12.5138 143.011 12.6443 143.225C12.7854 143.437 12.923 143.644 13.0606 143.855C13.6179 144.689 14.1646 145.506 14.7043 146.315C15.2264 147.132 15.8296 147.878 16.3834 148.634C16.9513 149.384 17.491 150.127 18.0554 150.837C18.6374 151.531 19.2089 152.217 19.7733 152.889C20.3377 153.558 20.8809 154.223 21.4735 154.832C22.052 155.448 22.6199 156.053 23.1808 156.648C23.463 156.943 23.7346 157.239 24.0168 157.524C24.306 157.802 24.5917 158.077 24.8775 158.348C26.0274 159.424 27.0856 160.494 28.2215 161.413C32.6237 165.214 36.7191 167.934 40.2994 169.852C40.7439 170.095 41.1777 170.33 41.5975 170.563C42.0173 170.792 42.4547 170.978 42.8639 171.179C43.6928 171.566 44.4759 171.925 45.2167 172.252C45.9468 172.593 46.6876 172.836 47.3578 173.083C48.0316 173.318 48.663 173.533 49.2591 173.723Z"></path>
<path fill="#018D43" d="M23.262 45.2428C23.7558 44.8521 24.1297 44.6163 24.3907 44.5213C24.6624 44.4298 24.8176 44.4756 24.874 44.6339C24.9798 44.9436 24.74 45.746 24.2179 46.8581C23.9604 47.4141 23.6359 48.0546 23.2549 48.7549C22.8986 49.4694 22.5106 50.2612 22.0767 51.0952C21.858 51.5105 21.6323 51.9363 21.3995 52.3762C21.1596 52.8091 20.9586 53.2807 20.7293 53.7452C20.2742 54.6743 19.8016 55.6386 19.3183 56.6204C17.4558 60.576 15.7909 64.9047 14.6303 68.255C14.1047 69.9478 13.6603 71.3801 13.3499 72.3901C13.0818 73.4107 12.9231 74.0054 12.9231 74.0054C11.3145 80.1113 10.3727 86.2453 10.0129 91.9641C9.64607 97.6828 9.84713 102.976 10.2739 107.442C10.4045 108.557 10.5315 109.624 10.6479 110.634C10.6937 111.14 10.789 111.63 10.8666 112.105C10.9442 112.58 11.0218 113.041 11.0958 113.488C11.1699 113.935 11.2405 114.367 11.3075 114.783C11.3428 114.99 11.3745 115.195 11.4063 115.395C11.4486 115.592 11.4909 115.789 11.5332 115.979C11.6955 116.743 11.8472 117.443 11.9812 118.073C12.1188 118.703 12.2246 119.27 12.3446 119.755C12.4715 120.238 12.5809 120.649 12.6656 120.984C12.8384 121.649 12.9301 122.004 12.9301 122.004C12.9301 122.004 13.0853 122.599 13.3569 123.62C13.6709 124.63 14.1153 126.062 14.6374 127.751C15.7979 131.098 17.4664 135.427 19.3253 139.382C19.8051 140.364 20.2813 141.328 20.7363 142.257C20.9691 142.722 21.1667 143.193 21.4101 143.626C21.6429 144.066 21.8686 144.492 22.0873 144.907C22.5212 145.738 22.9092 146.53 23.2655 147.244C23.6429 147.944 23.9675 148.581 24.225 149.137C24.7435 150.25 24.9869 151.052 24.8811 151.362C24.8246 151.52 24.6659 151.562 24.3943 151.474C24.1297 151.379 23.7593 151.143 23.2655 150.753C22.5424 150.179 21.791 149.549 21.015 148.87C20.2601 148.177 19.5194 147.41 18.7398 146.611C18.3553 146.206 17.9532 145.801 17.5722 145.368C17.2018 144.928 16.8244 144.478 16.4434 144.024C16.066 143.563 15.685 143.095 15.297 142.62C15.1065 142.381 14.9055 142.145 14.7256 141.895C14.5457 141.645 14.3622 141.392 14.1823 141.138C13.4628 140.118 12.7044 139.076 11.9989 137.982C11.3145 136.876 10.6302 135.74 9.94237 134.585C9.29685 133.414 8.68308 132.21 8.05872 130.999C7.7342 130.398 7.46258 129.775 7.18744 129.152L6.3585 127.276C4.21029 122.244 2.64411 116.986 1.62115 112.122C1.39892 110.898 1.18375 109.708 0.972102 108.554C0.922717 108.265 0.866278 107.98 0.823949 107.695C0.788675 107.41 0.7534 107.125 0.718126 106.847C0.647577 106.284 0.580556 105.735 0.513535 105.193C0.450041 104.651 0.386547 104.123 0.323053 103.609C0.294834 103.352 0.25956 103.095 0.238395 102.842C0.220758 102.589 0.203121 102.339 0.189011 102.092C0.125517 101.107 0.0655506 100.174 0.012639 99.3052C-0.0296902 98.0383 0.044386 96.7748 0.0867152 95.5079C0.153736 94.6105 0.185483 93.6568 0.294834 92.6609C0.414767 91.6649 0.541754 90.6232 0.672269 89.5393C0.746346 88.9973 0.792202 88.4448 0.894498 87.8888C0.993266 87.3327 1.09556 86.7662 1.19786 86.1925C1.30368 85.6189 1.4095 85.0382 1.51533 84.447C1.56824 84.1514 1.62468 83.8558 1.68112 83.5601C1.74108 83.2645 1.81869 82.9654 1.88923 82.6662C2.17848 81.4767 2.47479 80.2556 2.77462 79.0168C3.12031 77.7886 3.51186 76.5533 3.89282 75.3075C3.98806 74.9978 4.08683 74.6846 4.18207 74.3714C4.28789 74.0617 4.40782 73.752 4.5207 73.4424C4.74999 72.8265 4.97927 72.2036 5.20855 71.5842C5.44489 70.9648 5.66359 70.3419 5.91757 69.726C6.18565 69.1172 6.45374 68.5084 6.72182 67.8996L7.53313 66.0801C7.66365 65.7775 7.8118 65.4783 7.96701 65.1862L8.42205 64.3029C8.7254 63.7187 9.03229 63.1345 9.33565 62.5539L9.79422 61.6881C9.95295 61.4031 10.1258 61.125 10.2881 60.847C10.9583 59.7314 11.6179 58.6334 12.2916 57.5706C13.0077 56.5289 13.7238 55.5119 14.4293 54.53C14.7714 54.0338 15.1559 53.5657 15.5298 53.1047C15.9037 52.6472 16.2741 52.1968 16.641 51.7498C17.0114 51.3064 17.3712 50.8735 17.738 50.4547C18.1225 50.05 18.5035 49.6524 18.8774 49.2582C19.6358 48.4875 20.3483 47.7414 21.0891 47.0728C21.8298 46.4111 22.5565 45.7988 23.262 45.2428Z"></path>
</g>
<path fill="#313131" d="M143.828 101.839H46.1719C45.8611 101.839 45.563 101.716 45.3432 101.496C45.1235 101.276 45 100.978 45 100.667C45 100.356 45.1235 100.058 45.3432 99.8385C45.563 99.6188 45.8611 99.4953 46.1719 99.4953H143.828C144.139 99.4953 144.437 99.6188 144.657 99.8385C144.877 100.058 145 100.356 145 100.667C145 100.978 144.877 101.276 144.657 101.496C144.437 101.716 144.139 101.839 143.828 101.839Z"></path>
<path fill="#313131" d="M143.828 114.339H46.1719C45.8611 114.339 45.563 114.216 45.3432 113.996C45.1235 113.776 45 113.478 45 113.167C45 112.856 45.1235 112.558 45.3432 112.339C45.563 112.119 45.8611 111.995 46.1719 111.995H143.828C144.139 111.995 144.437 112.119 144.657 112.339C144.877 112.558 145 112.856 145 113.167C145 113.478 144.877 113.776 144.657 113.996C144.437 114.216 144.139 114.339 143.828 114.339Z"></path>
<path fill="#313131" d="M57.4814 130.969C56.5543 130.969 55.6481 130.694 54.8772 130.179C54.1064 129.664 53.5055 128.932 53.1508 128.075C52.796 127.219 52.7031 126.276 52.884 125.367C53.0649 124.457 53.5113 123.622 54.1669 122.967C54.8224 122.311 55.6577 121.865 56.567 121.684C57.4762 121.503 58.4187 121.596 59.2753 121.951C60.1318 122.305 60.8639 122.906 61.379 123.677C61.894 124.448 62.1689 125.354 62.1689 126.281C62.1678 127.524 61.6736 128.716 60.7948 129.595C59.9159 130.473 58.7243 130.968 57.4814 130.969ZM57.4814 123.938C57.0179 123.938 56.5648 124.075 56.1793 124.332C55.7939 124.59 55.4935 124.956 55.3161 125.384C55.1387 125.813 55.0923 126.284 55.1827 126.738C55.2732 127.193 55.4964 127.611 55.8242 127.939C56.1519 128.266 56.5696 128.49 57.0242 128.58C57.4788 128.67 57.9501 128.624 58.3784 128.447C58.8066 128.269 59.1727 127.969 59.4302 127.583C59.6877 127.198 59.8252 126.745 59.8252 126.281C59.8252 125.66 59.5783 125.064 59.1387 124.624C58.6992 124.184 58.103 123.938 57.4814 123.938Z"></path>
<path fill="#313131" d="M70 142.854C69.0729 142.854 68.1666 142.579 67.3958 142.064C66.6249 141.548 66.0241 140.816 65.6693 139.96C65.3145 139.103 65.2217 138.161 65.4026 137.252C65.5834 136.342 66.0299 135.507 66.6854 134.851C67.341 134.196 68.1762 133.749 69.0855 133.569C69.9948 133.388 70.9373 133.481 71.7938 133.835C72.6504 134.19 73.3824 134.791 73.8975 135.562C74.4126 136.333 74.6875 137.239 74.6875 138.166C74.6864 139.409 74.1921 140.6 73.3133 141.479C72.4345 142.358 71.2429 142.852 70 142.854ZM70 135.825C69.5365 135.825 69.0833 135.962 68.6979 136.22C68.3125 136.477 68.0121 136.843 67.8347 137.271C67.6573 137.7 67.6109 138.171 67.7013 138.626C67.7917 139.08 68.0149 139.498 68.3427 139.826C68.6705 140.153 69.0881 140.377 69.5428 140.467C69.9974 140.558 70.4687 140.511 70.8969 140.334C71.3252 140.156 71.6912 139.856 71.9488 139.47C72.2063 139.085 72.3438 138.632 72.3438 138.168C72.3438 137.547 72.0968 136.951 71.6573 136.511C71.2177 136.072 70.6216 135.825 70 135.825Z"></path>
<path fill="#313131" d="M95 142.854C94.0729 142.854 93.1666 142.579 92.3958 142.064C91.6249 141.548 91.0241 140.816 90.6693 139.96C90.3145 139.103 90.2217 138.161 90.4026 137.252C90.5834 136.342 91.0299 135.507 91.6854 134.851C92.341 134.196 93.1762 133.749 94.0855 133.569C94.9948 133.388 95.9373 133.481 96.7938 133.835C97.6504 134.19 98.3824 134.791 98.8975 135.562C99.4126 136.333 99.6875 137.239 99.6875 138.166C99.6864 139.409 99.1921 140.6 98.3133 141.479C97.4345 142.358 96.2429 142.852 95 142.854ZM95 135.825C94.5365 135.825 94.0833 135.962 93.6979 136.22C93.3125 136.477 93.0121 136.843 92.8347 137.271C92.6573 137.7 92.6109 138.171 92.7013 138.626C92.7917 139.08 93.0149 139.498 93.3427 139.826C93.6705 140.153 94.0881 140.377 94.5428 140.467C94.9974 140.558 95.4687 140.511 95.8969 140.334C96.3252 140.156 96.6912 139.856 96.9488 139.47C97.2063 139.085 97.3438 138.632 97.3438 138.168C97.3438 137.547 97.0968 136.951 96.6573 136.511C96.2177 136.072 95.6216 135.825 95 135.825Z"></path>
<path fill="#313131" d="M120 142.854C119.073 142.854 118.167 142.579 117.396 142.064C116.625 141.548 116.024 140.816 115.669 139.96C115.315 139.103 115.222 138.161 115.403 137.252C115.583 136.342 116.03 135.507 116.685 134.851C117.341 134.196 118.176 133.749 119.086 133.569C119.995 133.388 120.937 133.481 121.794 133.835C122.65 134.19 123.382 134.791 123.898 135.562C124.413 136.333 124.688 137.239 124.688 138.166C124.686 139.409 124.192 140.6 123.313 141.479C122.434 142.358 121.243 142.852 120 142.854ZM120 135.825C119.536 135.825 119.083 135.962 118.698 136.22C118.312 136.477 118.012 136.843 117.835 137.271C117.657 137.7 117.611 138.171 117.701 138.626C117.792 139.08 118.015 139.498 118.343 139.826C118.67 140.153 119.088 140.377 119.543 140.467C119.997 140.558 120.469 140.511 120.897 140.334C121.325 140.156 121.691 139.856 121.949 139.47C122.206 139.085 122.344 138.632 122.344 138.168C122.344 137.547 122.097 136.951 121.657 136.511C121.218 136.072 120.622 135.825 120 135.825Z"></path>
<path fill="#313131" d="M82.5 130.969C81.5729 130.969 80.6666 130.694 79.8958 130.179C79.1249 129.664 78.5241 128.932 78.1693 128.075C77.8145 127.219 77.7217 126.276 77.9026 125.367C78.0834 124.457 78.5299 123.622 79.1854 122.967C79.841 122.311 80.6762 121.865 81.5855 121.684C82.4948 121.503 83.4373 121.596 84.2938 121.951C85.1504 122.305 85.8824 122.906 86.3975 123.677C86.9126 124.448 87.1875 125.354 87.1875 126.281C87.1864 127.524 86.6921 128.716 85.8133 129.595C84.9345 130.473 83.7429 130.968 82.5 130.969ZM82.5 123.938C82.0365 123.938 81.5833 124.075 81.1979 124.332C80.8125 124.59 80.5121 124.956 80.3347 125.384C80.1573 125.813 80.1109 126.284 80.2013 126.738C80.2917 127.193 80.5149 127.611 80.8427 127.939C81.1705 128.266 81.5881 128.49 82.0428 128.58C82.4974 128.67 82.9687 128.624 83.3969 128.447C83.8252 128.269 84.1912 127.969 84.4488 127.583C84.7063 127.198 84.8438 126.745 84.8438 126.281C84.8438 125.66 84.5968 125.064 84.1573 124.624C83.7177 124.184 83.1216 123.938 82.5 123.938Z"></path>
<path fill="#313131" d="M107.519 130.969C106.591 130.969 105.685 130.694 104.914 130.179C104.143 129.664 103.543 128.932 103.188 128.075C102.833 127.219 102.74 126.276 102.921 125.367C103.102 124.457 103.548 123.622 104.204 122.967C104.86 122.311 105.695 121.865 106.604 121.684C107.513 121.503 108.456 121.596 109.312 121.951C110.169 122.305 110.901 122.906 111.416 123.677C111.931 124.448 112.206 125.354 112.206 126.281C112.205 127.524 111.711 128.716 110.832 129.595C109.953 130.473 108.761 130.968 107.519 130.969ZM107.519 123.938C107.055 123.938 106.602 124.075 106.216 124.332C105.831 124.59 105.531 124.956 105.353 125.384C105.176 125.813 105.129 126.284 105.22 126.738C105.31 127.193 105.533 127.611 105.861 127.939C106.189 128.266 106.607 128.49 107.061 128.58C107.516 128.67 107.987 128.624 108.415 128.447C108.844 128.269 109.21 127.969 109.467 127.583C109.725 127.198 109.862 126.745 109.862 126.281C109.862 125.66 109.615 125.064 109.176 124.624C108.736 124.184 108.14 123.938 107.519 123.938Z"></path>
<path fill="#313131" d="M132.539 130.969C131.612 130.969 130.706 130.694 129.935 130.179C129.164 129.664 128.563 128.932 128.208 128.075C127.854 127.219 127.761 126.276 127.942 125.367C128.123 124.457 128.569 123.622 129.224 122.967C129.88 122.311 130.715 121.865 131.625 121.684C132.534 121.503 133.476 121.596 134.333 121.951C135.189 122.305 135.922 122.906 136.437 123.677C136.952 124.448 137.227 125.354 137.227 126.281C137.226 127.524 136.731 128.716 135.852 129.595C134.974 130.474 133.782 130.968 132.539 130.969ZM132.539 123.938C132.076 123.938 131.622 124.075 131.237 124.332C130.852 124.59 130.551 124.956 130.374 125.384C130.196 125.813 130.15 126.284 130.24 126.738C130.331 127.193 130.554 127.611 130.882 127.939C131.21 128.266 131.627 128.49 132.082 128.58C132.536 128.67 133.008 128.624 133.436 128.447C133.864 128.269 134.23 127.969 134.488 127.583C134.745 127.198 134.883 126.745 134.883 126.281C134.883 125.66 134.636 125.064 134.196 124.624C133.757 124.184 133.161 123.938 132.539 123.938Z"></path>
<path fill="#313131" d="M108.008 77.4871C107.697 77.4871 107.399 77.3636 107.179 77.1439C106.959 76.9241 106.836 76.626 106.836 76.3152V64.6113C106.836 64.3005 106.959 64.0025 107.179 63.7827C107.399 63.5629 107.697 63.4395 108.008 63.4395C108.319 63.4395 108.617 63.5629 108.836 63.7827C109.056 64.0025 109.18 64.3005 109.18 64.6113V76.3152C109.18 76.626 109.056 76.9241 108.836 77.1439C108.617 77.3636 108.319 77.4871 108.008 77.4871Z"></path>
<path fill="#313131" d="M108.007 65.7832H96.3047C95.9939 65.7832 95.6958 65.6597 95.476 65.44C95.2563 65.2202 95.1328 64.9221 95.1328 64.6113C95.1328 64.3005 95.2563 64.0025 95.476 63.7827C95.6958 63.5629 95.9939 63.4395 96.3047 63.4395H108.007C108.318 63.4395 108.616 63.5629 108.836 63.7827C109.056 64.0025 109.179 64.3005 109.179 64.6113C109.179 64.9221 109.056 65.2202 108.836 65.44C108.616 65.6597 108.318 65.7832 108.007 65.7832Z"></path>
<path fill="#313131" d="M80.7814 93.0125H80.7775C80.6232 93.0122 80.4704 92.9815 80.3281 92.922C80.1857 92.8625 80.0564 92.7756 79.9478 92.666L73.0079 85.6688C72.8995 85.5595 72.8137 85.43 72.7554 85.2875C72.6971 85.1451 72.6674 84.9926 72.668 84.8387C72.6686 84.6848 72.6995 84.5325 72.759 84.3905C72.8185 84.2486 72.9053 84.1197 73.0146 84.0113C73.2352 83.7924 73.5338 83.6702 73.8446 83.6714C73.9986 83.672 74.1508 83.7029 74.2928 83.7624C74.4347 83.8219 74.5636 83.9087 74.672 84.018L80.7814 90.1797L107.181 63.7813C107.402 63.5678 107.698 63.4497 108.005 63.4523C108.312 63.455 108.606 63.5783 108.823 63.7955C109.041 64.0128 109.164 64.3067 109.167 64.614C109.169 64.9213 109.051 65.2173 108.838 65.4383L81.6083 92.6691C81.389 92.8885 81.0916 93.012 80.7814 93.0125Z"></path>
<path fill="#313131" d="M129.352 77.4871C129.041 77.4871 128.743 77.3636 128.523 77.1439C128.303 76.9241 128.18 76.626 128.18 76.3152V64.6113C128.18 64.3005 128.303 64.0025 128.523 63.7827C128.743 63.5629 129.041 63.4395 129.352 63.4395C129.662 63.4395 129.96 63.5629 130.18 63.7827C130.4 64.0025 130.523 64.3005 130.523 64.6113V76.3152C130.523 76.626 130.4 76.9241 130.18 77.1439C129.96 77.3636 129.662 77.4871 129.352 77.4871Z"></path>
<path fill="#313131" d="M129.351 65.7832H117.647C117.337 65.7832 117.039 65.6597 116.819 65.44C116.599 65.2202 116.476 64.9221 116.476 64.6113C116.476 64.3005 116.599 64.0025 116.819 63.7827C117.039 63.5629 117.337 63.4395 117.647 63.4395H129.351C129.662 63.4395 129.96 63.5629 130.18 63.7827C130.399 64.0025 130.523 64.3005 130.523 64.6113C130.523 64.9221 130.399 65.2202 130.18 65.44C129.96 65.6597 129.662 65.7832 129.351 65.7832Z"></path>
<path fill="#313131" d="M102.122 93.0125C101.968 93.0122 101.815 92.9815 101.673 92.922C101.531 92.8625 101.401 92.7755 101.293 92.666L82.7344 73.9609C82.5181 73.7398 82.3981 73.442 82.4004 73.1326C82.4028 72.8233 82.5274 72.5274 82.747 72.3095C82.9667 72.0917 83.2636 71.9695 83.573 71.9697C83.8824 71.9699 84.1791 72.0924 84.3985 72.3105L102.124 90.1797L128.523 63.7813C128.743 63.5644 129.04 63.4434 129.349 63.4447C129.658 63.4459 129.955 63.5692 130.173 63.7878C130.392 64.0064 130.515 64.3025 130.517 64.6116C130.518 64.9208 130.397 65.2179 130.18 65.4383L102.951 92.6676C102.842 92.7767 102.713 92.8633 102.571 92.9225C102.429 92.9817 102.276 93.0123 102.122 93.0125Z"></path>
<path fill="#313131" d="M64.8635 76.6719C63.278 76.672 61.7281 76.2019 60.4097 75.3211C59.0914 74.4403 58.0639 73.1884 57.457 71.7236C56.8502 70.2588 56.6914 68.647 57.0006 67.0919C57.3099 65.5369 58.0733 64.1085 59.1944 62.9873C60.3154 61.8661 61.7438 61.1026 63.2988 60.7932C64.8538 60.4838 66.4656 60.6425 67.9305 61.2491C69.3953 61.8558 70.6474 62.8832 71.5283 64.2015C72.4092 65.5197 72.8794 67.0696 72.8795 68.6551C72.8772 70.7804 72.032 72.8181 70.5292 74.321C69.0264 75.824 66.9888 76.6694 64.8635 76.6719ZM64.8635 62.9828C63.7415 62.9827 62.6447 63.3154 61.7118 63.9387C60.7788 64.562 60.0517 65.4479 59.6223 66.4845C59.1929 67.521 59.0805 68.6616 59.2994 69.7621C59.5183 70.8625 60.0586 71.8733 60.8519 72.6667C61.6453 73.46 62.6561 74.0003 63.7565 74.2192C64.8569 74.438 65.9975 74.3257 67.0341 73.8963C68.0707 73.4669 68.9566 72.7397 69.5799 71.8068C70.2032 70.8739 70.5358 69.7771 70.5357 68.6551C70.534 67.1512 69.9358 65.7094 68.8725 64.646C67.8091 63.5826 66.3674 62.9847 64.8635 62.9828Z"></path>
<path fill="#313131" d="M64.8633 58.7137C64.5525 58.7137 64.2544 58.5902 64.0346 58.3704C63.8149 58.1507 63.6914 57.8526 63.6914 57.5418V54.3184C63.6914 54.0076 63.8149 53.7095 64.0346 53.4897C64.2544 53.2699 64.5525 53.1465 64.8633 53.1465C65.1741 53.1465 65.4722 53.2699 65.6919 53.4897C65.9117 53.7095 66.0352 54.0076 66.0352 54.3184V57.5418C66.0352 57.8526 65.9117 58.1507 65.6919 58.3704C65.4722 58.5902 65.1741 58.7137 64.8633 58.7137Z"></path>
<path fill="#313131" d="M57.0046 61.9688C56.8507 61.9689 56.6984 61.9387 56.5562 61.8798C56.414 61.821 56.2848 61.7347 56.1761 61.6258L53.8964 59.3461C53.6765 59.1263 53.5528 58.8282 53.5527 58.5172C53.5526 58.2063 53.676 57.908 53.8958 57.6881C54.1156 57.4682 54.4138 57.3445 54.7247 57.3444C55.0356 57.3443 55.3339 57.4677 55.5538 57.6875L57.8331 59.9672C57.997 60.1311 58.1085 60.3399 58.1537 60.5672C58.1989 60.7945 58.1757 61.03 58.087 61.2441C57.9984 61.4582 57.8482 61.6412 57.6555 61.77C57.4629 61.8988 57.2364 61.9675 57.0046 61.9676V61.9688Z"></path>
<path fill="#313131" d="M53.7498 69.827H50.5264C50.2156 69.827 49.9175 69.7035 49.6977 69.4837C49.478 69.264 49.3545 68.9659 49.3545 68.6551C49.3545 68.3443 49.478 68.0462 49.6977 67.8265C49.9175 67.6067 50.2156 67.4832 50.5264 67.4832H53.7498C54.0606 67.4832 54.3587 67.6067 54.5784 67.8265C54.7982 68.0462 54.9217 68.3443 54.9217 68.6551C54.9217 68.9659 54.7982 69.264 54.5784 69.4837C54.3587 69.7035 54.0606 69.827 53.7498 69.827Z"></path>
<path fill="#313131" d="M54.7267 79.9649C54.4949 79.9649 54.2683 79.8962 54.0755 79.7674C53.8828 79.6386 53.7325 79.4555 53.6438 79.2413C53.5552 79.0271 53.532 78.7915 53.5773 78.5641C53.6225 78.3368 53.7342 78.1279 53.8982 77.9641L56.1779 75.6848C56.3983 75.468 56.6954 75.3471 57.0046 75.3484C57.3137 75.3497 57.6098 75.4731 57.8284 75.6917C58.047 75.9103 58.1703 76.2065 58.1715 76.5156C58.1727 76.8247 58.0517 77.1218 57.8349 77.3422L55.5556 79.6219C55.4467 79.7307 55.3175 79.817 55.1753 79.8758C55.033 79.9347 54.8806 79.9649 54.7267 79.9649Z"></path>
<path fill="#313131" d="M64.8633 84.164C64.5525 84.164 64.2544 84.0406 64.0346 83.8208C63.8149 83.601 63.6914 83.303 63.6914 82.9922V79.7687C63.6914 79.4579 63.8149 79.1599 64.0346 78.9401C64.2544 78.7203 64.5525 78.5969 64.8633 78.5969C65.1741 78.5969 65.4722 78.7203 65.6919 78.9401C65.9117 79.1599 66.0352 79.4579 66.0352 79.7687V82.9922C66.0352 83.303 65.9117 83.601 65.6919 83.8208C65.4722 84.0406 65.1741 84.164 64.8633 84.164Z"></path>
<path fill="#313131" d="M74.9998 79.9648C74.8458 79.965 74.6934 79.9348 74.5512 79.8759C74.409 79.817 74.2799 79.7305 74.1712 79.6215L71.8919 77.3422C71.78 77.2341 71.6907 77.1048 71.6293 76.9618C71.5679 76.8188 71.5356 76.6651 71.5342 76.5095C71.5329 76.3538 71.5625 76.1995 71.6214 76.0555C71.6804 75.9115 71.7674 75.7807 71.8774 75.6706C71.9874 75.5606 72.1183 75.4736 72.2623 75.4147C72.4063 75.3557 72.5606 75.3261 72.7162 75.3274C72.8718 75.3288 73.0256 75.3611 73.1686 75.4225C73.3116 75.4839 73.4409 75.5732 73.549 75.6852L75.8283 77.9644C75.9921 78.1283 76.1037 78.3371 76.1489 78.5644C76.1941 78.7917 76.1709 79.0273 76.0822 79.2414C75.9935 79.4555 75.8433 79.6385 75.6507 79.7673C75.458 79.896 75.2315 79.9648 74.9998 79.9648Z"></path>
<path fill="#313131" d="M79.2004 69.827H75.9766C75.6658 69.827 75.3677 69.7035 75.1479 69.4837C74.9282 69.264 74.8047 68.9659 74.8047 68.6551C74.8047 68.3443 74.9282 68.0462 75.1479 67.8265C75.3677 67.6067 75.6658 67.4832 75.9766 67.4832H79.2C79.5108 67.4832 79.8089 67.6067 80.0286 67.8265C80.2484 68.0462 80.3719 68.3443 80.3719 68.6551C80.3719 68.9659 80.2484 69.264 80.0286 69.4837C79.8089 69.7035 79.5112 69.827 79.2004 69.827Z"></path>
<path fill="#313131" d="M72.7214 61.9688C72.4897 61.9687 72.2632 61.8999 72.0705 61.7712C71.8778 61.6424 71.7277 61.4594 71.639 61.2453C71.5503 61.0312 71.5271 60.7956 71.5723 60.5683C71.6175 60.341 71.7291 60.1323 71.8929 59.9684L74.1722 57.6875C74.2803 57.5756 74.4096 57.4863 74.5526 57.4249C74.6956 57.3635 74.8493 57.3311 75.0049 57.3298C75.1605 57.3284 75.3149 57.3581 75.4589 57.417C75.6029 57.4759 75.7337 57.5629 75.8438 57.673C75.9538 57.783 76.0408 57.9138 76.0997 58.0579C76.1587 58.2019 76.1883 58.3562 76.187 58.5118C76.1856 58.6674 76.1533 58.8212 76.0919 58.9641C76.0304 59.1071 75.9412 59.2364 75.8292 59.3445L73.5499 61.6238C73.4414 61.7331 73.3123 61.8199 73.1702 61.8791C73.028 61.9383 72.8755 61.9687 72.7214 61.9688Z"></path>
<defs>
<clipPath id="clip0_79_969">
<rect fill="white" height="196" width="189"></rect>
</clipPath>
</defs>
</svg>
