<svg xmlns="http://www.w3.org/2000/svg" fill="none" viewBox="0 0 189 196" height="196" width="189">
<g clip-path="url(#clip0_111_357)">
<path fill="#018D43" d="M44.4829 14.6087C44.4829 14.6087 45.1955 14.123 46.6029 13.3277C47.3014 12.923 48.1656 12.4268 49.178 11.839C50.208 11.2865 51.4108 10.6812 52.7477 9.99145C53.0864 9.82253 53.4215 9.63601 53.7848 9.47412C54.1446 9.30872 54.515 9.14332 54.8924 8.97087C55.6508 8.62951 56.441 8.27055 57.2699 7.89751C57.478 7.80601 57.6861 7.71099 57.8943 7.61597C58.1094 7.53151 58.3246 7.44353 58.5433 7.35555C58.9807 7.1831 59.4287 7.00714 59.8837 6.82766C60.7973 6.47574 61.7321 6.0851 62.7163 5.72966C64.7022 5.07509 66.7904 4.29382 69.0621 3.70259C69.6265 3.54422 70.198 3.38234 70.7765 3.22045C71.0657 3.13951 71.3549 3.05857 71.6477 2.97762C71.944 2.91076 72.2403 2.84037 72.5402 2.77351C73.7395 2.49901 74.967 2.22099 76.2158 1.93593C86.276 -0.0700283 98.3575 -0.833701 110.933 1.18986C117.208 2.18932 123.582 3.85039 129.78 6.19772C135.978 8.53801 141.992 11.5857 147.583 15.1999C153.177 18.8106 158.352 22.9985 162.938 27.5559C167.527 32.1133 171.527 37.0403 174.868 42.0868C178.212 47.1334 180.896 52.2926 182.967 57.3005C185.065 62.3013 186.455 67.186 187.411 71.6554C188.409 76.1213 188.769 80.2318 188.97 83.7475C188.991 85.5177 188.991 87.1435 188.942 88.6075C188.833 90.0821 188.702 91.3948 188.547 92.5385C188.505 92.8236 188.473 93.0981 188.423 93.3655C188.367 93.6295 188.311 93.8829 188.258 94.1292C188.145 94.6149 188.028 95.0583 187.908 95.456C187.669 96.2513 187.415 96.8672 187.143 97.293C186.603 98.1447 186.004 98.2432 185.333 97.5218C185.333 97.5218 185.284 96.7123 185.192 95.2483C185.171 94.8823 185.146 94.4776 185.122 94.0307C185.108 93.809 185.101 93.5767 185.076 93.3374C185.051 93.0981 185.023 92.8482 184.995 92.5878C184.885 91.5566 184.762 90.3812 184.624 89.0826C184.43 87.7946 184.215 86.3834 183.99 84.8701C183.873 84.1135 183.69 83.3428 183.538 82.5439C183.379 81.745 183.213 80.9251 183.044 80.084C182.226 76.7513 181.309 73.0983 179.958 69.3925C179.358 67.5133 178.547 65.6657 177.82 63.7618C177.404 62.8292 176.988 61.8931 176.568 60.9499C176.356 60.4818 176.159 60.0032 175.933 59.5387L175.238 58.1521L174.547 56.7585C174.314 56.294 174.095 55.8259 173.834 55.3754C173.333 54.4675 172.832 53.5595 172.335 52.6551C172.095 52.1976 171.823 51.7577 171.555 51.3178C171.287 50.8779 171.023 50.438 170.758 49.9981C170.494 49.5582 170.229 49.1183 169.968 48.6819C169.707 48.2455 169.411 47.8302 169.135 47.4079C168.582 46.5598 168.028 45.7187 167.485 44.8881C166.906 44.0787 166.335 43.2763 165.77 42.4845C165.488 42.0903 165.216 41.6856 164.931 41.302C164.638 40.922 164.349 40.5454 164.059 40.1688C163.488 39.4122 162.927 38.6697 162.373 37.9412C161.795 37.2303 161.23 36.537 160.677 35.8543C160.402 35.5094 160.133 35.168 159.865 34.8337C159.601 34.4923 159.312 34.1862 159.043 33.8659C157.95 32.6025 156.973 31.3391 155.978 30.2481C152.133 25.7435 147.572 21.4184 141.692 17.2974C141.325 17.0369 140.955 16.7765 140.581 16.5126C140.2 16.2592 139.808 16.0199 139.42 15.77C138.634 15.2773 137.833 14.7741 137.018 14.2638C136.196 13.7605 135.329 13.3101 134.461 12.8209C133.586 12.3458 132.701 11.8285 131.762 11.3991C130.828 10.9522 129.872 10.4947 128.902 10.0302C127.921 9.5797 126.898 9.18555 125.864 8.74916C125.346 8.53449 124.82 8.31982 124.291 8.10514C123.751 7.9151 123.208 7.72155 122.658 7.52799C122.108 7.33443 121.55 7.14087 120.986 6.9438C120.422 6.75024 119.854 6.53909 119.268 6.38072C118.097 6.04287 116.901 5.69799 115.684 5.34959C114.457 5.02582 113.19 4.75836 111.899 4.4557C110.612 4.13193 109.275 3.94189 107.917 3.69555C107.236 3.57941 106.548 3.45624 105.853 3.34714C105.155 3.26268 104.446 3.17822 103.733 3.09376C98.0153 2.41103 91.7435 2.19284 84.9391 2.77703C78.1417 3.36122 70.8223 4.75836 63.1713 7.30276C62.2189 7.63005 61.27 7.99605 60.3035 8.34797C59.8202 8.52745 59.337 8.70693 58.8502 8.88641C58.3599 9.05886 57.8872 9.28409 57.4039 9.48468C56.4374 9.89643 55.4639 10.3152 54.4797 10.734C53.5061 11.1739 52.5396 11.6666 51.5555 12.1382C51.0651 12.3775 50.5713 12.6203 50.0739 12.8596C49.5871 13.1165 49.1039 13.3875 48.6136 13.655C47.64 14.1969 46.6453 14.7248 45.6611 15.2949C44.6946 15.8897 43.714 16.4915 42.7298 17.1003C42.4829 17.2516 42.236 17.4065 41.989 17.5578C41.7421 17.7126 41.5058 17.8851 41.2624 18.047C40.7791 18.3778 40.2959 18.7086 39.8056 19.0429C39.8056 19.0429 39.4175 19.2928 38.8002 19.6904C38.1724 20.074 37.3505 20.6653 36.451 21.2987C35.9995 21.6155 35.5303 21.9463 35.0576 22.2736C34.5885 22.6044 34.1088 22.9246 33.6784 23.266C32.8036 23.9311 31.9923 24.5329 31.3962 24.9517C30.2039 25.7928 29.8547 25.9089 31.5196 24.3394C31.9359 23.9487 32.4791 23.449 33.1669 22.8331C33.3398 22.6783 33.5197 22.5164 33.7102 22.3475C33.9077 22.1856 34.1158 22.0202 34.331 21.8442C34.7684 21.4958 35.2411 21.1157 35.7561 20.7005C36.2746 20.2922 36.8355 19.8488 37.4387 19.3702C38.063 18.9233 38.7368 18.4446 39.4528 17.9308C39.8126 17.6739 40.1865 17.41 40.571 17.139C40.9555 16.8645 41.3506 16.583 41.7774 16.3225C42.631 15.7876 43.5305 15.214 44.4829 14.6087Z"></path>
<path fill="#018D43" d="M22.8496 34.6085C22.8496 34.6085 23.0965 34.334 23.5656 33.8167C23.802 33.5598 24.0912 33.2395 24.4369 32.8629C24.7967 32.5005 25.213 32.0852 25.6786 31.6171C26.1477 31.1491 26.6663 30.6318 27.2342 30.0652C27.3753 29.9244 27.5199 29.7801 27.6681 29.6323C27.8233 29.4915 27.9785 29.3472 28.1407 29.2029C28.4617 28.9109 28.7968 28.6082 29.1425 28.295C29.8374 27.6721 30.5641 26.9894 31.3648 26.3031C32.1796 25.6344 33.0403 24.9271 33.9434 24.188C37.6048 21.2917 42.1482 18.1103 47.4852 15.207C52.8116 12.2966 58.9282 9.6677 65.4998 7.72861C72.0679 5.78247 79.0839 4.52963 86.0753 4.12843C93.0667 3.70613 100.026 4.1777 106.478 5.3109C112.933 6.44409 118.877 8.27409 123.964 10.4103C129.064 12.5324 133.276 15.0416 136.511 17.3044C138.112 18.4693 139.216 19.3245 139.837 20.0107C140.472 20.6723 140.677 21.063 140.518 21.2178C140.19 21.5381 138.44 20.8483 135.541 19.7151C135.181 19.5673 134.807 19.4089 134.412 19.247C134.02 19.0816 133.597 18.9409 133.167 18.7719C132.302 18.4447 131.378 18.0857 130.398 17.6951C128.401 17.0088 126.196 16.1712 123.745 15.4604C118.87 13.9682 113.145 12.6274 107.014 11.8707C100.891 11.1035 94.3648 10.9241 88.0401 11.3992C81.7119 11.8602 75.5953 12.9793 70.2089 14.4503C64.8155 15.9108 60.1628 17.7127 56.5719 19.2048C55.6759 19.5884 54.8399 19.9368 54.0709 20.25C53.316 20.5914 52.6317 20.9081 52.0144 21.1756C50.7833 21.7105 49.8309 22.0695 49.2489 22.2736C48.6563 22.4636 48.0214 22.6783 47.3441 22.9176C46.6703 23.1639 45.9366 23.4068 45.2029 23.7481C44.4622 24.0754 43.6756 24.4309 42.8501 24.8215C42.441 25.0186 42.0036 25.2051 41.5838 25.4374C41.1605 25.6696 40.7301 25.9054 40.2857 26.1483C36.7053 28.0662 32.61 30.7866 28.2077 34.5874C27.0719 35.5059 26.0137 36.5757 24.8637 37.6526C24.578 37.9236 24.2923 38.1981 24.003 38.4761C23.7208 38.7612 23.4492 39.0568 23.167 39.3524C22.6062 39.9472 22.0383 40.5525 21.4598 41.1683C20.8672 41.7772 20.3239 42.4423 19.7595 43.1109C19.1952 43.7831 18.6237 44.4694 18.0417 45.1627C17.4808 45.8735 16.9376 46.6196 16.3697 47.3657C15.8159 48.1223 15.2127 48.8684 14.6906 49.6849C14.1509 50.4908 13.6042 51.3108 13.0468 52.1448C12.9093 52.3524 12.7682 52.5636 12.6306 52.7747C12.5001 52.9929 12.3731 53.2076 12.2426 53.4258C11.9815 53.8622 11.7205 54.3056 11.456 54.749C11.1914 55.196 10.9268 55.6429 10.6623 56.0969C10.5282 56.3221 10.3977 56.5509 10.2637 56.7796C10.1402 57.0154 10.0168 57.2477 9.8933 57.4835C9.39946 58.4302 8.89857 59.3909 8.39062 60.3657C8.12606 60.8514 7.90736 61.3582 7.67455 61.8649C7.44174 62.3717 7.20892 62.8855 6.97611 63.3993C6.7433 63.9166 6.50696 64.4375 6.27063 64.9618C6.04487 65.4897 5.84381 66.0317 5.62863 66.5737C5.2124 67.6611 4.75383 68.7556 4.35876 69.8888C3.98132 71.029 3.60036 72.1833 3.21234 73.3552C3.21234 73.3552 3.16648 73.0737 3.27936 72.0601C3.3358 71.5534 3.4381 70.8601 3.60389 69.9275C3.64621 69.6952 3.68854 69.4453 3.74498 69.1814C3.80848 68.921 3.87903 68.643 3.94957 68.3509C4.09773 67.7632 4.27057 67.1121 4.47163 66.3836C5.26883 63.4767 6.66923 59.4191 9.35008 54.0382C9.69224 53.3695 10.045 52.6762 10.4154 51.9548C10.7893 51.2404 11.2267 50.5295 11.657 49.7764C12.0944 49.0303 12.5389 48.2561 13.0186 47.4678C13.5266 46.697 14.0486 45.8982 14.5918 45.0782C14.8635 44.67 15.1421 44.2512 15.4208 43.8289C15.71 43.4101 16.024 43.0019 16.3309 42.5795C16.9552 41.7384 17.5972 40.8727 18.2604 39.9788C19.6819 38.2685 21.1282 36.4103 22.8496 34.6085Z"></path>
<path fill="#018D43" d="M39.8304 176.96C41.7529 178.333 43.7494 179.512 45.6824 180.705C46.6666 181.272 47.6578 181.803 48.6314 182.341C49.1217 182.609 49.6014 182.88 50.0917 183.137C50.5856 183.38 51.0794 183.619 51.5697 183.858C52.5539 184.33 53.5169 184.822 54.4904 185.262C55.4746 185.681 56.4482 186.1 57.4147 186.512C57.9015 186.709 58.3706 186.937 58.8609 187.11C59.3477 187.289 59.831 187.469 60.3142 187.648C61.2807 188 62.2296 188.366 63.182 188.69C70.8295 191.231 78.1489 192.628 84.9428 193.212C91.7437 193.796 98.0155 193.578 103.733 192.896C104.45 192.811 105.155 192.727 105.853 192.642C106.552 192.533 107.236 192.41 107.917 192.294C109.275 192.047 110.612 191.861 111.899 191.534C113.19 191.231 114.457 190.963 115.684 190.64C116.905 190.288 118.097 189.943 119.268 189.605C119.854 189.447 120.422 189.236 120.986 189.042C121.551 188.845 122.108 188.651 122.658 188.458C123.208 188.264 123.755 188.071 124.295 187.881C124.824 187.662 125.35 187.448 125.868 187.237C126.902 186.8 127.928 186.406 128.909 185.956C129.879 185.491 130.835 185.034 131.769 184.583C132.711 184.154 133.593 183.636 134.472 183.161C135.343 182.672 136.211 182.222 137.032 181.718C137.847 181.208 138.648 180.705 139.435 180.212C139.826 179.962 140.218 179.723 140.595 179.47C140.969 179.206 141.339 178.945 141.706 178.685C147.587 174.56 152.151 170.232 155.992 165.731C156.984 164.636 157.961 163.373 159.054 162.113C159.322 161.793 159.612 161.483 159.873 161.145C160.141 160.811 160.409 160.469 160.684 160.124C161.238 159.445 161.802 158.748 162.377 158.041C162.927 157.313 163.492 156.57 164.063 155.817C164.352 155.444 164.642 155.064 164.934 154.684C165.22 154.297 165.488 153.895 165.774 153.501C166.338 152.709 166.91 151.911 167.488 151.101C168.032 150.271 168.585 149.43 169.139 148.581C169.414 148.156 169.711 147.744 169.972 147.307C170.233 146.871 170.497 146.431 170.762 145.991C171.026 145.551 171.294 145.115 171.559 144.672C171.827 144.232 172.102 143.795 172.339 143.334C172.836 142.43 173.337 141.522 173.838 140.614C174.099 140.167 174.321 139.695 174.55 139.231L175.242 137.837L175.937 136.451C176.162 135.986 176.36 135.507 176.571 135.039C176.991 134.1 177.407 133.16 177.824 132.231C178.55 130.327 179.365 128.48 179.961 126.6C181.312 122.898 182.229 119.242 183.048 115.912C183.217 115.071 183.379 114.251 183.542 113.452C183.693 112.654 183.877 111.883 183.993 111.126C184.222 109.613 184.434 108.202 184.628 106.914C184.766 105.615 184.889 104.44 184.998 103.409C185.027 103.152 185.055 102.902 185.08 102.659C185.104 102.42 185.108 102.187 185.125 101.966C185.15 101.522 185.175 101.114 185.196 100.748C185.288 99.284 185.337 98.4746 185.337 98.4746C186.004 97.7567 186.607 97.8517 187.147 98.7034C187.415 99.1292 187.672 99.7451 187.912 100.54C188.032 100.938 188.148 101.382 188.261 101.867C188.314 102.11 188.371 102.367 188.427 102.631C188.48 102.895 188.512 103.169 188.551 103.458C188.706 104.602 188.836 105.914 188.946 107.385C188.995 108.853 188.992 110.475 188.974 112.245C188.773 115.761 188.417 119.872 187.415 124.337C186.459 128.807 185.069 133.692 182.974 138.689C180.903 143.697 178.219 148.856 174.875 153.902C171.534 158.949 167.538 163.876 162.948 168.433C158.363 172.994 153.192 177.179 147.594 180.793C141.999 184.407 135.988 187.451 129.791 189.795C123.593 192.142 117.222 193.804 110.947 194.803C98.3717 196.827 86.2903 196.066 76.23 194.06C74.9778 193.775 73.7502 193.494 72.5544 193.223C72.2546 193.152 71.9583 193.086 71.662 193.019C71.3692 192.938 71.08 192.857 70.7907 192.776C70.2122 192.614 69.6408 192.452 69.0764 192.294C66.8047 191.703 64.72 190.925 62.7305 190.267C61.7464 189.915 60.8116 189.524 59.898 189.172C59.4429 188.993 58.995 188.817 58.5576 188.644C58.3389 188.556 58.1202 188.472 57.9085 188.384C57.6969 188.289 57.4887 188.194 57.2842 188.102C56.4587 187.729 55.6651 187.37 54.9102 187.029C54.5328 186.857 54.1624 186.688 53.8026 186.526C53.4393 186.364 53.1041 186.174 52.7655 186.008C51.4286 185.319 50.2258 184.713 49.1957 184.161C48.1834 183.577 47.3192 183.077 46.6207 182.672C45.9258 182.264 45.3791 181.965 45.0298 181.736C44.6771 181.511 44.4972 181.391 44.4972 181.391C43.5448 180.786 42.6453 180.212 41.7987 179.674C41.3719 179.41 40.9733 179.132 40.5888 178.854C40.2043 178.579 39.8304 178.315 39.4706 178.062C38.751 177.548 38.0808 177.07 37.4529 176.619C36.8497 176.141 36.2889 175.701 35.7703 175.289C35.2553 174.877 34.7791 174.493 34.3452 174.145C34.1265 173.969 33.9219 173.8 33.7244 173.642C33.5339 173.473 33.354 173.311 33.1812 173.156C32.4933 172.54 31.9501 172.041 31.5339 171.65C29.8689 170.08 30.2181 170.197 31.4139 171.038C32.0136 171.46 32.8214 172.062 33.6997 172.73C34.1301 173.072 34.6098 173.392 35.0825 173.723C35.5516 174.054 36.0243 174.384 36.4758 174.701C36.9273 175.018 37.3577 175.324 37.7527 175.602C38.1443 175.887 38.5217 176.105 38.8286 176.313C39.4424 176.707 39.8304 176.96 39.8304 176.96Z"></path>
<path fill="#018D43" d="M49.2591 173.723C49.8411 173.927 50.7935 174.286 52.0281 174.821C52.6454 175.088 53.3298 175.405 54.0846 175.747C54.8536 176.06 55.6931 176.408 56.5856 176.792C60.1765 178.284 64.8292 180.086 70.2227 181.546C75.6091 183.017 81.7292 184.136 88.0574 184.594C94.3821 185.065 100.908 184.886 107.031 184.119C113.162 183.362 118.891 182.021 123.762 180.526C126.214 179.815 128.418 178.977 130.415 178.287C131.395 177.897 132.32 177.538 133.184 177.211C133.614 177.042 134.037 176.901 134.429 176.735C134.821 176.57 135.198 176.415 135.558 176.267C138.457 175.134 140.207 174.444 140.535 174.765C140.697 174.92 140.489 175.31 139.858 175.972C139.237 176.658 138.136 177.517 136.531 178.678C133.3 180.941 129.092 183.454 123.988 185.572C118.901 187.712 112.961 189.542 106.502 190.675C100.051 191.812 93.0946 192.283 86.0996 191.865C79.1047 191.463 72.0887 190.214 65.5206 188.268C58.9454 186.332 52.8324 183.704 47.5024 180.793C42.1654 177.89 37.6186 174.708 33.9571 171.812C33.0541 171.073 32.1934 170.366 31.375 169.697C30.5707 169.014 29.8476 168.328 29.1492 167.705C28.8035 167.392 28.4684 167.089 28.1474 166.797C27.9851 166.649 27.8299 166.509 27.6747 166.368C27.5266 166.22 27.3819 166.076 27.2408 165.935C26.6729 165.368 26.1544 164.851 25.6852 164.383C25.2196 163.915 24.8034 163.5 24.4436 163.137C24.1014 162.761 23.8087 162.44 23.5723 162.183C23.1032 161.666 22.8562 161.392 22.8562 161.392C21.1349 159.586 19.6851 157.732 18.2671 156.018C17.6039 155.124 16.9619 154.258 16.3375 153.417C16.0307 152.995 15.7167 152.583 15.4275 152.168C15.1453 151.745 14.8701 151.327 14.5985 150.918C14.0588 150.095 13.5332 149.3 13.0253 148.525C12.542 147.737 12.1011 146.963 11.6637 146.217C11.2333 145.467 10.7959 144.753 10.422 144.038C10.0552 143.32 9.69891 142.627 9.35675 141.955C6.67237 136.571 5.27551 132.516 4.47831 129.613C4.27724 128.885 4.1044 128.233 3.95624 127.646C3.88217 127.354 3.81515 127.076 3.75165 126.815C3.69169 126.555 3.65289 126.305 3.60703 126.069C3.44124 125.137 3.34247 124.447 3.2825 123.94C3.1661 122.926 3.21548 122.648 3.21548 122.648C3.6035 123.82 3.98446 124.975 4.3619 126.115C4.7605 127.248 5.21554 128.343 5.63178 129.43C5.84695 129.972 6.04801 130.514 6.2773 131.042C6.51364 131.566 6.74997 132.087 6.98278 132.601C7.2156 133.115 7.44841 133.628 7.68122 134.135C7.91403 134.642 8.13273 135.149 8.39729 135.634C8.90524 136.609 9.40613 137.57 9.89997 138.517C10.0234 138.752 10.1469 138.988 10.2704 139.22C10.4044 139.449 10.5384 139.678 10.6725 139.903C10.9406 140.354 11.2051 140.804 11.4662 141.251C11.7307 141.695 11.9917 142.134 12.2528 142.574C12.3833 142.793 12.5138 143.011 12.6443 143.225C12.7854 143.437 12.923 143.644 13.0606 143.855C13.6179 144.689 14.1646 145.506 14.7043 146.315C15.2264 147.132 15.8296 147.878 16.3834 148.634C16.9513 149.384 17.491 150.127 18.0554 150.837C18.6374 151.531 19.2089 152.217 19.7733 152.889C20.3377 153.558 20.8809 154.223 21.4735 154.832C22.052 155.448 22.6199 156.053 23.1808 156.648C23.463 156.943 23.7346 157.239 24.0168 157.524C24.306 157.802 24.5917 158.077 24.8775 158.348C26.0274 159.424 27.0856 160.494 28.2215 161.413C32.6237 165.214 36.7191 167.934 40.2994 169.852C40.7439 170.095 41.1777 170.33 41.5975 170.563C42.0173 170.792 42.4547 170.978 42.8639 171.179C43.6928 171.566 44.4759 171.925 45.2167 172.252C45.9468 172.593 46.6876 172.836 47.3578 173.083C48.0316 173.318 48.663 173.533 49.2591 173.723Z"></path>
<path fill="#018D43" d="M23.262 45.2428C23.7558 44.8521 24.1297 44.6163 24.3907 44.5213C24.6624 44.4298 24.8176 44.4756 24.874 44.6339C24.9798 44.9436 24.74 45.746 24.2179 46.8581C23.9604 47.4141 23.6359 48.0546 23.2549 48.7549C22.8986 49.4694 22.5106 50.2612 22.0767 51.0952C21.858 51.5105 21.6323 51.9363 21.3995 52.3762C21.1596 52.8091 20.9586 53.2807 20.7293 53.7452C20.2742 54.6743 19.8016 55.6386 19.3183 56.6204C17.4558 60.576 15.7909 64.9047 14.6303 68.255C14.1047 69.9478 13.6603 71.3801 13.3499 72.3901C13.0818 73.4107 12.9231 74.0054 12.9231 74.0054C11.3145 80.1113 10.3727 86.2453 10.0129 91.9641C9.64607 97.6828 9.84713 102.976 10.2739 107.442C10.4045 108.557 10.5315 109.624 10.6479 110.634C10.6937 111.14 10.789 111.63 10.8666 112.105C10.9442 112.58 11.0218 113.041 11.0958 113.488C11.1699 113.935 11.2405 114.367 11.3075 114.783C11.3428 114.99 11.3745 115.195 11.4063 115.395C11.4486 115.592 11.4909 115.789 11.5332 115.979C11.6955 116.743 11.8472 117.443 11.9812 118.073C12.1188 118.703 12.2246 119.27 12.3446 119.755C12.4715 120.238 12.5809 120.649 12.6656 120.984C12.8384 121.649 12.9301 122.004 12.9301 122.004C12.9301 122.004 13.0853 122.599 13.3569 123.62C13.6709 124.63 14.1153 126.062 14.6374 127.751C15.7979 131.098 17.4664 135.427 19.3253 139.382C19.8051 140.364 20.2813 141.328 20.7363 142.257C20.9691 142.722 21.1667 143.193 21.4101 143.626C21.6429 144.066 21.8686 144.492 22.0873 144.907C22.5212 145.738 22.9092 146.53 23.2655 147.244C23.6429 147.944 23.9675 148.581 24.225 149.137C24.7435 150.25 24.9869 151.052 24.8811 151.362C24.8246 151.52 24.6659 151.562 24.3943 151.474C24.1297 151.379 23.7593 151.143 23.2655 150.753C22.5424 150.179 21.791 149.549 21.015 148.87C20.2601 148.177 19.5194 147.41 18.7398 146.611C18.3553 146.206 17.9532 145.801 17.5722 145.368C17.2018 144.928 16.8244 144.478 16.4434 144.024C16.066 143.563 15.685 143.095 15.297 142.62C15.1065 142.381 14.9055 142.145 14.7256 141.895C14.5457 141.645 14.3622 141.392 14.1823 141.138C13.4628 140.118 12.7044 139.076 11.9989 137.982C11.3145 136.876 10.6302 135.74 9.94237 134.585C9.29685 133.414 8.68308 132.21 8.05872 130.999C7.7342 130.398 7.46258 129.775 7.18744 129.152L6.3585 127.276C4.21029 122.244 2.64411 116.986 1.62115 112.122C1.39892 110.898 1.18375 109.708 0.972102 108.554C0.922717 108.265 0.866278 107.98 0.823949 107.695C0.788675 107.41 0.7534 107.125 0.718126 106.847C0.647577 106.284 0.580556 105.735 0.513535 105.193C0.450041 104.651 0.386547 104.123 0.323053 103.609C0.294834 103.352 0.25956 103.095 0.238395 102.842C0.220758 102.589 0.203121 102.339 0.189011 102.092C0.125517 101.107 0.0655506 100.174 0.012639 99.3052C-0.0296902 98.0383 0.044386 96.7748 0.0867152 95.5079C0.153736 94.6105 0.185483 93.6568 0.294834 92.6609C0.414767 91.6649 0.541754 90.6232 0.672269 89.5393C0.746346 88.9973 0.792202 88.4448 0.894498 87.8888C0.993266 87.3327 1.09556 86.7662 1.19786 86.1925C1.30368 85.6189 1.4095 85.0382 1.51533 84.447C1.56824 84.1514 1.62468 83.8558 1.68112 83.5601C1.74108 83.2645 1.81869 82.9654 1.88923 82.6662C2.17848 81.4767 2.47479 80.2556 2.77462 79.0168C3.12031 77.7886 3.51186 76.5533 3.89282 75.3075C3.98806 74.9978 4.08683 74.6846 4.18207 74.3714C4.28789 74.0617 4.40782 73.752 4.5207 73.4424C4.74999 72.8265 4.97927 72.2036 5.20855 71.5842C5.44489 70.9648 5.66359 70.3419 5.91757 69.726C6.18565 69.1172 6.45374 68.5084 6.72182 67.8996L7.53313 66.0801C7.66365 65.7775 7.8118 65.4783 7.96701 65.1862L8.42205 64.3029C8.7254 63.7187 9.03229 63.1345 9.33565 62.5539L9.79422 61.6881C9.95295 61.4031 10.1258 61.125 10.2881 60.847C10.9583 59.7314 11.6179 58.6334 12.2916 57.5706C13.0077 56.5289 13.7238 55.5119 14.4293 54.53C14.7714 54.0338 15.1559 53.5657 15.5298 53.1047C15.9037 52.6472 16.2741 52.1968 16.641 51.7498C17.0114 51.3064 17.3712 50.8735 17.738 50.4547C18.1225 50.05 18.5035 49.6524 18.8774 49.2582C19.6358 48.4875 20.3483 47.7414 21.0891 47.0728C21.8298 46.4111 22.5565 45.7988 23.262 45.2428Z"></path>
</g>
<g clip-path="url(#clip1_111_357)">
<path fill="#313131" d="M71.9993 110.903C71.9118 110.903 71.8217 110.892 71.7316 110.863C71.1961 110.701 70.8834 110.101 71.0318 109.521C74.0033 97.8342 82.6897 88.7512 93.7089 85.8015C100.492 83.1172 105.717 77.4025 108.052 70.1205C110.059 63.866 109.719 57.1208 107.098 51.129C106.896 50.6643 106.57 50.3757 106.098 50.2429C105.624 50.1102 105.2 50.191 104.802 50.4911C99.681 54.3472 94.0323 57.2652 88.0151 59.1614C88.0045 59.1643 87.9965 59.1672 87.9859 59.1701C76.0894 62.4835 67.9861 74.2623 68.4076 87.1291C70.9973 84.6931 74.2259 83.149 77.5367 81.5644C81.9555 79.4488 86.5254 77.2611 90.3477 72.7758C90.7241 72.3342 91.3577 72.3083 91.7632 72.7181C92.1688 73.128 92.1926 73.8178 91.8162 74.2594C87.7129 79.0765 82.7348 81.4605 78.3425 83.5617C74.3876 85.4551 70.886 87.132 68.4288 90.1395C68.3758 90.2347 68.3042 90.3213 68.2247 90.3964C66.2684 92.9132 65.0173 96.3449 64.8026 101.534C64.784 101.976 64.7814 102.449 64.7973 102.943C64.8132 103.546 64.3784 104.048 63.8271 104.069C63.2731 104.086 62.8092 103.615 62.7933 103.012C62.78 102.464 62.78 101.933 62.8013 101.436C63.0372 95.8283 64.4394 92.0184 66.5388 89.2188C65.8602 82.1936 67.5355 75.1224 71.2757 69.2546C75.1113 63.2368 80.866 58.9074 87.4743 57.0631C93.2768 55.2332 98.7241 52.4192 103.662 48.6988C104.545 48.0349 105.56 47.8387 106.605 48.1331C107.652 48.4304 108.45 49.1404 108.908 50.1939C111.758 56.7081 112.124 64.0421 109.945 70.8421C107.405 78.7677 101.717 84.976 94.3424 87.8767C94.3106 87.8882 94.2735 87.9026 94.239 87.9113C83.9011 90.659 75.7501 99.1648 72.9668 110.107C72.8423 110.589 72.4367 110.906 71.9993 110.903Z" clip-rule="evenodd" fill-rule="evenodd"></path>
<path fill="#313131" d="M87.6449 75.1194C85.0605 75.1194 82.4945 74.3373 80.2918 72.8306C79.8253 72.5103 79.6821 71.8349 79.9763 71.3269C80.2706 70.8161 80.8882 70.6631 81.36 70.9835C84.0187 72.8018 87.3056 73.3877 90.3778 72.5882C93.4447 71.7916 96.1061 69.6673 97.6727 66.7551C97.9537 66.2356 98.5686 66.0624 99.0458 66.3655C99.5255 66.6714 99.6819 67.341 99.4036 67.8605C97.5587 71.2807 94.4388 73.7773 90.8417 74.7096C89.7894 74.9867 88.7158 75.1194 87.6449 75.1194Z" clip-rule="evenodd" fill-rule="evenodd"></path>
<path fill="#313131" d="M120.423 90.6532C120.381 90.6532 120.341 90.6503 120.299 90.6446C119.75 90.5724 119.358 90.0269 119.427 89.4294C120.49 79.9077 116.755 70.2792 109.68 64.3018C109.243 63.9324 109.163 63.2454 109.502 62.7692C109.842 62.293 110.473 62.2064 110.907 62.5758C114.632 65.7218 117.574 69.8578 119.419 74.5364C121.298 79.3103 121.99 84.5517 121.415 89.6892C121.354 90.2463 120.922 90.6532 120.423 90.6532Z" clip-rule="evenodd" fill-rule="evenodd"></path>
<path fill="#313131" d="M124.209 104.068C124.198 104.068 124.188 104.068 124.174 104.068C123.62 104.048 123.186 103.546 123.204 102.943C123.217 102.449 123.215 101.976 123.196 101.534C122.706 89.8104 116.946 87.0512 109.654 83.5617C107.682 82.6179 105.64 81.6395 103.615 80.4301C103.13 80.1386 102.953 79.4777 103.218 78.9466C103.485 78.4184 104.095 78.2251 104.58 78.5166C106.528 79.6826 108.527 80.638 110.459 81.5644C117.76 85.0568 124.652 88.3558 125.2 101.436C125.221 101.933 125.224 102.464 125.208 103.012C125.195 103.601 124.75 104.068 124.209 104.068ZM116.002 110.906C115.562 110.906 115.159 110.589 115.037 110.107C112.254 99.1648 104.103 90.659 93.7651 87.9113C93.227 87.767 92.8957 87.1782 93.0282 86.5923C93.1608 86.0064 93.7042 85.6485 94.2423 85.7899C105.285 88.7252 113.996 97.8198 116.972 109.523C117.121 110.104 116.808 110.707 116.275 110.866C116.182 110.892 116.092 110.906 116.002 110.906Z" clip-rule="evenodd" fill-rule="evenodd"></path>
<path fill="#313131" d="M93.9982 148C89.9028 148 85.8445 146.476 82.2634 143.59C81.8181 143.232 81.7253 142.548 82.054 142.063C82.3853 141.578 83.0109 141.477 83.4562 141.835C90.0592 147.154 97.9425 147.154 104.545 141.832C104.991 141.474 105.619 141.575 105.948 142.06C106.279 142.545 106.184 143.229 105.738 143.587C102.16 146.473 98.0989 148 94.0009 148H93.9982Z" clip-rule="evenodd" fill-rule="evenodd"></path>
<path fill="#313131" d="M77.1661 111.856C76.9859 111.856 76.8056 111.804 76.6413 111.694C76.1695 111.376 76.0237 110.704 76.3152 110.19C78.1867 106.891 80.3232 106.758 82.5869 106.62C84.1959 106.522 86.0196 106.409 88.2409 105.105C88.7287 104.819 89.3357 105.018 89.5981 105.546C89.8605 106.077 89.6803 106.738 89.1925 107.024C86.5763 108.559 84.4265 108.692 82.6982 108.796C80.6068 108.923 79.3424 109.001 78.017 111.333C77.8288 111.671 77.5001 111.856 77.1661 111.856Z" clip-rule="evenodd" fill-rule="evenodd"></path>
<path fill="#313131" d="M110.836 111.856C110.499 111.856 110.17 111.671 109.982 111.339C108.659 109.007 107.398 108.929 105.304 108.802C103.575 108.695 101.426 108.565 98.8093 107.03C98.3216 106.744 98.1387 106.08 98.4011 105.552C98.6635 105.021 99.2732 104.822 99.7583 105.11C101.982 106.415 103.803 106.528 105.415 106.626C107.679 106.764 109.813 106.894 111.687 110.196C111.978 110.71 111.83 111.382 111.361 111.7C111.199 111.801 111.016 111.856 110.836 111.856Z" clip-rule="evenodd" fill-rule="evenodd"></path>
<path fill="#313131" d="M85.4287 119.302C82.892 119.302 80.5991 117.778 79.4434 115.322C79.1915 114.785 79.385 114.127 79.8781 113.853C80.3711 113.579 80.9755 113.789 81.2273 114.326C82.0411 116.049 83.6501 117.12 85.4287 117.12C87.21 117.12 88.819 116.049 89.6301 114.326C89.882 113.789 90.4863 113.579 90.9794 113.853C91.4724 114.127 91.6659 114.785 91.4141 115.322C90.2584 117.775 87.9628 119.302 85.4287 119.302Z" clip-rule="evenodd" fill-rule="evenodd"></path>
<path fill="#313131" d="M102.573 119.302C100.039 119.302 97.7436 117.778 96.5879 115.322C96.3361 114.785 96.5296 114.127 97.0226 113.853C97.5156 113.579 98.12 113.789 98.3718 114.326C99.1856 116.049 100.795 117.12 102.573 117.12C104.352 117.12 105.964 116.049 106.775 114.326C107.026 113.789 107.634 113.579 108.124 113.853C108.617 114.127 108.81 114.785 108.559 115.322C107.403 117.775 105.11 119.302 102.573 119.302Z" clip-rule="evenodd" fill-rule="evenodd"></path>
<path fill="#313131" d="M94.0011 135.381C90.6161 135.381 87.5757 134.013 85.6645 131.623C85.3014 131.167 85.3438 130.48 85.7626 130.082C86.1788 129.687 86.8123 129.733 87.1755 130.186C88.6837 132.068 91.2337 133.194 93.9985 133.194C96.7605 133.194 99.3132 132.068 100.821 130.186C101.185 129.73 101.818 129.684 102.234 130.082C102.653 130.478 102.693 131.167 102.33 131.623C100.424 134.013 97.3887 135.381 94.0011 135.381Z" clip-rule="evenodd" fill-rule="evenodd"></path>
<path fill="#313131" d="M116.996 129.834L106.928 140.796C105.873 141.942 105.873 143.809 106.928 144.958C107.967 146.086 109.653 146.078 110.775 144.935L127.106 128.244C127.299 128.045 127.313 127.941 127.318 127.897L128.36 118.777C128.468 117.827 129.025 117.033 129.924 116.537L136.468 112.923C136.762 112.759 136.932 112.508 136.985 112.15C137.02 111.908 136.969 111.651 136.611 111.108L129.788 100.813C129.595 100.518 129.073 100.504 128.712 100.787L117.327 109.72C117.083 109.91 116.953 110.101 116.89 110.352L113.372 124.642C113.036 126.013 113.786 127.424 115.042 127.791C115.424 127.903 115.811 127.903 116.172 127.817C116.206 127.805 116.24 127.796 116.275 127.788C117.057 127.554 117.709 126.887 117.934 125.972L119.827 118.277C119.97 117.694 120.521 117.351 121.054 117.507C121.59 117.663 121.905 118.26 121.765 118.843L119.869 126.535C119.477 128.157 118.358 129.355 116.996 129.834ZM108.802 147.986C107.604 147.986 106.417 147.492 105.508 146.502C103.673 144.502 103.671 141.252 105.508 139.252L114.197 129.791C112.071 128.974 110.841 126.489 111.435 124.079L114.955 109.789C115.138 109.041 115.53 108.441 116.156 107.95L127.541 99.0147C128.797 98.0276 130.573 98.2671 131.416 99.5371L138.236 109.829C138.663 110.473 139.132 111.359 138.965 112.493C138.814 113.544 138.247 114.39 137.375 114.869L130.83 118.482C130.629 118.595 130.379 118.783 130.35 119.048L129.306 128.169C129.234 128.792 128.964 129.34 128.476 129.837L112.145 146.525C111.193 147.501 109.993 147.986 108.802 147.986Z" clip-rule="evenodd" fill-rule="evenodd"></path>
<path fill="#313131" d="M58.7116 100.585C58.5022 100.585 58.3114 100.663 58.2133 100.816L51.3929 111.108C51.0324 111.651 50.9821 111.91 51.0165 112.15C51.0695 112.505 51.2392 112.759 51.5334 112.923L58.0781 116.537C58.9767 117.033 59.5307 117.83 59.6394 118.78L60.6838 127.9C60.6891 127.944 60.6997 128.047 60.8958 128.247L77.2297 144.938C78.3483 146.081 80.0368 146.092 81.0759 144.961C81.5848 144.41 81.8605 143.671 81.8605 142.88C81.8605 142.089 81.5822 141.353 81.0759 140.799L71.0057 129.834C70.7168 129.73 70.4358 129.594 70.1628 129.424C69.1502 128.786 68.4266 127.765 68.127 126.541L66.2344 118.849C66.0913 118.266 66.4067 117.668 66.9422 117.513C67.4776 117.357 68.0263 117.703 68.1695 118.283L70.0621 125.975C70.2238 126.636 70.6161 127.187 71.1648 127.534C71.3503 127.649 71.5465 127.739 71.748 127.796C71.7665 127.802 71.7851 127.805 71.8063 127.814C72.18 127.912 72.575 127.906 72.954 127.796C74.2131 127.43 74.9606 126.015 74.624 124.647L71.1065 110.358C71.0455 110.107 70.913 109.916 70.6691 109.726L59.2842 100.79C59.1172 100.651 58.9051 100.585 58.7116 100.585ZM79.1965 147.986C78.009 147.986 76.8082 147.501 75.8566 146.525L59.5227 129.834C59.035 129.338 58.7646 128.792 58.6931 128.166L57.6487 119.045C57.6195 118.783 57.3703 118.592 57.1689 118.482L50.6269 114.869C49.7548 114.387 49.1902 113.544 49.0338 112.493C48.8694 111.359 49.336 110.473 49.7627 109.829L56.5857 99.5371C57.4287 98.2671 59.1994 98.0276 60.4585 99.0147L71.846 107.948C72.469 108.438 72.8639 109.039 73.0468 109.786L76.5617 124.076C77.1555 126.486 75.9282 128.971 73.8023 129.791L82.4887 139.252C83.3767 140.216 83.8618 141.503 83.8618 142.877C83.8618 144.251 83.3741 145.538 82.4887 146.502C81.5848 147.492 80.3947 147.986 79.1965 147.986Z" clip-rule="evenodd" fill-rule="evenodd"></path>
</g>
<defs>
<clipPath id="clip0_111_357">
<rect fill="white" height="196" width="189"></rect>
</clipPath>
<clipPath id="clip1_111_357">
<rect transform="translate(49 48)" fill="white" height="100" width="90"></rect>
</clipPath>
</defs>
</svg>
