<svg xmlns="http://www.w3.org/2000/svg" fill="none" viewBox="0 0 189 196" height="196" width="189">
<g clip-path="url(#clip0_87_1918)">
<path fill="#018D43" d="M44.4829 14.6087C44.4829 14.6087 45.1955 14.123 46.6029 13.3277C47.3014 12.923 48.1656 12.4268 49.178 11.839C50.208 11.2865 51.4108 10.6812 52.7477 9.99145C53.0864 9.82253 53.4215 9.63601 53.7848 9.47412C54.1446 9.30872 54.515 9.14332 54.8924 8.97087C55.6508 8.62951 56.441 8.27055 57.2699 7.89751C57.478 7.80601 57.6861 7.71099 57.8943 7.61597C58.1094 7.53151 58.3246 7.44353 58.5433 7.35555C58.9807 7.1831 59.4287 7.00714 59.8837 6.82766C60.7973 6.47574 61.7321 6.0851 62.7163 5.72966C64.7022 5.07509 66.7904 4.29382 69.0621 3.70259C69.6265 3.54422 70.198 3.38234 70.7765 3.22045C71.0657 3.13951 71.3549 3.05857 71.6477 2.97762C71.944 2.91076 72.2403 2.84037 72.5402 2.77351C73.7395 2.49901 74.967 2.22099 76.2158 1.93593C86.276 -0.0700283 98.3575 -0.833701 110.933 1.18986C117.208 2.18932 123.582 3.85039 129.78 6.19772C135.978 8.53801 141.992 11.5857 147.583 15.1999C153.177 18.8106 158.352 22.9985 162.938 27.5559C167.527 32.1133 171.527 37.0403 174.868 42.0868C178.212 47.1334 180.896 52.2926 182.967 57.3005C185.065 62.3013 186.455 67.186 187.411 71.6554C188.409 76.1213 188.769 80.2318 188.97 83.7475C188.991 85.5177 188.991 87.1435 188.942 88.6075C188.833 90.0821 188.702 91.3948 188.547 92.5385C188.505 92.8236 188.473 93.0981 188.423 93.3655C188.367 93.6295 188.311 93.8829 188.258 94.1292C188.145 94.6149 188.028 95.0583 187.908 95.456C187.669 96.2513 187.415 96.8672 187.143 97.293C186.603 98.1447 186.004 98.2432 185.333 97.5218C185.333 97.5218 185.284 96.7123 185.192 95.2483C185.171 94.8823 185.146 94.4776 185.122 94.0307C185.108 93.809 185.101 93.5767 185.076 93.3374C185.051 93.0981 185.023 92.8482 184.995 92.5878C184.885 91.5566 184.762 90.3812 184.624 89.0826C184.43 87.7946 184.215 86.3834 183.99 84.8701C183.873 84.1135 183.69 83.3428 183.538 82.5439C183.379 81.745 183.213 80.9251 183.044 80.084C182.226 76.7513 181.309 73.0983 179.958 69.3925C179.358 67.5133 178.547 65.6657 177.82 63.7618C177.404 62.8292 176.988 61.8931 176.568 60.9499C176.356 60.4818 176.159 60.0032 175.933 59.5387L175.238 58.1521L174.547 56.7585C174.314 56.294 174.095 55.8259 173.834 55.3754C173.333 54.4675 172.832 53.5595 172.335 52.6551C172.095 52.1976 171.823 51.7577 171.555 51.3178C171.287 50.8779 171.023 50.438 170.758 49.9981C170.494 49.5582 170.229 49.1183 169.968 48.6819C169.707 48.2455 169.411 47.8302 169.135 47.4079C168.582 46.5598 168.028 45.7187 167.485 44.8881C166.906 44.0787 166.335 43.2763 165.77 42.4845C165.488 42.0903 165.216 41.6856 164.931 41.302C164.638 40.922 164.349 40.5454 164.059 40.1688C163.488 39.4122 162.927 38.6697 162.373 37.9412C161.795 37.2303 161.23 36.537 160.677 35.8543C160.402 35.5094 160.133 35.168 159.865 34.8337C159.601 34.4923 159.312 34.1862 159.043 33.8659C157.95 32.6025 156.973 31.3391 155.978 30.2481C152.133 25.7435 147.572 21.4184 141.692 17.2974C141.325 17.0369 140.955 16.7765 140.581 16.5126C140.2 16.2592 139.808 16.0199 139.42 15.77C138.634 15.2773 137.833 14.7741 137.018 14.2638C136.196 13.7605 135.329 13.3101 134.461 12.8209C133.586 12.3458 132.701 11.8285 131.762 11.3991C130.828 10.9522 129.872 10.4947 128.902 10.0302C127.921 9.5797 126.898 9.18555 125.864 8.74916C125.346 8.53449 124.82 8.31982 124.291 8.10514C123.751 7.9151 123.208 7.72155 122.658 7.52799C122.108 7.33443 121.55 7.14087 120.986 6.9438C120.422 6.75024 119.854 6.53909 119.268 6.38072C118.097 6.04287 116.901 5.69799 115.684 5.34959C114.457 5.02582 113.19 4.75836 111.899 4.4557C110.612 4.13193 109.275 3.94189 107.917 3.69555C107.236 3.57941 106.548 3.45624 105.853 3.34714C105.155 3.26268 104.446 3.17822 103.733 3.09376C98.0153 2.41103 91.7435 2.19284 84.9391 2.77703C78.1417 3.36122 70.8223 4.75836 63.1713 7.30276C62.2189 7.63005 61.27 7.99605 60.3035 8.34797C59.8202 8.52745 59.337 8.70693 58.8502 8.88641C58.3599 9.05886 57.8872 9.28409 57.4039 9.48468C56.4374 9.89643 55.4639 10.3152 54.4797 10.734C53.5061 11.1739 52.5396 11.6666 51.5555 12.1382C51.0651 12.3775 50.5713 12.6203 50.0739 12.8596C49.5871 13.1165 49.1039 13.3875 48.6136 13.655C47.64 14.1969 46.6453 14.7248 45.6611 15.2949C44.6946 15.8897 43.714 16.4915 42.7298 17.1003C42.4829 17.2516 42.236 17.4065 41.989 17.5578C41.7421 17.7126 41.5058 17.8851 41.2624 18.047C40.7791 18.3778 40.2959 18.7086 39.8056 19.0429C39.8056 19.0429 39.4175 19.2928 38.8002 19.6904C38.1724 20.074 37.3505 20.6653 36.451 21.2987C35.9995 21.6155 35.5303 21.9463 35.0576 22.2736C34.5885 22.6044 34.1088 22.9246 33.6784 23.266C32.8036 23.9311 31.9923 24.5329 31.3962 24.9517C30.2039 25.7928 29.8547 25.9089 31.5196 24.3394C31.9359 23.9487 32.4791 23.449 33.1669 22.8331C33.3398 22.6783 33.5197 22.5164 33.7102 22.3475C33.9077 22.1856 34.1158 22.0202 34.331 21.8442C34.7684 21.4958 35.2411 21.1157 35.7561 20.7005C36.2746 20.2922 36.8355 19.8488 37.4387 19.3702C38.063 18.9233 38.7368 18.4446 39.4528 17.9308C39.8126 17.6739 40.1865 17.41 40.571 17.139C40.9555 16.8645 41.3506 16.583 41.7774 16.3225C42.631 15.7876 43.5305 15.214 44.4829 14.6087Z"></path>
<path fill="#018D43" d="M22.8496 34.6085C22.8496 34.6085 23.0965 34.334 23.5656 33.8167C23.802 33.5598 24.0912 33.2395 24.4369 32.8629C24.7967 32.5005 25.213 32.0852 25.6786 31.6171C26.1477 31.1491 26.6663 30.6318 27.2342 30.0652C27.3753 29.9244 27.5199 29.7801 27.6681 29.6323C27.8233 29.4915 27.9785 29.3472 28.1407 29.2029C28.4617 28.9109 28.7968 28.6082 29.1425 28.295C29.8374 27.6721 30.5641 26.9894 31.3648 26.3031C32.1796 25.6344 33.0403 24.9271 33.9434 24.188C37.6048 21.2917 42.1482 18.1103 47.4852 15.207C52.8116 12.2966 58.9282 9.6677 65.4998 7.72861C72.0679 5.78247 79.0839 4.52963 86.0753 4.12843C93.0667 3.70613 100.026 4.1777 106.478 5.3109C112.933 6.44409 118.877 8.27409 123.964 10.4103C129.064 12.5324 133.276 15.0416 136.511 17.3044C138.112 18.4693 139.216 19.3245 139.837 20.0107C140.472 20.6723 140.677 21.063 140.518 21.2178C140.19 21.5381 138.44 20.8483 135.541 19.7151C135.181 19.5673 134.807 19.4089 134.412 19.247C134.02 19.0816 133.597 18.9409 133.167 18.7719C132.302 18.4447 131.378 18.0857 130.398 17.6951C128.401 17.0088 126.196 16.1712 123.745 15.4604C118.87 13.9682 113.145 12.6274 107.014 11.8707C100.891 11.1035 94.3648 10.9241 88.0401 11.3992C81.7119 11.8602 75.5953 12.9793 70.2089 14.4503C64.8155 15.9108 60.1628 17.7127 56.5719 19.2048C55.6759 19.5884 54.8399 19.9368 54.0709 20.25C53.316 20.5914 52.6317 20.9081 52.0144 21.1756C50.7833 21.7105 49.8309 22.0695 49.2489 22.2736C48.6563 22.4636 48.0214 22.6783 47.3441 22.9176C46.6703 23.1639 45.9366 23.4068 45.2029 23.7481C44.4622 24.0754 43.6756 24.4309 42.8501 24.8215C42.441 25.0186 42.0036 25.2051 41.5838 25.4374C41.1605 25.6696 40.7301 25.9054 40.2857 26.1483C36.7053 28.0662 32.61 30.7866 28.2077 34.5874C27.0719 35.5059 26.0137 36.5757 24.8637 37.6526C24.578 37.9236 24.2923 38.1981 24.003 38.4761C23.7208 38.7612 23.4492 39.0568 23.167 39.3524C22.6062 39.9472 22.0383 40.5525 21.4598 41.1683C20.8672 41.7772 20.3239 42.4423 19.7595 43.1109C19.1952 43.7831 18.6237 44.4694 18.0417 45.1627C17.4808 45.8735 16.9376 46.6196 16.3697 47.3657C15.8159 48.1223 15.2127 48.8684 14.6906 49.6849C14.1509 50.4908 13.6042 51.3108 13.0468 52.1448C12.9093 52.3524 12.7682 52.5636 12.6306 52.7747C12.5001 52.9929 12.3731 53.2076 12.2426 53.4258C11.9815 53.8622 11.7205 54.3056 11.456 54.749C11.1914 55.196 10.9268 55.6429 10.6623 56.0969C10.5282 56.3221 10.3977 56.5509 10.2637 56.7796C10.1402 57.0154 10.0168 57.2477 9.8933 57.4835C9.39946 58.4302 8.89857 59.3909 8.39062 60.3657C8.12606 60.8514 7.90736 61.3582 7.67455 61.8649C7.44174 62.3717 7.20892 62.8855 6.97611 63.3993C6.7433 63.9166 6.50696 64.4375 6.27063 64.9618C6.04487 65.4897 5.84381 66.0317 5.62863 66.5737C5.2124 67.6611 4.75383 68.7556 4.35876 69.8888C3.98132 71.029 3.60036 72.1833 3.21234 73.3552C3.21234 73.3552 3.16648 73.0737 3.27936 72.0601C3.3358 71.5534 3.4381 70.8601 3.60389 69.9275C3.64621 69.6952 3.68854 69.4453 3.74498 69.1814C3.80848 68.921 3.87903 68.643 3.94957 68.3509C4.09773 67.7632 4.27057 67.1121 4.47163 66.3836C5.26883 63.4767 6.66923 59.4191 9.35008 54.0382C9.69224 53.3695 10.045 52.6762 10.4154 51.9548C10.7893 51.2404 11.2267 50.5295 11.657 49.7764C12.0944 49.0303 12.5389 48.2561 13.0186 47.4678C13.5266 46.697 14.0486 45.8982 14.5918 45.0782C14.8635 44.67 15.1421 44.2512 15.4208 43.8289C15.71 43.4101 16.024 43.0019 16.3309 42.5795C16.9552 41.7384 17.5972 40.8727 18.2604 39.9788C19.6819 38.2685 21.1282 36.4103 22.8496 34.6085Z"></path>
<path fill="#018D43" d="M39.8304 176.96C41.7529 178.333 43.7494 179.512 45.6824 180.705C46.6666 181.272 47.6578 181.803 48.6314 182.341C49.1217 182.609 49.6014 182.88 50.0917 183.137C50.5856 183.38 51.0794 183.619 51.5697 183.858C52.5539 184.33 53.5169 184.822 54.4904 185.262C55.4746 185.681 56.4482 186.1 57.4147 186.512C57.9015 186.709 58.3706 186.937 58.8609 187.11C59.3477 187.289 59.831 187.469 60.3142 187.648C61.2807 188 62.2296 188.366 63.182 188.69C70.8295 191.231 78.1489 192.628 84.9428 193.212C91.7437 193.796 98.0155 193.578 103.733 192.896C104.45 192.811 105.155 192.727 105.853 192.642C106.552 192.533 107.236 192.41 107.917 192.294C109.275 192.047 110.612 191.861 111.899 191.534C113.19 191.231 114.457 190.963 115.684 190.64C116.905 190.288 118.097 189.943 119.268 189.605C119.854 189.447 120.422 189.236 120.986 189.042C121.551 188.845 122.108 188.651 122.658 188.458C123.208 188.264 123.755 188.071 124.295 187.881C124.824 187.662 125.35 187.448 125.868 187.237C126.902 186.8 127.928 186.406 128.909 185.956C129.879 185.491 130.835 185.034 131.769 184.583C132.711 184.154 133.593 183.636 134.472 183.161C135.343 182.672 136.211 182.222 137.032 181.718C137.847 181.208 138.648 180.705 139.435 180.212C139.826 179.962 140.218 179.723 140.595 179.47C140.969 179.206 141.339 178.945 141.706 178.685C147.587 174.56 152.151 170.232 155.992 165.731C156.984 164.636 157.961 163.373 159.054 162.113C159.322 161.793 159.612 161.483 159.873 161.145C160.141 160.811 160.409 160.469 160.684 160.124C161.238 159.445 161.802 158.748 162.377 158.041C162.927 157.313 163.492 156.57 164.063 155.817C164.352 155.444 164.642 155.064 164.934 154.684C165.22 154.297 165.488 153.895 165.774 153.501C166.338 152.709 166.91 151.911 167.488 151.101C168.032 150.271 168.585 149.43 169.139 148.581C169.414 148.156 169.711 147.744 169.972 147.307C170.233 146.871 170.497 146.431 170.762 145.991C171.026 145.551 171.294 145.115 171.559 144.672C171.827 144.232 172.102 143.795 172.339 143.334C172.836 142.43 173.337 141.522 173.838 140.614C174.099 140.167 174.321 139.695 174.55 139.231L175.242 137.837L175.937 136.451C176.162 135.986 176.36 135.507 176.571 135.039C176.991 134.1 177.407 133.16 177.824 132.231C178.55 130.327 179.365 128.48 179.961 126.6C181.312 122.898 182.229 119.242 183.048 115.912C183.217 115.071 183.379 114.251 183.542 113.452C183.693 112.654 183.877 111.883 183.993 111.126C184.222 109.613 184.434 108.202 184.628 106.914C184.766 105.615 184.889 104.44 184.998 103.409C185.027 103.152 185.055 102.902 185.08 102.659C185.104 102.42 185.108 102.187 185.125 101.966C185.15 101.522 185.175 101.114 185.196 100.748C185.288 99.284 185.337 98.4746 185.337 98.4746C186.004 97.7567 186.607 97.8517 187.147 98.7034C187.415 99.1292 187.672 99.7451 187.912 100.54C188.032 100.938 188.148 101.382 188.261 101.867C188.314 102.11 188.371 102.367 188.427 102.631C188.48 102.895 188.512 103.169 188.551 103.458C188.706 104.602 188.836 105.914 188.946 107.385C188.995 108.853 188.992 110.475 188.974 112.245C188.773 115.761 188.417 119.872 187.415 124.337C186.459 128.807 185.069 133.692 182.974 138.689C180.903 143.697 178.219 148.856 174.875 153.902C171.534 158.949 167.538 163.876 162.948 168.433C158.363 172.994 153.192 177.179 147.594 180.793C141.999 184.407 135.988 187.451 129.791 189.795C123.593 192.142 117.222 193.804 110.947 194.803C98.3717 196.827 86.2903 196.066 76.23 194.06C74.9778 193.775 73.7502 193.494 72.5544 193.223C72.2546 193.152 71.9583 193.086 71.662 193.019C71.3692 192.938 71.08 192.857 70.7907 192.776C70.2122 192.614 69.6408 192.452 69.0764 192.294C66.8047 191.703 64.72 190.925 62.7305 190.267C61.7464 189.915 60.8116 189.524 59.898 189.172C59.4429 188.993 58.995 188.817 58.5576 188.644C58.3389 188.556 58.1202 188.472 57.9085 188.384C57.6969 188.289 57.4887 188.194 57.2842 188.102C56.4587 187.729 55.6651 187.37 54.9102 187.029C54.5328 186.857 54.1624 186.688 53.8026 186.526C53.4393 186.364 53.1041 186.174 52.7655 186.008C51.4286 185.319 50.2258 184.713 49.1957 184.161C48.1834 183.577 47.3192 183.077 46.6207 182.672C45.9258 182.264 45.3791 181.965 45.0298 181.736C44.6771 181.511 44.4972 181.391 44.4972 181.391C43.5448 180.786 42.6453 180.212 41.7987 179.674C41.3719 179.41 40.9733 179.132 40.5888 178.854C40.2043 178.579 39.8304 178.315 39.4706 178.062C38.751 177.548 38.0808 177.07 37.4529 176.619C36.8497 176.141 36.2889 175.701 35.7703 175.289C35.2553 174.877 34.7791 174.493 34.3452 174.145C34.1265 173.969 33.9219 173.8 33.7244 173.642C33.5339 173.473 33.354 173.311 33.1812 173.156C32.4933 172.54 31.9501 172.041 31.5339 171.65C29.8689 170.08 30.2181 170.197 31.4139 171.038C32.0136 171.46 32.8214 172.062 33.6997 172.73C34.1301 173.072 34.6098 173.392 35.0825 173.723C35.5516 174.054 36.0243 174.384 36.4758 174.701C36.9273 175.018 37.3577 175.324 37.7527 175.602C38.1443 175.887 38.5217 176.105 38.8286 176.313C39.4424 176.707 39.8304 176.96 39.8304 176.96Z"></path>
<path fill="#018D43" d="M49.2591 173.723C49.8411 173.927 50.7935 174.286 52.0281 174.821C52.6454 175.088 53.3298 175.405 54.0846 175.747C54.8536 176.06 55.6931 176.408 56.5856 176.792C60.1765 178.284 64.8292 180.086 70.2227 181.546C75.6091 183.017 81.7292 184.136 88.0574 184.594C94.3821 185.065 100.908 184.886 107.031 184.119C113.162 183.362 118.891 182.021 123.762 180.526C126.214 179.815 128.418 178.977 130.415 178.287C131.395 177.897 132.32 177.538 133.184 177.211C133.614 177.042 134.037 176.901 134.429 176.735C134.821 176.57 135.198 176.415 135.558 176.267C138.457 175.134 140.207 174.444 140.535 174.765C140.697 174.92 140.489 175.31 139.858 175.972C139.237 176.658 138.136 177.517 136.531 178.678C133.3 180.941 129.092 183.454 123.988 185.572C118.901 187.712 112.961 189.542 106.502 190.675C100.051 191.812 93.0946 192.283 86.0996 191.865C79.1047 191.463 72.0887 190.214 65.5206 188.268C58.9454 186.332 52.8324 183.704 47.5024 180.793C42.1654 177.89 37.6186 174.708 33.9571 171.812C33.0541 171.073 32.1934 170.366 31.375 169.697C30.5707 169.014 29.8476 168.328 29.1492 167.705C28.8035 167.392 28.4684 167.089 28.1474 166.797C27.9851 166.649 27.8299 166.509 27.6747 166.368C27.5266 166.22 27.3819 166.076 27.2408 165.935C26.6729 165.368 26.1544 164.851 25.6852 164.383C25.2196 163.915 24.8034 163.5 24.4436 163.137C24.1014 162.761 23.8087 162.44 23.5723 162.183C23.1032 161.666 22.8562 161.392 22.8562 161.392C21.1349 159.586 19.6851 157.732 18.2671 156.018C17.6039 155.124 16.9619 154.258 16.3375 153.417C16.0307 152.995 15.7167 152.583 15.4275 152.168C15.1453 151.745 14.8701 151.327 14.5985 150.918C14.0588 150.095 13.5332 149.3 13.0253 148.525C12.542 147.737 12.1011 146.963 11.6637 146.217C11.2333 145.467 10.7959 144.753 10.422 144.038C10.0552 143.32 9.69891 142.627 9.35675 141.955C6.67237 136.571 5.27551 132.516 4.47831 129.613C4.27724 128.885 4.1044 128.233 3.95624 127.646C3.88217 127.354 3.81515 127.076 3.75165 126.815C3.69169 126.555 3.65289 126.305 3.60703 126.069C3.44124 125.137 3.34247 124.447 3.2825 123.94C3.1661 122.926 3.21548 122.648 3.21548 122.648C3.6035 123.82 3.98446 124.975 4.3619 126.115C4.7605 127.248 5.21554 128.343 5.63178 129.43C5.84695 129.972 6.04801 130.514 6.2773 131.042C6.51364 131.566 6.74997 132.087 6.98278 132.601C7.2156 133.115 7.44841 133.628 7.68122 134.135C7.91403 134.642 8.13273 135.149 8.39729 135.634C8.90524 136.609 9.40613 137.57 9.89997 138.517C10.0234 138.752 10.1469 138.988 10.2704 139.22C10.4044 139.449 10.5384 139.678 10.6725 139.903C10.9406 140.354 11.2051 140.804 11.4662 141.251C11.7307 141.695 11.9917 142.134 12.2528 142.574C12.3833 142.793 12.5138 143.011 12.6443 143.225C12.7854 143.437 12.923 143.644 13.0606 143.855C13.6179 144.689 14.1646 145.506 14.7043 146.315C15.2264 147.132 15.8296 147.878 16.3834 148.634C16.9513 149.384 17.491 150.127 18.0554 150.837C18.6374 151.531 19.2089 152.217 19.7733 152.889C20.3377 153.558 20.8809 154.223 21.4735 154.832C22.052 155.448 22.6199 156.053 23.1808 156.648C23.463 156.943 23.7346 157.239 24.0168 157.524C24.306 157.802 24.5917 158.077 24.8775 158.348C26.0274 159.424 27.0856 160.494 28.2215 161.413C32.6237 165.214 36.7191 167.934 40.2994 169.852C40.7439 170.095 41.1777 170.33 41.5975 170.563C42.0173 170.792 42.4547 170.978 42.8639 171.179C43.6928 171.566 44.4759 171.925 45.2167 172.252C45.9468 172.593 46.6876 172.836 47.3578 173.083C48.0316 173.318 48.663 173.533 49.2591 173.723Z"></path>
<path fill="#018D43" d="M23.262 45.2428C23.7558 44.8521 24.1297 44.6163 24.3907 44.5213C24.6624 44.4298 24.8176 44.4756 24.874 44.6339C24.9798 44.9436 24.74 45.746 24.2179 46.8581C23.9604 47.4141 23.6359 48.0546 23.2549 48.7549C22.8986 49.4694 22.5106 50.2612 22.0767 51.0952C21.858 51.5105 21.6323 51.9363 21.3995 52.3762C21.1596 52.8091 20.9586 53.2807 20.7293 53.7452C20.2742 54.6743 19.8016 55.6386 19.3183 56.6204C17.4558 60.576 15.7909 64.9047 14.6303 68.255C14.1047 69.9478 13.6603 71.3801 13.3499 72.3901C13.0818 73.4107 12.9231 74.0054 12.9231 74.0054C11.3145 80.1113 10.3727 86.2453 10.0129 91.9641C9.64607 97.6828 9.84713 102.976 10.2739 107.442C10.4045 108.557 10.5315 109.624 10.6479 110.634C10.6937 111.14 10.789 111.63 10.8666 112.105C10.9442 112.58 11.0218 113.041 11.0958 113.488C11.1699 113.935 11.2405 114.367 11.3075 114.783C11.3428 114.99 11.3745 115.195 11.4063 115.395C11.4486 115.592 11.4909 115.789 11.5332 115.979C11.6955 116.743 11.8472 117.443 11.9812 118.073C12.1188 118.703 12.2246 119.27 12.3446 119.755C12.4715 120.238 12.5809 120.649 12.6656 120.984C12.8384 121.649 12.9301 122.004 12.9301 122.004C12.9301 122.004 13.0853 122.599 13.3569 123.62C13.6709 124.63 14.1153 126.062 14.6374 127.751C15.7979 131.098 17.4664 135.427 19.3253 139.382C19.8051 140.364 20.2813 141.328 20.7363 142.257C20.9691 142.722 21.1667 143.193 21.4101 143.626C21.6429 144.066 21.8686 144.492 22.0873 144.907C22.5212 145.738 22.9092 146.53 23.2655 147.244C23.6429 147.944 23.9675 148.581 24.225 149.137C24.7435 150.25 24.9869 151.052 24.8811 151.362C24.8246 151.52 24.6659 151.562 24.3943 151.474C24.1297 151.379 23.7593 151.143 23.2655 150.753C22.5424 150.179 21.791 149.549 21.015 148.87C20.2601 148.177 19.5194 147.41 18.7398 146.611C18.3553 146.206 17.9532 145.801 17.5722 145.368C17.2018 144.928 16.8244 144.478 16.4434 144.024C16.066 143.563 15.685 143.095 15.297 142.62C15.1065 142.381 14.9055 142.145 14.7256 141.895C14.5457 141.645 14.3622 141.392 14.1823 141.138C13.4628 140.118 12.7044 139.076 11.9989 137.982C11.3145 136.876 10.6302 135.74 9.94237 134.585C9.29685 133.414 8.68308 132.21 8.05872 130.999C7.7342 130.398 7.46258 129.775 7.18744 129.152L6.3585 127.276C4.21029 122.244 2.64411 116.986 1.62115 112.122C1.39892 110.898 1.18375 109.708 0.972102 108.554C0.922717 108.265 0.866278 107.98 0.823949 107.695C0.788675 107.41 0.7534 107.125 0.718126 106.847C0.647577 106.284 0.580556 105.735 0.513535 105.193C0.450041 104.651 0.386547 104.123 0.323053 103.609C0.294834 103.352 0.25956 103.095 0.238395 102.842C0.220758 102.589 0.203121 102.339 0.189011 102.092C0.125517 101.107 0.0655506 100.174 0.012639 99.3052C-0.0296902 98.0383 0.044386 96.7748 0.0867152 95.5079C0.153736 94.6105 0.185483 93.6568 0.294834 92.6609C0.414767 91.6649 0.541754 90.6232 0.672269 89.5393C0.746346 88.9973 0.792202 88.4448 0.894498 87.8888C0.993266 87.3327 1.09556 86.7662 1.19786 86.1925C1.30368 85.6189 1.4095 85.0382 1.51533 84.447C1.56824 84.1514 1.62468 83.8558 1.68112 83.5601C1.74108 83.2645 1.81869 82.9654 1.88923 82.6662C2.17848 81.4767 2.47479 80.2556 2.77462 79.0168C3.12031 77.7886 3.51186 76.5533 3.89282 75.3075C3.98806 74.9978 4.08683 74.6846 4.18207 74.3714C4.28789 74.0617 4.40782 73.752 4.5207 73.4424C4.74999 72.8265 4.97927 72.2036 5.20855 71.5842C5.44489 70.9648 5.66359 70.3419 5.91757 69.726C6.18565 69.1172 6.45374 68.5084 6.72182 67.8996L7.53313 66.0801C7.66365 65.7775 7.8118 65.4783 7.96701 65.1862L8.42205 64.3029C8.7254 63.7187 9.03229 63.1345 9.33565 62.5539L9.79422 61.6881C9.95295 61.4031 10.1258 61.125 10.2881 60.847C10.9583 59.7314 11.6179 58.6334 12.2916 57.5706C13.0077 56.5289 13.7238 55.5119 14.4293 54.53C14.7714 54.0338 15.1559 53.5657 15.5298 53.1047C15.9037 52.6472 16.2741 52.1968 16.641 51.7498C17.0114 51.3064 17.3712 50.8735 17.738 50.4547C18.1225 50.05 18.5035 49.6524 18.8774 49.2582C19.6358 48.4875 20.3483 47.7414 21.0891 47.0728C21.8298 46.4111 22.5565 45.7988 23.262 45.2428Z"></path>
</g>
<g clip-path="url(#clip1_87_1918)">
<path fill="#313131" d="M82.5 102.688C80.9548 102.688 79.4444 103.146 78.1596 104.004C76.8749 104.863 75.8735 106.083 75.2822 107.51C74.6909 108.938 74.5362 110.509 74.8376 112.024C75.1391 113.54 75.8831 114.932 76.9757 116.024C78.0683 117.117 79.4604 117.861 80.9759 118.162C82.4913 118.464 84.0622 118.309 85.4897 117.718C86.9173 117.126 88.1374 116.125 88.9959 114.84C89.8543 113.556 90.3125 112.045 90.3125 110.5C90.31 108.429 89.4861 106.443 88.0215 104.978C86.5569 103.514 84.5712 102.69 82.5 102.688ZM82.5 115.188C81.5729 115.188 80.6666 114.913 79.8958 114.398C79.1249 113.882 78.5241 113.15 78.1693 112.294C77.8145 111.437 77.7217 110.495 77.9026 109.586C78.0834 108.676 78.5299 107.841 79.1854 107.185C79.841 106.53 80.6762 106.083 81.5855 105.903C82.4948 105.722 83.4373 105.815 84.2938 106.169C85.1504 106.524 85.8825 107.125 86.3975 107.896C86.9126 108.667 87.1875 109.573 87.1875 110.5C87.1875 111.743 86.6936 112.935 85.8146 113.815C84.9355 114.694 83.7432 115.188 82.5 115.188Z"></path>
<path fill="#313131" d="M96.5625 83.9375C96.5625 82.3923 96.1043 80.8819 95.2459 79.5971C94.3874 78.3124 93.1673 77.311 91.7397 76.7197C90.3122 76.1284 88.7413 75.9737 87.2259 76.2751C85.7104 76.5766 84.3183 77.3206 83.2257 78.4132C82.1331 79.5058 81.3891 80.8979 81.0876 82.4134C80.7862 83.9288 80.9409 85.4997 81.5322 86.9272C82.1235 88.3548 83.1249 89.5749 84.4096 90.4334C85.6944 91.2918 87.2048 91.75 88.75 91.75C90.8212 91.7475 92.8069 90.9236 94.2715 89.459C95.7361 87.9944 96.56 86.0087 96.5625 83.9375ZM88.75 88.625C87.8229 88.625 86.9166 88.3501 86.1458 87.835C85.3749 87.32 84.7741 86.5879 84.4193 85.7313C84.0645 84.8748 83.9717 83.9323 84.1526 83.023C84.3334 82.1137 84.7799 81.2785 85.4354 80.6229C86.091 79.9674 86.9262 79.5209 87.8355 79.3401C88.7448 79.1592 89.6873 79.252 90.5438 79.6068C91.4004 79.9616 92.1325 80.5624 92.6475 81.3333C93.1626 82.1041 93.4375 83.0104 93.4375 83.9375C93.4375 85.1807 92.9436 86.373 92.0646 87.2521C91.1855 88.1311 89.9932 88.625 88.75 88.625Z"></path>
<path fill="#313131" d="M144.531 132.822L118.438 107.236C115.122 104.052 113.112 99.748 112.798 95.1625C115.192 92.968 118.321 91.7506 121.569 91.7506C124.816 91.7506 127.945 92.968 130.339 95.1625C130.017 99.6964 128.045 103.955 124.797 107.134C124.521 107.436 124.374 107.835 124.388 108.244C124.402 108.653 124.577 109.04 124.874 109.322C125.171 109.604 125.566 109.758 125.975 109.751C126.385 109.745 126.775 109.578 127.063 109.286C129.971 106.324 132.025 102.631 133.008 98.5984C134.434 100.836 135.067 103.487 134.804 106.127C134.542 108.768 133.401 111.243 131.563 113.156L131.067 113.802C130.942 113.964 130.85 114.15 130.797 114.348C130.744 114.546 130.73 114.753 130.757 114.957C130.783 115.16 130.85 115.356 130.952 115.534C131.055 115.712 131.191 115.868 131.354 115.993C131.517 116.118 131.702 116.21 131.901 116.263C132.099 116.316 132.306 116.33 132.509 116.303C132.712 116.277 132.909 116.21 133.087 116.108C133.264 116.005 133.42 115.869 133.545 115.706L133.978 115.137C141.634 106.397 136.68 97.0719 132.994 93.3625C131.493 91.8614 129.712 90.6707 127.751 89.8583C125.79 89.0459 123.688 88.6278 121.566 88.6278C119.443 88.6278 117.341 89.0459 115.381 89.8583C113.42 90.6707 111.638 91.8614 110.138 93.3625C106.452 97.0719 101.503 106.397 109.1 115.072L134.402 147.4C134.547 147.586 134.733 147.736 134.944 147.84C135.156 147.944 135.389 147.999 135.625 148H135.708C135.96 147.988 136.205 147.915 136.423 147.787C136.641 147.66 136.824 147.481 136.958 147.267L144.77 134.767C144.958 134.464 145.037 134.106 144.994 133.752C144.95 133.399 144.787 133.07 144.531 132.822ZM135.481 143.719L111.5 113.08C109.677 111.17 108.55 108.703 108.3 106.075C108.05 103.446 108.692 100.811 110.123 98.5922C111.126 102.693 113.23 106.443 116.209 109.434L141.447 134.173L135.481 143.719Z"></path>
<path fill="#313131" d="M116.406 132.869L107.656 143.744L101.698 134.213L111.309 125.433C111.461 125.294 111.584 125.128 111.671 124.942C111.758 124.756 111.807 124.555 111.817 124.35C111.826 124.145 111.795 123.94 111.725 123.747C111.655 123.554 111.548 123.377 111.409 123.225C111.271 123.074 111.104 122.951 110.918 122.864C110.732 122.777 110.531 122.727 110.326 122.718C110.121 122.709 109.916 122.74 109.723 122.81C109.53 122.879 109.353 122.987 109.201 123.125L98.628 132.783C98.3585 133.029 98.1838 133.363 98.1345 133.725C98.0851 134.087 98.1641 134.454 98.3577 134.764L106.17 147.264C106.302 147.477 106.483 147.655 106.698 147.783C106.914 147.911 107.156 147.985 107.406 148H107.5C107.733 148 107.964 147.948 108.175 147.847C108.385 147.746 108.571 147.599 108.717 147.417L118.837 134.828C119.078 134.504 119.184 134.099 119.133 133.699C119.082 133.299 118.877 132.934 118.563 132.68C118.249 132.427 117.849 132.305 117.447 132.34C117.045 132.375 116.672 132.565 116.406 132.869Z"></path>
<path fill="#313131" d="M125.592 101.022C125.792 100.659 125.839 100.231 125.724 99.8334C125.608 99.4355 125.34 99.0998 124.977 98.9C123.932 98.3182 122.756 98.0128 121.561 98.0128C120.365 98.0128 119.19 98.3182 118.145 98.9C117.96 98.9963 117.797 99.1286 117.664 99.2891C117.531 99.4496 117.431 99.6351 117.371 99.8346C117.311 100.034 117.291 100.244 117.313 100.451C117.336 100.658 117.399 100.859 117.5 101.041C117.6 101.224 117.737 101.384 117.9 101.513C118.064 101.642 118.252 101.737 118.453 101.792C118.654 101.848 118.864 101.862 119.071 101.835C119.277 101.808 119.476 101.74 119.656 101.634C120.238 101.304 120.895 101.13 121.564 101.13C122.233 101.13 122.89 101.304 123.472 101.634C123.834 101.834 124.261 101.881 124.659 101.766C125.056 101.652 125.392 101.384 125.592 101.022Z"></path>
<path fill="#313131" d="M107.528 59.4469C109.579 60.0827 111.362 61.3783 112.6 63.1322C113.839 64.8862 114.462 67.0001 114.375 69.1453C114.368 69.3992 114.423 69.6509 114.535 69.8788C114.647 70.1066 114.813 70.3037 115.019 70.453C115.224 70.6023 115.463 70.6992 115.714 70.7355C115.965 70.7717 116.222 70.7461 116.461 70.6609C118.361 69.9861 120.422 69.9067 122.368 70.4331C124.314 70.9596 126.054 72.067 127.354 73.6076C128.655 75.1481 129.455 77.0487 129.648 79.0557C129.84 81.0626 129.417 83.0807 128.433 84.8406C128.376 84.9566 128.335 85.0795 128.309 85.2062C127.994 85.379 127.75 85.6565 127.618 85.9906C127.486 86.3247 127.474 86.6945 127.586 87.0359C127.69 87.3461 127.89 87.6156 128.155 87.8065C128.421 87.9974 128.74 88.1001 129.067 88.1C129.237 88.0996 129.405 88.0722 129.566 88.0187L139.933 84.5297L140.93 87.4906C140.989 87.6922 141.089 87.8797 141.223 88.0419C141.356 88.2041 141.521 88.3376 141.708 88.4345C141.894 88.5315 142.098 88.5898 142.308 88.606C142.517 88.6222 142.728 88.596 142.927 88.5289C143.126 88.4618 143.31 88.3553 143.467 88.2156C143.624 88.0759 143.751 87.9059 143.841 87.7159C143.931 87.5259 143.981 87.3198 143.99 87.1098C143.998 86.8998 143.964 86.6902 143.889 86.4937L142.391 82.0625L140.897 77.6234C140.837 77.4227 140.737 77.2362 140.603 77.075C140.469 76.9138 140.304 76.7812 140.118 76.685C139.931 76.5888 139.728 76.5311 139.519 76.5153C139.31 76.4994 139.1 76.5258 138.901 76.5928C138.703 76.6598 138.52 76.7661 138.363 76.9053C138.206 77.0445 138.079 77.2138 137.989 77.4031C137.899 77.5924 137.848 77.7978 137.84 78.0072C137.831 78.2166 137.864 78.4256 137.938 78.6219L138.933 81.5828L132.238 83.8359C132.888 81.7614 133.002 79.5561 132.571 77.4253C132.14 75.2945 131.177 73.3072 129.772 71.6484C128.576 70.1724 127.063 68.9846 125.345 68.1731C123.627 67.3616 121.748 66.9473 119.849 66.9609L124.083 61.2172L126.599 63.0734C126.865 63.2747 127.19 63.3844 127.524 63.3859C127.851 63.3843 128.169 63.28 128.434 63.0876C128.699 62.8952 128.897 62.6246 128.999 62.3139C129.102 62.0031 129.105 61.668 129.007 61.3557C128.909 61.0434 128.715 60.7698 128.453 60.5734L124.677 57.7578L120.905 54.9766C120.74 54.8491 120.552 54.7558 120.35 54.7022C120.149 54.6486 119.939 54.6358 119.733 54.6645C119.527 54.6932 119.328 54.7628 119.149 54.8693C118.97 54.9757 118.815 55.1169 118.691 55.2845C118.567 55.4521 118.478 55.6427 118.43 55.8451C118.381 56.0475 118.373 56.2576 118.406 56.4632C118.44 56.6687 118.514 56.8655 118.624 57.0419C118.735 57.2184 118.88 57.3709 119.05 57.4906L121.563 59.3453L117.066 65.4391C116.498 63.3803 115.435 61.4918 113.969 59.9385C112.504 58.3851 110.68 57.2141 108.658 56.5277C106.636 55.8413 104.476 55.6603 102.368 56.0005C100.259 56.3408 98.2663 57.1919 96.5626 58.4797V51.125H99.6876C100.102 51.125 100.499 50.9604 100.792 50.6674C101.085 50.3743 101.25 49.9769 101.25 49.5625C101.25 49.1481 101.085 48.7507 100.792 48.4576C100.499 48.1646 100.102 48 99.6876 48H90.3126C89.8982 48 89.5008 48.1646 89.2078 48.4576C88.9147 48.7507 88.7501 49.1481 88.7501 49.5625C88.7501 49.9769 88.9147 50.3743 89.2078 50.6674C89.5008 50.9604 89.8982 51.125 90.3126 51.125H93.4376V58.4797C91.7336 57.192 89.7403 56.341 87.6317 56.001C85.5231 55.6611 83.3633 55.8425 81.3409 56.5294C79.3185 57.2163 77.4951 58.3878 76.0297 59.9417C74.5644 61.4956 73.5017 63.3846 72.9345 65.4437L68.4376 59.3453L70.9517 57.4906C71.1221 57.3709 71.2668 57.2184 71.3774 57.0419C71.488 56.8655 71.5622 56.6687 71.5957 56.4632C71.6291 56.2576 71.6212 56.0475 71.5723 55.8451C71.5234 55.6427 71.4345 55.4521 71.3109 55.2845C71.1872 55.1169 71.0314 54.9757 70.8524 54.8693C70.6734 54.7628 70.475 54.6932 70.2687 54.6645C70.0625 54.6358 69.8526 54.6486 69.6514 54.7022C69.4501 54.7558 69.2617 54.8491 69.097 54.9766L65.3251 57.7578L61.5517 60.5406C61.2181 60.7866 60.9959 61.155 60.9339 61.5648C60.8719 61.9746 60.9753 62.3922 61.2212 62.7258C61.4672 63.0594 61.8355 63.2816 62.2453 63.3436C62.6551 63.4056 63.0728 63.3022 63.4064 63.0562L65.922 61.2L70.1626 66.95C68.129 66.963 66.1266 67.4506 64.3146 68.3739C62.5027 69.2972 60.9313 70.6308 59.7257 72.2685C58.52 73.9061 57.7133 75.8027 57.3698 77.8071C57.0262 79.8115 57.1554 81.8684 57.747 83.8141L51.072 81.5672L52.0673 78.6062C52.1409 78.41 52.1742 78.201 52.1654 77.9916C52.1565 77.7822 52.1056 77.5768 52.0157 77.3874C51.9258 77.1981 51.7987 77.0288 51.6421 76.8896C51.4854 76.7504 51.3023 76.6442 51.1038 76.5772C50.9052 76.5102 50.6952 76.4838 50.4862 76.4997C50.2772 76.5155 50.0736 76.5732 49.8873 76.6694C49.7011 76.7655 49.5362 76.8982 49.4023 77.0594C49.2684 77.2206 49.1683 77.4071 49.1079 77.6078L47.6142 82.0469L46.1173 86.4937C46.0427 86.6902 46.0086 86.8998 46.0168 87.1098C46.0251 87.3198 46.0757 87.5259 46.1655 87.7159C46.2553 87.9059 46.3825 88.0759 46.5396 88.2156C46.6966 88.3553 46.8802 88.4618 47.0793 88.5289C47.2785 88.596 47.4892 88.6222 47.6987 88.606C47.9082 88.5898 48.1123 88.5315 48.2988 88.4345C48.4853 88.3376 48.6503 88.2041 48.7839 88.0419C48.9176 87.8797 49.0172 87.6922 49.0767 87.4906L50.0735 84.5297L57.3767 86.9875C55.5248 88.1677 54.0003 89.7958 52.9442 91.7212C51.8881 93.6466 51.3345 95.8071 51.3345 98.0031C51.3345 100.199 51.8881 102.36 52.9442 104.285C54.0003 106.21 55.5248 107.839 57.3767 109.019L50.0735 111.47L49.0767 108.502C49.0172 108.3 48.9176 108.113 48.7839 107.95C48.6503 107.788 48.4853 107.655 48.2988 107.558C48.1123 107.461 47.9082 107.402 47.6987 107.386C47.4892 107.37 47.2785 107.396 47.0793 107.463C46.8802 107.53 46.6966 107.637 46.5396 107.777C46.3825 107.916 46.2553 108.086 46.1655 108.276C46.0757 108.466 46.0251 108.672 46.0168 108.882C46.0086 109.092 46.0427 109.302 46.1173 109.498L47.6095 113.938L49.1032 118.375C49.1636 118.576 49.2637 118.762 49.3976 118.923C49.5315 119.085 49.6964 119.217 49.8827 119.313C50.0689 119.41 50.2725 119.467 50.4815 119.483C50.6905 119.499 50.9005 119.473 51.0991 119.406C51.2976 119.339 51.4807 119.232 51.6374 119.093C51.7941 118.954 51.9211 118.785 52.011 118.595C52.1009 118.406 52.1518 118.201 52.1607 117.991C52.1695 117.782 52.1362 117.573 52.0626 117.377L51.0673 114.416L57.7423 112.169C57.1472 114.116 57.0156 116.175 57.3579 118.182C57.7002 120.189 58.507 122.088 59.7138 123.728C60.9206 125.368 62.494 126.703 64.3085 127.626C66.123 128.55 68.1282 129.036 70.1642 129.047L65.922 134.8L63.4064 132.944C63.0728 132.698 62.6551 132.594 62.2453 132.656C61.8355 132.718 61.4672 132.941 61.2212 133.274C60.9753 133.608 60.8719 134.025 60.9339 134.435C60.9959 134.845 61.2181 135.213 61.5517 135.459L65.3235 138.242L69.0954 141.023C69.4294 141.258 69.8419 141.353 70.2447 141.287C70.6475 141.222 71.0087 141.001 71.251 140.672C71.4933 140.344 71.5974 139.934 71.5412 139.53C71.485 139.125 71.2728 138.759 70.9501 138.509L68.4376 136.655L72.936 130.561C73.4212 132.422 74.3232 134.149 75.5737 135.611C76.8243 137.073 78.3908 138.231 80.1548 138.998C81.8696 139.767 83.7272 140.165 85.6064 140.167C88.8757 140.18 92.0242 138.932 94.397 136.683C94.6989 136.397 94.8751 136.004 94.8868 135.589C94.8985 135.174 94.7448 134.771 94.4595 134.469C94.1742 134.167 93.7806 133.991 93.3654 133.979C92.9502 133.967 92.5473 134.121 92.2454 134.406C90.8163 135.734 89.0243 136.607 87.0977 136.913C85.1711 137.219 83.197 136.945 81.4267 136.125C79.6278 135.358 78.1072 134.059 77.0699 132.401C76.0325 130.743 75.5283 128.808 75.6251 126.855C75.6322 126.601 75.5773 126.349 75.4652 126.121C75.3531 125.893 75.1871 125.696 74.9817 125.547C74.7762 125.398 74.5375 125.301 74.2862 125.265C74.0348 125.228 73.7784 125.254 73.5392 125.339C71.5974 126.029 69.4888 126.097 67.5066 125.533C65.5245 124.969 63.7673 123.802 62.4795 122.193C61.1917 120.584 60.4373 118.614 60.3211 116.556C60.2049 114.499 60.7328 112.456 61.8314 110.713C62.1146 110.508 62.3192 110.212 62.411 109.875C62.5501 109.673 62.6391 109.44 62.6708 109.196C62.7025 108.953 62.6759 108.705 62.5932 108.474C62.5105 108.243 62.3741 108.035 62.1952 107.866C62.0163 107.698 61.8001 107.575 61.5642 107.506C59.5121 106.901 57.7109 105.648 56.4298 103.935C55.1487 102.221 54.4564 100.139 54.4564 98C54.4564 95.8606 55.1487 93.7786 56.4298 92.0652C57.7109 90.3517 59.5121 89.0989 61.5642 88.4938C61.8001 88.4254 62.0163 88.302 62.1952 88.1337C62.3741 87.9655 62.5105 87.7571 62.5932 87.5259C62.6759 87.2946 62.7025 87.047 62.6708 86.8035C62.6391 86.56 62.5501 86.3274 62.411 86.125C62.3192 85.7878 62.1146 85.4922 61.8314 85.2875C60.7299 83.5434 60.1999 81.4992 60.3152 79.4397C60.4305 77.3801 61.1853 75.4078 62.4745 73.7976C63.7637 72.1873 65.5231 71.0193 67.5075 70.4562C69.492 69.8931 71.6026 69.963 73.5454 70.6562C73.7847 70.7414 74.0411 70.767 74.2924 70.7308C74.5438 70.6945 74.7825 70.5976 74.9879 70.4483C75.1934 70.299 75.3593 70.1019 75.4714 69.8741C75.5836 69.6462 75.6385 69.3945 75.6314 69.1406C75.5724 67.0021 76.207 64.902 77.4405 63.154C78.674 61.4061 80.44 60.1043 82.4745 59.4431C84.5091 58.782 86.7031 58.797 88.7284 59.486C90.7537 60.175 92.5017 61.5009 93.711 63.2656C93.8626 63.4636 94.0577 63.624 94.2813 63.7344C94.5048 63.8448 94.7508 63.9022 95.0001 63.9022C95.2494 63.9022 95.4954 63.8448 95.719 63.7344C95.9425 63.624 96.1376 63.4636 96.2892 63.2656C97.4805 61.4803 99.228 60.1382 101.26 59.4477C103.292 58.7572 105.496 58.7569 107.528 59.4469Z"></path>
</g>
<defs>
<clipPath id="clip0_87_1918">
<rect fill="white" height="196" width="189"></rect>
</clipPath>
<clipPath id="clip1_87_1918">
<rect transform="translate(45 48)" fill="white" height="100" width="100"></rect>
</clipPath>
</defs>
</svg>
