<svg xmlns="http://www.w3.org/2000/svg" fill="none" viewBox="0 0 24 24" height="24" width="24">
<path fill="black" d="M6.55937 7.58896C5.67812 7.58896 4.96094 6.87178 4.96094 5.99053C4.95625 5.67178 4.48281 5.67178 4.47812 5.99053C4.47812 6.87178 3.76094 7.58896 2.87969 7.58896C2.56094 7.59365 2.56094 8.06709 2.87969 8.07178C3.76094 8.07178 4.47344 8.78896 4.47344 9.67021C4.47812 9.98896 4.95156 9.98896 4.95625 9.67021C4.95625 8.78896 5.67344 8.07646 6.55469 8.07646C6.87812 8.07178 6.88281 7.59834 6.55937 7.58896ZM4.72187 8.69521C4.52969 8.32959 4.225 8.02959 3.85938 7.83271C4.225 7.64053 4.52969 7.33584 4.72187 6.97021C4.91406 7.33584 5.21875 7.64053 5.58437 7.83271C5.21875 8.02959 4.91875 8.32959 4.72187 8.69521Z"></path>
<path fill="#FED2A4" d="M4.72187 8.69521C5.19822 8.69521 5.58437 8.30906 5.58437 7.83272C5.58437 7.35637 5.19822 6.97021 4.72187 6.97021C4.24553 6.97021 3.85938 7.35637 3.85938 7.83272C3.85938 8.30906 4.24553 8.69521 4.72187 8.69521Z"></path>
<path fill="black" d="M19.4883 5.49366C18.9024 5.48897 18.4289 5.01553 18.4289 4.42959C18.4289 4.11084 17.9461 4.11084 17.9461 4.42491C17.9555 4.99678 17.4539 5.49366 16.882 5.48428C16.5633 5.48897 16.5586 5.96241 16.8774 5.96709C17.4492 5.95772 17.9508 6.45928 17.9367 7.03116C17.9414 7.34991 18.4149 7.34991 18.4195 7.03116C18.4195 6.44522 18.8977 5.97178 19.4836 5.97178C19.807 5.97178 19.807 5.49834 19.4883 5.49366ZM18.3961 5.93897C18.3164 6.02334 18.2461 6.10772 18.1852 6.20147C18.0633 6.01397 17.9039 5.84991 17.7164 5.72803C17.9039 5.60616 18.068 5.44678 18.1899 5.25928C18.3117 5.44678 18.4711 5.61084 18.6586 5.73272C18.5649 5.78897 18.4758 5.85928 18.3961 5.93897Z"></path>
<path fill="#FED2A4" d="M18.657 5.73272C18.4695 5.8499 18.3055 6.01865 18.1836 6.20147C18.0617 6.01397 17.9023 5.8499 17.7148 5.72803C17.9023 5.60615 18.0664 5.44678 18.1883 5.25928C18.3055 5.44678 18.4648 5.61084 18.657 5.73272Z"></path>
<path fill="black" d="M22.7305 19.4484C21.9852 19.4484 21.3805 18.8438 21.3805 18.0984C21.3758 17.7797 20.9023 17.7797 20.8977 18.0984C20.8977 18.8438 20.293 19.4484 19.5477 19.4484C19.2289 19.4484 19.2289 19.9313 19.5477 19.9313C20.293 19.9313 20.8977 20.5359 20.8977 21.2812C20.9023 21.6 21.3805 21.6 21.3805 21.2812C21.3805 20.5359 21.9852 19.9313 22.7305 19.9313C23.0492 19.9313 23.0492 19.4531 22.7305 19.4484ZM21.1367 20.3719C20.9727 20.0906 20.7383 19.8562 20.457 19.6922C20.743 19.5281 20.9773 19.2938 21.1367 19.0125C21.3008 19.2938 21.5352 19.5328 21.8164 19.6922C21.5352 19.8562 21.3008 20.0906 21.1367 20.3719Z"></path>
<path fill="#FED2A4" d="M21.8164 19.6919C21.5305 19.856 21.2961 20.0903 21.1367 20.3716C20.9727 20.0903 20.7383 19.856 20.457 19.6919C20.743 19.5278 20.9773 19.2935 21.1367 19.0122C21.3008 19.2935 21.5352 19.5278 21.8164 19.6919Z"></path>
<path fill="black" d="M3.80312 3.33721C3.42812 3.33721 3.12812 3.03252 3.12812 2.66221C3.12812 2.53096 3.02031 2.41846 2.88437 2.41846C2.75312 2.41846 2.64062 2.52627 2.64062 2.66221C2.64062 3.03721 2.33594 3.33721 1.96563 3.33721C1.64688 3.34189 1.64688 3.82002 1.96563 3.82002C2.34062 3.82002 2.64062 4.12471 2.64062 4.49502C2.64062 4.81377 3.12344 4.81377 3.12344 4.49502C3.12344 4.12002 3.42812 3.82002 3.79844 3.82002C4.12187 3.82002 4.12187 3.34189 3.80312 3.33721ZM2.88437 3.79189C2.82344 3.71221 2.75312 3.64189 2.67344 3.58096C2.75312 3.52002 2.82344 3.44971 2.88437 3.37002C2.94531 3.44971 3.01562 3.52002 3.09531 3.58096C3.01562 3.64189 2.94531 3.71221 2.88437 3.79189Z"></path>
<path fill="#FED2A4" d="M3.09375 3.58105C3.01406 3.64199 2.94375 3.7123 2.88281 3.79199C2.82188 3.7123 2.75156 3.64199 2.67188 3.58105C2.75156 3.52012 2.82188 3.4498 2.88281 3.37012C2.94375 3.4498 3.01406 3.52012 3.09375 3.58105Z"></path>
<path fill="black" d="M22.0389 2.10459C21.6639 2.0999 21.3639 1.7999 21.3639 1.4249C21.3639 1.29365 21.2561 1.18115 21.1201 1.18115C20.9889 1.18115 20.8764 1.28896 20.8764 1.4249C20.8811 1.79053 20.5623 2.10928 20.1967 2.0999C19.8732 2.09521 19.8826 2.58271 20.192 2.58271C20.567 2.58271 20.867 2.8874 20.867 3.25771C20.867 3.39365 20.9748 3.50146 21.1107 3.50146C21.242 3.50146 21.3545 3.39365 21.3545 3.25771C21.3545 3.0749 21.4248 2.90615 21.5514 2.77959C21.6826 2.64834 21.8467 2.58271 22.0295 2.58271C22.3529 2.58271 22.3576 2.10928 22.0389 2.10459ZM21.2186 2.44209C21.1811 2.47959 21.1529 2.51709 21.1201 2.55459C21.0592 2.4749 20.9936 2.40459 20.9139 2.34365C20.9889 2.28271 21.0639 2.2124 21.1248 2.13271C21.1857 2.2124 21.2561 2.28271 21.3357 2.34365C21.2889 2.37178 21.2514 2.40459 21.2186 2.44209Z"></path>
<path fill="#FED2A4" d="M21.3234 2.34375C21.2437 2.40469 21.1734 2.475 21.1125 2.55469C21.0516 2.475 20.9859 2.40469 20.9062 2.34375C20.9813 2.28281 21.0563 2.2125 21.1172 2.13281C21.1781 2.2125 21.2484 2.28281 21.3234 2.34375Z"></path>
<path fill="black" d="M23.9222 12.9794C23.8144 12.5856 23.4956 12.3184 23.1206 12.2528L19.0238 11.6012C18.5972 11.1981 16.3847 9.10749 15.9113 8.65749C15.1894 7.83718 14.2097 7.63093 13.4363 7.58874L13.4222 7.37312C13.9941 6.91843 14.3363 6.2153 14.3644 5.44186C15.241 4.2653 14.8941 2.56374 13.6191 1.81843C12.6535 1.19499 11.0503 1.14343 10.4785 2.30593C9.11908 2.64343 8.67846 4.32624 9.75189 5.45124C9.78002 6.17312 10.0894 6.8528 10.6144 7.30749L10.5956 7.58874C9.79877 7.62155 8.80033 7.84655 8.07377 8.68093C7.61908 9.10749 5.38783 11.2216 4.98471 11.6012L0.887832 12.2528C0.705019 12.2809 0.522207 12.3653 0.395644 12.4872C-0.312168 13.045 0.151894 14.2497 1.04252 14.2262C1.14564 14.2309 6.10971 13.8512 6.20814 13.8512C6.25502 13.8512 6.35814 13.8372 6.40971 13.7997C6.75189 13.5653 7.44564 13.0919 7.78314 12.8575V16.7059L7.20189 16.4528C4.75502 15.4028 3.28783 18.9841 5.76752 19.945L8.08783 20.7325C7.65189 21.6841 8.46752 22.8606 9.48939 22.8231C9.83627 22.8653 11.6363 22.1528 11.9925 22.0591C12.3628 22.1575 14.1441 22.8653 14.5003 22.8231C15.5222 22.8653 16.3378 21.6887 15.9019 20.7325L18.2222 19.945C20.6597 19.0122 19.2816 15.4778 16.8581 16.42L16.2675 16.6778V12.8903C16.5816 13.1059 17.2847 13.5794 17.6035 13.7997C17.6644 13.8419 17.7488 13.8466 17.8191 13.8512L22.905 14.2216C23.5566 14.2778 24.0956 13.6169 23.9222 12.9794ZM9.65346 3.7778C9.71439 3.3278 10.0566 2.9528 10.4925 2.82155C10.7503 2.77937 10.8769 2.63405 10.9894 2.40905C11.28 1.94499 11.9175 1.81374 12.4566 1.89812C13.905 2.08093 14.9363 3.75436 14.041 5.02468C13.68 4.82312 13.3753 4.52312 13.1644 4.17155C13.1081 4.0778 13.0519 3.96999 12.9488 3.9278C12.8597 3.8903 12.7566 3.91843 12.6628 3.93718C12.255 4.02624 11.8238 4.02155 11.416 3.92312C11.3128 3.89968 11.2003 3.86687 11.1066 3.90905C11.0175 3.95124 10.9613 4.0403 10.9144 4.12468C10.6894 4.48562 10.3894 4.79499 10.0285 5.03405C9.83158 5.1278 9.63471 3.89499 9.65346 3.7778ZM10.4597 6.34655C10.3285 6.08405 10.2488 5.78874 10.23 5.48405C10.666 5.19812 11.0316 4.84187 11.3175 4.40593C11.791 4.51374 12.2644 4.49968 12.7378 4.42468C13.0144 4.87937 13.4175 5.23562 13.8769 5.49812C13.7597 7.43874 11.3925 8.14655 10.4597 6.34655ZM12.991 8.51218C12.555 9.09812 11.5191 9.1028 11.041 8.55905C11.0128 8.27312 11.0456 7.95905 11.0785 7.66843C11.3785 7.68718 11.6831 7.86062 12.0113 7.8653C12.1144 7.86999 12.9488 7.80905 12.9488 7.67311C12.9488 7.73874 13.0097 8.46999 12.991 8.51218ZM6.16596 13.3262C4.55346 13.5559 2.90814 13.5747 1.28158 13.7247C1.11752 13.7387 0.944082 13.7481 0.798769 13.6778C0.573769 13.57 0.480019 13.2794 0.573769 13.0497C0.681582 12.7778 1.01439 12.7169 1.28158 12.6747C2.27533 12.5247 3.26908 12.3794 4.26283 12.2294C4.82533 12.145 5.45814 12.0184 5.75346 11.5356C6.17533 11.9481 6.49408 12.4591 6.69096 13.0169C6.55502 13.1762 6.37221 13.27 6.16596 13.3262ZM8.34564 20.2966C8.34564 20.3012 8.34096 20.3012 8.34096 20.3012L5.92221 19.4809C4.43158 18.9653 4.79721 16.7575 6.37689 16.7434C6.77533 16.7059 7.54877 17.1559 7.91439 17.2872C7.92846 17.3012 11.3644 18.8012 11.3785 18.8059L8.87064 19.9028C8.66908 19.9966 8.49096 20.1325 8.34564 20.2966ZM15.4519 21.67C15.2503 22.1903 14.6831 22.4575 14.1581 22.2747L12.7425 21.7966L15.4378 20.8825C15.5456 21.1262 15.555 21.4169 15.4519 21.67ZM16.9706 16.8887C17.8706 16.4106 19.0378 17.1325 19.0097 18.1497C19.0097 18.7497 18.6253 19.2841 18.0581 19.4809L9.81752 22.2747C9.29252 22.4528 8.72533 22.1856 8.52377 21.6653C8.32221 21.1684 8.58002 20.5591 9.07221 20.3481L12.0394 19.0497C12.7285 18.7919 16.3753 17.1512 16.9706 16.8887ZM16.8206 12.6887C16.4972 12.52 15.7753 11.7419 15.7706 12.5622V16.8887C14.5144 17.4091 13.291 18.0372 12.016 18.5012C11.8941 18.5106 11.7722 18.4591 11.655 18.4075C10.5206 17.9106 9.39096 17.4137 8.25658 16.9169V12.5059C8.24721 11.6762 7.41283 12.5809 7.09877 12.7356C6.90189 12.2247 6.58783 11.7653 6.24096 11.3528C6.09096 11.1325 6.17533 11.1512 6.38158 10.9778C7.60502 9.95593 8.57533 8.28249 10.2863 8.09968C10.7503 9.90437 13.2347 9.90437 13.6988 8.09968C15.5222 8.29655 16.4738 10.1528 17.8331 11.1466C17.4066 11.5872 17.0597 12.1122 16.8206 12.6887ZM23.4581 13.2887C23.4206 13.6966 22.9753 13.7622 22.6378 13.72C21.2972 13.6216 19.9566 13.5278 18.616 13.4341C18.3066 13.4106 17.3503 13.3591 17.2519 12.9512C17.2097 12.7731 17.5285 12.3466 17.6222 12.2012C17.7863 11.9434 17.9831 11.7044 18.1988 11.4887C18.4706 11.8356 18.8222 12.1169 19.2722 12.145C20.4488 12.3278 21.6253 12.5153 22.8019 12.6981C23.1394 12.7169 23.5191 12.9044 23.4581 13.2887Z"></path>
<path fill="#9473C5" d="M15.5219 21.2997C15.5313 21.9935 14.8094 22.5138 14.1578 22.2794L12.7422 21.8013L15.4375 20.8872C15.4938 21.0091 15.5219 21.1544 15.5219 21.2997Z"></path>
<path fill="#9473C5" d="M11.3772 18.8106L8.86938 19.9075C8.66782 20.0012 8.4897 20.1325 8.34438 20.2965C8.34438 20.3012 8.33969 20.3012 8.33969 20.3012L5.92095 19.4809C4.43032 18.9653 4.79595 16.7575 6.37563 16.7434C6.77407 16.7059 7.54751 17.1559 7.91313 17.2872C7.92251 17.3012 11.3584 18.8012 11.3772 18.8106Z"></path>
<path fill="#9473C5" d="M19.008 18.1498C19.008 18.7498 18.6236 19.2842 18.0564 19.4811L9.8158 22.2748C9.2908 22.453 8.72361 22.1858 8.52205 21.6655C8.32048 21.1686 8.5783 20.5592 9.07048 20.3483L12.0377 19.0498C12.0564 19.0451 12.0799 19.0451 12.0986 19.0358L16.1158 17.278C16.1392 17.2639 16.1627 17.2498 16.1814 17.2358L16.9736 16.8889L17.0439 16.8608C17.9299 16.4389 19.0361 17.1701 19.008 18.1498Z"></path>
<path fill="#606060" d="M14.0359 5.02473C13.6749 4.82317 13.3702 4.52317 13.1593 4.1716C13.1031 4.07785 13.0468 3.97004 12.9437 3.92785C12.8546 3.89035 12.7515 3.91848 12.6577 3.93723C12.2499 4.02629 11.8187 4.0216 11.4109 3.92317C11.3077 3.89973 11.1952 3.86692 11.1015 3.9091C11.0124 3.95129 10.9562 4.04035 10.9093 4.12473C10.6843 4.48567 10.3843 4.79504 10.0234 5.0341C9.83587 5.13254 9.63899 3.89504 9.65306 3.78254C9.71399 3.33254 10.0562 2.95754 10.4921 2.82629C10.7499 2.7841 10.8812 2.63879 10.989 2.41379C11.2796 1.94973 11.9171 1.81848 12.4562 1.90285C13.8999 2.08098 14.9265 3.74973 14.0359 5.02473Z"></path>
<path fill="#EE8DC5" d="M17.841 11.1423C17.4051 11.5876 17.0582 12.1126 16.8238 12.6892C16.5004 12.5204 15.7785 11.7423 15.7738 12.5626V16.8892C14.5176 17.4095 13.2942 18.0376 12.0192 18.5017C11.8973 18.511 11.7754 18.4595 11.6582 18.4079C10.5238 17.911 9.39416 17.4142 8.25978 16.9173V12.5063C8.25041 11.6767 7.41603 12.5813 7.10197 12.736C6.9051 12.2251 6.59103 11.7657 6.24416 11.3532C6.09416 11.1329 6.17853 11.1517 6.38478 10.9782C7.60822 9.95635 8.57853 8.28291 10.2895 8.1001C10.7535 9.90479 13.2379 9.90479 13.702 8.1001C15.5254 8.29229 16.477 10.1438 17.841 11.1423Z"></path>
<path fill="#FEDDCC" d="M6.68671 13.0125C6.41952 13.3406 5.95545 13.3828 5.5617 13.4109C4.1367 13.5141 2.70702 13.6172 1.28202 13.7203C0.832017 13.8 0.410142 13.5375 0.569517 13.0453C0.67733 12.7734 1.01014 12.7125 1.27733 12.6703C2.27108 12.5203 3.26483 12.375 4.25858 12.225C4.82108 12.1406 5.45389 12.0141 5.7492 11.5312C6.17108 11.9484 6.48983 12.4547 6.68671 13.0125Z"></path>
<path fill="#FEDDCC" d="M23.4601 13.2888C23.4226 13.6966 22.9773 13.7622 22.6398 13.72C21.2991 13.6216 19.9585 13.5278 18.6179 13.4341C18.3085 13.4106 17.3523 13.3591 17.2538 12.9513C17.2116 12.7731 17.5304 12.3466 17.6241 12.2013C17.7882 11.9435 17.9851 11.7044 18.2007 11.4888C18.4726 11.8356 18.8241 12.1169 19.2741 12.145C20.4507 12.3278 21.6273 12.5153 22.8038 12.6981C23.1413 12.7169 23.521 12.9044 23.4601 13.2888Z"></path>
<path fill="#FEDDCC" d="M12.9919 8.51221C12.556 9.09814 11.52 9.10283 11.0419 8.55908C11.0138 8.27314 11.0466 7.95908 11.0794 7.66846C11.3794 7.68721 11.6841 7.86064 12.0122 7.86533C12.1153 7.87002 12.9497 7.80908 12.9497 7.67314C12.9497 7.73877 13.0107 8.47002 12.9919 8.51221Z"></path>
<path fill="#FEDDCC" d="M13.8773 5.49844C13.6477 8.02031 10.4414 7.99219 10.2305 5.48438C10.6664 5.19844 11.032 4.84219 11.318 4.40625C11.7914 4.51406 12.2648 4.5 12.7383 4.425C13.0148 4.875 13.418 5.23125 13.8773 5.49844Z"></path>
</svg>
