<svg xmlns="http://www.w3.org/2000/svg" fill="none" viewBox="0 0 24 24" height="24" width="24">
<path fill="#F7C5B8" d="M14.0703 11.8056V12.7568C14.8454 12.558 15.0763 12.0724 15.4205 11.6402C17.8258 13.0583 20.3713 12.8315 23.0409 11.1065C23.5425 10.8811 23.8133 10.5115 23.6866 9.88985C23.6465 7.25364 22.1417 5.54331 21.0624 4.03178C20.2686 2.91916 19.9604 2.90444 18.5396 2.95249C17.3816 2.99252 16.4743 3.86903 17.1414 4.88828C17.6404 5.65141 19.0132 5.38591 19.7069 4.49074C20.3086 6.13703 20.0324 7.86602 20.7088 9.10675C19.4961 8.16489 18.3941 8.0688 17.3682 8.55578C16.3556 7.79533 15.2643 7.4845 14.0703 7.75V11.8056Z" clip-rule="evenodd" fill-rule="evenodd"></path>
<path fill="#F7C5B8" d="M9.92908 11.8056V12.7568C9.15396 12.558 8.92315 12.0724 8.57894 11.6402C6.17355 13.0583 3.62805 12.8315 0.957208 11.1065C0.455599 10.8811 0.184755 10.5115 0.312818 9.88985C0.351489 7.25364 1.85772 5.54331 2.93566 4.03178C3.72944 2.91916 4.03896 2.90444 5.45847 2.95249C6.61647 2.99252 7.525 3.86903 6.85797 4.88828C6.35904 5.65141 4.98621 5.38591 4.29251 4.49074C3.69082 6.13703 3.96701 7.86602 3.2906 9.10675C4.5033 8.16489 5.60529 8.0688 6.63119 8.55578C7.64379 7.79533 8.73508 7.4845 9.92908 7.75V11.8056Z" clip-rule="evenodd" fill-rule="evenodd"></path>
<path fill="#2FBC8D" d="M11.9121 18.531C7.85238 16.6926 5.42031 13.2279 5.86455 6.88557C8.1205 6.73346 10.1537 5.82629 11.9121 3.99854C13.6718 5.82629 15.705 6.73346 17.9609 6.88557C18.4052 13.2279 15.9731 16.6926 11.9121 18.531Z" clip-rule="evenodd" fill-rule="evenodd"></path>
<path fill="#7BD6B5" d="M11.9083 17.2929C15.7813 15.3758 17.0313 12.0272 16.8926 7.85141C14.9968 7.57259 13.3385 6.76677 11.9083 5.49805C10.4795 6.76677 8.82121 7.57259 6.92413 7.85141C6.78669 12.0272 8.03675 15.3758 11.9083 17.2929Z" clip-rule="evenodd" fill-rule="evenodd"></path>
<path fill="#2FBC8D" d="M10.7877 8.28076H12.8756V10.1779H14.7727V12.2657H12.8756V14.1629H10.7877V12.2657H8.89062V10.1779H10.7877V8.28076Z" clip-rule="evenodd" fill-rule="evenodd"></path>
<path fill="#E97C7E" d="M15.1522 12.6752C15.7005 12.5392 16.2595 12.5365 16.7892 12.6512L17.172 11.6867C17.2921 11.3838 17.639 11.2344 17.9418 11.3545C18.2447 11.4759 18.3941 11.8214 18.274 12.1256L17.8911 13.0888C18.3554 13.369 18.7596 13.7532 19.0652 14.2282L20.0177 13.8173C20.3165 13.6892 20.6675 13.8279 20.7968 14.1281C20.9262 14.4269 20.7861 14.7778 20.4873 14.9072L19.5348 15.3181C19.6708 15.8651 19.6735 16.4241 19.5588 16.9537L20.5233 17.3366C20.8262 17.4566 20.9756 17.8035 20.8555 18.1064C20.7341 18.4105 20.3886 18.56 20.0844 18.4386L19.1212 18.0557C18.841 18.5199 18.4568 18.9255 17.9818 19.2297L18.3927 20.1823C18.5208 20.4825 18.3821 20.8333 18.0819 20.9614C17.7831 21.0908 17.4322 20.9521 17.3028 20.6519L16.8919 19.6993C16.3449 19.8367 15.7859 19.8381 15.2563 19.7233L14.8734 20.6879C14.7534 20.9907 14.4065 21.1401 14.1036 21.0201C13.7995 20.9 13.65 20.5531 13.7714 20.2503L14.1543 19.2857C13.6901 19.0069 13.2845 18.6213 12.9803 18.1464L12.0277 18.5573C11.7275 18.6867 11.3767 18.5466 11.2486 18.2478C11.1192 17.9476 11.258 17.5967 11.5581 17.4687L12.5094 17.0578C12.3733 16.5095 12.372 15.9504 12.4867 15.4208L11.5221 15.0379C11.2193 14.9179 11.0699 14.571 11.1899 14.2681C11.31 13.9653 11.6569 13.8159 11.9597 13.9359L12.9243 14.3188C13.2031 13.8546 13.5886 13.4503 14.0636 13.1448L13.6527 12.1922C13.5233 11.8934 13.6634 11.5425 13.9622 11.4131C14.2624 11.2837 14.6133 11.4238 14.7413 11.7226L15.1522 12.6752Z" clip-rule="evenodd" fill-rule="evenodd"></path>
<path fill="#2FBC8D" d="M5.76964 16.4272C4.91877 16.4272 4.22656 17.1195 4.22656 17.9704C4.22656 18.8206 4.91877 19.5123 5.76964 19.5123C6.61986 19.5123 7.31159 18.8206 7.31159 17.9704C7.31159 17.1195 6.61991 16.4272 5.76964 16.4272Z"></path>
<path fill="black" d="M8.035 17.6051H7.56541C7.51896 17.3555 7.42061 17.1239 7.28172 16.9221L7.61449 16.5885C7.74227 16.4605 7.74199 16.2531 7.61392 16.1253C7.48586 15.9976 7.27849 15.9978 7.15071 16.1259L6.81836 16.4591C6.61638 16.3202 6.38458 16.222 6.13474 16.1756V15.7048C6.13474 15.5239 5.98807 15.3772 5.80718 15.3772C5.62628 15.3772 5.47961 15.5239 5.47961 15.7048V16.1756C5.22982 16.2221 4.99816 16.3204 4.79632 16.4593L4.46369 16.1258C4.33591 15.9977 4.12858 15.9975 4.00047 16.1252C3.87241 16.253 3.87213 16.4604 3.99991 16.5885L4.33328 16.9226C4.19468 17.1243 4.09661 17.3556 4.05025 17.605H3.5793C3.39841 17.605 3.25174 17.7517 3.25174 17.9325C3.25174 18.1134 3.39841 18.2601 3.5793 18.2601H4.05016C4.09652 18.5098 4.19463 18.7414 4.33324 18.9433L4.00014 19.2764C3.87222 19.4043 3.87222 19.6117 4.00014 19.7396C4.06408 19.8036 4.14789 19.8356 4.23175 19.8356C4.31561 19.8356 4.39938 19.8036 4.46336 19.7396L4.79613 19.4069C4.99802 19.546 5.22977 19.6444 5.47961 19.6909V20.1618C5.47961 20.3427 5.62628 20.4893 5.80718 20.4893C5.98807 20.4893 6.13474 20.3427 6.13474 20.1618V19.691C6.38468 19.6445 6.61652 19.5462 6.81855 19.4072L7.15103 19.7396C7.21497 19.8036 7.29878 19.8356 7.38264 19.8356C7.46646 19.8356 7.55027 19.8036 7.61425 19.7396C7.74218 19.6117 7.74218 19.4043 7.61425 19.2764L7.28182 18.9439C7.4208 18.7419 7.5191 18.51 7.56555 18.2602H8.0351C8.21599 18.2602 8.36266 18.1135 8.36266 17.9326C8.36257 17.7517 8.21589 17.6051 8.035 17.6051ZM5.80718 19.0665C5.18271 19.0665 4.67467 18.5579 4.67467 17.9327C4.67467 17.3083 5.18271 16.8002 5.80718 16.8002C6.11918 16.8002 6.40216 16.9268 6.60738 17.1312C6.60794 17.1317 6.60836 17.1323 6.60892 17.1329C6.60935 17.1333 6.60986 17.1337 6.61028 17.1341C6.81457 17.339 6.94103 17.6213 6.94103 17.9327C6.94099 18.5579 6.43235 19.0665 5.80718 19.0665ZM10.9648 16.7363C10.9014 16.8295 10.7984 16.8797 10.6936 16.8797C10.6302 16.8797 10.5661 16.8614 10.5098 16.8231C7.76069 14.9548 6.4915 12.0244 6.62955 7.86459C6.6348 7.7063 6.75255 7.57444 6.90925 7.55142C8.68999 7.28948 10.2997 6.52912 11.6937 5.2913C11.8178 5.18109 12.0046 5.18109 12.1287 5.2913C13.5227 6.52912 15.1324 7.28948 16.9132 7.55142C17.0699 7.57444 17.1877 7.70639 17.1929 7.86469C17.2192 8.66503 17.1941 9.42436 17.1182 10.1216C17.0987 10.3014 16.9369 10.431 16.7572 10.4118C16.5773 10.3922 16.4474 10.2306 16.467 10.0507C16.531 9.46242 16.5572 8.826 16.545 8.15564C14.8355 7.85583 13.2791 7.12139 11.9112 5.96934C10.5433 7.12139 8.9868 7.85578 7.27732 8.15564C7.20916 11.9297 8.38853 14.5895 10.8779 16.2813C11.0276 16.383 11.0665 16.5867 10.9648 16.7363ZM17.7183 15.4913C18.0875 15.4913 18.388 15.7918 18.388 16.161C18.388 16.5303 18.0875 16.8307 17.7183 16.8307C17.3497 16.8307 17.0499 16.5303 17.0499 16.161C17.0499 15.7918 17.3497 15.4913 17.7183 15.4913ZM23.9451 9.86719C23.8986 7.46002 22.6577 5.77223 21.6597 4.41511C21.5256 4.23267 21.3989 4.06041 21.2763 3.88861C20.4026 2.66395 19.9774 2.62678 18.4907 2.67867C17.6972 2.70609 16.9967 3.08611 16.7059 3.64678C16.4706 4.10062 16.517 4.61967 16.8366 5.10792C17.0732 5.47036 17.4707 5.68092 17.9561 5.7008C18.4923 5.72302 19.0593 5.51592 19.511 5.15208C19.6594 5.72152 19.7247 6.30014 19.7884 6.864C19.8459 7.37259 19.9015 7.86478 20.0141 8.32758C19.4391 8.04314 18.8652 7.92427 18.298 7.97241C18.2915 7.6193 18.2761 7.25948 18.2505 6.89264C18.2391 6.72942 18.1091 6.59958 17.9458 6.58861C15.691 6.43664 13.7942 5.53064 12.1473 3.81858C12.0855 3.75441 12.0003 3.71812 11.9112 3.71812C11.8221 3.71812 11.7369 3.75441 11.6751 3.81858C10.0511 5.50669 8.10016 6.43866 5.87655 6.58861C5.71333 6.59962 5.58325 6.72938 5.57186 6.89255C5.54646 7.2562 5.53047 7.61283 5.52396 7.96238C5.01461 7.95075 4.50016 8.07272 3.98528 8.32762C4.09746 7.86581 4.15291 7.37475 4.21028 6.86733C4.27413 6.3023 4.33966 5.7225 4.48872 5.15189C4.94036 5.51578 5.5076 5.7225 6.04305 5.7008C6.52816 5.68092 6.92557 5.47036 7.16196 5.10825C7.48188 4.61939 7.52842 4.10016 7.29302 3.64622C7.00244 3.08587 6.30236 2.70609 5.50952 2.67867C4.0225 2.62687 3.59749 2.66405 2.72402 3.88837C2.60224 4.05877 2.47657 4.22958 2.34349 4.41042C1.34421 5.76848 0.10155 7.45734 0.0550033 9.86714C-0.0763404 10.5643 0.203738 11.0926 0.866503 11.3981C2.40986 12.3913 3.9213 12.8913 5.37419 12.8913C5.64789 12.8913 5.91958 12.8734 6.18897 12.8379C6.34989 13.3168 6.5396 13.7714 6.75822 14.2008C7.65569 15.9635 9.07516 17.3738 10.9777 18.3947C11.0789 18.5917 11.2456 18.7443 11.4541 18.827C11.6822 18.9175 11.9312 18.9137 12.1546 18.8171L12.8557 18.5156C13.1025 18.8458 13.3971 19.1316 13.7357 19.3695L13.4538 20.0787C13.2686 20.5477 13.4988 21.0819 13.9679 21.2699C14.0768 21.3131 14.1907 21.3346 14.3047 21.3346C14.4282 21.3346 14.5519 21.3093 14.669 21.2588C14.8945 21.1615 15.0683 20.9829 15.1582 20.7561L15.4401 20.0458C15.8466 20.1038 16.2624 20.0976 16.6657 20.028L16.9689 20.7284C17.065 20.9526 17.2434 21.126 17.4713 21.2169C17.6996 21.308 17.9493 21.3048 18.1745 21.2076C18.3983 21.1107 18.5715 20.9319 18.6622 20.7041C18.7531 20.4757 18.7496 20.2266 18.6528 20.0029L18.3503 19.3016C18.6786 19.0552 18.9682 18.7569 19.2041 18.422L19.9142 18.7039C20.3843 18.8902 20.9183 18.6597 21.1045 18.1899C21.2909 17.7198 21.0604 17.1858 20.591 16.9996L19.8806 16.7167C19.9388 16.3099 19.9331 15.8941 19.8638 15.491L20.5626 15.1891C20.787 15.0933 20.9606 14.9153 21.0516 14.6877C21.1429 14.4592 21.1397 14.2091 21.0423 13.9832C20.8415 13.5195 20.3012 13.3051 19.8375 13.505L19.1366 13.8073C18.8911 13.4796 18.5927 13.1901 18.2567 12.9536L18.2851 12.882C18.3981 12.8881 18.5113 12.8916 18.6251 12.8916C20.0773 12.8916 21.5912 12.3905 23.1335 11.398C23.7963 11.0927 24.0763 10.5643 23.9451 9.86719ZM1.20166 10.8347C1.18755 10.8256 1.17283 10.8176 1.1575 10.8108C0.749503 10.6285 0.617831 10.3841 0.702956 9.96731C0.707035 9.94734 0.709238 9.92705 0.709566 9.90675C0.743175 7.69064 1.87371 6.15422 2.87116 4.79869C3.0056 4.61597 3.13258 4.44342 3.25718 4.26909C3.9625 3.28041 4.13613 3.28641 5.48688 3.33337C6.03874 3.35245 6.53088 3.59934 6.71153 3.94781C6.83678 4.18936 6.80397 4.45912 6.61366 4.74989C6.46296 4.98084 6.20561 5.03855 6.01628 5.04628C5.51435 5.0655 4.94327 4.78069 4.59658 4.33416C4.5235 4.24003 4.405 4.19339 4.28735 4.21139C4.1696 4.22981 4.07116 4.31067 4.03024 4.42261C3.73661 5.226 3.64657 6.02302 3.55943 6.79378C3.47088 7.57739 3.38641 8.31839 3.08491 8.90817C2.90219 9.05395 2.72111 9.21295 2.54608 9.38311C2.41638 9.50925 2.41343 9.71662 2.53957 9.84633C2.60378 9.91237 2.68905 9.94556 2.77446 9.94556C2.85672 9.94556 2.93913 9.91472 3.00274 9.85284C3.17618 9.68423 3.35552 9.52734 3.53594 9.38606C3.53861 9.38414 3.54157 9.38278 3.54419 9.38072C4.23021 8.84812 4.8805 8.59664 5.52335 8.61703C5.54383 9.91959 5.70166 11.1169 5.99618 12.201C4.47944 12.3702 2.86858 11.912 1.20166 10.8347ZM11.4283 17.1335C11.2003 17.2323 11.033 17.4131 10.9451 17.6262C7.47677 15.6089 5.92436 12.1968 6.20763 7.2187C8.37363 7.00959 10.2898 6.09994 11.9112 4.51106C13.5327 6.10003 15.4488 7.00964 17.6148 7.2187C17.693 8.60358 17.6283 9.88284 17.4222 11.0287C17.1635 11.1068 16.9414 11.2972 16.8343 11.5672L16.5526 12.2769C16.1465 12.2184 15.7308 12.2242 15.327 12.294L15.0833 11.7299V10.1882C15.0833 10.0073 14.9366 9.86067 14.7557 9.86067H13.1975V8.30119C13.1975 8.12025 13.0509 7.97362 12.87 7.97362H10.7959C10.6151 7.97362 10.4684 8.1203 10.4684 8.30119V9.86067H8.90889C8.728 9.86067 8.58133 10.0073 8.58133 10.1882V12.2623C8.58133 12.4432 8.728 12.5898 8.90889 12.5898H10.4684V14.148C10.4684 14.3289 10.6151 14.4756 10.7959 14.4756H10.8237C10.8244 14.5973 10.8494 14.719 10.8992 14.8345C10.9964 15.06 11.175 15.2338 11.4018 15.3237L12.1117 15.6054C12.0525 16.0144 12.0585 16.4246 12.1296 16.8309L11.4283 17.1335ZM13.2668 11.9347H12.87C12.6891 11.9347 12.5425 12.0814 12.5425 12.2623V13.8027L12.0792 13.6178C11.7434 13.4853 11.375 13.5666 11.1235 13.7952V12.2623C11.1235 12.0813 10.9768 11.9347 10.7959 11.9347H9.23646V10.5158H10.7959C10.9768 10.5158 11.1235 10.3691 11.1235 10.1882V8.62875H12.5425V10.1882C12.5425 10.3692 12.6891 10.5158 12.87 10.5158H14.4282V11.0746C14.2263 11.018 14.0132 11.0315 13.8191 11.1151C13.4809 11.26 13.2759 11.5871 13.2668 11.9347ZM13.6421 13.0214C13.4846 13.1394 13.3361 13.2702 13.1975 13.4115V12.5898H13.4559L13.6421 13.0214ZM18.7447 14.391L18.8948 14.6253L20.097 14.1067C20.2294 14.0495 20.3838 14.111 20.441 14.2432C20.4687 14.3075 20.4696 14.3791 20.4433 14.4447C20.4175 14.5094 20.3686 14.5598 20.3042 14.5873L19.1038 15.1058L19.1707 15.3753C19.2897 15.855 19.2967 16.3658 19.191 16.8527L19.1321 17.1238L20.3491 17.6085C20.4809 17.6608 20.548 17.8165 20.4956 17.9485C20.4434 18.0802 20.2877 18.1474 20.1558 18.095L18.9385 17.6118L18.7954 17.8502C18.5404 18.2748 18.1846 18.6414 17.7665 18.9103L17.5329 19.0606L18.0515 20.2628C18.0789 20.3259 18.0796 20.3966 18.0536 20.4619C18.0274 20.5276 17.978 20.5789 17.9148 20.6063C17.8509 20.6339 17.7795 20.6346 17.714 20.6085C17.6489 20.5825 17.5981 20.5335 17.5706 20.4693L17.0506 19.2677L16.7812 19.3347C16.301 19.4543 15.7901 19.4617 15.3038 19.3563L15.0325 19.2975L14.5494 20.5145C14.524 20.5786 14.4743 20.6294 14.4097 20.6572C14.3449 20.6851 14.2738 20.6865 14.2106 20.6614C14.0761 20.6075 14.0099 20.454 14.0628 20.32L14.546 19.1046L14.3083 18.9612C13.876 18.7002 13.5191 18.354 13.2476 17.9319L13.0975 17.6986L11.8951 18.2157C11.8318 18.2431 11.761 18.244 11.6957 18.2181C11.6303 18.1921 11.5791 18.1427 11.5514 18.0785C11.4952 17.9487 11.558 17.7913 11.6882 17.7349L12.8901 17.2165L12.8232 16.9469C12.7021 16.459 12.6948 15.9619 12.8015 15.4693L12.8603 15.198L11.6433 14.7149C11.5792 14.6895 11.5285 14.6399 11.5006 14.5752C11.4727 14.5104 11.4714 14.4393 11.4966 14.3757C11.5504 14.2407 11.7037 14.1742 11.8376 14.2269L13.0532 14.7119L13.1968 14.4739C13.4552 14.0457 13.8109 13.679 14.2255 13.4135L14.4598 13.2634L13.9417 12.0622C13.8857 11.9309 13.9476 11.7729 14.0778 11.7172C14.1419 11.6895 14.2133 11.6886 14.2789 11.7146C14.3444 11.7405 14.3956 11.7899 14.4231 11.8539L14.9418 13.0545L15.2113 12.9874C15.6923 12.8677 16.2029 12.8606 16.6879 12.9669L16.9598 13.0265L17.4431 11.8089C17.4954 11.6772 17.6511 11.61 17.7835 11.6626C17.8481 11.6881 17.899 11.7377 17.9268 11.8022C17.9545 11.8665 17.9556 11.9372 17.9295 12.0023L17.4463 13.2195L17.6847 13.3627C18.1114 13.6188 18.4779 13.9743 18.7447 14.391ZM22.8427 10.8108C22.8273 10.8176 22.8126 10.8256 22.7985 10.8347C21.3272 11.7856 19.8975 12.2557 18.5413 12.2357C18.6287 12.0111 18.6245 11.7656 18.5286 11.5429C18.4392 11.3354 18.2801 11.1726 18.0784 11.0777C18.2118 10.3138 18.2855 9.4958 18.2993 8.63109C18.9987 8.55361 19.707 8.79975 20.4561 9.38081C20.4566 9.38114 20.457 9.38133 20.4574 9.38166C20.6398 9.52416 20.821 9.68264 20.9961 9.85284C21.0598 9.91472 21.1421 9.94556 21.2244 9.94556C21.3098 9.94556 21.3951 9.91233 21.4593 9.84633C21.5854 9.71662 21.5825 9.50925 21.4528 9.38311C21.2785 9.2137 21.0982 9.05526 20.9162 8.90991C20.6128 8.31909 20.5282 7.57617 20.4394 6.7905C20.3525 6.02081 20.2626 5.22497 19.9701 4.42284C19.9293 4.31081 19.8308 4.22986 19.713 4.21144C19.5952 4.19302 19.4767 4.23994 19.4036 4.33416C19.057 4.78069 18.4855 5.06709 17.983 5.04628C17.7935 5.0385 17.536 4.98075 17.385 4.74956C17.1951 4.45941 17.1623 4.18987 17.2876 3.94842C17.4684 3.59967 17.961 3.3525 18.5134 3.33342C19.8642 3.28645 20.0377 3.28041 20.7431 4.26919C20.8685 4.44478 20.9965 4.61892 21.1321 4.80323C22.1282 6.15783 23.2571 7.69317 23.2907 9.9068C23.291 9.92714 23.2932 9.94739 23.2973 9.96736C23.3823 10.3841 23.2507 10.6285 22.8427 10.8108ZM14.7 15.5934C14.3308 15.5934 14.0304 15.293 14.0304 14.9237C14.0304 14.5545 14.3308 14.2541 14.7 14.2541C15.0693 14.2541 15.3697 14.5545 15.3697 14.9237C15.3697 15.293 15.0693 15.5934 14.7 15.5934ZM15.7225 17.6873C15.7225 18.0566 15.422 18.357 15.0528 18.357C14.6835 18.357 14.3831 18.0566 14.3831 17.6873C14.3831 17.3181 14.6835 17.0176 15.0528 17.0176C15.422 17.0176 15.7225 17.3181 15.7225 17.6873Z"></path>
</svg>
