<svg xmlns="http://www.w3.org/2000/svg" fill="none" viewBox="0 0 24 24" height="24" width="24">
<g clip-path="url(#clip0_1388_382)">
<path fill="#5C4124" d="M19.9462 19.804C19.9462 19.804 18.8468 7.97534 18.3563 6.01334C17.7758 3.69209 16.4812 1.66709 13.9718 1.21072C13.6579 1.15372 10.3417 1.15372 10.0279 1.21072C8.919 1.41247 8.0475 1.92059 7.36987 2.62522C7.36987 2.62522 5.625 4.50022 5.27025 7.87522C5.013 10.3225 4.86262 12.7888 4.64737 15.238C4.51312 16.7646 4.314 18.2942 4.05375 19.8043C3.93375 20.5018 3.65175 22.3108 3 22.7053H21.0799C20.4281 22.3108 20.0662 20.5015 19.9462 19.804Z"></path>
<path fill="#634627" d="M11.8108 2.62484C14.5307 2.62484 16.9487 4.22834 18.4914 6.71497C18.4423 6.42097 18.3962 6.17947 18.3546 6.01334C17.7741 3.69209 16.4796 1.66709 13.9701 1.21072C13.6562 1.15372 10.3401 1.15372 10.0262 1.21072C8.91731 1.41209 8.04581 1.92022 7.36819 2.62484C7.36819 2.62484 6.28069 3.80009 5.64844 5.95634C7.18819 3.90734 9.37856 2.62484 11.8108 2.62484Z"></path>
<path fill="#5C3D1D" d="M17.534 9.375H6.37659C6.37659 9.375 6.16247 11.4375 7.50159 16.125C8.25159 18.75 7.12659 20.25 5.62659 21.375C4.98572 21.8558 3.19922 22.9552 3.19922 22.9552H21.0016C21.0016 22.9552 17.6266 22.125 16.8766 21C16.1266 19.875 16.034 16.5 17.534 9.375Z"></path>
<path fill="#FBC188" d="M21.375 23.25V22.5L17.6205 22.2791C16.149 22.1925 15 20.9741 15 19.5V14.625H9V19.5C9 20.9741 7.851 22.1925 6.3795 22.2791L2.625 22.5V23.25H21.375Z"></path>
<path fill="#FBC997" d="M12 5.99977C10.875 7.87477 6.375 9.41265 6.375 9.41265C6.954 11.4264 7.44187 14.1628 9 15.701C9.7275 16.4191 10.6871 16.877 12 16.877C16.125 16.877 16.5772 12.2585 17.5324 9.37477C17.5324 9.37477 13.3504 3.74902 12 5.99977Z"></path>
<path fill="#FC984A" d="M4.56441 3.6855C5.15016 3.09975 5.15016 2.14988 4.56441 1.56413L4.12491 1.125L3.68541 1.5645C3.09966 2.15025 3.09966 3.10013 3.68541 3.68588L4.12491 4.125L4.56441 3.6855Z"></path>
<path fill="#FC984A" d="M3.68541 4.5645C3.09966 5.15025 3.09966 6.10013 3.68541 6.68588L4.12491 7.125L4.56441 6.6855C5.15016 6.09975 5.15016 5.14987 4.56441 4.56412L4.12491 4.125L3.68541 4.5645Z"></path>
<path fill="#FC984A" d="M3.6855 4.56441L4.125 4.12491L3.6855 3.68541C3.09975 3.09966 2.14988 3.09966 1.56413 3.68541L1.125 4.12491L1.5645 4.56441C2.15025 5.15016 3.09975 5.15016 3.6855 4.56441Z"></path>
<path fill="#FC984A" d="M4.5645 4.56441C5.15025 5.15016 6.10013 5.15016 6.68588 4.56441L7.125 4.12491L6.6855 3.68541C6.09975 3.09966 5.14987 3.09966 4.56412 3.68541L4.125 4.12491L4.5645 4.56441Z"></path>
<path fill="#FC984A" d="M20.6894 14.9355C21.2752 14.3497 21.2752 13.3999 20.6894 12.8141L20.2499 12.375L19.8104 12.8145C19.2247 13.4003 19.2247 14.3501 19.8104 14.9359L20.2499 15.375L20.6894 14.9355Z"></path>
<path fill="#FC984A" d="M19.8104 15.8145C19.2247 16.4003 19.2247 17.3501 19.8104 17.9359L20.2499 18.375L20.6894 17.9355C21.2752 17.3497 21.2752 16.3999 20.6894 15.8141L20.2499 15.375L19.8104 15.8145Z"></path>
<path fill="#FC984A" d="M19.8105 14.9354C19.2247 14.3497 18.2749 14.3497 17.6891 14.9354L17.25 15.3749L17.6895 15.8144C18.2753 16.4002 19.2251 16.4002 19.8109 15.8144L20.25 15.3749L19.8105 14.9354Z"></path>
<path fill="#FC984A" d="M20.6895 14.9354L20.25 15.3749L20.6895 15.8144C21.2753 16.4002 22.2251 16.4002 22.8109 15.8144L23.25 15.3749L22.8105 14.9354C22.2247 14.3497 21.2753 14.3497 20.6895 14.9354Z"></path>
<path fill="black" d="M10.092 1.57987C10.4127 1.52924 13.5837 1.52924 13.9035 1.57949C15.9582 1.95337 17.3337 3.47587 17.991 6.10424C18.4774 8.04862 18.6308 10.0136 18.7568 12.0232L19.5053 11.9764C19.3819 10.0121 19.2195 7.92637 18.7182 5.92237C17.9933 3.02362 16.3748 1.26637 14.0374 0.841492C13.6755 0.775492 10.3212 0.775492 9.95928 0.841492C8.83616 1.04549 7.87353 1.55812 7.09766 2.36474L7.63803 2.88487C8.30291 2.19449 9.12903 1.75537 10.092 1.57987Z"></path>
<path fill="black" d="M22.125 19.5001C21.5047 19.5001 21 20.0049 21 20.6251V21.0001H21.75V20.6251C21.75 20.4181 21.918 20.2501 22.125 20.2501C22.332 20.2501 22.5 20.4181 22.5 20.6251V20.8347C22.5 21.1017 22.4111 21.3657 22.2506 21.5765C22.2319 21.6005 22.2127 21.6234 22.1906 21.6436C21.9139 21.8967 21.3908 22.2856 20.991 22.0441C20.6025 21.8094 20.4622 20.7796 20.3783 20.1639C20.3565 20.0064 20.337 19.862 20.316 19.7409L19.5769 19.8676C19.5964 19.982 19.6147 20.1174 19.635 20.2655C19.7111 20.8257 19.8101 21.5195 20.0685 22.0482L17.6423 21.9054C16.371 21.8304 15.375 20.7736 15.375 19.5001V15.7404C16.4224 14.498 16.9095 12.6939 17.3325 11.1095C17.487 10.5324 17.6325 9.98675 17.796 9.49287C17.8343 9.37812 17.8144 9.25212 17.7431 9.15462C17.4382 8.735 14.7367 5.09375 12.8681 5.09375C12.8475 5.09375 12.8269 5.09413 12.8063 5.09488C12.4781 5.1095 12.0157 5.2445 11.6783 5.807C10.6369 7.5425 6.297 9.04325 6.2535 9.05825C6.06413 9.12313 5.95913 9.3245 6.01425 9.51687C6.11175 9.8555 6.20625 10.2147 6.30375 10.5856C6.76275 12.3267 7.32787 14.4654 8.62425 15.8431V19.5001C8.62425 20.7736 7.62825 21.8304 6.35663 21.905L3.93038 22.0479C4.18875 21.5191 4.28775 20.8254 4.36387 20.2651C4.3845 20.117 4.40287 19.9816 4.422 19.8676C4.6845 18.3425 4.8855 16.7956 5.01975 15.2705C5.09512 14.4132 5.14838 13.5402 5.19938 12.6957C5.295 11.1252 5.39362 9.50075 5.63962 7.93325L4.89825 7.81662C4.647 9.41937 4.54688 11.0619 4.45088 12.65C4.3995 13.4896 4.347 14.3577 4.27237 15.2049C4.14 16.7097 3.942 18.2356 3.68288 19.7409C3.66188 19.862 3.64237 20.0064 3.62063 20.1639C3.53662 20.7796 3.39637 21.8094 3.00787 22.0441C2.78175 22.181 2.48888 22.1322 2.13675 21.9016C1.94062 21.7726 1.7805 21.5742 1.67362 21.3267L1.617 21.1959C1.53937 21.0144 1.5 20.8224 1.5 20.6251C1.5 20.4181 1.668 20.2501 1.875 20.2501C2.082 20.2501 2.25 20.4181 2.25 20.6251V21.0001H3V20.6251C3 20.0049 2.49525 19.5001 1.875 19.5001C1.25475 19.5001 0.75 20.0049 0.75 20.6251C0.75 20.9259 0.810375 21.2176 0.929625 21.4932L0.98625 21.6241C1.15125 22.0066 1.40775 22.3194 1.72725 22.5282C2.07712 22.7577 2.38275 22.8489 2.64675 22.865L2.64713 22.874L2.71237 22.8702C2.71875 22.8702 2.72625 22.8717 2.73263 22.8717C2.79 22.8717 2.84363 22.8661 2.89613 22.8594L6.40162 22.6531C8.06887 22.5556 9.375 21.1704 9.375 19.5001V16.4885C10.0684 16.9636 10.9249 17.2524 12 17.2524C13.1006 17.2524 13.95 16.9449 14.625 16.4472V19.5001C14.625 21.1704 15.9311 22.5556 17.5988 22.6535L21.0802 22.8582C21.1421 22.8672 21.2048 22.8729 21.2681 22.8729C21.2779 22.8729 21.2876 22.8714 21.2974 22.871L21.3533 22.8744L21.3536 22.8676C21.7796 22.841 22.2379 22.6164 22.6969 22.1971C22.7516 22.1469 22.7996 22.0929 22.8461 22.0325C23.1064 21.6901 23.25 21.2645 23.25 20.8347V20.6251C23.25 20.0049 22.7453 19.5001 22.125 19.5001ZM7.02938 10.394C6.96225 10.139 6.89663 9.88925 6.83025 9.64812C7.92 9.24312 11.3126 7.87475 12.3218 6.19325C12.4999 5.89625 12.6919 5.85087 12.8396 5.84412C13.923 5.80362 15.9214 7.96475 17.0243 9.443C16.878 9.90462 16.7468 10.3977 16.6084 10.9164C15.8745 13.6629 15.1159 16.5027 12 16.5027C8.64038 16.5027 7.78463 13.2575 7.02938 10.394Z"></path>
<path fill="black" d="M1.29947 4.82972C1.66472 5.19534 2.14509 5.37797 2.62509 5.37797C2.71659 5.37797 2.80772 5.36522 2.89847 5.35172C2.81559 5.91834 2.98547 6.51572 3.42047 6.95072L3.85997 7.39022C3.93309 7.46334 4.02909 7.50009 4.12509 7.50009C4.22109 7.50009 4.31709 7.46334 4.39022 7.39022L4.82972 6.95072C5.26472 6.51572 5.43497 5.91834 5.35172 5.35172C5.44247 5.36484 5.53359 5.37797 5.62509 5.37797C6.10509 5.37797 6.58547 5.19534 6.95072 4.82972L7.39022 4.39022C7.53684 4.24359 7.53684 4.00659 7.39022 3.85997L6.95072 3.42047C6.51572 2.98547 5.91834 2.81522 5.35172 2.89847C5.43459 2.33184 5.26472 1.73447 4.82972 1.29947L4.39022 0.859969C4.24359 0.713344 4.00659 0.713344 3.85997 0.859969L3.42047 1.29947C2.98547 1.73447 2.81522 2.33184 2.89847 2.89847C2.33184 2.81559 1.73447 2.98547 1.29947 3.42047L0.859969 3.85997C0.713344 4.00659 0.713344 4.24359 0.859969 4.39022L1.29947 4.82972ZM4.62872 5.62509C4.62872 5.92584 4.51172 6.20822 4.29947 6.42047L4.12509 6.59484L3.95072 6.42047C3.73847 6.20822 3.62147 5.92584 3.62147 5.62509C3.62147 5.32434 3.73847 5.04197 3.95072 4.82972L4.12509 4.65534L4.29947 4.82972C4.51172 5.04197 4.62872 5.32434 4.62872 5.62509ZM6.42047 3.95072L6.59484 4.12509L6.42047 4.29947C5.99559 4.72434 5.25459 4.72434 4.82972 4.29947L4.65534 4.12509L4.82972 3.95072C5.25459 3.52584 5.99559 3.52584 6.42047 3.95072ZM3.62147 2.62509C3.62147 2.32434 3.73847 2.04197 3.95072 1.82972L4.12509 1.65534L4.29947 1.82972C4.51172 2.04197 4.62872 2.32434 4.62872 2.62509C4.62872 2.92584 4.51172 3.20822 4.29947 3.42047L4.12509 3.59484L3.95072 3.42047C3.73847 3.20822 3.62147 2.92584 3.62147 2.62509ZM1.82972 3.95072C2.25459 3.52584 2.99559 3.52584 3.42047 3.95072L3.59484 4.12509L3.42047 4.29947C2.99559 4.72434 2.25459 4.72434 1.82972 4.29947L1.65534 4.12509L1.82972 3.95072Z"></path>
<path fill="black" d="M23.5152 15.11L23.0757 14.6705C22.6407 14.2355 22.0433 14.0652 21.4767 14.1485C21.5596 13.5818 21.3897 12.9845 20.9547 12.5495L20.5152 12.11C20.3686 11.9633 20.1316 11.9633 19.985 12.11L19.5455 12.5495C19.1105 12.9845 18.9402 13.5818 19.0235 14.1485C18.4568 14.0656 17.8595 14.2355 17.4245 14.6705L16.985 15.11C16.8383 15.2566 16.8383 15.4936 16.985 15.6402L17.4245 16.0797C17.7901 16.4453 18.2701 16.628 18.7501 16.628C18.8416 16.628 18.9327 16.6152 19.0235 16.6017C18.9406 17.1683 19.1105 17.7657 19.5455 18.2007L19.985 18.6402C20.0581 18.7133 20.1541 18.7501 20.2501 18.7501C20.3461 18.7501 20.4421 18.7133 20.5152 18.6402L20.9547 18.2007C21.3897 17.7657 21.56 17.1683 21.4767 16.6017C21.5675 16.6148 21.6586 16.628 21.7501 16.628C22.2301 16.628 22.7105 16.4453 23.0757 16.0797L23.5152 15.6402C23.6618 15.4936 23.6618 15.2566 23.5152 15.11ZM19.7465 13.8751C19.7465 13.5743 19.8635 13.292 20.0757 13.0797L20.2501 12.9053L20.4245 13.0797C20.6367 13.292 20.7537 13.5743 20.7537 13.8751C20.7537 14.1758 20.6367 14.4582 20.4245 14.6705L20.2501 14.8448L20.0757 14.6705C19.8635 14.4582 19.7465 14.1758 19.7465 13.8751ZM17.9547 15.5495L17.7803 15.3751L17.9547 15.2007C18.3796 14.7758 19.1206 14.7758 19.5455 15.2007L19.7198 15.3751L19.5455 15.5495C19.1206 15.9743 18.3796 15.9743 17.9547 15.5495ZM20.7537 16.8751C20.7537 17.1758 20.6367 17.4582 20.4245 17.6705L20.2501 17.8448L20.0757 17.6705C19.8635 17.4582 19.7465 17.1758 19.7465 16.8751C19.7465 16.5743 19.8635 16.292 20.0757 16.0797L20.2501 15.9053L20.4245 16.0797C20.6367 16.292 20.7537 16.5743 20.7537 16.8751ZM22.5455 15.5495C22.1206 15.9743 21.3796 15.9743 20.9547 15.5495L20.7803 15.3751L20.9547 15.2007C21.3796 14.7758 22.1206 14.7758 22.5455 15.2007L22.7198 15.3751L22.5455 15.5495Z"></path>
<path fill="black" d="M19.5 0.75H20.25V1.5H19.5V0.75Z"></path>
<path fill="black" d="M20.25 1.5H21V2.25H20.25V1.5Z"></path>
<path fill="black" d="M18.75 1.5H19.5V2.25H18.75V1.5Z"></path>
<path fill="black" d="M19.5 2.25H20.25V3H19.5V2.25Z"></path>
<path fill="black" d="M1.5 9.375H2.25V10.125H1.5V9.375Z"></path>
<path fill="black" d="M2.25 10.125H3V10.875H2.25V10.125Z"></path>
<path fill="black" d="M0.75 10.125H1.5V10.875H0.75V10.125Z"></path>
<path fill="black" d="M1.5 10.875H2.25V11.625H1.5V10.875Z"></path>
<path fill="black" d="M21.75 4.5H22.5V5.25H21.75V4.5Z"></path>
<path fill="black" d="M22.5 5.25H23.25V6H22.5V5.25Z"></path>
<path fill="black" d="M21 5.25H21.75V6H21V5.25Z"></path>
<path fill="black" d="M21.75 6H22.5V6.75H21.75V6Z"></path>
</g>
<defs>
<clipPath id="clip0_1388_382">
<rect fill="white" height="24" width="24"></rect>
</clipPath>
</defs>
</svg>
