<svg xmlns="http://www.w3.org/2000/svg" fill="none" viewBox="0 0 189 196" height="196" width="189">
<g clip-path="url(#clip0_112_548)">
<path fill="#018D43" d="M44.4829 14.6087C44.4829 14.6087 45.1955 14.123 46.6029 13.3277C47.3014 12.923 48.1656 12.4268 49.178 11.839C50.208 11.2865 51.4108 10.6812 52.7477 9.99145C53.0864 9.82253 53.4215 9.63601 53.7848 9.47412C54.1446 9.30872 54.515 9.14332 54.8924 8.97087C55.6508 8.62951 56.441 8.27055 57.2699 7.89751C57.478 7.80601 57.6861 7.71099 57.8943 7.61597C58.1094 7.53151 58.3246 7.44353 58.5433 7.35555C58.9807 7.1831 59.4287 7.00714 59.8837 6.82766C60.7973 6.47574 61.7321 6.0851 62.7163 5.72966C64.7022 5.07509 66.7904 4.29382 69.0621 3.70259C69.6265 3.54422 70.198 3.38234 70.7765 3.22045C71.0657 3.13951 71.3549 3.05857 71.6477 2.97762C71.944 2.91076 72.2403 2.84037 72.5402 2.77351C73.7395 2.49901 74.967 2.22099 76.2158 1.93593C86.276 -0.0700283 98.3575 -0.833701 110.933 1.18986C117.208 2.18932 123.582 3.85039 129.78 6.19772C135.978 8.53801 141.992 11.5857 147.583 15.1999C153.177 18.8106 158.352 22.9985 162.938 27.5559C167.527 32.1133 171.527 37.0403 174.868 42.0868C178.212 47.1334 180.896 52.2926 182.967 57.3005C185.065 62.3013 186.455 67.186 187.411 71.6554C188.409 76.1213 188.769 80.2318 188.97 83.7475C188.991 85.5177 188.991 87.1435 188.942 88.6075C188.833 90.0821 188.702 91.3948 188.547 92.5385C188.505 92.8236 188.473 93.0981 188.423 93.3655C188.367 93.6295 188.311 93.8829 188.258 94.1292C188.145 94.6149 188.028 95.0583 187.908 95.456C187.669 96.2513 187.415 96.8672 187.143 97.293C186.603 98.1447 186.004 98.2432 185.333 97.5218C185.333 97.5218 185.284 96.7123 185.192 95.2483C185.171 94.8823 185.146 94.4776 185.122 94.0307C185.108 93.809 185.101 93.5767 185.076 93.3374C185.051 93.0981 185.023 92.8482 184.995 92.5878C184.885 91.5566 184.762 90.3812 184.624 89.0826C184.43 87.7946 184.215 86.3834 183.99 84.8701C183.873 84.1135 183.69 83.3428 183.538 82.5439C183.379 81.745 183.213 80.9251 183.044 80.084C182.226 76.7513 181.309 73.0983 179.958 69.3925C179.358 67.5133 178.547 65.6657 177.82 63.7618C177.404 62.8292 176.988 61.8931 176.568 60.9499C176.356 60.4818 176.159 60.0032 175.933 59.5387L175.238 58.1521L174.547 56.7585C174.314 56.294 174.095 55.8259 173.834 55.3754C173.333 54.4675 172.832 53.5595 172.335 52.6551C172.095 52.1976 171.823 51.7577 171.555 51.3178C171.287 50.8779 171.023 50.438 170.758 49.9981C170.494 49.5582 170.229 49.1183 169.968 48.6819C169.707 48.2455 169.411 47.8302 169.135 47.4079C168.582 46.5598 168.028 45.7187 167.485 44.8881C166.906 44.0787 166.335 43.2763 165.77 42.4845C165.488 42.0903 165.216 41.6856 164.931 41.302C164.638 40.922 164.349 40.5454 164.059 40.1688C163.488 39.4122 162.927 38.6697 162.373 37.9412C161.795 37.2303 161.23 36.537 160.677 35.8543C160.402 35.5094 160.133 35.168 159.865 34.8337C159.601 34.4923 159.312 34.1862 159.043 33.8659C157.95 32.6025 156.973 31.3391 155.978 30.2481C152.133 25.7435 147.572 21.4184 141.692 17.2974C141.325 17.0369 140.955 16.7765 140.581 16.5126C140.2 16.2592 139.808 16.0199 139.42 15.77C138.634 15.2773 137.833 14.7741 137.018 14.2638C136.196 13.7605 135.329 13.3101 134.461 12.8209C133.586 12.3458 132.701 11.8285 131.762 11.3991C130.828 10.9522 129.872 10.4947 128.902 10.0302C127.921 9.5797 126.898 9.18555 125.864 8.74916C125.346 8.53449 124.82 8.31982 124.291 8.10514C123.751 7.9151 123.208 7.72155 122.658 7.52799C122.108 7.33443 121.55 7.14087 120.986 6.9438C120.422 6.75024 119.854 6.53909 119.268 6.38072C118.097 6.04287 116.901 5.69799 115.684 5.34959C114.457 5.02582 113.19 4.75836 111.899 4.4557C110.612 4.13193 109.275 3.94189 107.917 3.69555C107.236 3.57941 106.548 3.45624 105.853 3.34714C105.155 3.26268 104.446 3.17822 103.733 3.09376C98.0153 2.41103 91.7435 2.19284 84.9391 2.77703C78.1417 3.36122 70.8223 4.75836 63.1713 7.30276C62.2189 7.63005 61.27 7.99605 60.3035 8.34797C59.8202 8.52745 59.337 8.70693 58.8502 8.88641C58.3599 9.05886 57.8872 9.28409 57.4039 9.48468C56.4374 9.89643 55.4639 10.3152 54.4797 10.734C53.5061 11.1739 52.5396 11.6666 51.5555 12.1382C51.0651 12.3775 50.5713 12.6203 50.0739 12.8596C49.5871 13.1165 49.1039 13.3875 48.6136 13.655C47.64 14.1969 46.6453 14.7248 45.6611 15.2949C44.6946 15.8897 43.714 16.4915 42.7298 17.1003C42.4829 17.2516 42.236 17.4065 41.989 17.5578C41.7421 17.7126 41.5058 17.8851 41.2624 18.047C40.7791 18.3778 40.2959 18.7086 39.8056 19.0429C39.8056 19.0429 39.4175 19.2928 38.8002 19.6904C38.1724 20.074 37.3505 20.6653 36.451 21.2987C35.9995 21.6155 35.5303 21.9463 35.0576 22.2736C34.5885 22.6044 34.1088 22.9246 33.6784 23.266C32.8036 23.9311 31.9923 24.5329 31.3962 24.9517C30.2039 25.7928 29.8547 25.9089 31.5196 24.3394C31.9359 23.9487 32.4791 23.449 33.1669 22.8331C33.3398 22.6783 33.5197 22.5164 33.7102 22.3475C33.9077 22.1856 34.1158 22.0202 34.331 21.8442C34.7684 21.4958 35.2411 21.1157 35.7561 20.7005C36.2746 20.2922 36.8355 19.8488 37.4387 19.3702C38.063 18.9233 38.7368 18.4446 39.4528 17.9308C39.8126 17.6739 40.1865 17.41 40.571 17.139C40.9555 16.8645 41.3506 16.583 41.7774 16.3225C42.631 15.7876 43.5305 15.214 44.4829 14.6087Z"></path>
<path fill="#018D43" d="M22.8496 34.6085C22.8496 34.6085 23.0965 34.334 23.5656 33.8167C23.802 33.5598 24.0912 33.2395 24.4369 32.8629C24.7967 32.5005 25.213 32.0852 25.6786 31.6171C26.1477 31.1491 26.6663 30.6318 27.2342 30.0652C27.3753 29.9244 27.5199 29.7801 27.6681 29.6323C27.8233 29.4915 27.9785 29.3472 28.1407 29.2029C28.4617 28.9109 28.7968 28.6082 29.1425 28.295C29.8374 27.6721 30.5641 26.9894 31.3648 26.3031C32.1796 25.6344 33.0403 24.9271 33.9434 24.188C37.6048 21.2917 42.1482 18.1103 47.4852 15.207C52.8116 12.2966 58.9282 9.6677 65.4998 7.72861C72.0679 5.78247 79.0839 4.52963 86.0753 4.12843C93.0667 3.70613 100.026 4.1777 106.478 5.3109C112.933 6.44409 118.877 8.27409 123.964 10.4103C129.064 12.5324 133.276 15.0416 136.511 17.3044C138.112 18.4693 139.216 19.3245 139.837 20.0107C140.472 20.6723 140.677 21.063 140.518 21.2178C140.19 21.5381 138.44 20.8483 135.541 19.7151C135.181 19.5673 134.807 19.4089 134.412 19.247C134.02 19.0816 133.597 18.9409 133.167 18.7719C132.302 18.4447 131.378 18.0857 130.398 17.6951C128.401 17.0088 126.196 16.1712 123.745 15.4604C118.87 13.9682 113.145 12.6274 107.014 11.8707C100.891 11.1035 94.3648 10.9241 88.0401 11.3992C81.7119 11.8602 75.5953 12.9793 70.2089 14.4503C64.8155 15.9108 60.1628 17.7127 56.5719 19.2048C55.6759 19.5884 54.8399 19.9368 54.0709 20.25C53.316 20.5914 52.6317 20.9081 52.0144 21.1756C50.7833 21.7105 49.8309 22.0695 49.2489 22.2736C48.6563 22.4636 48.0214 22.6783 47.3441 22.9176C46.6703 23.1639 45.9366 23.4068 45.2029 23.7481C44.4622 24.0754 43.6756 24.4309 42.8501 24.8215C42.441 25.0186 42.0036 25.2051 41.5838 25.4374C41.1605 25.6696 40.7301 25.9054 40.2857 26.1483C36.7053 28.0662 32.61 30.7866 28.2077 34.5874C27.0719 35.5059 26.0137 36.5757 24.8637 37.6526C24.578 37.9236 24.2923 38.1981 24.003 38.4761C23.7208 38.7612 23.4492 39.0568 23.167 39.3524C22.6062 39.9472 22.0383 40.5525 21.4598 41.1683C20.8672 41.7772 20.3239 42.4423 19.7595 43.1109C19.1952 43.7831 18.6237 44.4694 18.0417 45.1627C17.4808 45.8735 16.9376 46.6196 16.3697 47.3657C15.8159 48.1223 15.2127 48.8684 14.6906 49.6849C14.1509 50.4908 13.6042 51.3108 13.0468 52.1448C12.9093 52.3524 12.7682 52.5636 12.6306 52.7747C12.5001 52.9929 12.3731 53.2076 12.2426 53.4258C11.9815 53.8622 11.7205 54.3056 11.456 54.749C11.1914 55.196 10.9268 55.6429 10.6623 56.0969C10.5282 56.3221 10.3977 56.5509 10.2637 56.7796C10.1402 57.0154 10.0168 57.2477 9.8933 57.4835C9.39946 58.4302 8.89857 59.3909 8.39062 60.3657C8.12606 60.8514 7.90736 61.3582 7.67455 61.8649C7.44174 62.3717 7.20892 62.8855 6.97611 63.3993C6.7433 63.9166 6.50696 64.4375 6.27063 64.9618C6.04487 65.4897 5.84381 66.0317 5.62863 66.5737C5.2124 67.6611 4.75383 68.7556 4.35876 69.8888C3.98132 71.029 3.60036 72.1833 3.21234 73.3552C3.21234 73.3552 3.16648 73.0737 3.27936 72.0601C3.3358 71.5534 3.4381 70.8601 3.60389 69.9275C3.64621 69.6952 3.68854 69.4453 3.74498 69.1814C3.80848 68.921 3.87903 68.643 3.94957 68.3509C4.09773 67.7632 4.27057 67.1121 4.47163 66.3836C5.26883 63.4767 6.66923 59.4191 9.35008 54.0382C9.69224 53.3695 10.045 52.6762 10.4154 51.9548C10.7893 51.2404 11.2267 50.5295 11.657 49.7764C12.0944 49.0303 12.5389 48.2561 13.0186 47.4678C13.5266 46.697 14.0486 45.8982 14.5918 45.0782C14.8635 44.67 15.1421 44.2512 15.4208 43.8289C15.71 43.4101 16.024 43.0019 16.3309 42.5795C16.9552 41.7384 17.5972 40.8727 18.2604 39.9788C19.6819 38.2685 21.1282 36.4103 22.8496 34.6085Z"></path>
<path fill="#018D43" d="M39.8304 176.96C41.7529 178.333 43.7494 179.512 45.6824 180.705C46.6666 181.272 47.6578 181.803 48.6314 182.341C49.1217 182.609 49.6014 182.88 50.0917 183.137C50.5856 183.38 51.0794 183.619 51.5697 183.858C52.5539 184.33 53.5169 184.822 54.4904 185.262C55.4746 185.681 56.4482 186.1 57.4147 186.512C57.9015 186.709 58.3706 186.937 58.8609 187.11C59.3477 187.289 59.831 187.469 60.3142 187.648C61.2807 188 62.2296 188.366 63.182 188.69C70.8295 191.231 78.1489 192.628 84.9428 193.212C91.7437 193.796 98.0155 193.578 103.733 192.896C104.45 192.811 105.155 192.727 105.853 192.642C106.552 192.533 107.236 192.41 107.917 192.294C109.275 192.047 110.612 191.861 111.899 191.534C113.19 191.231 114.457 190.963 115.684 190.64C116.905 190.288 118.097 189.943 119.268 189.605C119.854 189.447 120.422 189.236 120.986 189.042C121.551 188.845 122.108 188.651 122.658 188.458C123.208 188.264 123.755 188.071 124.295 187.881C124.824 187.662 125.35 187.448 125.868 187.237C126.902 186.8 127.928 186.406 128.909 185.956C129.879 185.491 130.835 185.034 131.769 184.583C132.711 184.154 133.593 183.636 134.472 183.161C135.343 182.672 136.211 182.222 137.032 181.718C137.847 181.208 138.648 180.705 139.435 180.212C139.826 179.962 140.218 179.723 140.595 179.47C140.969 179.206 141.339 178.945 141.706 178.685C147.587 174.56 152.151 170.232 155.992 165.731C156.984 164.636 157.961 163.373 159.054 162.113C159.322 161.793 159.612 161.483 159.873 161.145C160.141 160.811 160.409 160.469 160.684 160.124C161.238 159.445 161.802 158.748 162.377 158.041C162.927 157.313 163.492 156.57 164.063 155.817C164.352 155.444 164.642 155.064 164.934 154.684C165.22 154.297 165.488 153.895 165.774 153.501C166.338 152.709 166.91 151.911 167.488 151.101C168.032 150.271 168.585 149.43 169.139 148.581C169.414 148.156 169.711 147.744 169.972 147.307C170.233 146.871 170.497 146.431 170.762 145.991C171.026 145.551 171.294 145.115 171.559 144.672C171.827 144.232 172.102 143.795 172.339 143.334C172.836 142.43 173.337 141.522 173.838 140.614C174.099 140.167 174.321 139.695 174.55 139.231L175.242 137.837L175.937 136.451C176.162 135.986 176.36 135.507 176.571 135.039C176.991 134.1 177.407 133.16 177.824 132.231C178.55 130.327 179.365 128.48 179.961 126.6C181.312 122.898 182.229 119.242 183.048 115.912C183.217 115.071 183.379 114.251 183.542 113.452C183.693 112.654 183.877 111.883 183.993 111.126C184.222 109.613 184.434 108.202 184.628 106.914C184.766 105.615 184.889 104.44 184.998 103.409C185.027 103.152 185.055 102.902 185.08 102.659C185.104 102.42 185.108 102.187 185.125 101.966C185.15 101.522 185.175 101.114 185.196 100.748C185.288 99.284 185.337 98.4746 185.337 98.4746C186.004 97.7567 186.607 97.8517 187.147 98.7034C187.415 99.1292 187.672 99.7451 187.912 100.54C188.032 100.938 188.148 101.382 188.261 101.867C188.314 102.11 188.371 102.367 188.427 102.631C188.48 102.895 188.512 103.169 188.551 103.458C188.706 104.602 188.836 105.914 188.946 107.385C188.995 108.853 188.992 110.475 188.974 112.245C188.773 115.761 188.417 119.872 187.415 124.337C186.459 128.807 185.069 133.692 182.974 138.689C180.903 143.697 178.219 148.856 174.875 153.902C171.534 158.949 167.538 163.876 162.948 168.433C158.363 172.994 153.192 177.179 147.594 180.793C141.999 184.407 135.988 187.451 129.791 189.795C123.593 192.142 117.222 193.804 110.947 194.803C98.3717 196.827 86.2903 196.066 76.23 194.06C74.9778 193.775 73.7502 193.494 72.5544 193.223C72.2546 193.152 71.9583 193.086 71.662 193.019C71.3692 192.938 71.08 192.857 70.7907 192.776C70.2122 192.614 69.6408 192.452 69.0764 192.294C66.8047 191.703 64.72 190.925 62.7305 190.267C61.7464 189.915 60.8116 189.524 59.898 189.172C59.4429 188.993 58.995 188.817 58.5576 188.644C58.3389 188.556 58.1202 188.472 57.9085 188.384C57.6969 188.289 57.4887 188.194 57.2842 188.102C56.4587 187.729 55.6651 187.37 54.9102 187.029C54.5328 186.857 54.1624 186.688 53.8026 186.526C53.4393 186.364 53.1041 186.174 52.7655 186.008C51.4286 185.319 50.2258 184.713 49.1957 184.161C48.1834 183.577 47.3192 183.077 46.6207 182.672C45.9258 182.264 45.3791 181.965 45.0298 181.736C44.6771 181.511 44.4972 181.391 44.4972 181.391C43.5448 180.786 42.6453 180.212 41.7987 179.674C41.3719 179.41 40.9733 179.132 40.5888 178.854C40.2043 178.579 39.8304 178.315 39.4706 178.062C38.751 177.548 38.0808 177.07 37.4529 176.619C36.8497 176.141 36.2889 175.701 35.7703 175.289C35.2553 174.877 34.7791 174.493 34.3452 174.145C34.1265 173.969 33.9219 173.8 33.7244 173.642C33.5339 173.473 33.354 173.311 33.1812 173.156C32.4933 172.54 31.9501 172.041 31.5339 171.65C29.8689 170.08 30.2181 170.197 31.4139 171.038C32.0136 171.46 32.8214 172.062 33.6997 172.73C34.1301 173.072 34.6098 173.392 35.0825 173.723C35.5516 174.054 36.0243 174.384 36.4758 174.701C36.9273 175.018 37.3577 175.324 37.7527 175.602C38.1443 175.887 38.5217 176.105 38.8286 176.313C39.4424 176.707 39.8304 176.96 39.8304 176.96Z"></path>
<path fill="#018D43" d="M49.2591 173.723C49.8411 173.927 50.7935 174.286 52.0281 174.821C52.6454 175.088 53.3298 175.405 54.0846 175.747C54.8536 176.06 55.6931 176.408 56.5856 176.792C60.1765 178.284 64.8292 180.086 70.2227 181.546C75.6091 183.017 81.7292 184.136 88.0574 184.594C94.3821 185.065 100.908 184.886 107.031 184.119C113.162 183.362 118.891 182.021 123.762 180.526C126.214 179.815 128.418 178.977 130.415 178.287C131.395 177.897 132.32 177.538 133.184 177.211C133.614 177.042 134.037 176.901 134.429 176.735C134.821 176.57 135.198 176.415 135.558 176.267C138.457 175.134 140.207 174.444 140.535 174.765C140.697 174.92 140.489 175.31 139.858 175.972C139.237 176.658 138.136 177.517 136.531 178.678C133.3 180.941 129.092 183.454 123.988 185.572C118.901 187.712 112.961 189.542 106.502 190.675C100.051 191.812 93.0946 192.283 86.0996 191.865C79.1047 191.463 72.0887 190.214 65.5206 188.268C58.9454 186.332 52.8324 183.704 47.5024 180.793C42.1654 177.89 37.6186 174.708 33.9571 171.812C33.0541 171.073 32.1934 170.366 31.375 169.697C30.5707 169.014 29.8476 168.328 29.1492 167.705C28.8035 167.392 28.4684 167.089 28.1474 166.797C27.9851 166.649 27.8299 166.509 27.6747 166.368C27.5266 166.22 27.3819 166.076 27.2408 165.935C26.6729 165.368 26.1544 164.851 25.6852 164.383C25.2196 163.915 24.8034 163.5 24.4436 163.137C24.1014 162.761 23.8087 162.44 23.5723 162.183C23.1032 161.666 22.8562 161.392 22.8562 161.392C21.1349 159.586 19.6851 157.732 18.2671 156.018C17.6039 155.124 16.9619 154.258 16.3375 153.417C16.0307 152.995 15.7167 152.583 15.4275 152.168C15.1453 151.745 14.8701 151.327 14.5985 150.918C14.0588 150.095 13.5332 149.3 13.0253 148.525C12.542 147.737 12.1011 146.963 11.6637 146.217C11.2333 145.467 10.7959 144.753 10.422 144.038C10.0552 143.32 9.69891 142.627 9.35675 141.955C6.67237 136.571 5.27551 132.516 4.47831 129.613C4.27724 128.885 4.1044 128.233 3.95624 127.646C3.88217 127.354 3.81515 127.076 3.75165 126.815C3.69169 126.555 3.65289 126.305 3.60703 126.069C3.44124 125.137 3.34247 124.447 3.2825 123.94C3.1661 122.926 3.21548 122.648 3.21548 122.648C3.6035 123.82 3.98446 124.975 4.3619 126.115C4.7605 127.248 5.21554 128.343 5.63178 129.43C5.84695 129.972 6.04801 130.514 6.2773 131.042C6.51364 131.566 6.74997 132.087 6.98278 132.601C7.2156 133.115 7.44841 133.628 7.68122 134.135C7.91403 134.642 8.13273 135.149 8.39729 135.634C8.90524 136.609 9.40613 137.57 9.89997 138.517C10.0234 138.752 10.1469 138.988 10.2704 139.22C10.4044 139.449 10.5384 139.678 10.6725 139.903C10.9406 140.354 11.2051 140.804 11.4662 141.251C11.7307 141.695 11.9917 142.134 12.2528 142.574C12.3833 142.793 12.5138 143.011 12.6443 143.225C12.7854 143.437 12.923 143.644 13.0606 143.855C13.6179 144.689 14.1646 145.506 14.7043 146.315C15.2264 147.132 15.8296 147.878 16.3834 148.634C16.9513 149.384 17.491 150.127 18.0554 150.837C18.6374 151.531 19.2089 152.217 19.7733 152.889C20.3377 153.558 20.8809 154.223 21.4735 154.832C22.052 155.448 22.6199 156.053 23.1808 156.648C23.463 156.943 23.7346 157.239 24.0168 157.524C24.306 157.802 24.5917 158.077 24.8775 158.348C26.0274 159.424 27.0856 160.494 28.2215 161.413C32.6237 165.214 36.7191 167.934 40.2994 169.852C40.7439 170.095 41.1777 170.33 41.5975 170.563C42.0173 170.792 42.4547 170.978 42.8639 171.179C43.6928 171.566 44.4759 171.925 45.2167 172.252C45.9468 172.593 46.6876 172.836 47.3578 173.083C48.0316 173.318 48.663 173.533 49.2591 173.723Z"></path>
<path fill="#018D43" d="M23.262 45.2428C23.7558 44.8521 24.1297 44.6163 24.3907 44.5213C24.6624 44.4298 24.8176 44.4756 24.874 44.6339C24.9798 44.9436 24.74 45.746 24.2179 46.8581C23.9604 47.4141 23.6359 48.0546 23.2549 48.7549C22.8986 49.4694 22.5106 50.2612 22.0767 51.0952C21.858 51.5105 21.6323 51.9363 21.3995 52.3762C21.1596 52.8091 20.9586 53.2807 20.7293 53.7452C20.2742 54.6743 19.8016 55.6386 19.3183 56.6204C17.4558 60.576 15.7909 64.9047 14.6303 68.255C14.1047 69.9478 13.6603 71.3801 13.3499 72.3901C13.0818 73.4107 12.9231 74.0054 12.9231 74.0054C11.3145 80.1113 10.3727 86.2453 10.0129 91.9641C9.64607 97.6828 9.84713 102.976 10.2739 107.442C10.4045 108.557 10.5315 109.624 10.6479 110.634C10.6937 111.14 10.789 111.63 10.8666 112.105C10.9442 112.58 11.0218 113.041 11.0958 113.488C11.1699 113.935 11.2405 114.367 11.3075 114.783C11.3428 114.99 11.3745 115.195 11.4063 115.395C11.4486 115.592 11.4909 115.789 11.5332 115.979C11.6955 116.743 11.8472 117.443 11.9812 118.073C12.1188 118.703 12.2246 119.27 12.3446 119.755C12.4715 120.238 12.5809 120.649 12.6656 120.984C12.8384 121.649 12.9301 122.004 12.9301 122.004C12.9301 122.004 13.0853 122.599 13.3569 123.62C13.6709 124.63 14.1153 126.062 14.6374 127.751C15.7979 131.098 17.4664 135.427 19.3253 139.382C19.8051 140.364 20.2813 141.328 20.7363 142.257C20.9691 142.722 21.1667 143.193 21.4101 143.626C21.6429 144.066 21.8686 144.492 22.0873 144.907C22.5212 145.738 22.9092 146.53 23.2655 147.244C23.6429 147.944 23.9675 148.581 24.225 149.137C24.7435 150.25 24.9869 151.052 24.8811 151.362C24.8246 151.52 24.6659 151.562 24.3943 151.474C24.1297 151.379 23.7593 151.143 23.2655 150.753C22.5424 150.179 21.791 149.549 21.015 148.87C20.2601 148.177 19.5194 147.41 18.7398 146.611C18.3553 146.206 17.9532 145.801 17.5722 145.368C17.2018 144.928 16.8244 144.478 16.4434 144.024C16.066 143.563 15.685 143.095 15.297 142.62C15.1065 142.381 14.9055 142.145 14.7256 141.895C14.5457 141.645 14.3622 141.392 14.1823 141.138C13.4628 140.118 12.7044 139.076 11.9989 137.982C11.3145 136.876 10.6302 135.74 9.94237 134.585C9.29685 133.414 8.68308 132.21 8.05872 130.999C7.7342 130.398 7.46258 129.775 7.18744 129.152L6.3585 127.276C4.21029 122.244 2.64411 116.986 1.62115 112.122C1.39892 110.898 1.18375 109.708 0.972102 108.554C0.922717 108.265 0.866278 107.98 0.823949 107.695C0.788675 107.41 0.7534 107.125 0.718126 106.847C0.647577 106.284 0.580556 105.735 0.513535 105.193C0.450041 104.651 0.386547 104.123 0.323053 103.609C0.294834 103.352 0.25956 103.095 0.238395 102.842C0.220758 102.589 0.203121 102.339 0.189011 102.092C0.125517 101.107 0.0655506 100.174 0.012639 99.3052C-0.0296902 98.0383 0.044386 96.7748 0.0867152 95.5079C0.153736 94.6105 0.185483 93.6568 0.294834 92.6609C0.414767 91.6649 0.541754 90.6232 0.672269 89.5393C0.746346 88.9973 0.792202 88.4448 0.894498 87.8888C0.993266 87.3327 1.09556 86.7662 1.19786 86.1925C1.30368 85.6189 1.4095 85.0382 1.51533 84.447C1.56824 84.1514 1.62468 83.8558 1.68112 83.5601C1.74108 83.2645 1.81869 82.9654 1.88923 82.6662C2.17848 81.4767 2.47479 80.2556 2.77462 79.0168C3.12031 77.7886 3.51186 76.5533 3.89282 75.3075C3.98806 74.9978 4.08683 74.6846 4.18207 74.3714C4.28789 74.0617 4.40782 73.752 4.5207 73.4424C4.74999 72.8265 4.97927 72.2036 5.20855 71.5842C5.44489 70.9648 5.66359 70.3419 5.91757 69.726C6.18565 69.1172 6.45374 68.5084 6.72182 67.8996L7.53313 66.0801C7.66365 65.7775 7.8118 65.4783 7.96701 65.1862L8.42205 64.3029C8.7254 63.7187 9.03229 63.1345 9.33565 62.5539L9.79422 61.6881C9.95295 61.4031 10.1258 61.125 10.2881 60.847C10.9583 59.7314 11.6179 58.6334 12.2916 57.5706C13.0077 56.5289 13.7238 55.5119 14.4293 54.53C14.7714 54.0338 15.1559 53.5657 15.5298 53.1047C15.9037 52.6472 16.2741 52.1968 16.641 51.7498C17.0114 51.3064 17.3712 50.8735 17.738 50.4547C18.1225 50.05 18.5035 49.6524 18.8774 49.2582C19.6358 48.4875 20.3483 47.7414 21.0891 47.0728C21.8298 46.4111 22.5565 45.7988 23.262 45.2428Z"></path>
</g>
<g clip-path="url(#clip1_112_548)">
<path fill="#313131" d="M88.352 84.6813C87.8441 84.6813 87.4316 85.0953 87.4316 85.6016C87.4316 86.1078 87.8441 86.5219 88.352 86.5219H93.3488C93.8566 86.5219 94.2691 86.1078 94.2691 85.6016C94.2691 85.0953 93.8566 84.6813 93.3488 84.6813H88.352Z"></path>
<path fill="#313131" d="M119.946 103.139C129.575 103.139 137.869 97.3797 141.611 89.1329C141.661 89.0625 141.694 88.9829 141.724 88.9016C143.014 85.9719 143.744 82.7422 143.744 79.3407C143.744 73.9188 141.966 68.811 138.605 64.5688C138.289 64.1672 137.71 64.1047 137.313 64.4188C136.913 64.7344 136.847 65.3141 137.163 65.711C140.263 69.625 141.902 74.3376 141.902 79.3407C141.902 82.3407 141.294 85.2016 140.199 87.8094L133.518 89.3094V85.6032C133.518 85.0954 133.104 84.6829 132.597 84.6829H128.707V79.4688C128.707 78.961 128.293 78.5485 127.786 78.5485C127.28 78.5485 126.866 78.9625 126.866 79.4688V84.6829H124.929C124.629 84.6829 124.347 84.8282 124.175 85.0751L121.729 88.5516V88.5532L119.594 91.586H114.704C114.196 91.586 113.783 92 113.783 92.5063C113.783 93.0141 114.197 93.4266 114.704 93.4266H120.072C120.372 93.4266 120.654 93.2813 120.825 93.036L122.485 90.6782L125.444 95.0672C125.622 95.3313 125.911 95.4719 126.207 95.4719C126.385 95.4719 126.564 95.4204 126.722 95.3141C127.144 95.0297 127.254 94.4579 126.971 94.036L123.619 89.0657L125.407 86.525H131.677V90.461C131.677 90.7407 131.805 91.0047 132.022 91.1797C132.243 91.3532 132.532 91.4172 132.799 91.3594L139.168 89.9297C135.424 96.7 128.213 101.298 119.943 101.298C107.835 101.298 97.9848 91.4485 97.9848 79.3407C97.9848 73.6813 100.155 68.5329 103.682 64.636L106.171 71.3516C106.305 71.7125 106.647 71.9532 107.033 71.9532H111.596L110.777 77.6829L104.947 82.0547C104.539 82.361 104.458 82.9375 104.761 83.3422C104.943 83.5844 105.219 83.711 105.499 83.711C105.693 83.711 105.886 83.6516 106.05 83.5266L108.085 82L110.594 86.0829C110.768 86.3657 111.071 86.5219 111.379 86.5219C111.544 86.5219 111.71 86.4782 111.86 86.386C112.293 86.1188 112.429 85.5532 112.163 85.1204L109.564 80.8907L112.185 78.925C112.38 78.7766 112.51 78.5594 112.544 78.3172L113.016 75.0188H118.536C118.825 75.0188 119.099 74.8829 119.274 74.65L122.418 70.461L126.016 74.6954C126.194 74.9063 126.454 75.0204 126.718 75.0204C126.841 75.0204 126.964 74.9938 127.085 74.9438L132.964 72.3875C133.43 72.1844 133.644 71.6422 133.441 71.175C133.235 70.7094 132.693 70.4985 132.229 70.6985L126.977 72.9829L123.072 68.3922C122.891 68.1766 122.625 68.0547 122.344 68.0672C122.064 68.0766 121.804 68.211 121.635 68.436L120.554 69.8782L116.749 64.1344C116.468 63.7094 115.896 63.5954 115.475 63.875C115.05 64.1547 114.935 64.725 115.216 65.1485L119.383 71.4407L118.08 73.1797H113.283L113.571 71.1625C113.608 70.8985 113.53 70.6313 113.355 70.4297C113.182 70.2282 112.927 70.1125 112.66 70.1125H107.677L105.113 63.1969C109.024 59.6 114.224 57.3844 119.944 57.3844C124.957 57.3844 129.858 59.1172 133.747 62.2625C134.143 62.5797 134.719 62.5204 135.041 62.1266C135.36 61.7313 135.3 61.1516 134.905 60.8329C130.688 57.4219 125.375 55.5422 119.943 55.5422C113.569 55.5422 107.785 58.075 103.508 62.1688C103.438 62.2188 103.375 62.2719 103.322 62.3375C98.9004 66.661 96.1426 72.6813 96.1426 79.3407C96.1473 92.4626 106.824 103.139 119.946 103.139Z"></path>
<path fill="#313131" d="M62.7719 122.566H71.6984C72.2062 122.566 72.6187 122.152 72.6187 121.645C72.6187 121.138 72.2062 120.725 71.6984 120.725H62.7719C62.2641 120.725 61.8516 121.139 61.8516 121.645C61.8516 122.152 62.2641 122.566 62.7719 122.566Z"></path>
<path fill="#313131" d="M80.3441 122.566H89.2691C89.777 122.566 90.1895 122.152 90.1895 121.645C90.1895 121.138 89.777 120.725 89.2691 120.725H80.3441C79.8363 120.725 79.4238 121.139 79.4238 121.645C79.4238 122.152 79.8363 122.566 80.3441 122.566Z"></path>
<path fill="#313131" d="M98.1957 122.566H107.121C107.629 122.566 108.041 122.152 108.041 121.645C108.041 121.138 107.627 120.725 107.121 120.725H98.1957C97.6879 120.725 97.2754 121.139 97.2754 121.645C97.2754 122.152 97.6895 122.566 98.1957 122.566Z"></path>
<path fill="#313131" d="M116.047 122.566H124.972C125.48 122.566 125.893 122.152 125.893 121.645C125.893 121.138 125.479 120.725 124.972 120.725H116.047C115.539 120.725 115.127 121.139 115.127 121.645C115.127 122.152 115.541 122.566 116.047 122.566Z"></path>
<path fill="#313131" d="M133.899 122.566H142.824C143.332 122.566 143.744 122.152 143.744 121.645C143.744 121.138 143.33 120.725 142.824 120.725H133.899C133.391 120.725 132.979 121.139 132.979 121.645C132.979 122.152 133.393 122.566 133.899 122.566Z"></path>
<path fill="#313131" d="M58.3402 106.155C56.0699 106.155 54.2246 108.002 54.2246 110.27C54.2246 112.539 56.0715 114.386 58.3402 114.386C60.609 114.386 62.4559 112.539 62.4559 110.27C62.4559 108.002 60.6105 106.155 58.3402 106.155ZM58.3402 112.545C57.0855 112.545 56.0652 111.525 56.0652 110.27C56.0652 109.016 57.0855 107.995 58.3402 107.995C59.5949 107.995 60.6152 109.016 60.6152 110.27C60.6152 111.524 59.5949 112.545 58.3402 112.545Z"></path>
<path fill="#313131" d="M76.2348 114.386C78.5051 114.386 80.3504 112.539 80.3504 110.27C80.3504 108.002 78.5035 106.155 76.2348 106.155C73.966 106.155 72.1191 108.002 72.1191 110.27C72.1191 112.539 73.9645 114.386 76.2348 114.386ZM76.2348 107.995C77.4895 107.995 78.5098 109.016 78.5098 110.27C78.5098 111.525 77.4895 112.545 76.2348 112.545C74.9801 112.545 73.9598 111.525 73.9598 110.27C73.9598 109.016 74.9801 107.995 76.2348 107.995Z"></path>
<path fill="#313131" d="M93.8715 114.386C96.1402 114.386 97.9871 112.539 97.9871 110.27C97.9871 108.002 96.1402 106.155 93.8715 106.155C91.6012 106.155 89.7559 108.002 89.7559 110.27C89.7559 112.539 91.6027 114.386 93.8715 114.386ZM93.8715 107.995C95.1262 107.995 96.1465 109.016 96.1465 110.27C96.1465 111.525 95.1262 112.545 93.8715 112.545C92.6168 112.545 91.5965 111.525 91.5965 110.27C91.5965 109.016 92.6184 107.995 93.8715 107.995Z"></path>
<path fill="#313131" d="M111.509 114.386C113.778 114.386 115.625 112.539 115.625 110.27C115.625 108.002 113.778 106.155 111.509 106.155C109.24 106.155 107.394 108.002 107.394 110.27C107.394 112.539 109.242 114.386 111.509 114.386ZM111.509 107.995C112.764 107.995 113.784 109.016 113.784 110.27C113.784 111.525 112.764 112.545 111.509 112.545C110.254 112.545 109.234 111.525 109.234 110.27C109.236 109.016 110.256 107.995 111.509 107.995Z"></path>
<path fill="#313131" d="M129.403 114.386C131.671 114.386 133.518 112.539 133.518 110.27C133.518 108.002 131.671 106.155 129.403 106.155C127.134 106.155 125.287 108.002 125.287 110.27C125.287 112.539 127.134 114.386 129.403 114.386ZM129.403 107.995C130.657 107.995 131.678 109.016 131.678 110.27C131.678 111.525 130.657 112.545 129.403 112.545C128.148 112.545 127.128 111.525 127.128 110.27C127.129 109.016 128.15 107.995 129.403 107.995Z"></path>
<path fill="#313131" d="M136.561 130.438H133.238C130.411 130.438 127.978 132.041 126.719 134.367C125.459 132.041 123.027 130.438 120.2 130.438H116.877C114.05 130.438 111.617 132.041 110.358 134.367C109.098 132.041 106.666 130.438 103.839 130.438H100.516C97.6891 130.438 95.2562 132.041 93.9969 134.367C92.7375 132.041 90.3047 130.438 87.4781 130.438H84.1547C81.3281 130.438 78.8953 132.041 77.6359 134.367C76.3766 132.041 73.9437 130.438 71.1172 130.438H67.7937C64.9672 130.438 62.5344 132.041 61.275 134.367C60.0156 132.041 57.5828 130.438 54.7562 130.438H51.4391C49.1969 130.438 47.2062 131.456 45.8406 133.031V122.566H53.8453C54.3531 122.566 54.7656 122.152 54.7656 121.645C54.7656 121.138 54.3531 120.725 53.8453 120.725H45.8406V97.2531C47.2297 97.3391 48.0016 97.8141 48.8438 98.3813C49.8734 99.0719 51.0391 99.8547 53.2828 99.8547C55.525 99.8547 56.6922 99.0719 57.7219 98.3813C58.65 97.7563 59.4516 97.2188 61.1344 97.2188C62.8172 97.2188 63.6187 97.7563 64.5469 98.3797C65.5766 99.0735 66.7422 99.8563 68.9859 99.8563C71.2281 99.8563 72.3953 99.0735 73.425 98.3828C74.3531 97.7578 75.1547 97.2203 76.8375 97.2203C78.5203 97.2203 79.3219 97.7578 80.25 98.3828C81.2797 99.0735 82.4453 99.8563 84.6891 99.8563C86.9328 99.8563 88.0984 99.0735 89.1281 98.3828C90.0563 97.7578 90.8578 97.2203 92.5406 97.2203C94.2234 97.2203 95.025 97.7578 95.9531 98.3828C96.9828 99.0735 98.15 99.8563 100.392 99.8563C100.9 99.8563 101.312 99.4422 101.312 98.936C101.312 98.4297 100.898 98.0156 100.392 98.0156C98.7094 98.0156 97.9078 97.4782 96.9797 96.8532C95.95 96.1625 94.7844 95.3797 92.5406 95.3797C90.2969 95.3797 89.1313 96.1625 88.1016 96.8532C87.1734 97.4782 86.3719 98.0156 84.6891 98.0156C83.0063 98.0156 82.2047 97.4782 81.2766 96.8532C80.2469 96.1625 79.0813 95.3797 76.8375 95.3797C74.5938 95.3797 73.4281 96.1625 72.3984 96.8563C71.4703 97.4797 70.6688 98.0172 68.9859 98.0172C67.3031 98.0172 66.5016 97.4797 65.5734 96.8547C64.5438 96.1641 63.3781 95.3813 61.1344 95.3813C58.8906 95.3813 57.725 96.1641 56.6953 96.8547C55.7672 97.4797 54.9656 98.0172 53.2828 98.0172C51.6 98.0172 50.7984 97.4797 49.8703 96.8547C48.9078 96.2078 47.8125 95.4906 45.8406 95.3985V90.2188C45.8406 89.711 45.4281 89.2985 44.9203 89.2985C44.4125 89.2985 44 89.7125 44 90.2188V137.877V139.538C44 140.045 44.4125 140.458 44.9203 140.458H142.823C142.869 140.458 142.908 140.439 142.952 140.431C142.995 140.438 143.034 140.458 143.08 140.458C143.588 140.458 144 140.044 144 139.538V137.877C144 133.775 140.662 130.438 136.561 130.438ZM133.238 132.28H136.561C139.648 132.28 142.159 134.791 142.159 137.878V138.619H127.641V137.878C127.641 134.789 130.15 132.28 133.238 132.28ZM116.878 132.28H120.202C123.289 132.28 125.8 134.791 125.8 137.878V138.619H111.281V137.878C111.28 134.789 113.791 132.28 116.878 132.28ZM100.519 132.28H103.842C106.93 132.28 109.441 134.791 109.441 137.878V138.619H94.9219V137.878C94.9203 134.789 97.4313 132.28 100.519 132.28ZM84.1578 132.28H87.4812C90.5672 132.28 93.0797 134.791 93.0797 137.878V138.619H78.5609V137.878C78.5609 134.789 81.0719 132.28 84.1578 132.28ZM67.7984 132.28H71.1219C74.2078 132.28 76.7203 134.791 76.7203 137.878V138.619H62.2016V137.878C62.2016 134.789 64.7125 132.28 67.7984 132.28ZM45.8406 137.877C45.8406 134.789 48.3516 132.278 51.4391 132.278H54.7625C57.8484 132.278 60.3609 134.789 60.3609 137.877V138.617H45.8406V137.877Z"></path>
<path fill="#313131" d="M44.9203 86.5234C44.9391 86.5234 44.9563 86.5141 44.975 86.5125C44.9938 86.5141 45.0109 86.5234 45.0297 86.5234H83.0625C83.5703 86.5234 83.9828 86.1094 83.9828 85.6031C83.9828 85.0969 83.5703 84.6812 83.0625 84.6812H45.8406V80.0234L48.7328 77.8063L50 80.025C50.1984 80.3703 50.5984 80.5578 50.9828 80.4703L54.5531 79.7438L57.3687 80.8359C57.4766 80.8781 57.5891 80.9 57.7016 80.9C57.8672 80.9 58.0328 80.8547 58.1781 80.7656L60.3875 79.4281L62.5766 78.4203L65.0156 79.4406C65.4141 79.6047 65.8781 79.475 66.1266 79.1172L67.6469 76.9297L72.0047 79.9359C72.3563 80.1797 72.8328 80.1469 73.1516 79.8563L75.2234 77.9484L78.9906 79.9875C79.3625 80.1938 79.8297 80.1109 80.1141 79.7937L82.1937 77.475L83.8172 79.55C83.9688 79.7437 84.1922 79.8703 84.4391 79.8969C84.6813 79.9234 84.9297 79.8531 85.1219 79.6969L87.6781 77.6266C87.8281 77.5047 87.9359 77.3391 87.9875 77.1531L88.3375 75.8703L90.0281 77.5625C90.1109 77.6438 90.2094 77.7109 90.3172 77.7578L92.1063 78.525C92.5672 78.7172 93.1125 78.5062 93.3141 78.0422C93.5141 77.575 93.2984 77.0344 92.8313 76.8313L91.2047 76.1344L88.5187 73.4484C88.2859 73.2172 87.95 73.1188 87.6312 73.2109C87.3141 73.2953 87.0656 73.5406 86.9797 73.8578L86.2906 76.3828L84.6922 77.6781L82.9672 75.475C82.8 75.2609 82.5453 75.1313 82.275 75.1219C81.9688 75.1156 81.7391 75.225 81.5594 75.4281L79.2313 78.025L75.525 76.0172C75.1797 75.825 74.7531 75.8812 74.4625 76.1484L72.4484 78.0031L67.9406 74.8938C67.5219 74.6063 66.9516 74.7078 66.6625 75.125L65.0422 77.4531L62.9156 76.5641C62.6781 76.4641 62.4094 76.4703 62.175 76.5766L59.5297 77.8L57.6156 78.9547L54.9688 77.9281C54.8062 77.8641 54.6266 77.8438 54.4516 77.8844L51.2703 78.5328L49.8109 75.9766C49.6797 75.7453 49.4547 75.5828 49.1937 75.5297C48.9375 75.4797 48.6641 75.5422 48.4516 75.7016L44.3609 78.8375C44.3438 78.85 44.3359 78.8703 44.3203 78.8844C44.2734 78.925 44.2375 78.9734 44.2 79.0219C44.1641 79.0688 44.1281 79.1141 44.1031 79.1656C44.0781 79.2156 44.0656 79.2703 44.05 79.325C44.0328 79.3859 44.0172 79.4453 44.0125 79.5094C44.0109 79.5297 44 79.5484 44 79.5688V85.6016C44 86.1094 44.4125 86.5234 44.9203 86.5234Z"></path>
<path fill="#313131" d="M69.6254 67.5188C70.1332 67.5188 70.5457 67.1047 70.5457 66.5985V57.5938C70.5457 57.086 70.1332 56.6735 69.6254 56.6735C69.1176 56.6735 68.7051 57.0875 68.7051 57.5938V66.5985C68.7051 67.1063 69.1176 67.5188 69.6254 67.5188Z"></path>
<path fill="#313131" d="M69.6254 70.9923C70.1332 70.9923 70.5457 70.5735 70.5457 70.0657C70.5457 69.5579 70.1332 69.1454 69.6254 69.1454C69.1176 69.1454 68.7051 69.5594 68.7051 70.0657V70.0782C68.7051 70.5844 69.1176 70.9923 69.6254 70.9923Z"></path>
<path fill="#313131" d="M77.5297 67.5188C78.0375 67.5188 78.45 67.1047 78.45 66.5985V57.5938C78.45 57.086 78.0375 56.6735 77.5297 56.6735C77.0219 56.6735 76.6094 57.0875 76.6094 57.5938V66.5985C76.6094 67.1063 77.0219 67.5188 77.5297 67.5188Z"></path>
<path fill="#313131" d="M77.5297 70.9923C78.0375 70.9923 78.45 70.5735 78.45 70.0657C78.45 69.5579 78.0375 69.1454 77.5297 69.1454C77.0219 69.1454 76.6094 69.5594 76.6094 70.0657V70.0782C76.6094 70.5844 77.0219 70.9923 77.5297 70.9923Z"></path>
<path fill="#313131" d="M61.7201 67.5188C62.2279 67.5188 62.6404 67.1047 62.6404 66.5985V57.5938C62.6404 57.086 62.2279 56.6735 61.7201 56.6735C61.2123 56.6735 60.7998 57.0875 60.7998 57.5938V66.5985C60.7982 67.1063 61.2107 67.5188 61.7201 67.5188Z"></path>
<path fill="#313131" d="M61.7201 70.9923C62.2279 70.9923 62.6404 70.5735 62.6404 70.0657C62.6404 69.5579 62.2279 69.1454 61.7201 69.1454C61.2123 69.1454 60.7998 69.5594 60.7998 70.0657V70.0782C60.7982 70.5844 61.2107 70.9923 61.7201 70.9923Z"></path>
</g>
<defs>
<clipPath id="clip0_112_548">
<rect fill="white" height="196" width="189"></rect>
</clipPath>
<clipPath id="clip1_112_548">
<rect transform="translate(44 48)" fill="white" height="100" width="100"></rect>
</clipPath>
</defs>
</svg>
