<svg xmlns="http://www.w3.org/2000/svg" fill="none" viewBox="0 0 100 100" height="100" width="100">
<mask height="100" width="100" y="0" x="0" maskUnits="userSpaceOnUse" style="mask-type:luminance" id="mask0_739_1126">
<path fill="white" d="M0 7.62939e-06H100V100H0V7.62939e-06Z"></path>
</mask>
<g mask="url(#mask0_739_1126)">
<path stroke-linejoin="round" stroke-linecap="round" stroke-miterlimit="10" stroke-width="3" stroke="#018D43" d="M12.2275 54.2104C16.7674 60.5108 23.682 63.351 30.4695 63.1129C39.0896 63.4119 47.9199 58.7502 51.8176 48.3362L55.859 36.1172C56.6949 31.8043 51.5629 30.376 49.8521 33.4598L45.9601 45.4573C43.3857 52.9813 36.8308 56.7184 30.4695 56.5965C24.1084 56.7184 17.5535 52.9813 14.9736 45.4573L11.0871 33.4598C9.37634 30.376 4.24412 31.8043 5.07459 36.1172L9.11619 48.3362"></path>
<path stroke-linejoin="round" stroke-linecap="round" stroke-miterlimit="10" stroke-width="3" stroke="#018D43" d="M35.5793 62.7033V66.817C35.5793 69.6293 33.2818 71.9271 30.4693 71.9271C27.6568 71.9271 25.3594 69.6293 25.3594 66.817V62.7033C27.0424 63.041 28.7586 63.174 30.4693 63.1131C32.1744 63.174 33.8963 63.041 35.5793 62.7033Z"></path>
<path stroke-linejoin="round" stroke-linecap="round" stroke-miterlimit="10" stroke-width="3" stroke="#018D43" d="M6.87369 32.12C6.39204 30.6252 6.02115 29.0528 5.77193 27.4084L3.75669 14.0879C3.03697 9.34302 7.68189 5.36802 12.4764 5.36802M46.7182 43.1264C43.1141 45.9887 38.519 47.6165 33.1268 47.6165H27.812C22.4196 47.6165 17.819 45.9887 14.2147 43.1209M48.5674 5.36802C53.312 5.39009 57.8905 9.33208 57.1819 14.027L55.1612 27.4084C54.9174 29.0528 54.5465 30.6307 54.0649 32.12"></path>
<path stroke-linejoin="round" stroke-linecap="round" stroke-miterlimit="10" stroke-width="3" stroke="#018D43" d="M30.4697 71.927V75.8247C30.4697 88.3149 40.6896 98.535 53.1795 98.535C65.6695 98.535 75.8894 88.3149 75.8894 75.8247V51.5585"></path>
<path stroke-linejoin="round" stroke-linecap="round" stroke-miterlimit="10" stroke-width="3" stroke="#018D43" d="M14.1539 1.4648H16.1359C18.1455 1.4648 19.7898 3.10913 19.7898 5.1187V5.61147C19.7898 7.6269 18.1455 9.27124 16.1359 9.27124H14.1539C13.235 9.27124 12.4766 8.51265 12.4766 7.59351V3.14233C12.4766 2.21772 13.235 1.4648 14.1539 1.4648Z"></path>
<path stroke-linejoin="round" stroke-linecap="round" stroke-miterlimit="10" stroke-width="3" stroke="#018D43" d="M46.8898 1.4648H44.9133C42.8982 1.4648 41.2539 3.10913 41.2539 5.1187V5.61147C41.2539 7.6269 42.8982 9.27124 44.9133 9.27124H46.8898C47.8143 9.27124 48.5674 8.51265 48.5674 7.59351V3.14233C48.5674 2.21772 47.8143 1.4648 46.8898 1.4648Z"></path>
<path stroke-linejoin="round" stroke-linecap="round" stroke-miterlimit="10" stroke-width="3" stroke="#018D43" d="M86.4576 23.5164C91.8889 23.5164 96.3178 19.0873 96.3178 13.6561C96.3178 8.22482 91.8889 3.79572 86.4576 3.79572C81.0266 3.79572 76.5977 8.22482 76.5977 13.6561C76.5977 19.0873 81.0266 23.5164 86.4576 23.5164Z"></path>
<path stroke-linejoin="round" stroke-linecap="round" stroke-miterlimit="10" stroke-width="3" stroke="#018D43" d="M75.8887 51.5585C75.1635 41.0227 62.0146 42.3071 62.0146 51.5585V60.6438V69.7346C62.0146 83.3542 86.4354 83.3542 86.4574 65.3995"></path>
<path stroke-linejoin="round" stroke-linecap="round" stroke-miterlimit="10" stroke-width="3" stroke="#018D43" d="M86.458 46.011V65.3997M86.458 23.5165V39.6829"></path>
<path stroke-linejoin="round" stroke-linecap="round" stroke-miterlimit="10" stroke-width="3" stroke="#018D43" d="M86.4576 17.0942C88.351 17.0942 89.8957 15.5495 89.8957 13.6559C89.8957 11.7625 88.351 10.2178 86.4576 10.2178C84.5643 10.2178 83.0195 11.7625 83.0195 13.6559C83.0195 15.5495 84.5643 17.0942 86.4576 17.0942Z"></path>
</g>
</svg>
