<svg xmlns="http://www.w3.org/2000/svg" fill="none" viewBox="0 0 100 100" height="100" width="100">
<g clip-path="url(#clip0_739_3301)">
<mask height="100" width="100" y="0" x="0" maskUnits="userSpaceOnUse" style="mask-type:luminance" id="mask0_739_3301">
<path fill="white" d="M0 7.62939e-06H100V100H0V7.62939e-06Z"></path>
</mask>
<g mask="url(#mask0_739_3301)">
<path stroke-linejoin="round" stroke-linecap="round" stroke-miterlimit="10" stroke-width="3" stroke="#018D43" d="M78.4218 72.2628C74.8792 68.9833 70.8018 65.8477 66.4007 63.6108C65.4169 63.111 64.795 62.1038 64.795 61.0005V45.5717C64.795 45.1305 65.2851 44.8659 65.6542 45.1075L68.2575 46.812C69.5157 47.6358 71.1938 47.368 72.1331 46.1938L76.5673 40.651C77.5772 39.3889 77.3679 37.546 76.1009 36.5423L69.4661 31.2872C66.5292 28.9606 62.8923 27.6948 59.1454 27.6948H49.9999H40.8544C37.1075 27.6948 33.4708 28.9606 30.5337 31.287L23.8989 36.5423C22.6317 37.546 22.4226 39.3889 23.4325 40.651L27.8667 46.1938C28.806 47.368 30.4843 47.6358 31.7423 46.812L34.3456 45.1075C34.7147 44.8659 35.2046 45.1305 35.2046 45.5717V61.0005C35.2046 62.1038 34.5829 63.111 33.5991 63.6108C29.1979 65.8477 25.1206 68.9833 21.578 72.2628C15.5229 77.8682 19.4759 87.9883 27.7274 87.9883H39.1343H72.2724C80.5239 87.9883 84.477 77.8682 78.4218 72.2628Z"></path>
<path stroke-linejoin="round" stroke-linecap="round" stroke-miterlimit="10" stroke-width="3" stroke="#018D43" d="M59.1451 27.6949H40.8541C40.8025 27.6949 40.7516 27.6976 40.7002 27.6982C42.1365 31.4379 45.7701 34.1115 49.9996 34.1115C54.2293 34.1115 57.8627 31.4379 59.299 27.6982C59.2477 27.6976 59.1965 27.6949 59.1451 27.6949Z"></path>
<path stroke-linejoin="round" stroke-linecap="round" stroke-miterlimit="10" stroke-width="3" stroke="#018D43" d="M51.5697 76.9201C49.4592 77.201 47.2631 77.5125 45.1481 77.8441C41.5031 78.416 38.7344 80.3172 36.7524 82.3215C34.6754 84.4217 36.1809 87.9883 39.1344 87.9883H53.249L51.5697 76.9201Z"></path>
<path stroke-linejoin="round" stroke-linecap="round" stroke-miterlimit="10" stroke-width="3" stroke="#018D43" d="M50.0004 77.1328C42.8811 76.1514 36.2549 75.4773 36.2549 75.4773"></path>
<path stroke-linejoin="round" stroke-linecap="round" stroke-miterlimit="10" stroke-width="3" stroke="#018D43" d="M63.7455 75.4774C63.7455 75.4774 57.1193 76.1512 50 77.1329"></path>
<path stroke-linejoin="round" stroke-linecap="round" stroke-miterlimit="10" stroke-width="3" stroke="#018D43" d="M78.4468 72.2857C74.9013 69.0005 70.8189 65.8579 66.4112 63.6162C65.7687 63.2892 65.2794 62.7482 65.0151 62.1052C55.4398 66.3093 44.5462 66.3347 34.956 62.1777C34.6853 62.789 34.2077 63.3015 33.5892 63.6162C29.1816 65.8579 25.0991 69.0005 21.5538 72.2857C15.513 77.8828 19.4927 87.9882 27.7278 87.9882H39.1347H72.2726C80.5077 87.9882 84.4874 77.8828 78.4468 72.2857Z"></path>
<path stroke-linejoin="round" stroke-linecap="round" stroke-miterlimit="10" stroke-width="3" stroke="#018D43" d="M94.0103 42.1057L77.8924 39.776L77.1783 39.2168C77.1105 39.7248 76.9115 40.2217 76.568 40.6512L72.1338 46.194C71.6633 46.7819 71.0078 47.1424 70.3125 47.2526L72.49 48.9576C73.2158 49.5258 74.0775 49.8942 74.9896 50.026L92.4996 52.5569C92.7557 52.5938 93.0102 52.6119 93.2617 52.6119C95.843 52.6119 98.1004 50.7164 98.4807 48.0867C98.8977 45.2006 96.8963 42.5229 94.0103 42.1057Z"></path>
<path stroke-linejoin="round" stroke-linecap="round" stroke-miterlimit="10" stroke-width="3" stroke="#018D43" d="M27.5103 48.9576L29.688 47.2526C28.9927 47.1424 28.337 46.7819 27.8667 46.194L23.4325 40.6512C23.089 40.2215 22.89 39.7248 22.8222 39.2168L22.1079 39.776L5.98996 42.1057C3.10421 42.5229 1.10265 45.2006 1.51984 48.0867C1.89992 50.7166 4.15714 52.6119 6.73878 52.6119C6.99015 52.6119 7.24484 52.5938 7.50089 52.5569L25.0109 50.026C25.923 49.8942 26.7847 49.5258 27.5103 48.9576Z"></path>
<path stroke-linejoin="round" stroke-linecap="round" stroke-miterlimit="10" stroke-width="3" stroke="#018D43" d="M53.418 98.5352H96.959C98.0508 98.5352 98.8112 97.4514 98.4401 96.4248L91.8225 78.1246C91.3538 76.8283 90.1231 75.9646 88.7448 75.9646H80.878C82.7745 81.4453 78.8932 87.9883 72.2725 87.9883H27.7278C21.1014 87.9883 17.2272 81.4408 19.1221 75.9646H11.2555C9.877 75.9646 8.64633 76.8283 8.17758 78.1246L1.56 96.4248C1.18891 97.4514 1.94926 98.5352 3.04106 98.5352H46.5821"></path>
<path stroke-linejoin="round" stroke-linecap="round" stroke-miterlimit="10" stroke-width="3" stroke="#018D43" d="M59.349 8.00437C57.9469 4.19832 54.277 1.46492 49.9996 1.46492C44.5229 1.46492 40.042 5.94578 40.042 11.4223C40.042 16.8991 44.5229 21.3798 49.9996 21.3798C54.277 21.3798 57.9469 18.6466 59.349 14.8403"></path>
</g>
</g>
<defs>
<clipPath id="clip0_739_3301">
<rect fill="white" height="100" width="100"></rect>
</clipPath>
</defs>
</svg>
