<svg xmlns="http://www.w3.org/2000/svg" fill="none" viewBox="0 0 100 100" height="100" width="100">
<path fill="#018D43" d="M78.7266 27.0297C71.5547 27.0297 64.9656 29.5469 59.7719 33.7297C59.0547 26.8609 56.0391 20.4813 51.0859 15.5063C50.4969 14.9172 49.4594 14.9172 48.8703 15.5063C43.9156 20.4844 40.9047 26.85 40.1875 33.6984C35 29.5359 28.4281 27.0297 21.2734 27.0297C20.4094 27.0297 19.7109 27.7281 19.7109 28.5922C19.7109 45.2922 33.2984 58.8797 50 58.8797C66.7016 58.8797 80.2891 45.2938 80.2891 28.5922C80.2891 27.7281 79.5906 27.0297 78.7266 27.0297ZM49.9781 18.8891C54.2875 23.7484 56.675 29.9 56.7984 36.4844C53.7672 39.6734 51.4219 43.5125 50.0016 47.7781C48.5734 43.4906 46.2125 39.6328 43.1594 36.4344C43.2641 29.9234 45.65 23.7656 49.9781 18.8891ZM22.8844 30.2016C36.5844 31.0063 47.5875 42.0094 48.3906 55.7062C34.6906 54.9016 23.6875 43.8984 22.8844 30.2016ZM51.6109 55.7062C52.4156 42.0078 63.4187 31.0047 77.1172 30.2016C76.3125 43.9 65.3094 54.9031 51.6109 55.7062Z"></path>
<path fill="#018D43" d="M76.7502 3.125H23.2502C13.9174 3.125 6.3252 10.7172 6.3252 20.05V51.1203C6.3252 60.4531 13.9174 68.0453 23.2502 68.0453H30.7346C34.6549 68.0453 38.3439 69.7484 40.9299 72.5922C29.0486 73.8781 17.8908 77.8922 17.8908 84.4859C17.8908 92.5328 34.4346 96.8766 50.0002 96.8766C65.5658 96.8766 82.1096 92.5344 82.1096 84.4859C82.1096 77.8922 70.9502 73.8781 59.0705 72.5922C61.658 69.75 65.3455 68.0453 69.2658 68.0453H76.7502C86.083 68.0453 93.6752 60.4531 93.6752 51.1203V20.05C93.6752 10.7172 86.083 3.125 76.7502 3.125ZM78.9846 84.4844C78.9846 88.8672 67.0814 93.75 50.0002 93.75C32.9189 93.75 21.0158 88.8672 21.0158 84.4844C21.0158 80.9328 29.2346 76.6844 43.0236 75.5313L48.6471 85.2703C48.9268 85.7547 49.4424 86.0516 50.0002 86.0516C50.558 86.0516 51.0752 85.7547 51.3533 85.2703L56.9768 75.5313C70.7658 76.6844 78.9846 80.9328 78.9846 84.4844ZM90.5502 51.1187C90.5502 58.7281 84.3596 64.9188 76.7502 64.9188H69.2658C63.2408 64.9188 57.6236 68.1609 54.608 73.3813L50.0002 81.3625L45.3924 73.3813C42.3768 68.1609 36.7611 64.9188 30.7346 64.9188H23.2502C15.6408 64.9188 9.4502 58.7281 9.4502 51.1187V20.05C9.4502 12.4406 15.6408 6.25 23.2502 6.25H76.7502C84.3596 6.25 90.5502 12.4406 90.5502 20.05V51.1187Z"></path>
</svg>
