<svg xmlns="http://www.w3.org/2000/svg" fill="none" viewBox="0 0 189 196" height="196" width="189">
<g clip-path="url(#clip0_112_837)">
<path fill="#018D43" d="M44.4829 14.6087C44.4829 14.6087 45.1955 14.123 46.6029 13.3277C47.3014 12.923 48.1656 12.4268 49.178 11.839C50.208 11.2865 51.4108 10.6812 52.7477 9.99145C53.0864 9.82253 53.4215 9.63601 53.7848 9.47412C54.1446 9.30872 54.515 9.14332 54.8924 8.97087C55.6508 8.62951 56.441 8.27055 57.2699 7.89751C57.478 7.80601 57.6861 7.71099 57.8943 7.61597C58.1094 7.53151 58.3246 7.44353 58.5433 7.35555C58.9807 7.1831 59.4287 7.00714 59.8837 6.82766C60.7973 6.47574 61.7321 6.0851 62.7163 5.72966C64.7022 5.07509 66.7904 4.29382 69.0621 3.70259C69.6265 3.54422 70.198 3.38234 70.7765 3.22045C71.0657 3.13951 71.3549 3.05857 71.6477 2.97762C71.944 2.91076 72.2403 2.84037 72.5402 2.77351C73.7395 2.49901 74.967 2.22099 76.2158 1.93593C86.276 -0.0700283 98.3575 -0.833701 110.933 1.18986C117.208 2.18932 123.582 3.85039 129.78 6.19772C135.978 8.53801 141.992 11.5857 147.583 15.1999C153.177 18.8106 158.352 22.9985 162.938 27.5559C167.527 32.1133 171.527 37.0403 174.868 42.0868C178.212 47.1334 180.896 52.2926 182.967 57.3005C185.065 62.3013 186.455 67.186 187.411 71.6554C188.409 76.1213 188.769 80.2318 188.97 83.7475C188.991 85.5177 188.991 87.1435 188.942 88.6075C188.833 90.0821 188.702 91.3948 188.547 92.5385C188.505 92.8236 188.473 93.0981 188.423 93.3655C188.367 93.6295 188.311 93.8829 188.258 94.1292C188.145 94.6149 188.028 95.0583 187.908 95.456C187.669 96.2513 187.415 96.8672 187.143 97.293C186.603 98.1447 186.004 98.2432 185.333 97.5218C185.333 97.5218 185.284 96.7123 185.192 95.2483C185.171 94.8823 185.146 94.4776 185.122 94.0307C185.108 93.809 185.101 93.5767 185.076 93.3374C185.051 93.0981 185.023 92.8482 184.995 92.5878C184.885 91.5566 184.762 90.3812 184.624 89.0826C184.43 87.7946 184.215 86.3834 183.99 84.8701C183.873 84.1135 183.69 83.3428 183.538 82.5439C183.379 81.745 183.213 80.9251 183.044 80.084C182.226 76.7513 181.309 73.0983 179.958 69.3925C179.358 67.5133 178.547 65.6657 177.82 63.7618C177.404 62.8292 176.988 61.8931 176.568 60.9499C176.356 60.4818 176.159 60.0032 175.933 59.5387L175.238 58.1521L174.547 56.7585C174.314 56.294 174.095 55.8259 173.834 55.3754C173.333 54.4675 172.832 53.5595 172.335 52.6551C172.095 52.1976 171.823 51.7577 171.555 51.3178C171.287 50.8779 171.023 50.438 170.758 49.9981C170.494 49.5582 170.229 49.1183 169.968 48.6819C169.707 48.2455 169.411 47.8302 169.135 47.4079C168.582 46.5598 168.028 45.7187 167.485 44.8881C166.906 44.0787 166.335 43.2763 165.77 42.4845C165.488 42.0903 165.216 41.6856 164.931 41.302C164.638 40.922 164.349 40.5454 164.059 40.1688C163.488 39.4122 162.927 38.6697 162.373 37.9412C161.795 37.2303 161.23 36.537 160.677 35.8543C160.402 35.5094 160.133 35.168 159.865 34.8337C159.601 34.4923 159.312 34.1862 159.043 33.8659C157.95 32.6025 156.973 31.3391 155.978 30.2481C152.133 25.7435 147.572 21.4184 141.692 17.2974C141.325 17.0369 140.955 16.7765 140.581 16.5126C140.2 16.2592 139.808 16.0199 139.42 15.77C138.634 15.2773 137.833 14.7741 137.018 14.2638C136.196 13.7605 135.329 13.3101 134.461 12.8209C133.586 12.3458 132.701 11.8285 131.762 11.3991C130.828 10.9522 129.872 10.4947 128.902 10.0302C127.921 9.5797 126.898 9.18555 125.864 8.74916C125.346 8.53449 124.82 8.31982 124.291 8.10514C123.751 7.9151 123.208 7.72155 122.658 7.52799C122.108 7.33443 121.55 7.14087 120.986 6.9438C120.422 6.75024 119.854 6.53909 119.268 6.38072C118.097 6.04287 116.901 5.69799 115.684 5.34959C114.457 5.02582 113.19 4.75836 111.899 4.4557C110.612 4.13193 109.275 3.94189 107.917 3.69555C107.236 3.57941 106.548 3.45624 105.853 3.34714C105.155 3.26268 104.446 3.17822 103.733 3.09376C98.0153 2.41103 91.7435 2.19284 84.9391 2.77703C78.1417 3.36122 70.8223 4.75836 63.1713 7.30276C62.2189 7.63005 61.27 7.99605 60.3035 8.34797C59.8202 8.52745 59.337 8.70693 58.8502 8.88641C58.3599 9.05886 57.8872 9.28409 57.4039 9.48468C56.4374 9.89643 55.4639 10.3152 54.4797 10.734C53.5061 11.1739 52.5396 11.6666 51.5555 12.1382C51.0651 12.3775 50.5713 12.6203 50.0739 12.8596C49.5871 13.1165 49.1039 13.3875 48.6136 13.655C47.64 14.1969 46.6453 14.7248 45.6611 15.2949C44.6946 15.8897 43.714 16.4915 42.7298 17.1003C42.4829 17.2516 42.236 17.4065 41.989 17.5578C41.7421 17.7126 41.5058 17.8851 41.2624 18.047C40.7791 18.3778 40.2959 18.7086 39.8056 19.0429C39.8056 19.0429 39.4175 19.2928 38.8002 19.6904C38.1724 20.074 37.3505 20.6653 36.451 21.2987C35.9995 21.6155 35.5303 21.9463 35.0576 22.2736C34.5885 22.6044 34.1088 22.9246 33.6784 23.266C32.8036 23.9311 31.9923 24.5329 31.3962 24.9517C30.2039 25.7928 29.8547 25.9089 31.5196 24.3394C31.9359 23.9487 32.4791 23.449 33.1669 22.8331C33.3398 22.6783 33.5197 22.5164 33.7102 22.3475C33.9077 22.1856 34.1158 22.0202 34.331 21.8442C34.7684 21.4958 35.2411 21.1157 35.7561 20.7005C36.2746 20.2922 36.8355 19.8488 37.4387 19.3702C38.063 18.9233 38.7368 18.4446 39.4528 17.9308C39.8126 17.6739 40.1865 17.41 40.571 17.139C40.9555 16.8645 41.3506 16.583 41.7774 16.3225C42.631 15.7876 43.5305 15.214 44.4829 14.6087Z"></path>
<path fill="#018D43" d="M22.8496 34.6085C22.8496 34.6085 23.0965 34.334 23.5656 33.8167C23.802 33.5598 24.0912 33.2395 24.4369 32.8629C24.7967 32.5005 25.213 32.0852 25.6786 31.6171C26.1477 31.1491 26.6663 30.6318 27.2342 30.0652C27.3753 29.9244 27.5199 29.7801 27.6681 29.6323C27.8233 29.4915 27.9785 29.3472 28.1407 29.2029C28.4617 28.9109 28.7968 28.6082 29.1425 28.295C29.8374 27.6721 30.5641 26.9894 31.3648 26.3031C32.1796 25.6344 33.0403 24.9271 33.9434 24.188C37.6048 21.2917 42.1482 18.1103 47.4852 15.207C52.8116 12.2966 58.9282 9.6677 65.4998 7.72861C72.0679 5.78247 79.0839 4.52963 86.0753 4.12843C93.0667 3.70613 100.026 4.1777 106.478 5.3109C112.933 6.44409 118.877 8.27409 123.964 10.4103C129.064 12.5324 133.276 15.0416 136.511 17.3044C138.112 18.4693 139.216 19.3245 139.837 20.0107C140.472 20.6723 140.677 21.063 140.518 21.2178C140.19 21.5381 138.44 20.8483 135.541 19.7151C135.181 19.5673 134.807 19.4089 134.412 19.247C134.02 19.0816 133.597 18.9409 133.167 18.7719C132.302 18.4447 131.378 18.0857 130.398 17.6951C128.401 17.0088 126.196 16.1712 123.745 15.4604C118.87 13.9682 113.145 12.6274 107.014 11.8707C100.891 11.1035 94.3648 10.9241 88.0401 11.3992C81.7119 11.8602 75.5953 12.9793 70.2089 14.4503C64.8155 15.9108 60.1628 17.7127 56.5719 19.2048C55.6759 19.5884 54.8399 19.9368 54.0709 20.25C53.316 20.5914 52.6317 20.9081 52.0144 21.1756C50.7833 21.7105 49.8309 22.0695 49.2489 22.2736C48.6563 22.4636 48.0214 22.6783 47.3441 22.9176C46.6703 23.1639 45.9366 23.4068 45.2029 23.7481C44.4622 24.0754 43.6756 24.4309 42.8501 24.8215C42.441 25.0186 42.0036 25.2051 41.5838 25.4374C41.1605 25.6696 40.7301 25.9054 40.2857 26.1483C36.7053 28.0662 32.61 30.7866 28.2077 34.5874C27.0719 35.5059 26.0137 36.5757 24.8637 37.6526C24.578 37.9236 24.2923 38.1981 24.003 38.4761C23.7208 38.7612 23.4492 39.0568 23.167 39.3524C22.6062 39.9472 22.0383 40.5525 21.4598 41.1683C20.8672 41.7772 20.3239 42.4423 19.7595 43.1109C19.1952 43.7831 18.6237 44.4694 18.0417 45.1627C17.4808 45.8735 16.9376 46.6196 16.3697 47.3657C15.8159 48.1223 15.2127 48.8684 14.6906 49.6849C14.1509 50.4908 13.6042 51.3108 13.0468 52.1448C12.9093 52.3524 12.7682 52.5636 12.6306 52.7747C12.5001 52.9929 12.3731 53.2076 12.2426 53.4258C11.9815 53.8622 11.7205 54.3056 11.456 54.749C11.1914 55.196 10.9268 55.6429 10.6623 56.0969C10.5282 56.3221 10.3977 56.5509 10.2637 56.7796C10.1402 57.0154 10.0168 57.2477 9.8933 57.4835C9.39946 58.4302 8.89857 59.3909 8.39062 60.3657C8.12606 60.8514 7.90736 61.3582 7.67455 61.8649C7.44174 62.3717 7.20892 62.8855 6.97611 63.3993C6.7433 63.9166 6.50696 64.4375 6.27063 64.9618C6.04487 65.4897 5.84381 66.0317 5.62863 66.5737C5.2124 67.6611 4.75383 68.7556 4.35876 69.8888C3.98132 71.029 3.60036 72.1833 3.21234 73.3552C3.21234 73.3552 3.16648 73.0737 3.27936 72.0601C3.3358 71.5534 3.4381 70.8601 3.60389 69.9275C3.64621 69.6952 3.68854 69.4453 3.74498 69.1814C3.80848 68.921 3.87903 68.643 3.94957 68.3509C4.09773 67.7632 4.27057 67.1121 4.47163 66.3836C5.26883 63.4767 6.66923 59.4191 9.35008 54.0382C9.69224 53.3695 10.045 52.6762 10.4154 51.9548C10.7893 51.2404 11.2267 50.5295 11.657 49.7764C12.0944 49.0303 12.5389 48.2561 13.0186 47.4678C13.5266 46.697 14.0486 45.8982 14.5918 45.0782C14.8635 44.67 15.1421 44.2512 15.4208 43.8289C15.71 43.4101 16.024 43.0019 16.3309 42.5795C16.9552 41.7384 17.5972 40.8727 18.2604 39.9788C19.6819 38.2685 21.1282 36.4103 22.8496 34.6085Z"></path>
<path fill="#018D43" d="M39.8304 176.96C41.7529 178.333 43.7494 179.512 45.6824 180.705C46.6666 181.272 47.6578 181.803 48.6314 182.341C49.1217 182.609 49.6014 182.88 50.0917 183.137C50.5856 183.38 51.0794 183.619 51.5697 183.858C52.5539 184.33 53.5169 184.822 54.4904 185.262C55.4746 185.681 56.4482 186.1 57.4147 186.512C57.9015 186.709 58.3706 186.937 58.8609 187.11C59.3477 187.289 59.831 187.469 60.3142 187.648C61.2807 188 62.2296 188.366 63.182 188.69C70.8295 191.231 78.1489 192.628 84.9428 193.212C91.7437 193.796 98.0155 193.578 103.733 192.896C104.45 192.811 105.155 192.727 105.853 192.642C106.552 192.533 107.236 192.41 107.917 192.294C109.275 192.047 110.612 191.861 111.899 191.534C113.19 191.231 114.457 190.963 115.684 190.64C116.905 190.288 118.097 189.943 119.268 189.605C119.854 189.447 120.422 189.236 120.986 189.042C121.551 188.845 122.108 188.651 122.658 188.458C123.208 188.264 123.755 188.071 124.295 187.881C124.824 187.662 125.35 187.448 125.868 187.237C126.902 186.8 127.928 186.406 128.909 185.956C129.879 185.491 130.835 185.034 131.769 184.583C132.711 184.154 133.593 183.636 134.472 183.161C135.343 182.672 136.211 182.222 137.032 181.718C137.847 181.208 138.648 180.705 139.435 180.212C139.826 179.962 140.218 179.723 140.595 179.47C140.969 179.206 141.339 178.945 141.706 178.685C147.587 174.56 152.151 170.232 155.992 165.731C156.984 164.636 157.961 163.373 159.054 162.113C159.322 161.793 159.612 161.483 159.873 161.145C160.141 160.811 160.409 160.469 160.684 160.124C161.238 159.445 161.802 158.748 162.377 158.041C162.927 157.313 163.492 156.57 164.063 155.817C164.352 155.444 164.642 155.064 164.934 154.684C165.22 154.297 165.488 153.895 165.774 153.501C166.338 152.709 166.91 151.911 167.488 151.101C168.032 150.271 168.585 149.43 169.139 148.581C169.414 148.156 169.711 147.744 169.972 147.307C170.233 146.871 170.497 146.431 170.762 145.991C171.026 145.551 171.294 145.115 171.559 144.672C171.827 144.232 172.102 143.795 172.339 143.334C172.836 142.43 173.337 141.522 173.838 140.614C174.099 140.167 174.321 139.695 174.55 139.231L175.242 137.837L175.937 136.451C176.162 135.986 176.36 135.507 176.571 135.039C176.991 134.1 177.407 133.16 177.824 132.231C178.55 130.327 179.365 128.48 179.961 126.6C181.312 122.898 182.229 119.242 183.048 115.912C183.217 115.071 183.379 114.251 183.542 113.452C183.693 112.654 183.877 111.883 183.993 111.126C184.222 109.613 184.434 108.202 184.628 106.914C184.766 105.615 184.889 104.44 184.998 103.409C185.027 103.152 185.055 102.902 185.08 102.659C185.104 102.42 185.108 102.187 185.125 101.966C185.15 101.522 185.175 101.114 185.196 100.748C185.288 99.284 185.337 98.4746 185.337 98.4746C186.004 97.7567 186.607 97.8517 187.147 98.7034C187.415 99.1292 187.672 99.7451 187.912 100.54C188.032 100.938 188.148 101.382 188.261 101.867C188.314 102.11 188.371 102.367 188.427 102.631C188.48 102.895 188.512 103.169 188.551 103.458C188.706 104.602 188.836 105.914 188.946 107.385C188.995 108.853 188.992 110.475 188.974 112.245C188.773 115.761 188.417 119.872 187.415 124.337C186.459 128.807 185.069 133.692 182.974 138.689C180.903 143.697 178.219 148.856 174.875 153.902C171.534 158.949 167.538 163.876 162.948 168.433C158.363 172.994 153.192 177.179 147.594 180.793C141.999 184.407 135.988 187.451 129.791 189.795C123.593 192.142 117.222 193.804 110.947 194.803C98.3717 196.827 86.2903 196.066 76.23 194.06C74.9778 193.775 73.7502 193.494 72.5544 193.223C72.2546 193.152 71.9583 193.086 71.662 193.019C71.3692 192.938 71.08 192.857 70.7907 192.776C70.2122 192.614 69.6408 192.452 69.0764 192.294C66.8047 191.703 64.72 190.925 62.7305 190.267C61.7464 189.915 60.8116 189.524 59.898 189.172C59.4429 188.993 58.995 188.817 58.5576 188.644C58.3389 188.556 58.1202 188.472 57.9085 188.384C57.6969 188.289 57.4887 188.194 57.2842 188.102C56.4587 187.729 55.6651 187.37 54.9102 187.029C54.5328 186.857 54.1624 186.688 53.8026 186.526C53.4393 186.364 53.1041 186.174 52.7655 186.008C51.4286 185.319 50.2258 184.713 49.1957 184.161C48.1834 183.577 47.3192 183.077 46.6207 182.672C45.9258 182.264 45.3791 181.965 45.0298 181.736C44.6771 181.511 44.4972 181.391 44.4972 181.391C43.5448 180.786 42.6453 180.212 41.7987 179.674C41.3719 179.41 40.9733 179.132 40.5888 178.854C40.2043 178.579 39.8304 178.315 39.4706 178.062C38.751 177.548 38.0808 177.07 37.4529 176.619C36.8497 176.141 36.2889 175.701 35.7703 175.289C35.2553 174.877 34.7791 174.493 34.3452 174.145C34.1265 173.969 33.9219 173.8 33.7244 173.642C33.5339 173.473 33.354 173.311 33.1812 173.156C32.4933 172.54 31.9501 172.041 31.5339 171.65C29.8689 170.08 30.2181 170.197 31.4139 171.038C32.0136 171.46 32.8214 172.062 33.6997 172.73C34.1301 173.072 34.6098 173.392 35.0825 173.723C35.5516 174.054 36.0243 174.384 36.4758 174.701C36.9273 175.018 37.3577 175.324 37.7527 175.602C38.1443 175.887 38.5217 176.105 38.8286 176.313C39.4424 176.707 39.8304 176.96 39.8304 176.96Z"></path>
<path fill="#018D43" d="M49.2591 173.723C49.8411 173.927 50.7935 174.286 52.0281 174.821C52.6454 175.088 53.3298 175.405 54.0846 175.747C54.8536 176.06 55.6931 176.408 56.5856 176.792C60.1765 178.284 64.8292 180.086 70.2227 181.546C75.6091 183.017 81.7292 184.136 88.0574 184.594C94.3821 185.065 100.908 184.886 107.031 184.119C113.162 183.362 118.891 182.021 123.762 180.526C126.214 179.815 128.418 178.977 130.415 178.287C131.395 177.897 132.32 177.538 133.184 177.211C133.614 177.042 134.037 176.901 134.429 176.735C134.821 176.57 135.198 176.415 135.558 176.267C138.457 175.134 140.207 174.444 140.535 174.765C140.697 174.92 140.489 175.31 139.858 175.972C139.237 176.658 138.136 177.517 136.531 178.678C133.3 180.941 129.092 183.454 123.988 185.572C118.901 187.712 112.961 189.542 106.502 190.675C100.051 191.812 93.0946 192.283 86.0996 191.865C79.1047 191.463 72.0887 190.214 65.5206 188.268C58.9454 186.332 52.8324 183.704 47.5024 180.793C42.1654 177.89 37.6186 174.708 33.9571 171.812C33.0541 171.073 32.1934 170.366 31.375 169.697C30.5707 169.014 29.8476 168.328 29.1492 167.705C28.8035 167.392 28.4684 167.089 28.1474 166.797C27.9851 166.649 27.8299 166.509 27.6747 166.368C27.5266 166.22 27.3819 166.076 27.2408 165.935C26.6729 165.368 26.1544 164.851 25.6852 164.383C25.2196 163.915 24.8034 163.5 24.4436 163.137C24.1014 162.761 23.8087 162.44 23.5723 162.183C23.1032 161.666 22.8562 161.392 22.8562 161.392C21.1349 159.586 19.6851 157.732 18.2671 156.018C17.6039 155.124 16.9619 154.258 16.3375 153.417C16.0307 152.995 15.7167 152.583 15.4275 152.168C15.1453 151.745 14.8701 151.327 14.5985 150.918C14.0588 150.095 13.5332 149.3 13.0253 148.525C12.542 147.737 12.1011 146.963 11.6637 146.217C11.2333 145.467 10.7959 144.753 10.422 144.038C10.0552 143.32 9.69891 142.627 9.35675 141.955C6.67237 136.571 5.27551 132.516 4.47831 129.613C4.27724 128.885 4.1044 128.233 3.95624 127.646C3.88217 127.354 3.81515 127.076 3.75165 126.815C3.69169 126.555 3.65289 126.305 3.60703 126.069C3.44124 125.137 3.34247 124.447 3.2825 123.94C3.1661 122.926 3.21548 122.648 3.21548 122.648C3.6035 123.82 3.98446 124.975 4.3619 126.115C4.7605 127.248 5.21554 128.343 5.63178 129.43C5.84695 129.972 6.04801 130.514 6.2773 131.042C6.51364 131.566 6.74997 132.087 6.98278 132.601C7.2156 133.115 7.44841 133.628 7.68122 134.135C7.91403 134.642 8.13273 135.149 8.39729 135.634C8.90524 136.609 9.40613 137.57 9.89997 138.517C10.0234 138.752 10.1469 138.988 10.2704 139.22C10.4044 139.449 10.5384 139.678 10.6725 139.903C10.9406 140.354 11.2051 140.804 11.4662 141.251C11.7307 141.695 11.9917 142.134 12.2528 142.574C12.3833 142.793 12.5138 143.011 12.6443 143.225C12.7854 143.437 12.923 143.644 13.0606 143.855C13.6179 144.689 14.1646 145.506 14.7043 146.315C15.2264 147.132 15.8296 147.878 16.3834 148.634C16.9513 149.384 17.491 150.127 18.0554 150.837C18.6374 151.531 19.2089 152.217 19.7733 152.889C20.3377 153.558 20.8809 154.223 21.4735 154.832C22.052 155.448 22.6199 156.053 23.1808 156.648C23.463 156.943 23.7346 157.239 24.0168 157.524C24.306 157.802 24.5917 158.077 24.8775 158.348C26.0274 159.424 27.0856 160.494 28.2215 161.413C32.6237 165.214 36.7191 167.934 40.2994 169.852C40.7439 170.095 41.1777 170.33 41.5975 170.563C42.0173 170.792 42.4547 170.978 42.8639 171.179C43.6928 171.566 44.4759 171.925 45.2167 172.252C45.9468 172.593 46.6876 172.836 47.3578 173.083C48.0316 173.318 48.663 173.533 49.2591 173.723Z"></path>
<path fill="#018D43" d="M23.262 45.2428C23.7558 44.8521 24.1297 44.6163 24.3907 44.5213C24.6624 44.4298 24.8176 44.4756 24.874 44.6339C24.9798 44.9436 24.74 45.746 24.2179 46.8581C23.9604 47.4141 23.6359 48.0546 23.2549 48.7549C22.8986 49.4694 22.5106 50.2612 22.0767 51.0952C21.858 51.5105 21.6323 51.9363 21.3995 52.3762C21.1596 52.8091 20.9586 53.2807 20.7293 53.7452C20.2742 54.6743 19.8016 55.6386 19.3183 56.6204C17.4558 60.576 15.7909 64.9047 14.6303 68.255C14.1047 69.9478 13.6603 71.3801 13.3499 72.3901C13.0818 73.4107 12.9231 74.0054 12.9231 74.0054C11.3145 80.1113 10.3727 86.2453 10.0129 91.9641C9.64607 97.6828 9.84713 102.976 10.2739 107.442C10.4045 108.557 10.5315 109.624 10.6479 110.634C10.6937 111.14 10.789 111.63 10.8666 112.105C10.9442 112.58 11.0218 113.041 11.0958 113.488C11.1699 113.935 11.2405 114.367 11.3075 114.783C11.3428 114.99 11.3745 115.195 11.4063 115.395C11.4486 115.592 11.4909 115.789 11.5332 115.979C11.6955 116.743 11.8472 117.443 11.9812 118.073C12.1188 118.703 12.2246 119.27 12.3446 119.755C12.4715 120.238 12.5809 120.649 12.6656 120.984C12.8384 121.649 12.9301 122.004 12.9301 122.004C12.9301 122.004 13.0853 122.599 13.3569 123.62C13.6709 124.63 14.1153 126.062 14.6374 127.751C15.7979 131.098 17.4664 135.427 19.3253 139.382C19.8051 140.364 20.2813 141.328 20.7363 142.257C20.9691 142.722 21.1667 143.193 21.4101 143.626C21.6429 144.066 21.8686 144.492 22.0873 144.907C22.5212 145.738 22.9092 146.53 23.2655 147.244C23.6429 147.944 23.9675 148.581 24.225 149.137C24.7435 150.25 24.9869 151.052 24.8811 151.362C24.8246 151.52 24.6659 151.562 24.3943 151.474C24.1297 151.379 23.7593 151.143 23.2655 150.753C22.5424 150.179 21.791 149.549 21.015 148.87C20.2601 148.177 19.5194 147.41 18.7398 146.611C18.3553 146.206 17.9532 145.801 17.5722 145.368C17.2018 144.928 16.8244 144.478 16.4434 144.024C16.066 143.563 15.685 143.095 15.297 142.62C15.1065 142.381 14.9055 142.145 14.7256 141.895C14.5457 141.645 14.3622 141.392 14.1823 141.138C13.4628 140.118 12.7044 139.076 11.9989 137.982C11.3145 136.876 10.6302 135.74 9.94237 134.585C9.29685 133.414 8.68308 132.21 8.05872 130.999C7.7342 130.398 7.46258 129.775 7.18744 129.152L6.3585 127.276C4.21029 122.244 2.64411 116.986 1.62115 112.122C1.39892 110.898 1.18375 109.708 0.972102 108.554C0.922717 108.265 0.866278 107.98 0.823949 107.695C0.788675 107.41 0.7534 107.125 0.718126 106.847C0.647577 106.284 0.580556 105.735 0.513535 105.193C0.450041 104.651 0.386547 104.123 0.323053 103.609C0.294834 103.352 0.25956 103.095 0.238395 102.842C0.220758 102.589 0.203121 102.339 0.189011 102.092C0.125517 101.107 0.0655506 100.174 0.012639 99.3052C-0.0296902 98.0383 0.044386 96.7748 0.0867152 95.5079C0.153736 94.6105 0.185483 93.6568 0.294834 92.6609C0.414767 91.6649 0.541754 90.6232 0.672269 89.5393C0.746346 88.9973 0.792202 88.4448 0.894498 87.8888C0.993266 87.3327 1.09556 86.7662 1.19786 86.1925C1.30368 85.6189 1.4095 85.0382 1.51533 84.447C1.56824 84.1514 1.62468 83.8558 1.68112 83.5601C1.74108 83.2645 1.81869 82.9654 1.88923 82.6662C2.17848 81.4767 2.47479 80.2556 2.77462 79.0168C3.12031 77.7886 3.51186 76.5533 3.89282 75.3075C3.98806 74.9978 4.08683 74.6846 4.18207 74.3714C4.28789 74.0617 4.40782 73.752 4.5207 73.4424C4.74999 72.8265 4.97927 72.2036 5.20855 71.5842C5.44489 70.9648 5.66359 70.3419 5.91757 69.726C6.18565 69.1172 6.45374 68.5084 6.72182 67.8996L7.53313 66.0801C7.66365 65.7775 7.8118 65.4783 7.96701 65.1862L8.42205 64.3029C8.7254 63.7187 9.03229 63.1345 9.33565 62.5539L9.79422 61.6881C9.95295 61.4031 10.1258 61.125 10.2881 60.847C10.9583 59.7314 11.6179 58.6334 12.2916 57.5706C13.0077 56.5289 13.7238 55.5119 14.4293 54.53C14.7714 54.0338 15.1559 53.5657 15.5298 53.1047C15.9037 52.6472 16.2741 52.1968 16.641 51.7498C17.0114 51.3064 17.3712 50.8735 17.738 50.4547C18.1225 50.05 18.5035 49.6524 18.8774 49.2582C19.6358 48.4875 20.3483 47.7414 21.0891 47.0728C21.8298 46.4111 22.5565 45.7988 23.262 45.2428Z"></path>
</g>
<g clip-path="url(#clip1_112_837)">
<path fill="#313131" d="M119.945 103.139C133.067 103.139 143.744 92.4624 143.744 79.3405C143.744 73.9187 141.965 68.8108 138.604 64.5687C138.289 64.1671 137.712 64.1046 137.312 64.4187C136.912 64.7343 136.847 65.314 137.162 65.7108C140.262 69.6249 141.901 74.3374 141.901 79.3405C141.901 91.4483 132.051 101.298 119.944 101.298C107.836 101.298 97.9857 91.4483 97.9857 79.3405C97.9857 67.2327 107.836 57.3827 119.944 57.3827C124.956 57.3827 129.858 59.1155 133.747 62.2608C134.144 62.578 134.719 62.5187 135.04 62.1249C135.359 61.7296 135.3 61.1499 134.904 60.8312C130.687 57.4202 125.375 55.5405 119.942 55.5405C106.82 55.5405 96.1436 66.2171 96.1436 79.339C96.1467 92.4624 106.823 103.139 119.945 103.139Z"></path>
<path fill="#313131" d="M62.7719 122.566H71.6969C72.2047 122.566 72.6172 122.152 72.6172 121.645C72.6172 121.138 72.2031 120.725 71.6969 120.725H62.7719C62.2641 120.725 61.8516 121.139 61.8516 121.645C61.8516 122.152 62.2656 122.566 62.7719 122.566Z"></path>
<path fill="#313131" d="M80.3441 122.566H89.2691C89.777 122.566 90.1895 122.152 90.1895 121.645C90.1895 121.138 89.7754 120.725 89.2691 120.725H80.3441C79.8363 120.725 79.4238 121.139 79.4238 121.645C79.4238 122.152 79.8379 122.566 80.3441 122.566Z"></path>
<path fill="#313131" d="M98.1957 122.566H107.121C107.629 122.566 108.041 122.152 108.041 121.645C108.041 121.138 107.627 120.725 107.121 120.725H98.1957C97.6879 120.725 97.2754 121.139 97.2754 121.645C97.2754 122.152 97.6895 122.566 98.1957 122.566Z"></path>
<path fill="#313131" d="M116.047 122.566H124.972C125.48 122.566 125.893 122.152 125.893 121.645C125.893 121.138 125.479 120.725 124.972 120.725H116.047C115.539 120.725 115.127 121.139 115.127 121.645C115.127 122.152 115.541 122.566 116.047 122.566Z"></path>
<path fill="#313131" d="M133.899 122.566H142.824C143.332 122.566 143.744 122.152 143.744 121.645C143.744 121.138 143.33 120.725 142.824 120.725H133.899C133.391 120.725 132.979 121.139 132.979 121.645C132.979 122.152 133.393 122.566 133.899 122.566Z"></path>
<path fill="#313131" d="M58.3402 106.155C56.0715 106.155 54.2246 108.002 54.2246 110.27C54.2246 112.539 56.0715 114.386 58.3402 114.386C60.609 114.386 62.4559 112.539 62.4559 110.27C62.4559 108.002 60.609 106.155 58.3402 106.155ZM58.3402 112.545C57.0855 112.545 56.0652 111.525 56.0652 110.27C56.0652 109.016 57.0855 107.995 58.3402 107.995C59.5949 107.995 60.6152 109.016 60.6152 110.27C60.6152 111.524 59.5949 112.545 58.3402 112.545Z"></path>
<path fill="#313131" d="M76.2348 114.386C78.5035 114.386 80.3504 112.539 80.3504 110.27C80.3504 108.002 78.5035 106.155 76.2348 106.155C73.966 106.155 72.1191 108.002 72.1191 110.27C72.1191 112.539 73.966 114.386 76.2348 114.386ZM76.2348 107.995C77.4895 107.995 78.5098 109.016 78.5098 110.27C78.5098 111.525 77.4895 112.545 76.2348 112.545C74.9801 112.545 73.9598 111.525 73.9598 110.27C73.9598 109.016 74.9801 107.995 76.2348 107.995Z"></path>
<path fill="#313131" d="M93.8715 114.386C96.1402 114.386 97.9871 112.539 97.9871 110.27C97.9871 108.002 96.1402 106.155 93.8715 106.155C91.6027 106.155 89.7559 108.002 89.7559 110.27C89.7559 112.539 91.6027 114.386 93.8715 114.386ZM93.8715 107.995C95.1262 107.995 96.1465 109.016 96.1465 110.27C96.1465 111.525 95.1262 112.545 93.8715 112.545C92.6168 112.545 91.5965 111.525 91.5965 110.27C91.5965 109.016 92.6184 107.995 93.8715 107.995Z"></path>
<path fill="#313131" d="M111.509 114.386C113.778 114.386 115.625 112.539 115.625 110.27C115.625 108.002 113.778 106.155 111.509 106.155C109.24 106.155 107.394 108.002 107.394 110.27C107.394 112.539 109.242 114.386 111.509 114.386ZM111.509 107.995C112.764 107.995 113.784 109.016 113.784 110.27C113.784 111.525 112.764 112.545 111.509 112.545C110.254 112.545 109.234 111.525 109.234 110.27C109.236 109.016 110.256 107.995 111.509 107.995Z"></path>
<path fill="#313131" d="M129.403 114.386C131.671 114.386 133.518 112.539 133.518 110.27C133.518 108.002 131.671 106.155 129.403 106.155C127.134 106.155 125.287 108.002 125.287 110.27C125.287 112.539 127.134 114.386 129.403 114.386ZM129.403 107.995C130.657 107.995 131.678 109.016 131.678 110.27C131.678 111.525 130.657 112.545 129.403 112.545C128.148 112.545 127.128 111.525 127.128 110.27C127.129 109.016 128.15 107.995 129.403 107.995Z"></path>
<path fill="#313131" d="M136.561 130.437H133.237C130.411 130.437 127.978 132.041 126.719 134.367C125.459 132.041 123.027 130.437 120.2 130.437H116.877C114.05 130.437 111.617 132.041 110.358 134.367C109.098 132.041 106.666 130.437 103.839 130.437H100.516C97.6891 130.437 95.2562 132.041 93.9969 134.367C92.7375 132.041 90.3047 130.437 87.4781 130.437H84.1547C81.3281 130.437 78.8953 132.041 77.6359 134.367C76.3766 132.041 73.9437 130.437 71.1172 130.437H67.7937C64.9672 130.437 62.5344 132.041 61.275 134.367C60.0156 132.041 57.5828 130.437 54.7562 130.437H51.4391C49.1969 130.437 47.2062 131.456 45.8406 133.031V122.566H53.8453C54.3531 122.566 54.7656 122.151 54.7656 121.645C54.7656 121.137 54.3516 120.725 53.8453 120.725H45.8406V97.253C47.2281 97.339 47.9984 97.8124 48.8422 98.378C49.8703 99.0718 51.0391 99.8546 53.2813 99.8546C55.5234 99.8546 56.6906 99.0718 57.7187 98.3812C58.6469 97.7562 59.4484 97.2187 61.1312 97.2187C62.8141 97.2187 63.6156 97.7562 64.5437 98.3812C65.5719 99.0718 66.7391 99.8546 68.9812 99.8546C71.2234 99.8546 72.3906 99.0718 73.4203 98.3812C74.3484 97.7562 75.15 97.2187 76.8328 97.2187C78.5156 97.2187 79.3172 97.7562 80.2453 98.3812C81.2734 99.0718 82.4406 99.8546 84.6828 99.8546C86.925 99.8546 88.0922 99.0718 89.1219 98.3812C90.05 97.7562 90.8516 97.2187 92.5344 97.2187C94.2172 97.2187 95.0187 97.7562 95.9469 98.3812C96.9766 99.0718 98.1438 99.8546 100.386 99.8546C100.894 99.8546 101.306 99.4405 101.306 98.9343C101.306 98.428 100.892 98.014 100.386 98.014C98.7031 98.014 97.9016 97.4765 96.9734 96.8515C95.9437 96.1608 94.7766 95.378 92.5344 95.378C90.2922 95.378 89.125 96.1608 88.0953 96.8515C87.1672 97.4765 86.3656 98.014 84.6828 98.014C83.0016 98.014 82.2 97.4765 81.2719 96.853C80.2438 96.1608 79.075 95.3765 76.8328 95.3765C74.5906 95.3765 73.4234 96.1593 72.3938 96.8499C71.4656 97.4749 70.6641 98.0124 68.9812 98.0124C67.3 98.0124 66.4984 97.4749 65.5703 96.8515C64.5422 96.1593 63.3734 95.3749 61.1312 95.3749C58.8891 95.3749 57.7203 96.1577 56.6922 96.8515C55.7641 97.4749 54.9625 98.0124 53.2813 98.0124C51.5984 98.0124 50.7969 97.4749 49.8688 96.8499C48.9063 96.203 47.8125 95.4858 45.8406 95.3937V90.2187C45.8406 89.7108 45.4266 89.2983 44.9203 89.2983C44.4141 89.2983 44 89.7124 44 90.2187V137.876V139.537C44 140.045 44.4141 140.458 44.9203 140.458H142.823C142.869 140.458 142.908 140.439 142.952 140.431C142.995 140.437 143.034 140.458 143.08 140.458C143.587 140.458 144 140.044 144 139.537V137.876C144 133.775 140.662 130.437 136.561 130.437ZM133.237 132.28H136.561C139.648 132.28 142.159 134.791 142.159 137.878V138.619H127.641V137.878C127.641 134.789 130.15 132.28 133.237 132.28ZM116.878 132.28H120.202C123.289 132.28 125.8 134.791 125.8 137.878V138.619H111.281V137.878C111.28 134.789 113.791 132.28 116.878 132.28ZM100.519 132.28H103.842C106.93 132.28 109.441 134.791 109.441 137.878V138.619H94.9219V137.878C94.9203 134.789 97.4313 132.28 100.519 132.28ZM84.1578 132.28H87.4812C90.5687 132.28 93.0797 134.791 93.0797 137.878V138.619H78.5609V137.878C78.5609 134.789 81.0719 132.28 84.1578 132.28ZM67.7984 132.28H71.1219C74.2094 132.28 76.7203 134.791 76.7203 137.878V138.619H62.2016V137.878C62.2016 134.789 64.7109 132.28 67.7984 132.28ZM45.8406 137.876C45.8406 134.789 48.3516 132.278 51.4391 132.278H54.7625C57.85 132.278 60.3609 134.789 60.3609 137.876V138.617H45.8406V137.876Z"></path>
<path fill="#313131" d="M45.0297 86.5235H83.0625C83.5703 86.5235 83.9828 86.1095 83.9828 85.6032C83.9828 85.097 83.5688 84.6813 83.0625 84.6813H73.2656L80.1094 77.8392H92.9797C93.4875 77.8392 93.9 77.4251 93.9 76.9188C93.9 76.411 93.4859 75.9985 92.9797 75.9985H79.7266C79.4828 75.9985 79.25 76.097 79.075 76.2688L70.6594 84.6829H67.7734L74.8859 77.572C75.2453 77.2126 75.2453 76.6298 74.8859 76.2704C74.5266 75.911 73.9438 75.911 73.5844 76.2704L65.1688 84.6845H62.0641L69.1766 77.5735C69.5359 77.2142 69.5359 76.6313 69.1766 76.272C68.8172 75.9126 68.2344 75.9126 67.875 76.272L59.4594 84.686H56.3562L63.4688 77.5751C63.5891 77.4548 63.6531 77.3079 63.6938 77.1548C63.7031 77.1173 63.7094 77.0845 63.7156 77.0454C63.7375 76.886 63.7313 76.7251 63.6688 76.5735V76.572C63.6688 76.5704 63.6656 76.5688 63.6656 76.5673C63.6203 76.461 63.5563 76.3595 63.4703 76.272C63.4406 76.2423 63.4016 76.2298 63.3672 76.2032C63.3359 76.1782 63.3062 76.1595 63.2719 76.1392C63.1297 76.0579 62.9781 76.0017 62.8187 76.0017H55.3406C54.8328 76.0017 54.4203 76.4157 54.4203 76.922C54.4203 77.4298 54.8344 77.8423 55.3406 77.8423H60.5938L60.0625 78.372L58.4328 80.0001C58.4313 80.0017 58.4313 80.0032 58.4313 80.0032L53.7531 84.6813H45.9516V79.3517C45.9516 78.5173 46.6281 77.8392 47.4641 77.8392H50.1781C50.6859 77.8392 51.0984 77.4251 51.0984 76.9188C51.0984 76.411 50.6844 75.9985 50.1781 75.9985H47.4625C45.6125 75.9985 44.1094 77.5017 44.1094 79.386V85.6032C44.1094 86.1095 44.5234 86.5235 45.0297 86.5235Z"></path>
<path fill="#313131" d="M88.35 84.6812C87.8422 84.6812 87.4297 85.0952 87.4297 85.6015C87.4297 86.1077 87.8438 86.5218 88.35 86.5218H93.3484C93.8563 86.5218 94.2688 86.1077 94.2688 85.6015C94.2688 85.0952 93.8547 84.6812 93.3484 84.6812H88.35Z"></path>
<path fill="#313131" d="M131.767 67.5421C131.756 67.5296 131.753 67.5155 131.742 67.503C131.731 67.4905 131.716 67.4874 131.703 67.478C128.677 64.4671 124.508 62.603 119.911 62.603C115.314 62.603 111.145 64.4671 108.119 67.478C108.106 67.489 108.092 67.4921 108.08 67.503C108.067 67.514 108.064 67.5296 108.055 67.5421C105.366 70.2452 103.602 73.8608 103.253 77.878C103.206 77.989 103.18 78.1093 103.18 78.2374C103.18 78.3155 103.206 78.3843 103.223 78.4562C103.208 78.7483 103.18 79.0374 103.18 79.3327C103.18 83.928 105.044 88.0952 108.052 91.1218C108.064 91.1343 108.067 91.1515 108.08 91.164C108.092 91.1765 108.109 91.1812 108.122 91.1921C111.148 94.2015 115.314 96.064 119.909 96.064C124.505 96.064 128.67 94.1999 131.697 91.1921C131.709 91.1796 131.727 91.1765 131.739 91.164C131.752 91.1515 131.756 91.1343 131.767 91.1218C134.528 88.3436 136.306 84.6015 136.583 80.4546C136.583 80.4452 136.588 80.439 136.588 80.4296C136.588 80.4249 136.584 80.4202 136.584 80.4155C136.608 80.0562 136.639 79.6983 136.639 79.3312C136.642 74.7374 134.778 70.5687 131.767 67.5421ZM131.055 89.1765L121.259 79.3796C121.5 79.239 121.769 79.1577 122.139 79.1577C122.894 79.1577 123.236 79.4905 123.755 79.9952C124.375 80.5999 125.148 81.353 126.65 81.353C128.152 81.353 128.925 80.5999 129.545 79.9952C130.064 79.4905 130.406 79.1577 131.159 79.1577C131.914 79.1577 132.256 79.4905 132.775 79.9952C133.241 80.4483 133.791 80.9843 134.669 81.2249C134.281 84.2546 132.983 86.9968 131.055 89.1765ZM129.753 68.1905L123.939 74.0062C123.58 74.3655 123.58 74.9483 123.939 75.3077C124.119 75.4874 124.355 75.578 124.591 75.578C124.827 75.578 125.062 75.4874 125.242 75.3077L131.056 69.4921C133.37 72.1093 134.791 75.5343 134.8 79.2921C134.547 79.1452 134.325 78.9343 134.058 78.6733C133.438 78.0687 132.663 77.3155 131.159 77.3155C129.658 77.3155 128.884 78.0687 128.264 78.6733C127.745 79.178 127.403 79.5108 126.65 79.5108C125.897 79.5108 125.556 79.1796 125.036 78.6733C124.414 78.0687 123.641 77.3155 122.137 77.3155C121.133 77.3155 120.469 77.6593 119.944 78.064L110.069 68.189C112.695 65.8655 116.136 64.4421 119.911 64.4421C123.686 64.4421 127.127 65.8671 129.753 68.1905ZM108.767 69.4921L118.542 79.2687C118.292 79.4218 118.016 79.5124 117.628 79.5124C116.875 79.5124 116.534 79.1812 116.014 78.6749C115.394 78.0702 114.62 77.3171 113.119 77.3171C111.617 77.3171 110.844 78.0702 110.223 78.6749C109.705 79.1796 109.362 79.5124 108.609 79.5124C107.856 79.5124 107.516 79.1812 106.995 78.6749C106.541 78.2312 105.997 77.714 105.15 77.4655C105.534 74.428 106.834 71.678 108.767 69.4921ZM110.07 90.4796L115.809 84.7405C116.169 84.3812 116.169 83.7983 115.809 83.439C115.45 83.0796 114.867 83.0796 114.508 83.439L108.769 89.178C106.461 86.5686 105.045 83.1562 105.027 79.4108C105.258 79.5562 105.467 79.7546 105.716 79.9968C106.338 80.6015 107.109 81.3546 108.611 81.3546C110.113 81.3546 110.886 80.6015 111.506 79.9968C112.025 79.4921 112.367 79.1593 113.12 79.1593C113.873 79.1593 114.214 79.4905 114.734 79.9968C115.355 80.6015 116.128 81.3546 117.63 81.3546C118.655 81.3546 119.327 80.9968 119.856 80.5827L129.755 90.4811C127.128 92.8046 123.687 94.228 119.912 94.228C116.137 94.2249 112.697 92.803 110.07 90.4796Z"></path>
<path fill="#313131" d="M69.6234 68.795C70.1312 68.795 70.5438 68.3778 70.5438 67.87C70.5438 67.3622 70.1297 66.9497 69.6234 66.9497C69.1172 66.9497 68.7031 67.3638 68.7031 67.87V67.8794C68.7031 68.3872 69.1172 68.795 69.6234 68.795Z"></path>
<path fill="#313131" d="M77.5297 68.795C78.0375 68.795 78.45 68.3778 78.45 67.87C78.45 67.3622 78.0359 66.9497 77.5297 66.9497C77.0219 66.9497 76.6094 67.3638 76.6094 67.87V67.8794C76.6094 68.3872 77.0234 68.795 77.5297 68.795Z"></path>
<path fill="#313131" d="M61.7201 68.795C62.2279 68.795 62.6404 68.3778 62.6404 67.87C62.6404 67.3622 62.2264 66.9497 61.7201 66.9497C61.2139 66.9497 60.7998 67.3638 60.7998 67.87V67.8794C60.7982 68.3872 61.2123 68.795 61.7201 68.795Z"></path>
<path fill="#313131" d="M69.6234 62.2062C70.1312 62.2062 70.5438 61.789 70.5438 61.2812C70.5438 60.7733 70.1297 60.3608 69.6234 60.3608C69.1172 60.3608 68.7031 60.7749 68.7031 61.2827V61.2921C68.7031 61.7999 69.1172 62.2062 69.6234 62.2062Z"></path>
<path fill="#313131" d="M77.5297 62.2062C78.0375 62.2062 78.45 61.789 78.45 61.2812C78.45 60.7733 78.0359 60.3608 77.5297 60.3608C77.0219 60.3608 76.6094 60.7749 76.6094 61.2812V61.2905C76.6094 61.7999 77.0234 62.2062 77.5297 62.2062Z"></path>
<path fill="#313131" d="M85.4359 68.795C85.9437 68.795 86.3562 68.3778 86.3562 67.87C86.3562 67.3622 85.9422 66.9497 85.4359 66.9497C84.9297 66.9497 84.5156 67.3638 84.5156 67.87V67.8794C84.5156 68.3872 84.9297 68.795 85.4359 68.795Z"></path>
<path fill="#313131" d="M85.4359 62.2062C85.9437 62.2062 86.3562 61.789 86.3562 61.2812C86.3562 60.7733 85.9422 60.3608 85.4359 60.3608C84.9297 60.3608 84.5156 60.7749 84.5156 61.2827V61.2921C84.5156 61.7999 84.9297 62.2062 85.4359 62.2062Z"></path>
<path fill="#313131" d="M61.7201 62.2062C62.2279 62.2062 62.6404 61.789 62.6404 61.2812C62.6404 60.7733 62.2264 60.3608 61.7201 60.3608C61.2139 60.3608 60.7998 60.7749 60.7998 61.2812V61.2905C60.7982 61.7999 61.2123 62.2062 61.7201 62.2062Z"></path>
<path fill="#313131" d="M53.8139 68.795C54.3217 68.795 54.7342 68.3778 54.7342 67.87C54.7342 67.3622 54.3201 66.9497 53.8139 66.9497C53.3076 66.9497 52.8936 67.3638 52.8936 67.87V67.8794C52.892 68.3872 53.3061 68.795 53.8139 68.795Z"></path>
<path fill="#313131" d="M53.8145 62.2061C54.3223 62.2061 54.7348 61.7889 54.7348 61.2811C54.7348 60.7732 54.3207 60.3623 53.8145 60.3623C53.3082 60.3623 52.8926 60.7748 52.8926 61.2826V61.292C52.8926 61.7998 53.3066 62.2061 53.8145 62.2061Z"></path>
</g>
<defs>
<clipPath id="clip0_112_837">
<rect fill="white" height="196" width="189"></rect>
</clipPath>
<clipPath id="clip1_112_837">
<rect transform="translate(44 48)" fill="white" height="100" width="100"></rect>
</clipPath>
</defs>
</svg>
