<svg xmlns="http://www.w3.org/2000/svg" fill="none" viewBox="0 0 189 196" height="196" width="189">
<g clip-path="url(#clip0_100_384)">
<path fill="#018D43" d="M44.4829 14.6087C44.4829 14.6087 45.1955 14.123 46.6029 13.3277C47.3014 12.923 48.1656 12.4268 49.178 11.839C50.208 11.2865 51.4108 10.6812 52.7477 9.99145C53.0864 9.82253 53.4215 9.63601 53.7848 9.47412C54.1446 9.30872 54.515 9.14332 54.8924 8.97087C55.6508 8.62951 56.441 8.27055 57.2699 7.89751C57.478 7.80601 57.6861 7.71099 57.8943 7.61597C58.1094 7.53151 58.3246 7.44353 58.5433 7.35555C58.9807 7.1831 59.4287 7.00714 59.8837 6.82766C60.7973 6.47574 61.7321 6.0851 62.7163 5.72966C64.7022 5.07509 66.7904 4.29382 69.0621 3.70259C69.6265 3.54422 70.198 3.38234 70.7765 3.22045C71.0657 3.13951 71.3549 3.05857 71.6477 2.97762C71.944 2.91076 72.2403 2.84037 72.5402 2.77351C73.7395 2.49901 74.967 2.22099 76.2158 1.93593C86.276 -0.0700283 98.3575 -0.833701 110.933 1.18986C117.208 2.18932 123.582 3.85039 129.78 6.19772C135.978 8.53801 141.992 11.5857 147.583 15.1999C153.177 18.8106 158.352 22.9985 162.938 27.5559C167.527 32.1133 171.527 37.0403 174.868 42.0868C178.212 47.1334 180.896 52.2926 182.967 57.3005C185.065 62.3013 186.455 67.186 187.411 71.6554C188.409 76.1213 188.769 80.2318 188.97 83.7475C188.991 85.5177 188.991 87.1435 188.942 88.6075C188.833 90.0821 188.702 91.3948 188.547 92.5385C188.505 92.8236 188.473 93.0981 188.423 93.3655C188.367 93.6295 188.311 93.8829 188.258 94.1292C188.145 94.6149 188.028 95.0583 187.908 95.456C187.669 96.2513 187.415 96.8672 187.143 97.293C186.603 98.1447 186.004 98.2432 185.333 97.5218C185.333 97.5218 185.284 96.7123 185.192 95.2483C185.171 94.8823 185.146 94.4776 185.122 94.0307C185.108 93.809 185.101 93.5767 185.076 93.3374C185.051 93.0981 185.023 92.8482 184.995 92.5878C184.885 91.5566 184.762 90.3812 184.624 89.0826C184.43 87.7946 184.215 86.3834 183.99 84.8701C183.873 84.1135 183.69 83.3428 183.538 82.5439C183.379 81.745 183.213 80.9251 183.044 80.084C182.226 76.7513 181.309 73.0983 179.958 69.3925C179.358 67.5133 178.547 65.6657 177.82 63.7618C177.404 62.8292 176.988 61.8931 176.568 60.9499C176.356 60.4818 176.159 60.0032 175.933 59.5387L175.238 58.1521L174.547 56.7585C174.314 56.294 174.095 55.8259 173.834 55.3754C173.333 54.4675 172.832 53.5595 172.335 52.6551C172.095 52.1976 171.823 51.7577 171.555 51.3178C171.287 50.8779 171.023 50.438 170.758 49.9981C170.494 49.5582 170.229 49.1183 169.968 48.6819C169.707 48.2455 169.411 47.8302 169.135 47.4079C168.582 46.5598 168.028 45.7187 167.485 44.8881C166.906 44.0787 166.335 43.2763 165.77 42.4845C165.488 42.0903 165.216 41.6856 164.931 41.302C164.638 40.922 164.349 40.5454 164.059 40.1688C163.488 39.4122 162.927 38.6697 162.373 37.9412C161.795 37.2303 161.23 36.537 160.677 35.8543C160.402 35.5094 160.133 35.168 159.865 34.8337C159.601 34.4923 159.312 34.1862 159.043 33.8659C157.95 32.6025 156.973 31.3391 155.978 30.2481C152.133 25.7435 147.572 21.4184 141.692 17.2974C141.325 17.0369 140.955 16.7765 140.581 16.5126C140.2 16.2592 139.808 16.0199 139.42 15.77C138.634 15.2773 137.833 14.7741 137.018 14.2638C136.196 13.7605 135.329 13.3101 134.461 12.8209C133.586 12.3458 132.701 11.8285 131.762 11.3991C130.828 10.9522 129.872 10.4947 128.902 10.0302C127.921 9.5797 126.898 9.18555 125.864 8.74916C125.346 8.53449 124.82 8.31982 124.291 8.10514C123.751 7.9151 123.208 7.72155 122.658 7.52799C122.108 7.33443 121.55 7.14087 120.986 6.9438C120.422 6.75024 119.854 6.53909 119.268 6.38072C118.097 6.04287 116.901 5.69799 115.684 5.34959C114.457 5.02582 113.19 4.75836 111.899 4.4557C110.612 4.13193 109.275 3.94189 107.917 3.69555C107.236 3.57941 106.548 3.45624 105.853 3.34714C105.155 3.26268 104.446 3.17822 103.733 3.09376C98.0153 2.41103 91.7435 2.19284 84.9391 2.77703C78.1417 3.36122 70.8223 4.75836 63.1713 7.30276C62.2189 7.63005 61.27 7.99605 60.3035 8.34797C59.8202 8.52745 59.337 8.70693 58.8502 8.88641C58.3599 9.05886 57.8872 9.28409 57.4039 9.48468C56.4374 9.89643 55.4639 10.3152 54.4797 10.734C53.5061 11.1739 52.5396 11.6666 51.5555 12.1382C51.0651 12.3775 50.5713 12.6203 50.0739 12.8596C49.5871 13.1165 49.1039 13.3875 48.6136 13.655C47.64 14.1969 46.6453 14.7248 45.6611 15.2949C44.6946 15.8897 43.714 16.4915 42.7298 17.1003C42.4829 17.2516 42.236 17.4065 41.989 17.5578C41.7421 17.7126 41.5058 17.8851 41.2624 18.047C40.7791 18.3778 40.2959 18.7086 39.8056 19.0429C39.8056 19.0429 39.4175 19.2928 38.8002 19.6904C38.1724 20.074 37.3505 20.6653 36.451 21.2987C35.9995 21.6155 35.5303 21.9463 35.0576 22.2736C34.5885 22.6044 34.1088 22.9246 33.6784 23.266C32.8036 23.9311 31.9923 24.5329 31.3962 24.9517C30.2039 25.7928 29.8547 25.9089 31.5196 24.3394C31.9359 23.9487 32.4791 23.449 33.1669 22.8331C33.3398 22.6783 33.5197 22.5164 33.7102 22.3475C33.9077 22.1856 34.1158 22.0202 34.331 21.8442C34.7684 21.4958 35.2411 21.1157 35.7561 20.7005C36.2746 20.2922 36.8355 19.8488 37.4387 19.3702C38.063 18.9233 38.7368 18.4446 39.4528 17.9308C39.8126 17.6739 40.1865 17.41 40.571 17.139C40.9555 16.8645 41.3506 16.583 41.7774 16.3225C42.631 15.7876 43.5305 15.214 44.4829 14.6087Z"></path>
<path fill="#018D43" d="M22.8496 34.6085C22.8496 34.6085 23.0965 34.334 23.5656 33.8167C23.802 33.5598 24.0912 33.2395 24.4369 32.8629C24.7967 32.5005 25.213 32.0852 25.6786 31.6171C26.1477 31.1491 26.6663 30.6318 27.2342 30.0652C27.3753 29.9244 27.5199 29.7801 27.6681 29.6323C27.8233 29.4915 27.9785 29.3472 28.1407 29.2029C28.4617 28.9109 28.7968 28.6082 29.1425 28.295C29.8374 27.6721 30.5641 26.9894 31.3648 26.3031C32.1796 25.6344 33.0403 24.9271 33.9434 24.188C37.6048 21.2917 42.1482 18.1103 47.4852 15.207C52.8116 12.2966 58.9282 9.6677 65.4998 7.72861C72.0679 5.78247 79.0839 4.52963 86.0753 4.12843C93.0667 3.70613 100.026 4.1777 106.478 5.3109C112.933 6.44409 118.877 8.27409 123.964 10.4103C129.064 12.5324 133.276 15.0416 136.511 17.3044C138.112 18.4693 139.216 19.3245 139.837 20.0107C140.472 20.6723 140.677 21.063 140.518 21.2178C140.19 21.5381 138.44 20.8483 135.541 19.7151C135.181 19.5673 134.807 19.4089 134.412 19.247C134.02 19.0816 133.597 18.9409 133.167 18.7719C132.302 18.4447 131.378 18.0857 130.398 17.6951C128.401 17.0088 126.196 16.1712 123.745 15.4604C118.87 13.9682 113.145 12.6274 107.014 11.8707C100.891 11.1035 94.3648 10.9241 88.0401 11.3992C81.7119 11.8602 75.5953 12.9793 70.2089 14.4503C64.8155 15.9108 60.1628 17.7127 56.5719 19.2048C55.6759 19.5884 54.8399 19.9368 54.0709 20.25C53.316 20.5914 52.6317 20.9081 52.0144 21.1756C50.7833 21.7105 49.8309 22.0695 49.2489 22.2736C48.6563 22.4636 48.0214 22.6783 47.3441 22.9176C46.6703 23.1639 45.9366 23.4068 45.2029 23.7481C44.4622 24.0754 43.6756 24.4309 42.8501 24.8215C42.441 25.0186 42.0036 25.2051 41.5838 25.4374C41.1605 25.6696 40.7301 25.9054 40.2857 26.1483C36.7053 28.0662 32.61 30.7866 28.2077 34.5874C27.0719 35.5059 26.0137 36.5757 24.8637 37.6526C24.578 37.9236 24.2923 38.1981 24.003 38.4761C23.7208 38.7612 23.4492 39.0568 23.167 39.3524C22.6062 39.9472 22.0383 40.5525 21.4598 41.1683C20.8672 41.7772 20.3239 42.4423 19.7595 43.1109C19.1952 43.7831 18.6237 44.4694 18.0417 45.1627C17.4808 45.8735 16.9376 46.6196 16.3697 47.3657C15.8159 48.1223 15.2127 48.8684 14.6906 49.6849C14.1509 50.4908 13.6042 51.3108 13.0468 52.1448C12.9093 52.3524 12.7682 52.5636 12.6306 52.7747C12.5001 52.9929 12.3731 53.2076 12.2426 53.4258C11.9815 53.8622 11.7205 54.3056 11.456 54.749C11.1914 55.196 10.9268 55.6429 10.6623 56.0969C10.5282 56.3221 10.3977 56.5509 10.2637 56.7796C10.1402 57.0154 10.0168 57.2477 9.8933 57.4835C9.39946 58.4302 8.89857 59.3909 8.39062 60.3657C8.12606 60.8514 7.90736 61.3582 7.67455 61.8649C7.44174 62.3717 7.20892 62.8855 6.97611 63.3993C6.7433 63.9166 6.50696 64.4375 6.27063 64.9618C6.04487 65.4897 5.84381 66.0317 5.62863 66.5737C5.2124 67.6611 4.75383 68.7556 4.35876 69.8888C3.98132 71.029 3.60036 72.1833 3.21234 73.3552C3.21234 73.3552 3.16648 73.0737 3.27936 72.0601C3.3358 71.5534 3.4381 70.8601 3.60389 69.9275C3.64621 69.6952 3.68854 69.4453 3.74498 69.1814C3.80848 68.921 3.87903 68.643 3.94957 68.3509C4.09773 67.7632 4.27057 67.1121 4.47163 66.3836C5.26883 63.4767 6.66923 59.4191 9.35008 54.0382C9.69224 53.3695 10.045 52.6762 10.4154 51.9548C10.7893 51.2404 11.2267 50.5295 11.657 49.7764C12.0944 49.0303 12.5389 48.2561 13.0186 47.4678C13.5266 46.697 14.0486 45.8982 14.5918 45.0782C14.8635 44.67 15.1421 44.2512 15.4208 43.8289C15.71 43.4101 16.024 43.0019 16.3309 42.5795C16.9552 41.7384 17.5972 40.8727 18.2604 39.9788C19.6819 38.2685 21.1282 36.4103 22.8496 34.6085Z"></path>
<path fill="#018D43" d="M39.8294 176.96C41.7519 178.333 43.7484 179.512 45.6814 180.705C46.6656 181.272 47.6568 181.803 48.6304 182.341C49.1207 182.609 49.6004 182.88 50.0907 183.137C50.5846 183.38 51.0784 183.619 51.5687 183.858C52.5529 184.33 53.5159 184.822 54.4894 185.262C55.4736 185.681 56.4472 186.1 57.4137 186.512C57.9005 186.709 58.3696 186.937 58.8599 187.11C59.3467 187.289 59.83 187.469 60.3132 187.648C61.2798 188 62.2286 188.366 63.181 188.69C70.8285 191.231 78.148 192.628 84.9418 193.212C91.7427 193.796 98.0145 193.578 103.732 192.896C104.449 192.811 105.154 192.727 105.852 192.642C106.551 192.533 107.235 192.41 107.916 192.294C109.274 192.047 110.611 191.861 111.898 191.534C113.19 191.231 114.456 190.963 115.683 190.64C116.904 190.288 118.096 189.943 119.267 189.605C119.853 189.447 120.421 189.236 120.985 189.042C121.55 188.845 122.107 188.651 122.657 188.458C123.207 188.264 123.754 188.071 124.294 187.881C124.823 187.662 125.349 187.448 125.867 187.237C126.901 186.8 127.927 186.406 128.908 185.956C129.878 185.491 130.834 185.034 131.769 184.583C132.71 184.154 133.592 183.636 134.471 183.161C135.342 182.672 136.21 182.222 137.031 181.718C137.846 181.208 138.647 180.705 139.434 180.212C139.825 179.962 140.217 179.723 140.594 179.47C140.968 179.206 141.338 178.945 141.705 178.685C147.586 174.56 152.15 170.232 155.991 165.731C156.983 164.636 157.96 163.373 159.053 162.113C159.321 161.793 159.611 161.483 159.872 161.145C160.14 160.811 160.408 160.469 160.683 160.124C161.237 159.445 161.801 158.748 162.376 158.041C162.926 157.313 163.491 156.57 164.062 155.817C164.351 155.444 164.641 155.064 164.933 154.684C165.219 154.297 165.487 153.895 165.773 153.501C166.337 152.709 166.909 151.911 167.487 151.101C168.031 150.271 168.584 149.43 169.138 148.581C169.413 148.156 169.71 147.744 169.971 147.307C170.232 146.871 170.496 146.431 170.761 145.991C171.025 145.551 171.293 145.115 171.558 144.672C171.826 144.232 172.101 143.795 172.338 143.334C172.835 142.43 173.336 141.522 173.837 140.614C174.098 140.167 174.32 139.695 174.549 139.231L175.241 137.837L175.936 136.451C176.161 135.986 176.359 135.507 176.57 135.039C176.99 134.1 177.406 133.16 177.823 132.231C178.549 130.327 179.364 128.48 179.96 126.6C181.311 122.898 182.228 119.242 183.047 115.912C183.216 115.071 183.378 114.251 183.541 113.452C183.692 112.654 183.876 111.883 183.992 111.126C184.221 109.613 184.433 108.202 184.627 106.914C184.765 105.615 184.888 104.44 184.998 103.409C185.026 103.152 185.054 102.902 185.079 102.659C185.103 102.42 185.107 102.187 185.125 101.966C185.149 101.522 185.174 101.114 185.195 100.748C185.287 99.284 185.336 98.4746 185.336 98.4746C186.003 97.7567 186.606 97.8517 187.146 98.7034C187.414 99.1292 187.671 99.7451 187.911 100.54C188.031 100.938 188.148 101.382 188.26 101.867C188.313 102.11 188.37 102.367 188.426 102.631C188.479 102.895 188.511 103.169 188.55 103.458C188.705 104.602 188.835 105.914 188.945 107.385C188.994 108.853 188.991 110.475 188.973 112.245C188.772 115.761 188.416 119.872 187.414 124.337C186.458 128.807 185.068 133.692 182.973 138.689C180.902 143.697 178.218 148.856 174.874 153.902C171.533 158.949 167.537 163.876 162.948 168.433C158.362 172.994 153.191 177.179 147.593 180.793C141.998 184.407 135.987 187.451 129.79 189.795C123.592 192.142 117.221 193.804 110.946 194.803C98.3707 196.827 86.2893 196.066 76.229 194.06C74.9768 193.775 73.7492 193.494 72.5534 193.223C72.2536 193.152 71.9573 193.086 71.661 193.019C71.3682 192.938 71.079 192.857 70.7897 192.776C70.2112 192.614 69.6398 192.452 69.0754 192.294C66.8037 191.703 64.719 190.925 62.7295 190.267C61.7454 189.915 60.8106 189.524 59.897 189.172C59.442 188.993 58.994 188.817 58.5566 188.644C58.3379 188.556 58.1192 188.472 57.9075 188.384C57.6959 188.289 57.4878 188.194 57.2832 188.102C56.4578 187.729 55.6641 187.37 54.9092 187.029C54.5318 186.857 54.1614 186.688 53.8016 186.526C53.4383 186.364 53.1032 186.174 52.7645 186.008C51.4276 185.319 50.2248 184.713 49.1948 184.161C48.1824 183.577 47.3182 183.077 46.6197 182.672C45.9248 182.264 45.3781 181.965 45.0289 181.736C44.6761 181.511 44.4962 181.391 44.4962 181.391C43.5438 180.786 42.6443 180.212 41.7977 179.674C41.3709 179.41 40.9723 179.132 40.5878 178.854C40.2033 178.579 39.8294 178.315 39.4696 178.062C38.75 177.548 38.0798 177.07 37.4519 176.619C36.8487 176.141 36.2879 175.701 35.7693 175.289C35.2543 174.877 34.7781 174.493 34.3443 174.145C34.1256 173.969 33.921 173.8 33.7234 173.642C33.533 173.473 33.3531 173.311 33.1802 173.156C32.4924 172.54 31.9491 172.041 31.5329 171.65C29.8679 170.08 30.2172 170.197 31.413 171.038C32.0126 171.46 32.8204 172.062 33.6987 172.73C34.1291 173.072 34.6088 173.392 35.0815 173.723C35.5506 174.054 36.0233 174.384 36.4748 174.701C36.9263 175.018 37.3567 175.324 37.7518 175.602C38.1433 175.887 38.5207 176.105 38.8276 176.313C39.4414 176.707 39.8294 176.96 39.8294 176.96Z"></path>
<path fill="#018D43" d="M49.2591 173.723C49.8411 173.927 50.7935 174.286 52.0281 174.821C52.6454 175.088 53.3298 175.405 54.0846 175.747C54.8536 176.06 55.6931 176.408 56.5856 176.792C60.1765 178.284 64.8292 180.086 70.2227 181.546C75.6091 183.017 81.7292 184.136 88.0574 184.594C94.3821 185.065 100.908 184.886 107.031 184.119C113.162 183.362 118.891 182.021 123.762 180.526C126.214 179.815 128.418 178.977 130.415 178.287C131.395 177.897 132.32 177.538 133.184 177.211C133.614 177.042 134.037 176.901 134.429 176.735C134.821 176.57 135.198 176.415 135.558 176.267C138.457 175.134 140.207 174.444 140.535 174.765C140.697 174.92 140.489 175.31 139.858 175.972C139.237 176.658 138.136 177.517 136.531 178.678C133.3 180.941 129.092 183.454 123.988 185.572C118.901 187.712 112.961 189.542 106.502 190.675C100.051 191.812 93.0946 192.283 86.0996 191.865C79.1047 191.463 72.0887 190.214 65.5206 188.268C58.9454 186.332 52.8324 183.704 47.5024 180.793C42.1654 177.89 37.6186 174.708 33.9571 171.812C33.0541 171.073 32.1934 170.366 31.375 169.697C30.5707 169.014 29.8476 168.328 29.1492 167.705C28.8035 167.392 28.4684 167.089 28.1474 166.797C27.9851 166.649 27.8299 166.509 27.6747 166.368C27.5266 166.22 27.3819 166.076 27.2408 165.935C26.6729 165.368 26.1544 164.851 25.6852 164.383C25.2196 163.915 24.8034 163.5 24.4436 163.137C24.1014 162.761 23.8087 162.44 23.5723 162.183C23.1032 161.666 22.8562 161.392 22.8562 161.392C21.1349 159.586 19.6851 157.732 18.2671 156.018C17.6039 155.124 16.9619 154.258 16.3375 153.417C16.0307 152.995 15.7167 152.583 15.4275 152.168C15.1453 151.745 14.8701 151.327 14.5985 150.918C14.0588 150.095 13.5332 149.3 13.0253 148.525C12.542 147.737 12.1011 146.963 11.6637 146.217C11.2333 145.467 10.7959 144.753 10.422 144.038C10.0552 143.32 9.69891 142.627 9.35675 141.955C6.67237 136.571 5.27551 132.516 4.47831 129.613C4.27724 128.885 4.1044 128.233 3.95624 127.646C3.88217 127.354 3.81515 127.076 3.75165 126.815C3.69169 126.555 3.65289 126.305 3.60703 126.069C3.44124 125.137 3.34247 124.447 3.2825 123.94C3.1661 122.926 3.21548 122.648 3.21548 122.648C3.6035 123.82 3.98446 124.975 4.3619 126.115C4.7605 127.248 5.21554 128.343 5.63178 129.43C5.84695 129.972 6.04801 130.514 6.2773 131.042C6.51364 131.566 6.74997 132.087 6.98278 132.601C7.2156 133.115 7.44841 133.628 7.68122 134.135C7.91403 134.642 8.13273 135.149 8.39729 135.634C8.90524 136.609 9.40613 137.57 9.89997 138.517C10.0234 138.752 10.1469 138.988 10.2704 139.22C10.4044 139.449 10.5384 139.678 10.6725 139.903C10.9406 140.354 11.2051 140.804 11.4662 141.251C11.7307 141.695 11.9917 142.134 12.2528 142.574C12.3833 142.793 12.5138 143.011 12.6443 143.225C12.7854 143.437 12.923 143.644 13.0606 143.855C13.6179 144.689 14.1646 145.506 14.7043 146.315C15.2264 147.132 15.8296 147.878 16.3834 148.634C16.9513 149.384 17.491 150.127 18.0554 150.837C18.6374 151.531 19.2089 152.217 19.7733 152.889C20.3377 153.558 20.8809 154.223 21.4735 154.832C22.052 155.448 22.6199 156.053 23.1808 156.648C23.463 156.943 23.7346 157.239 24.0168 157.524C24.306 157.802 24.5917 158.077 24.8775 158.348C26.0274 159.424 27.0856 160.494 28.2215 161.413C32.6237 165.214 36.7191 167.934 40.2994 169.852C40.7439 170.095 41.1777 170.33 41.5975 170.563C42.0173 170.792 42.4547 170.978 42.8639 171.179C43.6928 171.566 44.4759 171.925 45.2167 172.252C45.9468 172.593 46.6876 172.836 47.3578 173.083C48.0316 173.318 48.663 173.533 49.2591 173.723Z"></path>
<path fill="#018D43" d="M23.262 45.2428C23.7558 44.8521 24.1297 44.6163 24.3907 44.5213C24.6624 44.4298 24.8176 44.4756 24.874 44.6339C24.9798 44.9436 24.74 45.746 24.2179 46.8581C23.9604 47.4141 23.6359 48.0546 23.2549 48.7549C22.8986 49.4694 22.5106 50.2612 22.0767 51.0952C21.858 51.5105 21.6323 51.9363 21.3995 52.3762C21.1596 52.8091 20.9586 53.2807 20.7293 53.7452C20.2742 54.6743 19.8016 55.6386 19.3183 56.6204C17.4558 60.576 15.7909 64.9047 14.6303 68.255C14.1047 69.9478 13.6603 71.3801 13.3499 72.3901C13.0818 73.4107 12.9231 74.0054 12.9231 74.0054C11.3145 80.1113 10.3727 86.2453 10.0129 91.9641C9.64607 97.6828 9.84713 102.976 10.2739 107.442C10.4045 108.557 10.5315 109.624 10.6479 110.634C10.6937 111.14 10.789 111.63 10.8666 112.105C10.9442 112.58 11.0218 113.041 11.0958 113.488C11.1699 113.935 11.2405 114.367 11.3075 114.783C11.3428 114.99 11.3745 115.195 11.4063 115.395C11.4486 115.592 11.4909 115.789 11.5332 115.979C11.6955 116.743 11.8472 117.443 11.9812 118.073C12.1188 118.703 12.2246 119.27 12.3446 119.755C12.4715 120.238 12.5809 120.649 12.6656 120.984C12.8384 121.649 12.9301 122.004 12.9301 122.004C12.9301 122.004 13.0853 122.599 13.3569 123.62C13.6709 124.63 14.1153 126.062 14.6374 127.751C15.7979 131.098 17.4664 135.427 19.3253 139.382C19.8051 140.364 20.2813 141.328 20.7363 142.257C20.9691 142.722 21.1667 143.193 21.4101 143.626C21.6429 144.066 21.8686 144.492 22.0873 144.907C22.5212 145.738 22.9092 146.53 23.2655 147.244C23.6429 147.944 23.9675 148.581 24.225 149.137C24.7435 150.25 24.9869 151.052 24.8811 151.362C24.8246 151.52 24.6659 151.562 24.3943 151.474C24.1297 151.379 23.7593 151.143 23.2655 150.753C22.5424 150.179 21.791 149.549 21.015 148.87C20.2601 148.177 19.5194 147.41 18.7398 146.611C18.3553 146.206 17.9532 145.801 17.5722 145.368C17.2018 144.928 16.8244 144.478 16.4434 144.024C16.066 143.563 15.685 143.095 15.297 142.62C15.1065 142.381 14.9055 142.145 14.7256 141.895C14.5457 141.645 14.3622 141.392 14.1823 141.138C13.4628 140.118 12.7044 139.076 11.9989 137.982C11.3145 136.876 10.6302 135.74 9.94237 134.585C9.29685 133.414 8.68308 132.21 8.05872 130.999C7.7342 130.398 7.46258 129.775 7.18744 129.152L6.3585 127.276C4.21029 122.244 2.64411 116.986 1.62115 112.122C1.39892 110.898 1.18375 109.708 0.972102 108.554C0.922717 108.265 0.866278 107.98 0.823949 107.695C0.788675 107.41 0.7534 107.125 0.718126 106.847C0.647577 106.284 0.580556 105.735 0.513535 105.193C0.450041 104.651 0.386547 104.123 0.323053 103.609C0.294834 103.352 0.25956 103.095 0.238395 102.842C0.220758 102.589 0.203121 102.339 0.189011 102.092C0.125517 101.107 0.0655506 100.174 0.012639 99.3052C-0.0296902 98.0383 0.044386 96.7748 0.0867152 95.5079C0.153736 94.6105 0.185483 93.6568 0.294834 92.6609C0.414767 91.6649 0.541754 90.6232 0.672269 89.5393C0.746346 88.9973 0.792202 88.4448 0.894498 87.8888C0.993266 87.3327 1.09556 86.7662 1.19786 86.1925C1.30368 85.6189 1.4095 85.0382 1.51533 84.447C1.56824 84.1514 1.62468 83.8558 1.68112 83.5601C1.74108 83.2645 1.81869 82.9654 1.88923 82.6662C2.17848 81.4767 2.47479 80.2556 2.77462 79.0168C3.12031 77.7886 3.51186 76.5533 3.89282 75.3075C3.98806 74.9978 4.08683 74.6846 4.18207 74.3714C4.28789 74.0617 4.40782 73.752 4.5207 73.4424C4.74999 72.8265 4.97927 72.2036 5.20855 71.5842C5.44489 70.9648 5.66359 70.3419 5.91757 69.726C6.18565 69.1172 6.45374 68.5084 6.72182 67.8996L7.53313 66.0801C7.66365 65.7775 7.8118 65.4783 7.96701 65.1862L8.42205 64.3029C8.7254 63.7187 9.03229 63.1345 9.33565 62.5539L9.79422 61.6881C9.95295 61.4031 10.1258 61.125 10.2881 60.847C10.9583 59.7314 11.6179 58.6334 12.2916 57.5706C13.0077 56.5289 13.7238 55.5119 14.4293 54.53C14.7714 54.0338 15.1559 53.5657 15.5298 53.1047C15.9037 52.6472 16.2741 52.1968 16.641 51.7498C17.0114 51.3064 17.3712 50.8735 17.738 50.4547C18.1225 50.05 18.5035 49.6524 18.8774 49.2582C19.6358 48.4875 20.3483 47.7414 21.0891 47.0728C21.8298 46.4111 22.5565 45.7988 23.262 45.2428Z"></path>
</g>
<g clip-path="url(#clip1_100_384)">
<path fill="#313131" d="M87.1863 78.645C88.0119 78.645 88.6811 77.8791 88.6811 76.9343C88.6811 75.9895 88.0119 75.2236 87.1863 75.2236C86.3607 75.2236 85.6914 75.9895 85.6914 76.9343C85.6914 77.8791 86.3607 78.645 87.1863 78.645Z"></path>
<path fill="#313131" d="M100.866 78.645C101.692 78.645 102.361 77.8791 102.361 76.9343C102.361 75.9895 101.692 75.2236 100.866 75.2236C100.04 75.2236 99.3711 75.9895 99.3711 76.9343C99.3711 77.8791 100.04 78.645 100.866 78.645Z"></path>
<path fill="#313131" d="M94.1589 90.3814C92.5611 90.3814 91.0367 89.604 90.1006 88.307C89.7553 87.8286 89.8632 87.1609 90.3414 86.8156C90.8198 86.4703 91.4878 86.5782 91.8329 87.0566C92.9747 88.6384 95.376 88.5925 96.5006 87.0303C96.8606 86.5626 97.5309 86.475 97.9991 86.8352C98.4666 87.1951 98.554 87.8658 98.1942 88.3335C97.2534 89.6094 95.7474 90.3814 94.1589 90.3814Z"></path>
<path fill="#313131" d="M140.869 101.616L135.277 80.4335C134.211 76.4002 130.397 73.4955 126.23 73.4955C122.662 73.3936 119.169 75.2752 119.19 79.3246C119.206 82.4167 121.665 84.9481 124.725 85.0853L127.019 97.281C122.307 95.4246 117.02 95.6513 112.448 97.9632C109.406 96.9301 106.258 96.1547 103.073 95.647V94.4167C106.689 91.819 109.147 87.7071 109.506 83.0156C113.949 79.1934 116.489 73.856 116.489 68.2991C116.489 57.1062 106.424 48 94.053 48C92.157 48 90.2726 48.2147 88.4523 48.6382C86.1218 49.1806 84.3476 50.9085 83.7085 53.097C81.8666 52.2942 79.6504 52.6038 78.0825 54.0415C73.9132 57.8637 71.6171 62.9271 71.6171 68.2994C71.6171 73.8564 74.1566 79.1938 78.6004 83.016C78.9594 87.7075 81.4164 91.8192 85.0325 94.4169V95.659C81.879 96.1665 78.7579 96.9383 75.7378 97.9643C71.1273 95.6496 65.7914 95.4231 61.0374 97.2876L63.3325 85.0857C66.4075 84.9474 68.8664 82.4024 68.8664 79.2938C68.8664 76.1006 66.2688 73.4998 63.0754 73.4959C58.3807 73.4043 54.003 75.7274 52.7322 80.5421C51.807 84.0485 48.8788 95.1427 47.1241 101.79C46.0015 106.042 48.7948 109.428 52.5805 110.841C51.3775 112.521 49.5139 113.642 47.4741 113.949C46.9671 114.033 46.5912 114.465 46.5792 114.979C46.2619 128.754 51.11 136.969 55.2329 141.434C59.7393 146.314 64.3057 147.881 64.4978 147.945C64.7585 148.03 65.0169 148.017 65.2728 147.907C65.4615 147.823 69.9436 145.784 74.3981 140.691C78.4921 136.01 83.3241 127.75 83.0944 114.984C83.0852 114.468 82.7087 114.033 82.1995 113.949C78.4624 113.386 75.6491 110.123 75.6645 106.338C75.6055 105.685 75.2493 105.327 74.5961 105.265H55.0778C54.4245 105.327 54.0684 105.684 54.0094 106.338C54.0132 107.245 53.8594 108.118 53.5743 108.929C50.7357 107.898 48.3068 105.681 49.1901 102.335C50.9448 95.6876 53.8735 84.5932 54.7987 81.0868C55.8211 77.2094 59.3485 75.5291 63.0733 75.6323C65.0897 75.6346 66.7299 77.2769 66.7299 79.2934C66.7299 81.6436 64.6408 83.0919 62.4453 82.9545C61.9314 82.9545 61.4901 83.3203 61.3953 83.8254L58.5549 98.9259C58.3716 99.8998 59.3912 100.356 60.1587 100.039C64.8562 97.5477 70.46 97.5575 75.1487 100.066C75.4117 100.206 75.7213 100.23 76.003 100.133L76.1184 100.093C79.0119 99.0902 82.0053 98.3342 85.0325 97.828V100.678C85.0325 105.327 88.5673 109.165 93.0901 109.647V137.79C93.0901 138.379 93.5683 138.858 94.1585 138.858C94.7487 138.858 95.2269 138.379 95.2269 137.79V109.62C99.6476 109.042 103.073 105.254 103.073 100.678V97.8098C106.172 98.3235 109.231 99.1024 112.183 100.132C112.464 100.231 112.775 100.206 113.038 100.065L113.087 100.04C117.743 97.5491 123.297 97.5579 127.946 100.064C128.722 100.482 129.666 99.7921 129.503 98.9256L126.662 83.8252C126.567 83.3201 126.126 82.9543 125.612 82.9543C123.427 83.0923 121.339 81.6541 121.326 79.3132C121.312 76.4964 123.862 75.5517 126.23 75.6321C129.434 75.6321 132.39 77.8739 133.211 80.9788L138.803 102.162C139.262 103.897 138.823 105.735 137.63 107.077C137.238 107.518 137.278 108.194 137.719 108.585C138.234 108.973 138.736 108.943 139.227 108.497C140.897 106.618 141.511 104.046 140.869 101.616ZM56.0934 107.402H73.5814C74.006 111.505 76.9401 114.89 80.9664 115.88C80.9679 125.165 78.2421 133.009 72.8579 139.206C69.432 143.15 65.9258 145.171 64.785 145.766C63.6318 145.285 60.1305 143.62 56.7231 139.896C51.4 134.079 48.635 125.79 48.7034 115.881C52.7322 114.893 55.6686 111.506 56.0934 107.402ZM79.3575 61.1829C78.8844 61.3036 78.5532 61.7299 78.5532 62.2182V80.022C75.4788 76.7622 73.7538 72.5994 73.7538 68.2994C73.7538 63.5331 75.8038 59.0291 79.5265 55.6169C80.7081 54.5338 82.6196 54.5479 83.7716 55.6752C84.4346 56.3244 85.5872 55.8391 85.5872 54.9115C85.5872 52.9024 86.9643 51.1786 88.9365 50.7199C90.5983 50.3331 92.3198 50.137 94.053 50.137C105.246 50.137 114.352 58.2846 114.352 68.2994C114.352 72.5996 112.627 76.762 109.553 80.0218V60.0814C109.553 59.2808 108.665 58.7577 107.965 59.1479L95.569 66.0483C90.2993 68.9818 83.4448 66.9923 80.5594 61.7064C80.3252 61.2776 79.8307 61.0626 79.3575 61.1829ZM100.937 100.678C100.937 104.474 97.8487 107.562 94.053 107.562C90.2572 107.562 87.1692 104.474 87.1692 100.678V95.706C91.4662 97.8455 96.6386 97.8459 100.937 95.706V100.678ZM94.053 95.1872C86.8936 95.1872 81.0325 89.5274 80.7057 82.4472C80.7057 82.4466 80.7057 82.4462 80.7057 82.4455C80.7057 82.4425 80.6899 65.4921 80.6899 65.4921C84.7579 69.7863 91.4425 70.791 96.6081 67.9152L107.416 61.8989C107.416 61.8989 107.4 82.4393 107.4 82.4455C107.4 82.4474 107.4 82.4494 107.4 82.4513C107.071 89.5297 101.211 95.1872 94.053 95.1872Z"></path>
<path fill="#313131" d="M72.0983 125.137H65.9017V118.94C65.9017 118.35 65.4235 117.872 64.8333 117.872C64.2432 117.872 63.765 118.35 63.765 118.94V125.137H57.5684C56.9782 125.137 56.5 125.615 56.5 126.205C56.5 126.795 56.9782 127.274 57.5684 127.274H63.765V133.47C63.765 134.06 64.2432 134.539 64.8333 134.539C65.4235 134.539 65.9017 134.06 65.9017 133.47V127.274H72.0983C72.6885 127.274 73.1667 126.795 73.1667 126.205C73.1667 125.615 72.6885 125.137 72.0983 125.137Z"></path>
<path fill="#313131" d="M121.373 134.211C116.608 134.211 112.732 130.332 112.732 125.564C112.732 120.797 116.608 116.918 121.373 116.918C126.137 116.918 130.013 120.797 130.013 125.564C130.013 130.332 126.137 134.211 121.373 134.211ZM121.373 119.055C117.787 119.055 114.869 121.975 114.869 125.564C114.869 129.154 117.786 132.074 121.373 132.074C124.959 132.074 127.876 129.154 127.876 125.564C127.876 121.975 124.958 119.055 121.373 119.055Z"></path>
<path fill="#313131" d="M121.009 124.983C121.938 124.983 122.692 124.229 122.692 123.299C122.692 122.369 121.938 121.615 121.009 121.615C120.08 121.615 119.326 122.369 119.326 123.299C119.326 124.229 120.08 124.983 121.009 124.983Z"></path>
<path fill="#313131" d="M121.77 130.082C122.467 130.082 123.032 129.516 123.032 128.819C123.032 128.121 122.467 127.556 121.77 127.556C121.073 127.556 120.508 128.121 120.508 128.819C120.508 129.516 121.073 130.082 121.77 130.082Z"></path>
<path fill="#313131" d="M121.361 147.999C118.938 147.999 116.8 146.077 116.545 143.666C116.393 142.226 116.88 140.807 117.882 139.77C118.068 139.538 118.012 139.339 117.712 139.173C115.338 138.536 113.16 137.275 111.413 135.526C111.144 135.371 110.951 135.413 110.834 135.652C110.492 136.888 109.695 137.92 108.588 138.56C106.119 139.986 102.847 138.885 101.709 136.292C100.802 134.224 101.47 131.759 103.297 130.43C104.48 129.57 105.967 129.288 107.376 129.654C107.638 129.671 107.769 129.526 107.768 129.219C107.128 126.832 107.129 124.281 107.772 121.894C107.765 121.594 107.631 121.454 107.37 121.475C106.131 121.795 104.839 121.62 103.733 120.981C101.265 119.554 100.573 116.181 102.257 113.887C103.593 112.066 106.061 111.412 108.125 112.332C109.459 112.927 110.447 114.073 110.835 115.477C110.952 115.715 111.145 115.757 111.413 115.601C113.16 113.853 115.338 112.592 117.712 111.954C118.011 111.79 118.068 111.591 117.885 111.359C117.003 110.449 116.518 109.25 116.518 107.985C116.518 105.134 119.09 102.847 121.919 103.158C124.161 103.406 125.961 105.216 126.198 107.462C126.35 108.901 125.863 110.321 124.86 111.357C124.674 111.59 124.731 111.789 125.031 111.954C127.405 112.592 129.583 113.853 131.329 115.601C131.599 115.757 131.792 115.715 131.909 115.475C132.25 114.241 133.048 113.208 134.155 112.568C136.623 111.142 139.896 112.242 141.034 114.836C141.941 116.904 141.273 119.369 139.445 120.698C138.263 121.557 136.776 121.84 135.367 121.473C135.105 121.457 134.974 121.602 134.975 121.909C135.614 124.293 135.614 126.839 134.974 129.223C134.976 129.524 135.105 129.668 135.359 129.656C136.771 129.287 138.26 129.569 139.445 130.43C141.273 131.759 141.941 134.224 141.034 136.292C139.895 138.888 136.622 139.985 134.155 138.56C133.048 137.92 132.251 136.888 131.909 135.652C131.792 135.413 131.599 135.371 131.329 135.526C129.583 137.275 127.405 138.536 125.031 139.173C124.732 139.338 124.675 139.536 124.858 139.768C125.74 140.679 126.226 141.877 126.226 143.142C126.225 145.779 123.996 147.999 121.361 147.999ZM111.163 133.287C111.808 133.287 112.446 133.537 112.925 134.016C114.407 135.5 116.254 136.569 118.266 137.11C120.054 137.59 120.726 139.903 119.418 141.256C118.857 141.836 118.584 142.633 118.67 143.442C118.802 144.696 119.807 145.707 121.058 145.845C122.636 146.021 124.089 144.741 124.089 143.142C124.089 142.435 123.817 141.765 123.323 141.255C122.027 139.916 122.68 137.592 124.476 137.11C126.489 136.569 128.336 135.499 129.818 134.016C131.123 132.71 133.475 133.301 133.968 135.083C134.159 135.774 134.605 136.352 135.224 136.709C136.604 137.507 138.438 136.891 139.077 135.433C139.584 134.278 139.21 132.901 138.189 132.158C137.524 131.675 136.689 131.516 135.9 131.723C134.118 132.188 132.439 130.425 132.91 128.669C133.451 126.652 133.451 124.478 132.911 122.462C132.441 120.709 134.1 118.937 135.904 119.405C136.692 119.61 137.525 119.451 138.189 118.969C139.21 118.227 139.584 116.85 139.077 115.694C138.44 114.241 136.609 113.617 135.224 114.418C134.605 114.776 134.159 115.353 133.968 116.045C133.474 117.826 131.123 118.418 129.818 117.112C128.336 115.628 126.489 114.559 124.476 114.018C122.688 113.537 122.016 111.225 123.324 109.872C123.885 109.291 124.158 108.495 124.073 107.686C123.94 106.431 122.936 105.42 121.684 105.282C120.106 105.108 118.654 106.385 118.654 107.985C118.654 108.693 118.925 109.363 119.419 109.873C120.716 111.211 120.062 113.535 118.266 114.018C116.254 114.558 114.407 115.628 112.925 117.111C111.621 118.417 109.267 117.828 108.775 116.046C108.558 115.26 108.004 114.617 107.254 114.283C106.103 113.769 104.725 114.134 103.979 115.151C103.04 116.43 103.416 118.33 104.802 119.131C105.42 119.488 106.142 119.585 106.835 119.406C108.613 118.947 110.31 120.685 109.835 122.45C109.291 124.469 109.29 126.647 109.832 128.666C110.302 130.419 108.643 132.191 106.838 131.722C106.05 131.517 105.217 131.676 104.553 132.158C103.532 132.901 103.159 134.278 103.666 135.433C104.303 136.886 106.133 137.51 107.519 136.709C108.137 136.352 108.583 135.774 108.775 135.082C109.062 134.042 110.09 133.287 111.163 133.287Z"></path>
<path fill="#313131" d="M94.1582 146.058C94.9403 146.058 95.5742 145.417 95.5742 144.627C95.5742 143.836 94.9403 143.195 94.1582 143.195C93.3762 143.195 92.7422 143.836 92.7422 144.627C92.7422 145.417 93.3762 146.058 94.1582 146.058Z"></path>
</g>
<defs>
<clipPath id="clip0_100_384">
<rect fill="white" height="196" width="189"></rect>
</clipPath>
<clipPath id="clip1_100_384">
<rect transform="translate(44 48)" fill="white" height="100" width="100"></rect>
</clipPath>
</defs>
</svg>
