<svg xmlns="http://www.w3.org/2000/svg" fill="none" viewBox="0 0 24 24" height="24" width="24">
<path fill="#3BD6D0" d="M6.09375 7.875H11.9062C12.13 7.875 12.3446 7.96389 12.5029 8.12213C12.6611 8.28036 12.75 8.49497 12.75 8.71875V22.875H5.25V8.71875C5.25 8.49497 5.33889 8.28036 5.49713 8.12213C5.65536 7.96389 5.86997 7.875 6.09375 7.875Z"></path>
<path fill="#37C9C3" d="M9.75 13.5H12.75V19.5H9.75V13.5Z"></path>
<path fill="#45ECDC" d="M12.75 21.75H9.375C9.27554 21.75 9.18016 21.7105 9.10983 21.6402C9.03951 21.5698 9 21.4745 9 21.375C9 21.2755 9.03951 21.1802 9.10983 21.1098C9.18016 21.0395 9.27554 21 9.375 21H12.75C12.8495 21 12.9448 21.0395 13.0152 21.1098C13.0855 21.1802 13.125 21.2755 13.125 21.375C13.125 21.4745 13.0855 21.5698 13.0152 21.6402C12.9448 21.7105 12.8495 21.75 12.75 21.75Z"></path>
<path fill="#45ECDC" d="M7.875 21.75H5.25C5.15054 21.75 5.05516 21.7105 4.98484 21.6402C4.91451 21.5698 4.875 21.4745 4.875 21.375C4.875 21.2755 4.91451 21.1802 4.98484 21.1098C5.05516 21.0395 5.15054 21 5.25 21H7.875C7.97446 21 8.06984 21.0395 8.14017 21.1098C8.21049 21.1802 8.25 21.2755 8.25 21.375C8.25 21.4745 8.21049 21.5698 8.14017 21.6402C8.06984 21.7105 7.97446 21.75 7.875 21.75Z"></path>
<path fill="#EA9D2D" d="M19.917 4.91552L19.0078 4.00638L19.7929 2.95952C19.8648 2.86366 19.9565 2.78438 20.0617 2.72703C20.1669 2.66967 20.2832 2.6356 20.4027 2.6271C20.5222 2.61861 20.6422 2.6359 20.7544 2.67779C20.8667 2.71969 20.9686 2.78522 21.0533 2.86994C21.1381 2.95465 21.2036 3.05659 21.2455 3.16884C21.2874 3.28109 21.3047 3.40104 21.2963 3.52056C21.2878 3.64008 21.2537 3.75638 21.1964 3.86159C21.139 3.9668 21.0598 4.05846 20.9639 4.13036L19.917 4.91552Z"></path>
<path fill="#EA9D2D" d="M19.9155 4.00638L19.0064 4.91552L17.9595 4.13036C17.8637 4.05846 17.7844 3.96681 17.727 3.86161C17.6697 3.75641 17.6356 3.64011 17.6271 3.52059C17.6186 3.40107 17.6359 3.28112 17.6778 3.16887C17.7197 3.05661 17.7852 2.95467 17.8699 2.86994C17.9547 2.78522 18.0566 2.71969 18.1689 2.67779C18.2811 2.6359 18.4011 2.61861 18.5206 2.6271C18.6401 2.6356 18.7564 2.66967 18.8616 2.72703C18.9668 2.78438 19.0585 2.86366 19.1304 2.95952L19.9155 4.00638Z"></path>
<path fill="#EA9D2D" d="M19.0064 4.00635L19.9155 4.91549L19.1304 5.96244C19.0585 6.0583 18.9668 6.13759 18.8616 6.19495C18.7564 6.2523 18.6401 6.28638 18.5206 6.29488C18.4011 6.30337 18.2811 6.28608 18.1689 6.24418C18.0566 6.20228 17.9547 6.13675 17.8699 6.05202C17.7852 5.96729 17.7197 5.86535 17.6778 5.75309C17.6359 5.64083 17.6186 5.52089 17.6271 5.40137C17.6356 5.28185 17.6697 5.16555 17.727 5.06035C17.7844 4.95514 17.8637 4.86349 17.9595 4.7916L19.0064 4.00635Z"></path>
<path fill="#EA9D2D" d="M19.0078 4.91549L19.917 4.00635L20.9639 4.79146C21.0598 4.86335 21.1391 4.955 21.1964 5.0602C21.2538 5.1654 21.2878 5.2817 21.2963 5.40122C21.3048 5.52075 21.2875 5.6407 21.2456 5.75295C21.2037 5.86521 21.1382 5.96715 21.0535 6.05188C20.9688 6.13661 20.8668 6.20214 20.7546 6.24404C20.6423 6.28594 20.5224 6.30323 20.4028 6.29474C20.2833 6.28624 20.167 6.25216 20.0618 6.19481C19.9566 6.13745 19.865 6.05816 19.7931 5.9623L19.0078 4.91549Z"></path>
<path fill="#D9D9D9" d="M7.5 5.625H10.5V7.875H7.5V5.625Z"></path>
<path fill="#D9D9D9" d="M12 1.125H9.28125C8.90829 1.125 8.5506 1.27316 8.28688 1.53688C8.02316 1.8006 7.875 2.15829 7.875 2.53125V3.375H10.125V2.625H13.5C13.5 2.22718 13.342 1.84564 13.0607 1.56434C12.7794 1.28304 12.3978 1.125 12 1.125Z"></path>
<path fill="#B9B9B9" d="M8.25 3.375H9.75V5.625H8.25V3.375Z"></path>
<path fill="#FD9226" d="M6.75 19.125H2.25L1.125 10.875H7.875L6.75 19.125Z"></path>
<path fill="#FBB540" d="M4.49669 15.7107C5.0493 15.7107 5.49728 15.2627 5.49728 14.7101C5.49728 14.1575 5.0493 13.7095 4.49669 13.7095C3.94407 13.7095 3.49609 14.1575 3.49609 14.7101C3.49609 15.2627 3.94407 15.7107 4.49669 15.7107Z"></path>
<path fill="#FBB540" d="M4.5 13.401C4.40054 13.401 4.30516 13.3615 4.23484 13.2912C4.16451 13.2209 4.125 13.1255 4.125 13.026V12.5449C4.125 12.4455 4.16451 12.3501 4.23484 12.2798C4.30516 12.2094 4.40054 12.1699 4.5 12.1699C4.59946 12.1699 4.69484 12.2094 4.76516 12.2798C4.83549 12.3501 4.875 12.4455 4.875 12.5449V13.026C4.875 13.1255 4.83549 13.2209 4.76516 13.2912C4.69484 13.3615 4.59946 13.401 4.5 13.401Z"></path>
<path fill="#FBB540" d="M3.03954 14.2428C2.97382 14.2428 2.90927 14.2255 2.85242 14.1925L2.43575 13.952C2.39276 13.9275 2.35502 13.8948 2.32472 13.8557C2.29442 13.8166 2.27215 13.772 2.25919 13.7242C2.24624 13.6765 2.24285 13.6267 2.24922 13.5776C2.2556 13.5286 2.27161 13.4813 2.29634 13.4385C2.32106 13.3956 2.35402 13.3581 2.39331 13.3281C2.43259 13.298 2.47743 13.2761 2.52524 13.2634C2.57306 13.2508 2.6229 13.2477 2.67189 13.2544C2.72089 13.2611 2.76808 13.2775 2.81075 13.3025L3.22742 13.543C3.29896 13.5843 3.35486 13.6481 3.38646 13.7244C3.41806 13.8007 3.42358 13.8853 3.40216 13.9651C3.38074 14.0448 3.33359 14.1153 3.26802 14.1655C3.20246 14.2158 3.12214 14.2429 3.03954 14.2428Z"></path>
<path fill="#FBB540" d="M2.62536 16.1677C2.54278 16.1678 2.46248 16.1406 2.39693 16.0904C2.33138 16.0402 2.28424 15.9697 2.26283 15.8899C2.24141 15.8102 2.24692 15.7256 2.27851 15.6493C2.31009 15.573 2.36597 15.5092 2.43748 15.468L2.85416 15.2274C2.89683 15.202 2.94411 15.1854 2.99326 15.1785C3.04241 15.1715 3.09244 15.1744 3.14047 15.187C3.18849 15.1995 3.23354 15.2215 3.27302 15.2516C3.31249 15.2817 3.34559 15.3193 3.37041 15.3623C3.39523 15.4053 3.41127 15.4528 3.4176 15.502C3.42393 15.5512 3.42042 15.6012 3.40728 15.6491C3.39414 15.6969 3.37163 15.7417 3.34106 15.7808C3.31048 15.8199 3.27244 15.8526 3.22916 15.8768L2.81248 16.1174C2.75563 16.1504 2.69108 16.1677 2.62536 16.1677Z"></path>
<path fill="#FBB540" d="M4.5 17.2502C4.40054 17.2502 4.30516 17.2107 4.23484 17.1403C4.16451 17.07 4.125 16.9746 4.125 16.8752V16.394C4.125 16.2946 4.16451 16.1992 4.23484 16.1289C4.30516 16.0586 4.40054 16.019 4.5 16.019C4.59946 16.019 4.69484 16.0586 4.76516 16.1289C4.83549 16.1992 4.875 16.2946 4.875 16.394V16.8752C4.875 16.9746 4.83549 17.07 4.76516 17.1403C4.69484 17.2107 4.59946 17.2502 4.5 17.2502Z"></path>
<path fill="#FBB540" d="M6.37343 16.1677C6.30771 16.1677 6.24316 16.1504 6.1863 16.1174L5.76963 15.8768C5.72634 15.8526 5.68831 15.8199 5.65773 15.7808C5.62716 15.7417 5.60464 15.6969 5.5915 15.6491C5.57836 15.6012 5.57486 15.5512 5.58119 15.502C5.58752 15.4528 5.60355 15.4053 5.62837 15.3623C5.65319 15.3193 5.6863 15.2817 5.72577 15.2516C5.76524 15.2215 5.8103 15.1995 5.85832 15.187C5.90634 15.1744 5.95638 15.1715 6.00553 15.1785C6.05468 15.1854 6.10196 15.202 6.14463 15.2274L6.5613 15.468C6.63282 15.5092 6.6887 15.573 6.72028 15.6493C6.75186 15.7256 6.75737 15.8102 6.73596 15.8899C6.71455 15.9697 6.66741 16.0402 6.60186 16.0904C6.5363 16.1406 6.45601 16.1678 6.37343 16.1677Z"></path>
<path fill="#FBB540" d="M5.95747 14.2428C5.87488 14.2429 5.79456 14.2158 5.72899 14.1655C5.66342 14.1153 5.61627 14.0448 5.59486 13.9651C5.57344 13.8853 5.57896 13.8007 5.61056 13.7244C5.64215 13.6481 5.69806 13.5843 5.7696 13.543L6.18627 13.3025C6.22893 13.2775 6.27612 13.2611 6.32512 13.2544C6.37412 13.2477 6.42396 13.2508 6.47177 13.2634C6.51959 13.2761 6.56443 13.298 6.60371 13.3281C6.643 13.3581 6.67595 13.3956 6.70068 13.4385C6.72541 13.4813 6.74142 13.5286 6.74779 13.5776C6.75417 13.6267 6.75078 13.6765 6.73782 13.7242C6.72486 13.772 6.70259 13.8166 6.67229 13.8557C6.64199 13.8948 6.60426 13.9275 6.56127 13.952L6.1446 14.1925C6.08775 14.2255 6.02319 14.2428 5.95747 14.2428Z"></path>
<path fill="#428DC5" d="M2.25 20.625H6.75V22.875H2.25V20.625Z"></path>
<path fill="#36759E" d="M3.75 20.625H5.25V21.375C5.25 21.4745 5.21049 21.5698 5.14016 21.6402C5.06984 21.7105 4.97446 21.75 4.875 21.75H4.125C4.02554 21.75 3.93016 21.7105 3.85984 21.6402C3.78951 21.5698 3.75 21.4745 3.75 21.375V20.625Z"></path>
<path fill="#4799CF" d="M2.25 19.125H6.75V20.625H2.25V19.125Z"></path>
<path fill="#E08122" d="M1.125 9.375H7.875V10.875H1.125V9.375Z"></path>
<path fill="#FBD699" d="M19.875 13.875H20.25C20.4878 13.3994 20.6296 12.8817 20.6672 12.3514C20.7049 11.821 20.6378 11.2884 20.4697 10.784L20.25 10.125L19.32 10.59C18.4519 11.024 17.4947 11.25 16.5242 11.25H16.2088C15.9515 11.25 15.6968 11.3007 15.4592 11.3991C15.2215 11.4975 15.0056 11.6418 14.8237 11.8237C14.6418 12.0056 14.4975 12.2215 14.3991 12.4592C14.3007 12.6968 14.25 12.9515 14.25 13.2088V13.875H14.3932C13.858 13.875 13.3446 14.0876 12.9661 14.4661C12.5876 14.8446 12.375 15.358 12.375 15.8932V16.875H19.875C20.2728 16.875 20.6544 16.717 20.9357 16.4357C21.217 16.1544 21.375 15.7728 21.375 15.375C21.375 14.9772 21.217 14.5956 20.9357 14.3143C20.6544 14.033 20.2728 13.875 19.875 13.875Z"></path>
<path fill="#F7BA61" d="M16.5 14.25H14.25C14.1505 14.25 14.0552 14.2105 13.9848 14.1402C13.9145 14.0698 13.875 13.9745 13.875 13.875C13.875 13.7755 13.9145 13.6802 13.9848 13.6098C14.0552 13.5395 14.1505 13.5 14.25 13.5H16.5C16.5995 13.5 16.6948 13.5395 16.7652 13.6098C16.8355 13.6802 16.875 13.7755 16.875 13.875C16.875 13.9745 16.8355 14.0698 16.7652 14.1402C16.6948 14.2105 16.5995 14.25 16.5 14.25Z"></path>
<path fill="#F7BA61" d="M20.25 14.25H18.75C18.6505 14.25 18.5552 14.2105 18.4848 14.1402C18.4145 14.0698 18.375 13.9745 18.375 13.875C18.375 13.7755 18.4145 13.6802 18.4848 13.6098C18.5552 13.5395 18.6505 13.5 18.75 13.5H20.25C20.3495 13.5 20.4448 13.5395 20.5152 13.6098C20.5855 13.6802 20.625 13.7755 20.625 13.875C20.625 13.9745 20.5855 14.0698 20.5152 14.1402C20.4448 14.2105 20.3495 14.25 20.25 14.25Z"></path>
<path fill="#FFB1B5" d="M18 22.875H15.75C14.5565 22.875 13.4119 22.4009 12.568 21.557C11.7241 20.7131 11.25 19.5685 11.25 18.375V17.625H22.5V18.375C22.5 19.5685 22.0259 20.7131 21.182 21.557C20.3381 22.4009 19.1935 22.875 18 22.875Z"></path>
<path fill="#EEA5A9" d="M11.625 16.125H22.125V17.625H11.625V16.125Z"></path>
<path fill="#E6A0A3" d="M11.625 16.875H22.125V17.625H11.625V16.875Z"></path>
<path fill="#D18D28" d="M19.4592 5.10356C19.8143 5.10356 20.1021 4.81575 20.1021 4.46071C20.1021 4.10568 19.8143 3.81787 19.4592 3.81787C19.1042 3.81787 18.8164 4.10568 18.8164 4.46071C18.8164 4.81575 19.1042 5.10356 19.4592 5.10356Z"></path>
<path fill="#FFB1B5" d="M12.75 10.3927V9.10705L14.0454 8.92199C14.164 8.90503 14.2849 8.91377 14.3998 8.9476C14.5148 8.98143 14.6211 9.03957 14.7116 9.11808C14.8022 9.19659 14.8748 9.29363 14.9245 9.40264C14.9743 9.51164 15 9.63007 15 9.74989C15 9.86972 14.9743 9.98814 14.9245 10.0971C14.8748 10.2062 14.8022 10.3032 14.7116 10.3817C14.6211 10.4602 14.5148 10.5183 14.3998 10.5522C14.2849 10.586 14.164 10.5947 14.0454 10.5778L12.75 10.3927Z"></path>
<path fill="#FFB1B5" d="M13.3932 9.75H12.1075L11.9225 8.45461C11.9055 8.33599 11.9143 8.21512 11.9481 8.10017C11.9819 7.98522 12.0401 7.87888 12.1186 7.78836C12.1971 7.69784 12.2941 7.62525 12.4031 7.57549C12.5121 7.52574 12.6306 7.5 12.7504 7.5C12.8702 7.5 12.9886 7.52574 13.0976 7.57549C13.2066 7.62525 13.3037 7.69784 13.3822 7.78836C13.4607 7.87888 13.5188 7.98522 13.5527 8.10017C13.5865 8.21512 13.5952 8.33599 13.5783 8.45461L13.3932 9.75Z"></path>
<path fill="#FFB1B5" d="M12.75 9.10705V10.3927L11.4546 10.5778C11.336 10.5947 11.2151 10.586 11.1002 10.5522C10.9852 10.5183 10.8789 10.4602 10.7884 10.3817C10.6978 10.3032 10.6252 10.2062 10.5755 10.0971C10.5257 9.98814 10.5 9.86972 10.5 9.74989C10.5 9.63007 10.5257 9.51164 10.5755 9.40264C10.6252 9.29363 10.6978 9.19659 10.7884 9.11808C10.8789 9.03957 10.9852 8.98143 11.1002 8.9476C11.2151 8.91377 11.336 8.90503 11.4546 8.92199L12.75 9.10705Z"></path>
<path fill="#FFB1B5" d="M12.1075 9.75H13.3932L13.5783 11.0454C13.5952 11.164 13.5865 11.2849 13.5527 11.3998C13.5188 11.5148 13.4607 11.6211 13.3822 11.7116C13.3037 11.8022 13.2066 11.8748 13.0976 11.9245C12.9886 11.9743 12.8702 12 12.7504 12C12.6306 12 12.5121 11.9743 12.4031 11.9245C12.2941 11.8748 12.1971 11.8022 12.1186 11.7116C12.0401 11.6211 11.9819 11.5148 11.9481 11.3998C11.9143 11.2849 11.9055 11.164 11.9225 11.0454L12.1075 9.75Z"></path>
<path fill="#DE9A9E" d="M12.7483 10.3926C13.1033 10.3926 13.3912 10.1048 13.3912 9.74978C13.3912 9.39474 13.1033 9.10693 12.7483 9.10693C12.3933 9.10693 12.1055 9.39474 12.1055 9.74978C12.1055 10.1048 12.3933 10.3926 12.7483 10.3926Z"></path>
<path fill="#A8A8A8" d="M8.25 3.375H9.75V4.125H8.25V3.375Z"></path>
<path fill="black" d="M17.2531 5.3747C17.2413 5.54058 17.2637 5.7071 17.3191 5.86391C17.3745 6.02071 17.4615 6.16444 17.5749 6.28614C17.6882 6.40783 17.8254 6.50489 17.9778 6.57126C18.1303 6.63763 18.2948 6.67189 18.4611 6.67192C18.4897 6.67192 18.5184 6.6709 18.5472 6.66887C18.7203 6.65662 18.8888 6.6073 19.0412 6.52425C19.1935 6.4412 19.3263 6.32636 19.4304 6.18751L19.461 6.14678L19.4915 6.18751C19.5957 6.32628 19.7284 6.44104 19.8808 6.52404C20.0332 6.60705 20.2016 6.65635 20.3747 6.66861C20.5477 6.68087 20.7214 6.65581 20.884 6.59512C21.0465 6.53443 21.1941 6.43953 21.3168 6.31684C21.4395 6.19416 21.5344 6.04654 21.5951 5.88399C21.6558 5.72144 21.6809 5.54776 21.6686 5.37468C21.6563 5.20161 21.607 5.03319 21.524 4.88082C21.441 4.72845 21.3263 4.59569 21.1875 4.49153L21.1468 4.46101L21.1875 4.43045C21.3264 4.32632 21.4412 4.19357 21.5243 4.04119C21.6074 3.88881 21.6567 3.72035 21.669 3.54723C21.6813 3.37411 21.6563 3.20037 21.5956 3.03777C21.5349 2.87517 21.44 2.7275 21.3173 2.60478C21.1946 2.48206 21.0469 2.38714 20.8843 2.32646C20.7217 2.26577 20.5479 2.24074 20.3748 2.25305C20.2017 2.26536 20.0332 2.31473 19.8809 2.39781C19.7285 2.4809 19.5957 2.59575 19.4916 2.73461L19.4611 2.77534L19.4305 2.73461C19.3264 2.59576 19.1937 2.4809 19.0413 2.39782C18.8889 2.31475 18.7204 2.26538 18.5473 2.25308C18.3742 2.24077 18.2005 2.26581 18.0379 2.3265C17.8753 2.38719 17.7276 2.48211 17.6049 2.60483C17.4821 2.72756 17.3872 2.87522 17.3265 3.03783C17.2659 3.20043 17.2408 3.37417 17.2531 3.54729C17.2654 3.72041 17.3148 3.88887 17.3979 4.04125C17.481 4.19363 17.5958 4.32637 17.7347 4.4305L17.7754 4.46101L17.7347 4.49158C17.5958 4.59566 17.4809 4.72839 17.3978 4.88076C17.3147 5.03313 17.2654 5.20158 17.2531 5.3747ZM19.6503 4.65039C19.6065 4.69416 19.5489 4.72139 19.4872 4.72744C19.4256 4.73348 19.3638 4.71797 19.3123 4.68354C19.2608 4.64911 19.2228 4.59789 19.2049 4.53861C19.1869 4.47933 19.19 4.41566 19.2138 4.35844C19.2375 4.30122 19.2803 4.254 19.3349 4.22481C19.3896 4.19562 19.4526 4.18628 19.5134 4.19837C19.5741 4.21046 19.6288 4.24324 19.6681 4.29112C19.7074 4.339 19.7288 4.39903 19.7288 4.46097C19.7289 4.49616 19.722 4.53103 19.7086 4.56354C19.6951 4.59606 19.6753 4.62558 19.6503 4.65039ZM20.7868 5.78678C20.7401 5.83352 20.6838 5.86967 20.6219 5.89278C20.56 5.9159 20.4938 5.92543 20.4279 5.92075C20.362 5.91606 20.2978 5.89726 20.2398 5.86563C20.1817 5.83399 20.1312 5.79025 20.0915 5.73737L19.8421 5.40494C19.9689 5.35363 20.084 5.27738 20.1807 5.18071C20.2773 5.08404 20.3536 4.96892 20.4049 4.8422L20.7374 5.09153C20.7902 5.13119 20.834 5.18175 20.8656 5.23978C20.8972 5.29781 20.916 5.36196 20.9207 5.42789C20.9254 5.49382 20.9159 5.55999 20.8928 5.62192C20.8697 5.68384 20.8335 5.74008 20.7868 5.78683V5.78678ZM20.4278 3.00119C20.5272 2.99413 20.6262 3.01944 20.71 3.07331C20.7938 3.12719 20.8579 3.20674 20.8927 3.30008C20.9275 3.39341 20.9312 3.49551 20.9032 3.5911C20.8751 3.68669 20.8169 3.77065 20.7372 3.8304L20.4048 4.07973C20.3535 3.95297 20.2773 3.83784 20.1806 3.7412C20.0839 3.64455 19.9687 3.56838 19.8419 3.51723L20.0913 3.18442C20.1307 3.13125 20.1812 3.0873 20.2394 3.05566C20.2975 3.02401 20.3618 3.00542 20.4278 3.00119ZM18.1352 3.13515C18.1776 3.09217 18.2282 3.05808 18.2839 3.03488C18.3397 3.01167 18.3995 2.99982 18.4598 3.00001C18.4712 3.00001 18.4826 3.00042 18.494 3.00123C18.5601 3.00548 18.6244 3.02409 18.6825 3.05576C18.7406 3.08743 18.791 3.13141 18.8304 3.18461L19.0799 3.51742C18.9531 3.56851 18.838 3.64466 18.7413 3.74132C18.6447 3.83797 18.5685 3.95314 18.5174 4.07992L18.1846 3.83045C18.1317 3.79079 18.088 3.74023 18.0563 3.6822C18.0247 3.62416 18.0059 3.56 18.0012 3.49407C17.9965 3.42813 18.0061 3.36196 18.0292 3.30004C18.0523 3.23812 18.0885 3.18188 18.1352 3.13515H18.1352ZM18.0012 5.42786C18.0054 5.36183 18.024 5.29753 18.0557 5.23944C18.0874 5.18135 18.1314 5.13087 18.1846 5.09153L18.5174 4.84201C18.5685 4.96881 18.6447 5.08401 18.7413 5.18072C18.838 5.27744 18.9531 5.35369 19.0799 5.40494L18.8305 5.73737C18.7708 5.81706 18.6868 5.87527 18.5912 5.90328C18.4956 5.9313 18.3935 5.92763 18.3002 5.89281C18.2069 5.85799 18.1273 5.7939 18.0734 5.71012C18.0196 5.62633 17.9942 5.52736 18.0013 5.428L18.0012 5.42786Z"></path>
<path fill="black" d="M3.76773 15.4438C3.91289 15.5889 4.09784 15.6878 4.29918 15.7278C4.50053 15.7679 4.70923 15.7473 4.89889 15.6688C5.08856 15.5902 5.25067 15.4572 5.36472 15.2865C5.47877 15.1158 5.53965 14.9151 5.53965 14.7098C5.53965 14.5045 5.47877 14.3039 5.36472 14.1332C5.25067 13.9625 5.08856 13.8294 4.89889 13.7509C4.70923 13.6723 4.50053 13.6518 4.29918 13.6918C4.09784 13.7319 3.91289 13.8307 3.76773 13.9759C3.67055 14.0718 3.59339 14.1861 3.54072 14.3121C3.48806 14.4381 3.46094 14.5733 3.46094 14.7098C3.46094 14.8464 3.48806 14.9816 3.54072 15.1076C3.59339 15.2335 3.67055 15.3478 3.76773 15.4438ZM4.29808 14.5063C4.33834 14.466 4.38964 14.4386 4.44549 14.4275C4.50134 14.4163 4.55923 14.422 4.61183 14.4438C4.66444 14.4656 4.70941 14.5025 4.74104 14.5499C4.77268 14.5972 4.78957 14.6529 4.78957 14.7098C4.78957 14.7668 4.77268 14.8224 4.74104 14.8698C4.70941 14.9171 4.66444 14.954 4.61183 14.9758C4.55923 14.9976 4.50134 15.0033 4.44549 14.9922C4.38964 14.9811 4.33834 14.9537 4.29808 14.9134C4.24416 14.8594 4.21389 14.7862 4.21389 14.7098C4.21389 14.6335 4.24416 14.5603 4.29808 14.5063Z"></path>
<path fill="black" d="M4.5 13.401C4.59946 13.401 4.69484 13.3615 4.76516 13.2912C4.83549 13.2209 4.875 13.1255 4.875 13.026V12.5449C4.875 12.4455 4.83549 12.3501 4.76516 12.2798C4.69484 12.2094 4.59946 12.1699 4.5 12.1699C4.40054 12.1699 4.30516 12.2094 4.23484 12.2798C4.16451 12.3501 4.125 12.4455 4.125 12.5449V13.026C4.125 13.1255 4.16451 13.2209 4.23484 13.2912C4.30516 13.3615 4.40054 13.401 4.5 13.401Z"></path>
<path fill="black" d="M2.43575 13.952L2.85242 14.1925C2.89509 14.2178 2.94238 14.2345 2.99152 14.2414C3.04067 14.2483 3.09071 14.2454 3.13873 14.2329C3.18675 14.2203 3.23181 14.1984 3.27128 14.1683C3.31075 14.1382 3.34386 14.1006 3.36868 14.0576C3.3935 14.0146 3.40954 13.9671 3.41587 13.9179C3.42219 13.8687 3.41869 13.8187 3.40555 13.7708C3.39241 13.7229 3.3699 13.6782 3.33932 13.6391C3.30874 13.6 3.27071 13.5673 3.22742 13.543L2.81075 13.3025C2.76808 13.2775 2.72089 13.2611 2.67189 13.2544C2.6229 13.2477 2.57306 13.2508 2.52524 13.2634C2.47743 13.2761 2.43259 13.298 2.39331 13.3281C2.35402 13.3581 2.32106 13.3956 2.29634 13.4385C2.27161 13.4813 2.2556 13.5286 2.24922 13.5776C2.24285 13.6267 2.24624 13.6765 2.25919 13.7242C2.27215 13.772 2.29442 13.8166 2.32472 13.8557C2.35502 13.8948 2.39276 13.9275 2.43575 13.952Z"></path>
<path fill="black" d="M2.8126 16.1174L3.22927 15.8768C3.27256 15.8526 3.31059 15.8199 3.34117 15.7808C3.37175 15.7417 3.39426 15.6969 3.4074 15.6491C3.42054 15.6012 3.42405 15.5512 3.41772 15.502C3.41139 15.4528 3.39535 15.4053 3.37053 15.3623C3.34571 15.3193 3.31261 15.2817 3.27313 15.2516C3.23366 15.2215 3.18861 15.1995 3.14058 15.187C3.09256 15.1744 3.04253 15.1715 2.99338 15.1785C2.94423 15.1854 2.89695 15.202 2.85427 15.2274L2.4376 15.468C2.39431 15.4922 2.35628 15.5249 2.3257 15.564C2.29512 15.6031 2.27261 15.6479 2.25947 15.6957C2.24633 15.7436 2.24283 15.7936 2.24915 15.8428C2.25548 15.892 2.27152 15.9395 2.29634 15.9825C2.32116 16.0255 2.35427 16.0631 2.39374 16.0932C2.43321 16.1233 2.47827 16.1453 2.52629 16.1578C2.57431 16.1704 2.62435 16.1733 2.6735 16.1663C2.72264 16.1594 2.76993 16.1428 2.8126 16.1174Z"></path>
<path fill="black" d="M4.5 16.019C4.40054 16.019 4.30516 16.0586 4.23484 16.1289C4.16451 16.1992 4.125 16.2946 4.125 16.394V16.8752C4.125 16.9746 4.16451 17.07 4.23484 17.1403C4.30516 17.2107 4.40054 17.2502 4.5 17.2502C4.59946 17.2502 4.69484 17.2107 4.76516 17.1403C4.83549 17.07 4.875 16.9746 4.875 16.8752V16.394C4.875 16.2946 4.83549 16.1992 4.76516 16.1289C4.69484 16.0586 4.59946 16.019 4.5 16.019Z"></path>
<path fill="black" d="M5.76963 15.8768L6.1863 16.1174C6.22898 16.1428 6.27626 16.1594 6.32541 16.1663C6.37456 16.1733 6.42459 16.1704 6.47262 16.1578C6.52064 16.1453 6.56569 16.1233 6.60516 16.0932C6.64464 16.0631 6.67774 16.0255 6.70256 15.9825C6.72738 15.9395 6.74342 15.892 6.74975 15.8428C6.75608 15.7936 6.75257 15.7436 6.73943 15.6957C6.72629 15.6479 6.70378 15.6031 6.6732 15.564C6.64263 15.5249 6.60459 15.4922 6.5613 15.468L6.14463 15.2274C6.10196 15.202 6.05468 15.1854 6.00553 15.1785C5.95638 15.1715 5.90634 15.1744 5.85832 15.187C5.8103 15.1995 5.76524 15.2215 5.72577 15.2516C5.6863 15.2817 5.65319 15.3193 5.62837 15.3623C5.60355 15.4053 5.58752 15.4528 5.58119 15.502C5.57486 15.5512 5.57836 15.6012 5.5915 15.6491C5.60464 15.6969 5.62716 15.7417 5.65773 15.7808C5.68831 15.8199 5.72634 15.8526 5.76963 15.8768V15.8768Z"></path>
<path fill="black" d="M5.95747 14.2428C6.02319 14.2428 6.08775 14.2255 6.1446 14.1925L6.56127 13.952C6.60426 13.9275 6.64199 13.8948 6.67229 13.8557C6.70259 13.8166 6.72486 13.772 6.73782 13.7242C6.75078 13.6765 6.75417 13.6267 6.74779 13.5776C6.74142 13.5286 6.72541 13.4813 6.70068 13.4385C6.67595 13.3956 6.643 13.3581 6.60371 13.3281C6.56443 13.298 6.51959 13.2761 6.47177 13.2634C6.42396 13.2508 6.37412 13.2477 6.32512 13.2544C6.27612 13.2611 6.22893 13.2775 6.18627 13.3025L5.7696 13.543C5.69806 13.5843 5.64215 13.6481 5.61056 13.7244C5.57896 13.8007 5.57344 13.8853 5.59486 13.9651C5.61627 14.0448 5.66342 14.1153 5.72899 14.1655C5.79456 14.2158 5.87488 14.2429 5.95747 14.2428Z"></path>
<path fill="black" d="M22.5 17.25V16.125C22.5 16.0255 22.4605 15.9302 22.3902 15.8598C22.3198 15.7895 22.2245 15.75 22.125 15.75H21.7119C21.7933 15.3497 21.742 14.9339 21.5658 14.5654C21.3896 14.1969 21.0981 13.8959 20.7354 13.7079C21.1246 12.7364 21.1565 11.6583 20.8256 10.6654L20.6057 10.0064C20.5887 9.9554 20.561 9.90868 20.5244 9.86938C20.4877 9.83007 20.4431 9.79909 20.3935 9.77854C20.3438 9.75799 20.2904 9.74834 20.2367 9.75025C20.183 9.75216 20.1303 9.76558 20.0823 9.78961L19.1523 10.2546C18.336 10.6615 17.4365 10.8739 16.5244 10.875H16.2089C15.5901 10.8757 14.9969 11.1218 14.5594 11.5594C14.1218 11.9969 13.8757 12.5901 13.875 13.2089V13.5571C13.6094 13.6166 13.3557 13.7207 13.125 13.8652V12.3153C13.3962 12.2271 13.6275 12.046 13.7783 11.804C13.929 11.562 13.9896 11.2745 13.9492 10.9922L13.9419 10.9418L13.9924 10.949C14.1642 10.9736 14.3393 10.9609 14.5058 10.9119C14.6723 10.8629 14.8263 10.7787 14.9574 10.665C15.0885 10.5513 15.1937 10.4107 15.2658 10.2528C15.3378 10.095 15.3751 9.92342 15.3751 9.74986C15.3751 9.5763 15.3378 9.40477 15.2658 9.24688C15.1937 9.08899 15.0885 8.94843 14.9574 8.83472C14.8263 8.721 14.6723 8.6368 14.5058 8.5878C14.3393 8.53879 14.1642 8.52615 13.9924 8.5507L13.942 8.55792L13.9492 8.50748C13.9855 8.25344 13.9402 7.99443 13.8197 7.76782C13.6993 7.54121 13.51 7.3587 13.2791 7.24663C13.0483 7.13455 12.7878 7.0987 12.5352 7.14424C12.2827 7.18977 12.0511 7.31435 11.874 7.5H10.875V5.625C10.875 5.52554 10.8355 5.43016 10.7652 5.35984C10.6948 5.28951 10.5995 5.25 10.5 5.25H10.125V3.75C10.2245 3.75 10.3198 3.71049 10.3902 3.64017C10.4605 3.56984 10.5 3.47446 10.5 3.375V3H13.5C13.5995 3 13.6948 2.96049 13.7652 2.89017C13.8355 2.81984 13.875 2.72446 13.875 2.625C13.8744 2.12789 13.6767 1.6513 13.3252 1.29979C12.9737 0.948282 12.4971 0.750558 12 0.75H9.28125C8.809 0.750533 8.35624 0.938372 8.02231 1.27231C7.68837 1.60624 7.50053 2.059 7.5 2.53125V3.375C7.5 3.47446 7.53951 3.56984 7.60983 3.64017C7.68016 3.71049 7.77554 3.75 7.875 3.75V5.25H7.5C7.40054 5.25 7.30516 5.28951 7.23483 5.35984C7.16451 5.43016 7.125 5.52554 7.125 5.625V7.5H6.09375C5.77063 7.50036 5.46084 7.62888 5.23236 7.85736C5.00388 8.08584 4.87536 8.39563 4.875 8.71875V9H1.125C1.02554 9 0.930161 9.03951 0.859835 9.10984C0.789509 9.18016 0.75 9.27554 0.75 9.375C0.75 9.375 0.75 10.8781 0.750281 10.8797C0.750281 10.8876 0.752719 10.9203 0.753422 10.9255L1.875 19.1505V22.875C1.875 22.9745 1.91451 23.0698 1.98484 23.1402C2.05516 23.2105 2.15054 23.25 2.25 23.25H12.75C12.8495 23.25 12.9448 23.2105 13.0152 23.1402C13.0855 23.0698 13.125 22.9745 13.125 22.875V22.4813C13.908 22.9842 14.8193 23.2511 15.75 23.25H18C19.2925 23.2485 20.5316 22.7345 21.4455 21.8205C22.3595 20.9066 22.8735 19.6675 22.875 18.375V17.625C22.875 17.5255 22.8355 17.4302 22.7652 17.3598C22.6948 17.2895 22.5995 17.25 22.5 17.25ZM21.75 17.25H12V16.5H21.75V17.25ZM10.875 17.625V18.375C10.875 18.6261 10.8942 18.8769 10.9327 19.125H10.125V13.875H12.375V14.6071C12.1555 14.95 12.028 15.3436 12.0047 15.75H11.625C11.5255 15.75 11.4302 15.7895 11.3598 15.8598C11.2895 15.9302 11.25 16.0255 11.25 16.125V17.25C11.1505 17.25 11.0552 17.2895 10.9848 17.3598C10.9145 17.4302 10.875 17.5255 10.875 17.625ZM14.3934 14.25H16.5C16.5995 14.25 16.6948 14.2105 16.7652 14.1402C16.8355 14.0698 16.875 13.9745 16.875 13.875C16.875 13.7755 16.8355 13.6802 16.7652 13.6098C16.6948 13.5395 16.5995 13.5 16.5 13.5H14.625V13.2089C14.6255 12.789 14.7925 12.3864 15.0894 12.0894C15.3864 11.7925 15.789 11.6255 16.2089 11.625H16.5244C17.5529 11.6237 18.5672 11.3843 19.4877 10.9254L20.031 10.6535L20.1141 10.9023C20.3972 11.7519 20.3603 12.6757 20.0101 13.5H18.75C18.6505 13.5 18.5552 13.5395 18.4848 13.6098C18.4145 13.6802 18.375 13.7755 18.375 13.875C18.375 13.9745 18.4145 14.0698 18.4848 14.1402C18.5552 14.2105 18.6505 14.25 18.75 14.25H19.875C20.055 14.2499 20.2324 14.293 20.3923 14.3758C20.5521 14.4585 20.6898 14.5784 20.7937 14.7253C20.8976 14.8723 20.9647 15.0421 20.9894 15.2204C21.0141 15.3987 20.9956 15.5803 20.9355 15.75H12.7567C12.7812 15.4577 12.8843 15.1775 13.0551 14.9391C13.2074 14.7262 13.4083 14.5527 13.641 14.4328C13.8738 14.313 14.1317 14.2503 14.3934 14.25ZM13.0985 11.466C13.0332 11.5412 12.9454 11.5933 12.848 11.6145C12.7507 11.6357 12.6491 11.6248 12.5585 11.5834C12.4678 11.542 12.393 11.4724 12.3452 11.385C12.2974 11.2976 12.2792 11.1971 12.2933 11.0985L12.3521 10.6868C12.478 10.7403 12.6133 10.7678 12.75 10.7678C12.8867 10.7678 13.022 10.7403 13.1479 10.6868L13.2067 11.0984C13.2164 11.1638 13.2118 11.2306 13.1931 11.2941C13.1745 11.3576 13.1422 11.4162 13.0985 11.466ZM11.8132 10.1479L11.4016 10.2067C11.3362 10.216 11.2695 10.2112 11.2061 10.1925C11.1427 10.1739 11.084 10.1418 11.0341 10.0985C10.9842 10.0552 10.9441 10.0017 10.9167 9.94154C10.8892 9.88142 10.875 9.81609 10.875 9.75C10.875 9.68391 10.8892 9.61859 10.9167 9.55846C10.9441 9.49833 10.9842 9.44481 11.0341 9.4015C11.084 9.3582 11.1427 9.32613 11.2061 9.30747C11.2695 9.28881 11.3362 9.28399 11.4016 9.29334L11.8133 9.35213C11.7598 9.47796 11.7322 9.61328 11.7322 9.75C11.7322 9.88672 11.7598 10.022 11.8133 10.1479H11.8132ZM12.4822 9.75C12.4822 9.69703 12.4979 9.64524 12.5273 9.60119C12.5567 9.55715 12.5986 9.52282 12.6475 9.50255C12.6964 9.48227 12.7503 9.47697 12.8023 9.4873C12.8542 9.49764 12.9019 9.52315 12.9394 9.56061C12.9769 9.59807 13.0024 9.64579 13.0127 9.69775C13.023 9.7497 13.0177 9.80356 12.9975 9.8525C12.9772 9.90144 12.9429 9.94327 12.8988 9.9727C12.8548 10.0021 12.803 10.0178 12.75 10.0178C12.679 10.0178 12.6109 9.98951 12.5607 9.9393C12.5105 9.88909 12.4822 9.82101 12.4822 9.75ZM14.0985 9.29334C14.1639 9.28399 14.2306 9.28881 14.294 9.30747C14.3574 9.32613 14.416 9.3582 14.466 9.4015C14.5159 9.44481 14.5559 9.49833 14.5834 9.55846C14.6108 9.61859 14.625 9.68391 14.625 9.75C14.625 9.81609 14.6108 9.88142 14.5834 9.94154C14.5559 10.0017 14.5159 10.0552 14.466 10.0985C14.416 10.1418 14.3574 10.1739 14.294 10.1925C14.2306 10.2112 14.1639 10.216 14.0985 10.2067L13.6868 10.1479C13.7403 10.022 13.7678 9.88672 13.7678 9.75C13.7678 9.61328 13.7403 9.47796 13.6868 9.35213L14.0985 9.29334ZM12.75 7.875C12.8161 7.87499 12.8814 7.88919 12.9415 7.91663C13.0017 7.94407 13.0552 7.98411 13.0985 8.03404C13.1418 8.08398 13.1739 8.14263 13.1925 8.20604C13.2112 8.26944 13.216 8.33612 13.2067 8.40155L13.1479 8.8132C13.022 8.75972 12.8867 8.73216 12.75 8.73216C12.6133 8.73216 12.478 8.75972 12.3521 8.8132L12.2933 8.40159C12.284 8.33616 12.2888 8.26948 12.3074 8.20607C12.3261 8.14266 12.3582 8.084 12.4015 8.03406C12.4448 7.98412 12.4983 7.94408 12.5584 7.91663C12.6186 7.88919 12.6839 7.87499 12.75 7.875ZM8.25 2.53125C8.25031 2.25784 8.35906 1.99572 8.55239 1.80239C8.74572 1.60906 9.00784 1.50031 9.28125 1.5H12C12.2326 1.50027 12.4594 1.5725 12.6493 1.70678C12.8392 1.84106 12.9829 2.03081 13.0607 2.25H10.125C10.0255 2.25 9.93016 2.28951 9.85983 2.35984C9.78951 2.43016 9.75 2.52554 9.75 2.625V3H8.25V2.53125ZM8.625 3.75H9.375V5.25H8.625V3.75ZM7.875 6H10.125V7.5H7.875V6ZM7.5 9.75V10.5H1.5V9.75H7.5ZM7.44539 11.25L6.42267 18.75H2.57733L1.55461 11.25H7.44539ZM4.125 21H4.875V21.375H4.125V21ZM2.625 20.25V19.5H6.375V20.25H2.625ZM2.625 22.5V21H3.375V21.375C3.37524 21.5738 3.45433 21.7645 3.59493 21.9051C3.73553 22.0457 3.92616 22.1248 4.125 22.125H4.875C5.06708 22.1247 5.25172 22.0507 5.39089 21.9183C5.53006 21.7859 5.61314 21.6052 5.62303 21.4134C5.62435 21.4006 5.62501 21.3878 5.625 21.375V21H6.375V22.5H2.625ZM12.375 22.5H7.125V21.75H7.875C7.97446 21.75 8.06984 21.7105 8.14017 21.6402C8.21049 21.5698 8.25 21.4745 8.25 21.375C8.25 21.2755 8.21049 21.1802 8.14017 21.1098C8.06984 21.0395 7.97446 21 7.875 21H7.125V19.1505L8.24658 10.9257C8.24728 10.9205 8.25 10.8769 8.25 10.875V9.375C8.25 9.27554 8.21049 9.18016 8.14017 9.10984C8.06984 9.03951 7.97446 9 7.875 9H5.625V8.71875C5.62514 8.59447 5.67457 8.47532 5.76244 8.38744C5.85032 8.29957 5.96947 8.25014 6.09375 8.25H11.5418C11.5356 8.33602 11.5387 8.42244 11.5508 8.50781L11.5581 8.5582L11.5076 8.55099C11.3358 8.52643 11.1607 8.53908 10.9942 8.58808C10.8277 8.63708 10.6737 8.72129 10.5426 8.835C10.4115 8.94871 10.3063 9.08927 10.2342 9.24716C10.1622 9.40505 10.1249 9.57658 10.1249 9.75014C10.1249 9.9237 10.1622 10.0952 10.2342 10.2531C10.3063 10.411 10.4115 10.5516 10.5426 10.6653C10.6737 10.779 10.8277 10.8632 10.9942 10.9122C11.1607 10.9612 11.3358 10.9739 11.5076 10.9493L11.558 10.9421L11.5508 10.9925C11.5105 11.2748 11.571 11.5622 11.7218 11.8041C11.8726 12.0461 12.1039 12.2271 12.375 12.3153V13.125H9.75C9.65054 13.125 9.55516 13.1645 9.48483 13.2348C9.41451 13.3052 9.375 13.4005 9.375 13.5V19.5C9.375 19.5995 9.41451 19.6948 9.48483 19.7652C9.55516 19.8355 9.65054 19.875 9.75 19.875H11.1114C11.2399 20.2713 11.4188 20.6494 11.6437 21H9.375C9.27554 21 9.18016 21.0395 9.10983 21.1098C9.03951 21.1802 9 21.2755 9 21.375C9 21.4745 9.03951 21.5698 9.10983 21.6402C9.18016 21.7105 9.27554 21.75 9.375 21.75H12.2356C12.2812 21.7974 12.3276 21.8439 12.375 21.8894V22.5ZM22.125 18.375C22.1238 19.4686 21.6888 20.5171 20.9154 21.2904C20.1421 22.0638 19.0936 22.4988 18 22.5H15.75C14.6564 22.4988 13.6079 22.0638 12.8346 21.2904C12.0612 20.5171 11.6262 19.4686 11.625 18.375V18H22.125V18.375Z"></path>
</svg>
