<svg xmlns="http://www.w3.org/2000/svg" fill="none" viewBox="0 0 24 24" height="24" width="24">
<g clip-path="url(#clip0_1388_574)">
<path fill="#24AFD6" d="M12 6.375C14.4853 6.375 16.5 5.19975 16.5 3.75C16.5 2.30025 14.4853 1.125 12 1.125C9.51472 1.125 7.5 2.30025 7.5 3.75C7.5 5.19975 9.51472 6.375 12 6.375Z"></path>
<path fill="#79D8EB" d="M18.9867 7.58556C19.0296 6.98573 18.919 6.38486 18.6654 5.8396C18.4118 5.29433 18.0235 4.82262 17.5372 4.46892L17.428 4.38952C15.8511 3.24273 13.9515 2.625 12.0018 2.625C10.052 2.625 8.1524 3.24273 6.57556 4.38952L6.46638 4.46892C5.98004 4.82262 5.59177 5.29433 5.33816 5.8396C5.08456 6.38486 4.97397 6.98572 5.01682 7.58555C5.08063 8.47891 5.48053 9.31492 6.13601 9.92525C6.79149 10.5356 7.65387 10.8749 8.5495 10.8749H15.454C16.3497 10.8749 17.212 10.5356 17.8675 9.92525C18.523 9.31492 18.9229 8.47891 18.9867 7.58556Z"></path>
<path fill="#FBB8B0" d="M22.125 23.25C22.125 22.6155 21.9052 22.0006 21.5029 21.51C21.1007 21.0193 20.5408 20.6832 19.9187 20.5587L14.625 19.5L13.8 16.5H10.2L9.375 19.5L4.0813 20.5587C3.45915 20.6832 2.89933 21.0193 2.49708 21.51C2.09483 22.0006 1.875 22.6155 1.875 23.25"></path>
<path fill="#FBB8B0" d="M17.25 10.875C17.25 14.2923 14.25 18 12 18C9.75 18 6.75 14.2923 6.75 10.875C6.75 7.45774 8.25 5.25 12 5.25C15.75 5.25 17.25 7.45774 17.25 10.875Z"></path>
<path fill="#FED672" d="M20.2598 1.125L20.7935 2.10098L21.7695 2.63475L20.7935 3.16852L20.2598 4.1445L19.726 3.16852L18.75 2.63475L19.726 2.10098L20.2598 1.125Z"></path>
<path fill="black" d="M20.2598 4.5195C20.1925 4.5195 20.1264 4.50139 20.0685 4.46707C20.0106 4.43275 19.963 4.38349 19.9307 4.32445L19.4497 3.44481L18.5701 2.96375C18.511 2.93146 18.4618 2.88388 18.4274 2.826C18.3931 2.76811 18.375 2.70206 18.375 2.63476C18.375 2.56746 18.3931 2.50141 18.4274 2.44352C18.4617 2.38563 18.511 2.33805 18.5701 2.30576L19.4497 1.82465L19.9307 0.945052C19.963 0.88601 20.0106 0.836746 20.0685 0.802428C20.1264 0.768109 20.1925 0.75 20.2598 0.75C20.3271 0.75 20.3931 0.768109 20.451 0.802428C20.5089 0.836746 20.5565 0.88601 20.5888 0.945052L21.0698 1.82465L21.9495 2.30578C22.0085 2.33807 22.0578 2.38566 22.0921 2.44354C22.1264 2.50143 22.1445 2.56749 22.1445 2.63478C22.1445 2.70208 22.1264 2.76813 22.0921 2.82602C22.0577 2.8839 22.0085 2.93148 21.9494 2.96377L21.0698 3.44481L20.5888 4.32445C20.5565 4.38349 20.5089 4.43275 20.451 4.46707C20.3931 4.50139 20.327 4.5195 20.2598 4.5195ZM19.5315 2.63475L19.9059 2.83951C19.9688 2.87391 20.0206 2.92564 20.055 2.98857L20.2598 3.36298L20.4645 2.98857C20.4989 2.92565 20.5507 2.87391 20.6136 2.83951L20.988 2.63475L20.6136 2.42995C20.5507 2.39552 20.4989 2.3438 20.4645 2.28089L20.2598 1.90648L20.055 2.2809C20.0206 2.34381 19.9688 2.39554 19.9059 2.42996L19.5315 2.63475Z"></path>
<path fill="#FED672" d="M2.61522 7.875L3.14898 8.85098L4.12497 9.38475L3.14898 9.91852L2.61522 10.8945L2.08145 9.91852L1.10547 9.38475L2.08145 8.85098L2.61522 7.875Z"></path>
<path fill="black" d="M2.61521 11.2695C2.54791 11.2695 2.48185 11.2514 2.42396 11.2171C2.36608 11.1828 2.31849 11.1335 2.28619 11.0744L1.80511 10.1948L0.925534 9.71375C0.866489 9.68146 0.817222 9.63388 0.782901 9.57599C0.748579 9.5181 0.730469 9.45205 0.730469 9.38475C0.730469 9.31746 0.748579 9.2514 0.782901 9.19351C0.817222 9.13563 0.866489 9.08805 0.925534 9.05576L1.80511 8.57465L2.28617 7.69505C2.31847 7.63601 2.36606 7.58675 2.42395 7.55243C2.48184 7.51811 2.54789 7.5 2.61519 7.5C2.68249 7.5 2.74855 7.51811 2.80644 7.55243C2.86433 7.58675 2.91191 7.63601 2.94421 7.69505L3.42527 8.57465L4.30491 9.05578C4.36395 9.08807 4.41322 9.13566 4.44754 9.19354C4.48185 9.25143 4.49996 9.31749 4.49996 9.38478C4.49996 9.45208 4.48184 9.51813 4.44752 9.57602C4.4132 9.6339 4.36393 9.68148 4.30488 9.71377L3.42529 10.1948L2.94422 11.0744C2.91193 11.1335 2.86434 11.1828 2.80645 11.2171C2.74856 11.2514 2.68251 11.2695 2.61521 11.2695ZM1.88697 9.38475L2.26136 9.58951C2.32429 9.62391 2.37604 9.67565 2.41045 9.73857L2.61521 10.113L2.81997 9.73857C2.85438 9.67564 2.90612 9.62391 2.96906 9.58951L3.34344 9.38475L2.96902 9.17995C2.90611 9.14553 2.85438 9.0938 2.81996 9.03089L2.6152 8.65648L2.41044 9.03089C2.37602 9.0938 2.32429 9.14552 2.26138 9.17995L1.88697 9.38475Z"></path>
<path fill="#DCF9FE" d="M18.8756 10.6173C18.8756 9.51699 18.0174 8.625 16.9588 8.625C16.6081 8.62494 16.2645 8.72442 15.9681 8.91187C15.7449 8.77333 15.4802 8.71728 15.22 8.75346C14.9598 8.78964 14.7204 8.91575 14.5435 9.10993C14.3665 9.30411 14.2631 9.55411 14.2512 9.81656C14.2393 10.079 14.3196 10.3374 14.4782 10.5468C14.1309 10.7086 13.8375 10.9669 13.6331 11.2909C13.4286 11.6148 13.3217 11.9908 13.3252 12.3739C13.3238 12.8029 13.458 13.2214 13.7087 13.5696C13.3326 13.9506 13.1227 14.4651 13.125 15.0004C13.125 16.1008 13.9832 16.9928 15.0419 16.9928C15.4761 16.9923 15.8966 16.8402 16.2306 16.5628C16.4969 16.8347 16.8122 16.9928 17.1505 16.9928C18.1033 16.9928 18.8756 15.744 18.8756 14.2035C18.8756 13.3501 18.6383 12.5867 18.2649 12.075C18.4593 11.8855 18.6136 11.6587 18.7185 11.4083C18.8234 11.1578 18.8769 10.8888 18.8756 10.6173Z"></path>
<path fill="#DCF9FE" d="M5.12502 10.6173C5.12502 9.51699 5.98324 8.625 7.0419 8.625C7.39261 8.62494 7.73614 8.72442 8.03255 8.91187C8.25576 8.77333 8.52044 8.71728 8.78065 8.75346C9.04087 8.78964 9.28022 8.91575 9.45718 9.10993C9.63414 9.30411 9.73756 9.55411 9.74949 9.81656C9.76141 10.079 9.6811 10.3374 9.52249 10.5468C9.86977 10.7086 10.1632 10.9669 10.3676 11.2909C10.5721 11.6148 10.6789 11.9908 10.6755 12.3739C10.6769 12.8029 10.5426 13.2214 10.2919 13.5696C10.6681 13.9506 10.8779 14.4651 10.8756 15.0004C10.8756 16.1008 10.0174 16.9928 8.95877 16.9928C8.52452 16.9923 8.10406 16.8402 7.77002 16.5628C7.50373 16.8347 7.18846 16.9928 6.8502 16.9928C5.8974 16.9928 5.12502 15.744 5.12502 14.2035C5.12502 13.3501 5.36233 12.5867 5.7358 12.075C5.54137 11.8855 5.3871 11.6587 5.28216 11.4083C5.17723 11.1578 5.12379 10.8888 5.12502 10.6173Z"></path>
<path fill="#FFD4CF" d="M19.8372 23.25L18.7603 19.3793L17.1498 18.5329L15.0781 15.6408L15.1957 15.5282C15.3379 15.3922 15.5192 15.3043 15.7141 15.2771C15.909 15.2498 16.1075 15.2845 16.2815 15.3764L17.56 16.051L15.8487 11.5653C15.7951 11.4443 15.7677 11.3133 15.7684 11.1809C15.769 11.0485 15.7977 10.9178 15.8525 10.7974C15.9074 10.6769 15.9871 10.5694 16.0864 10.4819C16.1858 10.3945 16.3025 10.329 16.429 10.2899L16.4965 10.269L18.9435 13.5431C19.1571 13.8143 19.3189 14.1225 19.4209 14.4523L20.8132 18.6313L22.8372 22.8818V23.25H19.8372Z"></path>
<path fill="black" d="M23.2489 23.2499H22.4989V22.9611L20.4748 18.795C20.4676 18.7803 20.4614 18.7652 20.4563 18.7497L19.9961 17.3684L20.7077 17.1313L21.1601 18.4893L23.2112 22.711C23.236 22.7621 23.2489 22.8181 23.2489 22.8749V23.2499Z"></path>
<path fill="black" d="M20.2499 23.25H19.4999V22.9333L18.4497 19.6397L16.9753 18.8649C16.9236 18.8377 16.879 18.7988 16.845 18.7513L14.7733 15.8591C14.7207 15.7858 14.6964 15.6959 14.7047 15.606C14.7131 15.5162 14.7536 15.4323 14.8188 15.3699L14.9364 15.2573C15.1353 15.0666 15.3892 14.9434 15.6621 14.9052C15.935 14.8671 16.2129 14.9159 16.4565 15.0447L16.8549 15.2549L15.5015 11.7073C15.4282 11.5381 15.3914 11.3554 15.3934 11.171C15.3955 10.9866 15.4364 10.8047 15.5134 10.6372C15.5905 10.4696 15.702 10.3202 15.8406 10.1986C15.9793 10.0771 16.142 9.98609 16.3182 9.93162L16.3859 9.91074C16.4598 9.8879 16.539 9.8885 16.6126 9.91246C16.6862 9.93642 16.7506 9.98256 16.7969 10.0445L19.2411 13.3149C19.481 13.6201 19.663 13.9667 19.7779 14.3375L20.4588 16.3815L19.7473 16.6185L19.065 14.5708C19.0642 14.5682 19.0633 14.5657 19.0625 14.5631C18.9744 14.2772 18.8341 14.01 18.6489 13.7751C18.6469 13.7726 18.645 13.7701 18.6431 13.7676L16.3736 10.731C16.2701 10.807 16.1957 10.9161 16.1626 11.0402C16.1295 11.1643 16.1397 11.296 16.1915 11.4135C16.1942 11.4195 16.1967 11.4255 16.199 11.4316L17.9104 15.9173C17.9376 15.9886 17.9424 16.0664 17.9242 16.1404C17.906 16.2144 17.8657 16.2812 17.8087 16.3317C17.7516 16.3823 17.6805 16.4142 17.6048 16.4233C17.5291 16.4324 17.4524 16.4182 17.385 16.3827L16.1065 15.708C16.0263 15.6656 15.9371 15.6433 15.8464 15.6428C15.7558 15.6424 15.6664 15.6639 15.5858 15.7056L17.4029 18.2423L18.9348 19.0473C19.022 19.0932 19.0876 19.1715 19.1176 19.2653L20.2322 22.7611C20.244 22.7979 20.2499 22.8364 20.2499 22.875V23.25Z"></path>
<path fill="#FFD4CF" d="M4.16407 23.25L5.24095 19.3793L6.85145 18.5329L8.92313 15.6408L8.80551 15.5282C8.66337 15.3922 8.48201 15.3043 8.28714 15.2771C8.09228 15.2498 7.89377 15.2845 7.71975 15.3764L6.44123 16.051L8.15257 11.5653C8.20617 11.4443 8.23354 11.3133 8.23287 11.1809C8.23221 11.0485 8.20352 10.9178 8.14871 10.7974C8.09389 10.6769 8.01419 10.5694 7.91484 10.4819C7.81549 10.3945 7.69875 10.329 7.57229 10.2899L7.50471 10.269L5.05774 13.5431C4.84419 13.8143 4.68239 14.1225 4.58043 14.4523L3.18813 18.6313L1.16406 22.8818V23.25H4.16407Z"></path>
<path fill="black" d="M4.5 23.25H3.75V22.875C3.75 22.8364 3.75597 22.7979 3.76771 22.7611L4.88235 19.2653C4.91229 19.1715 4.97796 19.0932 5.06516 19.0473L6.59703 18.2423L8.41413 15.7056C8.33359 15.664 8.24416 15.6424 8.1535 15.6428C8.06283 15.6433 7.97361 15.6656 7.89346 15.708L6.61491 16.3827C6.54749 16.4182 6.47083 16.4324 6.39514 16.4233C6.31946 16.4142 6.24834 16.3823 6.19127 16.3317C6.13421 16.2812 6.0939 16.2145 6.07572 16.1404C6.05755 16.0664 6.06237 15.9886 6.08954 15.9173L7.80088 11.4316C7.80322 11.4255 7.80572 11.4194 7.80838 11.4134C7.86022 11.2959 7.87043 11.1643 7.83733 11.0402C7.80423 10.9161 7.7298 10.807 7.62633 10.7309L5.35682 13.7676C5.35492 13.7701 5.35302 13.7726 5.35105 13.7751C5.1658 14.01 5.02555 14.2771 4.93737 14.563C4.93657 14.5656 4.93575 14.5682 4.93487 14.5708L3.54259 18.7499C3.53745 18.7653 3.53131 18.7804 3.52421 18.795L1.5 22.9679V23.25H0.75V22.8818C0.749999 22.8251 0.762856 22.7691 0.787603 22.7181L2.83875 18.4897L4.22206 14.3375C4.33697 13.9667 4.51888 13.6201 4.75878 13.3149L7.20301 10.0446C7.24934 9.98256 7.31372 9.93641 7.38731 9.91246C7.46091 9.8885 7.54011 9.88791 7.61406 9.91076L7.68165 9.93163C7.85784 9.98609 8.02057 10.0771 8.15925 10.1986C8.29792 10.3202 8.40942 10.4696 8.48648 10.6371C8.56354 10.8047 8.60443 10.9866 8.60649 11.171C8.60855 11.3554 8.57172 11.5381 8.49841 11.7073L7.14499 15.255L7.54343 15.0447C7.78699 14.9159 8.06495 14.8671 8.33782 14.9053C8.6107 14.9434 8.86461 15.0666 9.06348 15.2573L9.18113 15.37C9.24633 15.4324 9.28683 15.5162 9.29519 15.6061C9.30355 15.6959 9.27922 15.7858 9.22665 15.8592L7.155 18.7513C7.12099 18.7988 7.07633 18.8377 7.02461 18.8649L5.5502 19.6397L4.5 22.9334V23.25Z"></path>
<path fill="black" d="M17.7577 4.16565L17.6485 4.08623C17.3954 3.90219 17.1356 3.73152 16.8689 3.57424C16.7996 2.80236 16.2745 2.09601 15.3726 1.56995C14.4663 1.04118 13.2691 0.75 12.0017 0.75C10.7344 0.75 9.5372 1.04118 8.63081 1.56995C7.72894 2.09601 7.20382 2.80235 7.13459 3.57423C6.86814 3.73144 6.60826 3.9021 6.35493 4.08623L6.24579 4.16565C5.78005 4.50316 5.39502 4.93982 5.11845 5.44414L5.77548 5.80586C5.99908 5.39811 6.31039 5.04506 6.68696 4.77218L6.79611 4.69276C8.30885 3.59261 10.1313 3 12.0017 3C13.8722 3 15.6946 3.59261 17.2074 4.69276L17.3166 4.77218C17.9157 5.20812 18.343 5.84023 18.5243 6.55862C18.7056 7.277 18.6294 8.0362 18.309 8.70422C18.0035 8.47268 17.6437 8.32343 17.264 8.27074C16.9613 7.33272 16.4669 6.57751 15.792 6.02332C15.022 5.39101 14.0102 5.01583 12.7846 4.90812L12.7189 5.65528C14.6579 5.82562 15.8932 6.69289 16.4821 8.30208C16.3017 8.34184 16.127 8.40378 15.9619 8.4865C15.691 8.37211 15.3925 8.33978 15.1035 8.39351C14.8144 8.44725 14.5475 8.5847 14.3358 8.78879C14.1242 8.99288 13.9771 9.25464 13.9129 9.54156C13.8487 9.82848 13.8702 10.1279 13.9747 10.4028C13.491 10.7449 13.1496 11.2524 13.0151 11.8294C12.8806 12.4063 12.9624 13.0126 13.2449 13.5333C12.9226 13.9542 12.7492 14.4703 12.7517 15.0004C12.7517 15.819 13.1276 16.5283 13.7116 16.9517C13.1078 17.3889 12.5134 17.625 12.0017 17.625C11.4901 17.625 10.8957 17.3889 10.2918 16.9517C10.8759 16.5283 11.2517 15.8191 11.2517 15.0004C11.2543 14.4703 11.0808 13.9542 10.7586 13.5333C11.0411 13.0126 11.1229 12.4064 10.9884 11.8294C10.8539 11.2525 10.5124 10.7449 10.0288 10.4028C10.1336 10.128 10.1552 9.8284 10.0912 9.54133C10.0271 9.25426 9.88002 8.99235 9.6683 8.78817C9.45657 8.58399 9.18951 8.44653 8.9003 8.3929C8.61109 8.33926 8.3125 8.3718 8.04164 8.48648C7.87669 8.40385 7.70216 8.34195 7.52201 8.30219C7.81443 7.50915 8.27139 6.88816 8.88419 6.45255C9.65666 5.90344 10.7056 5.625 12.0017 5.625V4.875C10.5467 4.875 9.35161 5.2001 8.44963 5.84125C7.65129 6.40876 7.0768 7.22525 6.73943 8.27072C6.35976 8.32343 5.99997 8.47271 5.6945 8.70426C5.36149 8.00984 5.29265 7.21795 5.50083 6.47648L4.7788 6.27352C4.63808 6.7746 4.59856 7.29869 4.66254 7.81522C4.72653 8.33174 4.89273 8.83035 5.15145 9.28195C4.90621 9.6546 4.76823 10.0875 4.75261 10.5334C4.73699 10.9792 4.84434 11.4207 5.0629 11.8096L5.71567 11.4403C5.57447 11.189 5.50057 10.9055 5.50112 10.6173C5.50111 9.72551 6.19281 9 7.04299 9C7.32298 9.00027 7.59719 9.07976 7.83391 9.22929C7.89345 9.26673 7.96232 9.28668 8.03266 9.28686C8.10299 9.28704 8.17196 9.26744 8.23169 9.2303C8.38049 9.13804 8.5569 9.10075 8.73031 9.12491C8.90372 9.14907 9.06322 9.23314 9.18114 9.36256C9.29907 9.49198 9.36799 9.65859 9.37596 9.83349C9.38393 10.0084 9.33045 10.1806 9.22478 10.3202C9.19075 10.3651 9.16726 10.417 9.15607 10.4722C9.14488 10.5275 9.14626 10.5845 9.16012 10.6391C9.17398 10.6937 9.19997 10.7444 9.23614 10.7876C9.27231 10.8308 9.31775 10.8652 9.36907 10.8885C9.93553 11.1446 10.3016 11.7277 10.3016 12.3739C10.3034 12.7241 10.194 13.0658 9.98914 13.3498C9.93704 13.4219 9.91225 13.5101 9.91918 13.5988C9.92612 13.6874 9.96433 13.7707 10.027 13.8338C10.179 13.9875 10.2992 14.1696 10.3806 14.3698C10.4621 14.57 10.5033 14.7843 10.5017 15.0004C10.5017 15.9073 9.84285 16.6177 9.00174 16.6177V17.3677C9.17799 17.3679 9.35365 17.3472 9.525 17.3059C9.54301 17.3208 9.56102 17.3356 9.57904 17.3502L9.07646 19.1777L5.9282 19.8074L6.07527 20.5429L9.45027 19.8679C9.51844 19.8542 9.58147 19.8219 9.63233 19.7745C9.6832 19.7272 9.71989 19.6666 9.73833 19.5996L10.2299 17.8121C10.8388 18.1827 11.4396 18.375 12.0017 18.375C12.5639 18.375 13.1647 18.1827 13.7736 17.8121L14.2652 19.5995C14.2836 19.6665 14.3203 19.7271 14.3711 19.7745C14.422 19.8219 14.485 19.8542 14.5532 19.8678L17.9282 20.5428L18.0753 19.8073L14.927 19.1777L14.4244 17.3501C14.4424 17.3355 14.4604 17.3207 14.4784 17.3058C14.6498 17.3471 14.8255 17.3679 15.0017 17.3677V16.6177C14.1606 16.6177 13.5017 15.9073 13.5017 15.0004C13.5002 14.7843 13.5414 14.57 13.6228 14.3698C13.7043 14.1696 13.8245 13.9875 13.9765 13.8338C14.0392 13.7708 14.0774 13.6875 14.0843 13.5988C14.0912 13.5102 14.0664 13.4219 14.0143 13.3499C13.8095 13.0658 13.7001 12.7241 13.7019 12.3739C13.7019 11.7277 14.0679 11.1446 14.6344 10.8885C14.6857 10.8653 14.7311 10.8308 14.7673 10.7876C14.8035 10.7445 14.8295 10.6937 14.8434 10.6391C14.8572 10.5845 14.8586 10.5275 14.8474 10.4723C14.8362 10.4171 14.8127 10.3651 14.7787 10.3203C14.6797 10.1902 14.6262 10.0312 14.6267 9.86774C14.6267 9.7341 14.6624 9.60288 14.7301 9.48766C14.7978 9.37245 14.8951 9.27742 15.0119 9.21242C15.1286 9.14742 15.2607 9.1148 15.3943 9.11794C15.5279 9.12109 15.6582 9.15988 15.7718 9.2303C15.8315 9.26742 15.9005 9.287 15.9708 9.28682C16.0411 9.28664 16.11 9.26671 16.1696 9.22929C16.4063 9.07976 16.6805 9.00027 16.9605 9C17.8107 9 18.5023 9.72551 18.5023 10.6173C18.5029 10.9056 18.429 11.1891 18.2878 11.4403L18.9405 11.8097C19.1591 11.4208 19.2665 10.9792 19.2509 10.5334C19.2352 10.0876 19.0972 9.6546 18.852 9.28196C19.3321 8.44418 19.4859 7.45863 19.284 6.51439C19.082 5.57016 18.5385 4.73375 17.7577 4.16565ZM12.0017 2.25C10.6444 2.24752 9.30207 2.53452 8.06441 3.09188C8.59452 2.18142 10.1834 1.5 12.0017 1.5C13.8201 1.5 15.409 2.18142 15.9391 3.09188C14.7014 2.53452 13.3591 2.24751 12.0017 2.25Z"></path>
<path fill="black" d="M14.25 20.6603V20.625H13.5V20.6603C13.4992 20.949 13.6013 21.2285 13.7879 21.4488C13.9745 21.6691 14.2335 21.8157 14.5184 21.8624L18.3133 22.4949L18.4367 21.7551L14.6417 21.1226C14.5321 21.1046 14.4325 21.0482 14.3607 20.9635C14.289 20.8788 14.2497 20.7713 14.25 20.6603Z"></path>
<path fill="black" d="M9.75307 20.6603C9.75336 20.7713 9.7141 20.8788 9.64233 20.9635C9.57055 21.0482 9.47095 21.1046 9.36138 21.1226L5.56641 21.7551L5.68972 22.4949L9.48465 21.8624C9.76957 21.8157 10.0285 21.6691 10.2152 21.4488C10.4018 21.2285 10.5038 20.949 10.5031 20.6603V20.625H9.75307V20.6603Z"></path>
</g>
<defs>
<clipPath id="clip0_1388_574">
<rect fill="white" height="24" width="24"></rect>
</clipPath>
</defs>
</svg>
