<svg xmlns="http://www.w3.org/2000/svg" fill="none" viewBox="0 0 24 24" height="24" width="24">
<g clip-path="url(#clip0_1388_420)">
<path fill="#FEDE94" d="M14.2197 13.8468L16.4772 9.71575C16.8374 9.05548 17.6733 8.81085 18.3336 9.17102C18.9926 9.53247 19.2385 10.3682 18.8783 11.0273C19.3978 10.0759 20.1379 8.72058 20.6575 7.76934L19.5772 4.15649C19.3965 3.55316 19.742 2.91265 20.3439 2.73193C20.947 2.55267 21.5875 2.89819 21.767 3.50006L23.4345 9.06994C23.5541 9.57751 23.6019 10.1303 23.3321 10.6247L20.3093 16.1561L21.5304 18.1333C23.4611 21.2585 18.7362 24.1763 16.8055 21.0513L14.1879 16.8126C13.6019 15.8652 13.7374 14.7504 14.2197 13.8468Z" clip-rule="evenodd" fill-rule="evenodd"></path>
<path fill="#FEDE94" d="M9.77891 13.8468L7.52269 9.71575C7.16124 9.05548 6.32555 8.81085 5.66637 9.17102C5.00609 9.53247 4.76018 10.3682 5.12163 11.0273C4.60216 10.0759 3.86077 8.72058 3.34112 7.76934L4.42272 4.15649C4.60216 3.55316 4.25665 2.91265 3.65478 2.73193C3.05291 2.55267 2.41241 2.89819 2.23169 3.50006L0.565429 9.06994C0.44458 9.57751 0.396606 10.1303 0.666503 10.6247L3.68939 16.1561L2.46826 18.1333C0.537597 21.2585 5.26263 24.1763 7.1931 21.0513L9.81077 16.8126C10.3967 15.8652 10.2625 14.7504 9.77891 13.8468Z" clip-rule="evenodd" fill-rule="evenodd"></path>
<path fill="#EF685E" d="M12 3.19679L12.724 2.47261C13.8295 1.3672 15.6392 1.3672 16.7448 2.47261C17.8502 3.5782 17.8502 5.38802 16.7448 6.49342C15.1636 8.07454 13.5811 9.65712 11.9998 11.2382C10.4187 9.65712 8.83755 8.07472 7.25497 6.49342C6.14938 5.38802 6.14938 3.5782 7.25497 2.47261C8.36038 1.3672 10.1702 1.3672 11.2756 2.47261L12 3.19679Z" clip-rule="evenodd" fill-rule="evenodd"></path>
<path fill="black" d="M13.8078 13.6221L16.064 9.49109C16.3072 9.04596 16.7084 8.74164 17.1601 8.61017C17.9561 8.37616 18.7985 8.69916 19.233 9.39679L20.1511 7.71716L19.1241 4.28375C19.0098 3.86115 19.0445 3.45062 19.253 3.06262C19.6769 2.276 20.6508 1.98505 21.4375 2.40894C21.8189 2.61493 22.0952 2.95642 22.22 3.37079C22.7302 5.24963 23.4465 7.06476 23.8929 8.96228C23.9594 9.24792 24.0072 9.55078 23.9993 9.86316C23.9899 10.1966 23.9182 10.5302 23.744 10.849L20.8528 16.1413L21.9304 17.8859C22.7423 19.2014 22.5429 20.4915 21.848 21.4336C21.5836 21.7925 21.2446 22.0994 20.8634 22.3359C20.4807 22.571 20.0541 22.7371 19.6157 22.8129C18.4624 23.0121 17.2187 22.6135 16.4068 21.2981L13.7879 17.0596C13.4623 16.532 13.3255 15.962 13.3321 15.3961C13.3374 14.7927 13.5169 14.1497 13.8078 13.6221ZM8.22056 6.79376L7.58811 6.16003C7.12705 5.70026 6.89707 5.09161 6.89707 4.48315C6.89707 3.87451 7.12705 3.26733 7.58811 2.80627C8.04917 2.34521 8.65635 2.11542 9.26481 2.11542C9.87345 2.11542 10.4821 2.34521 10.9431 2.80627L11.6659 3.52917C11.8506 3.71375 12.1482 3.71375 12.3329 3.52917L13.0571 2.80627C13.5182 2.34521 14.1253 2.11542 14.734 2.11542C15.3424 2.11542 15.9498 2.34521 16.4109 2.80627C16.8719 3.26733 17.103 3.87451 17.103 4.48315C17.103 5.09161 16.8717 5.70026 16.4109 6.16003L11.9995 10.5727L10.8966 9.46985C10.7119 9.27979 10.4116 9.27594 10.2243 9.46326C10.0395 9.64783 10.0408 9.95087 10.2283 10.1329L11.6659 11.5719C11.8506 11.7552 12.1482 11.7552 12.3329 11.5719L17.0779 6.8269C17.7222 6.18256 18.0451 5.33203 18.0451 4.48315C18.0451 3.63409 17.7222 2.78503 17.0779 2.13922C16.4321 1.49487 15.583 1.17188 14.734 1.17188C13.8849 1.17188 13.0344 1.49487 12.39 2.13922L11.9995 2.52979L11.6087 2.13922C10.9644 1.49487 10.1139 1.17188 9.26481 1.17188C8.41575 1.17188 7.56669 1.49487 6.92106 2.13922C6.27653 2.78503 5.95372 3.63409 5.95372 4.48315C5.95372 5.33203 6.27653 6.18256 6.92106 6.8269L7.55222 7.45807C7.73679 7.64685 8.03837 7.6507 8.22459 7.46338C8.41062 7.27734 8.40787 6.97577 8.22056 6.79376ZM9.55723 8.13043C9.37394 7.94586 9.07493 7.94586 8.89164 8.13043C8.70689 8.31372 8.70689 8.61273 8.89164 8.7962C9.07493 8.98077 9.37394 8.98077 9.55723 8.7962C9.74198 8.61273 9.74198 8.31372 9.55723 8.13043ZM6.75627 13.04C6.88114 13.2687 6.79618 13.5531 6.56895 13.678C6.34043 13.8016 6.05607 13.7177 5.93119 13.4892C4.93071 11.6569 3.93022 9.82581 2.92955 7.99365C2.86711 7.87939 2.85649 7.75049 2.8911 7.63495L3.97124 4.02063C4.02452 3.84393 4.00053 3.66064 3.91814 3.50775C3.74144 3.17963 3.33623 3.06006 3.00792 3.23676C2.85649 3.31915 2.73546 3.4574 2.68236 3.63409L1.02013 9.1908C0.969594 9.40869 0.933705 9.6319 0.939198 9.84045C0.944508 10.0345 0.984242 10.2244 1.08001 10.3998L4.10142 15.9315C4.18785 16.0882 4.17467 16.2729 4.08293 16.4125L2.86839 18.379C2.29051 19.3145 2.42601 20.2207 2.90959 20.877C3.10368 21.1401 3.35088 21.3633 3.62993 21.5359C3.9088 21.7088 4.21971 21.8297 4.54271 21.8855C5.34526 22.0236 6.21684 21.7392 6.79344 20.8039L9.41239 16.5667C9.63834 16.1999 9.73264 15.8013 9.72861 15.4039C9.7233 14.9456 9.5878 14.4844 9.36716 14.0713L7.10984 9.94025C6.99284 9.72491 6.79618 9.57733 6.57426 9.51233C6.09599 9.37152 5.60289 9.64252 5.46208 10.1195C5.40092 10.3308 5.41429 10.5646 5.51921 10.7734L6.75627 13.04ZM18.0678 13.4892C17.9442 13.7177 17.6585 13.8016 17.43 13.678C17.2028 13.5531 17.1189 13.2687 17.2425 13.04L18.4649 10.8025C18.5832 10.5873 18.6019 10.3414 18.5367 10.1197C18.3959 9.64124 17.9043 9.37152 17.4245 9.51233C17.2028 9.57751 17.0074 9.72491 16.8891 9.94025L14.6316 14.0713C14.411 14.4846 14.2755 14.9456 14.2702 15.4039C14.2661 15.8013 14.3619 16.1999 14.5877 16.5667L17.2053 20.8039C17.7819 21.7394 18.6537 22.0237 19.4575 21.8855C19.7791 21.8297 20.09 21.7088 20.369 21.5361C20.6494 21.3633 20.8966 21.1401 21.0892 20.877C21.5728 20.2207 21.7084 19.3145 21.1304 18.379L19.916 16.4125C19.8256 16.2729 19.8124 16.0884 19.8974 15.9315L22.9188 10.4C23.0158 10.2246 23.0545 10.0345 23.0598 9.84064C23.0649 9.63208 23.0292 9.40869 22.9786 9.1908L21.3204 3.64728C21.2593 3.46399 21.165 3.33105 20.9909 3.23676C20.664 3.06006 20.2588 3.18091 20.0808 3.50775C19.9944 3.66852 19.9772 3.85199 20.0303 4.02612L21.1079 7.63477C21.1423 7.75049 21.1331 7.87921 21.0707 7.99365C20.0687 9.82581 19.0683 11.6569 18.0678 13.4892ZM7.93473 9.49109L10.1924 13.6221C10.4821 14.1497 10.6613 14.794 10.6679 15.3961C10.6734 15.962 10.5365 16.532 10.2109 17.0596L7.59324 21.2981C6.78007 22.6137 5.53642 23.0121 4.3845 22.8129C3.94469 22.7371 3.51952 22.571 3.13683 22.3359C2.75414 22.0994 2.41667 21.7925 2.15099 21.4336C1.45739 20.4915 1.2567 19.2014 2.06987 17.8859L3.14616 16.1413L0.254751 10.849C0.0806182 10.5302 0.00902409 10.1966 0.000967475 9.86316C-0.00708916 9.58813 0.0355743 9.19867 0.113943 8.93573L1.7802 3.36566C1.90764 2.94049 2.19731 2.60559 2.56279 2.40894C3.34813 1.98505 4.32207 2.27747 4.74577 3.06262C4.94243 3.42664 5.00102 3.86517 4.8734 4.29034L3.84764 7.71716L4.76573 9.39679C4.92796 9.1377 5.15519 8.91559 5.44212 8.75885C5.88597 8.51569 6.38822 8.47723 6.83866 8.61017C7.29038 8.74164 7.69175 9.04596 7.93473 9.49109Z"></path>
</g>
<defs>
<clipPath id="clip0_1388_420">
<rect fill="white" height="24" width="24"></rect>
</clipPath>
</defs>
</svg>
