<svg xmlns="http://www.w3.org/2000/svg" fill="none" viewBox="0 0 189 196" height="196" width="189">
<g clip-path="url(#clip0_956_672)">
<path fill="#018D43" d="M44.4829 14.6087C44.4829 14.6087 45.1955 14.123 46.6029 13.3277C47.3014 12.923 48.1656 12.4268 49.178 11.839C50.208 11.2865 51.4108 10.6812 52.7477 9.99145C53.0864 9.82253 53.4215 9.63601 53.7848 9.47412C54.1446 9.30872 54.515 9.14332 54.8924 8.97087C55.6508 8.62951 56.441 8.27055 57.2699 7.89751C57.478 7.80601 57.6861 7.71099 57.8943 7.61597C58.1094 7.53151 58.3246 7.44353 58.5433 7.35555C58.9807 7.18311 59.4287 7.00714 59.8837 6.82766C60.7973 6.47574 61.7321 6.0851 62.7163 5.72966C64.7022 5.07509 66.7904 4.29382 69.0621 3.70259C69.6265 3.54422 70.198 3.38234 70.7764 3.22045C71.0657 3.13951 71.3549 3.05857 71.6477 2.97762C71.944 2.91076 72.2403 2.84038 72.5402 2.77351C73.7395 2.49901 74.967 2.22099 76.2158 1.93593C86.276 -0.0700283 98.3575 -0.833701 110.933 1.18986C117.208 2.18932 123.582 3.85039 129.78 6.19772C135.978 8.53801 141.992 11.5857 147.583 15.1999C153.177 18.8106 158.352 22.9985 162.938 27.5559C167.527 32.1133 171.527 37.0403 174.868 42.0868C178.212 47.1334 180.896 52.2926 182.967 57.3005C185.065 62.3013 186.455 67.186 187.411 71.6554C188.409 76.1213 188.769 80.2318 188.97 83.7475C188.991 85.5177 188.991 87.1435 188.942 88.6075C188.833 90.0821 188.702 91.3948 188.547 92.5385C188.505 92.8236 188.473 93.0981 188.423 93.3655C188.367 93.6295 188.311 93.8829 188.258 94.1292C188.145 94.6149 188.028 95.0583 187.908 95.456C187.669 96.2513 187.415 96.8672 187.143 97.293C186.603 98.1447 186.004 98.2432 185.333 97.5217C185.333 97.5217 185.284 96.7123 185.192 95.2483C185.171 94.8823 185.147 94.4776 185.122 94.0307C185.108 93.809 185.101 93.5767 185.076 93.3374C185.051 93.0981 185.023 92.8482 184.995 92.5878C184.885 91.5566 184.762 90.3812 184.624 89.0826C184.43 87.7946 184.215 86.3834 183.989 84.8701C183.873 84.1135 183.69 83.3428 183.538 82.5439C183.379 81.745 183.213 80.9251 183.044 80.084C182.226 76.7512 181.309 73.0983 179.958 69.3925C179.358 67.5133 178.547 65.6657 177.82 63.7618C177.404 62.8292 176.988 61.8931 176.568 60.9499C176.356 60.4819 176.159 60.0032 175.933 59.5387L175.238 58.1521L174.547 56.7585C174.314 56.294 174.095 55.8259 173.834 55.3754C173.333 54.4675 172.832 53.5595 172.335 52.6551C172.095 52.1976 171.823 51.7577 171.555 51.3178C171.287 50.8779 171.023 50.438 170.758 49.9981C170.494 49.5582 170.229 49.1183 169.968 48.6819C169.707 48.2455 169.411 47.8302 169.135 47.4079C168.582 46.5598 168.028 45.7187 167.485 44.8881C166.906 44.0787 166.335 43.2763 165.77 42.4845C165.488 42.0903 165.216 41.6856 164.931 41.302C164.638 40.922 164.349 40.5454 164.059 40.1689C163.488 39.4122 162.927 38.6697 162.373 37.9412C161.795 37.2303 161.23 36.537 160.677 35.8543C160.402 35.5094 160.133 35.168 159.865 34.8337C159.601 34.4923 159.312 34.1862 159.043 33.8659C157.95 32.6025 156.973 31.3391 155.978 30.2481C152.133 25.7435 147.572 21.4184 141.692 17.2974C141.325 17.0369 140.955 16.7765 140.581 16.5126C140.2 16.2592 139.808 16.0199 139.42 15.77C138.634 15.2773 137.833 14.7741 137.018 14.2638C136.196 13.7605 135.329 13.3101 134.461 12.8209C133.586 12.3458 132.701 11.8285 131.762 11.3991C130.828 10.9522 129.872 10.4947 128.902 10.0302C127.921 9.5797 126.898 9.18555 125.864 8.74916C125.346 8.53449 124.82 8.31982 124.291 8.10514C123.751 7.9151 123.208 7.72155 122.658 7.52799C122.108 7.33443 121.55 7.14087 120.986 6.9438C120.422 6.75024 119.854 6.53909 119.268 6.38072C118.097 6.04287 116.901 5.69799 115.684 5.34959C114.457 5.02582 113.19 4.75836 111.899 4.4557C110.612 4.13193 109.275 3.94189 107.917 3.69555C107.236 3.57941 106.548 3.45624 105.853 3.34714C105.155 3.26268 104.446 3.17822 103.733 3.09376C98.0153 2.41103 91.7435 2.19284 84.9391 2.77703C78.1417 3.36122 70.8223 4.75836 63.1713 7.30276C62.2189 7.63005 61.27 7.99605 60.3035 8.34797C59.8202 8.52745 59.337 8.70693 58.8502 8.88641C58.3599 9.05885 57.8872 9.28409 57.4039 9.48468C56.4374 9.89643 55.4639 10.3152 54.4797 10.734C53.5061 11.1739 52.5396 11.6666 51.5555 12.1382C51.0651 12.3775 50.5713 12.6203 50.0739 12.8596C49.5871 13.1165 49.1039 13.3875 48.6136 13.655C47.64 14.1969 46.6453 14.7248 45.6611 15.2949C44.6946 15.8897 43.714 16.4915 42.7298 17.1003C42.4829 17.2516 42.236 17.4065 41.989 17.5578C41.7421 17.7126 41.5058 17.8851 41.2624 18.047C40.7791 18.3778 40.2959 18.7086 39.8056 19.0429C39.8056 19.0429 39.4175 19.2928 38.8002 19.6904C38.1724 20.074 37.3505 20.6653 36.451 21.2987C35.9995 21.6155 35.5303 21.9463 35.0576 22.2736C34.5885 22.6044 34.1088 22.9246 33.6784 23.266C32.8036 23.9311 31.9923 24.5329 31.3962 24.9517C30.2039 25.7928 29.8547 25.9089 31.5196 24.3394C31.9359 23.9487 32.4791 23.449 33.1669 22.8331C33.3398 22.6783 33.5197 22.5164 33.7102 22.3475C33.9077 22.1856 34.1158 22.0202 34.331 21.8442C34.7684 21.4958 35.2411 21.1157 35.7561 20.7005C36.2746 20.2922 36.8355 19.8488 37.4387 19.3702C38.063 18.9233 38.7368 18.4446 39.4528 17.9308C39.8126 17.6739 40.1865 17.41 40.571 17.139C40.9555 16.8645 41.3506 16.583 41.7774 16.3225C42.631 15.7876 43.5305 15.214 44.4829 14.6087Z"></path>
<path fill="#018D43" d="M22.8496 34.6095C22.8496 34.6095 23.0965 34.335 23.5656 33.8176C23.802 33.5607 24.0912 33.2405 24.4369 32.8639C24.7967 32.5014 25.213 32.0862 25.6786 31.6181C26.1477 31.1501 26.6663 30.6327 27.2342 30.0661C27.3753 29.9254 27.5199 29.7811 27.6681 29.6333C27.8233 29.4925 27.9785 29.3482 28.1407 29.2039C28.4617 28.9118 28.7968 28.6092 29.1425 28.296C29.8374 27.6731 30.5641 26.9903 31.3648 26.3041C32.1796 25.6354 33.0403 24.9281 33.9434 24.189C37.6048 21.2927 42.1482 18.1113 47.4852 15.2079C52.8116 12.2975 58.9282 9.66868 65.4998 7.72958C72.0679 5.78345 79.0839 4.5306 86.0753 4.12941C93.0667 3.7071 100.026 4.17868 106.478 5.31187C112.933 6.44506 118.877 8.27506 123.964 10.4112C129.064 12.5333 133.276 15.0425 136.511 17.3054C138.112 18.4703 139.216 19.3254 139.837 20.0117C140.472 20.6733 140.677 21.0639 140.518 21.2188C140.19 21.539 138.44 20.8493 135.541 19.7161C135.181 19.5683 134.807 19.4099 134.412 19.248C134.02 19.0826 133.597 18.9418 133.167 18.7729C132.302 18.4456 131.378 18.0867 130.398 17.696C128.401 17.0098 126.196 16.1722 123.745 15.4613C118.87 13.9692 113.145 12.6284 107.014 11.8717C100.891 11.1045 94.3648 10.925 88.0401 11.4001C81.7119 11.8612 75.5953 12.9803 70.2089 14.4513C64.8155 15.9118 60.1628 17.7136 56.5719 19.2058C55.6759 19.5894 54.8399 19.9378 54.0709 20.251C53.316 20.5924 52.6317 20.9091 52.0144 21.1766C50.7833 21.7115 49.8309 22.0704 49.2489 22.2746C48.6563 22.4646 48.0214 22.6793 47.3441 22.9186C46.6703 23.1649 45.9366 23.4078 45.2029 23.7491C44.4622 24.0764 43.6756 24.4318 42.8501 24.8225C42.441 25.0196 42.0036 25.2061 41.5838 25.4383C41.1605 25.6706 40.7301 25.9064 40.2857 26.1492C36.7053 28.0672 32.61 30.7876 28.2077 34.5883C27.0719 35.5069 26.0137 36.5767 24.8637 37.6536C24.578 37.9246 24.2923 38.1991 24.003 38.4771C23.7209 38.7622 23.4492 39.0578 23.167 39.3534C22.6062 39.9481 22.0383 40.5534 21.4598 41.1693C20.8672 41.7781 20.3239 42.4433 19.7595 43.1119C19.1952 43.7841 18.6237 44.4703 18.0417 45.1636C17.4808 45.8745 16.9376 46.6206 16.3697 47.3667C15.8159 48.1233 15.2127 48.8694 14.6906 49.6858C14.1509 50.4917 13.6042 51.3117 13.0468 52.1458C12.9093 52.3534 12.7682 52.5646 12.6306 52.7757C12.5001 52.9939 12.3731 53.2086 12.2426 53.4268C11.9815 53.8632 11.7205 54.3066 11.456 54.75C11.1914 55.197 10.9268 55.6439 10.6623 56.0979C10.5282 56.3231 10.3977 56.5519 10.2637 56.7806C10.1402 57.0164 10.0168 57.2487 9.8933 57.4845C9.39946 58.4311 8.89857 59.3919 8.39062 60.3667C8.12606 60.8524 7.90736 61.3591 7.67455 61.8659C7.44174 62.3727 7.20892 62.8865 6.97611 63.4003C6.7433 63.9176 6.50696 64.4385 6.27063 64.9628C6.04487 65.4907 5.84381 66.0327 5.62863 66.5746C5.2124 67.6621 4.75383 68.7565 4.35876 69.8897C3.98132 71.03 3.60036 72.1843 3.21234 73.3562C3.21234 73.3562 3.16648 73.0746 3.27936 72.0611C3.3358 71.5543 3.4381 70.861 3.60389 69.9285C3.64621 69.6962 3.68854 69.4463 3.74498 69.1824C3.80848 68.922 3.87903 68.6439 3.94957 68.3518C4.09773 67.7641 4.27057 67.1131 4.47163 66.3846C5.26883 63.4777 6.66923 59.42 9.35008 54.0391C9.69224 53.3705 10.045 52.6772 10.4154 51.9557C10.7893 51.2413 11.2267 50.5305 11.657 49.7773C12.0944 49.0313 12.5389 48.257 13.0186 47.4687C13.5266 46.698 14.0486 45.8992 14.5918 45.0792C14.8635 44.6709 15.1421 44.2522 15.4208 43.8298C15.71 43.4111 16.024 43.0028 16.3309 42.5805C16.9552 41.7394 17.5972 40.8737 18.2604 39.9798C19.6819 38.2695 21.1282 36.4113 22.8496 34.6095Z"></path>
<path fill="#018D43" d="M39.8304 176.96C41.7529 178.333 43.7494 179.512 45.6824 180.705C46.6666 181.272 47.6578 181.803 48.6314 182.341C49.1217 182.609 49.6014 182.88 50.0917 183.137C50.5856 183.38 51.0794 183.619 51.5697 183.858C52.5539 184.33 53.5169 184.822 54.4904 185.262C55.4746 185.681 56.4481 186.1 57.4147 186.512C57.9015 186.709 58.3706 186.937 58.8609 187.11C59.3477 187.289 59.831 187.469 60.3142 187.648C61.2807 188 62.2296 188.366 63.182 188.69C70.8295 191.231 78.1489 192.628 84.9428 193.212C91.7437 193.796 98.0155 193.578 103.733 192.896C104.45 192.811 105.155 192.727 105.853 192.642C106.552 192.533 107.236 192.41 107.917 192.294C109.275 192.047 110.612 191.861 111.899 191.534C113.19 191.231 114.457 190.963 115.684 190.64C116.905 190.288 118.097 189.943 119.268 189.605C119.854 189.447 120.422 189.236 120.986 189.042C121.551 188.845 122.108 188.651 122.658 188.458C123.208 188.264 123.755 188.071 124.295 187.881C124.824 187.662 125.35 187.448 125.868 187.237C126.902 186.8 127.928 186.406 128.909 185.956C129.879 185.491 130.835 185.034 131.769 184.583C132.711 184.154 133.593 183.636 134.472 183.161C135.343 182.672 136.211 182.222 137.032 181.718C137.847 181.208 138.648 180.705 139.435 180.212C139.826 179.962 140.218 179.723 140.595 179.47C140.969 179.206 141.339 178.945 141.706 178.685C147.587 174.56 152.151 170.232 155.992 165.731C156.984 164.636 157.961 163.373 159.054 162.113C159.322 161.793 159.612 161.483 159.873 161.145C160.141 160.811 160.409 160.469 160.684 160.124C161.238 159.445 161.802 158.748 162.377 158.041C162.927 157.313 163.492 156.57 164.063 155.817C164.352 155.444 164.642 155.064 164.934 154.684C165.22 154.297 165.488 153.895 165.774 153.501C166.338 152.709 166.91 151.911 167.488 151.101C168.032 150.271 168.585 149.43 169.139 148.581C169.414 148.156 169.711 147.744 169.972 147.307C170.233 146.871 170.497 146.431 170.762 145.991C171.026 145.551 171.294 145.115 171.559 144.672C171.827 144.232 172.102 143.795 172.339 143.334C172.836 142.43 173.337 141.522 173.838 140.614C174.099 140.167 174.321 139.695 174.55 139.231L175.242 137.837L175.937 136.451C176.162 135.986 176.36 135.507 176.571 135.039C176.991 134.1 177.407 133.16 177.824 132.231C178.55 130.327 179.365 128.48 179.961 126.6C181.312 122.898 182.229 119.242 183.048 115.912C183.217 115.071 183.379 114.251 183.542 113.452C183.693 112.654 183.877 111.883 183.993 111.126C184.222 109.613 184.434 108.202 184.628 106.914C184.766 105.615 184.889 104.44 184.998 103.409C185.027 103.152 185.055 102.902 185.08 102.659C185.104 102.42 185.108 102.187 185.125 101.966C185.15 101.522 185.175 101.114 185.196 100.748C185.288 99.284 185.337 98.4746 185.337 98.4746C186.004 97.7567 186.607 97.8517 187.147 98.7034C187.415 99.1292 187.672 99.7451 187.912 100.54C188.032 100.938 188.148 101.382 188.261 101.867C188.314 102.11 188.371 102.367 188.427 102.631C188.48 102.895 188.512 103.169 188.551 103.458C188.706 104.602 188.836 105.914 188.946 107.385C188.995 108.853 188.992 110.475 188.974 112.245C188.773 115.761 188.417 119.872 187.415 124.337C186.459 128.807 185.069 133.692 182.974 138.689C180.903 143.697 178.219 148.856 174.875 153.902C171.534 158.949 167.538 163.876 162.948 168.433C158.363 172.994 153.192 177.179 147.594 180.793C141.999 184.407 135.988 187.451 129.791 189.795C123.593 192.142 117.222 193.804 110.947 194.803C98.3717 196.827 86.2903 196.066 76.23 194.06C74.9778 193.775 73.7502 193.494 72.5544 193.223C72.2546 193.152 71.9583 193.086 71.662 193.019C71.3692 192.938 71.08 192.857 70.7907 192.776C70.2122 192.614 69.6408 192.452 69.0764 192.294C66.8047 191.703 64.72 190.925 62.7305 190.267C61.7464 189.915 60.8116 189.524 59.898 189.172C59.4429 188.993 58.995 188.817 58.5576 188.644C58.3389 188.556 58.1202 188.472 57.9085 188.384C57.6969 188.289 57.4887 188.194 57.2842 188.102C56.4587 187.729 55.6651 187.37 54.9102 187.029C54.5328 186.857 54.1624 186.688 53.8026 186.526C53.4393 186.364 53.1041 186.174 52.7655 186.008C51.4286 185.319 50.2258 184.713 49.1957 184.161C48.1834 183.577 47.3192 183.077 46.6207 182.672C45.9258 182.264 45.3791 181.965 45.0298 181.736C44.6771 181.511 44.4972 181.391 44.4972 181.391C43.5448 180.786 42.6453 180.212 41.7987 179.674C41.3719 179.41 40.9733 179.132 40.5888 178.854C40.2043 178.579 39.8304 178.315 39.4706 178.062C38.751 177.548 38.0808 177.07 37.4529 176.619C36.8497 176.14 36.2889 175.701 35.7703 175.289C35.2553 174.877 34.7791 174.493 34.3452 174.145C34.1265 173.969 33.9219 173.8 33.7244 173.642C33.5339 173.473 33.354 173.311 33.1812 173.156C32.4933 172.54 31.9501 172.041 31.5339 171.65C29.8689 170.08 30.2181 170.197 31.4139 171.038C32.0136 171.46 32.8214 172.062 33.6997 172.73C34.1301 173.072 34.6098 173.392 35.0825 173.723C35.5516 174.054 36.0243 174.384 36.4758 174.701C36.9273 175.018 37.3577 175.324 37.7527 175.602C38.1443 175.887 38.5217 176.105 38.8286 176.313C39.4424 176.707 39.8304 176.96 39.8304 176.96Z"></path>
<path fill="#018D43" d="M49.2591 173.723C49.8411 173.927 50.7935 174.286 52.0281 174.821C52.6454 175.088 53.3298 175.405 54.0846 175.747C54.8536 176.06 55.6931 176.408 56.5856 176.792C60.1765 178.284 64.8292 180.086 70.2227 181.546C75.6091 183.017 81.7292 184.136 88.0574 184.594C94.3821 185.065 100.908 184.886 107.031 184.119C113.162 183.362 118.891 182.021 123.762 180.526C126.214 179.815 128.418 178.977 130.415 178.287C131.395 177.897 132.32 177.538 133.184 177.211C133.614 177.042 134.037 176.901 134.429 176.735C134.821 176.57 135.198 176.415 135.558 176.267C138.457 175.134 140.207 174.444 140.535 174.765C140.697 174.92 140.489 175.31 139.858 175.972C139.237 176.658 138.136 177.517 136.531 178.678C133.3 180.941 129.092 183.454 123.988 185.572C118.901 187.712 112.961 189.542 106.502 190.675C100.051 191.812 93.0946 192.283 86.0996 191.865C79.1047 191.463 72.0887 190.214 65.5206 188.268C58.9454 186.332 52.8324 183.704 47.5024 180.793C42.1654 177.89 37.6186 174.708 33.9571 171.812C33.0541 171.073 32.1934 170.366 31.375 169.697C30.5707 169.014 29.8476 168.328 29.1492 167.705C28.8035 167.392 28.4684 167.089 28.1474 166.797C27.9851 166.649 27.8299 166.509 27.6747 166.368C27.5266 166.22 27.3819 166.076 27.2408 165.935C26.6729 165.368 26.1544 164.851 25.6852 164.383C25.2196 163.915 24.8034 163.5 24.4436 163.137C24.1014 162.761 23.8087 162.44 23.5723 162.183C23.1032 161.666 22.8562 161.392 22.8562 161.392C21.1349 159.586 19.6851 157.732 18.2671 156.018C17.6039 155.124 16.9619 154.258 16.3375 153.417C16.0307 152.995 15.7167 152.583 15.4275 152.168C15.1453 151.745 14.8701 151.327 14.5985 150.918C14.0588 150.095 13.5332 149.3 13.0253 148.525C12.542 147.737 12.1011 146.963 11.6637 146.217C11.2333 145.467 10.7959 144.753 10.422 144.038C10.0552 143.32 9.69891 142.627 9.35675 141.955C6.67237 136.571 5.27551 132.516 4.47831 129.613C4.27724 128.885 4.1044 128.233 3.95624 127.646C3.88217 127.354 3.81515 127.076 3.75165 126.815C3.69169 126.555 3.65289 126.305 3.60703 126.069C3.44124 125.137 3.34247 124.447 3.2825 123.94C3.1661 122.926 3.21548 122.648 3.21548 122.648C3.6035 123.82 3.98446 124.975 4.3619 126.115C4.7605 127.248 5.21554 128.343 5.63178 129.43C5.84695 129.972 6.04801 130.514 6.2773 131.042C6.51364 131.566 6.74997 132.087 6.98278 132.601C7.2156 133.115 7.44841 133.628 7.68122 134.135C7.91403 134.642 8.13273 135.149 8.39729 135.634C8.90524 136.609 9.40613 137.57 9.89997 138.517C10.0234 138.752 10.1469 138.988 10.2704 139.22C10.4044 139.449 10.5384 139.678 10.6725 139.903C10.9406 140.354 11.2051 140.804 11.4662 141.251C11.7307 141.695 11.9917 142.134 12.2528 142.574C12.3833 142.793 12.5138 143.011 12.6443 143.225C12.7854 143.437 12.923 143.644 13.0606 143.855C13.6179 144.689 14.1646 145.506 14.7043 146.315C15.2264 147.132 15.8296 147.878 16.3834 148.634C16.9513 149.384 17.491 150.127 18.0554 150.837C18.6374 151.531 19.2089 152.217 19.7733 152.889C20.3377 153.558 20.8809 154.223 21.4735 154.832C22.052 155.448 22.6199 156.053 23.1808 156.648C23.463 156.943 23.7346 157.239 24.0168 157.524C24.306 157.802 24.5917 158.077 24.8775 158.348C26.0274 159.424 27.0856 160.494 28.2215 161.413C32.6237 165.214 36.7191 167.934 40.2994 169.852C40.7439 170.095 41.1777 170.33 41.5975 170.563C42.0173 170.792 42.4547 170.978 42.8639 171.179C43.6928 171.566 44.4759 171.925 45.2167 172.252C45.9468 172.593 46.6876 172.836 47.3578 173.083C48.0316 173.318 48.663 173.533 49.2591 173.723Z"></path>
<path fill="#018D43" d="M23.262 45.2428C23.7558 44.8521 24.1297 44.6163 24.3907 44.5213C24.6624 44.4298 24.8176 44.4756 24.874 44.6339C24.9798 44.9436 24.74 45.746 24.2179 46.8581C23.9604 47.4141 23.6359 48.0546 23.2549 48.7549C22.8986 49.4694 22.5106 50.2612 22.0767 51.0952C21.858 51.5105 21.6323 51.9363 21.3995 52.3762C21.1596 52.8091 20.9586 53.2807 20.7293 53.7452C20.2742 54.6743 19.8016 55.6386 19.3183 56.6204C17.4558 60.576 15.7909 64.9047 14.6303 68.255C14.1047 69.9478 13.6603 71.3801 13.3499 72.3901C13.0818 73.4107 12.9231 74.0054 12.9231 74.0054C11.3145 80.1113 10.3727 86.2453 10.0129 91.9641C9.64607 97.6828 9.84713 102.976 10.2739 107.442C10.4045 108.557 10.5315 109.624 10.6479 110.634C10.6937 111.14 10.789 111.63 10.8666 112.105C10.9442 112.58 11.0218 113.041 11.0958 113.488C11.1699 113.935 11.2405 114.367 11.3075 114.783C11.3428 114.99 11.3745 115.195 11.4063 115.395C11.4486 115.592 11.4909 115.789 11.5332 115.979C11.6955 116.743 11.8472 117.443 11.9812 118.073C12.1188 118.703 12.2246 119.27 12.3446 119.755C12.4715 120.238 12.5809 120.649 12.6656 120.984C12.8384 121.649 12.9301 122.004 12.9301 122.004C12.9301 122.004 13.0853 122.599 13.3569 123.62C13.6709 124.63 14.1153 126.062 14.6374 127.751C15.7979 131.098 17.4664 135.427 19.3253 139.382C19.8051 140.364 20.2813 141.328 20.7363 142.257C20.9691 142.722 21.1667 143.193 21.4101 143.626C21.6429 144.066 21.8686 144.492 22.0873 144.907C22.5212 145.738 22.9092 146.53 23.2655 147.244C23.6429 147.944 23.9675 148.581 24.225 149.137C24.7435 150.25 24.9869 151.052 24.8811 151.362C24.8246 151.52 24.6659 151.562 24.3943 151.474C24.1297 151.379 23.7593 151.143 23.2655 150.753C22.5424 150.179 21.791 149.549 21.015 148.87C20.2601 148.177 19.5194 147.41 18.7398 146.611C18.3553 146.206 17.9532 145.801 17.5722 145.368C17.2018 144.928 16.8244 144.478 16.4434 144.024C16.066 143.563 15.685 143.095 15.297 142.62C15.1065 142.381 14.9055 142.145 14.7256 141.895C14.5457 141.645 14.3622 141.392 14.1823 141.138C13.4628 140.118 12.7044 139.076 11.9989 137.982C11.3145 136.876 10.6302 135.74 9.94237 134.585C9.29685 133.414 8.68308 132.21 8.05872 130.999C7.7342 130.398 7.46258 129.775 7.18744 129.152L6.3585 127.276C4.21029 122.244 2.64411 116.986 1.62115 112.122C1.39892 110.898 1.18375 109.708 0.972101 108.554C0.922717 108.265 0.866278 107.98 0.823949 107.695C0.788675 107.41 0.7534 107.125 0.718126 106.847C0.647577 106.284 0.580556 105.735 0.513535 105.193C0.450041 104.651 0.386547 104.123 0.323053 103.609C0.294834 103.352 0.25956 103.095 0.238395 102.842C0.220758 102.589 0.203121 102.339 0.189011 102.092C0.125517 101.107 0.0655506 100.174 0.012639 99.3052C-0.0296902 98.0383 0.044386 96.7748 0.0867152 95.5079C0.153736 94.6105 0.185483 93.6568 0.294834 92.6609C0.414767 91.6649 0.541754 90.6232 0.672269 89.5393C0.746346 88.9973 0.792202 88.4448 0.894498 87.8888C0.993266 87.3327 1.09556 86.7662 1.19786 86.1925C1.30368 85.6189 1.4095 85.0382 1.51533 84.447C1.56824 84.1514 1.62468 83.8558 1.68112 83.5601C1.74108 83.2645 1.81869 82.9654 1.88923 82.6663C2.17848 81.4768 2.47479 80.2556 2.77462 79.0168C3.12031 77.7886 3.51186 76.5533 3.89282 75.3075C3.98806 74.9978 4.08683 74.6846 4.18207 74.3714C4.28789 74.0617 4.40782 73.752 4.5207 73.4424C4.74999 72.8265 4.97927 72.2036 5.20855 71.5842C5.44489 70.9648 5.66359 70.3419 5.91757 69.726C6.18565 69.1172 6.45374 68.5084 6.72182 67.8996L7.53313 66.0801C7.66365 65.7775 7.8118 65.4783 7.96701 65.1862L8.42205 64.3029C8.7254 63.7187 9.03229 63.1345 9.33565 62.5539L9.79422 61.6881C9.95295 61.4031 10.1258 61.125 10.2881 60.847C10.9583 59.7314 11.6179 58.6334 12.2916 57.5706C13.0077 56.5289 13.7238 55.5119 14.4293 54.53C14.7714 54.0338 15.1559 53.5657 15.5298 53.1047C15.9037 52.6472 16.2741 52.1968 16.641 51.7498C17.0114 51.3064 17.3712 50.8735 17.738 50.4547C18.1225 50.05 18.5035 49.6524 18.8774 49.2582C19.6358 48.4875 20.3483 47.7414 21.0891 47.0728C21.8298 46.4111 22.5565 45.7988 23.262 45.2428Z"></path>
</g>
<path fill="#313131" d="M137.508 97.7896C137.669 98.1259 137.896 98.4269 138.174 98.675C138.453 98.9232 138.777 99.1136 139.13 99.2352C139.483 99.3568 139.856 99.4072 140.228 99.3835C140.6 99.3598 140.964 99.2624 141.298 99.097C141.633 98.9316 141.931 98.7015 142.175 98.42C142.42 98.1386 142.607 97.8113 142.724 97.4572C142.841 97.1032 142.887 96.7294 142.859 96.3575C142.83 95.9856 142.728 95.623 142.559 95.2908L123.57 56.905C123.513 56.7901 123.434 56.6874 123.338 56.6029C123.241 56.5185 123.129 56.4538 123.007 56.4128C122.886 56.3717 122.758 56.3549 122.63 56.3635C122.502 56.3721 122.377 56.4058 122.262 56.4627L107.592 63.7197C107.363 63.8363 107.189 64.0385 107.108 64.2825C107.027 64.5265 107.046 64.7925 107.16 65.023C107.274 65.2534 107.474 65.4296 107.717 65.5133C107.96 65.5971 108.226 65.5816 108.458 65.4703L118.952 60.2791L120.263 62.9295L109.769 68.1207C109.653 68.177 109.55 68.2557 109.465 68.3522C109.379 68.4487 109.314 68.5612 109.272 68.683C109.231 68.8049 109.214 68.9338 109.222 69.0623C109.23 69.1908 109.264 69.3164 109.321 69.4318C109.378 69.5472 109.458 69.6502 109.555 69.7349C109.652 69.8195 109.765 69.8841 109.887 69.9249C110.009 69.9658 110.138 69.9821 110.266 69.9729C110.395 69.9636 110.52 69.9291 110.635 69.8713L121.129 64.6802L122.682 67.8195L112.188 73.0105C112.072 73.0669 111.968 73.1456 111.883 73.2421C111.798 73.3386 111.733 73.451 111.691 73.5729C111.649 73.6947 111.632 73.8236 111.641 73.9521C111.649 74.0806 111.683 74.2062 111.74 74.3217C111.797 74.4371 111.876 74.5401 111.973 74.6247C112.07 74.7093 112.183 74.7739 112.305 74.8148C112.427 74.8556 112.556 74.8719 112.685 74.8627C112.813 74.8535 112.939 74.819 113.054 74.7611L123.547 69.5699L125.1 72.7093L114.607 77.9004C114.49 77.9563 114.386 78.0348 114.3 78.1313C114.214 78.2278 114.149 78.3403 114.106 78.4625C114.064 78.5846 114.047 78.7139 114.055 78.8428C114.063 78.9717 114.097 79.0978 114.154 79.2136C114.212 79.3294 114.291 79.4326 114.389 79.5174C114.486 79.6022 114.6 79.6668 114.722 79.7075C114.845 79.7482 114.974 79.7641 115.103 79.7544C115.232 79.7447 115.358 79.7095 115.473 79.6509L125.966 74.4597L127.52 77.5992L117.026 82.7904C116.909 82.8461 116.804 82.9244 116.718 83.0209C116.632 83.1174 116.565 83.2301 116.523 83.3525C116.481 83.4748 116.463 83.6043 116.471 83.7336C116.479 83.8628 116.513 83.9891 116.57 84.1051C116.628 84.2211 116.708 84.3246 116.806 84.4095C116.903 84.4944 117.017 84.559 117.14 84.5995C117.263 84.64 117.393 84.6557 117.522 84.6456C117.651 84.6356 117.777 84.5999 117.892 84.5408L128.386 79.3498L137.508 97.7896ZM120.703 59.4131L122.253 58.6463L140.809 96.1568C140.91 96.3624 140.926 96.5999 140.853 96.8171C140.779 97.0344 140.623 97.2135 140.417 97.3152C140.211 97.4169 139.974 97.4328 139.757 97.3593C139.539 97.2859 139.36 97.1291 139.259 96.9236L120.703 59.4131Z"></path>
<path fill="#313131" d="M79.8656 96.7798C80.0043 96.9985 80.2242 97.1532 80.477 97.2098C80.7297 97.2664 80.9946 97.2202 81.2133 97.0815C84.4605 95.0226 86.0143 95.021 89.1295 97.0724C89.2366 97.1445 89.3569 97.1947 89.4835 97.22C89.6101 97.2453 89.7404 97.2453 89.867 97.2199C89.9936 97.1946 90.1139 97.1444 90.2209 97.0722C90.328 97 90.4196 96.9074 90.4906 96.7996C90.5617 96.6917 90.6106 96.5709 90.6346 96.4441C90.6586 96.3172 90.6572 96.1869 90.6306 96.0606C90.6039 95.9343 90.5524 95.8145 90.4791 95.7082C90.4059 95.6019 90.3123 95.5112 90.2037 95.4413C86.4717 92.9837 84.033 92.9804 80.1676 95.4321C80.0593 95.5008 79.9655 95.5901 79.8917 95.695C79.8179 95.7999 79.7655 95.9183 79.7375 96.0434C79.7095 96.1686 79.7063 96.298 79.7283 96.4243C79.7503 96.5507 79.797 96.6715 79.8656 96.7798Z"></path>
<path fill="#313131" d="M50.7456 121.262C50.7456 121.003 50.6427 120.754 50.4596 120.571C50.2764 120.388 50.028 120.285 49.769 120.285C49.51 120.285 49.2617 120.388 49.0785 120.571C48.8954 120.754 48.7925 121.003 48.7925 121.262V123.464C48.7925 123.723 48.8954 123.972 49.0785 124.155C49.2617 124.338 49.51 124.441 49.769 124.441C50.028 124.441 50.2764 124.338 50.4596 124.155C50.6427 123.972 50.7456 123.723 50.7456 123.464V121.262Z"></path>
<path fill="#313131" d="M49.769 125.594C49.51 125.594 49.2617 125.697 49.0785 125.88C48.8954 126.063 48.7925 126.311 48.7925 126.57V138.663C48.7925 138.922 48.8954 139.17 49.0785 139.354C49.2617 139.537 49.51 139.64 49.769 139.64C50.028 139.64 50.2764 139.537 50.4596 139.354C50.6427 139.17 50.7456 138.922 50.7456 138.663V126.57C50.7456 126.311 50.6427 126.063 50.4596 125.88C50.2764 125.697 50.028 125.594 49.769 125.594Z"></path>
<path fill="#313131" d="M76.1777 85.2836C76.4367 85.2836 76.6851 85.1807 76.8683 84.9976C77.0514 84.8144 77.1543 84.566 77.1543 84.307C77.1543 83.5615 77.6459 82.9316 78.2285 82.9316C78.8111 82.9316 79.3027 83.5615 79.3027 84.307C79.3027 84.566 79.4056 84.8144 79.5888 84.9976C79.7719 85.1807 80.0203 85.2836 80.2793 85.2836C80.5383 85.2836 80.7867 85.1807 80.9698 84.9976C81.153 84.8144 81.2559 84.566 81.2559 84.307C81.2559 82.4711 79.898 80.9785 78.2285 80.9785C76.559 80.9785 75.2012 82.4717 75.2012 84.307C75.2012 84.566 75.3041 84.8144 75.4872 84.9976C75.6703 85.1807 75.9187 85.2836 76.1777 85.2836Z"></path>
<path fill="#313131" d="M90.0742 85.2836C90.3332 85.2836 90.5816 85.1807 90.7648 84.9976C90.9479 84.8144 91.0508 84.566 91.0508 84.307C91.0508 83.5615 91.5426 82.9316 92.125 82.9316C92.7074 82.9316 93.1992 83.5615 93.1992 84.307C93.1992 84.566 93.3021 84.8144 93.4852 84.9976C93.6684 85.1807 93.9168 85.2836 94.1758 85.2836C94.4348 85.2836 94.6832 85.1807 94.8663 84.9976C95.0495 84.8144 95.1523 84.566 95.1523 84.307C95.1523 82.4711 93.7945 80.9785 92.125 80.9785C90.4555 80.9785 89.0977 82.4717 89.0977 84.307C89.0977 84.566 89.2005 84.8144 89.3837 84.9976C89.5668 85.1807 89.8152 85.2836 90.0742 85.2836Z"></path>
<path fill="#313131" d="M53.4873 139.639H117.47C117.729 139.639 117.977 139.536 118.16 139.353C118.343 139.17 118.446 138.921 118.446 138.662V122.088C118.445 119.209 117.402 116.428 115.509 114.259C113.616 112.09 111.001 110.679 108.149 110.288V80.9945C108.149 74.9058 105.73 69.0665 101.425 64.7612C97.1196 60.4558 91.2803 58.0371 85.1916 58.0371C79.1029 58.0371 73.2636 60.4558 68.9583 64.7612C64.6529 69.0665 62.2342 74.9058 62.2342 80.9945V110.38C59.5 110.886 57.0297 112.335 55.2531 114.474C53.4766 116.613 52.5062 119.307 52.5108 122.088V138.662C52.5108 138.921 52.6136 139.17 52.7968 139.353C52.9799 139.536 53.2283 139.639 53.4873 139.639ZM86.1682 60.0137C91.5617 60.271 96.6496 62.593 100.378 66.4988C104.106 70.4046 106.189 75.5949 106.196 80.9945V117.557H101.624V81.1865C101.619 76.9992 100.017 72.9714 97.1454 69.9239C94.2736 66.8765 90.3479 65.0388 86.1682 64.7854V60.0137ZM85.1916 66.707C89.0305 66.7114 92.7109 68.2383 95.4254 70.9528C98.1399 73.6673 99.6668 77.3477 99.6711 81.1865V90.0775C99.6711 93.9177 98.1456 97.6007 95.4302 100.316C92.7147 103.032 89.0318 104.557 85.1916 104.557C81.3514 104.557 77.6685 103.032 74.9531 100.316C72.2376 97.6007 70.7121 93.9177 70.7121 90.0775V81.1865C70.7165 77.3477 72.2434 73.6673 74.9579 70.9528C77.6724 68.2383 81.3527 66.7114 85.1916 66.707ZM99.6711 97.8398V110.178H97.3274V101.144C98.2413 100.143 99.0285 99.033 99.6711 97.8393V97.8398ZM95.3742 102.961V110.016C94.9177 109.841 94.525 109.532 94.2481 109.129C93.9713 108.726 93.8234 108.249 93.824 107.76V104.052C94.3612 103.718 94.8788 103.354 95.3742 102.961V102.961ZM92.4744 109.968C90.51 111.604 88.0346 112.499 85.4784 112.499C82.9222 112.499 80.4468 111.604 78.4824 109.968C78.8773 109.299 79.0857 108.536 79.0861 107.759V105.329C81.1245 106.148 83.3069 106.549 85.5033 106.507C87.6997 106.465 89.8652 105.982 91.8709 105.086V107.759C91.8714 108.536 92.0798 109.298 92.4744 109.967V109.968ZM77.133 104.391V107.76C77.1336 108.382 76.8937 108.981 76.4635 109.431C76.0786 109.836 75.5639 110.093 75.009 110.158V102.961C75.6789 103.492 76.389 103.97 77.133 104.39V104.391ZM73.0559 101.144V110.177H70.7121V97.8393C71.3547 99.033 72.1419 100.143 73.0559 101.144ZM64.1873 80.9945C64.1938 75.5949 66.2769 70.4046 70.0053 66.4988C73.7337 62.593 78.8216 60.271 84.2151 60.0137V64.7854C80.0353 65.0388 76.1096 66.8765 73.2377 69.9239C70.3659 72.9713 68.7642 76.9991 68.759 81.1865V117.557H64.1873V80.9945ZM54.4639 122.088C54.46 119.826 55.2279 117.631 56.6407 115.864C58.0535 114.097 60.0266 112.866 62.2342 112.372V118.534C62.2342 118.793 62.3371 119.041 62.5202 119.224C62.7034 119.407 62.9518 119.51 63.2108 119.51H69.7356C69.9946 119.51 70.243 119.407 70.4261 119.224C70.6092 119.041 70.7121 118.793 70.7121 118.534V112.13H74.716C75.581 112.133 76.427 111.877 77.1451 111.395C79.4721 113.371 82.426 114.457 85.4792 114.457C88.5324 114.457 91.4863 113.371 93.8133 111.395C94.5314 111.877 95.3773 112.133 96.2422 112.13H99.6717V118.533C99.6717 118.792 99.7746 119.04 99.9577 119.224C100.141 119.407 100.389 119.51 100.648 119.51H107.173C107.432 119.51 107.68 119.407 107.864 119.224C108.047 119.04 108.15 118.792 108.15 118.533V112.261C110.479 112.644 112.597 113.843 114.126 115.643C115.654 117.443 116.493 119.727 116.494 122.088V137.686H54.4639V122.088Z"></path>
<path fill="#313131" d="M48.075 103.797C48.0073 103.906 47.962 104.028 47.9416 104.155C47.9211 104.282 47.926 104.412 47.956 104.537C47.9859 104.662 48.0403 104.78 48.116 104.885C48.1917 104.989 48.2872 105.077 48.3971 105.144C48.5069 105.211 48.6289 105.255 48.7561 105.275C48.8833 105.295 49.0131 105.289 49.1381 105.259C49.2631 105.228 49.3808 105.173 49.4845 105.097C49.5881 105.02 49.6757 104.924 49.7421 104.814C50.6285 103.362 50.0128 101.985 49.5632 100.979C49.1042 99.9527 48.9492 99.4826 49.2685 98.9591C49.5878 98.4357 50.0771 98.3588 51.2 98.2974C52.2996 98.2377 53.8058 98.1554 54.6921 96.7033C55.5785 95.2511 54.9619 93.8748 54.5123 92.8695C54.0531 91.8435 53.8978 91.3738 54.2166 90.8511C54.5353 90.3285 55.0248 90.2513 56.1474 90.1904C57.247 90.1306 58.7531 90.0488 59.6394 88.5966C59.7062 88.4872 59.7508 88.3656 59.7706 88.2389C59.7904 88.1122 59.7851 87.9828 59.7549 87.8581C59.7247 87.7335 59.6703 87.616 59.5947 87.5124C59.5191 87.4088 59.4239 87.3211 59.3144 87.2543C59.2049 87.1875 59.0834 87.1429 58.9566 87.1231C58.8299 87.1032 58.7006 87.1086 58.5759 87.1387C58.4513 87.1689 58.3338 87.2234 58.2302 87.2989C58.1265 87.3745 58.0388 87.4698 57.972 87.5793C57.6529 88.1023 57.164 88.1791 56.0414 88.24C54.9416 88.2998 53.4355 88.3818 52.5494 89.8338C51.6632 91.2857 52.2794 92.6621 52.7294 93.6674C53.1884 94.6933 53.3437 95.1633 53.0248 95.6859C52.7058 96.2086 52.2164 96.2861 51.0935 96.3474C49.9937 96.4074 48.4876 96.4894 47.6013 97.9418C46.715 99.3941 47.3308 100.771 47.7802 101.777C48.2392 102.803 48.3945 103.273 48.075 103.797Z"></path>
<path fill="#313131" d="M54.034 108.821C53.0236 109.259 51.6398 109.859 51.3131 111.529C51.2885 111.655 51.2889 111.784 51.3143 111.91C51.3397 112.036 51.3897 112.155 51.4613 112.262C51.5329 112.368 51.6247 112.459 51.7316 112.53C51.8385 112.601 51.9583 112.65 52.0842 112.675C52.1463 112.687 52.2094 112.693 52.2727 112.693C52.4989 112.693 52.718 112.614 52.8926 112.47C53.0671 112.326 53.1863 112.126 53.2297 111.904C53.3469 111.302 53.7791 111.06 54.8107 110.613C55.8213 110.174 57.2051 109.574 57.5316 107.904C57.8582 106.235 56.8021 105.158 56.0311 104.372C55.2441 103.569 54.9354 103.183 55.0529 102.582C55.1705 101.981 55.6023 101.739 56.6338 101.292C57.6441 100.853 59.0279 100.253 59.3547 98.5841C59.4044 98.3299 59.3511 98.0663 59.2065 97.8514C59.0619 97.6365 58.8379 97.4878 58.5837 97.4381C58.4578 97.4135 58.3283 97.4139 58.2026 97.4393C58.0769 97.4647 57.9574 97.5146 57.851 97.5862C57.6361 97.7308 57.4874 97.9549 57.4377 98.2091C57.3205 98.8103 56.8883 99.0524 55.8568 99.4995C54.8465 99.9376 53.4627 100.538 53.1359 102.207C52.8092 103.876 53.8656 104.953 54.6365 105.739C55.4234 106.542 55.7324 106.929 55.6148 107.529C55.4973 108.13 55.0656 108.373 54.034 108.821Z"></path>
<path fill="#313131" d="M125.537 100.054C124.651 98.6014 123.145 98.5191 122.045 98.4594C120.922 98.398 120.433 98.3211 120.114 97.7976C119.794 97.2742 119.95 96.8053 120.409 95.7791C120.858 94.774 121.475 93.3963 120.589 91.9455C119.703 90.4947 118.197 90.4117 117.097 90.3519C115.975 90.2908 115.486 90.2141 115.166 89.6912C115.1 89.581 115.012 89.485 114.909 89.4087C114.805 89.3324 114.687 89.2774 114.562 89.2468C114.437 89.2162 114.308 89.2106 114.18 89.2303C114.053 89.25 113.931 89.2947 113.821 89.3617C113.712 89.4287 113.616 89.5168 113.54 89.6209C113.465 89.725 113.41 89.843 113.38 89.9682C113.35 90.0933 113.345 90.2232 113.366 90.3503C113.386 90.4773 113.432 90.5991 113.499 90.7086C114.385 92.1605 115.891 92.2424 116.991 92.3021C118.114 92.3631 118.603 92.44 118.922 92.9629C119.241 93.4857 119.086 93.9555 118.626 94.9814C118.177 95.9865 117.561 97.3633 118.447 98.815C119.332 100.267 120.839 100.349 121.939 100.409C123.062 100.471 123.551 100.548 123.87 101.071C124.189 101.595 124.034 102.065 123.575 103.091C123.126 104.097 122.51 105.474 123.396 106.926C123.532 107.145 123.749 107.302 124 107.362C124.251 107.422 124.516 107.381 124.736 107.246C124.956 107.112 125.114 106.896 125.176 106.645C125.237 106.394 125.197 106.129 125.064 105.908C124.744 105.385 124.899 104.915 125.358 103.888C125.808 102.883 126.424 101.506 125.537 100.054Z"></path>
<path fill="#313131" d="M116.548 101.248C116.222 99.5785 114.838 98.9785 113.827 98.5404C112.796 98.0932 112.364 97.8514 112.246 97.25C112.197 96.9958 112.048 96.7718 111.833 96.6272C111.618 96.4827 111.355 96.4294 111.101 96.4791C110.846 96.5288 110.622 96.6775 110.478 96.8924C110.333 97.1073 110.28 97.3708 110.33 97.625C110.656 99.2943 112.04 99.8943 113.051 100.332C114.082 100.78 114.514 101.022 114.631 101.623C114.749 102.224 114.44 102.61 113.653 103.413C112.882 104.199 111.826 105.276 112.153 106.945C112.479 108.614 113.863 109.215 114.873 109.654C115.905 110.101 116.337 110.343 116.455 110.945C116.499 111.167 116.618 111.367 116.793 111.511C116.967 111.655 117.186 111.734 117.413 111.734C117.476 111.734 117.539 111.728 117.601 111.716C117.727 111.691 117.847 111.642 117.954 111.571C118.061 111.5 118.152 111.409 118.224 111.303C118.296 111.196 118.345 111.077 118.371 110.951C118.396 110.825 118.397 110.696 118.372 110.57C118.046 108.9 116.662 108.3 115.651 107.862C114.62 107.414 114.188 107.172 114.069 106.57C113.951 105.969 114.261 105.583 115.047 104.78C115.819 103.994 116.875 102.917 116.548 101.248Z"></path>
<path fill="#313131" d="M101.433 124.57C100.401 124.122 99.9695 123.88 99.852 123.279C99.8022 123.025 99.6536 122.801 99.4387 122.657C99.2238 122.512 98.9602 122.459 98.7061 122.508C98.4519 122.558 98.2279 122.707 98.0833 122.922C97.9387 123.137 97.8854 123.4 97.9352 123.654C98.2617 125.324 99.6455 125.924 100.656 126.362C101.688 126.809 102.119 127.051 102.237 127.652C102.355 128.253 102.046 128.639 101.259 129.442C100.488 130.229 99.4316 131.305 99.758 132.974C99.8014 133.196 99.9206 133.397 100.095 133.541C100.27 133.684 100.489 133.763 100.715 133.764C100.778 133.764 100.842 133.758 100.904 133.746C101.03 133.721 101.149 133.672 101.256 133.601C101.363 133.53 101.455 133.439 101.527 133.332C101.598 133.226 101.648 133.106 101.673 132.981C101.699 132.855 101.699 132.725 101.675 132.599C101.557 131.999 101.866 131.612 102.653 130.809C103.424 130.023 104.48 128.946 104.153 127.277C103.827 125.608 102.443 125.008 101.433 124.57Z"></path>
<path fill="#313131" d="M68.4198 123.765C67.4614 123.177 67.0678 122.877 67.0358 122.265C67.0202 122.008 66.9036 121.767 66.7115 121.596C66.5194 121.424 66.2673 121.336 66.0101 121.349C65.7529 121.362 65.5114 121.477 65.3382 121.668C65.165 121.858 65.0742 122.11 65.0854 122.367C65.1741 124.066 66.46 124.854 67.3991 125.43C68.3575 126.017 68.751 126.317 68.7831 126.929C68.8151 127.541 68.4549 127.88 67.5629 128.564C66.6891 129.235 65.4926 130.152 65.5813 131.851C65.5943 132.1 65.7026 132.336 65.8839 132.508C66.0652 132.68 66.3057 132.776 66.5557 132.776C66.5729 132.776 66.5901 132.776 66.6075 132.775C66.8661 132.762 67.1088 132.646 67.2821 132.453C67.4554 132.261 67.5452 132.008 67.5317 131.749C67.4999 131.138 67.8598 130.798 68.7516 130.114C69.6254 129.444 70.8219 128.526 70.7335 126.827C70.645 125.129 69.3586 124.34 68.4198 123.765Z"></path>
<path fill="#313131" d="M108.457 125.601C107.426 125.154 106.994 124.912 106.876 124.311C106.827 124.056 106.678 123.832 106.463 123.688C106.248 123.543 105.985 123.49 105.73 123.54C105.476 123.589 105.252 123.738 105.108 123.953C104.963 124.168 104.91 124.431 104.96 124.686C105.286 126.355 106.67 126.955 107.68 127.393C108.712 127.84 109.144 128.082 109.262 128.683C109.381 129.285 109.071 129.671 108.284 130.473C107.513 131.26 106.457 132.337 106.783 134.006C106.827 134.228 106.946 134.428 107.121 134.572C107.295 134.716 107.514 134.795 107.74 134.795C107.804 134.795 107.867 134.789 107.929 134.777C108.055 134.752 108.175 134.703 108.281 134.632C108.388 134.561 108.48 134.47 108.552 134.364C108.623 134.257 108.673 134.138 108.699 134.012C108.724 133.886 108.725 133.757 108.7 133.631C108.583 133.03 108.891 132.644 109.678 131.841C110.449 131.054 111.505 129.978 111.179 128.309C110.852 126.64 109.467 126.039 108.457 125.601Z"></path>
<defs>
<clipPath id="clip0_956_672">
<rect fill="white" height="196" width="189"></rect>
</clipPath>
</defs>
</svg>
