<svg xmlns="http://www.w3.org/2000/svg" fill="none" viewBox="0 0 189 196" height="196" width="189">
<g clip-path="url(#clip0_719_491)">
<path fill="#018D43" d="M44.4909 14.6153C44.4909 14.6153 45.2034 14.1296 46.6109 13.3343C47.3093 12.9296 48.1735 12.4333 49.1859 11.8456C50.2159 11.2931 51.4188 10.6878 52.7557 9.99804C53.0943 9.82912 53.4294 9.6426 53.7927 9.48072C54.1525 9.31531 54.5229 9.14991 54.9003 8.97747C55.6587 8.6361 56.4489 8.27714 57.2778 7.9041C57.486 7.8126 57.6941 7.71758 57.9022 7.62256C58.1174 7.5381 58.3325 7.45012 58.5512 7.36214C58.9886 7.1897 59.4366 7.01374 59.8917 6.83425C60.8053 6.48233 61.74 6.0917 62.7242 5.73625C64.7101 5.08168 66.7984 4.30041 69.0701 3.70918C69.6344 3.55081 70.2059 3.38893 70.7844 3.22704C71.0736 3.1461 71.3629 3.06516 71.6557 2.98422C71.952 2.91735 72.2483 2.84697 72.5481 2.7801C73.7474 2.5056 74.975 2.22758 76.2237 1.94252C86.2839 -0.0634365 98.3654 -0.82711 110.941 1.19645C117.216 2.19591 123.59 3.85699 129.788 6.20431C135.986 8.5446 142 11.5923 147.591 15.2065C153.185 18.8172 158.36 23.0051 162.946 27.5625C167.535 32.1199 171.535 37.0468 174.875 42.0934C178.219 47.14 180.904 52.2992 182.974 57.3071C185.073 62.3079 186.463 67.1926 187.419 71.662C188.417 76.1279 188.777 80.2384 188.978 83.7541C188.999 85.5242 188.999 87.1501 188.95 88.6141C188.841 90.0887 188.71 91.4014 188.555 92.5451C188.513 92.8302 188.481 93.1047 188.431 93.3721C188.375 93.6361 188.319 93.8895 188.266 94.1358C188.153 94.6215 188.036 95.0649 187.916 95.4626C187.677 96.2579 187.423 96.8738 187.151 97.2996C186.611 98.1512 186.012 98.2498 185.341 97.5283C185.341 97.5283 185.292 96.7189 185.2 95.2549C185.179 94.8889 185.154 94.4842 185.13 94.0373C185.116 93.8155 185.109 93.5833 185.084 93.344C185.059 93.1047 185.031 92.8548 185.003 92.5944C184.893 91.5632 184.77 90.3878 184.632 89.0892C184.438 87.8012 184.223 86.39 183.997 84.8767C183.881 84.1201 183.698 83.3494 183.546 82.5505C183.387 81.7516 183.221 80.9316 183.052 80.0906C182.234 76.7578 181.317 73.1049 179.966 69.3991C179.366 67.5199 178.555 65.6723 177.828 63.7684C177.412 62.8358 176.995 61.8997 176.576 60.9565C176.364 60.4884 176.167 60.0098 175.941 59.5453L175.246 58.1587L174.554 56.7651C174.322 56.3006 174.103 55.8325 173.842 55.382C173.341 54.4741 172.84 53.5661 172.343 52.6617C172.103 52.2042 171.831 51.7643 171.563 51.3244C171.295 50.8845 171.031 50.4446 170.766 50.0047C170.501 49.5647 170.237 49.1248 169.976 48.6885C169.715 48.2521 169.419 47.8368 169.143 47.4145C168.59 46.5664 168.036 45.7253 167.493 44.8947C166.914 44.0853 166.343 43.2829 165.778 42.4911C165.496 42.0969 165.224 41.6922 164.939 41.3086C164.646 40.9286 164.357 40.552 164.067 40.1754C163.496 39.4188 162.935 38.6762 162.381 37.9478C161.803 37.2369 161.238 36.5436 160.685 35.8609C160.409 35.516 160.141 35.1746 159.873 34.8403C159.609 34.4989 159.319 34.1927 159.051 33.8725C157.958 32.6091 156.981 31.3457 155.986 30.2547C152.141 25.7501 147.58 21.425 141.7 17.304C141.333 17.0435 140.963 16.7831 140.589 16.5192C140.208 16.2658 139.816 16.0265 139.428 15.7766C138.642 15.2839 137.841 14.7807 137.026 14.2704C136.204 13.7671 135.336 13.3167 134.469 12.8275C133.594 12.3524 132.709 11.8351 131.77 11.4057C130.835 10.9588 129.88 10.5013 128.909 10.0368C127.929 9.58629 126.906 9.19214 125.872 8.75575C125.354 8.54108 124.828 8.32641 124.299 8.11173C123.759 7.9217 123.216 7.72814 122.666 7.53458C122.116 7.34102 121.558 7.14747 120.994 6.95039C120.43 6.75683 119.862 6.54568 119.276 6.38731C118.105 6.04947 116.909 5.70458 115.692 5.35618C114.465 5.03241 113.198 4.76495 111.907 4.46229C110.62 4.13852 109.283 3.94849 107.925 3.70214C107.244 3.58601 106.556 3.46283 105.861 3.35374C105.163 3.26927 104.454 3.18481 103.741 3.10035C98.0232 2.41762 91.7515 2.19943 84.947 2.78362C78.1497 3.36781 70.8302 4.76495 63.1792 7.30935C62.2268 7.63664 61.2779 8.00264 60.3114 8.35456C59.8282 8.53404 59.3449 8.71352 58.8581 8.893C58.3678 9.06545 57.8951 9.29068 57.4119 9.49127C56.4454 9.90302 55.4718 10.3218 54.4876 10.7406C53.5141 11.1805 52.5475 11.6732 51.5634 12.1448C51.0731 12.3841 50.5792 12.6269 50.0819 12.8662C49.5951 13.1231 49.1118 13.3941 48.6215 13.6616C47.6479 14.2035 46.6532 14.7314 45.669 15.3015C44.7025 15.8963 43.7219 16.4981 42.7377 17.1069C42.4908 17.2582 42.2439 17.4131 41.997 17.5644C41.7501 17.7192 41.5137 17.8917 41.2703 18.0536C40.7871 18.3844 40.3038 18.7152 39.8135 19.0495C39.8135 19.0495 39.4255 19.2994 38.8082 19.697C38.1803 20.0806 37.3584 20.6719 36.4589 21.3053C36.0074 21.6221 35.5382 21.9529 35.0656 22.2802C34.5964 22.611 34.1167 22.9312 33.6863 23.2726C32.8115 23.9377 32.0002 24.5395 31.4041 24.9583C30.2118 25.7994 29.8626 25.9155 31.5276 24.3459C31.9438 23.9553 32.487 23.4556 33.1749 22.8397C33.3477 22.6849 33.5276 22.523 33.7181 22.3541C33.9156 22.1922 34.1237 22.0268 34.3389 21.8508C34.7763 21.5024 35.249 21.1223 35.764 20.7071C36.2825 20.2988 36.8434 19.8554 37.4466 19.3768C38.0709 18.9298 38.7447 18.4512 39.4608 17.9374C39.8206 17.6805 40.1945 17.4166 40.579 17.1456C40.9634 16.8711 41.3585 16.5896 41.7853 16.3291C42.639 15.7942 43.5385 15.2206 44.4909 14.6153Z"></path>
<path fill="#018D43" d="M22.8574 34.6151C22.8574 34.6151 23.1043 34.3406 23.5735 33.8233C23.8098 33.5663 24.099 33.2461 24.4447 32.8695C24.8045 32.5071 25.2208 32.0918 25.6864 31.6237C26.1555 31.1557 26.6741 30.6383 27.242 30.0718C27.3831 29.931 27.5277 29.7867 27.6759 29.6389C27.8311 29.4981 27.9863 29.3538 28.1485 29.2095C28.4695 28.9174 28.8046 28.6148 29.1503 28.3016C29.8452 27.6787 30.5719 26.9959 31.3726 26.3097C32.1875 25.641 33.0481 24.9337 33.9512 24.1946C37.6127 21.2983 42.156 18.1169 47.493 15.2136C52.8194 12.3032 58.936 9.67429 65.5076 7.7352C72.0757 5.78906 79.0918 4.53622 86.0831 4.13503C93.0745 3.71272 100.034 4.1843 106.486 5.31749C112.941 6.45068 118.885 8.28068 123.971 10.4169C129.072 12.5389 133.284 15.0482 136.518 17.311C138.12 18.4759 139.224 19.3311 139.845 20.0173C140.48 20.6789 140.684 21.0696 140.526 21.2244C140.198 21.5447 138.448 20.8549 135.548 19.7217C135.189 19.5739 134.815 19.4155 134.42 19.2536C134.028 19.0882 133.605 18.9475 133.174 18.7785C132.31 18.4513 131.386 18.0923 130.405 17.7017C128.409 17.0154 126.204 16.1778 123.753 15.4669C118.878 13.9748 113.153 12.634 107.022 11.8773C100.898 11.1101 94.3726 10.9307 88.0479 11.4058C81.7197 11.8668 75.6031 12.9859 70.2167 14.4569C64.8233 15.9174 60.1706 17.7193 56.5797 19.2114C55.6837 19.595 54.8477 19.9434 54.0787 20.2566C53.3238 20.598 52.6395 20.9147 52.0222 21.1822C50.7911 21.7171 49.8387 22.0761 49.2567 22.2802C48.6641 22.4702 48.0292 22.6849 47.3519 22.9242C46.6782 23.1705 45.9445 23.4134 45.2107 23.7547C44.47 24.082 43.6834 24.4375 42.8579 24.8281C42.4488 25.0252 42.0114 25.2117 41.5916 25.444C41.1683 25.6762 40.738 25.912 40.2935 26.1548C36.7132 28.0728 32.6178 30.7932 28.2156 34.594C27.0797 35.5125 26.0215 36.5823 24.8716 37.6592C24.5858 37.9302 24.3001 38.2047 24.0109 38.4827C23.7287 38.7678 23.457 39.0634 23.1749 39.359C22.614 39.9537 22.0461 40.5591 21.4676 41.1749C20.875 41.7837 20.3317 42.4489 19.7674 43.1175C19.203 43.7897 18.6315 44.476 18.0495 45.1692C17.4886 45.8801 16.9454 46.6262 16.3775 47.3723C15.8237 48.1289 15.2205 48.875 14.6984 49.6915C14.1587 50.4974 13.612 51.3173 13.0546 52.1514C12.9171 52.359 12.776 52.5702 12.6384 52.7813C12.5079 52.9995 12.3809 53.2142 12.2504 53.4324C11.9894 53.8688 11.7283 54.3122 11.4638 54.7556C11.1992 55.2026 10.9347 55.6495 10.6701 56.1035C10.5361 56.3287 10.4055 56.5575 10.2715 56.7862C10.148 57.022 10.0246 57.2543 9.90112 57.4901C9.40727 58.4367 8.90638 59.3975 8.39843 60.3723C8.13387 60.858 7.91517 61.3647 7.68236 61.8715C7.44955 62.3783 7.21674 62.8921 6.98393 63.4059C6.75112 63.9232 6.51478 64.4441 6.27844 64.9684C6.05268 65.4963 5.85162 66.0383 5.63645 66.5802C5.22021 67.6677 4.76164 68.7622 4.36657 69.8954C3.98913 71.0356 3.60817 72.1899 3.22015 73.3618C3.22015 73.3618 3.1743 73.0803 3.28717 72.0667C3.34361 71.56 3.44591 70.8667 3.6117 69.9341C3.65403 69.7018 3.69636 69.4519 3.7528 69.188C3.81629 68.9276 3.88684 68.6496 3.95739 68.3575C4.10554 67.7697 4.27838 67.1187 4.47945 66.3902C5.27665 63.4833 6.67704 59.4257 9.35789 54.0447C9.70005 53.3761 10.0528 52.6828 10.4232 51.9614C10.7971 51.247 11.2345 50.5361 11.6648 49.783C12.1022 49.0369 12.5467 48.2626 13.0264 47.4743C13.5344 46.7036 14.0564 45.9048 14.5997 45.0848C14.8713 44.6766 15.1499 44.2578 15.4286 43.8355C15.7179 43.4167 16.0318 43.0084 16.3387 42.5861C16.963 41.745 17.605 40.8793 18.2682 39.9854C19.6897 38.2751 21.136 36.4169 22.8574 34.6151Z"></path>
<path fill="#018D43" d="M39.8372 176.968C41.7597 178.34 43.7562 179.519 45.6893 180.712C46.6734 181.279 47.6646 181.81 48.6382 182.349C49.1285 182.616 49.6082 182.887 50.0986 183.144C50.5924 183.387 51.0862 183.626 51.5765 183.865C52.5607 184.337 53.5237 184.83 54.4973 185.27C55.4814 185.688 56.455 186.107 57.4215 186.519C57.9083 186.716 58.3774 186.945 58.8678 187.117C59.3545 187.297 59.8378 187.476 60.3211 187.656C61.2876 188.008 62.2365 188.374 63.1889 188.697C70.8363 191.238 78.1558 192.635 84.9496 193.22C91.7505 193.804 98.0223 193.586 103.74 192.903C104.456 192.818 105.162 192.734 105.86 192.649C106.559 192.54 107.243 192.417 107.924 192.301C109.282 192.055 110.619 191.868 111.906 191.541C113.197 191.238 114.464 190.971 115.691 190.647C116.912 190.295 118.104 189.95 119.275 189.612C119.861 189.454 120.429 189.243 120.993 189.049C121.557 188.852 122.115 188.659 122.665 188.465C123.215 188.272 123.762 188.078 124.302 187.888C124.831 187.67 125.356 187.455 125.875 187.244C126.908 186.808 127.935 186.413 128.916 185.963C129.886 185.498 130.842 185.041 131.776 184.59C132.718 184.161 133.6 183.644 134.478 183.169C135.35 182.68 136.217 182.229 137.039 181.726C137.854 181.216 138.655 180.712 139.441 180.22C139.833 179.97 140.225 179.73 140.602 179.477C140.976 179.213 141.346 178.953 141.713 178.692C147.593 174.568 152.158 170.239 155.999 165.738C156.99 164.643 157.968 163.38 159.061 162.12C159.329 161.8 159.618 161.49 159.879 161.152C160.147 160.818 160.416 160.477 160.691 160.132C161.245 159.453 161.809 158.756 162.384 158.048C162.934 157.32 163.499 156.577 164.07 155.824C164.359 155.451 164.648 155.071 164.941 154.691C165.227 154.304 165.495 153.903 165.781 153.509C166.345 152.717 166.917 151.918 167.495 151.108C168.038 150.278 168.592 149.437 169.146 148.589C169.421 148.163 169.717 147.751 169.978 147.315C170.239 146.878 170.504 146.438 170.769 145.999C171.033 145.559 171.301 145.122 171.566 144.679C171.834 144.239 172.109 143.803 172.345 143.342C172.843 142.437 173.344 141.529 173.845 140.621C174.106 140.174 174.328 139.703 174.557 139.238L175.248 137.845L175.943 136.458C176.169 135.993 176.367 135.515 176.578 135.047C176.998 134.107 177.414 133.167 177.831 132.238C178.557 130.334 179.372 128.487 179.968 126.608C181.319 122.905 182.236 119.249 183.055 115.92C183.224 115.079 183.386 114.259 183.548 113.46C183.7 112.661 183.884 111.89 184 111.134C184.229 109.62 184.441 108.209 184.635 106.921C184.773 105.622 184.896 104.447 185.005 103.416C185.034 103.159 185.062 102.909 185.086 102.666C185.111 102.427 185.115 102.195 185.132 101.973C185.157 101.53 185.182 101.121 185.203 100.755C185.295 99.2914 185.344 98.4819 185.344 98.4819C186.011 97.764 186.614 97.859 187.154 98.7107C187.422 99.1365 187.679 99.7524 187.919 100.548C188.039 100.945 188.155 101.389 188.268 101.874C188.321 102.117 188.378 102.374 188.434 102.638C188.487 102.902 188.519 103.177 188.557 103.465C188.713 104.609 188.843 105.922 188.953 107.393C189.002 108.86 188.998 110.483 188.981 112.253C188.78 115.768 188.423 119.879 187.422 124.345C186.466 128.814 185.076 133.699 182.981 138.696C180.91 143.704 178.226 148.863 174.882 153.91C171.541 158.956 167.545 163.883 162.955 168.441C158.37 173.002 153.198 177.186 147.6 180.8C142.006 184.414 135.995 187.459 129.797 189.802C123.6 192.15 117.229 193.811 110.954 194.81C98.3786 196.834 86.2971 196.074 76.2369 194.068C74.9846 193.783 73.7571 193.501 72.5613 193.23C72.2614 193.16 71.9651 193.093 71.6688 193.026C71.376 192.945 71.0868 192.864 70.7975 192.783C70.219 192.621 69.6476 192.459 69.0832 192.301C66.8115 191.71 64.7268 190.932 62.7374 190.274C61.7532 189.922 60.8184 189.531 59.9048 189.18C59.4498 189 59.0018 188.824 58.5644 188.652C58.3457 188.564 58.127 188.479 57.9153 188.391C57.7037 188.296 57.4956 188.201 57.291 188.11C56.4656 187.737 55.6719 187.378 54.917 187.036C54.5396 186.864 54.1692 186.695 53.8094 186.533C53.4461 186.371 53.111 186.181 52.7723 186.016C51.4354 185.326 50.2326 184.721 49.2026 184.168C48.1902 183.584 47.326 183.084 46.6276 182.68C45.9326 182.271 45.3859 181.972 45.0367 181.743C44.6839 181.518 44.504 181.399 44.504 181.399C43.5516 180.793 42.6521 180.22 41.8055 179.681C41.3787 179.417 40.9801 179.139 40.5956 178.861C40.2111 178.587 39.8372 178.323 39.4774 178.069C38.7578 177.556 38.0876 177.077 37.4597 176.626C36.8566 176.148 36.2957 175.708 35.7772 175.296C35.2622 174.884 34.786 174.501 34.3521 174.152C34.1334 173.976 33.9288 173.808 33.7312 173.649C33.5408 173.48 33.3609 173.318 33.188 173.164C32.5002 172.548 31.9569 172.048 31.5407 171.657C29.8758 170.088 30.225 170.204 31.4208 171.045C32.0204 171.467 32.8282 172.069 33.7066 172.738C34.1369 173.079 34.6166 173.399 35.0893 173.73C35.5585 174.061 36.0311 174.392 36.4826 174.708C36.9342 175.025 37.3645 175.331 37.7596 175.609C38.1511 175.894 38.5286 176.113 38.8354 176.32C39.4492 176.714 39.8372 176.968 39.8372 176.968Z"></path>
<path fill="#018D43" d="M49.267 173.73C49.8491 173.934 50.8015 174.293 52.0361 174.828C52.6534 175.096 53.3377 175.412 54.0926 175.754C54.8616 176.067 55.7011 176.415 56.5935 176.799C60.1845 178.291 64.8371 180.093 70.2306 181.553C75.617 183.025 81.7371 184.144 88.0653 184.601C94.39 185.073 100.916 184.893 107.039 184.126C113.17 183.369 118.899 182.029 123.77 180.533C126.222 179.822 128.426 178.984 130.423 178.295C131.403 177.904 132.328 177.545 133.192 177.218C133.622 177.049 134.045 176.908 134.437 176.743C134.829 176.577 135.206 176.422 135.566 176.275C138.465 175.141 140.215 174.452 140.543 174.772C140.705 174.927 140.497 175.317 139.866 175.979C139.245 176.665 138.144 177.524 136.539 178.685C133.308 180.948 129.1 183.461 123.996 185.579C118.909 187.719 112.969 189.549 106.51 190.682C100.059 191.819 93.1025 192.291 86.1076 191.872C79.1127 191.471 72.0966 190.221 65.5285 188.275C58.9534 186.34 52.8403 183.711 47.5104 180.8C42.1734 177.897 37.6265 174.716 33.965 171.819C33.062 171.08 32.2013 170.373 31.3829 169.704C30.5787 169.021 29.8556 168.335 29.1571 167.712C28.8114 167.399 28.4763 167.096 28.1553 166.804C27.9931 166.657 27.8379 166.516 27.6827 166.375C27.5345 166.227 27.3899 166.083 27.2488 165.942C26.6809 165.376 26.1623 164.858 25.6932 164.39C25.2276 163.922 24.8113 163.507 24.4515 163.144C24.1094 162.768 23.8166 162.448 23.5802 162.191C23.1111 161.673 22.8642 161.399 22.8642 161.399C21.1428 159.593 19.693 157.739 18.275 156.025C17.6118 155.131 16.9698 154.265 16.3455 153.424C16.0386 153.002 15.7246 152.59 15.4354 152.175C15.1532 151.753 14.8781 151.334 14.6065 150.926C14.0668 150.102 13.5412 149.307 13.0332 148.533C12.55 147.744 12.109 146.97 11.6716 146.224C11.2413 145.474 10.8039 144.76 10.43 144.046C10.0631 143.328 9.70684 142.634 9.36468 141.962C6.6803 136.578 5.28344 132.524 4.48624 129.62C4.28518 128.892 4.11233 128.241 3.96418 127.653C3.8901 127.361 3.82308 127.083 3.75959 126.822C3.69962 126.562 3.66082 126.312 3.61496 126.076C3.44917 125.144 3.35041 124.454 3.29044 123.947C3.17403 122.934 3.22342 122.656 3.22342 122.656C3.61144 123.828 3.9924 124.982 4.36983 126.122C4.76843 127.255 5.22347 128.35 5.63971 129.437C5.85488 129.979 6.05595 130.521 6.28523 131.049C6.52157 131.573 6.75791 132.094 6.99072 132.608C7.22353 133.122 7.45634 133.636 7.68915 134.142C7.92196 134.649 8.14066 135.156 8.40522 135.642C8.91317 136.616 9.41407 137.577 9.90791 138.524C10.0314 138.76 10.1548 138.995 10.2783 139.228C10.4123 139.456 10.5464 139.685 10.6804 139.91C10.9485 140.361 11.2131 140.811 11.4741 141.258C11.7386 141.702 11.9997 142.142 12.2607 142.582C12.3912 142.8 12.5217 143.018 12.6523 143.233C12.7934 143.444 12.9309 143.651 13.0685 143.863C13.6258 144.697 14.1726 145.513 14.7123 146.322C15.2343 147.139 15.8375 147.885 16.3913 148.642C16.9593 149.391 17.499 150.134 18.0633 150.845C18.6454 151.538 19.2168 152.224 19.7812 152.896C20.3456 153.565 20.8888 154.23 21.4814 154.839C22.0599 155.455 22.6278 156.06 23.1887 156.655C23.4709 156.951 23.7425 157.246 24.0247 157.531C24.314 157.809 24.5997 158.084 24.8854 158.355C26.0353 159.432 27.0936 160.501 28.2294 161.42C32.6317 165.221 36.727 167.941 40.3074 169.859C40.7518 170.102 41.1857 170.338 41.6054 170.57C42.0252 170.799 42.4626 170.985 42.8718 171.186C43.7007 171.573 44.4838 171.932 45.2246 172.259C45.9548 172.601 46.6955 172.843 47.3658 173.09C48.0395 173.326 48.6709 173.54 49.267 173.73Z"></path>
<path fill="#018D43" d="M23.2698 45.2502C23.7636 44.8596 24.1375 44.6238 24.3986 44.5288C24.6702 44.4373 24.8254 44.483 24.8818 44.6414C24.9876 44.9511 24.7478 45.7535 24.2257 46.8655C23.9682 47.4216 23.6437 48.0621 23.2627 48.7624C22.9065 49.4768 22.5184 50.2686 22.0846 51.1027C21.8659 51.518 21.6401 51.9438 21.4073 52.3837C21.1674 52.8166 20.9664 53.2881 20.7371 53.7527C20.282 54.6817 19.8094 55.646 19.3261 56.6279C17.4636 60.5835 15.7987 64.9121 14.6381 68.2624C14.1126 69.9552 13.6681 71.3875 13.3577 72.3975C13.0896 73.4181 12.9309 74.0129 12.9309 74.0129C11.3224 80.1187 10.3805 86.2528 10.0207 91.9715C9.65388 97.6903 9.85494 102.983 10.2818 107.449C10.4123 108.565 10.5393 109.631 10.6557 110.641C10.7015 111.148 10.7968 111.637 10.8744 112.112C10.952 112.587 11.0296 113.048 11.1037 113.495C11.1777 113.942 11.2483 114.375 11.3153 114.79C11.3506 114.998 11.3823 115.202 11.4141 115.403C11.4564 115.6 11.4987 115.797 11.5411 115.987C11.7033 116.75 11.855 117.451 11.989 118.081C12.1266 118.711 12.2324 119.277 12.3524 119.763C12.4794 120.245 12.5887 120.657 12.6734 120.991C12.8462 121.656 12.9379 122.012 12.9379 122.012C12.9379 122.012 13.0931 122.606 13.3647 123.627C13.6787 124.637 14.1231 126.069 14.6452 127.759C15.8057 131.105 17.4742 135.434 19.3332 139.39C19.8129 140.371 20.2891 141.336 20.7441 142.265C20.9769 142.729 21.1745 143.201 21.4179 143.634C21.6507 144.074 21.8764 144.5 22.0951 144.915C22.529 145.745 22.917 146.537 23.2733 147.252C23.6507 147.952 23.9753 148.589 24.2328 149.145C24.7513 150.257 24.9947 151.059 24.8889 151.369C24.8324 151.527 24.6737 151.57 24.4021 151.482C24.1375 151.387 23.7671 151.151 23.2733 150.76C22.5502 150.187 21.7988 149.557 21.0228 148.877C20.2679 148.184 19.5272 147.417 18.7476 146.618C18.3631 146.213 17.961 145.809 17.58 145.376C17.2096 144.936 16.8322 144.485 16.4512 144.031C16.0738 143.57 15.6928 143.102 15.3048 142.627C15.1143 142.388 14.9133 142.152 14.7334 141.902C14.5535 141.652 14.3701 141.399 14.1902 141.146C13.4706 140.125 12.7122 139.083 12.0067 137.989C11.3224 136.884 10.638 135.747 9.95018 134.593C9.30466 133.421 8.69089 132.217 8.06653 131.007C7.74201 130.405 7.4704 129.782 7.19526 129.159L6.36631 127.283C4.2181 122.251 2.65192 116.993 1.62896 112.13C1.40673 110.905 1.19156 109.715 0.979914 108.561C0.93053 108.273 0.874091 107.988 0.831762 107.702C0.796487 107.417 0.761213 107.132 0.725939 106.854C0.65539 106.291 0.588369 105.742 0.521347 105.2C0.457854 104.658 0.39436 104.13 0.330866 103.617C0.302646 103.36 0.267372 103.103 0.246207 102.849C0.22857 102.596 0.210933 102.346 0.196823 102.1C0.133329 101.114 0.0733631 100.182 0.0204515 99.3126C-0.0218777 98.0457 0.0521985 96.7823 0.0945277 95.5154C0.161549 94.618 0.193296 93.6643 0.302646 92.6683C0.422579 91.6724 0.549567 90.6307 0.680082 89.5468C0.754158 89.0048 0.800015 88.4523 0.90231 87.8962C1.00108 87.3402 1.10337 86.7736 1.20567 86.2C1.31149 85.6263 1.41732 85.0457 1.52314 84.4544C1.57605 84.1588 1.63249 83.8632 1.68893 83.5676C1.74889 83.272 1.8265 82.9728 1.89705 82.6737C2.1863 81.4842 2.4826 80.263 2.78243 79.0243C3.12812 77.796 3.51967 76.5608 3.90063 75.315C3.99587 75.0053 4.09464 74.6921 4.18988 74.3789C4.2957 74.0692 4.41564 73.7595 4.52851 73.4498C4.7578 72.8339 4.98708 72.211 5.21636 71.5916C5.4527 70.9723 5.6714 70.3494 5.92538 69.7335C6.19346 69.1247 6.46155 68.5158 6.72963 67.907L7.54094 66.0876C7.67146 65.7849 7.81961 65.4858 7.97482 65.1937L8.42986 64.3104C8.73322 63.7262 9.0401 63.142 9.34346 62.5613L9.80203 61.6956C9.96077 61.4105 10.1336 61.1325 10.2959 60.8545C10.9661 59.7389 11.6257 58.6409 12.2995 57.5781C13.0155 56.5364 13.7316 55.5193 14.4371 54.5375C14.7792 54.0412 15.1637 53.5732 15.5376 53.1122C15.9115 52.6547 16.2819 52.2042 16.6488 51.7573C17.0192 51.3138 17.379 50.881 17.7458 50.4622C18.1303 50.0575 18.5113 49.6598 18.8852 49.2656C19.6436 48.4949 20.3561 47.7489 21.0969 47.0802C21.8376 46.4186 22.5643 45.8062 23.2698 45.2502Z"></path>
</g>
<path fill="#B5B5B5" d="M117.969 117.688L116.369 108.088C116.204 107.103 115.696 106.208 114.934 105.562C114.172 104.917 113.206 104.562 112.207 104.563C111.611 104.563 111.021 104.69 110.478 104.935C109.934 105.18 109.449 105.538 109.054 105.984L102.625 113.216C101.942 113.985 101.564 114.977 101.563 116.005C101.562 117.06 101.959 118.077 102.673 118.853C103.388 119.63 104.368 120.109 105.419 120.197L114.688 120.969L117.969 117.688Z"></path>
<path fill="#474747" d="M117.969 117.688L114.688 120.969L123.852 130.133C124.067 130.349 124.323 130.52 124.605 130.636C124.886 130.753 125.188 130.813 125.493 130.812C126.108 130.812 126.698 130.568 127.133 130.133C127.568 129.698 127.812 129.108 127.812 128.493C127.813 128.188 127.753 127.886 127.636 127.605C127.52 127.323 127.349 127.067 127.133 126.852L117.969 117.688Z"></path>
<path fill="#686868" d="M116.328 119.328L123.852 126.852C124.287 127.287 124.877 127.531 125.493 127.531C126.108 127.531 126.698 127.287 127.133 126.852L117.969 117.688L116.328 119.328Z"></path>
<path fill="#F4A93C" d="M103.75 100.188L104.844 91.0623C104.86 88.7454 104.328 86.4574 103.291 84.3854C102.254 82.3134 100.742 80.5161 98.8773 79.1405C99.999 78.5085 100.937 77.5958 101.6 76.4919C102.262 75.388 102.626 74.1308 102.656 72.8438C102.656 68.6153 98.7384 65.1875 93.9062 65.1875C89.0741 65.1875 85.1562 68.6153 85.1562 72.8438C85.1605 73.9918 85.4539 75.1203 86.0094 76.125H82.5936C78.632 76.125 74.8326 77.6988 72.0313 80.5C69.23 83.3013 67.6562 87.1007 67.6562 91.0623L68.75 100.188"></path>
<path fill="#F6B940" d="M100.469 80.5C99.9709 80.01 99.4391 79.5557 98.8773 79.1405C99.999 78.5085 100.937 77.5958 101.6 76.4919C102.262 75.388 102.626 74.1308 102.656 72.8438C102.656 69.1064 99.5938 65.9991 95.5469 65.3264C91.5 65.9991 88.4375 69.1064 88.4375 72.8438C88.4418 73.9918 88.7352 75.1203 89.2906 76.125H85.8748C81.9132 76.125 78.1138 77.6988 75.3125 80.5001C72.5113 83.3014 70.9375 87.1007 70.9375 91.0624L72.0312 100.188H103.75L104.844 91.0624C104.844 87.1007 103.27 83.3014 100.469 80.5Z"></path>
<path fill="#FBE1CA" d="M85.1562 85.9688C87.9965 88.0979 91.4503 89.2492 95 89.25H100.469V99.0817H101.562C102.433 99.0817 103.267 99.4274 103.883 100.043C104.498 100.658 104.844 101.493 104.844 102.363C104.844 103.233 104.498 104.068 103.883 104.683C103.267 105.299 102.433 105.644 101.562 105.644H100.469L99.4297 108.983C98.8103 110.974 97.6282 112.742 96.0259 114.076L95.665 114.377C93.0482 116.562 89.7345 117.737 86.3255 117.688H86.1636C82.6589 117.641 79.2762 116.394 76.5802 114.155C75.0369 112.87 73.8824 111.181 73.2464 109.277L72.0312 105.631H70.9375C70.0673 105.631 69.2327 105.285 68.6173 104.67C68.002 104.055 67.6562 103.22 67.6562 102.35C67.6562 101.48 68.002 100.645 68.6173 100.03C69.2327 99.4143 70.0673 99.0686 70.9375 99.0686H72.0312V90.3438H76.4062C78.1042 90.3432 79.7787 89.9477 81.2973 89.1884C82.816 88.429 84.1371 87.3268 85.1562 85.9688Z"></path>
<path fill="#2862BE" d="M62.1875 130.812V130.624C62.1866 128.646 62.9683 126.748 64.3619 125.344C65.0494 124.651 65.8673 124.101 66.7683 123.725C67.6693 123.35 68.6358 123.157 69.6119 123.156H75.6822C75.8922 123.156 76.1021 123.146 76.3111 123.125L77.0144 123.763C79.4274 126.176 82.7 127.531 86.1122 127.531C89.0343 127.531 91.8694 126.537 94.1513 124.712L96.12 123.125C96.3293 123.146 96.5396 123.156 96.75 123.156H102.891C103.868 123.157 104.834 123.35 105.735 123.725C106.636 124.101 107.454 124.651 108.141 125.344C109.534 126.748 110.314 128.647 110.312 130.624V130.812H62.1875Z"></path>
<path fill="#F4CAAB" d="M90.6258 117.083C89.2322 117.504 87.782 117.708 86.3263 117.688H86.1644C84.7102 117.666 83.2663 117.439 81.8758 117.013V117.047C81.8499 118.565 81.2695 120.021 80.2439 121.141C79.2184 122.26 77.8186 122.966 76.3086 123.125L77.0141 123.763C79.4274 126.176 82.7004 127.532 86.113 127.531C89.0351 127.531 91.8702 126.537 94.152 124.712L96.1208 123.125C94.6297 122.966 93.248 122.267 92.236 121.161C91.2239 120.054 90.6512 118.616 90.6258 117.117V117.083Z"></path>
<path fill="#939393" d="M102.428 113.479L105.162 116.266L106.724 114.734L103.859 111.818L102.621 113.211C102.547 113.295 102.494 113.39 102.428 113.479Z"></path>
<path fill="#939393" d="M105.496 109.981L108.437 112.984L109.999 111.453L106.952 108.343L105.496 109.981Z"></path>
<path fill="#939393" d="M109.053 105.984L108.586 106.509L111.718 109.703L113.28 108.172L110.243 105.07C109.794 105.301 109.391 105.61 109.053 105.984Z"></path>
<path fill="#FCE797" d="M121.25 94.7188L119.968 95.3597C118.987 95.8499 118.113 96.5286 117.394 97.357C116.676 98.1853 116.128 99.1472 115.781 100.188C115.435 99.1472 114.887 98.1853 114.168 97.357C113.45 96.5286 112.575 95.8499 111.594 95.3597L110.312 94.7188L111.594 94.0778C112.575 93.5876 113.45 92.9089 114.168 92.0805C114.887 91.2522 115.435 90.2903 115.781 89.25C116.128 90.2903 116.676 91.2522 117.394 92.0805C118.113 92.9089 118.987 93.5876 119.968 94.0778L121.25 94.7188Z"></path>
<path fill="#FCE797" d="M127.812 83.7812L126.531 84.4222C125.55 84.9124 124.675 85.5911 123.957 86.4195C123.238 87.2478 122.69 88.2097 122.344 89.25C121.997 88.2097 121.449 87.2478 120.731 86.4195C120.012 85.5911 119.138 84.9124 118.157 84.4222L116.875 83.7812L118.157 83.1403C119.138 82.6501 120.012 81.9714 120.731 81.143C121.449 80.3147 121.997 79.3528 122.344 78.3125C122.69 79.3528 123.238 80.3147 123.957 81.143C124.675 81.9714 125.55 82.6501 126.531 83.1403L127.812 83.7812Z"></path>
<path fill="#F4CAAB" d="M79.6875 100.187C79.1969 100.189 78.7109 100.093 78.2577 99.9053C77.8044 99.7175 77.393 99.4417 77.0472 99.0937L75.6329 97.6795L77.1795 96.1329L78.5937 97.5472C78.8905 97.8243 79.2814 97.9785 79.6875 97.9785C80.0935 97.9785 80.4845 97.8243 80.7812 97.5472L82.1954 96.1329L83.742 97.6795L82.3278 99.0937C81.982 99.4417 81.5705 99.7175 81.1173 99.9053C80.664 100.093 80.178 100.189 79.6875 100.187Z"></path>
<path fill="#F4CAAB" d="M92.8125 100.187C92.3219 100.189 91.8359 100.093 91.3827 99.9053C90.9294 99.7175 90.518 99.4417 90.1722 99.0937L88.7579 97.6795L90.3045 96.1329L91.7187 97.5472C92.0155 97.8243 92.4064 97.9785 92.8125 97.9785C93.2185 97.9785 93.6095 97.8243 93.9062 97.5472L95.3204 96.1329L96.867 97.6795L95.4528 99.0937C95.107 99.4417 94.6955 99.7175 94.2423 99.9053C93.789 100.093 93.303 100.189 92.8125 100.187Z"></path>
<path fill="#3279EA" d="M102.888 123.156H96.7492C96.5406 123.156 96.3322 123.146 96.1247 123.125L94.1559 124.712C91.683 126.69 88.5676 127.686 85.4058 127.511C82.2439 127.337 79.2576 126.002 77.018 123.763L76.3147 123.125C76.1057 123.146 75.8958 123.156 75.6858 123.156H69.61C68.6339 123.157 67.6675 123.35 66.7664 123.725C65.8654 124.101 65.0475 124.651 64.36 125.344C64.3316 125.372 64.3086 125.403 64.2812 125.431C65.4001 127.09 66.9093 128.448 68.6761 129.386C70.4429 130.324 72.4132 130.814 74.4137 130.812H110.312V130.624C110.313 128.646 109.531 126.748 108.137 125.344C107.45 124.651 106.632 124.101 105.731 123.726C104.831 123.35 103.864 123.157 102.888 123.156Z"></path>
<path fill="black" d="M63.2813 130.625C63.279 129.788 63.4421 128.959 63.7612 128.185C64.0803 127.411 64.549 126.707 65.1407 126.115C65.7247 125.523 66.4207 125.053 67.1882 124.733C67.9557 124.413 68.7792 124.249 69.6108 124.25H75.6811C75.7686 124.25 75.8539 124.24 75.9403 124.237L76.24 124.537C77.5336 125.837 79.0722 126.868 80.7667 127.569C82.4612 128.271 84.2781 128.63 86.1122 128.625C89.2821 128.62 92.3566 127.54 94.8338 125.563L96.4941 124.234C96.5794 124.234 96.6625 124.247 96.7478 124.247H102.889C103.721 124.244 104.545 124.407 105.313 124.726C106.081 125.046 106.778 125.515 107.363 126.106C107.955 126.7 108.424 127.405 108.742 128.18C109.061 128.956 109.223 129.787 109.219 130.625V130.812H111.406V130.625C111.409 129.503 111.191 128.391 110.763 127.354C110.335 126.316 109.707 125.373 108.915 124.578C108.128 123.78 107.19 123.146 106.155 122.714C105.121 122.282 104.01 122.061 102.889 122.062H96.75C95.5607 122.051 94.4135 121.62 93.51 120.847C92.6065 120.073 92.0044 119.006 91.8096 117.833C93.4669 117.224 95.0079 116.336 96.3661 115.208L96.7282 114.908C98.4914 113.439 99.7907 111.489 100.469 109.296L101.269 106.725H101.563C102.723 106.725 103.836 106.264 104.656 105.443C105.477 104.623 105.938 103.51 105.938 102.35C105.933 101.338 105.574 100.359 104.923 99.5848L105.93 91.1881C105.935 91.1464 105.937 91.1044 105.938 91.0623C105.943 88.9562 105.531 86.8699 104.725 84.9241C103.92 82.9783 102.736 81.2118 101.242 79.7267C101.063 79.5473 100.876 79.3712 100.677 79.1941C101.623 78.4257 102.389 77.4586 102.92 76.3611C103.452 75.2637 103.735 74.0629 103.75 72.8438C103.75 68.0192 99.3335 64.0938 93.9063 64.0938C88.4791 64.0938 84.0625 68.0192 84.0625 72.8438C84.0618 73.5843 84.1679 74.321 84.3775 75.0312H82.5936C78.3419 75.0312 74.2643 76.7202 71.2579 79.7266C68.2515 82.7331 66.5625 86.8106 66.5625 91.0623C66.5624 91.1058 66.5649 91.1493 66.5702 91.1925L67.5775 99.5892C66.9261 100.364 66.5669 101.342 66.5625 102.354C66.5625 103.515 67.0235 104.627 67.8439 105.448C68.6644 106.268 69.7772 106.729 70.9375 106.729H71.2427L72.2096 109.624C72.9091 111.722 74.1803 113.582 75.8802 114.996C77.3145 116.188 78.9421 117.125 80.6927 117.768C80.4959 118.959 79.8855 120.043 78.9689 120.828C78.0523 121.614 76.8881 122.051 75.6811 122.062H69.6108C68.4897 122.061 67.3795 122.282 66.345 122.714C65.3105 123.146 64.3723 123.78 63.5853 124.578C62.7927 125.373 62.1646 126.316 61.737 127.354C61.3095 128.391 61.0909 129.503 61.0938 130.625V130.812H63.2813V130.625ZM72.8046 81.2733C74.0871 79.9837 75.6126 78.9613 77.2929 78.2654C78.9732 77.5694 80.7749 77.2137 82.5936 77.2188H86.0094C86.1991 77.2189 86.3856 77.1696 86.5505 77.0759C86.7155 76.9822 86.8532 76.8471 86.9502 76.6841C87.0471 76.521 87.1 76.3355 87.1037 76.1459C87.1073 75.9562 87.0615 75.7688 86.9708 75.6022C86.5017 74.7582 86.2537 73.8093 86.25 72.8438C86.25 69.2245 89.6844 66.2812 93.9063 66.2812C98.1282 66.2812 101.563 69.2245 101.563 72.8438C101.53 73.942 101.213 75.013 100.644 75.9523C100.074 76.8916 99.2699 77.6671 98.3108 78.2031C98.1578 78.2957 98.0298 78.4245 97.938 78.5781C97.8463 78.7317 97.7937 78.9054 97.7847 79.0841C97.7757 79.2628 97.8107 79.4409 97.8866 79.6029C97.9625 79.7649 98.077 79.9058 98.22 80.0133C98.7412 80.3968 99.2343 80.8172 99.6955 81.2711C100.978 82.5466 101.996 84.0624 102.692 85.7318C103.387 87.4012 103.747 89.1914 103.75 91L102.886 98.2122C102.459 98.0674 102.013 97.9903 101.563 97.9836V89.25C101.563 88.9599 101.447 88.6817 101.242 88.4766C101.037 88.2715 100.759 88.1562 100.469 88.1562H95C91.6881 88.1484 88.4667 87.0746 85.8125 85.0938C85.6976 85.0076 85.5669 84.9449 85.4277 84.9092C85.2886 84.8736 85.1438 84.8657 85.0016 84.886C84.8594 84.9063 84.7226 84.9544 84.599 85.0276C84.4754 85.1008 84.3675 85.1976 84.2813 85.3125C83.3618 86.5323 82.1723 87.5226 80.806 88.2057C79.4397 88.8889 77.9338 89.2463 76.4063 89.25H72.0313C71.7412 89.25 71.463 89.3652 71.2579 89.5704C71.0528 89.7755 70.9375 90.0537 70.9375 90.3438V97.9891C70.4873 97.9951 70.0407 98.0715 69.6141 98.2155L68.75 91C68.7534 89.1918 69.1132 87.402 69.8089 85.733C70.5046 84.0639 71.5226 82.5485 72.8046 81.2733ZM74.2844 108.928L73.0692 105.285C72.9967 105.068 72.8574 104.878 72.6711 104.744C72.4848 104.61 72.2609 104.537 72.0313 104.537H70.9375C70.6392 104.556 70.3402 104.514 70.0589 104.413C69.7776 104.311 69.5201 104.154 69.3021 103.949C69.0842 103.745 68.9105 103.498 68.7918 103.223C68.673 102.949 68.6117 102.653 68.6117 102.354C68.6117 102.055 68.673 101.76 68.7918 101.485C68.9105 101.211 69.0842 100.964 69.3021 100.759C69.5201 100.555 69.7776 100.397 70.0589 100.296C70.3402 100.195 70.6392 100.152 70.9375 100.171H72.0313C72.3214 100.171 72.5996 100.056 72.8047 99.8507C73.0098 99.6456 73.125 99.3674 73.125 99.0773V91.4375H76.4063C78.0936 91.4334 79.7614 91.0767 81.3027 90.3901C82.844 89.7035 84.2248 88.7024 85.3564 87.4508C88.2217 89.3315 91.5727 90.3367 95 90.3438H99.375V99.0817C99.375 99.3718 99.4903 99.65 99.6954 99.8551C99.9005 100.06 100.179 100.175 100.469 100.175H101.563C101.861 100.157 102.16 100.199 102.441 100.3C102.722 100.401 102.98 100.559 103.198 100.764C103.416 100.968 103.59 101.215 103.708 101.49C103.827 101.764 103.888 102.06 103.888 102.359C103.888 102.658 103.827 102.953 103.708 103.228C103.59 103.502 103.416 103.749 103.198 103.954C102.98 104.158 102.722 104.316 102.441 104.417C102.16 104.518 101.861 104.561 101.563 104.542H100.469C100.236 104.541 100.009 104.616 99.821 104.753C99.6331 104.891 99.4941 105.085 99.4242 105.307L98.3852 108.647C97.8286 110.436 96.7647 112.026 95.3227 113.223L94.9607 113.524C92.5449 115.544 89.4856 116.633 86.3364 116.594H86.1789C82.9254 116.548 79.7855 115.39 77.2813 113.312C75.8938 112.158 74.8559 110.64 74.2844 108.928ZM82.8157 118.374C83.907 118.624 85.0213 118.76 86.1407 118.781H86.3091H86.5278C87.5889 118.777 88.6465 118.661 89.6833 118.436C89.9173 119.557 90.4114 120.609 91.1259 121.505C91.8404 122.4 92.7553 123.116 93.7969 123.594L93.4688 123.853C91.3798 125.522 88.7863 126.433 86.1122 126.438C83.333 126.443 80.6428 125.458 78.5249 123.658C79.612 123.187 80.5696 122.46 81.317 121.541C82.0643 120.621 82.5795 119.535 82.8189 118.374H82.8157Z"></path>
<path fill="black" d="M118.991 117.163L117.448 107.908C117.283 106.919 116.842 105.996 116.175 105.247C115.508 104.498 114.643 103.953 113.679 103.675C112.716 103.397 111.693 103.397 110.729 103.677C109.766 103.956 108.901 104.502 108.235 105.252L101.806 112.485C101.152 113.22 100.716 114.123 100.546 115.093C100.376 116.063 100.48 117.06 100.846 117.974C101.211 118.888 101.824 119.682 102.616 120.267C103.407 120.852 104.346 121.206 105.327 121.287L114.196 122.025L123.077 130.907C123.718 131.547 124.586 131.907 125.491 131.907C126.397 131.907 127.265 131.547 127.905 130.907C128.545 130.266 128.905 129.398 128.905 128.493C128.905 127.587 128.545 126.719 127.905 126.079L118.991 117.163ZM102.657 116.005C102.661 115.384 102.852 114.779 103.204 114.267L105.157 116.266L106.719 114.734L104.631 112.602L106.266 110.764L108.441 112.984L110.003 111.453L107.721 109.126L109.354 107.288L111.72 109.703L113.282 108.172L111.048 105.892C111.481 105.712 111.948 105.634 112.415 105.661C112.883 105.689 113.338 105.822 113.746 106.051C114.154 106.28 114.506 106.598 114.773 106.982C115.041 107.366 115.218 107.806 115.291 108.268L116.798 117.312L114.274 119.837L105.511 119.109C104.734 119.041 104.01 118.684 103.483 118.11C102.955 117.536 102.66 116.785 102.657 116.005ZM125.493 129.719C125.332 129.719 125.173 129.688 125.024 129.626C124.875 129.565 124.74 129.474 124.626 129.36L116.235 120.969L117.97 119.234L126.361 127.625C126.532 127.797 126.649 128.015 126.697 128.253C126.744 128.491 126.72 128.738 126.627 128.962C126.534 129.186 126.377 129.378 126.175 129.512C125.973 129.647 125.736 129.719 125.493 129.719Z"></path>
<path fill="black" d="M109.823 95.7032L111.103 96.3431C111.957 96.7669 112.719 97.356 113.343 98.0762C113.968 98.7964 114.444 99.6334 114.742 100.539C114.814 100.758 114.953 100.948 115.14 101.083C115.327 101.218 115.551 101.291 115.781 101.291C116.012 101.291 116.236 101.218 116.423 101.083C116.609 100.948 116.749 100.758 116.82 100.539C117.119 99.6334 117.595 98.7964 118.219 98.0762C118.844 97.356 119.605 96.7669 120.459 96.3431L121.74 95.7032C121.922 95.6125 122.075 95.4729 122.182 95.2999C122.289 95.127 122.346 94.9277 122.346 94.7243C122.346 94.521 122.289 94.3216 122.182 94.1487C122.075 93.9758 121.922 93.8361 121.74 93.7454L120.459 93.1056C119.605 92.6817 118.844 92.0926 118.219 91.3724C117.595 90.6522 117.119 89.8152 116.82 88.9099C116.749 88.6911 116.609 88.5006 116.423 88.3655C116.236 88.2304 116.012 88.1577 115.781 88.1577C115.551 88.1577 115.327 88.2304 115.14 88.3655C114.953 88.5006 114.814 88.6911 114.742 88.9099C114.444 89.8152 113.968 90.6522 113.343 91.3724C112.719 92.0926 111.957 92.6817 111.103 93.1056L109.823 93.7454C109.641 93.8361 109.488 93.9758 109.381 94.1487C109.273 94.3216 109.217 94.521 109.217 94.7243C109.217 94.9277 109.273 95.127 109.381 95.2999C109.488 95.4729 109.641 95.6125 109.823 95.7032ZM115.78 91.7581C116.565 92.9692 117.619 93.9825 118.86 94.7188C117.619 95.4552 116.565 96.4685 115.78 97.6796C114.996 96.4685 113.941 95.4552 112.7 94.7188C113.941 93.9825 114.996 92.9692 115.78 91.7581Z"></path>
<path fill="black" d="M128.301 82.8023L127.02 82.1625C126.166 81.7386 125.405 81.1495 124.78 80.4293C124.155 79.7091 123.68 78.8721 123.381 77.9668C123.309 77.748 123.17 77.5575 122.983 77.4224C122.797 77.2873 122.572 77.2146 122.342 77.2146C122.112 77.2146 121.887 77.2873 121.701 77.4224C121.514 77.5575 121.375 77.748 121.303 77.9668C121.004 78.8721 120.529 79.7091 119.904 80.4293C119.279 81.1495 118.518 81.7386 117.664 82.1625L116.383 82.8023C116.201 82.893 116.048 83.0327 115.941 83.2056C115.834 83.3785 115.777 83.5778 115.777 83.7812C115.777 83.9846 115.834 84.1839 115.941 84.3568C116.048 84.5297 116.201 84.6694 116.383 84.7601L117.664 85.4C118.518 85.8238 119.279 86.4129 119.904 87.1331C120.529 87.8533 121.004 88.6903 121.303 89.5956C121.375 89.8144 121.514 90.0049 121.701 90.14C121.887 90.2751 122.112 90.3478 122.342 90.3478C122.572 90.3478 122.797 90.2751 122.983 90.14C123.17 90.0049 123.309 89.8144 123.381 89.5956C123.68 88.6903 124.155 87.8533 124.78 87.1331C125.405 86.4129 126.166 85.8238 127.02 85.4L128.301 84.7601C128.483 84.6694 128.636 84.5297 128.743 84.3568C128.85 84.1839 128.907 83.9846 128.907 83.7812C128.907 83.5778 128.85 83.3785 128.743 83.2056C128.636 83.0327 128.483 82.893 128.301 82.8023ZM122.343 86.742C121.558 85.5308 120.504 84.5175 119.263 83.7812C120.504 83.0449 121.558 82.0316 122.343 80.8204C123.128 82.0316 124.182 83.0449 125.423 83.7812C124.182 84.5175 123.128 85.5308 122.343 86.742Z"></path>
<path fill="black" d="M80.7812 97.5472C80.4845 97.8243 80.0935 97.9785 79.6875 97.9785C79.2814 97.9785 78.8905 97.8243 78.5937 97.5472L77.1795 96.1329L75.6329 97.6795L77.0472 99.0937C77.7474 99.7939 78.6972 100.187 79.6875 100.187C80.6778 100.187 81.6275 99.7939 82.3278 99.0937L83.742 97.6795L82.1954 96.1329L80.7812 97.5472Z"></path>
<path fill="black" d="M92.8125 100.187C93.303 100.189 93.789 100.093 94.2423 99.9053C94.6955 99.7175 95.107 99.4417 95.4528 99.0937L96.867 97.6795L95.3204 96.1329L93.9062 97.5472C93.6095 97.8243 93.2185 97.9785 92.8125 97.9785C92.4064 97.9785 92.0155 97.8243 91.7187 97.5472L90.3045 96.1329L88.7579 97.6795L90.1722 99.0937C90.518 99.4417 90.9294 99.7175 91.3827 99.9053C91.8359 100.093 92.3219 100.189 92.8125 100.187Z"></path>
<defs>
<clipPath id="clip0_719_491">
<rect fill="white" height="196" width="189"></rect>
</clipPath>
</defs>
</svg>
