<svg xmlns="http://www.w3.org/2000/svg" fill="none" viewBox="0 0 189 196" height="196" width="189">
<g clip-path="url(#clip0_719_335)">
<path fill="#018D43" d="M44.4917 14.6153C44.4917 14.6153 45.2043 14.1296 46.6117 13.3343C47.3102 12.9296 48.1744 12.4333 49.1868 11.8456C50.2168 11.2931 51.4196 10.6878 52.7565 9.99804C53.0951 9.82912 53.4303 9.6426 53.7936 9.48072C54.1534 9.31531 54.5238 9.14991 54.9012 8.97747C55.6596 8.6361 56.4497 8.27714 57.2787 7.9041C57.4868 7.8126 57.6949 7.71758 57.903 7.62256C58.1182 7.5381 58.3334 7.45012 58.5521 7.36214C58.9895 7.1897 59.4375 7.01374 59.8925 6.83425C60.8061 6.48233 61.7409 6.0917 62.7251 5.73625C64.711 5.08168 66.7992 4.30041 69.0709 3.70918C69.6353 3.55081 70.2067 3.38893 70.7852 3.22704C71.0745 3.1461 71.3637 3.06516 71.6565 2.98422C71.9528 2.91735 72.2491 2.84697 72.549 2.7801C73.7483 2.5056 74.9758 2.22758 76.2245 1.94252C86.2848 -0.0634365 98.3663 -0.82711 110.942 1.19645C117.217 2.19591 123.591 3.85699 129.789 6.20431C135.986 8.5446 142.001 11.5923 147.592 15.2065C153.186 18.8172 158.361 23.0051 162.947 27.5625C167.536 32.1199 171.536 37.0468 174.876 42.0934C178.22 47.14 180.905 52.2992 182.975 57.3071C185.074 62.3079 186.464 67.1926 187.42 71.662C188.418 76.1279 188.778 80.2384 188.979 83.7541C189 85.5242 189 87.1501 188.951 88.6141C188.841 90.0887 188.711 91.4014 188.556 92.5451C188.513 92.8302 188.482 93.1047 188.432 93.3721C188.376 93.6361 188.319 93.8895 188.266 94.1358C188.154 94.6215 188.037 95.0649 187.917 95.4626C187.677 96.2579 187.423 96.8738 187.152 97.2996C186.612 98.1512 186.012 98.2498 185.342 97.5283C185.342 97.5283 185.293 96.7189 185.201 95.2549C185.18 94.8889 185.155 94.4842 185.131 94.0373C185.116 93.8155 185.109 93.5833 185.085 93.344C185.06 93.1047 185.032 92.8548 185.004 92.5944C184.894 91.5632 184.771 90.3878 184.633 89.0892C184.439 87.8012 184.224 86.39 183.998 84.8767C183.882 84.1201 183.698 83.3494 183.547 82.5505C183.388 81.7516 183.222 80.9316 183.053 80.0906C182.235 76.7578 181.317 73.1049 179.966 69.3991C179.367 67.5199 178.555 65.6723 177.829 63.7684C177.413 62.8358 176.996 61.8997 176.577 60.9565C176.365 60.4884 176.167 60.0098 175.942 59.5453L175.247 58.1587L174.555 56.7651C174.323 56.3006 174.104 55.8325 173.843 55.382C173.342 54.4741 172.841 53.5661 172.344 52.6617C172.104 52.2042 171.832 51.7643 171.564 51.3244C171.296 50.8845 171.031 50.4446 170.767 50.0047C170.502 49.5647 170.238 49.1248 169.977 48.6885C169.716 48.2521 169.419 47.8368 169.144 47.4145C168.59 46.5664 168.037 45.7253 167.493 44.8947C166.915 44.0853 166.343 43.2829 165.779 42.4911C165.497 42.0969 165.225 41.6922 164.94 41.3086C164.647 40.9286 164.358 40.552 164.068 40.1754C163.497 39.4188 162.936 38.6762 162.382 37.9478C161.804 37.2369 161.239 36.5436 160.685 35.8609C160.41 35.516 160.142 35.1746 159.874 34.8403C159.61 34.4989 159.32 34.1927 159.052 33.8725C157.959 32.6091 156.982 31.3457 155.987 30.2547C152.142 25.7501 147.581 21.425 141.701 17.304C141.334 17.0435 140.964 16.7831 140.59 16.5192C140.209 16.2658 139.817 16.0265 139.429 15.7766C138.643 15.2839 137.842 14.7807 137.027 14.2704C136.205 13.7671 135.337 13.3167 134.47 12.8275C133.595 12.3524 132.709 11.8351 131.771 11.4057C130.836 10.9588 129.88 10.5013 128.91 10.0368C127.93 9.58629 126.907 9.19214 125.873 8.75575C125.355 8.54108 124.829 8.32641 124.3 8.11173C123.76 7.9217 123.217 7.72814 122.667 7.53458C122.116 7.34102 121.559 7.14747 120.995 6.95039C120.43 6.75683 119.862 6.54568 119.277 6.38731C118.106 6.04947 116.91 5.70458 115.693 5.35618C114.465 5.03241 113.199 4.76495 111.908 4.46229C110.621 4.13852 109.284 3.94849 107.926 3.70214C107.245 3.58601 106.557 3.46283 105.862 3.35374C105.164 3.26927 104.455 3.18481 103.742 3.10035C98.0241 2.41762 91.7523 2.19943 84.9479 2.78362C78.1505 3.36781 70.8311 4.76495 63.1801 7.30935C62.2277 7.63664 61.2788 8.00264 60.3123 8.35456C59.829 8.53404 59.3458 8.71352 58.859 8.893C58.3687 9.06545 57.896 9.29068 57.4127 9.49127C56.4462 9.90302 55.4726 10.3218 54.4885 10.7406C53.5149 11.1805 52.5484 11.6732 51.5642 12.1448C51.0739 12.3841 50.5801 12.6269 50.0827 12.8662C49.5959 13.1231 49.1127 13.3941 48.6224 13.6616C47.6488 14.2035 46.6541 14.7314 45.6699 15.3015C44.7034 15.8963 43.7228 16.4981 42.7386 17.1069C42.4917 17.2582 42.2448 17.4131 41.9978 17.5644C41.7509 17.7192 41.5146 17.8917 41.2712 18.0536C40.7879 18.3844 40.3047 18.7152 39.8144 19.0495C39.8144 19.0495 39.4263 19.2994 38.809 19.697C38.1811 20.0806 37.3593 20.6719 36.4598 21.3053C36.0083 21.6221 35.5391 21.9529 35.0664 22.2802C34.5973 22.611 34.1175 22.9312 33.6872 23.2726C32.8124 23.9377 32.0011 24.5395 31.4049 24.9583C30.2127 25.7994 29.8635 25.9155 31.5284 24.3459C31.9446 23.9553 32.4879 23.4556 33.1757 22.8397C33.3486 22.6849 33.5285 22.523 33.7189 22.3541C33.9165 22.1922 34.1246 22.0268 34.3398 21.8508C34.7772 21.5024 35.2499 21.1223 35.7649 20.7071C36.2834 20.2988 36.8443 19.8554 37.4474 19.3768C38.0718 18.9298 38.7455 18.4512 39.4616 17.9374C39.8214 17.6805 40.1953 17.4166 40.5798 17.1456C40.9643 16.8711 41.3594 16.5896 41.7862 16.3291C42.6398 15.7942 43.5393 15.2206 44.4917 14.6153Z"></path>
<path fill="#018D43" d="M22.8584 34.6151C22.8584 34.6151 23.1053 34.3406 23.5744 33.8233C23.8108 33.5663 24.1 33.2461 24.4457 32.8695C24.8055 32.5071 25.2217 32.0918 25.6874 31.6237C26.1565 31.1557 26.6751 30.6383 27.243 30.0718C27.3841 29.931 27.5287 29.7867 27.6768 29.6389C27.832 29.4981 27.9873 29.3538 28.1495 29.2095C28.4705 28.9174 28.8056 28.6148 29.1513 28.3016C29.8462 27.6787 30.5729 26.9959 31.3736 26.3097C32.1884 25.641 33.0491 24.9337 33.9521 24.1946C37.6136 21.2983 42.157 18.1169 47.494 15.2136C52.8204 12.3032 58.937 9.67429 65.5086 7.7352C72.0767 5.78906 79.0927 4.53622 86.0841 4.13503C93.0755 3.71272 100.035 4.1843 106.487 5.31749C112.942 6.45068 118.886 8.28068 123.972 10.4169C129.073 12.5389 133.285 15.0482 136.519 17.311C138.121 18.4759 139.225 19.3311 139.846 20.0173C140.481 20.6789 140.685 21.0696 140.527 21.2244C140.199 21.5447 138.449 20.8549 135.549 19.7217C135.19 19.5739 134.816 19.4155 134.421 19.2536C134.029 19.0882 133.606 18.9475 133.175 18.7785C132.311 18.4513 131.387 18.0923 130.406 17.7017C128.41 17.0154 126.205 16.1778 123.754 15.4669C118.879 13.9748 113.154 12.634 107.023 11.8773C100.899 11.1101 94.3736 10.9307 88.0489 11.4058C81.7207 11.8668 75.6041 12.9859 70.2177 14.4569C64.8243 15.9174 60.1716 17.7193 56.5806 19.2114C55.6847 19.595 54.8487 19.9434 54.0797 20.2566C53.3248 20.598 52.6405 20.9147 52.0232 21.1822C50.7921 21.7171 49.8397 22.0761 49.2577 22.2802C48.6651 22.4702 48.0301 22.6849 47.3529 22.9242C46.6791 23.1705 45.9454 23.4134 45.2117 23.7547C44.471 24.082 43.6843 24.4375 42.8589 24.8281C42.4497 25.0252 42.0123 25.2117 41.5926 25.444C41.1693 25.6762 40.7389 25.912 40.2945 26.1548C36.7141 28.0728 32.6188 30.7932 28.2165 34.594C27.0807 35.5125 26.0225 36.5823 24.8725 37.6592C24.5868 37.9302 24.3011 38.2047 24.0118 38.4827C23.7296 38.7678 23.458 39.0634 23.1758 39.359C22.615 39.9537 22.0471 40.5591 21.4686 41.1749C20.8759 41.7837 20.3327 42.4489 19.7683 43.1175C19.2039 43.7897 18.6325 44.476 18.0505 45.1692C17.4896 45.8801 16.9464 46.6262 16.3785 47.3723C15.8247 48.1289 15.2215 48.875 14.6994 49.6915C14.1597 50.4974 13.613 51.3173 13.0556 52.1514C12.918 52.359 12.777 52.5702 12.6394 52.7813C12.5089 52.9995 12.3819 53.2142 12.2514 53.4324C11.9903 53.8688 11.7293 54.3122 11.4647 54.7556C11.2002 55.2026 10.9356 55.6495 10.6711 56.1035C10.537 56.3287 10.4065 56.5575 10.2725 56.7862C10.149 57.022 10.0256 57.2543 9.90209 57.4901C9.40825 58.4367 8.90736 59.3975 8.3994 60.3723C8.13485 60.858 7.91615 61.3647 7.68334 61.8715C7.45052 62.3783 7.21771 62.8921 6.9849 63.4059C6.75209 63.9232 6.51575 64.4441 6.27942 64.9684C6.05366 65.4963 5.8526 66.0383 5.63742 66.5802C5.22118 67.6677 4.76262 68.7622 4.36755 69.8954C3.99011 71.0356 3.60915 72.1899 3.22113 73.3618C3.22113 73.3618 3.17527 73.0803 3.28815 72.0667C3.34459 71.56 3.44688 70.8667 3.61267 69.9341C3.655 69.7018 3.69733 69.4519 3.75377 69.188C3.81727 68.9276 3.88781 68.6496 3.95836 68.3575C4.10652 67.7697 4.27936 67.1187 4.48042 66.3902C5.27762 63.4833 6.67802 59.4257 9.35887 54.0447C9.70103 53.3761 10.0538 52.6828 10.4242 51.9614C10.7981 51.247 11.2355 50.5361 11.6658 49.783C12.1032 49.0369 12.5477 48.2626 13.0274 47.4743C13.5354 46.7036 14.0574 45.9048 14.6006 45.0848C14.8722 44.6766 15.1509 44.2578 15.4296 43.8355C15.7188 43.4167 16.0328 43.0084 16.3397 42.5861C16.964 41.745 17.606 40.8793 18.2692 39.9854C19.6907 38.2751 21.137 36.4169 22.8584 34.6151Z"></path>
<path fill="#018D43" d="M39.8392 176.968C41.7616 178.34 43.7582 179.519 45.6912 180.712C46.6754 181.279 47.6666 181.81 48.6401 182.349C49.1305 182.616 49.6102 182.887 50.1005 183.144C50.5943 183.387 51.0882 183.626 51.5785 183.866C52.5627 184.337 53.5256 184.83 54.4992 185.27C55.4834 185.689 56.4569 186.107 57.4235 186.519C57.9102 186.716 58.3794 186.945 58.8697 187.117C59.3565 187.297 59.8398 187.476 60.323 187.656C61.2895 188.008 62.2384 188.374 63.1908 188.698C70.8383 191.238 78.1577 192.636 84.9516 193.22C91.7525 193.804 98.0242 193.586 103.742 192.903C104.458 192.819 105.164 192.734 105.862 192.65C106.561 192.541 107.245 192.417 107.926 192.301C109.284 192.055 110.621 191.868 111.908 191.541C113.199 191.238 114.466 190.971 115.693 190.647C116.914 190.295 118.106 189.95 119.277 189.613C119.863 189.454 120.431 189.243 120.995 189.049C121.559 188.852 122.117 188.659 122.667 188.465C123.217 188.272 123.764 188.078 124.304 187.888C124.833 187.67 125.358 187.455 125.877 187.244C126.91 186.808 127.937 186.414 128.918 185.963C129.888 185.499 130.844 185.041 131.778 184.591C132.72 184.161 133.602 183.644 134.48 183.169C135.352 182.68 136.219 182.229 137.041 181.726C137.856 181.216 138.657 180.712 139.443 180.22C139.835 179.97 140.226 179.731 140.604 179.477C140.978 179.213 141.348 178.953 141.715 178.692C147.595 174.568 152.16 170.239 156.001 165.738C156.992 164.644 157.969 163.38 159.063 162.12C159.331 161.8 159.62 161.49 159.881 161.153C160.149 160.818 160.418 160.477 160.693 160.132C161.246 159.453 161.811 158.756 162.386 158.049C162.936 157.32 163.501 156.578 164.072 155.824C164.361 155.451 164.65 155.071 164.943 154.691C165.229 154.304 165.497 153.903 165.783 153.509C166.347 152.717 166.919 151.918 167.497 151.109C168.04 150.278 168.594 149.437 169.148 148.589C169.423 148.163 169.719 147.751 169.98 147.315C170.241 146.879 170.506 146.439 170.771 145.999C171.035 145.559 171.303 145.122 171.568 144.679C171.836 144.239 172.111 143.803 172.347 143.342C172.845 142.437 173.346 141.529 173.846 140.621C174.108 140.174 174.33 139.703 174.559 139.238L175.25 137.845L175.945 136.458C176.171 135.994 176.369 135.515 176.58 135.047C177 134.107 177.416 133.168 177.832 132.239C178.559 130.335 179.374 128.487 179.97 126.608C181.321 122.906 182.238 119.249 183.057 115.92C183.226 115.079 183.388 114.259 183.55 113.46C183.702 112.661 183.886 111.89 184.002 111.134C184.231 109.62 184.443 108.209 184.637 106.921C184.774 105.623 184.898 104.447 185.007 103.416C185.035 103.159 185.064 102.909 185.088 102.666C185.113 102.427 185.117 102.195 185.134 101.973C185.159 101.53 185.184 101.121 185.205 100.755C185.297 99.2915 185.346 98.4821 185.346 98.4821C186.013 97.7641 186.616 97.8592 187.155 98.7108C187.424 99.1366 187.681 99.7525 187.921 100.548C188.041 100.946 188.157 101.389 188.27 101.875C188.323 102.117 188.38 102.374 188.436 102.638C188.489 102.902 188.521 103.177 188.559 103.465C188.715 104.609 188.845 105.922 188.954 107.393C189.004 108.86 189 110.483 188.983 112.253C188.782 115.769 188.425 119.879 187.424 124.345C186.468 128.814 185.078 133.699 182.983 138.696C180.912 143.704 178.228 148.863 174.884 153.91C171.543 158.957 167.546 163.883 162.957 168.441C158.372 173.002 153.2 177.186 147.602 180.8C142.008 184.415 135.997 187.459 129.799 189.803C123.602 192.15 117.231 193.811 110.956 194.81C98.3805 196.834 86.2991 196.074 76.2388 194.068C74.9866 193.783 73.759 193.501 72.5632 193.23C72.2634 193.16 71.9671 193.093 71.6708 193.026C71.378 192.945 71.0887 192.864 70.7995 192.783C70.221 192.621 69.6496 192.46 69.0852 192.301C66.8135 191.71 64.7288 190.932 62.7393 190.274C61.7551 189.922 60.8204 189.532 59.9068 189.18C59.4517 189 59.0037 188.824 58.5663 188.652C58.3476 188.564 58.1289 188.479 57.9173 188.391C57.7057 188.296 57.4975 188.201 57.2929 188.11C56.4675 187.737 55.6739 187.378 54.919 187.036C54.5415 186.864 54.1712 186.695 53.8114 186.533C53.448 186.371 53.1129 186.181 52.7743 186.016C51.4374 185.326 50.2345 184.721 49.2045 184.168C48.1922 183.584 47.3279 183.084 46.6295 182.68C45.9346 182.271 45.3878 181.972 45.0386 181.744C44.6859 181.518 44.506 181.399 44.506 181.399C43.5536 180.793 42.6541 180.22 41.8075 179.681C41.3807 179.417 40.9821 179.139 40.5976 178.861C40.2131 178.587 39.8392 178.323 39.4794 178.069C38.7598 177.556 38.0896 177.077 37.4617 176.627C36.8585 176.148 36.2976 175.708 35.7791 175.296C35.2641 174.885 34.7879 174.501 34.354 174.153C34.1353 173.977 33.9307 173.808 33.7332 173.649C33.5427 173.48 33.3628 173.318 33.19 173.164C32.5021 172.548 31.9589 172.048 31.5427 171.657C29.8777 170.088 30.2269 170.204 31.4227 171.045C32.0224 171.467 32.8302 172.069 33.7085 172.738C34.1389 173.079 34.6186 173.399 35.0913 173.73C35.5604 174.061 36.0331 174.392 36.4846 174.709C36.9361 175.025 37.3665 175.331 37.7615 175.609C38.1531 175.895 38.5305 176.113 38.8374 176.32C39.4512 176.715 39.8392 176.968 39.8392 176.968Z"></path>
<path fill="#018D43" d="M49.2679 173.73C49.8499 173.934 50.8023 174.293 52.0369 174.828C52.6542 175.096 53.3386 175.412 54.0934 175.754C54.8624 176.067 55.7019 176.415 56.5944 176.799C60.1853 178.291 64.838 180.093 70.2314 181.553C75.6178 183.025 81.7379 184.144 88.0662 184.601C94.3909 185.073 100.917 184.893 107.04 184.126C113.171 183.369 118.899 182.029 123.771 180.533C126.222 179.822 128.427 178.984 130.424 178.295C131.404 177.904 132.328 177.545 133.193 177.218C133.623 177.049 134.046 176.908 134.438 176.743C134.829 176.577 135.207 176.422 135.567 176.275C138.466 175.141 140.216 174.452 140.544 174.772C140.706 174.927 140.498 175.317 139.867 175.979C139.246 176.665 138.145 177.524 136.54 178.685C133.309 180.948 129.101 183.461 123.997 185.579C118.91 187.719 112.97 189.549 106.511 190.682C100.059 191.819 93.1033 192.291 86.1084 191.872C79.1135 191.471 72.0975 190.221 65.5294 188.275C58.9542 186.34 52.8412 183.711 47.5112 180.8C42.1742 177.897 37.6274 174.716 33.9659 171.819C33.0629 171.08 32.2022 170.373 31.3838 169.704C30.5795 169.021 29.8564 168.335 29.158 167.712C28.8123 167.399 28.4772 167.096 28.1562 166.804C27.9939 166.657 27.8387 166.516 27.6835 166.375C27.5354 166.227 27.3907 166.083 27.2496 165.942C26.6817 165.376 26.1632 164.858 25.694 164.39C25.2284 163.922 24.8122 163.507 24.4524 163.144C24.1102 162.768 23.8174 162.448 23.5811 162.191C23.112 161.673 22.865 161.399 22.865 161.399C21.1436 159.593 19.6939 157.739 18.2758 156.025C17.6127 155.131 16.9707 154.265 16.3463 153.424C16.0394 153.002 15.7255 152.59 15.4363 152.175C15.1541 151.753 14.8789 151.334 14.6073 150.926C14.0676 150.102 13.542 149.307 13.0341 148.533C12.5508 147.744 12.1099 146.97 11.6725 146.224C11.2421 145.474 10.8047 144.76 10.4308 144.046C10.064 143.328 9.7077 142.634 9.36554 141.962C6.68116 136.578 5.28429 132.524 4.48709 129.62C4.28603 128.892 4.11319 128.241 3.96503 127.653C3.89096 127.361 3.82394 127.083 3.76044 126.822C3.70048 126.562 3.66167 126.312 3.61582 126.076C3.45003 125.144 3.35126 124.454 3.29129 123.947C3.17489 122.934 3.22427 122.656 3.22427 122.656C3.61229 123.828 3.99325 124.982 4.37069 126.122C4.76929 127.255 5.22433 128.35 5.64057 129.437C5.85574 129.979 6.0568 130.521 6.28609 131.049C6.52242 131.573 6.75876 132.094 6.99157 132.608C7.22438 133.122 7.4572 133.636 7.69001 134.142C7.92282 134.649 8.14152 135.156 8.40608 135.642C8.91403 136.616 9.41492 137.577 9.90876 138.524C10.0322 138.76 10.1557 138.995 10.2791 139.228C10.4132 139.456 10.5472 139.685 10.6813 139.91C10.9494 140.361 11.2139 140.811 11.4749 141.258C11.7395 141.702 12.0005 142.142 12.2616 142.582C12.3921 142.8 12.5226 143.018 12.6531 143.233C12.7942 143.444 12.9318 143.651 13.0693 143.863C13.6267 144.697 14.1734 145.513 14.7131 146.322C15.2352 147.139 15.8384 147.885 16.3922 148.642C16.9601 149.391 17.4998 150.134 18.0642 150.845C18.6462 151.538 19.2177 152.224 19.7821 152.896C20.3464 153.565 20.8897 154.23 21.4823 154.839C22.0608 155.455 22.6287 156.06 23.1896 156.655C23.4718 156.951 23.7434 157.246 24.0256 157.531C24.3148 157.809 24.6005 158.084 24.8863 158.355C26.0362 159.432 27.0944 160.501 28.2303 161.42C32.6325 165.221 36.7279 167.941 40.3082 169.859C40.7527 170.102 41.1865 170.338 41.6063 170.57C42.0261 170.799 42.4635 170.985 42.8727 171.186C43.7016 171.573 44.4847 171.932 45.2255 172.259C45.9556 172.601 46.6964 172.843 47.3666 173.09C48.0403 173.326 48.6718 173.54 49.2679 173.73Z"></path>
<path fill="#018D43" d="M23.2708 45.2502C23.7646 44.8596 24.1385 44.6238 24.3995 44.5288C24.6711 44.4373 24.8264 44.483 24.8828 44.6414C24.9886 44.9511 24.7488 45.7535 24.2267 46.8655C23.9692 47.4216 23.6447 48.0621 23.2637 48.7624C22.9074 49.4768 22.5194 50.2686 22.0855 51.1027C21.8668 51.518 21.6411 51.9438 21.4083 52.3837C21.1684 52.8166 20.9673 53.2881 20.7381 53.7527C20.283 54.6817 19.8103 55.646 19.3271 56.6279C17.4646 60.5835 15.7996 64.9121 14.6391 68.2624C14.1135 69.9552 13.6691 71.3875 13.3587 72.3975C13.0906 73.4181 12.9318 74.0129 12.9318 74.0129C11.3233 80.1187 10.3815 86.2528 10.0217 91.9715C9.65485 97.6903 9.85592 102.983 10.2827 107.449C10.4133 108.565 10.5402 109.631 10.6566 110.641C10.7025 111.148 10.7977 111.637 10.8753 112.112C10.953 112.587 11.0306 113.048 11.1046 113.495C11.1787 113.942 11.2493 114.375 11.3163 114.79C11.3516 114.998 11.3833 115.202 11.415 115.403C11.4574 115.6 11.4997 115.797 11.542 115.987C11.7043 116.75 11.856 117.451 11.99 118.081C12.1276 118.711 12.2334 119.277 12.3533 119.763C12.4803 120.245 12.5897 120.657 12.6743 120.991C12.8472 121.656 12.9389 122.012 12.9389 122.012C12.9389 122.012 13.0941 122.606 13.3657 123.627C13.6797 124.637 14.1241 126.069 14.6462 127.759C15.8067 131.105 17.4752 135.434 19.3341 139.39C19.8139 140.371 20.2901 141.336 20.7451 142.265C20.9779 142.729 21.1755 143.201 21.4189 143.634C21.6517 144.074 21.8774 144.5 22.0961 144.915C22.53 145.745 22.918 146.537 23.2743 147.252C23.6517 147.952 23.9762 148.589 24.2337 149.145C24.7523 150.257 24.9957 151.059 24.8898 151.369C24.8334 151.527 24.6747 151.57 24.4031 151.482C24.1385 151.387 23.7681 151.151 23.2743 150.76C22.5512 150.187 21.7998 149.557 21.0238 148.877C20.2689 148.184 19.5281 147.417 18.7486 146.618C18.3641 146.213 17.962 145.809 17.581 145.376C17.2106 144.936 16.8332 144.485 16.4522 144.031C16.0748 143.57 15.6938 143.102 15.3058 142.627C15.1153 142.388 14.9143 142.152 14.7344 141.902C14.5545 141.652 14.371 141.399 14.1911 141.146C13.4715 140.125 12.7131 139.083 12.0077 137.989C11.3233 136.884 10.639 135.747 9.95116 134.593C9.30564 133.421 8.69187 132.217 8.06751 131.007C7.74298 130.405 7.47137 129.782 7.19623 129.159L6.36728 127.283C4.21908 122.251 2.6529 116.993 1.62994 112.13C1.40771 110.905 1.19254 109.715 0.980891 108.561C0.931506 108.273 0.875067 107.988 0.832738 107.702C0.797464 107.417 0.76219 107.132 0.726915 106.854C0.656366 106.291 0.589345 105.742 0.522324 105.2C0.45883 104.658 0.395336 104.13 0.331842 103.617C0.303623 103.36 0.268349 103.103 0.247184 102.849C0.229547 102.596 0.21191 102.346 0.1978 102.1C0.134306 101.114 0.0743396 100.182 0.0214281 99.3126C-0.0209011 98.0457 0.053175 96.7823 0.0955042 95.5154C0.162526 94.618 0.194272 93.6643 0.303623 92.6683C0.423556 91.6724 0.550543 90.6307 0.681059 89.5468C0.755135 89.0048 0.800991 88.4523 0.903287 87.8962C1.00206 87.3402 1.10435 86.7736 1.20665 86.2C1.31247 85.6263 1.41829 85.0457 1.52412 84.4544C1.57703 84.1588 1.63347 83.8632 1.68991 83.5676C1.74987 83.272 1.82748 82.9728 1.89802 82.6737C2.18727 81.4842 2.48358 80.263 2.78341 79.0243C3.1291 77.796 3.52064 76.5608 3.90161 75.315C3.99685 75.0053 4.09562 74.6921 4.19086 74.3789C4.29668 74.0692 4.41661 73.7595 4.52949 73.4498C4.75877 72.8339 4.98806 72.211 5.21734 71.5916C5.45368 70.9723 5.67238 70.3494 5.92635 69.7335C6.19444 69.1247 6.46253 68.5158 6.73061 67.907L7.54192 66.0876C7.67244 65.7849 7.82059 65.4858 7.9758 65.1937L8.43083 64.3104C8.73419 63.7262 9.04108 63.142 9.34444 62.5613L9.80301 61.6956C9.96174 61.4105 10.1346 61.1325 10.2968 60.8545C10.9671 59.7389 11.6267 58.6409 12.3004 57.5781C13.0165 56.5364 13.7326 55.5193 14.4381 54.5375C14.7802 54.0412 15.1647 53.5732 15.5386 53.1122C15.9125 52.6547 16.2829 52.2042 16.6498 51.7573C17.0201 51.3138 17.3799 50.881 17.7468 50.4622C18.1313 50.0575 18.5122 49.6598 18.8862 49.2656C19.6446 48.4949 20.3571 47.7489 21.0979 47.0802C21.8386 46.4186 22.5653 45.8062 23.2708 45.2502Z"></path>
</g>
<path fill="#662814" d="M79.2884 111.608C77.9133 113.089 76.0219 114.105 74.2114 114.475C72.7207 114.504 72.1094 114.359 70.9769 114.262C66.5328 113.883 64.443 110.962 64.2016 106.706C64.1243 105.344 64.387 104.047 64.9152 102.886C65.3482 101.935 65.157 100.829 64.3951 100.089C62.5886 98.3341 61.4736 95.9284 61.4736 93.2731C61.4736 90.4897 62.6983 87.98 64.6606 86.2076C65.3437 85.5907 65.6367 84.6679 65.4063 83.7974C65.2316 83.1373 65.1384 82.4463 65.1384 81.7343C65.1384 78.7861 66.724 76.1926 69.1246 74.6868C69.6986 74.3268 70.0918 73.765 70.2433 73.1254C71.1326 69.3698 73.1671 66.6097 77.368 66.6097C77.4345 66.6097 77.5009 66.6104 77.5671 66.6119C77.6079 66.6127 77.6373 66.5827 77.6948 66.5666C78.3787 66.5495 79.0253 66.2678 79.5085 65.7997C81.2925 64.072 83.7708 63 86.5123 63C88.5077 63 90.3633 63.5682 91.9137 64.5435C92.0218 64.6116 92.1345 64.6706 92.2499 64.7217C92.4679 65.1941 92.9524 65.3649 93.3562 65.3538C93.7083 65.3441 94.2518 65.1351 94.4612 64.7234C94.5776 64.672 94.6898 64.6121 94.7986 64.5435C96.3491 63.5682 98.2047 63 100.2 63C102.942 63 105.42 64.072 107.204 65.7999C107.716 66.2957 108.411 66.583 109.14 66.5675C109.206 66.5661 109.273 66.5654 109.339 66.5654C113.54 66.5654 117.054 69.3699 117.944 73.1254C118.095 73.765 118.488 74.3268 119.062 74.6868C121.463 76.1926 123.049 78.7861 123.049 81.7343C123.049 82.4463 122.955 83.1373 122.781 83.7974C122.55 84.668 122.843 85.5907 123.526 86.2076C125.489 87.98 126.713 90.4897 126.713 93.2731C126.713 96.5946 125.281 100.606 120.415 103L116.776 104.479L79.2884 111.608Z"></path>
<path fill="#662814" d="M68.0881 81.0608C68.0881 81.7876 68.181 82.4932 68.3565 83.1665C68.5865 84.0552 68.2931 84.996 67.6103 85.6256C65.6477 87.4341 64.4237 89.9961 64.4237 92.8355C64.4237 95.5454 65.5385 98.0003 67.3449 99.7905C68.1058 100.545 68.2975 101.674 67.8639 102.645C67.336 103.83 67.0736 105.153 67.1517 106.543C67.3714 110.516 70.3129 113.671 74.2117 114.475C73.1368 114.689 72.0001 114.738 70.8809 114.643C66.438 114.264 62.9683 110.962 62.728 106.706C62.6498 105.344 62.9123 104.047 63.4402 102.886C63.8737 101.934 63.682 100.828 62.9211 100.089C61.1148 98.334 60 95.9284 60 93.2734C60 90.4903 61.2239 87.9804 63.1866 86.2072C63.8693 85.5903 64.1627 84.6677 63.9327 83.7973C63.7572 83.1367 63.6643 82.4466 63.6643 81.7339C63.6643 78.786 65.2495 76.193 67.6501 74.6874C68.2237 74.3268 68.6175 73.7649 68.7693 73.1254C69.6585 69.3705 73.1724 66.5648 77.3735 66.5648C77.4399 66.5648 77.5062 66.5662 77.5726 66.5676C77.6139 66.569 77.6537 66.5696 77.695 66.5668C75.4448 67.7203 73.7682 69.7944 73.1931 72.2761C73.0412 72.9282 72.6475 73.5015 72.0739 73.8691C69.6733 75.4059 68.0881 78.0523 68.0881 81.0608Z"></path>
<path fill="#876161" d="M70.0315 96.3806C67.847 86.4695 72.4585 76.4971 81.8284 72.1082C85.2132 70.5227 89.2592 70.7918 92.3381 72.8697C92.71 73.1207 93.0631 73.2819 93.357 73.2819C93.6165 73.2819 93.9237 73.1493 94.2491 72.9372C97.394 70.8872 101.42 70.4955 104.842 72.0902C114.241 76.4702 118.871 86.4542 116.683 96.3806L116.475 97.152L70.3671 97.7452L70.0315 96.3806Z"></path>
<path fill="#FDD0BF" d="M111.07 95.324H113.33C115.394 95.3602 117.133 96.7005 117.527 98.6179C117.584 98.8944 117.61 99.1962 117.607 99.4939C117.607 103.632 114.095 106.987 109.763 106.987H76.9384C72.6059 106.987 69.0938 103.632 69.0938 99.4939V99.4096C69.0938 99.1381 69.1216 98.8729 69.1744 98.6161C69.5612 96.7395 71.2931 95.324 73.3711 95.324H76.2453H111.07Z"></path>
<path fill="#FEDECF" d="M113.891 128.043L103.807 126.492C101.806 126.184 100.335 124.535 100.335 122.599L100.335 121.348L99.5451 119.45L99.5728 111.451H87.124L86.9019 123.348C86.9019 125.284 85.4305 126.934 83.4294 127.241L73.2455 128.425C70.5191 128.844 68.525 129.873 67.2361 132.176C67.0788 132.457 67.2941 132.798 67.6276 132.798L71.3285 133H119.862C120.196 133 120.411 132.66 120.254 132.379C118.965 130.076 116.618 128.462 113.891 128.043Z"></path>
<path fill="#FDD0BF" d="M100.335 111.451L100.335 121.348C97.7222 122.855 95.4118 123.597 93.3562 123.597C92.4889 123.597 91.5761 123.466 90.6146 123.2C90.0452 123.042 89.4751 123.442 89.4751 124.009V125.896C89.4751 127.555 88.2129 128.969 86.498 129.233L75.9178 130.859C74.1734 131.129 72.5853 131.885 71.3289 133H66.8506C66.5159 133 66.3021 132.659 66.4584 132.379C67.7472 130.076 70.0947 128.462 72.8212 128.043L82.9059 126.492C84.9069 126.185 86.3785 124.534 86.3785 122.599V111.451H100.335Z"></path>
<path fill="#FEDECF" d="M112.165 95.896C112.118 96.396 112.058 96.9763 111.996 97.3678C111.985 97.4326 111.975 97.4918 111.965 97.5439L110.674 104.341C109.921 108.313 107.812 111.936 104.673 114.64C101.268 117.571 96.7617 120.781 93.3569 120.781C89.9521 120.781 85.4457 117.571 82.0409 114.64C78.9015 111.936 76.7929 108.313 76.0394 104.341L74.7491 97.5439C74.7403 97.496 74.7299 97.4425 74.7211 97.3847C74.6577 96.9833 74.5987 96.3763 74.553 95.8636C74.4616 94.8185 74.4807 93.7636 74.6533 92.7284C76.0866 84.1663 85.1729 77.9297 93.3569 77.9297C101.541 77.9297 110.668 84.1241 112.077 92.7284C112.248 93.7748 112.264 94.8411 112.165 95.896Z"></path>
<path fill="#877587" d="M129.353 132.382C128.92 132.795 128.354 133 127.788 133C127.222 133 126.656 132.795 126.223 132.382L121.667 128.03L122.064 125.702L124.796 125.041L129.353 129.393C130.215 130.219 130.215 131.557 129.353 132.382Z"></path>
<path fill="#F8F6FA" d="M124.797 125.041L121.668 128.03L120.074 126.507L119.58 125.251L111.478 118.298C110.616 117.472 110.616 116.134 111.478 115.309C112.342 114.485 113.743 114.485 114.607 115.309L121.939 122.985L123.203 123.519L124.797 125.041Z"></path>
<path fill="#F3ECFB" d="M123.203 123.519C122.29 124.631 121.239 125.636 120.074 126.507L113.083 119.83L111.478 118.298C110.616 117.472 110.616 116.134 111.478 115.309C112.342 114.485 113.743 114.485 114.607 115.309L116.212 116.841L123.203 123.519Z"></path>
<path fill="#FDD0BF" d="M108.914 125.778C116.384 125.778 122.439 119.994 122.439 112.859C122.439 105.725 116.384 99.9409 108.914 99.9409C101.444 99.9409 95.3889 105.725 95.3889 112.859C95.3889 119.994 101.444 125.778 108.914 125.778Z"></path>
<path fill="#FCC1AC" d="M108.914 99.941C101.444 99.941 95.3889 105.724 95.3889 112.859C95.3889 119.995 101.444 125.778 108.914 125.778C116.384 125.778 122.439 119.995 122.439 112.859C122.439 105.724 116.384 99.941 108.914 99.941ZM108.914 120.888C104.279 120.888 100.509 117.286 100.509 112.859C100.509 108.433 104.279 104.831 108.914 104.831C113.548 104.831 117.319 108.433 117.319 112.859C117.319 117.286 113.548 120.888 108.914 120.888Z"></path>
<path fill="#877587" d="M108.913 98.0707C104.674 98.0707 100.842 99.6887 98.0457 102.325C97.8564 102.584 97.6833 102.758 97.4846 102.968C95.0036 105.591 94.0012 109.047 94.0012 112.859C94.0012 121.027 100.362 127.134 108.913 127.134C113.93 127.134 118.294 125.335 121.123 121.802C121.338 121.533 121.56 121.294 121.835 121.009C123.454 118.672 124.396 115.871 124.396 112.859C124.396 104.692 117.464 98.0707 108.913 98.0707ZM108.913 123.423C102.805 123.423 97.8537 118.693 97.8537 112.859C97.8537 107.026 102.805 102.296 108.913 102.296C115.021 102.296 119.972 107.026 119.972 112.859C119.972 118.693 115.021 123.423 108.913 123.423Z"></path>
<path fill="#766176" d="M121.835 121.009C119.064 125.01 114.311 127.648 108.913 127.648C100.362 127.648 93.4297 121.027 93.4297 112.859C93.4297 108.731 95.2007 104.999 98.0554 102.316C96.4364 104.652 95.4941 107.452 95.4941 110.465C95.4941 118.633 102.426 125.254 110.977 125.254C115.208 125.254 119.039 123.634 121.835 121.009Z"></path>
<path stroke-linejoin="round" stroke-linecap="round" stroke-miterlimit="10" stroke-width="2" stroke="black" d="M74.477 94.9016H73.5185C71.0752 94.9016 69.0947 96.7933 69.0947 99.127V99.494C69.0947 103.575 72.5097 106.893 76.7589 106.985"></path>
<path stroke-linejoin="round" stroke-linecap="round" stroke-miterlimit="10" stroke-width="2" stroke="black" d="M112.251 94.9016H113.185C115.628 94.9016 117.609 96.7933 117.609 99.127V99.494C117.609 99.8501 117.583 100.201 117.532 100.543"></path>
<path stroke-linejoin="round" stroke-linecap="round" stroke-miterlimit="10" stroke-width="2" stroke="black" d="M86.379 118.212V122.599C86.379 124.535 84.9076 126.185 82.9065 126.492L72.8224 128.043C69.857 128.499 67.3398 130.368 66.1455 133.001"></path>
<path stroke-linejoin="round" stroke-linecap="round" stroke-miterlimit="10" stroke-width="2" stroke="black" d="M110.736 127.557L113.892 128.043C116.858 128.499 119.375 130.368 120.569 133"></path>
<path stroke-linejoin="round" stroke-linecap="round" stroke-miterlimit="10" stroke-width="2" stroke="black" d="M90.5498 105.535C92.155 106.106 93.7603 106.144 95.3656 105.65"></path>
<path stroke-linejoin="round" stroke-linecap="round" stroke-miterlimit="10" stroke-width="2" stroke="black" d="M84.1523 80.3911C87.0413 78.8205 90.2633 77.9297 93.3564 77.9297C101.54 77.9297 110.669 84.1242 112.076 92.7279C112.248 93.7756 112.263 94.8406 112.164 95.8967C112.11 96.4777 112.036 97.1684 111.965 97.544L111.818 98.3146"></path>
<path stroke-linejoin="round" stroke-linecap="round" stroke-miterlimit="10" stroke-width="2" stroke="black" d="M95.5577 120.411C94.7909 120.648 94.0511 120.781 93.357 120.781C89.9518 120.781 85.4463 117.571 82.0415 114.639C78.9023 111.936 76.7935 108.313 76.0392 104.341L74.7487 97.5443C74.676 97.1616 74.6046 96.4514 74.5531 95.8636C74.4617 94.8181 74.4803 93.7642 74.6539 92.7283C75.267 89.0668 77.2795 85.8304 80.0227 83.3253"></path>
<path stroke-linejoin="round" stroke-linecap="round" stroke-miterlimit="10" stroke-width="2" stroke="black" d="M106.03 92.7185C103.348 91.9205 100.196 91.3102 97.1865 92.7185"></path>
<path stroke-linejoin="round" stroke-linecap="round" stroke-miterlimit="10" stroke-width="2" stroke="black" d="M80.6865 92.7185C83.3685 91.9205 86.5207 91.3102 89.5299 92.7185"></path>
<path stroke-linejoin="round" stroke-linecap="round" stroke-miterlimit="10" stroke-width="2" stroke="black" d="M93.3523 111.029C91.9573 112.014 89.9519 111.937 88.4639 111.233"></path>
<path stroke-linejoin="round" stroke-linecap="round" stroke-miterlimit="10" stroke-width="2" stroke="black" d="M81.9268 98.6802C83.9413 99.4078 85.9559 99.4078 87.9705 98.6802"></path>
<path stroke-linejoin="round" stroke-linecap="round" stroke-miterlimit="10" stroke-width="2" stroke="black" d="M103.214 99.1007C101.724 99.3585 100.234 99.2183 98.7444 98.6802"></path>
<path stroke-linejoin="round" stroke-linecap="round" stroke-miterlimit="10" stroke-width="2" stroke="black" d="M121.35 121.751L129.352 129.394C130.216 130.219 130.216 131.557 129.352 132.382C128.92 132.794 128.354 133.001 127.788 133.001C127.222 133.001 126.656 132.794 126.224 132.382L118.213 124.729"></path>
<path stroke-linejoin="round" stroke-linecap="round" stroke-miterlimit="10" stroke-width="2" stroke="black" d="M99.0062 124.225C95.599 121.512 93.4307 117.427 93.4307 112.859C93.4307 104.692 100.363 98.0706 108.914 98.0706C117.465 98.0706 124.397 104.692 124.397 112.859C124.397 121.027 117.465 127.648 108.914 127.648C106.969 127.648 105.108 127.306 103.393 126.681"></path>
<path stroke-linejoin="round" stroke-linecap="round" stroke-miterlimit="10" stroke-width="2" stroke="black" d="M108.914 123.423C115.022 123.423 119.973 118.693 119.973 112.859C119.973 107.025 115.022 102.296 108.914 102.296C102.806 102.296 97.8545 107.025 97.8545 112.859C97.8545 118.693 102.806 123.423 108.914 123.423Z"></path>
<path stroke-linejoin="round" stroke-linecap="round" stroke-miterlimit="10" stroke-width="2" stroke="black" d="M100.814 120.051L104.7 117.248C105.103 116.957 105.336 116.5 105.327 116.017L105.269 112.859"></path>
<path stroke-linejoin="round" stroke-linecap="round" stroke-miterlimit="10" stroke-width="2" stroke="black" d="M111.639 112.604L113.712 110.205C114.076 109.784 114.649 109.583 115.211 109.68L119.685 110.452"></path>
<path stroke-linejoin="round" stroke-linecap="round" stroke-miterlimit="10" stroke-width="2" stroke="black" d="M112.338 117.51L115.67 121.222"></path>
<path stroke-linejoin="round" stroke-linecap="round" stroke-miterlimit="10" stroke-width="2" stroke="black" d="M108.083 102.325L108.677 109.464"></path>
<path stroke-linejoin="round" stroke-linecap="round" stroke-miterlimit="10" stroke-width="2" stroke="black" d="M104.728 108.315L108.321 106.31"></path>
<path stroke-linejoin="round" stroke-linecap="round" stroke-miterlimit="10" stroke-width="2" stroke="black" d="M121.684 128.014L124.78 125.056"></path>
<path stroke-linejoin="round" stroke-linecap="round" stroke-miterlimit="10" stroke-width="2" stroke="black" d="M68.5547 114.153C69.2884 114.406 70.0686 114.573 70.8814 114.643C73.9014 114.901 76.9047 114.135 79.1047 111.765"></path>
<path stroke-linejoin="round" stroke-linecap="round" stroke-miterlimit="10" stroke-width="2" stroke="black" d="M126.664 92.2972C126.414 89.9061 125.257 87.7704 123.527 86.2077C122.844 85.5908 122.551 84.668 122.782 83.7976C122.956 83.1374 123.05 82.4465 123.05 81.7345C123.05 78.7863 121.464 76.1928 119.063 74.687C118.489 74.327 118.096 73.7651 117.945 73.1256C117.055 69.3699 113.541 66.5655 109.34 66.5655C109.274 66.5655 109.207 66.5662 109.141 66.5676C108.412 66.5831 107.717 66.2958 107.205 65.8C105.421 64.072 102.943 63 100.201 63C98.2057 63 96.3501 63.5682 94.7997 64.5435C93.9285 65.0916 92.786 65.0916 91.9148 64.5435C90.3643 63.5682 88.5087 63 86.5133 63C83.7717 63 81.2934 64.072 79.5093 65.7999C78.9975 66.2957 78.3021 66.583 77.5733 66.5675C77.5071 66.5661 77.4408 66.5654 77.3743 66.5654C73.1733 66.5654 69.6591 69.3699 68.7696 73.1254C68.6182 73.765 68.2249 74.3268 67.651 74.6868C65.2504 76.1926 63.6648 78.7861 63.6648 81.7343C63.6648 82.4463 63.758 83.1373 63.9327 83.7974C64.163 84.668 63.87 85.5907 63.187 86.2076C61.2246 87.98 60 90.4897 60 93.2731C60 95.9284 61.1149 98.334 62.9214 100.089C63.6834 100.829 63.8748 101.935 63.4415 102.886C62.9133 104.047 62.6506 105.344 62.728 106.706C62.8254 108.423 63.4482 109.985 64.4484 111.262"></path>
<path stroke-linejoin="round" stroke-linecap="round" stroke-miterlimit="10" stroke-width="2" stroke="black" d="M120.416 103C123.483 101.491 125.186 99.3389 126.026 97.1224"></path>
<path stroke-linejoin="round" stroke-linecap="round" stroke-miterlimit="10" stroke-width="2" stroke="black" d="M93.3574 77.8241V64.969"></path>
<path stroke-linejoin="round" stroke-linecap="round" stroke-miterlimit="10" stroke-width="2" stroke="black" d="M70.0315 96.3806C67.847 86.4695 72.4585 76.4971 81.8284 72.1082C85.2132 70.5227 89.2592 70.7918 92.3381 72.8697C92.71 73.1207 93.0631 73.2819 93.357 73.2819C93.6165 73.2819 93.9237 73.1493 94.2491 72.9372C97.394 70.8872 101.42 70.4955 104.842 72.0902C114.241 76.4702 118.871 86.4542 116.683 96.3806"></path>
<defs>
<clipPath id="clip0_719_335">
<rect fill="white" height="196" width="189"></rect>
</clipPath>
</defs>
</svg>
