<svg xmlns="http://www.w3.org/2000/svg" fill="none" viewBox="0 0 189 196" height="196" width="189">
<g clip-path="url(#clip0_719_453)">
<path fill="#018D43" d="M44.4909 14.6153C44.4909 14.6153 45.2034 14.1296 46.6109 13.3343C47.3093 12.9296 48.1735 12.4333 49.1859 11.8456C50.2159 11.2931 51.4188 10.6878 52.7557 9.99804C53.0943 9.82912 53.4294 9.6426 53.7927 9.48072C54.1525 9.31531 54.5229 9.14991 54.9003 8.97747C55.6587 8.6361 56.4489 8.27714 57.2778 7.9041C57.486 7.8126 57.6941 7.71758 57.9022 7.62256C58.1174 7.5381 58.3325 7.45012 58.5512 7.36214C58.9886 7.1897 59.4366 7.01374 59.8917 6.83425C60.8053 6.48233 61.74 6.0917 62.7242 5.73625C64.7101 5.08168 66.7984 4.30041 69.0701 3.70918C69.6344 3.55081 70.2059 3.38893 70.7844 3.22704C71.0736 3.1461 71.3629 3.06516 71.6557 2.98422C71.952 2.91735 72.2483 2.84697 72.5481 2.7801C73.7474 2.5056 74.975 2.22758 76.2237 1.94252C86.2839 -0.0634365 98.3654 -0.82711 110.941 1.19645C117.216 2.19591 123.59 3.85699 129.788 6.20431C135.986 8.5446 142 11.5923 147.591 15.2065C153.185 18.8172 158.36 23.0051 162.946 27.5625C167.535 32.1199 171.535 37.0468 174.875 42.0934C178.219 47.14 180.904 52.2992 182.974 57.3071C185.073 62.3079 186.463 67.1926 187.419 71.662C188.417 76.1279 188.777 80.2384 188.978 83.7541C188.999 85.5242 188.999 87.1501 188.95 88.6141C188.841 90.0887 188.71 91.4014 188.555 92.5451C188.513 92.8302 188.481 93.1047 188.431 93.3721C188.375 93.6361 188.319 93.8895 188.266 94.1358C188.153 94.6215 188.036 95.0649 187.916 95.4626C187.677 96.2579 187.423 96.8738 187.151 97.2996C186.611 98.1512 186.012 98.2498 185.341 97.5283C185.341 97.5283 185.292 96.7189 185.2 95.2549C185.179 94.8889 185.154 94.4842 185.13 94.0373C185.116 93.8155 185.109 93.5833 185.084 93.344C185.059 93.1047 185.031 92.8548 185.003 92.5944C184.893 91.5632 184.77 90.3878 184.632 89.0892C184.438 87.8012 184.223 86.39 183.997 84.8767C183.881 84.1201 183.698 83.3494 183.546 82.5505C183.387 81.7516 183.221 80.9316 183.052 80.0906C182.234 76.7578 181.317 73.1049 179.966 69.3991C179.366 67.5199 178.555 65.6723 177.828 63.7684C177.412 62.8358 176.995 61.8997 176.576 60.9565C176.364 60.4884 176.167 60.0098 175.941 59.5453L175.246 58.1587L174.554 56.7651C174.322 56.3006 174.103 55.8325 173.842 55.382C173.341 54.4741 172.84 53.5661 172.343 52.6617C172.103 52.2042 171.831 51.7643 171.563 51.3244C171.295 50.8845 171.031 50.4446 170.766 50.0047C170.501 49.5647 170.237 49.1248 169.976 48.6885C169.715 48.2521 169.419 47.8368 169.143 47.4145C168.59 46.5664 168.036 45.7253 167.493 44.8947C166.914 44.0853 166.343 43.2829 165.778 42.4911C165.496 42.0969 165.224 41.6922 164.939 41.3086C164.646 40.9286 164.357 40.552 164.067 40.1754C163.496 39.4188 162.935 38.6762 162.381 37.9478C161.803 37.2369 161.238 36.5436 160.685 35.8609C160.409 35.516 160.141 35.1746 159.873 34.8403C159.609 34.4989 159.319 34.1927 159.051 33.8725C157.958 32.6091 156.981 31.3457 155.986 30.2547C152.141 25.7501 147.58 21.425 141.7 17.304C141.333 17.0435 140.963 16.7831 140.589 16.5192C140.208 16.2658 139.816 16.0265 139.428 15.7766C138.642 15.2839 137.841 14.7807 137.026 14.2704C136.204 13.7671 135.336 13.3167 134.469 12.8275C133.594 12.3524 132.709 11.8351 131.77 11.4057C130.835 10.9588 129.88 10.5013 128.909 10.0368C127.929 9.58629 126.906 9.19214 125.872 8.75575C125.354 8.54108 124.828 8.32641 124.299 8.11173C123.759 7.9217 123.216 7.72814 122.666 7.53458C122.116 7.34102 121.558 7.14747 120.994 6.95039C120.43 6.75683 119.862 6.54568 119.276 6.38731C118.105 6.04947 116.909 5.70458 115.692 5.35618C114.465 5.03241 113.198 4.76495 111.907 4.46229C110.62 4.13852 109.283 3.94849 107.925 3.70214C107.244 3.58601 106.556 3.46283 105.861 3.35374C105.163 3.26927 104.454 3.18481 103.741 3.10035C98.0232 2.41762 91.7515 2.19943 84.947 2.78362C78.1497 3.36781 70.8302 4.76495 63.1792 7.30935C62.2268 7.63664 61.2779 8.00264 60.3114 8.35456C59.8282 8.53404 59.3449 8.71352 58.8581 8.893C58.3678 9.06545 57.8951 9.29068 57.4119 9.49127C56.4454 9.90302 55.4718 10.3218 54.4876 10.7406C53.5141 11.1805 52.5475 11.6732 51.5634 12.1448C51.0731 12.3841 50.5792 12.6269 50.0819 12.8662C49.5951 13.1231 49.1118 13.3941 48.6215 13.6616C47.6479 14.2035 46.6532 14.7314 45.669 15.3015C44.7025 15.8963 43.7219 16.4981 42.7377 17.1069C42.4908 17.2582 42.2439 17.4131 41.997 17.5644C41.7501 17.7192 41.5137 17.8917 41.2703 18.0536C40.7871 18.3844 40.3038 18.7152 39.8135 19.0495C39.8135 19.0495 39.4255 19.2994 38.8082 19.697C38.1803 20.0806 37.3584 20.6719 36.4589 21.3053C36.0074 21.6221 35.5382 21.9529 35.0656 22.2802C34.5964 22.611 34.1167 22.9312 33.6863 23.2726C32.8115 23.9377 32.0002 24.5395 31.4041 24.9583C30.2118 25.7994 29.8626 25.9155 31.5276 24.3459C31.9438 23.9553 32.487 23.4556 33.1749 22.8397C33.3477 22.6849 33.5276 22.523 33.7181 22.3541C33.9156 22.1922 34.1237 22.0268 34.3389 21.8508C34.7763 21.5024 35.249 21.1223 35.764 20.7071C36.2825 20.2988 36.8434 19.8554 37.4466 19.3768C38.0709 18.9298 38.7447 18.4512 39.4608 17.9374C39.8206 17.6805 40.1945 17.4166 40.579 17.1456C40.9634 16.8711 41.3585 16.5896 41.7853 16.3291C42.639 15.7942 43.5385 15.2206 44.4909 14.6153Z"></path>
<path fill="#018D43" d="M22.8574 34.6151C22.8574 34.6151 23.1043 34.3406 23.5735 33.8233C23.8098 33.5663 24.099 33.2461 24.4447 32.8695C24.8045 32.5071 25.2208 32.0918 25.6864 31.6237C26.1555 31.1557 26.6741 30.6383 27.242 30.0718C27.3831 29.931 27.5277 29.7867 27.6759 29.6389C27.8311 29.4981 27.9863 29.3538 28.1485 29.2095C28.4695 28.9174 28.8046 28.6148 29.1503 28.3016C29.8452 27.6787 30.5719 26.9959 31.3726 26.3097C32.1875 25.641 33.0481 24.9337 33.9512 24.1946C37.6127 21.2983 42.156 18.1169 47.493 15.2136C52.8194 12.3032 58.936 9.67429 65.5076 7.7352C72.0757 5.78906 79.0918 4.53622 86.0831 4.13503C93.0745 3.71272 100.034 4.1843 106.486 5.31749C112.941 6.45068 118.885 8.28068 123.971 10.4169C129.072 12.5389 133.284 15.0482 136.518 17.311C138.12 18.4759 139.224 19.3311 139.845 20.0173C140.48 20.6789 140.684 21.0696 140.526 21.2244C140.198 21.5447 138.448 20.8549 135.548 19.7217C135.189 19.5739 134.815 19.4155 134.42 19.2536C134.028 19.0882 133.605 18.9475 133.174 18.7785C132.31 18.4513 131.386 18.0923 130.405 17.7017C128.409 17.0154 126.204 16.1778 123.753 15.4669C118.878 13.9748 113.153 12.634 107.022 11.8773C100.898 11.1101 94.3726 10.9307 88.0479 11.4058C81.7197 11.8668 75.6031 12.9859 70.2167 14.4569C64.8233 15.9174 60.1706 17.7193 56.5797 19.2114C55.6837 19.595 54.8477 19.9434 54.0787 20.2566C53.3238 20.598 52.6395 20.9147 52.0222 21.1822C50.7911 21.7171 49.8387 22.0761 49.2567 22.2802C48.6641 22.4702 48.0292 22.6849 47.3519 22.9242C46.6782 23.1705 45.9445 23.4134 45.2107 23.7547C44.47 24.082 43.6834 24.4375 42.8579 24.8281C42.4488 25.0252 42.0114 25.2117 41.5916 25.444C41.1683 25.6762 40.738 25.912 40.2935 26.1548C36.7132 28.0728 32.6178 30.7932 28.2156 34.594C27.0797 35.5125 26.0215 36.5823 24.8716 37.6592C24.5858 37.9302 24.3001 38.2047 24.0109 38.4827C23.7287 38.7678 23.457 39.0634 23.1749 39.359C22.614 39.9537 22.0461 40.5591 21.4676 41.1749C20.875 41.7837 20.3317 42.4489 19.7674 43.1175C19.203 43.7897 18.6315 44.476 18.0495 45.1692C17.4886 45.8801 16.9454 46.6262 16.3775 47.3723C15.8237 48.1289 15.2205 48.875 14.6984 49.6915C14.1587 50.4974 13.612 51.3173 13.0546 52.1514C12.9171 52.359 12.776 52.5702 12.6384 52.7813C12.5079 52.9995 12.3809 53.2142 12.2504 53.4324C11.9894 53.8688 11.7283 54.3122 11.4638 54.7556C11.1992 55.2026 10.9347 55.6495 10.6701 56.1035C10.5361 56.3287 10.4055 56.5575 10.2715 56.7862C10.148 57.022 10.0246 57.2543 9.90112 57.4901C9.40727 58.4367 8.90638 59.3975 8.39843 60.3723C8.13387 60.858 7.91517 61.3647 7.68236 61.8715C7.44955 62.3783 7.21674 62.8921 6.98393 63.4059C6.75112 63.9232 6.51478 64.4441 6.27844 64.9684C6.05268 65.4963 5.85162 66.0383 5.63645 66.5802C5.22021 67.6677 4.76164 68.7622 4.36657 69.8954C3.98913 71.0356 3.60817 72.1899 3.22015 73.3618C3.22015 73.3618 3.1743 73.0803 3.28717 72.0667C3.34361 71.56 3.44591 70.8667 3.6117 69.9341C3.65403 69.7018 3.69636 69.4519 3.7528 69.188C3.81629 68.9276 3.88684 68.6496 3.95739 68.3575C4.10554 67.7697 4.27838 67.1187 4.47945 66.3902C5.27665 63.4833 6.67704 59.4257 9.35789 54.0447C9.70005 53.3761 10.0528 52.6828 10.4232 51.9614C10.7971 51.247 11.2345 50.5361 11.6648 49.783C12.1022 49.0369 12.5467 48.2626 13.0264 47.4743C13.5344 46.7036 14.0564 45.9048 14.5997 45.0848C14.8713 44.6766 15.1499 44.2578 15.4286 43.8355C15.7179 43.4167 16.0318 43.0084 16.3387 42.5861C16.963 41.745 17.605 40.8793 18.2682 39.9854C19.6897 38.2751 21.136 36.4169 22.8574 34.6151Z"></path>
<path fill="#018D43" d="M39.8372 176.968C41.7597 178.34 43.7562 179.519 45.6893 180.712C46.6734 181.279 47.6646 181.81 48.6382 182.349C49.1285 182.616 49.6082 182.887 50.0986 183.144C50.5924 183.387 51.0862 183.626 51.5765 183.865C52.5607 184.337 53.5237 184.83 54.4973 185.27C55.4814 185.688 56.455 186.107 57.4215 186.519C57.9083 186.716 58.3774 186.945 58.8678 187.117C59.3545 187.297 59.8378 187.476 60.3211 187.656C61.2876 188.008 62.2365 188.374 63.1889 188.697C70.8363 191.238 78.1558 192.635 84.9496 193.22C91.7505 193.804 98.0223 193.586 103.74 192.903C104.456 192.818 105.162 192.734 105.86 192.649C106.559 192.54 107.243 192.417 107.924 192.301C109.282 192.055 110.619 191.868 111.906 191.541C113.197 191.238 114.464 190.971 115.691 190.647C116.912 190.295 118.104 189.95 119.275 189.612C119.861 189.454 120.429 189.243 120.993 189.049C121.557 188.852 122.115 188.659 122.665 188.465C123.215 188.272 123.762 188.078 124.302 187.888C124.831 187.67 125.356 187.455 125.875 187.244C126.908 186.808 127.935 186.413 128.916 185.963C129.886 185.498 130.842 185.041 131.776 184.59C132.718 184.161 133.6 183.644 134.478 183.169C135.35 182.68 136.217 182.229 137.039 181.726C137.854 181.216 138.655 180.712 139.441 180.22C139.833 179.97 140.225 179.73 140.602 179.477C140.976 179.213 141.346 178.953 141.713 178.692C147.593 174.568 152.158 170.239 155.999 165.738C156.99 164.643 157.968 163.38 159.061 162.12C159.329 161.8 159.618 161.49 159.879 161.152C160.147 160.818 160.416 160.477 160.691 160.132C161.245 159.453 161.809 158.756 162.384 158.048C162.934 157.32 163.499 156.577 164.07 155.824C164.359 155.451 164.648 155.071 164.941 154.691C165.227 154.304 165.495 153.903 165.781 153.509C166.345 152.717 166.917 151.918 167.495 151.108C168.038 150.278 168.592 149.437 169.146 148.589C169.421 148.163 169.717 147.751 169.978 147.315C170.239 146.878 170.504 146.438 170.769 145.999C171.033 145.559 171.301 145.122 171.566 144.679C171.834 144.239 172.109 143.803 172.345 143.342C172.843 142.437 173.344 141.529 173.845 140.621C174.106 140.174 174.328 139.703 174.557 139.238L175.248 137.845L175.943 136.458C176.169 135.993 176.367 135.515 176.578 135.047C176.998 134.107 177.414 133.167 177.831 132.238C178.557 130.334 179.372 128.487 179.968 126.608C181.319 122.905 182.236 119.249 183.055 115.92C183.224 115.079 183.386 114.259 183.548 113.46C183.7 112.661 183.884 111.89 184 111.134C184.229 109.62 184.441 108.209 184.635 106.921C184.773 105.622 184.896 104.447 185.005 103.416C185.034 103.159 185.062 102.909 185.086 102.666C185.111 102.427 185.115 102.195 185.132 101.973C185.157 101.53 185.182 101.121 185.203 100.755C185.295 99.2914 185.344 98.4819 185.344 98.4819C186.011 97.764 186.614 97.859 187.154 98.7107C187.422 99.1365 187.679 99.7524 187.919 100.548C188.039 100.945 188.155 101.389 188.268 101.874C188.321 102.117 188.378 102.374 188.434 102.638C188.487 102.902 188.519 103.177 188.557 103.465C188.713 104.609 188.843 105.922 188.953 107.393C189.002 108.86 188.998 110.483 188.981 112.253C188.78 115.768 188.423 119.879 187.422 124.345C186.466 128.814 185.076 133.699 182.981 138.696C180.91 143.704 178.226 148.863 174.882 153.91C171.541 158.956 167.545 163.883 162.955 168.441C158.37 173.002 153.198 177.186 147.6 180.8C142.006 184.414 135.995 187.459 129.797 189.802C123.6 192.15 117.229 193.811 110.954 194.81C98.3786 196.834 86.2971 196.074 76.2369 194.068C74.9846 193.783 73.7571 193.501 72.5613 193.23C72.2614 193.16 71.9651 193.093 71.6688 193.026C71.376 192.945 71.0868 192.864 70.7975 192.783C70.219 192.621 69.6476 192.459 69.0832 192.301C66.8115 191.71 64.7268 190.932 62.7374 190.274C61.7532 189.922 60.8184 189.531 59.9048 189.18C59.4498 189 59.0018 188.824 58.5644 188.652C58.3457 188.564 58.127 188.479 57.9153 188.391C57.7037 188.296 57.4956 188.201 57.291 188.11C56.4656 187.737 55.6719 187.378 54.917 187.036C54.5396 186.864 54.1692 186.695 53.8094 186.533C53.4461 186.371 53.111 186.181 52.7723 186.016C51.4354 185.326 50.2326 184.721 49.2026 184.168C48.1902 183.584 47.326 183.084 46.6276 182.68C45.9326 182.271 45.3859 181.972 45.0367 181.743C44.6839 181.518 44.504 181.399 44.504 181.399C43.5516 180.793 42.6521 180.22 41.8055 179.681C41.3787 179.417 40.9801 179.139 40.5956 178.861C40.2111 178.587 39.8372 178.323 39.4774 178.069C38.7578 177.556 38.0876 177.077 37.4597 176.626C36.8566 176.148 36.2957 175.708 35.7772 175.296C35.2622 174.884 34.786 174.501 34.3521 174.152C34.1334 173.976 33.9288 173.808 33.7312 173.649C33.5408 173.48 33.3609 173.318 33.188 173.164C32.5002 172.548 31.9569 172.048 31.5407 171.657C29.8758 170.088 30.225 170.204 31.4208 171.045C32.0204 171.467 32.8282 172.069 33.7066 172.738C34.1369 173.079 34.6166 173.399 35.0893 173.73C35.5585 174.061 36.0311 174.392 36.4826 174.708C36.9342 175.025 37.3645 175.331 37.7596 175.609C38.1511 175.894 38.5286 176.113 38.8354 176.32C39.4492 176.714 39.8372 176.968 39.8372 176.968Z"></path>
<path fill="#018D43" d="M49.267 173.73C49.8491 173.934 50.8015 174.293 52.0361 174.828C52.6534 175.096 53.3377 175.412 54.0926 175.754C54.8616 176.067 55.7011 176.415 56.5935 176.799C60.1845 178.291 64.8371 180.093 70.2306 181.553C75.617 183.025 81.7371 184.144 88.0653 184.601C94.39 185.073 100.916 184.893 107.039 184.126C113.17 183.369 118.899 182.029 123.77 180.533C126.222 179.822 128.426 178.984 130.423 178.295C131.403 177.904 132.328 177.545 133.192 177.218C133.622 177.049 134.045 176.908 134.437 176.743C134.829 176.577 135.206 176.422 135.566 176.275C138.465 175.141 140.215 174.452 140.543 174.772C140.705 174.927 140.497 175.317 139.866 175.979C139.245 176.665 138.144 177.524 136.539 178.685C133.308 180.948 129.1 183.461 123.996 185.579C118.909 187.719 112.969 189.549 106.51 190.682C100.059 191.819 93.1025 192.291 86.1076 191.872C79.1127 191.471 72.0966 190.221 65.5285 188.275C58.9534 186.34 52.8403 183.711 47.5104 180.8C42.1734 177.897 37.6265 174.716 33.965 171.819C33.062 171.08 32.2013 170.373 31.3829 169.704C30.5787 169.021 29.8556 168.335 29.1571 167.712C28.8114 167.399 28.4763 167.096 28.1553 166.804C27.9931 166.657 27.8379 166.516 27.6827 166.375C27.5345 166.227 27.3899 166.083 27.2488 165.942C26.6809 165.376 26.1623 164.858 25.6932 164.39C25.2276 163.922 24.8113 163.507 24.4515 163.144C24.1094 162.768 23.8166 162.448 23.5802 162.191C23.1111 161.673 22.8642 161.399 22.8642 161.399C21.1428 159.593 19.693 157.739 18.275 156.025C17.6118 155.131 16.9698 154.265 16.3455 153.424C16.0386 153.002 15.7246 152.59 15.4354 152.175C15.1532 151.753 14.8781 151.334 14.6065 150.926C14.0668 150.102 13.5412 149.307 13.0332 148.533C12.55 147.744 12.109 146.97 11.6716 146.224C11.2413 145.474 10.8039 144.76 10.43 144.046C10.0631 143.328 9.70684 142.634 9.36468 141.962C6.6803 136.578 5.28344 132.524 4.48624 129.62C4.28518 128.892 4.11233 128.241 3.96418 127.653C3.8901 127.361 3.82308 127.083 3.75959 126.822C3.69962 126.562 3.66082 126.312 3.61496 126.076C3.44917 125.144 3.35041 124.454 3.29044 123.947C3.17403 122.934 3.22342 122.656 3.22342 122.656C3.61144 123.828 3.9924 124.982 4.36983 126.122C4.76843 127.255 5.22347 128.35 5.63971 129.437C5.85488 129.979 6.05595 130.521 6.28523 131.049C6.52157 131.573 6.75791 132.094 6.99072 132.608C7.22353 133.122 7.45634 133.636 7.68915 134.142C7.92196 134.649 8.14066 135.156 8.40522 135.642C8.91317 136.616 9.41407 137.577 9.90791 138.524C10.0314 138.76 10.1548 138.995 10.2783 139.228C10.4123 139.456 10.5464 139.685 10.6804 139.91C10.9485 140.361 11.2131 140.811 11.4741 141.258C11.7386 141.702 11.9997 142.142 12.2607 142.582C12.3912 142.8 12.5217 143.018 12.6523 143.233C12.7934 143.444 12.9309 143.651 13.0685 143.863C13.6258 144.697 14.1726 145.513 14.7123 146.322C15.2343 147.139 15.8375 147.885 16.3913 148.642C16.9593 149.391 17.499 150.134 18.0633 150.845C18.6454 151.538 19.2168 152.224 19.7812 152.896C20.3456 153.565 20.8888 154.23 21.4814 154.839C22.0599 155.455 22.6278 156.06 23.1887 156.655C23.4709 156.951 23.7425 157.246 24.0247 157.531C24.314 157.809 24.5997 158.084 24.8854 158.355C26.0353 159.432 27.0936 160.501 28.2294 161.42C32.6317 165.221 36.727 167.941 40.3074 169.859C40.7518 170.102 41.1857 170.338 41.6054 170.57C42.0252 170.799 42.4626 170.985 42.8718 171.186C43.7007 171.573 44.4838 171.932 45.2246 172.259C45.9548 172.601 46.6955 172.843 47.3658 173.09C48.0395 173.326 48.6709 173.54 49.267 173.73Z"></path>
<path fill="#018D43" d="M23.2698 45.2502C23.7636 44.8596 24.1375 44.6238 24.3986 44.5288C24.6702 44.4373 24.8254 44.483 24.8818 44.6414C24.9876 44.9511 24.7478 45.7535 24.2257 46.8655C23.9682 47.4216 23.6437 48.0621 23.2627 48.7624C22.9065 49.4768 22.5184 50.2686 22.0846 51.1027C21.8659 51.518 21.6401 51.9438 21.4073 52.3837C21.1674 52.8166 20.9664 53.2881 20.7371 53.7527C20.282 54.6817 19.8094 55.646 19.3261 56.6279C17.4636 60.5835 15.7987 64.9121 14.6381 68.2624C14.1126 69.9552 13.6681 71.3875 13.3577 72.3975C13.0896 73.4181 12.9309 74.0129 12.9309 74.0129C11.3224 80.1187 10.3805 86.2528 10.0207 91.9715C9.65388 97.6903 9.85494 102.983 10.2818 107.449C10.4123 108.565 10.5393 109.631 10.6557 110.641C10.7015 111.148 10.7968 111.637 10.8744 112.112C10.952 112.587 11.0296 113.048 11.1037 113.495C11.1777 113.942 11.2483 114.375 11.3153 114.79C11.3506 114.998 11.3823 115.202 11.4141 115.403C11.4564 115.6 11.4987 115.797 11.5411 115.987C11.7033 116.75 11.855 117.451 11.989 118.081C12.1266 118.711 12.2324 119.277 12.3524 119.763C12.4794 120.245 12.5887 120.657 12.6734 120.991C12.8462 121.656 12.9379 122.012 12.9379 122.012C12.9379 122.012 13.0931 122.606 13.3647 123.627C13.6787 124.637 14.1231 126.069 14.6452 127.759C15.8057 131.105 17.4742 135.434 19.3332 139.39C19.8129 140.371 20.2891 141.336 20.7441 142.265C20.9769 142.729 21.1745 143.201 21.4179 143.634C21.6507 144.074 21.8764 144.5 22.0951 144.915C22.529 145.745 22.917 146.537 23.2733 147.252C23.6507 147.952 23.9753 148.589 24.2328 149.145C24.7513 150.257 24.9947 151.059 24.8889 151.369C24.8324 151.527 24.6737 151.57 24.4021 151.482C24.1375 151.387 23.7671 151.151 23.2733 150.76C22.5502 150.187 21.7988 149.557 21.0228 148.877C20.2679 148.184 19.5272 147.417 18.7476 146.618C18.3631 146.213 17.961 145.809 17.58 145.376C17.2096 144.936 16.8322 144.485 16.4512 144.031C16.0738 143.57 15.6928 143.102 15.3048 142.627C15.1143 142.388 14.9133 142.152 14.7334 141.902C14.5535 141.652 14.3701 141.399 14.1902 141.146C13.4706 140.125 12.7122 139.083 12.0067 137.989C11.3224 136.884 10.638 135.747 9.95018 134.593C9.30466 133.421 8.69089 132.217 8.06653 131.007C7.74201 130.405 7.4704 129.782 7.19526 129.159L6.36631 127.283C4.2181 122.251 2.65192 116.993 1.62896 112.13C1.40673 110.905 1.19156 109.715 0.979914 108.561C0.93053 108.273 0.874091 107.988 0.831762 107.702C0.796487 107.417 0.761213 107.132 0.725939 106.854C0.65539 106.291 0.588369 105.742 0.521347 105.2C0.457854 104.658 0.39436 104.13 0.330866 103.617C0.302646 103.36 0.267372 103.103 0.246207 102.849C0.22857 102.596 0.210933 102.346 0.196823 102.1C0.133329 101.114 0.0733631 100.182 0.0204515 99.3126C-0.0218777 98.0457 0.0521985 96.7823 0.0945277 95.5154C0.161549 94.618 0.193296 93.6643 0.302646 92.6683C0.422579 91.6724 0.549567 90.6307 0.680082 89.5468C0.754158 89.0048 0.800015 88.4523 0.90231 87.8962C1.00108 87.3402 1.10337 86.7736 1.20567 86.2C1.31149 85.6263 1.41732 85.0457 1.52314 84.4544C1.57605 84.1588 1.63249 83.8632 1.68893 83.5676C1.74889 83.272 1.8265 82.9728 1.89705 82.6737C2.1863 81.4842 2.4826 80.263 2.78243 79.0243C3.12812 77.796 3.51967 76.5608 3.90063 75.315C3.99587 75.0053 4.09464 74.6921 4.18988 74.3789C4.2957 74.0692 4.41564 73.7595 4.52851 73.4498C4.7578 72.8339 4.98708 72.211 5.21636 71.5916C5.4527 70.9723 5.6714 70.3494 5.92538 69.7335C6.19346 69.1247 6.46155 68.5158 6.72963 67.907L7.54094 66.0876C7.67146 65.7849 7.81961 65.4858 7.97482 65.1937L8.42986 64.3104C8.73322 63.7262 9.0401 63.142 9.34346 62.5613L9.80203 61.6956C9.96077 61.4105 10.1336 61.1325 10.2959 60.8545C10.9661 59.7389 11.6257 58.6409 12.2995 57.5781C13.0155 56.5364 13.7316 55.5193 14.4371 54.5375C14.7792 54.0412 15.1637 53.5732 15.5376 53.1122C15.9115 52.6547 16.2819 52.2042 16.6488 51.7573C17.0192 51.3138 17.379 50.881 17.7458 50.4622C18.1303 50.0575 18.5113 49.6598 18.8852 49.2656C19.6436 48.4949 20.3561 47.7489 21.0969 47.0802C21.8376 46.4186 22.5643 45.8062 23.2698 45.2502Z"></path>
</g>
<path fill="#E1B2AB" d="M128.906 124.25L127.57 125.052C121.287 128.821 114.099 130.813 106.772 130.812C99.0838 130.813 91.555 128.62 85.0688 124.493C83.6742 123.605 82.1758 122.891 80.6073 122.369L73.125 119.875L71.7162 114.239C71.199 112.171 70.9375 110.047 70.9375 107.915C70.9376 101.528 73.2812 95.3635 77.5241 90.5898L79.6875 88.1562C83.1889 84.6546 85.156 79.9055 85.1562 74.9536C85.1562 73.5238 85.7242 72.1525 86.7353 71.1415C87.7463 70.1305 89.1175 69.5625 90.5473 69.5625H104.844C105.714 69.5625 106.549 69.9082 107.164 70.5236C107.779 71.1389 108.125 71.9735 108.125 72.8438V77.2188C108.125 78.089 107.779 78.9236 107.164 79.5389C106.549 80.1543 105.714 80.5 104.844 80.5C104.844 81.3702 104.498 82.2048 103.883 82.8202C103.267 83.4355 102.433 83.7812 101.562 83.7812H100.469C100.469 84.6515 100.123 85.4861 99.5077 86.1014C98.8923 86.7168 98.0577 87.0625 97.1875 87.0625H95C94.4198 87.0625 93.8634 86.832 93.4532 86.4218C93.043 86.0116 92.8125 85.4552 92.8125 84.875V81.5938C92.1189 82.2871 91.5687 83.1104 91.1934 84.0164C90.8181 84.9225 90.6249 85.8936 90.625 86.8744C90.6247 87.7275 90.6953 88.5792 90.8361 89.4206C91.4235 92.9468 91.7187 96.5154 91.7188 100.09V103.469L93.0138 102.497C95.0146 100.996 97.4489 100.186 99.9503 100.188H100.031C101.763 100.187 103.47 100.591 105.018 101.368L107.031 102.375L107.28 102.127C108.588 100.818 110.141 99.7805 111.851 99.0724C113.56 98.3643 115.392 97.9999 117.242 98C120.539 98.0001 123.73 99.1558 126.263 101.266L128.906 103.469V124.25Z"></path>
<path fill="#FEE2D6" d="M126.263 101.266C123.551 99.0387 120.111 97.8941 116.606 98.0531C113.101 98.212 109.778 99.6632 107.28 102.127L107.031 102.375L105.02 101.368C103.472 100.591 101.763 100.187 100.031 100.188H99.9481C97.449 100.2 95.0189 101.009 93.0116 102.497L91.7188 103.469V100.09C91.7187 96.5154 91.4235 92.9468 90.8361 89.4206C90.6953 88.5792 90.6247 87.7275 90.625 86.8744C90.6249 85.8936 90.8181 84.9225 91.1934 84.0164C91.5687 83.1104 92.1189 82.2871 92.8125 81.5938V84.875C92.8199 85.4529 93.0527 86.005 93.4614 86.4136C93.87 86.8223 94.4221 87.0551 95 87.0625H97.1875C98.0553 87.0545 98.8852 86.7062 99.4989 86.0926C100.112 85.479 100.461 84.649 100.469 83.7812H101.562C102.36 83.7786 103.129 83.4837 103.724 82.9522C103.818 82.869 103.907 82.7806 103.992 82.6875C104.538 82.0896 104.842 81.3097 104.844 80.5C105.714 80.5 106.549 80.1543 107.164 79.5389C107.779 78.9236 108.125 78.089 108.125 77.2188V72.8438C108.125 71.9735 107.779 71.1389 107.164 70.5236C106.549 69.9082 105.714 69.5625 104.844 69.5625H90.6042C89.9334 70.0607 89.3882 70.7086 89.0121 71.4546C88.6359 72.2007 88.4392 73.0243 88.4375 73.8598C88.4372 78.8118 86.4701 83.5608 82.9688 87.0625L80.8053 89.4961C76.5625 94.2698 74.2188 100.434 74.2188 106.821C74.2187 108.953 74.4802 111.077 74.9975 113.145L76.4062 118.781L83.8886 121.275C85.4571 121.798 86.9554 122.511 88.35 123.399C93.1492 126.455 98.5402 128.463 104.169 129.29C109.799 130.117 115.539 129.745 121.015 128.198C123.29 127.349 125.484 126.296 127.57 125.052L128.906 124.25V103.469L126.263 101.266Z"></path>
<path fill="#E1B2AB" d="M97.1875 81.5938H93.9062C92.4564 81.592 91.0664 81.0153 90.0412 79.9901C89.016 78.9649 88.4392 77.5749 88.4375 76.125H90.625C90.625 76.9952 90.9707 77.8298 91.5861 78.4452C92.2014 79.0605 93.036 79.4062 93.9062 79.4062H97.1875V81.5938Z"></path>
<path fill="#E1B2AB" d="M79.6875 112.219V110.031C81.1374 110.03 82.5274 109.453 83.5526 108.428C84.5778 107.402 85.1545 106.012 85.1562 104.563C85.1571 100.869 85.4191 97.1807 85.9405 93.5244L86.2609 91.2822L88.4266 91.5929L88.1094 93.8339C87.6013 97.3876 87.3455 100.973 87.3438 104.563C87.3411 106.592 86.5337 108.538 85.0984 109.973C83.6631 111.409 81.7173 112.216 79.6875 112.219Z"></path>
<path fill="#E1B2AB" d="M101.46 123.156C98.4594 123.158 95.5261 122.269 93.0312 120.602L90.0234 118.597L91.2375 116.777L94.2398 118.781C95.8923 119.874 97.7705 120.578 99.7339 120.841C101.697 121.105 103.695 120.92 105.577 120.302L109.967 118.838L110.658 120.916L106.266 122.375C104.716 122.893 103.093 123.156 101.46 123.156Z"></path>
<path fill="#E1B2AB" d="M124.312 122.041C120.557 121.311 117.205 119.214 114.906 116.156L116.656 114.844C118.607 117.447 121.45 119.239 124.641 119.875L124.75 119.897L124.312 122.041Z"></path>
<path fill="#79B856" d="M122.344 96.9062V90.3438H127.812L115.781 73.9375L103.75 90.3438H109.219V96.9062"></path>
<path fill="#79B856" d="M80.7812 131.906V117.688H86.25L74.2188 101.281L62.1875 117.688H67.6562V131.906"></path>
<path fill="#6EAB50" d="M74.2188 101.281V131.906H80.7812V117.688H86.25L74.2188 101.281Z"></path>
<path fill="#FCC533" d="M65.4688 81.5938C66.339 81.5938 67.1736 81.9395 67.7889 82.5548C68.4043 83.1702 68.75 84.0048 68.75 84.875C68.75 84.0048 69.0957 83.1702 69.7111 82.5548C70.3264 81.9395 71.161 81.5938 72.0312 81.5938C71.161 81.5938 70.3264 81.248 69.7111 80.6327C69.0957 80.0173 68.75 79.1827 68.75 78.3125C68.75 79.1827 68.4043 80.0173 67.7889 80.6327C67.1736 81.248 66.339 81.5938 65.4688 81.5938Z"></path>
<path fill="#FFDD50" d="M73.125 69.5625C74.1439 69.902 75.0697 70.4741 75.829 71.2335C76.5884 71.9928 77.1605 72.9186 77.5 73.9375C77.8395 72.9186 78.4116 71.9928 79.171 71.2335C79.9303 70.4741 80.8561 69.902 81.875 69.5625C80.8561 69.223 79.9303 68.6509 79.171 67.8915C78.4116 67.1322 77.8395 66.2064 77.5 65.1875C77.1605 66.2064 76.5884 67.1322 75.829 67.8915C75.0697 68.6509 74.1439 69.223 73.125 69.5625Z"></path>
<path fill="#E1B2AB" d="M90.4412 107.357L94.184 101.743C93.778 101.969 93.3871 102.221 93.0137 102.497L91.7187 103.469V101.5L88.6212 106.146L90.4412 107.357Z"></path>
<path fill="#E1B2AB" d="M99.6167 85.9688C100.163 85.3708 100.467 84.591 100.469 83.7813H101.562V76.125C101.562 75.2548 101.217 74.4202 100.601 73.8048C99.9861 73.1895 99.1515 72.8438 98.2812 72.8438V75.0313C98.5713 75.0313 98.8495 75.1465 99.0546 75.3516C99.2598 75.5567 99.375 75.8349 99.375 76.125V86.1875C99.4594 86.1189 99.5401 86.0459 99.6167 85.9688Z"></path>
<path fill="#E1B2AB" d="M102.656 72.8438C102.946 72.8438 103.225 72.959 103.43 73.1641C103.635 73.3692 103.75 73.6474 103.75 73.9375V82.9259C103.835 82.8506 103.915 82.7711 103.992 82.6875C104.538 82.0896 104.842 81.3097 104.844 80.5C105.217 80.4965 105.587 80.4284 105.938 80.2987V73.9375C105.938 73.0673 105.592 72.2327 104.976 71.6173C104.361 71.002 103.526 70.6562 102.656 70.6562V72.8438Z"></path>
<path fill="#6EAB50" d="M115.781 73.9375V96.9062H122.344V90.3438H127.812L115.781 73.9375Z"></path>
<path fill="black" d="M127.006 124.114C120.742 127.872 113.556 129.811 106.253 129.714C98.9494 129.618 91.8172 127.489 85.6553 123.567C84.4611 122.812 83.1944 122.177 81.8742 121.672V118.781H86.2492C86.4515 118.781 86.6499 118.726 86.8223 118.62C86.9948 118.514 87.1345 118.362 87.2259 118.182C87.3174 118.002 87.357 117.799 87.3404 117.598C87.3238 117.396 87.2516 117.203 87.1319 117.04L83.0237 111.438C84.3175 110.814 85.4091 109.838 86.1731 108.622C86.9372 107.406 87.3426 105.999 87.343 104.562C87.3447 100.973 87.6005 97.3876 88.1086 93.8339L88.429 91.5928L86.2634 91.2822L85.943 93.5244C85.4205 97.1806 85.1574 100.869 85.1555 104.562C85.1554 105.657 84.826 106.726 84.2099 107.631C83.5939 108.536 82.7198 109.234 81.7014 109.635L75.1006 100.634C74.9941 100.502 74.8595 100.396 74.7068 100.324C74.5541 100.251 74.3871 100.213 74.218 100.213C74.0488 100.213 73.8818 100.251 73.7291 100.324C73.5764 100.396 73.4418 100.502 73.3353 100.634L73.0072 101.079C74.0327 97.4671 75.8547 94.131 78.3392 91.3161L80.4578 88.9295C82.2993 87.0986 83.7594 84.9207 84.7535 82.5217C85.7476 80.1227 86.256 77.5504 86.2492 74.9536C86.2507 73.8143 86.7039 72.7221 87.5095 71.9165C88.3151 71.1109 89.4073 70.6577 90.5466 70.6562H104.843C105.423 70.6562 105.98 70.8867 106.39 71.297C106.8 71.7072 107.03 72.2636 107.03 72.8438V77.2188C107.029 77.601 106.928 77.9763 106.736 78.3069C106.544 78.6374 106.268 78.9117 105.937 79.1022V73.9375C105.937 73.0673 105.591 72.2327 104.976 71.6173C104.36 71.002 103.526 70.6562 102.655 70.6562V72.8438C102.946 72.8438 103.224 72.959 103.429 73.1641C103.634 73.3692 103.749 73.6474 103.749 73.9375V80.5C103.749 81.0802 103.519 81.6366 103.109 82.0468C102.698 82.457 102.142 82.6875 101.562 82.6875V76.125C101.562 75.2548 101.216 74.4202 100.601 73.8048C99.9853 73.1895 99.1507 72.8438 98.2805 72.8438V75.0312C98.5705 75.0312 98.8487 75.1465 99.0539 75.3516C99.259 75.5567 99.3742 75.8349 99.3742 76.125V83.7812C99.3742 84.3614 99.1437 84.9178 98.7335 85.328C98.3233 85.7383 97.7669 85.9688 97.1867 85.9688H94.9992C94.7091 85.9688 94.4309 85.8535 94.2258 85.6484C94.0207 85.4433 93.9055 85.1651 93.9055 84.875V81.5938H97.1867V79.4062H93.9055C93.0352 79.4062 92.2006 79.0605 91.5853 78.4452C90.9699 77.8298 90.6242 76.9952 90.6242 76.125H88.4367C88.4381 77.1879 88.7492 78.2273 89.3319 79.1162C89.9147 80.0051 90.7438 80.7049 91.718 81.13V81.1748C90.3179 82.7442 89.5399 84.7713 89.5305 86.8744C89.5305 87.7872 89.6059 88.6985 89.7558 89.5989C90.3322 93.0663 90.6226 96.5752 90.6242 100.09V103.141L88.6205 106.146L90.4405 107.36L92.5251 104.234L93.6692 103.376C95.5072 102.008 97.7393 101.273 100.03 101.281C101.591 101.283 103.13 101.647 104.527 102.344L106.458 103.312C107.352 103.916 108.11 104.701 108.683 105.615C109.256 106.529 109.631 107.553 109.785 108.621L110.32 112.374L112.486 112.063L111.95 108.312C111.614 105.989 110.464 103.86 108.706 102.305C111.031 100.27 114.006 99.1312 117.096 99.0947C120.185 99.0582 123.186 100.126 125.559 102.106L128.202 104.31L129.604 102.628L126.96 100.425C124.107 98.0482 120.483 96.799 116.772 96.9135C113.061 97.0279 109.52 98.4981 106.819 101.046L105.507 100.39C103.78 99.5306 101.877 99.0867 99.9484 99.0938C97.4028 99.0982 94.917 99.8655 92.8117 101.297V100.093C92.8107 96.4583 92.5103 92.8293 91.9137 89.2434C91.7839 88.4604 91.7184 87.6681 91.718 86.8744C91.7192 86.4775 91.758 86.0816 91.8339 85.692C92.0146 86.395 92.4234 87.0183 92.9961 87.4642C93.5689 87.9101 94.2733 88.1535 94.9992 88.1562H97.1867C98.1564 88.1553 99.0984 87.8327 99.865 87.2389C100.632 86.645 101.179 85.8137 101.423 84.875H101.562C102.551 84.8743 103.511 84.5388 104.286 83.9232C105.06 83.3076 105.603 82.448 105.827 81.4844C106.791 81.2604 107.651 80.717 108.266 79.9426C108.882 79.1681 109.217 78.2081 109.218 77.2188V72.8438C109.218 71.6834 108.757 70.5706 107.937 69.7502C107.116 68.9297 106.003 68.4688 104.843 68.4688H90.5466C88.8272 68.4705 87.1788 69.1543 85.963 70.37C84.7472 71.5858 84.0634 73.2342 84.0617 74.9536C84.0657 77.2734 83.6088 79.571 82.7175 81.7128C81.8262 83.8545 80.5183 85.7979 78.8697 87.43L76.7062 89.8636C72.9202 94.1464 70.5716 99.508 69.9906 105.195L61.3041 117.04C61.1843 117.203 61.1121 117.396 61.0955 117.598C61.0789 117.799 61.1185 118.002 61.21 118.182C61.3014 118.362 61.4412 118.514 61.6136 118.62C61.786 118.726 61.9844 118.781 62.1867 118.781H66.5617V131.906H68.7492V117.688C68.7492 117.397 68.634 117.119 68.4289 116.914C68.2237 116.709 67.9455 116.594 67.6555 116.594H64.3458L74.218 103.131L84.0901 116.594H80.7805C80.4904 116.594 80.2122 116.709 80.0071 116.914C79.8019 117.119 79.6867 117.397 79.6867 117.688V131.906H81.8742V124.031C82.7772 124.423 83.6486 124.884 84.4806 125.41C90.9854 129.55 98.5145 131.797 106.224 131.898C113.934 132 121.519 129.953 128.131 125.986L129.469 125.183L128.342 123.308L127.006 124.114Z"></path>
<path fill="black" d="M105.576 120.302C103.694 120.92 101.697 121.105 99.7335 120.841C97.7701 120.578 95.8919 119.874 94.2395 118.781L91.2316 116.776L90.0176 118.596L93.0254 120.601C94.9515 121.885 97.1455 122.713 99.44 123.02C101.735 123.328 104.069 123.107 106.265 122.375L110.654 120.912L109.963 118.834L105.576 120.302Z"></path>
<path fill="black" d="M116.656 114.844L114.906 116.156C117.205 119.214 120.557 121.311 124.312 122.041L124.75 119.897L124.641 119.875C121.45 119.239 118.607 117.447 116.656 114.844Z"></path>
<path fill="black" d="M121.249 90.3438V94.7188H123.437V91.4375H127.812C128.014 91.4377 128.212 91.3818 128.385 91.276C128.557 91.1703 128.697 91.0187 128.788 90.8383C128.88 90.6579 128.92 90.4556 128.903 90.254C128.886 90.0524 128.814 89.8593 128.694 89.6963L116.663 73.29C116.557 73.1586 116.422 73.0527 116.269 72.9799C116.117 72.9071 115.95 72.8694 115.78 72.8694C115.611 72.8694 115.444 72.9071 115.292 72.9799C115.139 73.0527 115.004 73.1586 114.898 73.29L102.867 89.6963C102.747 89.8593 102.675 90.0524 102.658 90.254C102.641 90.4556 102.681 90.6579 102.772 90.8383C102.864 91.0187 103.004 91.1703 103.176 91.276C103.349 91.3818 103.547 91.4377 103.749 91.4375H108.124V96.9063H110.312V90.3438C110.312 90.0537 110.196 89.7755 109.991 89.5704C109.786 89.3652 109.508 89.25 109.218 89.25H105.908L115.78 75.787L125.653 89.25H122.343C122.053 89.25 121.775 89.3652 121.57 89.5704C121.364 89.7755 121.249 90.0537 121.249 90.3438Z"></path>
<path fill="black" d="M64.375 81.5938C64.375 81.8838 64.4902 82.162 64.6954 82.3671C64.9005 82.5723 65.1787 82.6875 65.4688 82.6875C66.0489 82.6875 66.6053 82.918 67.0155 83.3282C67.4258 83.7384 67.6562 84.2948 67.6562 84.875C67.6562 85.1651 67.7715 85.4433 67.9766 85.6484C68.1817 85.8535 68.4599 85.9688 68.75 85.9688C69.0401 85.9688 69.3183 85.8535 69.5234 85.6484C69.7285 85.4433 69.8438 85.1651 69.8438 84.875C69.8438 84.2948 70.0742 83.7384 70.4845 83.3282C70.8947 82.918 71.4511 82.6875 72.0312 82.6875C72.3213 82.6875 72.5995 82.5723 72.8046 82.3671C73.0098 82.162 73.125 81.8838 73.125 81.5938C73.125 81.3037 73.0098 81.0255 72.8046 80.8204C72.5995 80.6152 72.3213 80.5 72.0312 80.5C71.4511 80.5 70.8947 80.2695 70.4845 79.8593C70.0742 79.4491 69.8438 78.8927 69.8438 78.3125C69.8438 78.0224 69.7285 77.7442 69.5234 77.5391C69.3183 77.334 69.0401 77.2188 68.75 77.2188C68.4599 77.2188 68.1817 77.334 67.9766 77.5391C67.7715 77.7442 67.6562 78.0224 67.6562 78.3125C67.6562 78.8927 67.4258 79.4491 67.0155 79.8593C66.6053 80.2695 66.0489 80.5 65.4688 80.5C65.1787 80.5 64.9005 80.6152 64.6954 80.8204C64.4902 81.0255 64.375 81.3037 64.375 81.5938ZM68.75 81.2033C68.8713 81.342 69.0017 81.4725 69.1405 81.5938C69.0017 81.715 68.8713 81.8455 68.75 81.9842C68.6287 81.8455 68.4983 81.715 68.3595 81.5938C68.4983 81.4725 68.6287 81.342 68.75 81.2033Z"></path>
<path fill="black" d="M76.4631 74.2832C76.535 74.502 76.6742 74.6925 76.8608 74.8276C77.0473 74.9627 77.2718 75.0354 77.5021 75.0354C77.7325 75.0354 77.9569 74.9627 78.1435 74.8276C78.3301 74.6925 78.4693 74.502 78.5412 74.2832C78.8297 73.4266 79.3123 72.6483 79.9513 72.0091C80.5903 71.3699 81.3685 70.8871 82.225 70.5983C82.4438 70.5264 82.6343 70.3872 82.7694 70.2007C82.9045 70.0141 82.9772 69.7896 82.9772 69.5593C82.9772 69.3289 82.9045 69.1045 82.7694 68.9179C82.6343 68.7313 82.4438 68.5921 82.225 68.5202C81.3684 68.2325 80.5902 67.7504 79.9511 67.1117C79.312 66.473 78.8294 65.695 78.5412 64.8387C78.4693 64.6198 78.3301 64.4293 78.1435 64.2942C77.9569 64.1591 77.7325 64.0864 77.5021 64.0864C77.2718 64.0864 77.0473 64.1591 76.8608 64.2942C76.6742 64.4293 76.535 64.6198 76.4631 64.8387C76.1746 65.6952 75.692 66.4735 75.053 67.1127C74.414 67.7519 73.6358 68.2348 72.7793 68.5235C72.5605 68.5954 72.37 68.7346 72.2349 68.9212C72.0998 69.1078 72.0271 69.3322 72.0271 69.5626C72.0271 69.7929 72.0998 70.0174 72.2349 70.2039C72.37 70.3905 72.5605 70.5297 72.7793 70.6016C73.6358 70.8894 74.4141 71.3715 75.0532 72.0102C75.6923 72.6489 76.1748 73.4269 76.4631 74.2832ZM77.5 67.5938C78.0376 68.3589 78.7037 69.025 79.4687 69.5626C78.7037 70.1002 78.0376 70.7663 77.5 71.5313C76.9626 70.7661 76.2964 70.0999 75.5312 69.5626C76.2964 69.0252 76.9626 68.359 77.5 67.5938Z"></path>
<defs>
<clipPath id="clip0_719_453">
<rect fill="white" height="196" width="189"></rect>
</clipPath>
</defs>
</svg>
