<?xml version="1.0" standalone="no"?>
<!DOCTYPE svg PUBLIC "-//W3C//DTD SVG 20010904//EN"
 "http://www.w3.org/TR/2001/REC-SVG-20010904/DTD/svg10.dtd">
<svg version="1.0" xmlns="http://www.w3.org/2000/svg"
 width="512.000000pt" height="512.000000pt" viewBox="0 0 512.000000 512.000000"
 preserveAspectRatio="xMidYMid meet">

<g transform="translate(0.000000,512.000000) scale(0.100000,-0.100000)"
fill="#000000" stroke="none">
<path d="M1875 4559 c-374 -199 -864 -460 -1090 -579 l-410 -219 -3 -205 -2
-206 125 0 125 0 0 -170 0 -170 496 2 495 3 2 165 2 165 228 3 227 2 0 -170 0
-170 490 0 490 0 0 170 0 170 228 -2 227 -3 2 -165 2 -165 495 -3 496 -2 0
170 0 170 125 0 125 0 -2 206 -3 205 -250 133 c-1007 537 -1930 1026 -1935
1026 -3 0 -311 -163 -685 -361z"/>
<path d="M770 1980 l0 -850 345 0 345 0 -2 848 -3 847 -342 3 -343 2 0 -850z"/>
<path d="M2220 1980 l0 -850 340 0 340 0 0 850 0 850 -340 0 -340 0 0 -850z"/>
<path d="M3667 2823 c-4 -3 -7 -386 -7 -850 l0 -843 345 0 345 0 0 850 0 850
-338 0 c-186 0 -342 -3 -345 -7z"/>
<path d="M627 943 c-4 -3 -7 -82 -7 -175 l0 -168 -45 0 c-52 0 -109 -21 -143
-53 -47 -44 -56 -74 -60 -214 l-4 -133 2192 0 2192 0 -4 133 c-4 140 -13 170
-60 214 -34 32 -91 53 -142 53 l-46 0 -2 173 -3 172 -493 0 -493 0 -2 -170 -2
-170 -227 -3 -228 -2 0 175 0 175 -490 0 -490 0 0 -175 0 -175 -227 2 -228 3
-2 170 -2 170 -489 3 c-268 1 -492 -1 -495 -5z"/>
</g>
</svg>
