<?xml version="1.0" standalone="no"?>
<!DOCTYPE svg PUBLIC "-//W3C//DTD SVG 20010904//EN"
 "http://www.w3.org/TR/2001/REC-SVG-20010904/DTD/svg10.dtd">
<svg version="1.0" xmlns="http://www.w3.org/2000/svg"
 width="213.000000pt" height="93.000000pt" viewBox="0 0 213.000000 93.000000"
 preserveAspectRatio="xMidYMid meet">

<g transform="translate(0.000000,93.000000) scale(0.100000,-0.100000)"
fill="#000000" stroke="none">
<path d="M346 850 c-22 -38 -32 -128 -18 -168 7 -20 7 -33 0 -40 -14 -14 37
-113 105 -203 30 -41 60 -84 66 -97 7 -12 16 -20 21 -17 5 3 14 -12 20 -34 13
-51 -1 -121 -37 -176 l-26 -40 32 29 c43 41 69 100 76 171 3 33 2 54 -1 48
-11 -25 -24 -12 -54 54 -17 37 -57 103 -89 147 -83 116 -97 146 -66 146 14 0
14 3 0 30 -17 33 -20 132 -5 161 17 31 -4 22 -24 -11z"/>
<path d="M1987 842 c6 -4 13 -21 16 -37 l4 -30 2 32 c0 17 7 34 14 36 6 3 -1
6 -18 6 -16 0 -25 -3 -18 -7z"/>
<path d="M2051 810 c1 -40 2 -41 8 -15 5 24 8 26 13 13 4 -10 13 -18 20 -18 9
0 9 3 2 8 -5 4 -18 18 -27 32 l-17 24 1 -44z"/>
<path d="M2112 829 c-8 -12 -9 -18 -3 -15 5 4 12 -6 14 -21 3 -20 4 -16 6 15
0 23 0 42 -2 42 -1 0 -8 -9 -15 -21z"/>
<path d="M798 739 c-29 -11 -58 -62 -58 -104 0 -36 21 -73 70 -120 70 -67 90
-134 52 -168 -36 -33 -72 -18 -99 42 -11 24 -11 23 -12 -24 0 -27 3 -45 7 -38
6 9 17 9 50 -2 37 -13 47 -13 76 -1 42 17 56 42 56 96 0 51 -17 84 -70 135
-41 39 -70 88 -70 119 0 8 11 27 24 43 21 25 26 26 50 15 15 -7 33 -27 41 -45
l14 -32 1 38 c0 20 -3 36 -7 35 -5 -1 -21 4 -36 10 -33 14 -52 14 -89 1z"/>
<path d="M986 736 c18 -13 19 -28 19 -201 0 -173 -1 -188 -19 -201 -18 -13
-12 -14 52 -14 l72 0 -21 21 c-16 16 -19 30 -17 72 3 50 4 52 33 55 76 7 111
40 121 116 11 77 -34 156 -88 156 -17 0 -17 -2 4 -30 18 -25 22 -44 22 -100 0
-80 -22 -123 -67 -128 l-27 -3 0 115 c0 103 2 118 20 136 l20 20 -72 0 c-64 0
-70 -1 -52 -14z"/>
<path d="M1273 739 c15 -9 17 -30 17 -204 0 -174 -2 -195 -17 -204 -13 -8 1
-10 57 -10 41 0 68 3 60 6 -8 3 -18 11 -22 17 -4 6 -8 92 -8 190 0 153 2 182
17 198 15 17 13 18 -53 18 -52 -1 -65 -3 -51 -11z"/>
<path d="M1443 739 c15 -9 17 -30 17 -204 0 -174 -2 -195 -17 -204 -13 -8 1
-10 57 -10 41 0 68 3 60 6 -25 10 -30 25 -30 91 0 55 2 62 19 62 30 0 48 -24
66 -86 21 -72 61 -114 107 -113 29 0 30 1 11 9 -19 8 -41 54 -67 137 -4 12
-18 31 -32 42 l-25 20 21 11 c24 13 59 83 60 117 0 63 -47 123 -97 123 -14 0
-14 -3 2 -20 20 -22 32 -119 21 -165 -8 -33 -41 -65 -66 -65 -19 0 -20 7 -20
114 0 107 1 116 22 130 21 15 18 16 -52 16 -56 -1 -71 -3 -57 -11z"/>
<path d="M1743 739 c15 -9 17 -28 17 -157 0 -81 5 -164 10 -184 13 -44 52 -78
91 -78 78 0 89 28 89 230 0 147 2 162 20 180 l20 20 -42 0 c-39 0 -40 -1 -25
-18 14 -16 17 -44 17 -176 0 -176 -10 -216 -55 -216 -47 0 -55 29 -55 212 0
161 1 167 22 182 21 15 18 16 -52 16 -56 -1 -71 -3 -57 -11z"/>
<path d="M88 493 c-51 -55 -73 -112 -73 -193 0 -66 4 -82 33 -135 18 -33 49
-74 70 -90 99 -80 262 -87 293 -12 8 17 13 35 11 40 -1 4 5 7 13 7 8 0 15 5
15 10 0 6 -25 -3 -55 -19 -60 -32 -130 -47 -165 -36 -40 13 -15 30 41 29 30
-1 38 1 19 3 -56 6 -131 34 -127 46 2 7 -9 28 -25 49 -65 83 -81 192 -41 281
12 26 21 47 19 47 -1 0 -14 -12 -28 -27z"/>
<path d="M932 228 c-19 -19 -14 -45 14 -72 20 -18 25 -31 22 -50 -4 -17 -1
-25 6 -23 23 7 18 57 -8 88 -29 35 -31 40 -14 57 7 7 8 12 2 12 -5 0 -15 -5
-22 -12z"/>
<path d="M1054 160 c10 -44 23 -80 28 -80 11 0 10 15 -6 85 -8 33 -12 63 -10
67 3 5 -3 8 -13 8 -18 0 -18 -2 1 -80z"/>
<path d="M1099 222 c6 -11 10 -27 10 -38 0 -39 16 -97 26 -93 6 2 9 13 8 24
-13 116 -16 125 -35 125 -15 0 -17 -4 -9 -18z"/>
<path d="M1235 219 c2 -11 6 -28 9 -37 3 -9 7 -35 11 -56 6 -43 9 -50 22 -45
14 6 -17 159 -32 159 -9 0 -12 -8 -10 -21z"/>
<path d="M1337 233 c-13 -12 -7 -61 9 -73 27 -23 37 -50 23 -66 -14 -17 2 -19
19 -2 18 18 14 40 -14 73 -16 19 -24 38 -21 52 4 23 -3 30 -16 16z"/>
<path d="M1460 225 c8 -10 11 -37 8 -80 -3 -47 -1 -65 8 -65 9 0 14 25 16 80
3 78 3 80 -21 80 -20 0 -21 -2 -11 -15z"/>
<path d="M1565 160 c0 -55 4 -80 12 -80 14 0 19 37 15 108 -2 31 -9 52 -15 52
-8 0 -12 -26 -12 -80z"/>
<path d="M1628 183 c-4 -77 0 -103 18 -103 11 0 14 17 14 80 0 62 -3 80 -14
80 -10 0 -15 -16 -18 -57z"/>
<path d="M1740 234 c0 -4 4 -23 10 -43 5 -20 12 -53 15 -74 3 -20 12 -37 19
-37 10 0 10 16 -3 80 -9 51 -19 80 -28 80 -7 0 -13 -3 -13 -6z"/>
</g>
</svg>
