<svg xmlns="http://www.w3.org/2000/svg" fill="none" viewBox="0 0 189 196" height="196" width="189">
<g clip-path="url(#clip0_719_432)">
<path fill="#018D43" d="M44.4919 14.6153C44.4919 14.6153 45.2044 14.1296 46.6118 13.3343C47.3103 12.9296 48.1745 12.4333 49.1869 11.8456C50.2169 11.2931 51.4197 10.6878 52.7566 9.99804C53.0953 9.82912 53.4304 9.6426 53.7937 9.48072C54.1535 9.31531 54.5239 9.14991 54.9013 8.97747C55.6597 8.6361 56.4499 8.27714 57.2788 7.9041C57.4869 7.8126 57.695 7.71758 57.9032 7.62256C58.1183 7.5381 58.3335 7.45012 58.5522 7.36214C58.9896 7.1897 59.4376 7.01374 59.8926 6.83425C60.8062 6.48233 61.741 6.0917 62.7252 5.73625C64.7111 5.08168 66.7994 4.30041 69.071 3.70918C69.6354 3.55081 70.2069 3.38893 70.7854 3.22704C71.0746 3.1461 71.3639 3.06516 71.6566 2.98422C71.9529 2.91735 72.2492 2.84697 72.5491 2.7801C73.7484 2.5056 74.976 2.22758 76.2247 1.94252C86.2849 -0.0634365 98.3664 -0.82711 110.942 1.19645C117.217 2.19591 123.591 3.85699 129.789 6.20431C135.986 8.5446 142.001 11.5923 147.592 15.2065C153.186 18.8172 158.361 23.0051 162.947 27.5625C167.536 32.1199 171.536 37.0468 174.876 42.0934C178.22 47.14 180.905 52.2992 182.975 57.3071C185.074 62.3079 186.464 67.1926 187.42 71.662C188.418 76.1279 188.778 80.2384 188.979 83.7541C189 85.5242 189 87.1501 188.951 88.6141C188.842 90.0887 188.711 91.4014 188.556 92.5451C188.514 92.8302 188.482 93.1047 188.432 93.3721C188.376 93.6361 188.32 93.8895 188.267 94.1358C188.154 94.6215 188.037 95.0649 187.917 95.4626C187.678 96.2579 187.424 96.8738 187.152 97.2996C186.612 98.1512 186.013 98.2498 185.342 97.5283C185.342 97.5283 185.293 96.7189 185.201 95.2549C185.18 94.8889 185.155 94.4842 185.131 94.0373C185.117 93.8155 185.11 93.5833 185.085 93.344C185.06 93.1047 185.032 92.8548 185.004 92.5944C184.894 91.5632 184.771 90.3878 184.633 89.0892C184.439 87.8012 184.224 86.39 183.998 84.8767C183.882 84.1201 183.699 83.3494 183.547 82.5505C183.388 81.7516 183.222 80.9316 183.053 80.0906C182.235 76.7578 181.318 73.1049 179.967 69.3991C179.367 67.5199 178.556 65.6723 177.829 63.7684C177.413 62.8358 176.996 61.8997 176.577 60.9565C176.365 60.4884 176.168 60.0098 175.942 59.5453L175.247 58.1587L174.555 56.7651C174.323 56.3006 174.104 55.8325 173.843 55.382C173.342 54.4741 172.841 53.5661 172.344 52.6617C172.104 52.2042 171.832 51.7643 171.564 51.3244C171.296 50.8845 171.032 50.4446 170.767 50.0047C170.502 49.5647 170.238 49.1248 169.977 48.6885C169.716 48.2521 169.42 47.8368 169.144 47.4145C168.591 46.5664 168.037 45.7253 167.494 44.8947C166.915 44.0853 166.344 43.2829 165.779 42.4911C165.497 42.0969 165.225 41.6922 164.94 41.3086C164.647 40.9286 164.358 40.552 164.068 40.1754C163.497 39.4188 162.936 38.6762 162.382 37.9478C161.804 37.2369 161.239 36.5436 160.686 35.8609C160.41 35.516 160.142 35.1746 159.874 34.8403C159.61 34.4989 159.32 34.1927 159.052 33.8725C157.959 32.6091 156.982 31.3457 155.987 30.2547C152.142 25.7501 147.581 21.425 141.701 17.304C141.334 17.0435 140.964 16.7831 140.59 16.5192C140.209 16.2658 139.817 16.0265 139.429 15.7766C138.643 15.2839 137.842 14.7807 137.027 14.2704C136.205 13.7671 135.337 13.3167 134.47 12.8275C133.595 12.3524 132.709 11.8351 131.771 11.4057C130.836 10.9588 129.88 10.5013 128.91 10.0368C127.93 9.58629 126.907 9.19214 125.873 8.75575C125.355 8.54108 124.829 8.32641 124.3 8.11173C123.76 7.9217 123.217 7.72814 122.667 7.53458C122.117 7.34102 121.559 7.14747 120.995 6.95039C120.43 6.75683 119.863 6.54568 119.277 6.38731C118.106 6.04947 116.91 5.70458 115.693 5.35618C114.466 5.03241 113.199 4.76495 111.908 4.46229C110.621 4.13852 109.284 3.94849 107.926 3.70214C107.245 3.58601 106.557 3.46283 105.862 3.35374C105.164 3.26927 104.455 3.18481 103.742 3.10035C98.0242 2.41762 91.7524 2.19943 84.948 2.78362C78.1506 3.36781 70.8312 4.76495 63.1802 7.30935C62.2278 7.63664 61.2789 8.00264 60.3124 8.35456C59.8291 8.53404 59.3459 8.71352 58.8591 8.893C58.3688 9.06545 57.8961 9.29068 57.4129 9.49127C56.4463 9.90302 55.4728 10.3218 54.4886 10.7406C53.515 11.1805 52.5485 11.6732 51.5644 12.1448C51.074 12.3841 50.5802 12.6269 50.0828 12.8662C49.5961 13.1231 49.1128 13.3941 48.6225 13.6616C47.6489 14.2035 46.6542 14.7314 45.67 15.3015C44.7035 15.8963 43.7229 16.4981 42.7387 17.1069C42.4918 17.2582 42.2449 17.4131 41.998 17.5644C41.751 17.7192 41.5147 17.8917 41.2713 18.0536C40.788 18.3844 40.3048 18.7152 39.8145 19.0495C39.8145 19.0495 39.4265 19.2994 38.8092 19.697C38.1813 20.0806 37.3594 20.6719 36.4599 21.3053C36.0084 21.6221 35.5392 21.9529 35.0665 22.2802C34.5974 22.611 34.1177 22.9312 33.6873 23.2726C32.8125 23.9377 32.0012 24.5395 31.4051 24.9583C30.2128 25.7994 29.8636 25.9155 31.5285 24.3459C31.9448 23.9553 32.488 23.4556 33.1758 22.8397C33.3487 22.6849 33.5286 22.523 33.7191 22.3541C33.9166 22.1922 34.1247 22.0268 34.3399 21.8508C34.7773 21.5024 35.25 21.1223 35.765 20.7071C36.2835 20.2988 36.8444 19.8554 37.4476 19.3768C38.0719 18.9298 38.7457 18.4512 39.4617 17.9374C39.8215 17.6805 40.1954 17.4166 40.5799 17.1456C40.9644 16.8711 41.3595 16.5896 41.7863 16.3291C42.64 15.7942 43.5394 15.2206 44.4919 14.6153Z"></path>
<path fill="#018D43" d="M22.8584 34.6151C22.8584 34.6151 23.1053 34.3406 23.5744 33.8233C23.8108 33.5663 24.1 33.2461 24.4457 32.8695C24.8055 32.5071 25.2217 32.0918 25.6874 31.6237C26.1565 31.1557 26.6751 30.6383 27.243 30.0718C27.3841 29.931 27.5287 29.7867 27.6768 29.6389C27.832 29.4981 27.9873 29.3538 28.1495 29.2095C28.4705 28.9174 28.8056 28.6148 29.1513 28.3016C29.8462 27.6787 30.5729 26.9959 31.3736 26.3097C32.1884 25.641 33.0491 24.9337 33.9521 24.1946C37.6136 21.2983 42.157 18.1169 47.494 15.2136C52.8204 12.3032 58.937 9.67429 65.5086 7.7352C72.0767 5.78906 79.0927 4.53622 86.0841 4.13503C93.0755 3.71272 100.035 4.1843 106.487 5.31749C112.942 6.45068 118.886 8.28068 123.972 10.4169C129.073 12.5389 133.285 15.0482 136.519 17.311C138.121 18.4759 139.225 19.3311 139.846 20.0173C140.481 20.6789 140.685 21.0696 140.527 21.2244C140.199 21.5447 138.449 20.8549 135.549 19.7217C135.19 19.5739 134.816 19.4155 134.421 19.2536C134.029 19.0882 133.606 18.9475 133.175 18.7785C132.311 18.4513 131.387 18.0923 130.406 17.7017C128.41 17.0154 126.205 16.1778 123.754 15.4669C118.879 13.9748 113.154 12.634 107.023 11.8773C100.899 11.1101 94.3736 10.9307 88.0489 11.4058C81.7207 11.8668 75.6041 12.9859 70.2177 14.4569C64.8243 15.9174 60.1716 17.7193 56.5806 19.2114C55.6847 19.595 54.8487 19.9434 54.0797 20.2566C53.3248 20.598 52.6405 20.9147 52.0232 21.1822C50.7921 21.7171 49.8397 22.0761 49.2577 22.2802C48.6651 22.4702 48.0301 22.6849 47.3529 22.9242C46.6791 23.1705 45.9454 23.4134 45.2117 23.7547C44.471 24.082 43.6843 24.4375 42.8589 24.8281C42.4497 25.0252 42.0123 25.2117 41.5926 25.444C41.1693 25.6762 40.7389 25.912 40.2945 26.1548C36.7141 28.0728 32.6188 30.7932 28.2165 34.594C27.0807 35.5125 26.0225 36.5823 24.8725 37.6592C24.5868 37.9302 24.3011 38.2047 24.0118 38.4827C23.7296 38.7678 23.458 39.0634 23.1758 39.359C22.615 39.9537 22.0471 40.5591 21.4686 41.1749C20.8759 41.7837 20.3327 42.4489 19.7683 43.1175C19.2039 43.7897 18.6325 44.476 18.0505 45.1692C17.4896 45.8801 16.9464 46.6262 16.3785 47.3723C15.8247 48.1289 15.2215 48.875 14.6994 49.6915C14.1597 50.4974 13.613 51.3173 13.0556 52.1514C12.918 52.359 12.777 52.5702 12.6394 52.7813C12.5089 52.9995 12.3819 53.2142 12.2514 53.4324C11.9903 53.8688 11.7293 54.3122 11.4647 54.7556C11.2002 55.2026 10.9356 55.6495 10.6711 56.1035C10.537 56.3287 10.4065 56.5575 10.2725 56.7862C10.149 57.022 10.0256 57.2543 9.90209 57.4901C9.40825 58.4367 8.90736 59.3975 8.3994 60.3723C8.13485 60.858 7.91615 61.3647 7.68334 61.8715C7.45052 62.3783 7.21771 62.8921 6.9849 63.4059C6.75209 63.9232 6.51575 64.4441 6.27942 64.9684C6.05366 65.4963 5.8526 66.0383 5.63742 66.5802C5.22118 67.6677 4.76262 68.7622 4.36755 69.8954C3.99011 71.0356 3.60915 72.1899 3.22113 73.3618C3.22113 73.3618 3.17527 73.0803 3.28815 72.0667C3.34459 71.56 3.44688 70.8667 3.61267 69.9341C3.655 69.7018 3.69733 69.4519 3.75377 69.188C3.81727 68.9276 3.88781 68.6496 3.95836 68.3575C4.10652 67.7697 4.27936 67.1187 4.48042 66.3902C5.27762 63.4833 6.67802 59.4257 9.35887 54.0447C9.70103 53.3761 10.0538 52.6828 10.4242 51.9614C10.7981 51.247 11.2355 50.5361 11.6658 49.783C12.1032 49.0369 12.5477 48.2626 13.0274 47.4743C13.5354 46.7036 14.0574 45.9048 14.6006 45.0848C14.8722 44.6766 15.1509 44.2578 15.4296 43.8355C15.7188 43.4167 16.0328 43.0084 16.3397 42.5861C16.964 41.745 17.606 40.8793 18.2692 39.9854C19.6907 38.2751 21.137 36.4169 22.8584 34.6151Z"></path>
<path fill="#018D43" d="M39.8391 176.968C41.7615 178.34 43.7581 179.519 45.6911 180.712C46.6752 181.279 47.6665 181.81 48.64 182.349C49.1303 182.616 49.6101 182.887 50.1004 183.144C50.5942 183.387 51.0881 183.626 51.5784 183.866C52.5625 184.337 53.5255 184.83 54.4991 185.27C55.4832 185.689 56.4568 186.107 57.4233 186.519C57.9101 186.716 58.3793 186.945 58.8696 187.117C59.3564 187.297 59.8396 187.476 60.3229 187.656C61.2894 188.008 62.2383 188.374 63.1907 188.698C70.8382 191.238 78.1576 192.636 84.9514 193.22C91.7523 193.804 98.0241 193.586 103.742 192.903C104.458 192.819 105.164 192.734 105.862 192.65C106.561 192.541 107.245 192.417 107.926 192.301C109.284 192.055 110.621 191.868 111.908 191.541C113.199 191.238 114.466 190.971 115.693 190.647C116.914 190.295 118.106 189.95 119.277 189.613C119.862 189.454 120.43 189.243 120.995 189.049C121.559 188.852 122.117 188.659 122.667 188.465C123.217 188.272 123.764 188.078 124.304 187.888C124.833 187.67 125.358 187.455 125.877 187.244C126.91 186.808 127.937 186.414 128.917 185.963C129.887 185.499 130.843 185.041 131.778 184.591C132.72 184.161 133.602 183.644 134.48 183.169C135.351 182.68 136.219 182.229 137.041 181.726C137.856 181.216 138.657 180.712 139.443 180.22C139.835 179.97 140.226 179.731 140.604 179.477C140.978 179.213 141.348 178.953 141.715 178.692C147.595 174.568 152.16 170.239 156.001 165.738C156.992 164.644 157.969 163.38 159.063 162.12C159.331 161.8 159.62 161.49 159.881 161.153C160.149 160.818 160.417 160.477 160.693 160.132C161.246 159.453 161.811 158.756 162.386 158.049C162.936 157.32 163.5 156.578 164.072 155.824C164.361 155.451 164.65 155.071 164.943 154.691C165.229 154.304 165.497 153.903 165.783 153.509C166.347 152.717 166.918 151.918 167.497 151.109C168.04 150.278 168.594 149.437 169.148 148.589C169.423 148.163 169.719 147.751 169.98 147.315C170.241 146.879 170.506 146.439 170.77 145.999C171.035 145.559 171.303 145.122 171.568 144.679C171.836 144.239 172.111 143.803 172.347 143.342C172.845 142.437 173.345 141.529 173.846 140.621C174.107 140.174 174.33 139.703 174.559 139.238L175.25 137.845L175.945 136.458C176.171 135.994 176.368 135.515 176.58 135.047C177 134.107 177.416 133.168 177.832 132.239C178.559 130.335 179.374 128.487 179.97 126.608C181.321 122.906 182.238 119.249 183.056 115.92C183.226 115.079 183.388 114.259 183.55 113.46C183.702 112.661 183.885 111.89 184.002 111.134C184.231 109.62 184.443 108.209 184.637 106.921C184.774 105.623 184.898 104.447 185.007 103.416C185.035 103.159 185.064 102.909 185.088 102.666C185.113 102.427 185.117 102.195 185.134 101.973C185.159 101.53 185.184 101.121 185.205 100.755C185.296 99.2915 185.346 98.4821 185.346 98.4821C186.012 97.7641 186.616 97.8592 187.155 98.7108C187.423 99.1366 187.681 99.7525 187.921 100.548C188.041 100.946 188.157 101.389 188.27 101.875C188.323 102.117 188.379 102.374 188.436 102.638C188.489 102.902 188.52 103.177 188.559 103.465C188.714 104.609 188.845 105.922 188.954 107.393C189.004 108.86 189 110.483 188.983 112.253C188.782 115.769 188.425 119.879 187.423 124.345C186.468 128.814 185.078 133.699 182.982 138.696C180.912 143.704 178.227 148.863 174.883 153.91C171.543 158.957 167.546 163.883 162.957 168.441C158.371 173.002 153.2 177.186 147.602 180.8C142.008 184.415 135.997 187.459 129.799 189.803C123.602 192.15 117.231 193.811 110.956 194.81C98.3804 196.834 86.2989 196.074 76.2387 194.068C74.9864 193.783 73.7589 193.501 72.5631 193.23C72.2633 193.16 71.967 193.093 71.6706 193.026C71.3779 192.945 71.0886 192.864 70.7994 192.783C70.2209 192.621 69.6494 192.46 69.085 192.301C66.8134 191.71 64.7287 190.932 62.7392 190.274C61.755 189.922 60.8203 189.532 59.9067 189.18C59.4516 189 59.0036 188.824 58.5662 188.652C58.3475 188.564 58.1288 188.479 57.9172 188.391C57.7055 188.296 57.4974 188.201 57.2928 188.11C56.4674 187.737 55.6737 187.378 54.9189 187.036C54.5414 186.864 54.171 186.695 53.8112 186.533C53.4479 186.371 53.1128 186.181 52.7742 186.016C51.4373 185.326 50.2344 184.721 49.2044 184.168C48.192 183.584 47.3278 183.084 46.6294 182.68C45.9345 182.271 45.3877 181.972 45.0385 181.744C44.6858 181.518 44.5059 181.399 44.5059 181.399C43.5535 180.793 42.654 180.22 41.8074 179.681C41.3806 179.417 40.982 179.139 40.5975 178.861C40.213 178.587 39.8391 178.323 39.4793 178.069C38.7597 177.556 38.0895 177.077 37.4616 176.627C36.8584 176.148 36.2975 175.708 35.779 175.296C35.264 174.885 34.7878 174.501 34.3539 174.153C34.1352 173.977 33.9306 173.808 33.7331 173.649C33.5426 173.48 33.3627 173.318 33.1899 173.164C32.502 172.548 31.9588 172.048 31.5425 171.657C29.8776 170.088 30.2268 170.204 31.4226 171.045C32.0223 171.467 32.8301 172.069 33.7084 172.738C34.1387 173.079 34.6185 173.399 35.0911 173.73C35.5603 174.061 36.033 174.392 36.4845 174.709C36.936 175.025 37.3663 175.331 37.7614 175.609C38.153 175.895 38.5304 176.113 38.8373 176.32C39.4511 176.715 39.8391 176.968 39.8391 176.968Z"></path>
<path fill="#018D43" d="M49.268 173.73C49.85 173.934 50.8025 174.293 52.0371 174.828C52.6544 175.096 53.3387 175.412 54.0935 175.754C54.8625 176.067 55.7021 176.415 56.5945 176.799C60.1854 178.291 64.8381 180.093 70.2316 181.553C75.618 183.025 81.7381 184.144 88.0663 184.601C94.391 185.073 100.917 184.893 107.04 184.126C113.171 183.369 118.9 182.029 123.771 180.533C126.223 179.822 128.427 178.984 130.424 178.295C131.404 177.904 132.329 177.545 133.193 177.218C133.623 177.049 134.046 176.908 134.438 176.743C134.83 176.577 135.207 176.422 135.567 176.275C138.466 175.141 140.216 174.452 140.544 174.772C140.706 174.927 140.498 175.317 139.867 175.979C139.246 176.665 138.145 177.524 136.54 178.685C133.309 180.948 129.101 183.461 123.997 185.579C118.91 187.719 112.97 189.549 106.511 190.682C100.06 191.819 93.1035 192.291 86.1086 191.872C79.1137 191.471 72.0976 190.221 65.5295 188.275C58.9544 186.34 52.8413 183.711 47.5114 180.8C42.1743 177.897 37.6275 174.716 33.966 171.819C33.063 171.08 32.2023 170.373 31.3839 169.704C30.5797 169.021 29.8565 168.335 29.1581 167.712C28.8124 167.399 28.4773 167.096 28.1563 166.804C27.994 166.657 27.8388 166.516 27.6836 166.375C27.5355 166.227 27.3909 166.083 27.2498 165.942C26.6818 165.376 26.1633 164.858 25.6942 164.39C25.2285 163.922 24.8123 163.507 24.4525 163.144C24.1103 162.768 23.8176 162.448 23.5812 162.191C23.1121 161.673 22.8652 161.399 22.8652 161.399C21.1438 159.593 19.694 157.739 18.276 156.025C17.6128 155.131 16.9708 154.265 16.3465 153.424C16.0396 153.002 15.7256 152.59 15.4364 152.175C15.1542 151.753 14.879 151.334 14.6074 150.926C14.0677 150.102 13.5421 149.307 13.0342 148.533C12.5509 147.744 12.11 146.97 11.6726 146.224C11.2423 145.474 10.8049 144.76 10.4309 144.046C10.0641 143.328 9.70782 142.634 9.36566 141.962C6.68128 136.578 5.28442 132.524 4.48722 129.62C4.28615 128.892 4.11331 128.241 3.96516 127.653C3.89108 127.361 3.82406 127.083 3.76056 126.822C3.7006 126.562 3.6618 126.312 3.61594 126.076C3.45015 125.144 3.35138 124.454 3.29142 123.947C3.17501 122.934 3.22439 122.656 3.22439 122.656C3.61241 123.828 3.99338 124.982 4.37081 126.122C4.76941 127.255 5.22445 128.35 5.64069 129.437C5.85586 129.979 6.05693 130.521 6.28621 131.049C6.52255 131.573 6.75889 132.094 6.9917 132.608C7.22451 133.122 7.45732 133.636 7.69013 134.142C7.92294 134.649 8.14164 135.156 8.4062 135.642C8.91415 136.616 9.41504 137.577 9.90889 138.524C10.0323 138.76 10.1558 138.995 10.2793 139.228C10.4133 139.456 10.5474 139.685 10.6814 139.91C10.9495 140.361 11.214 140.811 11.4751 141.258C11.7396 141.702 12.0007 142.142 12.2617 142.582C12.3922 142.8 12.5227 143.018 12.6532 143.233C12.7943 143.444 12.9319 143.651 13.0695 143.863C13.6268 144.697 14.1736 145.513 14.7133 146.322C15.2353 147.139 15.8385 147.885 16.3923 148.642C16.9602 149.391 17.4999 150.134 18.0643 150.845C18.6463 151.538 19.2178 152.224 19.7822 152.896C20.3466 153.565 20.8898 154.23 21.4824 154.839C22.0609 155.455 22.6288 156.06 23.1897 156.655C23.4719 156.951 23.7435 157.246 24.0257 157.531C24.3149 157.809 24.6007 158.084 24.8864 158.355C26.0363 159.432 27.0946 160.501 28.2304 161.42C32.6326 165.221 36.728 167.941 40.3083 169.859C40.7528 170.102 41.1867 170.338 41.6064 170.57C42.0262 170.799 42.4636 170.985 42.8728 171.186C43.7017 171.573 44.4848 171.932 45.2256 172.259C45.9558 172.601 46.6965 172.843 47.3667 173.09C48.0405 173.326 48.6719 173.54 49.268 173.73Z"></path>
<path fill="#018D43" d="M23.2708 45.2502C23.7646 44.8596 24.1385 44.6238 24.3995 44.5288C24.6711 44.4373 24.8264 44.483 24.8828 44.6414C24.9886 44.9511 24.7488 45.7535 24.2267 46.8655C23.9692 47.4216 23.6447 48.0621 23.2637 48.7624C22.9074 49.4768 22.5194 50.2686 22.0855 51.1027C21.8668 51.518 21.6411 51.9438 21.4083 52.3837C21.1684 52.8166 20.9673 53.2881 20.7381 53.7527C20.283 54.6817 19.8103 55.646 19.3271 56.6279C17.4646 60.5835 15.7996 64.9121 14.6391 68.2624C14.1135 69.9552 13.6691 71.3875 13.3587 72.3975C13.0906 73.4181 12.9318 74.0129 12.9318 74.0129C11.3233 80.1187 10.3815 86.2528 10.0217 91.9715C9.65485 97.6903 9.85592 102.983 10.2827 107.449C10.4133 108.565 10.5402 109.631 10.6566 110.641C10.7025 111.148 10.7977 111.637 10.8753 112.112C10.953 112.587 11.0306 113.048 11.1046 113.495C11.1787 113.942 11.2493 114.375 11.3163 114.79C11.3516 114.998 11.3833 115.202 11.415 115.403C11.4574 115.6 11.4997 115.797 11.542 115.987C11.7043 116.75 11.856 117.451 11.99 118.081C12.1276 118.711 12.2334 119.277 12.3533 119.763C12.4803 120.245 12.5897 120.657 12.6743 120.991C12.8472 121.656 12.9389 122.012 12.9389 122.012C12.9389 122.012 13.0941 122.606 13.3657 123.627C13.6797 124.637 14.1241 126.069 14.6462 127.759C15.8067 131.105 17.4752 135.434 19.3341 139.39C19.8139 140.371 20.2901 141.336 20.7451 142.265C20.9779 142.729 21.1755 143.201 21.4189 143.634C21.6517 144.074 21.8774 144.5 22.0961 144.915C22.53 145.745 22.918 146.537 23.2743 147.252C23.6517 147.952 23.9762 148.589 24.2337 149.145C24.7523 150.257 24.9957 151.059 24.8898 151.369C24.8334 151.527 24.6747 151.57 24.4031 151.482C24.1385 151.387 23.7681 151.151 23.2743 150.76C22.5512 150.187 21.7998 149.557 21.0238 148.877C20.2689 148.184 19.5281 147.417 18.7486 146.618C18.3641 146.213 17.962 145.809 17.581 145.376C17.2106 144.936 16.8332 144.485 16.4522 144.031C16.0748 143.57 15.6938 143.102 15.3058 142.627C15.1153 142.388 14.9143 142.152 14.7344 141.902C14.5545 141.652 14.371 141.399 14.1911 141.146C13.4715 140.125 12.7131 139.083 12.0077 137.989C11.3233 136.884 10.639 135.747 9.95116 134.593C9.30564 133.421 8.69187 132.217 8.06751 131.007C7.74298 130.405 7.47137 129.782 7.19623 129.159L6.36728 127.283C4.21908 122.251 2.6529 116.993 1.62994 112.13C1.40771 110.905 1.19254 109.715 0.980891 108.561C0.931506 108.273 0.875067 107.988 0.832738 107.702C0.797464 107.417 0.76219 107.132 0.726915 106.854C0.656366 106.291 0.589345 105.742 0.522324 105.2C0.45883 104.658 0.395336 104.13 0.331842 103.617C0.303623 103.36 0.268349 103.103 0.247184 102.849C0.229547 102.596 0.21191 102.346 0.1978 102.1C0.134306 101.114 0.0743396 100.182 0.0214281 99.3126C-0.0209011 98.0457 0.053175 96.7823 0.0955042 95.5154C0.162526 94.618 0.194272 93.6643 0.303623 92.6683C0.423556 91.6724 0.550543 90.6307 0.681059 89.5468C0.755135 89.0048 0.800991 88.4523 0.903287 87.8962C1.00206 87.3402 1.10435 86.7736 1.20665 86.2C1.31247 85.6263 1.41829 85.0457 1.52412 84.4544C1.57703 84.1588 1.63347 83.8632 1.68991 83.5676C1.74987 83.272 1.82748 82.9728 1.89802 82.6737C2.18727 81.4842 2.48358 80.263 2.78341 79.0243C3.1291 77.796 3.52064 76.5608 3.90161 75.315C3.99685 75.0053 4.09562 74.6921 4.19086 74.3789C4.29668 74.0692 4.41661 73.7595 4.52949 73.4498C4.75877 72.8339 4.98806 72.211 5.21734 71.5916C5.45368 70.9723 5.67238 70.3494 5.92635 69.7335C6.19444 69.1247 6.46253 68.5158 6.73061 67.907L7.54192 66.0876C7.67244 65.7849 7.82059 65.4858 7.9758 65.1937L8.43083 64.3104C8.73419 63.7262 9.04108 63.142 9.34444 62.5613L9.80301 61.6956C9.96174 61.4105 10.1346 61.1325 10.2968 60.8545C10.9671 59.7389 11.6267 58.6409 12.3004 57.5781C13.0165 56.5364 13.7326 55.5193 14.4381 54.5375C14.7802 54.0412 15.1647 53.5732 15.5386 53.1122C15.9125 52.6547 16.2829 52.2042 16.6498 51.7573C17.0201 51.3138 17.3799 50.881 17.7468 50.4622C18.1313 50.0575 18.5122 49.6598 18.8862 49.2656C19.6446 48.4949 20.3571 47.7489 21.0979 47.0802C21.8386 46.4186 22.5653 45.8062 23.2708 45.2502Z"></path>
</g>
<path fill="#CA2C3B" d="M127.812 87.1063C127.812 90.3 127.353 93.4719 126.456 96.5016C125.559 99.5422 124.225 102.441 122.486 105.131C118.089 111.934 112.019 117.48 104.855 121.253L95 126.438L85.1453 121.253C77.9812 117.48 71.9109 111.934 67.5141 105.131C66.7156 103.884 65.9937 102.605 65.3703 101.281H77.5766L78.5938 100.188L85.1562 114.406L90.625 94.7188L95 101.281H105.445C106.211 102.583 107.6 103.469 109.219 103.469C111.636 103.469 113.594 101.511 113.594 99.0938C113.594 96.6766 111.636 94.7188 109.219 94.7188C107.6 94.7188 106.211 95.6047 105.445 96.9062H97.1875L89.5312 83.7812L84.0625 102.375L78.5938 91.4375L75.2359 96.9062H63.675C63.6203 96.775 63.5875 96.6328 63.5438 96.5016C62.6469 93.4719 62.1875 90.3 62.1875 87.1063C62.1875 84.1969 62.8656 81.3313 64.1672 78.7391C65.5781 75.9281 67.7109 73.6313 70.2812 72.0453C72.8625 70.4484 75.8594 69.5625 79.0094 69.5625C82.4875 69.5625 85.7906 70.6562 88.525 72.5594C91.2484 74.4734 93.4031 77.2078 94.5953 80.4891L95 81.5938L95.4047 80.4891C96.5969 77.2078 98.7516 74.4734 101.475 72.5594C104.209 70.6562 107.512 69.5625 110.991 69.5625C114.141 69.5625 117.137 70.4484 119.719 72.0453C122.289 73.6313 124.422 75.9281 125.833 78.7391C127.134 81.3313 127.812 84.1969 127.812 87.1063Z"></path>
<path fill="#E92834" d="M119.719 72.0453C117.137 70.4484 114.141 69.5625 110.991 69.5625C107.512 69.5625 104.209 70.6562 101.475 72.5594C98.7516 74.4734 96.5969 77.2078 95.4047 80.4891L95 81.5938L94.5953 80.4891C93.4031 77.2078 91.2484 74.4734 88.525 72.5594C85.7906 70.6562 82.4875 69.5625 79.0094 69.5625C78.9645 69.5625 78.9208 69.5669 78.8759 69.5669C77.2878 73.6356 76.4062 78.0566 76.4062 82.6875C76.4062 86.1623 76.9006 89.5223 77.8172 92.7019L78.5938 91.4375L84.0625 102.375L89.5312 83.7812L97.1875 96.9062H105.445C106.211 95.6047 107.6 94.7188 109.219 94.7188C111.636 94.7188 113.594 96.6766 113.594 99.0938C113.594 101.511 111.636 103.469 109.219 103.469C107.6 103.469 106.211 102.583 105.445 101.281H95L90.625 94.7188L86.9019 108.123C92.7152 113.971 100.518 117.841 109.211 118.626C114.485 115.076 119.013 110.505 122.486 105.131C124.225 102.441 125.559 99.5422 126.456 96.5016C127.353 93.4719 127.812 90.3 127.812 87.1063C127.812 84.1969 127.134 81.3313 125.833 78.7391C124.422 75.9281 122.289 73.6313 119.719 72.0453Z"></path>
<path fill="#CA2C3B" d="M109.154 75.6153C109.782 73.3589 115.752 72.6162 120.198 77.0328C124.644 81.4493 123.906 87.4267 121.602 88.0654C119.299 88.7042 116.772 85.8714 114.07 83.1381C111.368 80.4037 108.527 77.8717 109.154 75.6153Z"></path>
<path fill="black" d="M120.294 71.1145C117.496 69.3842 114.28 68.4688 110.991 68.4688C107.358 68.4688 103.852 69.5734 100.846 71.6647C98.3053 73.4508 96.307 75.833 95 78.6144C93.693 75.8308 91.6947 73.4486 89.1495 71.6625C86.1483 69.5734 82.6417 68.4688 79.0094 68.4688C75.7205 68.4688 72.5037 69.3842 69.707 71.1145C66.9245 72.8306 64.6714 75.2981 63.1894 78.248C61.8178 80.9791 61.0938 84.0427 61.0938 87.1063C61.0938 90.4072 61.5652 93.672 62.5069 96.8472L62.5386 96.9533C62.5758 97.0802 62.6152 97.2092 62.6677 97.3328C62.8394 97.7375 63.2364 98 63.675 98H75.2359C75.6166 98 75.9687 97.802 76.1689 97.4783L78.4964 93.6862L83.0847 102.864C83.287 103.266 83.7027 103.511 84.1598 103.464C84.6072 103.425 84.9856 103.115 85.1114 102.683L89.8648 86.5244L96.2425 97.4575C96.4383 97.7944 96.7992 98 97.1875 98H105.445C105.832 98 106.192 97.7944 106.388 97.4608C106.995 96.4283 108.054 95.8125 109.219 95.8125C111.028 95.8125 112.5 97.2847 112.5 99.0938C112.5 100.903 111.028 102.375 109.219 102.375C108.054 102.375 106.995 101.759 106.388 100.727C106.191 100.393 105.832 100.188 105.445 100.188H95.5852L91.535 94.1117C91.2977 93.7562 90.8777 93.5659 90.4522 93.6381C90.03 93.7059 89.6866 94.0133 89.5706 94.4256L84.8992 111.241L79.5869 99.7292C79.4338 99.3978 79.1264 99.1648 78.7655 99.108C78.4144 99.0489 78.0403 99.1758 77.792 99.4437L77.1008 100.188H65.3703C64.9952 100.188 64.6473 100.379 64.4461 100.696C64.2448 101.012 64.2208 101.408 64.3805 101.748C64.9963 103.056 65.7411 104.394 66.5942 105.725C71.0764 112.661 77.3141 118.366 84.6345 122.221L94.4892 127.405C94.65 127.49 94.825 127.531 95 127.531C95.175 127.531 95.35 127.49 95.5097 127.405L105.364 122.221C112.685 118.366 118.923 112.661 123.405 105.725C125.203 102.944 126.582 99.9447 127.505 96.8133C128.435 93.672 128.906 90.4072 128.906 87.1063C128.906 84.0427 128.182 80.9791 126.811 78.248C125.329 75.2981 123.075 72.8306 120.294 71.1145ZM125.407 96.1931C124.543 99.1244 123.25 101.932 121.567 104.537C117.29 111.159 111.334 116.604 104.345 120.285L95 125.202L85.655 120.285C78.6659 116.604 72.7105 111.158 68.435 104.54C67.9723 103.818 67.5425 103.094 67.152 102.375H77.5766C77.8347 102.375 78.0841 102.283 78.2809 102.119L84.1631 114.865C84.3556 115.28 84.7712 115.53 85.2448 115.497C85.702 115.46 86.0881 115.141 86.2106 114.699L91.0395 97.3131L94.09 101.889C94.2934 102.192 94.6347 102.375 95 102.375H104.862C105.898 103.756 107.484 104.562 109.219 104.562C112.234 104.562 114.688 102.109 114.688 99.0938C114.688 96.0783 112.234 93.625 109.219 93.625C107.484 93.625 105.898 94.4311 104.862 95.8125H97.8164L90.4773 83.23C90.2575 82.8527 89.8408 82.6394 89.4 82.6952C88.9669 82.7487 88.6059 83.0539 88.4834 83.4728L83.7989 99.4L79.5737 90.9486C79.3966 90.5931 79.04 90.3623 78.643 90.3448C78.2448 90.3109 77.8708 90.5264 77.663 90.8655L74.6234 95.8125H64.4833C63.6848 92.9906 63.2812 90.0638 63.2812 87.1063C63.2812 84.3817 63.9255 81.6583 65.1439 79.2291C66.4433 76.6423 68.4186 74.4789 70.8577 72.975C73.3087 71.458 76.1273 70.6562 79.0094 70.6562C82.1933 70.6562 85.2678 71.6253 87.8961 73.4552C90.5145 75.2948 92.4756 77.8553 93.5694 80.8653L93.9741 81.97C94.1305 82.4009 94.5406 82.6875 95 82.6875C95.4594 82.6875 95.8695 82.4009 96.0259 81.97L96.4317 80.8631C97.5244 77.8553 99.4855 75.2937 102.1 73.4573C104.732 71.6253 107.807 70.6562 110.991 70.6562C113.873 70.6562 116.691 71.458 119.143 72.975C121.581 74.4789 123.557 76.6423 124.856 79.2291C126.075 81.6583 126.719 84.3817 126.719 87.1063C126.719 90.1961 126.278 93.252 125.407 96.1931Z"></path>
<defs>
<clipPath id="clip0_719_432">
<rect fill="white" height="196" width="189"></rect>
</clipPath>
</defs>
</svg>
