<svg xmlns="http://www.w3.org/2000/svg" fill="none" viewBox="0 0 189 196" height="196" width="189">
<g clip-path="url(#clip0_719_305)">
<path fill="#018D43" d="M44.4829 14.6087C44.4829 14.6087 45.1955 14.123 46.6029 13.3277C47.3014 12.923 48.1656 12.4268 49.178 11.839C50.208 11.2865 51.4108 10.6812 52.7477 9.99145C53.0864 9.82253 53.4215 9.63601 53.7848 9.47412C54.1446 9.30872 54.515 9.14332 54.8924 8.97087C55.6508 8.62951 56.441 8.27055 57.2699 7.89751C57.478 7.80601 57.6861 7.71099 57.8943 7.61597C58.1094 7.53151 58.3246 7.44353 58.5433 7.35555C58.9807 7.18311 59.4287 7.00714 59.8837 6.82766C60.7973 6.47574 61.7321 6.0851 62.7163 5.72966C64.7022 5.07509 66.7904 4.29382 69.0621 3.70259C69.6265 3.54422 70.198 3.38234 70.7764 3.22045C71.0657 3.13951 71.3549 3.05857 71.6477 2.97762C71.944 2.91076 72.2403 2.84038 72.5402 2.77351C73.7395 2.49901 74.967 2.22099 76.2158 1.93593C86.276 -0.0700283 98.3575 -0.833701 110.933 1.18986C117.208 2.18932 123.582 3.85039 129.78 6.19772C135.978 8.53801 141.992 11.5857 147.583 15.1999C153.177 18.8106 158.352 22.9985 162.938 27.5559C167.527 32.1133 171.527 37.0403 174.868 42.0868C178.212 47.1334 180.896 52.2926 182.967 57.3005C185.065 62.3013 186.455 67.186 187.411 71.6554C188.409 76.1213 188.769 80.2318 188.97 83.7475C188.991 85.5177 188.991 87.1435 188.942 88.6075C188.833 90.0821 188.702 91.3948 188.547 92.5385C188.505 92.8236 188.473 93.0981 188.423 93.3655C188.367 93.6295 188.311 93.8829 188.258 94.1292C188.145 94.6149 188.028 95.0583 187.908 95.456C187.669 96.2513 187.415 96.8672 187.143 97.293C186.603 98.1447 186.004 98.2432 185.333 97.5217C185.333 97.5217 185.284 96.7123 185.192 95.2483C185.171 94.8823 185.147 94.4776 185.122 94.0307C185.108 93.809 185.101 93.5767 185.076 93.3374C185.051 93.0981 185.023 92.8482 184.995 92.5878C184.885 91.5566 184.762 90.3812 184.624 89.0826C184.43 87.7946 184.215 86.3834 183.989 84.8701C183.873 84.1135 183.69 83.3428 183.538 82.5439C183.379 81.745 183.213 80.9251 183.044 80.084C182.226 76.7512 181.309 73.0983 179.958 69.3925C179.358 67.5133 178.547 65.6657 177.82 63.7618C177.404 62.8292 176.988 61.8931 176.568 60.9499C176.356 60.4819 176.159 60.0032 175.933 59.5387L175.238 58.1521L174.547 56.7585C174.314 56.294 174.095 55.8259 173.834 55.3754C173.333 54.4675 172.832 53.5595 172.335 52.6551C172.095 52.1976 171.823 51.7577 171.555 51.3178C171.287 50.8779 171.023 50.438 170.758 49.9981C170.494 49.5582 170.229 49.1183 169.968 48.6819C169.707 48.2455 169.411 47.8302 169.135 47.4079C168.582 46.5598 168.028 45.7187 167.485 44.8881C166.906 44.0787 166.335 43.2763 165.77 42.4845C165.488 42.0903 165.216 41.6856 164.931 41.302C164.638 40.922 164.349 40.5454 164.059 40.1689C163.488 39.4122 162.927 38.6697 162.373 37.9412C161.795 37.2303 161.23 36.537 160.677 35.8543C160.402 35.5094 160.133 35.168 159.865 34.8337C159.601 34.4923 159.312 34.1862 159.043 33.8659C157.95 32.6025 156.973 31.3391 155.978 30.2481C152.133 25.7435 147.572 21.4184 141.692 17.2974C141.325 17.0369 140.955 16.7765 140.581 16.5126C140.2 16.2592 139.808 16.0199 139.42 15.77C138.634 15.2773 137.833 14.7741 137.018 14.2638C136.196 13.7605 135.329 13.3101 134.461 12.8209C133.586 12.3458 132.701 11.8285 131.762 11.3991C130.828 10.9522 129.872 10.4947 128.902 10.0302C127.921 9.5797 126.898 9.18555 125.864 8.74916C125.346 8.53449 124.82 8.31982 124.291 8.10514C123.751 7.9151 123.208 7.72155 122.658 7.52799C122.108 7.33443 121.55 7.14087 120.986 6.9438C120.422 6.75024 119.854 6.53909 119.268 6.38072C118.097 6.04287 116.901 5.69799 115.684 5.34959C114.457 5.02582 113.19 4.75836 111.899 4.4557C110.612 4.13193 109.275 3.94189 107.917 3.69555C107.236 3.57941 106.548 3.45624 105.853 3.34714C105.155 3.26268 104.446 3.17822 103.733 3.09376C98.0153 2.41103 91.7435 2.19284 84.9391 2.77703C78.1417 3.36122 70.8223 4.75836 63.1713 7.30276C62.2189 7.63005 61.27 7.99605 60.3035 8.34797C59.8202 8.52745 59.337 8.70693 58.8502 8.88641C58.3599 9.05885 57.8872 9.28409 57.4039 9.48468C56.4374 9.89643 55.4639 10.3152 54.4797 10.734C53.5061 11.1739 52.5396 11.6666 51.5555 12.1382C51.0651 12.3775 50.5713 12.6203 50.0739 12.8596C49.5871 13.1165 49.1039 13.3875 48.6136 13.655C47.64 14.1969 46.6453 14.7248 45.6611 15.2949C44.6946 15.8897 43.714 16.4915 42.7298 17.1003C42.4829 17.2516 42.236 17.4065 41.989 17.5578C41.7421 17.7126 41.5058 17.8851 41.2624 18.047C40.7791 18.3778 40.2959 18.7086 39.8056 19.0429C39.8056 19.0429 39.4175 19.2928 38.8002 19.6904C38.1724 20.074 37.3505 20.6653 36.451 21.2987C35.9995 21.6155 35.5303 21.9463 35.0576 22.2736C34.5885 22.6044 34.1088 22.9246 33.6784 23.266C32.8036 23.9311 31.9923 24.5329 31.3962 24.9517C30.2039 25.7928 29.8547 25.9089 31.5196 24.3394C31.9359 23.9487 32.4791 23.449 33.1669 22.8331C33.3398 22.6783 33.5197 22.5164 33.7102 22.3475C33.9077 22.1856 34.1158 22.0202 34.331 21.8442C34.7684 21.4958 35.2411 21.1157 35.7561 20.7005C36.2746 20.2922 36.8355 19.8488 37.4387 19.3702C38.063 18.9233 38.7368 18.4446 39.4528 17.9308C39.8126 17.6739 40.1865 17.41 40.571 17.139C40.9555 16.8645 41.3506 16.583 41.7774 16.3225C42.631 15.7876 43.5305 15.214 44.4829 14.6087Z"></path>
<path fill="#018D43" d="M22.8496 34.6085C22.8496 34.6085 23.0965 34.334 23.5656 33.8167C23.802 33.5598 24.0912 33.2395 24.4369 32.8629C24.7967 32.5005 25.213 32.0852 25.6786 31.6171C26.1477 31.1491 26.6663 30.6318 27.2342 30.0652C27.3753 29.9244 27.5199 29.7801 27.6681 29.6323C27.8233 29.4915 27.9785 29.3472 28.1407 29.2029C28.4617 28.9109 28.7968 28.6082 29.1425 28.295C29.8374 27.6721 30.5641 26.9894 31.3648 26.3031C32.1796 25.6344 33.0403 24.9271 33.9434 24.188C37.6048 21.2917 42.1482 18.1103 47.4852 15.207C52.8116 12.2966 58.9282 9.6677 65.4998 7.72861C72.0679 5.78247 79.0839 4.52963 86.0753 4.12843C93.0667 3.70613 100.026 4.1777 106.478 5.3109C112.933 6.44409 118.877 8.27409 123.964 10.4103C129.064 12.5324 133.276 15.0416 136.511 17.3044C138.112 18.4693 139.216 19.3245 139.837 20.0107C140.472 20.6723 140.677 21.063 140.518 21.2178C140.19 21.5381 138.44 20.8483 135.541 19.7151C135.181 19.5673 134.807 19.4089 134.412 19.247C134.02 19.0816 133.597 18.9409 133.167 18.7719C132.302 18.4447 131.378 18.0857 130.398 17.6951C128.401 17.0088 126.196 16.1712 123.745 15.4604C118.87 13.9682 113.145 12.6274 107.014 11.8707C100.891 11.1035 94.3648 10.9241 88.0401 11.3992C81.7119 11.8602 75.5953 12.9793 70.2089 14.4503C64.8155 15.9108 60.1628 17.7127 56.5719 19.2048C55.6759 19.5884 54.8399 19.9368 54.0709 20.25C53.316 20.5914 52.6317 20.9081 52.0144 21.1756C50.7833 21.7105 49.8309 22.0695 49.2489 22.2736C48.6563 22.4636 48.0214 22.6783 47.3441 22.9176C46.6703 23.1639 45.9366 23.4068 45.2029 23.7481C44.4622 24.0754 43.6756 24.4309 42.8501 24.8215C42.441 25.0186 42.0036 25.2051 41.5838 25.4374C41.1605 25.6696 40.7301 25.9054 40.2857 26.1483C36.7053 28.0662 32.61 30.7866 28.2077 34.5874C27.0719 35.5059 26.0137 36.5757 24.8637 37.6526C24.578 37.9236 24.2923 38.1981 24.003 38.4761C23.7209 38.7612 23.4492 39.0568 23.167 39.3524C22.6062 39.9472 22.0383 40.5525 21.4598 41.1683C20.8672 41.7772 20.3239 42.4423 19.7595 43.1109C19.1952 43.7831 18.6237 44.4694 18.0417 45.1627C17.4808 45.8735 16.9376 46.6196 16.3697 47.3657C15.8159 48.1223 15.2127 48.8684 14.6906 49.6849C14.1509 50.4908 13.6042 51.3108 13.0468 52.1448C12.9093 52.3524 12.7682 52.5636 12.6306 52.7747C12.5001 52.9929 12.3731 53.2076 12.2426 53.4258C11.9815 53.8622 11.7205 54.3056 11.456 54.749C11.1914 55.196 10.9268 55.6429 10.6623 56.0969C10.5282 56.3221 10.3977 56.5509 10.2637 56.7796C10.1402 57.0154 10.0168 57.2477 9.8933 57.4835C9.39946 58.4302 8.89857 59.3909 8.39062 60.3657C8.12606 60.8514 7.90736 61.3582 7.67455 61.8649C7.44174 62.3717 7.20892 62.8855 6.97611 63.3993C6.7433 63.9166 6.50696 64.4375 6.27063 64.9618C6.04487 65.4897 5.84381 66.0317 5.62863 66.5737C5.2124 67.6611 4.75383 68.7556 4.35876 69.8888C3.98132 71.029 3.60036 72.1833 3.21234 73.3552C3.21234 73.3552 3.16648 73.0737 3.27936 72.0601C3.3358 71.5534 3.4381 70.8601 3.60389 69.9275C3.64621 69.6952 3.68854 69.4453 3.74498 69.1814C3.80848 68.921 3.87903 68.643 3.94957 68.3509C4.09773 67.7632 4.27057 67.1121 4.47163 66.3836C5.26883 63.4767 6.66923 59.4191 9.35008 54.0382C9.69224 53.3695 10.045 52.6762 10.4154 51.9548C10.7893 51.2404 11.2267 50.5295 11.657 49.7764C12.0944 49.0303 12.5389 48.2561 13.0186 47.4677C13.5266 46.697 14.0486 45.8982 14.5918 45.0782C14.8635 44.67 15.1421 44.2512 15.4208 43.8289C15.71 43.4101 16.024 43.0018 16.3309 42.5795C16.9552 41.7384 17.5972 40.8727 18.2604 39.9788C19.6819 38.2685 21.1282 36.4103 22.8496 34.6085Z"></path>
<path fill="#018D43" d="M39.8304 176.961C41.7529 178.334 43.7494 179.513 45.6824 180.706C46.6666 181.272 47.6578 181.804 48.6314 182.342C49.1217 182.61 49.6014 182.881 50.0917 183.138C50.5856 183.38 51.0794 183.62 51.5697 183.859C52.5539 184.331 53.5169 184.823 54.4904 185.263C55.4746 185.682 56.4481 186.101 57.4147 186.513C57.9015 186.71 58.3706 186.938 58.8609 187.111C59.3477 187.29 59.831 187.47 60.3142 187.649C61.2807 188.001 62.2296 188.367 63.182 188.691C70.8295 191.232 78.1489 192.629 84.9428 193.213C91.7437 193.797 98.0155 193.579 103.733 192.896C104.45 192.812 105.155 192.727 105.853 192.643C106.552 192.534 107.236 192.411 107.917 192.295C109.275 192.048 110.612 191.862 111.899 191.534C113.19 191.232 114.457 190.964 115.684 190.641C116.905 190.289 118.097 189.944 119.268 189.606C119.854 189.448 120.422 189.236 120.986 189.043C121.551 188.846 122.108 188.652 122.658 188.459C123.208 188.265 123.755 188.072 124.295 187.882C124.824 187.663 125.35 187.449 125.868 187.237C126.902 186.801 127.928 186.407 128.909 185.956C129.879 185.492 130.835 185.034 131.769 184.584C132.711 184.155 133.593 183.637 134.472 183.162C135.343 182.673 136.211 182.223 137.032 181.719C137.847 181.209 138.648 180.706 139.435 180.213C139.826 179.963 140.218 179.724 140.595 179.471C140.969 179.207 141.339 178.946 141.706 178.686C147.587 174.561 152.151 170.233 155.992 165.731C156.984 164.637 157.961 163.374 159.054 162.114C159.322 161.793 159.612 161.484 159.873 161.146C160.141 160.812 160.409 160.47 160.684 160.125C161.238 159.446 161.802 158.749 162.377 158.042C162.927 157.313 163.492 156.571 164.063 155.818C164.352 155.445 164.642 155.065 164.934 154.685C165.22 154.297 165.488 153.896 165.774 153.502C166.338 152.71 166.91 151.911 167.488 151.102C168.032 150.271 168.585 149.43 169.139 148.582C169.414 148.156 169.711 147.745 169.972 147.308C170.233 146.872 170.497 146.432 170.762 145.992C171.026 145.552 171.294 145.116 171.559 144.672C171.827 144.232 172.102 143.796 172.339 143.335C172.836 142.431 173.337 141.523 173.838 140.615C174.099 140.168 174.321 139.696 174.55 139.232L175.242 137.838L175.937 136.451C176.162 135.987 176.36 135.508 176.571 135.04C176.991 134.101 177.407 133.161 177.824 132.232C178.55 130.328 179.365 128.48 179.961 126.601C181.312 122.899 182.229 119.242 183.048 115.913C183.217 115.072 183.379 114.252 183.542 113.453C183.693 112.654 183.877 111.884 183.993 111.127C184.222 109.614 184.434 108.203 184.628 106.915C184.766 105.616 184.889 104.441 184.998 103.409C185.027 103.153 185.055 102.903 185.08 102.66C185.104 102.421 185.108 102.188 185.125 101.967C185.15 101.523 185.175 101.115 185.196 100.749C185.288 99.2849 185.337 98.4755 185.337 98.4755C186.004 97.7575 186.607 97.8526 187.147 98.7042C187.415 99.13 187.672 99.7459 187.912 100.541C188.032 100.939 188.148 101.382 188.261 101.868C188.314 102.111 188.371 102.368 188.427 102.632C188.48 102.896 188.512 103.17 188.551 103.459C188.706 104.602 188.836 105.915 188.946 107.386C188.995 108.854 188.992 110.476 188.974 112.246C188.773 115.762 188.417 119.872 187.415 124.338C186.459 128.808 185.069 133.692 182.974 138.69C180.903 143.698 178.219 148.857 174.875 153.903C171.534 158.95 167.538 163.877 162.948 168.434C158.363 172.995 153.192 177.18 147.594 180.794C141.999 184.408 135.988 187.452 129.791 189.796C123.593 192.143 117.222 193.804 110.947 194.804C98.3717 196.827 86.2903 196.067 76.23 194.061C74.9778 193.776 73.7502 193.495 72.5544 193.224C72.2546 193.153 71.9583 193.086 71.662 193.02C71.3692 192.939 71.08 192.858 70.7907 192.777C70.2122 192.615 69.6408 192.453 69.0764 192.295C66.8047 191.703 64.72 190.926 62.7305 190.268C61.7464 189.916 60.8116 189.525 59.898 189.173C59.4429 188.994 58.995 188.818 58.5576 188.645C58.3389 188.557 58.1202 188.473 57.9085 188.385C57.6969 188.29 57.4887 188.195 57.2842 188.103C56.4587 187.73 55.6651 187.371 54.9102 187.03C54.5328 186.857 54.1624 186.688 53.8026 186.527C53.4393 186.365 53.1041 186.175 52.7655 186.009C51.4286 185.32 50.2258 184.714 49.1957 184.162C48.1834 183.577 47.3192 183.078 46.6207 182.673C45.9258 182.265 45.3791 181.966 45.0298 181.737C44.6771 181.512 44.4972 181.392 44.4972 181.392C43.5448 180.787 42.6453 180.213 41.7987 179.675C41.3719 179.411 40.9733 179.133 40.5888 178.855C40.2043 178.58 39.8304 178.316 39.4706 178.063C38.751 177.549 38.0808 177.07 37.4529 176.62C36.8497 176.141 36.2889 175.701 35.7703 175.29C35.2553 174.878 34.7791 174.494 34.3452 174.146C34.1265 173.97 33.9219 173.801 33.7244 173.643C33.5339 173.474 33.354 173.312 33.1812 173.157C32.4933 172.541 31.9501 172.041 31.5339 171.651C29.8689 170.081 30.2181 170.197 31.4139 171.038C32.0136 171.461 32.8214 172.063 33.6997 172.731C34.1301 173.073 34.6098 173.393 35.0825 173.724C35.5516 174.054 36.0243 174.385 36.4758 174.702C36.9273 175.019 37.3577 175.325 37.7527 175.603C38.1443 175.888 38.5217 176.106 38.8286 176.314C39.4424 176.708 39.8304 176.961 39.8304 176.961Z"></path>
<path fill="#018D43" d="M49.2591 173.724C49.8411 173.928 50.7935 174.287 52.0281 174.822C52.6454 175.089 53.3298 175.406 54.0846 175.747C54.8536 176.06 55.6931 176.409 56.5856 176.792C60.1765 178.285 64.8292 180.086 70.2227 181.547C75.6091 183.018 81.7292 184.137 88.0574 184.595C94.3821 185.066 100.908 184.887 107.031 184.119C113.162 183.363 118.891 182.022 123.762 180.526C126.214 179.815 128.418 178.978 130.415 178.288C131.395 177.897 132.32 177.538 133.184 177.211C133.614 177.042 134.037 176.901 134.429 176.736C134.821 176.571 135.198 176.416 135.558 176.268C138.457 175.135 140.207 174.445 140.535 174.765C140.697 174.92 140.489 175.311 139.858 175.972C139.237 176.659 138.136 177.517 136.531 178.679C133.3 180.942 129.092 183.454 123.988 185.573C118.901 187.713 112.961 189.543 106.502 190.676C100.051 191.812 93.0946 192.284 86.0996 191.865C79.1047 191.464 72.0887 190.215 65.5206 188.269C58.9454 186.333 52.8324 183.704 47.5024 180.794C42.1654 177.89 37.6186 174.709 33.9571 171.813C33.0541 171.074 32.1934 170.366 31.375 169.698C30.5707 169.015 29.8476 168.329 29.1492 167.706C28.8035 167.393 28.4684 167.09 28.1474 166.798C27.9851 166.65 27.8299 166.509 27.6747 166.368C27.5266 166.221 27.3819 166.076 27.2408 165.936C26.6729 165.369 26.1544 164.852 25.6852 164.384C25.2196 163.916 24.8034 163.5 24.4436 163.138C24.1014 162.761 23.8087 162.441 23.5723 162.184C23.1032 161.667 22.8562 161.392 22.8562 161.392C21.1349 159.587 19.6851 157.732 18.2671 156.018C17.6039 155.125 16.9619 154.259 16.3375 153.418C16.0307 152.995 15.7167 152.584 15.4275 152.168C15.1453 151.746 14.8701 151.327 14.5985 150.919C14.0588 150.096 13.5332 149.3 13.0253 148.526C12.542 147.738 12.1011 146.963 11.6637 146.217C11.2333 145.468 10.7959 144.753 10.422 144.039C10.0552 143.321 9.69891 142.628 9.35675 141.956C6.67237 136.571 5.27551 132.517 4.47831 129.614C4.27724 128.885 4.1044 128.234 3.95624 127.646C3.88217 127.354 3.81515 127.076 3.75165 126.816C3.69169 126.555 3.65289 126.306 3.60703 126.07C3.44124 125.137 3.34247 124.447 3.2825 123.941C3.1661 122.927 3.21548 122.649 3.21548 122.649C3.6035 123.821 3.98446 124.975 4.3619 126.115C4.7605 127.249 5.21554 128.343 5.63178 129.431C5.84695 129.973 6.04801 130.515 6.2773 131.042C6.51364 131.567 6.74997 132.088 6.98278 132.601C7.2156 133.115 7.44841 133.629 7.68122 134.136C7.91403 134.643 8.13273 135.149 8.39729 135.635C8.90524 136.61 9.40613 137.571 9.89997 138.517C10.0234 138.753 10.1469 138.989 10.2704 139.221C10.4044 139.45 10.5384 139.679 10.6725 139.904C10.9406 140.354 11.2051 140.805 11.4662 141.252C11.7307 141.695 11.9917 142.135 12.2528 142.575C12.3833 142.793 12.5138 143.011 12.6443 143.226C12.7854 143.437 12.923 143.645 13.0606 143.856C13.6179 144.69 14.1646 145.506 14.7043 146.316C15.2264 147.132 15.8296 147.878 16.3834 148.635C16.9513 149.385 17.491 150.127 18.0554 150.838C18.6374 151.531 19.2089 152.218 19.7733 152.89C20.3377 153.558 20.8809 154.224 21.4735 154.832C22.052 155.448 22.6199 156.054 23.1808 156.648C23.463 156.944 23.7346 157.24 24.0168 157.525C24.306 157.803 24.5917 158.077 24.8775 158.348C26.0274 159.425 27.0856 160.495 28.2215 161.413C32.6237 165.214 36.7191 167.934 40.2994 169.852C40.7439 170.095 41.1777 170.331 41.5975 170.563C42.0173 170.792 42.4547 170.979 42.8639 171.179C43.6928 171.566 44.4759 171.925 45.2167 172.253C45.9468 172.594 46.6876 172.837 47.3578 173.083C48.0316 173.319 48.663 173.534 49.2591 173.724Z"></path>
<path fill="#018D43" d="M23.262 45.2436C23.7558 44.853 24.1297 44.6172 24.3907 44.5222C24.6624 44.4307 24.8176 44.4764 24.874 44.6348C24.9798 44.9445 24.74 45.7469 24.2179 46.8589C23.9604 47.415 23.6359 48.0555 23.2549 48.7558C22.8986 49.4702 22.5106 50.262 22.0767 51.0961C21.858 51.5114 21.6323 51.9372 21.3995 52.3771C21.1596 52.81 20.9586 53.2815 20.7293 53.7461C20.2742 54.6752 19.8016 55.6394 19.3183 56.6213C17.4558 60.5769 15.7909 64.9056 14.6303 68.2559C14.1047 69.9486 13.6603 71.3809 13.3499 72.391C13.0818 73.4115 12.9231 74.0063 12.9231 74.0063C11.3145 80.1121 10.3727 86.2462 10.0129 91.9649C9.64607 97.6837 9.84713 102.977 10.2739 107.442C10.4045 108.558 10.5315 109.624 10.6479 110.634C10.6937 111.141 10.789 111.63 10.8666 112.105C10.9442 112.581 11.0218 113.042 11.0958 113.489C11.1699 113.935 11.2405 114.368 11.3075 114.784C11.3428 114.991 11.3745 115.195 11.4063 115.396C11.4486 115.593 11.4909 115.79 11.5332 115.98C11.6955 116.744 11.8472 117.444 11.9812 118.074C12.1188 118.704 12.2246 119.271 12.3446 119.756C12.4715 120.238 12.5809 120.65 12.6656 120.984C12.8384 121.65 12.9301 122.005 12.9301 122.005C12.9301 122.005 13.0853 122.6 13.3569 123.62C13.6709 124.63 14.1153 126.063 14.6374 127.752C15.7979 131.099 17.4664 135.427 19.3253 139.383C19.8051 140.365 20.2813 141.329 20.7363 142.258C20.9691 142.723 21.1667 143.194 21.4101 143.627C21.6429 144.067 21.8686 144.493 22.0873 144.908C22.5212 145.739 22.9092 146.531 23.2655 147.245C23.6429 147.945 23.9675 148.582 24.225 149.138C24.7435 150.25 24.9869 151.053 24.8811 151.362C24.8246 151.521 24.6659 151.563 24.3943 151.475C24.1297 151.38 23.7593 151.144 23.2655 150.754C22.5424 150.18 21.791 149.55 21.015 148.871C20.2601 148.178 19.5194 147.41 18.7398 146.612C18.3553 146.207 17.9532 145.802 17.5722 145.369C17.2018 144.929 16.8244 144.479 16.4434 144.025C16.066 143.564 15.685 143.096 15.297 142.621C15.1065 142.381 14.9055 142.146 14.7256 141.896C14.5457 141.646 14.3622 141.393 14.1823 141.139C13.4628 140.119 12.7044 139.077 11.9989 137.982C11.3145 136.877 10.6302 135.741 9.94237 134.586C9.29685 133.414 8.68308 132.211 8.05872 131C7.7342 130.398 7.46258 129.776 7.18744 129.153L6.3585 127.277C4.21029 122.244 2.64411 116.987 1.62115 112.123C1.39892 110.898 1.18375 109.709 0.972101 108.555C0.922717 108.266 0.866278 107.981 0.823949 107.696C0.788675 107.411 0.7534 107.126 0.718126 106.848C0.647577 106.285 0.580556 105.736 0.513535 105.194C0.450041 104.652 0.386547 104.124 0.323053 103.61C0.294834 103.353 0.25956 103.096 0.238395 102.843C0.220758 102.589 0.203121 102.34 0.189011 102.093C0.125517 101.108 0.0655506 100.175 0.012639 99.306C-0.0296902 98.0391 0.044386 96.7757 0.0867152 95.5088C0.153736 94.6114 0.185483 93.6577 0.294834 92.6617C0.414767 91.6658 0.541754 90.6241 0.672269 89.5402C0.746346 88.9982 0.792202 88.4457 0.894498 87.8896C0.993266 87.3336 1.09556 86.767 1.19786 86.1934C1.30368 85.6197 1.4095 85.0391 1.51533 84.4478C1.56824 84.1522 1.62468 83.8566 1.68112 83.561C1.74108 83.2654 1.81869 82.9662 1.88923 82.6671C2.17848 81.4776 2.47479 80.2564 2.77462 79.0177C3.12031 77.7895 3.51186 76.5542 3.89282 75.3084C3.98806 74.9987 4.08683 74.6855 4.18207 74.3723C4.28789 74.0626 4.40782 73.7529 4.5207 73.4432C4.74999 72.8273 4.97927 72.2044 5.20855 71.585C5.44489 70.9657 5.66359 70.3428 5.91757 69.7269C6.18565 69.1181 6.45374 68.5092 6.72182 67.9004L7.53313 66.081C7.66365 65.7783 7.8118 65.4792 7.96701 65.1871L8.42205 64.3038C8.7254 63.7196 9.03229 63.1354 9.33565 62.5547L9.79422 61.689C9.95295 61.4039 10.1258 61.1259 10.2881 60.8479C10.9583 59.7323 11.6179 58.6343 12.2916 57.5715C13.0077 56.5298 13.7238 55.5127 14.4293 54.5309C14.7714 54.0347 15.1559 53.5666 15.5298 53.1056C15.9037 52.6481 16.2741 52.1976 16.641 51.7507C17.0114 51.3072 17.3712 50.8744 17.738 50.4556C18.1225 50.0509 18.5035 49.6532 18.8774 49.2591C19.6358 48.4883 20.3483 47.7423 21.0891 47.0736C21.8298 46.412 22.5565 45.7997 23.262 45.2436Z"></path>
</g>
<path fill="#E2E7F6" d="M127.812 107.844L114.688 100.188L101.562 107.844V115.618C101.563 117.912 102.164 120.166 103.307 122.155C104.449 124.144 106.093 125.799 108.075 126.955L114.688 130.812L121.3 126.955C123.282 125.799 124.926 124.144 126.068 122.155C127.211 120.166 127.812 117.912 127.812 115.618V107.844Z"></path>
<path fill="#F2F2F2" d="M101.76 107.734C102.328 112.387 104.13 116.803 106.981 120.525C109.831 124.246 113.625 127.137 117.969 128.897L121.3 126.955C123.281 125.799 124.926 124.144 126.068 122.155C127.211 120.166 127.813 117.912 127.813 115.618V107.844L114.688 100.188L101.76 107.734Z"></path>
<path fill="#559B2D" d="M109.219 114.406L112.5 117.688L121.25 108.938L124.531 112.219L112.5 124.25L105.938 117.688L109.219 114.406Z"></path>
<path fill="#DE312D" d="M88.4375 68.4688L90.0409 67.5062C92.5702 65.9891 95.4642 65.1876 98.4136 65.1875C100.551 65.1874 102.667 65.6082 104.642 66.426C106.616 67.2438 108.41 68.4425 109.921 69.9537C111.433 71.4649 112.631 73.259 113.449 75.2335C114.267 77.208 114.688 79.3242 114.688 81.4614C114.688 84.2308 114.061 86.9644 112.855 89.4574C111.649 91.9505 109.895 94.1384 107.724 95.8573L88.4375 111.125L69.1514 95.8573C66.98 94.1384 65.2257 91.9505 64.0197 89.4574C62.8137 86.9644 62.1873 84.2308 62.1875 81.4614C62.1874 79.3242 62.6082 77.208 63.426 75.2335C64.2438 73.259 65.4425 71.4649 66.9537 69.9537C68.4649 68.4425 70.259 67.2438 72.2335 66.426C74.208 65.6082 76.3242 65.1874 78.4614 65.1875C81.4108 65.1876 84.3048 65.9891 86.8341 67.5062L88.4375 68.4688Z"></path>
<path fill="#3279EA" d="M107.259 126.438H97.1875V124.25C97.1875 121.929 96.2656 119.704 94.6247 118.063C92.9837 116.422 90.7581 115.5 88.4375 115.5C89.5827 115.5 90.7081 115.201 91.7017 114.632C92.6954 114.062 93.5228 113.243 94.1018 112.255C94.6807 111.267 94.9909 110.145 95.0017 108.999C95.0125 107.854 94.7235 106.726 94.1633 105.727C95.0862 104.673 96.224 103.829 97.5002 103.251C98.7764 102.672 100.161 102.374 101.562 102.375C103.711 102.372 105.8 103.074 107.51 104.374L101.562 107.844V115.618C101.563 117.748 102.081 119.847 103.074 121.732C104.066 123.617 105.503 125.232 107.259 126.438Z"></path>
<path fill="#2862BE" d="M79.6875 126.438H65.4688V112.219C65.4688 109.608 66.5059 107.104 68.3519 105.258C70.198 103.412 72.7018 102.375 75.3125 102.375C76.7141 102.373 78.0997 102.672 79.3763 103.25C80.653 103.829 81.791 104.674 82.7139 105.728C82.1541 106.727 81.8652 107.855 81.8761 109C81.8869 110.144 82.197 111.266 82.7757 112.254C83.3543 113.242 84.1813 114.061 85.1745 114.631C86.1677 115.2 87.2926 115.5 88.4375 115.5C86.1169 115.5 83.8913 116.422 82.2503 118.063C80.6094 119.704 79.6875 121.929 79.6875 124.25V126.438Z"></path>
<path fill="#3279EA" d="M79.6875 126.438C75.9165 126.438 72.2999 124.939 69.6333 122.273C66.9668 119.606 65.4688 115.99 65.4688 112.219C65.4688 109.608 66.5059 107.104 68.3519 105.258C70.198 103.412 72.7018 102.375 75.3125 102.375C76.7141 102.373 78.0997 102.672 79.3763 103.25C80.653 103.829 81.791 104.674 82.7139 105.728C82.2605 106.544 81.983 107.446 81.8993 108.375C81.8157 109.305 81.9277 110.241 82.2283 111.125C82.6721 112.414 83.511 113.531 84.6256 114.316C85.7403 115.102 87.074 115.516 88.4375 115.5C86.1169 115.5 83.8913 116.422 82.2503 118.063C80.6094 119.704 79.6875 121.929 79.6875 124.25V126.438Z"></path>
<path fill="#FBE1CA" d="M88.4375 115.5C92.0619 115.5 95 112.562 95 108.938C95 105.313 92.0619 102.375 88.4375 102.375C84.8131 102.375 81.875 105.313 81.875 108.938C81.875 112.562 84.8131 115.5 88.4375 115.5Z"></path>
<path fill="#4FB5DC" d="M88.4375 115.5C90.7581 115.5 92.9837 116.422 94.6247 118.063C96.2656 119.704 97.1875 121.929 97.1875 124.25V130.812H79.6875V124.25C79.6875 121.929 80.6094 119.704 82.2503 118.063C83.8913 116.422 86.1169 115.5 88.4375 115.5Z"></path>
<path fill="#5ED3F2" d="M88.4375 115.5C90.7581 115.5 92.9837 116.422 94.6247 118.063C96.2656 119.704 97.1875 121.929 97.1875 124.25V130.812H86.25C84.5095 130.812 82.8403 130.121 81.6096 128.89C80.3789 127.66 79.6875 125.99 79.6875 124.25C79.6875 121.929 80.6094 119.704 82.2503 118.063C83.8913 116.422 86.1169 115.5 88.4375 115.5Z"></path>
<path fill="#FBE1CA" d="M75.3125 102.375C78.9369 102.375 81.875 99.4369 81.875 95.8125C81.875 92.1881 78.9369 89.25 75.3125 89.25C71.6881 89.25 68.75 92.1881 68.75 95.8125C68.75 99.4369 71.6881 102.375 75.3125 102.375Z"></path>
<path fill="#FBE1CA" d="M101.562 102.375C105.187 102.375 108.125 99.4369 108.125 95.8125C108.125 92.1881 105.187 89.25 101.562 89.25C97.9381 89.25 95 92.1881 95 95.8125C95 99.4369 97.9381 102.375 101.562 102.375Z"></path>
<path fill="black" d="M128.359 106.899L115.234 99.2425C115.067 99.1449 114.877 99.0934 114.683 99.0934C114.489 99.0934 114.299 99.1449 114.132 99.2425L107.557 103.078C107.017 102.721 106.446 102.412 105.85 102.156C106.858 101.473 107.688 100.56 108.272 99.4924C108.856 98.4245 109.177 97.2327 109.209 96.0159C111.275 94.1955 112.929 91.9561 114.063 89.4465C115.196 86.937 115.782 84.2149 115.781 81.4614C115.781 78.388 114.966 75.3695 113.418 72.7143C111.871 70.059 109.646 67.8621 106.971 66.3478C104.297 64.8335 101.268 64.056 98.1951 64.0949C95.1219 64.1337 92.1141 64.9875 89.4787 66.5689L88.4375 67.1934L87.3963 66.5689C84.7609 64.9875 81.7531 64.1337 78.6799 64.0949C75.6067 64.056 72.5782 64.8335 69.9037 66.3478C67.2292 67.8621 65.0045 70.059 63.4567 72.7143C61.9089 75.3695 61.0935 78.388 61.0938 81.4614C61.0938 84.2137 61.6799 86.9345 62.8132 89.4427C63.9464 91.9509 65.6007 94.1891 67.6661 96.0083C67.6971 97.2267 68.0186 98.4201 68.6038 99.4892C69.1889 100.558 70.0209 101.472 71.0305 102.155C69.0575 102.997 67.3751 104.399 66.1919 106.188C65.0088 107.977 64.377 110.074 64.375 112.219V126.438C64.375 126.728 64.4902 127.006 64.6954 127.211C64.9005 127.416 65.1787 127.531 65.4688 127.531H78.5938V130.813C78.5938 131.103 78.709 131.381 78.9141 131.586C79.1192 131.791 79.3974 131.906 79.6875 131.906H97.1875C97.4776 131.906 97.7558 131.791 97.9609 131.586C98.166 131.381 98.2812 131.103 98.2812 130.813V127.531H106.937C107.131 127.657 107.323 127.783 107.523 127.9L114.141 131.758C114.308 131.855 114.498 131.907 114.692 131.907C114.886 131.907 115.076 131.855 115.243 131.758L121.856 127.9C123.999 126.643 125.776 124.849 127.013 122.695C128.249 120.541 128.902 118.101 128.906 115.617V107.844C128.906 107.652 128.855 107.464 128.759 107.298C128.663 107.132 128.525 106.995 128.359 106.899ZM101.562 101.281C100.481 101.281 99.4236 100.961 98.5242 100.36C97.6249 99.7587 96.924 98.9046 96.51 97.9053C96.0961 96.906 95.9878 95.8064 96.1988 94.7456C96.4098 93.6848 96.9307 92.7103 97.6955 91.9455C98.4603 91.1807 99.4348 90.6599 100.496 90.4488C101.556 90.2378 102.656 90.3461 103.655 90.76C104.655 91.174 105.509 91.8749 106.11 92.7742C106.711 93.6736 107.031 94.7309 107.031 95.8125C107.03 97.2624 106.453 98.6524 105.428 99.6776C104.402 100.703 103.012 101.28 101.562 101.281ZM63.2812 81.4614C63.2812 78.7752 63.994 76.137 65.3469 73.8164C66.6998 71.4957 68.6444 69.5756 70.982 68.2522C73.3196 66.9287 75.9665 66.2493 78.6525 66.2833C81.3386 66.3174 83.9674 67.0636 86.2708 68.4458L87.8742 69.4072C88.0443 69.5094 88.239 69.5634 88.4375 69.5634C88.636 69.5634 88.8307 69.5094 89.0008 69.4072L90.6042 68.4458C92.9076 67.0636 95.5364 66.3174 98.2225 66.2833C100.908 66.2493 103.555 66.9287 105.893 68.2522C108.231 69.5756 110.175 71.4957 111.528 73.8164C112.881 76.137 113.594 78.7752 113.594 81.4614C113.598 85.9026 111.887 90.1738 108.817 93.3833C108.432 92.2277 107.777 91.1806 106.907 90.3291C106.036 89.4775 104.974 88.8459 103.81 88.4869C102.646 88.1279 101.414 88.0517 100.214 88.2647C99.0153 88.4777 97.8842 88.9738 96.9151 89.7117C95.9461 90.4496 95.1671 91.408 94.6428 92.5074C94.1185 93.6068 93.8641 94.8154 93.9007 96.0329C93.9373 97.2504 94.2638 98.4415 94.8531 99.5075C95.4425 100.573 96.2776 101.483 97.2892 102.162C96.203 102.622 95.1986 103.256 94.3153 104.039C93.5982 103.176 92.6998 102.481 91.6839 102.004C90.668 101.528 89.5596 101.28 88.4375 101.28C87.3154 101.28 86.207 101.528 85.1911 102.004C84.1752 102.481 83.2768 103.176 82.5597 104.039C81.676 103.256 80.6713 102.622 79.5847 102.162C80.5965 101.484 81.4319 100.574 82.0215 99.5077C82.6111 98.4418 82.9378 97.2505 82.9746 96.033C83.0113 94.8154 82.757 93.6067 82.2328 92.5071C81.7086 91.4076 80.9296 90.449 79.9605 89.7109C78.9914 88.9729 77.8602 88.4768 76.6608 88.2638C75.4615 88.0507 74.2286 88.1269 73.0646 88.486C71.9007 88.8452 70.8392 89.4768 69.9683 90.3286C69.0975 91.1803 68.4425 92.2276 68.0577 93.3833C64.9875 90.1741 63.2762 85.9027 63.2812 81.4614ZM88.4375 114.406C87.3559 114.406 86.2986 114.086 85.3992 113.485C84.4999 112.884 83.799 112.03 83.385 111.03C82.9711 110.031 82.8628 108.931 83.0738 107.871C83.2848 106.81 83.8057 105.835 84.5705 105.071C85.3353 104.306 86.3098 103.785 87.3706 103.574C88.4314 103.363 89.531 103.471 90.5303 103.885C91.5296 104.299 92.3837 105 92.9846 105.899C93.5855 106.799 93.9062 107.856 93.9062 108.938C93.9045 110.387 93.3278 111.777 92.3026 112.803C91.2774 113.828 89.8874 114.405 88.4375 114.406ZM69.8438 95.8125C69.8438 94.7309 70.1645 93.6736 70.7654 92.7742C71.3663 91.8749 72.2204 91.174 73.2197 90.76C74.219 90.3461 75.3186 90.2378 76.3794 90.4488C77.4402 90.6599 78.4147 91.1807 79.1795 91.9455C79.9443 92.7103 80.4652 93.6848 80.6762 94.7456C80.8872 95.8064 80.7789 96.906 80.365 97.9053C79.951 98.9046 79.2501 99.7587 78.3508 100.36C77.4514 100.961 76.3941 101.281 75.3125 101.281C73.8626 101.28 72.4726 100.703 71.4474 99.6776C70.4222 98.6524 69.8455 97.2624 69.8438 95.8125ZM66.5625 125.344V112.219C66.5605 110.5 67.0654 108.819 68.014 107.385C68.9626 105.952 70.3127 104.83 71.8956 104.16C73.4785 103.49 75.2237 103.302 76.9131 103.618C78.6026 103.935 80.1611 104.743 81.3937 105.941C80.6883 107.595 80.5894 109.446 81.1144 111.167C81.6394 112.887 82.7546 114.368 84.2638 115.347C82.5709 116.139 81.1386 117.398 80.1345 118.974C79.1305 120.551 78.596 122.381 78.5938 124.25V125.344H66.5625ZM96.0938 129.719H80.7812V124.25C80.7812 122.219 81.5879 120.272 83.0237 118.836C84.4595 117.4 86.4069 116.594 88.4375 116.594C90.4681 116.594 92.4155 117.4 93.8513 118.836C95.2871 120.272 96.0938 122.219 96.0938 124.25V129.719ZM92.6112 115.348C94.1204 114.369 95.2356 112.889 95.7606 111.168C96.2856 109.447 96.1867 107.597 95.4812 105.942C96.7635 104.688 98.4027 103.863 100.173 103.579C101.944 103.295 103.759 103.568 105.369 104.358L101.016 106.899C100.85 106.995 100.712 107.132 100.616 107.298C100.52 107.464 100.469 107.652 100.469 107.844V115.617C100.477 119.232 101.858 122.708 104.332 125.344H98.2812V124.25C98.2788 122.381 97.7442 120.551 96.7402 118.975C95.7361 117.398 94.304 116.14 92.6112 115.348ZM126.719 115.617C126.714 117.719 126.161 119.783 125.114 121.605C124.067 123.428 122.563 124.945 120.749 126.008L114.688 129.546L108.626 126.01C106.812 124.947 105.307 123.43 104.26 121.607C103.213 119.784 102.66 117.719 102.656 115.617V108.472L114.688 101.454L126.719 108.472V115.617Z"></path>
<path fill="black" d="M109.992 113.633C109.787 113.428 109.509 113.313 109.219 113.313C108.929 113.313 108.651 113.428 108.445 113.633L105.164 116.914C104.959 117.119 104.844 117.397 104.844 117.688C104.844 117.978 104.959 118.256 105.164 118.461L111.727 125.023C111.932 125.228 112.21 125.344 112.5 125.344C112.79 125.344 113.068 125.228 113.273 125.023L125.305 112.992C125.51 112.787 125.625 112.509 125.625 112.219C125.625 111.929 125.51 111.651 125.305 111.445L122.023 108.164C121.818 107.959 121.54 107.844 121.25 107.844C120.96 107.844 120.682 107.959 120.477 108.164L112.5 116.141L109.992 113.633ZM121.25 110.484L122.985 112.219L112.5 122.703L107.484 117.688L109.219 115.953L111.727 118.461C111.932 118.666 112.21 118.781 112.5 118.781C112.79 118.781 113.068 118.666 113.273 118.461L121.25 110.484Z"></path>
<defs>
<clipPath id="clip0_719_305">
<rect fill="white" height="196" width="189"></rect>
</clipPath>
</defs>
</svg>
