<svg xmlns="http://www.w3.org/2000/svg" fill="none" viewBox="0 0 189 196" height="196" width="189">
<g clip-path="url(#clip0_87_3509)">
<path fill="#018D43" d="M44.4829 14.6087C44.4829 14.6087 45.1955 14.123 46.6029 13.3277C47.3014 12.923 48.1656 12.4268 49.178 11.839C50.208 11.2865 51.4108 10.6812 52.7477 9.99145C53.0864 9.82253 53.4215 9.63601 53.7848 9.47412C54.1446 9.30872 54.515 9.14332 54.8924 8.97087C55.6508 8.62951 56.441 8.27055 57.2699 7.89751C57.478 7.80601 57.6861 7.71099 57.8943 7.61597C58.1094 7.53151 58.3246 7.44353 58.5433 7.35555C58.9807 7.1831 59.4287 7.00714 59.8837 6.82766C60.7973 6.47574 61.7321 6.0851 62.7163 5.72966C64.7022 5.07509 66.7904 4.29382 69.0621 3.70259C69.6265 3.54422 70.198 3.38234 70.7765 3.22045C71.0657 3.13951 71.3549 3.05857 71.6477 2.97762C71.944 2.91076 72.2403 2.84037 72.5402 2.77351C73.7395 2.49901 74.967 2.22099 76.2158 1.93593C86.276 -0.0700283 98.3575 -0.833701 110.933 1.18986C117.208 2.18932 123.582 3.85039 129.78 6.19772C135.978 8.53801 141.992 11.5857 147.583 15.1999C153.177 18.8106 158.352 22.9985 162.938 27.5559C167.527 32.1133 171.527 37.0403 174.868 42.0868C178.212 47.1334 180.896 52.2926 182.967 57.3005C185.065 62.3013 186.455 67.186 187.411 71.6554C188.409 76.1213 188.769 80.2318 188.97 83.7475C188.991 85.5177 188.991 87.1435 188.942 88.6075C188.833 90.0821 188.702 91.3948 188.547 92.5385C188.505 92.8236 188.473 93.0981 188.423 93.3655C188.367 93.6295 188.311 93.8829 188.258 94.1292C188.145 94.6149 188.028 95.0583 187.908 95.456C187.669 96.2513 187.415 96.8672 187.143 97.293C186.603 98.1447 186.004 98.2432 185.333 97.5218C185.333 97.5218 185.284 96.7123 185.192 95.2483C185.171 94.8823 185.146 94.4776 185.122 94.0307C185.108 93.809 185.101 93.5767 185.076 93.3374C185.051 93.0981 185.023 92.8482 184.995 92.5878C184.885 91.5566 184.762 90.3812 184.624 89.0826C184.43 87.7946 184.215 86.3834 183.99 84.8701C183.873 84.1135 183.69 83.3428 183.538 82.5439C183.379 81.745 183.213 80.9251 183.044 80.084C182.226 76.7513 181.309 73.0983 179.958 69.3925C179.358 67.5133 178.547 65.6657 177.82 63.7618C177.404 62.8292 176.988 61.8931 176.568 60.9499C176.356 60.4818 176.159 60.0032 175.933 59.5387L175.238 58.1521L174.547 56.7585C174.314 56.294 174.095 55.8259 173.834 55.3754C173.333 54.4675 172.832 53.5595 172.335 52.6551C172.095 52.1976 171.823 51.7577 171.555 51.3178C171.287 50.8779 171.023 50.438 170.758 49.9981C170.494 49.5582 170.229 49.1183 169.968 48.6819C169.707 48.2455 169.411 47.8302 169.135 47.4079C168.582 46.5598 168.028 45.7187 167.485 44.8881C166.906 44.0787 166.335 43.2763 165.77 42.4845C165.488 42.0903 165.216 41.6856 164.931 41.302C164.638 40.922 164.349 40.5454 164.059 40.1688C163.488 39.4122 162.927 38.6697 162.373 37.9412C161.795 37.2303 161.23 36.537 160.677 35.8543C160.402 35.5094 160.133 35.168 159.865 34.8337C159.601 34.4923 159.312 34.1862 159.043 33.8659C157.95 32.6025 156.973 31.3391 155.978 30.2481C152.133 25.7435 147.572 21.4184 141.692 17.2974C141.325 17.0369 140.955 16.7765 140.581 16.5126C140.2 16.2592 139.808 16.0199 139.42 15.77C138.634 15.2773 137.833 14.7741 137.018 14.2638C136.196 13.7605 135.329 13.3101 134.461 12.8209C133.586 12.3458 132.701 11.8285 131.762 11.3991C130.828 10.9522 129.872 10.4947 128.902 10.0302C127.921 9.5797 126.898 9.18555 125.864 8.74916C125.346 8.53449 124.82 8.31982 124.291 8.10514C123.751 7.9151 123.208 7.72155 122.658 7.52799C122.108 7.33443 121.55 7.14087 120.986 6.9438C120.422 6.75024 119.854 6.53909 119.268 6.38072C118.097 6.04287 116.901 5.69799 115.684 5.34959C114.457 5.02582 113.19 4.75836 111.899 4.4557C110.612 4.13193 109.275 3.94189 107.917 3.69555C107.236 3.57941 106.548 3.45624 105.853 3.34714C105.155 3.26268 104.446 3.17822 103.733 3.09376C98.0153 2.41103 91.7435 2.19284 84.9391 2.77703C78.1417 3.36122 70.8223 4.75836 63.1713 7.30276C62.2189 7.63005 61.27 7.99605 60.3035 8.34797C59.8202 8.52745 59.337 8.70693 58.8502 8.88641C58.3599 9.05886 57.8872 9.28409 57.4039 9.48468C56.4374 9.89643 55.4639 10.3152 54.4797 10.734C53.5061 11.1739 52.5396 11.6666 51.5555 12.1382C51.0651 12.3775 50.5713 12.6203 50.0739 12.8596C49.5871 13.1165 49.1039 13.3875 48.6136 13.655C47.64 14.1969 46.6453 14.7248 45.6611 15.2949C44.6946 15.8897 43.714 16.4915 42.7298 17.1003C42.4829 17.2516 42.236 17.4065 41.989 17.5578C41.7421 17.7126 41.5058 17.8851 41.2624 18.047C40.7791 18.3778 40.2959 18.7086 39.8056 19.0429C39.8056 19.0429 39.4175 19.2928 38.8002 19.6904C38.1724 20.074 37.3505 20.6653 36.451 21.2987C35.9995 21.6155 35.5303 21.9463 35.0576 22.2736C34.5885 22.6044 34.1088 22.9246 33.6784 23.266C32.8036 23.9311 31.9923 24.5329 31.3962 24.9517C30.2039 25.7928 29.8547 25.9089 31.5196 24.3394C31.9359 23.9487 32.4791 23.449 33.1669 22.8331C33.3398 22.6783 33.5197 22.5164 33.7102 22.3475C33.9077 22.1856 34.1158 22.0202 34.331 21.8442C34.7684 21.4958 35.2411 21.1157 35.7561 20.7005C36.2746 20.2922 36.8355 19.8488 37.4387 19.3702C38.063 18.9233 38.7368 18.4446 39.4528 17.9308C39.8126 17.6739 40.1865 17.41 40.571 17.139C40.9555 16.8645 41.3506 16.583 41.7774 16.3225C42.631 15.7876 43.5305 15.214 44.4829 14.6087Z"></path>
<path fill="#018D43" d="M22.8496 34.6085C22.8496 34.6085 23.0965 34.334 23.5656 33.8167C23.802 33.5598 24.0912 33.2395 24.4369 32.8629C24.7967 32.5005 25.213 32.0852 25.6786 31.6171C26.1477 31.1491 26.6663 30.6318 27.2342 30.0652C27.3753 29.9244 27.5199 29.7801 27.6681 29.6323C27.8233 29.4915 27.9785 29.3472 28.1407 29.2029C28.4617 28.9109 28.7968 28.6082 29.1425 28.295C29.8374 27.6721 30.5641 26.9894 31.3648 26.3031C32.1796 25.6344 33.0403 24.9271 33.9434 24.188C37.6048 21.2917 42.1482 18.1103 47.4852 15.207C52.8116 12.2966 58.9282 9.6677 65.4998 7.72861C72.0679 5.78247 79.0839 4.52963 86.0753 4.12843C93.0667 3.70613 100.026 4.1777 106.478 5.3109C112.933 6.44409 118.877 8.27409 123.964 10.4103C129.064 12.5324 133.276 15.0416 136.511 17.3044C138.112 18.4693 139.216 19.3245 139.837 20.0107C140.472 20.6723 140.677 21.063 140.518 21.2178C140.19 21.5381 138.44 20.8483 135.541 19.7151C135.181 19.5673 134.807 19.4089 134.412 19.247C134.02 19.0816 133.597 18.9409 133.167 18.7719C132.302 18.4447 131.378 18.0857 130.398 17.6951C128.401 17.0088 126.196 16.1712 123.745 15.4604C118.87 13.9682 113.145 12.6274 107.014 11.8707C100.891 11.1035 94.3648 10.9241 88.0401 11.3992C81.7119 11.8602 75.5953 12.9793 70.2089 14.4503C64.8155 15.9108 60.1628 17.7127 56.5719 19.2048C55.6759 19.5884 54.8399 19.9368 54.0709 20.25C53.316 20.5914 52.6317 20.9081 52.0144 21.1756C50.7833 21.7105 49.8309 22.0695 49.2489 22.2736C48.6563 22.4636 48.0214 22.6783 47.3441 22.9176C46.6703 23.1639 45.9366 23.4068 45.2029 23.7481C44.4622 24.0754 43.6756 24.4309 42.8501 24.8215C42.441 25.0186 42.0036 25.2051 41.5838 25.4374C41.1605 25.6696 40.7301 25.9054 40.2857 26.1483C36.7053 28.0662 32.61 30.7866 28.2077 34.5874C27.0719 35.5059 26.0137 36.5757 24.8637 37.6526C24.578 37.9236 24.2923 38.1981 24.003 38.4761C23.7208 38.7612 23.4492 39.0568 23.167 39.3524C22.6062 39.9472 22.0383 40.5525 21.4598 41.1683C20.8672 41.7772 20.3239 42.4423 19.7595 43.1109C19.1952 43.7831 18.6237 44.4694 18.0417 45.1627C17.4808 45.8735 16.9376 46.6196 16.3697 47.3657C15.8159 48.1223 15.2127 48.8684 14.6906 49.6849C14.1509 50.4908 13.6042 51.3108 13.0468 52.1448C12.9093 52.3524 12.7682 52.5636 12.6306 52.7747C12.5001 52.9929 12.3731 53.2076 12.2426 53.4258C11.9815 53.8622 11.7205 54.3056 11.456 54.749C11.1914 55.196 10.9268 55.6429 10.6623 56.0969C10.5282 56.3221 10.3977 56.5509 10.2637 56.7796C10.1402 57.0154 10.0168 57.2477 9.8933 57.4835C9.39946 58.4302 8.89857 59.3909 8.39062 60.3657C8.12606 60.8514 7.90736 61.3582 7.67455 61.8649C7.44174 62.3717 7.20892 62.8855 6.97611 63.3993C6.7433 63.9166 6.50696 64.4375 6.27063 64.9618C6.04487 65.4897 5.84381 66.0317 5.62863 66.5737C5.2124 67.6611 4.75383 68.7556 4.35876 69.8888C3.98132 71.029 3.60036 72.1833 3.21234 73.3552C3.21234 73.3552 3.16648 73.0737 3.27936 72.0601C3.3358 71.5534 3.4381 70.8601 3.60389 69.9275C3.64621 69.6952 3.68854 69.4453 3.74498 69.1814C3.80848 68.921 3.87903 68.643 3.94957 68.3509C4.09773 67.7632 4.27057 67.1121 4.47163 66.3836C5.26883 63.4767 6.66923 59.4191 9.35008 54.0382C9.69224 53.3695 10.045 52.6762 10.4154 51.9548C10.7893 51.2404 11.2267 50.5295 11.657 49.7764C12.0944 49.0303 12.5389 48.2561 13.0186 47.4678C13.5266 46.697 14.0486 45.8982 14.5918 45.0782C14.8635 44.67 15.1421 44.2512 15.4208 43.8289C15.71 43.4101 16.024 43.0019 16.3309 42.5795C16.9552 41.7384 17.5972 40.8727 18.2604 39.9788C19.6819 38.2685 21.1282 36.4103 22.8496 34.6085Z"></path>
<path fill="#018D43" d="M39.8304 176.96C41.7529 178.333 43.7494 179.512 45.6824 180.705C46.6666 181.272 47.6578 181.803 48.6314 182.341C49.1217 182.609 49.6014 182.88 50.0917 183.137C50.5856 183.38 51.0794 183.619 51.5697 183.858C52.5539 184.33 53.5169 184.822 54.4904 185.262C55.4746 185.681 56.4482 186.1 57.4147 186.512C57.9015 186.709 58.3706 186.937 58.8609 187.11C59.3477 187.289 59.831 187.469 60.3142 187.648C61.2807 188 62.2296 188.366 63.182 188.69C70.8295 191.231 78.1489 192.628 84.9428 193.212C91.7437 193.796 98.0155 193.578 103.733 192.896C104.45 192.811 105.155 192.727 105.853 192.642C106.552 192.533 107.236 192.41 107.917 192.294C109.275 192.047 110.612 191.861 111.899 191.534C113.19 191.231 114.457 190.963 115.684 190.64C116.905 190.288 118.097 189.943 119.268 189.605C119.854 189.447 120.422 189.236 120.986 189.042C121.551 188.845 122.108 188.651 122.658 188.458C123.208 188.264 123.755 188.071 124.295 187.881C124.824 187.662 125.35 187.448 125.868 187.237C126.902 186.8 127.928 186.406 128.909 185.956C129.879 185.491 130.835 185.034 131.769 184.583C132.711 184.154 133.593 183.636 134.472 183.161C135.343 182.672 136.211 182.222 137.032 181.718C137.847 181.208 138.648 180.705 139.435 180.212C139.826 179.962 140.218 179.723 140.595 179.47C140.969 179.206 141.339 178.945 141.706 178.685C147.587 174.56 152.151 170.232 155.992 165.731C156.984 164.636 157.961 163.373 159.054 162.113C159.322 161.793 159.612 161.483 159.873 161.145C160.141 160.811 160.409 160.469 160.684 160.124C161.238 159.445 161.802 158.748 162.377 158.041C162.927 157.313 163.492 156.57 164.063 155.817C164.352 155.444 164.642 155.064 164.934 154.684C165.22 154.297 165.488 153.895 165.774 153.501C166.338 152.709 166.91 151.911 167.488 151.101C168.032 150.271 168.585 149.43 169.139 148.581C169.414 148.156 169.711 147.744 169.972 147.307C170.233 146.871 170.497 146.431 170.762 145.991C171.026 145.551 171.294 145.115 171.559 144.672C171.827 144.232 172.102 143.795 172.339 143.334C172.836 142.43 173.337 141.522 173.838 140.614C174.099 140.167 174.321 139.695 174.55 139.231L175.242 137.837L175.937 136.451C176.162 135.986 176.36 135.507 176.571 135.039C176.991 134.1 177.407 133.16 177.824 132.231C178.55 130.327 179.365 128.48 179.961 126.6C181.312 122.898 182.229 119.242 183.048 115.912C183.217 115.071 183.379 114.251 183.542 113.452C183.693 112.654 183.877 111.883 183.993 111.126C184.222 109.613 184.434 108.202 184.628 106.914C184.766 105.615 184.889 104.44 184.998 103.409C185.027 103.152 185.055 102.902 185.08 102.659C185.104 102.42 185.108 102.187 185.125 101.966C185.15 101.522 185.175 101.114 185.196 100.748C185.288 99.284 185.337 98.4746 185.337 98.4746C186.004 97.7567 186.607 97.8517 187.147 98.7034C187.415 99.1292 187.672 99.7451 187.912 100.54C188.032 100.938 188.148 101.382 188.261 101.867C188.314 102.11 188.371 102.367 188.427 102.631C188.48 102.895 188.512 103.169 188.551 103.458C188.706 104.602 188.836 105.914 188.946 107.385C188.995 108.853 188.992 110.475 188.974 112.245C188.773 115.761 188.417 119.872 187.415 124.337C186.459 128.807 185.069 133.692 182.974 138.689C180.903 143.697 178.219 148.856 174.875 153.902C171.534 158.949 167.538 163.876 162.948 168.433C158.363 172.994 153.192 177.179 147.594 180.793C141.999 184.407 135.988 187.451 129.791 189.795C123.593 192.142 117.222 193.804 110.947 194.803C98.3717 196.827 86.2903 196.066 76.23 194.06C74.9778 193.775 73.7502 193.494 72.5544 193.223C72.2546 193.152 71.9583 193.086 71.662 193.019C71.3692 192.938 71.08 192.857 70.7907 192.776C70.2122 192.614 69.6408 192.452 69.0764 192.294C66.8047 191.703 64.72 190.925 62.7305 190.267C61.7464 189.915 60.8116 189.524 59.898 189.172C59.4429 188.993 58.995 188.817 58.5576 188.644C58.3389 188.556 58.1202 188.472 57.9085 188.384C57.6969 188.289 57.4887 188.194 57.2842 188.102C56.4587 187.729 55.6651 187.37 54.9102 187.029C54.5328 186.857 54.1624 186.688 53.8026 186.526C53.4393 186.364 53.1041 186.174 52.7655 186.008C51.4286 185.319 50.2258 184.713 49.1957 184.161C48.1834 183.577 47.3192 183.077 46.6207 182.672C45.9258 182.264 45.3791 181.965 45.0298 181.736C44.6771 181.511 44.4972 181.391 44.4972 181.391C43.5448 180.786 42.6453 180.212 41.7987 179.674C41.3719 179.41 40.9733 179.132 40.5888 178.854C40.2043 178.579 39.8304 178.315 39.4706 178.062C38.751 177.548 38.0808 177.07 37.4529 176.619C36.8497 176.141 36.2889 175.701 35.7703 175.289C35.2553 174.877 34.7791 174.493 34.3452 174.145C34.1265 173.969 33.9219 173.8 33.7244 173.642C33.5339 173.473 33.354 173.311 33.1812 173.156C32.4933 172.54 31.9501 172.041 31.5339 171.65C29.8689 170.08 30.2181 170.197 31.4139 171.038C32.0136 171.46 32.8214 172.062 33.6997 172.73C34.1301 173.072 34.6098 173.392 35.0825 173.723C35.5516 174.054 36.0243 174.384 36.4758 174.701C36.9273 175.018 37.3577 175.324 37.7527 175.602C38.1443 175.887 38.5217 176.105 38.8286 176.313C39.4424 176.707 39.8304 176.96 39.8304 176.96Z"></path>
<path fill="#018D43" d="M49.2591 173.723C49.8411 173.927 50.7935 174.286 52.0281 174.821C52.6454 175.088 53.3298 175.405 54.0846 175.747C54.8536 176.06 55.6931 176.408 56.5856 176.792C60.1765 178.284 64.8292 180.086 70.2227 181.546C75.6091 183.017 81.7292 184.136 88.0574 184.594C94.3821 185.065 100.908 184.886 107.031 184.119C113.162 183.362 118.891 182.021 123.762 180.526C126.214 179.815 128.418 178.977 130.415 178.287C131.395 177.897 132.32 177.538 133.184 177.211C133.614 177.042 134.037 176.901 134.429 176.735C134.821 176.57 135.198 176.415 135.558 176.267C138.457 175.134 140.207 174.444 140.535 174.765C140.697 174.92 140.489 175.31 139.858 175.972C139.237 176.658 138.136 177.517 136.531 178.678C133.3 180.941 129.092 183.454 123.988 185.572C118.901 187.712 112.961 189.542 106.502 190.675C100.051 191.812 93.0946 192.283 86.0996 191.865C79.1047 191.463 72.0887 190.214 65.5206 188.268C58.9454 186.332 52.8324 183.704 47.5024 180.793C42.1654 177.89 37.6186 174.708 33.9571 171.812C33.0541 171.073 32.1934 170.366 31.375 169.697C30.5707 169.014 29.8476 168.328 29.1492 167.705C28.8035 167.392 28.4684 167.089 28.1474 166.797C27.9851 166.649 27.8299 166.509 27.6747 166.368C27.5266 166.22 27.3819 166.076 27.2408 165.935C26.6729 165.368 26.1544 164.851 25.6852 164.383C25.2196 163.915 24.8034 163.5 24.4436 163.137C24.1014 162.761 23.8087 162.44 23.5723 162.183C23.1032 161.666 22.8562 161.392 22.8562 161.392C21.1349 159.586 19.6851 157.732 18.2671 156.018C17.6039 155.124 16.9619 154.258 16.3375 153.417C16.0307 152.995 15.7167 152.583 15.4275 152.168C15.1453 151.745 14.8701 151.327 14.5985 150.918C14.0588 150.095 13.5332 149.3 13.0253 148.525C12.542 147.737 12.1011 146.963 11.6637 146.217C11.2333 145.467 10.7959 144.753 10.422 144.038C10.0552 143.32 9.69891 142.627 9.35675 141.955C6.67237 136.571 5.27551 132.516 4.47831 129.613C4.27724 128.885 4.1044 128.233 3.95624 127.646C3.88217 127.354 3.81515 127.076 3.75165 126.815C3.69169 126.555 3.65289 126.305 3.60703 126.069C3.44124 125.137 3.34247 124.447 3.2825 123.94C3.1661 122.926 3.21548 122.648 3.21548 122.648C3.6035 123.82 3.98446 124.975 4.3619 126.115C4.7605 127.248 5.21554 128.343 5.63178 129.43C5.84695 129.972 6.04801 130.514 6.2773 131.042C6.51364 131.566 6.74997 132.087 6.98278 132.601C7.2156 133.115 7.44841 133.628 7.68122 134.135C7.91403 134.642 8.13273 135.149 8.39729 135.634C8.90524 136.609 9.40613 137.57 9.89997 138.517C10.0234 138.752 10.1469 138.988 10.2704 139.22C10.4044 139.449 10.5384 139.678 10.6725 139.903C10.9406 140.354 11.2051 140.804 11.4662 141.251C11.7307 141.695 11.9917 142.134 12.2528 142.574C12.3833 142.793 12.5138 143.011 12.6443 143.225C12.7854 143.437 12.923 143.644 13.0606 143.855C13.6179 144.689 14.1646 145.506 14.7043 146.315C15.2264 147.132 15.8296 147.878 16.3834 148.634C16.9513 149.384 17.491 150.127 18.0554 150.837C18.6374 151.531 19.2089 152.217 19.7733 152.889C20.3377 153.558 20.8809 154.223 21.4735 154.832C22.052 155.448 22.6199 156.053 23.1808 156.648C23.463 156.943 23.7346 157.239 24.0168 157.524C24.306 157.802 24.5917 158.077 24.8775 158.348C26.0274 159.424 27.0856 160.494 28.2215 161.413C32.6237 165.214 36.7191 167.934 40.2994 169.852C40.7439 170.095 41.1777 170.33 41.5975 170.563C42.0173 170.792 42.4547 170.978 42.8639 171.179C43.6928 171.566 44.4759 171.925 45.2167 172.252C45.9468 172.593 46.6876 172.836 47.3578 173.083C48.0316 173.318 48.663 173.533 49.2591 173.723Z"></path>
<path fill="#018D43" d="M23.262 45.2428C23.7558 44.8521 24.1297 44.6163 24.3907 44.5213C24.6624 44.4298 24.8176 44.4756 24.874 44.6339C24.9798 44.9436 24.74 45.746 24.2179 46.8581C23.9604 47.4141 23.6359 48.0546 23.2549 48.7549C22.8986 49.4694 22.5106 50.2612 22.0767 51.0952C21.858 51.5105 21.6323 51.9363 21.3995 52.3762C21.1596 52.8091 20.9586 53.2807 20.7293 53.7452C20.2742 54.6743 19.8016 55.6386 19.3183 56.6204C17.4558 60.576 15.7909 64.9047 14.6303 68.255C14.1047 69.9478 13.6603 71.3801 13.3499 72.3901C13.0818 73.4107 12.9231 74.0054 12.9231 74.0054C11.3145 80.1113 10.3727 86.2453 10.0129 91.9641C9.64607 97.6828 9.84713 102.976 10.2739 107.442C10.4045 108.557 10.5315 109.624 10.6479 110.634C10.6937 111.14 10.789 111.63 10.8666 112.105C10.9442 112.58 11.0218 113.041 11.0958 113.488C11.1699 113.935 11.2405 114.367 11.3075 114.783C11.3428 114.99 11.3745 115.195 11.4063 115.395C11.4486 115.592 11.4909 115.789 11.5332 115.979C11.6955 116.743 11.8472 117.443 11.9812 118.073C12.1188 118.703 12.2246 119.27 12.3446 119.755C12.4715 120.238 12.5809 120.649 12.6656 120.984C12.8384 121.649 12.9301 122.004 12.9301 122.004C12.9301 122.004 13.0853 122.599 13.3569 123.62C13.6709 124.63 14.1153 126.062 14.6374 127.751C15.7979 131.098 17.4664 135.427 19.3253 139.382C19.8051 140.364 20.2813 141.328 20.7363 142.257C20.9691 142.722 21.1667 143.193 21.4101 143.626C21.6429 144.066 21.8686 144.492 22.0873 144.907C22.5212 145.738 22.9092 146.53 23.2655 147.244C23.6429 147.944 23.9675 148.581 24.225 149.137C24.7435 150.25 24.9869 151.052 24.8811 151.362C24.8246 151.52 24.6659 151.562 24.3943 151.474C24.1297 151.379 23.7593 151.143 23.2655 150.753C22.5424 150.179 21.791 149.549 21.015 148.87C20.2601 148.177 19.5194 147.41 18.7398 146.611C18.3553 146.206 17.9532 145.801 17.5722 145.368C17.2018 144.928 16.8244 144.478 16.4434 144.024C16.066 143.563 15.685 143.095 15.297 142.62C15.1065 142.381 14.9055 142.145 14.7256 141.895C14.5457 141.645 14.3622 141.392 14.1823 141.138C13.4628 140.118 12.7044 139.076 11.9989 137.982C11.3145 136.876 10.6302 135.74 9.94237 134.585C9.29685 133.414 8.68308 132.21 8.05872 130.999C7.7342 130.398 7.46258 129.775 7.18744 129.152L6.3585 127.276C4.21029 122.244 2.64411 116.986 1.62115 112.122C1.39892 110.898 1.18375 109.708 0.972102 108.554C0.922717 108.265 0.866278 107.98 0.823949 107.695C0.788675 107.41 0.7534 107.125 0.718126 106.847C0.647577 106.284 0.580556 105.735 0.513535 105.193C0.450041 104.651 0.386547 104.123 0.323053 103.609C0.294834 103.352 0.25956 103.095 0.238395 102.842C0.220758 102.589 0.203121 102.339 0.189011 102.092C0.125517 101.107 0.0655506 100.174 0.012639 99.3052C-0.0296902 98.0383 0.044386 96.7748 0.0867152 95.5079C0.153736 94.6105 0.185483 93.6568 0.294834 92.6609C0.414767 91.6649 0.541754 90.6232 0.672269 89.5393C0.746346 88.9973 0.792202 88.4448 0.894498 87.8888C0.993266 87.3327 1.09556 86.7662 1.19786 86.1925C1.30368 85.6189 1.4095 85.0382 1.51533 84.447C1.56824 84.1514 1.62468 83.8558 1.68112 83.5601C1.74108 83.2645 1.81869 82.9654 1.88923 82.6662C2.17848 81.4767 2.47479 80.2556 2.77462 79.0168C3.12031 77.7886 3.51186 76.5533 3.89282 75.3075C3.98806 74.9978 4.08683 74.6846 4.18207 74.3714C4.28789 74.0617 4.40782 73.752 4.5207 73.4424C4.74999 72.8265 4.97927 72.2036 5.20855 71.5842C5.44489 70.9648 5.66359 70.3419 5.91757 69.726C6.18565 69.1172 6.45374 68.5084 6.72182 67.8996L7.53313 66.0801C7.66365 65.7775 7.8118 65.4783 7.96701 65.1862L8.42205 64.3029C8.7254 63.7187 9.03229 63.1345 9.33565 62.5539L9.79422 61.6881C9.95295 61.4031 10.1258 61.125 10.2881 60.847C10.9583 59.7314 11.6179 58.6334 12.2916 57.5706C13.0077 56.5289 13.7238 55.5119 14.4293 54.53C14.7714 54.0338 15.1559 53.5657 15.5298 53.1047C15.9037 52.6472 16.2741 52.1968 16.641 51.7498C17.0114 51.3064 17.3712 50.8735 17.738 50.4547C18.1225 50.05 18.5035 49.6524 18.8774 49.2582C19.6358 48.4875 20.3483 47.7414 21.0891 47.0728C21.8298 46.4111 22.5565 45.7988 23.262 45.2428Z"></path>
</g>
<path fill="#313131" d="M85.5702 97.22C86.1552 97.4075 86.766 97.502 87.3802 97.5C87.9848 97.4977 88.5864 97.417 89.1702 97.26C90.3632 96.9608 91.4436 96.3216 92.2802 95.42C92.6909 95.0271 92.9884 94.5309 93.1415 93.9835C93.2946 93.4361 93.2977 92.8576 93.1505 92.3086C93.0032 91.7596 92.7111 91.2603 92.3047 90.8629C91.8982 90.4656 91.3924 90.1848 90.8402 90.05C89.6643 89.7058 88.4163 89.6916 87.2328 90.0091C86.0494 90.3266 84.976 90.9635 84.1302 91.85C83.7163 92.2415 83.4159 92.7376 83.2609 93.2858C83.1058 93.8341 83.1019 94.414 83.2494 94.9643C83.397 95.5146 83.6906 96.0147 84.0991 96.4118C84.5077 96.8089 85.016 97.0882 85.5702 97.22ZM85.6302 93.22C86.2091 92.6214 86.9432 92.1955 87.7502 91.99C88.1563 91.8657 88.5761 91.7918 89.0002 91.77C89.3942 91.7649 89.7863 91.8257 90.1602 91.95C90.3818 92.0101 90.5869 92.1196 90.76 92.2703C90.9332 92.421 91.0701 92.6089 91.1602 92.82C91.3702 93.62 90.3702 94.82 88.5902 95.32C87.7932 95.5506 86.9472 95.5506 86.1502 95.32C85.9124 95.2917 85.6885 95.1928 85.5074 95.0362C85.3262 94.8795 85.1961 94.6722 85.1337 94.441C85.0713 94.2098 85.0796 93.9652 85.1574 93.7387C85.2352 93.5122 85.3789 93.3141 85.5702 93.17L85.6302 93.22Z"></path>
<path fill="#313131" d="M100.23 105.31C100.769 105.587 101.365 105.734 101.97 105.74C102.492 105.742 103.006 105.607 103.46 105.35C103.93 105.044 104.317 104.626 104.586 104.134C104.854 103.642 104.997 103.091 105 102.53C105.027 101.308 104.718 100.102 104.106 99.0438C103.494 97.9857 102.603 97.1161 101.53 96.5299C101.036 96.2544 100.482 96.1056 99.9165 96.0968C99.3511 96.0881 98.7923 96.2197 98.2902 96.4799C96.4702 97.5399 96.1702 100.31 97.6102 102.8C98.2185 103.875 99.1296 104.748 100.23 105.31ZM99.3402 98.2099C99.4896 98.126 99.659 98.0845 99.8302 98.0899C100.127 98.1025 100.417 98.1811 100.68 98.3199C101.392 98.7355 101.981 99.3316 102.389 100.048C102.796 100.764 103.007 101.576 103 102.4C103.037 102.637 103.001 102.879 102.897 103.095C102.794 103.312 102.627 103.491 102.42 103.611C102.212 103.731 101.973 103.786 101.734 103.768C101.495 103.75 101.267 103.66 101.08 103.51C100.348 103.117 99.7469 102.52 99.3502 101.79C98.4702 100.19 98.6202 98.6199 99.3402 98.2099Z"></path>
<path fill="#313131" d="M101.07 92.68C101.09 92.7415 101.12 92.799 101.16 92.85L101.28 93.01C101.373 93.1027 101.484 93.176 101.606 93.2258C101.728 93.2756 101.858 93.3008 101.99 93.3C102.122 93.2995 102.253 93.2727 102.375 93.2212C102.497 93.1697 102.607 93.0945 102.7 93C102.749 92.9513 102.792 92.8977 102.83 92.84L102.92 92.67L103 92.5C103.004 92.4334 103.004 92.3666 103 92.3C103.005 92.2335 103.005 92.1666 103 92.1L102.94 91.91L102.85 91.74C102.812 91.6855 102.769 91.6353 102.72 91.59C102.627 91.4956 102.517 91.4204 102.395 91.3689C102.273 91.3174 102.142 91.2906 102.01 91.29C101.878 91.2906 101.747 91.3174 101.625 91.3689C101.503 91.4204 101.393 91.4956 101.3 91.59L101.18 91.74C101.142 91.7923 101.112 91.8495 101.09 91.91C101.062 91.9707 101.042 92.0345 101.03 92.1C101.025 92.1666 101.025 92.2335 101.03 92.3C101.026 92.3666 101.026 92.4334 101.03 92.5C101.035 92.5617 101.048 92.6223 101.07 92.68Z"></path>
<path fill="#313131" d="M93.1798 104.36C93.1521 104.3 93.1186 104.243 93.0798 104.19C93.0685 104.121 93.0411 104.056 92.9998 104C92.9072 103.905 92.7967 103.83 92.6749 103.779C92.553 103.727 92.4221 103.701 92.2898 103.7C92.1575 103.701 92.0266 103.727 91.9047 103.779C91.7828 103.83 91.6724 103.905 91.5798 104C91.5292 104.041 91.4883 104.092 91.4598 104.15C91.4209 104.203 91.3874 104.26 91.3598 104.32C91.354 104.383 91.354 104.447 91.3598 104.51C91.35 104.573 91.35 104.637 91.3598 104.7C91.3495 104.766 91.3495 104.834 91.3598 104.9C91.3553 104.963 91.3553 105.027 91.3598 105.09C91.3874 105.15 91.4209 105.207 91.4598 105.26C91.491 105.316 91.5316 105.367 91.5798 105.41L91.7298 105.54L91.9098 105.63C91.9682 105.654 92.0284 105.674 92.0898 105.69H92.2898C92.4221 105.689 92.553 105.663 92.6749 105.611C92.7967 105.56 92.9072 105.484 92.9998 105.39C93.048 105.347 93.0886 105.296 93.1198 105.24C93.1586 105.187 93.1921 105.13 93.2198 105.07C93.2243 105.007 93.2243 104.943 93.2198 104.88C93.2301 104.814 93.2301 104.746 93.2198 104.68C93.2296 104.617 93.2296 104.553 93.2198 104.49C93.2093 104.446 93.1959 104.402 93.1798 104.36Z"></path>
<path fill="#313131" d="M116.44 97.3299C116.497 97.3659 116.557 97.3961 116.62 97.4199C116.677 97.4488 116.737 97.469 116.8 97.4799H117H117.2C117.263 97.469 117.323 97.4488 117.38 97.4199C117.44 97.396 117.497 97.3659 117.55 97.3299L117.71 97.1999C117.803 97.1065 117.876 96.9957 117.926 96.8738C117.976 96.752 118.001 96.6215 118 96.4899C118.001 96.3583 117.976 96.2279 117.926 96.106C117.876 95.9842 117.803 95.8734 117.71 95.7799L117.55 95.6599C117.499 95.6204 117.441 95.5899 117.38 95.5699L117.2 95.5099C117.038 95.476 116.87 95.483 116.711 95.5301C116.552 95.5772 116.407 95.6631 116.29 95.7799C116.197 95.8734 116.124 95.9842 116.074 96.106C116.024 96.2279 115.999 96.3583 116 96.4899C115.999 96.6215 116.024 96.752 116.074 96.8738C116.124 96.9957 116.197 97.1065 116.29 97.1999L116.44 97.3299Z"></path>
<path fill="#313131" d="M125.25 100.25C125.515 100.25 125.77 100.145 125.957 99.9571C126.145 99.7695 126.25 99.5152 126.25 99.25C126.255 99.1867 126.255 99.1232 126.25 99.06C126.255 98.9967 126.255 98.9332 126.25 98.87C126.189 98.7521 126.115 98.6414 126.03 98.54L125.88 98.42L125.7 98.33C125.64 98.2995 125.576 98.2792 125.51 98.27C125.349 98.2378 125.183 98.2456 125.026 98.2927C124.869 98.3397 124.726 98.4247 124.61 98.54C124.561 98.5887 124.518 98.6423 124.48 98.7L124.39 98.87C124.385 98.9332 124.385 98.9967 124.39 99.06C124.38 99.1229 124.38 99.187 124.39 99.25C124.391 99.3823 124.417 99.5131 124.469 99.635C124.52 99.7569 124.596 99.8673 124.69 99.96C124.841 100.114 125.037 100.216 125.25 100.25Z"></path>
<path fill="#313131" d="M68.4302 98.8599L68.3402 98.6899C68.3025 98.6323 68.2589 98.5787 68.2102 98.5299C68.0938 98.4147 67.9508 98.3297 67.7939 98.2827C67.6369 98.2356 67.4708 98.2278 67.3102 98.2599C67.2439 98.2692 67.1797 98.2895 67.1202 98.3199C67.0587 98.3399 67.0012 98.3704 66.9502 98.4099L66.7902 98.5299C66.7449 98.5791 66.7047 98.6327 66.6702 98.6899C66.6306 98.741 66.6001 98.7985 66.5802 98.8599C66.5512 98.9201 66.531 98.9841 66.5202 99.0499C66.4946 99.1787 66.4946 99.3112 66.5202 99.4399C66.531 99.5058 66.5512 99.5698 66.5802 99.6299C66.6001 99.6914 66.6306 99.7489 66.6702 99.7999C66.702 99.856 66.7425 99.9066 66.7902 99.9499C66.8828 100.044 66.9932 100.12 67.1151 100.171C67.237 100.223 67.3679 100.249 67.5002 100.25C67.6325 100.249 67.7634 100.223 67.8852 100.171C68.0071 100.12 68.1176 100.044 68.2102 99.9499C68.261 99.907 68.3049 99.8564 68.3402 99.7999L68.4302 99.6299L68.4902 99.4399C68.5158 99.3112 68.5158 99.1787 68.4902 99.0499L68.4302 98.8599Z"></path>
<path fill="#313131" d="M59.8098 95.6599C59.7587 95.6204 59.7012 95.5899 59.6398 95.5699L59.4498 95.5099C59.2876 95.476 59.1195 95.483 58.9607 95.5301C58.8019 95.5772 58.6572 95.6631 58.5398 95.7799L58.4198 95.9399C58.3802 95.991 58.3498 96.0485 58.3298 96.1099C58.3008 96.1701 58.2806 96.2341 58.2698 96.2999C58.2649 96.3632 58.2649 96.4267 58.2698 96.4899C58.2698 96.7551 58.3751 97.0095 58.5627 97.197C58.7502 97.3846 59.0046 97.4899 59.2698 97.4899H59.4698L59.6598 97.4299C59.7195 97.406 59.7765 97.3759 59.8298 97.3399C59.8918 97.3002 59.9489 97.2532 59.9998 97.1999C60.0925 97.1065 60.1658 96.9957 60.2156 96.8738C60.2653 96.752 60.2905 96.6215 60.2898 96.4899C60.2905 96.3583 60.2653 96.2279 60.2156 96.106C60.1658 95.9842 60.0925 95.8734 59.9998 95.7799L59.8098 95.6599Z"></path>
<path fill="#313131" d="M87.6798 101.61L87.5898 101.44C87.5545 101.383 87.5107 101.333 87.4598 101.29L87.3098 101.16C87.2552 101.12 87.1944 101.09 87.1298 101.07L86.9998 101C86.8368 100.967 86.6682 100.976 86.5093 101.025C86.3504 101.074 86.2062 101.161 86.0898 101.28C86.0392 101.32 85.9982 101.372 85.9698 101.43C85.9309 101.483 85.8974 101.54 85.8698 101.6C85.8653 101.663 85.8653 101.727 85.8698 101.79C85.8442 101.919 85.8442 102.051 85.8698 102.18C85.8653 102.243 85.8653 102.307 85.8698 102.37C85.8974 102.43 85.9309 102.487 85.9698 102.54C86.0016 102.596 86.0421 102.647 86.0898 102.69C86.1824 102.784 86.2928 102.86 86.4147 102.911C86.5366 102.963 86.6675 102.989 86.7998 102.99H86.9998C87.0624 102.979 87.1231 102.959 87.1798 102.93L87.3598 102.84L87.5098 102.71C87.558 102.664 87.6015 102.614 87.6398 102.56L87.7298 102.39C87.7343 102.327 87.7343 102.263 87.7298 102.2C87.7401 102.134 87.7401 102.066 87.7298 102C87.7395 101.937 87.7395 101.873 87.7298 101.81C87.7183 101.742 87.7016 101.675 87.6798 101.61Z"></path>
<path fill="#313131" d="M61.5001 72.75L59.5801 73.86C59.3442 73.9941 59.151 74.1922 59.0228 74.4313C58.8946 74.6704 58.8365 74.9409 58.8553 75.2116C58.8741 75.4823 58.9691 75.7422 59.1291 75.9613C59.2892 76.1804 59.5079 76.3498 59.7601 76.45L70.7601 80.89C70.9303 80.9646 71.1143 81.002 71.3001 81C71.5896 81.003 71.8731 80.9175 72.1126 80.7548C72.3521 80.5922 72.5361 80.3602 72.6401 80.09C72.6884 79.9851 72.722 79.8741 72.7401 79.76L74.4501 68C74.4901 67.7319 74.453 67.4579 74.3432 67.21C74.2335 66.9622 74.0555 66.7506 73.8301 66.6C73.604 66.4478 73.3397 66.3624 73.0673 66.3535C72.7949 66.3447 72.5255 66.4128 72.2901 66.55L70.3801 67.66L64.6301 57.68C64.5079 57.4646 64.344 57.2758 64.1479 57.1247C63.9517 56.9735 63.7274 56.863 63.4881 56.7997C63.2487 56.7363 62.9991 56.7214 62.7539 56.7558C62.5087 56.7902 62.2728 56.8732 62.0601 57L56.4401 60.23C56.0079 60.4838 55.6921 60.8965 55.5601 61.38C55.496 61.6191 55.4799 61.8686 55.5125 62.114C55.5451 62.3594 55.6258 62.5959 55.7501 62.81L61.5001 72.75ZM62.9601 58.75L68.9601 69.08C69.0553 69.2474 69.183 69.3942 69.3356 69.5117C69.4882 69.6292 69.6627 69.7152 69.8489 69.7645C70.0351 69.8139 70.2293 69.8256 70.4201 69.7991C70.6108 69.7726 70.7944 69.7083 70.9601 69.61L72.3601 68.8L70.9501 78.74L61.5801 75L63.0001 74.21C63.3309 74.0167 63.5718 73.7003 63.6701 73.33C63.7206 73.1477 63.7333 72.957 63.7075 72.7695C63.6817 72.5821 63.618 72.4019 63.5201 72.24L57.5201 61.9L62.9601 58.75Z"></path>
<path fill="#313131" d="M117.22 79.7601C117.24 79.8724 117.27 79.9828 117.31 80.0901C117.381 80.2668 117.487 80.4276 117.621 80.5633C117.755 80.6989 117.914 80.8065 118.09 80.8801C118.269 80.9599 118.463 81.0008 118.66 81.0001C118.845 80.9973 119.028 80.96 119.2 80.8901L130.2 76.4501C130.452 76.3499 130.671 76.1804 130.831 75.9613C130.991 75.7422 131.086 75.4824 131.105 75.2117C131.123 74.941 131.065 74.6705 130.937 74.4314C130.809 74.1922 130.616 73.9942 130.38 73.8601L128.5 72.7501L134.25 62.8001C134.374 62.586 134.455 62.3494 134.487 62.104C134.52 61.8586 134.504 61.6092 134.44 61.3701C134.308 60.8866 133.992 60.4738 133.56 60.2201L127.94 57.0001C127.726 56.8751 127.49 56.7937 127.244 56.7608C126.999 56.7278 126.75 56.7439 126.511 56.8081C126.272 56.8723 126.048 56.9833 125.852 57.1347C125.656 57.2861 125.492 57.4749 125.37 57.6901L119.62 67.6901L117.71 66.5801C117.474 66.4428 117.205 66.3747 116.933 66.3836C116.66 66.3924 116.396 66.4779 116.17 66.6301C115.944 66.7807 115.766 66.9922 115.657 67.2401C115.547 67.488 115.51 67.7619 115.55 68.0301L117.22 79.7601ZM119.1 69.6401C119.265 69.7383 119.449 69.8026 119.64 69.8291C119.831 69.8557 120.025 69.8439 120.211 69.7946C120.397 69.7452 120.572 69.6593 120.724 69.5418C120.877 69.4242 121.005 69.2775 121.1 69.1101L127.1 58.7801L132.51 61.9001L126.51 72.2401C126.412 72.402 126.348 72.5822 126.322 72.7696C126.297 72.957 126.309 73.1477 126.36 73.3301C126.407 73.5141 126.491 73.6868 126.606 73.838C126.721 73.9891 126.865 74.1157 127.03 74.2101L128.44 75.0201L119.13 78.7701L117.7 68.8301L119.1 69.6401Z"></path>
<path fill="#313131" d="M72.7798 118.73C72.7593 118.618 72.7291 118.507 72.6898 118.4C72.5432 118.045 72.2632 117.761 71.91 117.61C71.5567 117.458 71.1582 117.451 70.7998 117.59L59.7598 122C59.5076 122.1 59.2889 122.27 59.1288 122.489C58.9687 122.708 58.8738 122.968 58.855 123.238C58.8362 123.509 58.8943 123.78 59.0225 124.019C59.1507 124.258 59.3439 124.456 59.5798 124.59L61.4998 125.7L55.7498 135.7C55.6261 135.914 55.5459 136.15 55.5136 136.395C55.4814 136.64 55.4978 136.889 55.5619 137.128C55.6259 137.367 55.7365 137.591 55.8871 137.786C56.0378 137.982 56.2256 138.147 56.4398 138.27L62.0598 141.51C62.3428 141.683 62.6683 141.773 62.9998 141.77C63.3361 141.764 63.6647 141.669 63.9514 141.493C64.2381 141.317 64.4724 141.067 64.6298 140.77L70.3798 130.77L72.2898 132C72.5239 132.139 72.7928 132.209 73.0651 132.202C73.3373 132.194 73.6019 132.11 73.8281 131.958C74.0542 131.806 74.2327 131.593 74.3427 131.344C74.4528 131.095 74.4899 130.819 74.4498 130.55L72.7798 118.73ZM70.8998 128.85C70.7341 128.752 70.5505 128.687 70.3597 128.661C70.169 128.634 69.9748 128.646 69.7886 128.696C69.6024 128.745 69.4279 128.831 69.2753 128.948C69.1227 129.066 68.995 129.213 68.8998 129.38L62.9998 139.71L57.5898 136.59L63.5898 126.25C63.6898 126.085 63.7558 125.902 63.7838 125.712C63.8118 125.521 63.8012 125.327 63.7527 125.14C63.7042 124.954 63.6188 124.779 63.5015 124.626C63.3842 124.473 63.2374 124.345 63.0698 124.25L61.6598 123.44L70.9698 119.69L72.3798 129.63L70.8998 128.85Z"></path>
<path fill="#313131" d="M128.5 125.74L130.42 124.63C130.667 124.5 130.872 124.301 131.008 124.057C131.145 123.813 131.207 123.535 131.188 123.256C131.169 122.977 131.069 122.71 130.901 122.487C130.732 122.264 130.503 122.095 130.24 122L119.24 117.55C118.881 117.411 118.483 117.418 118.13 117.57C117.776 117.721 117.496 118.005 117.35 118.36C117.31 118.467 117.28 118.578 117.26 118.69L115.55 130.52C115.503 130.792 115.535 131.071 115.642 131.325C115.749 131.579 115.927 131.797 116.155 131.953C116.382 132.109 116.65 132.196 116.926 132.205C117.201 132.213 117.473 132.142 117.71 132L119.62 130.89L125.37 140.89C125.527 141.187 125.762 141.437 126.048 141.613C126.335 141.789 126.664 141.884 127 141.89C127.331 141.893 127.657 141.802 127.94 141.63L133.56 138.39C133.774 138.267 133.962 138.102 134.113 137.906C134.263 137.71 134.374 137.487 134.438 137.248C134.502 137.009 134.518 136.76 134.486 136.515C134.454 136.27 134.374 136.034 134.25 135.82L128.5 125.74ZM127 139.71L121 129.38C120.873 129.158 120.689 128.974 120.468 128.845C120.247 128.717 119.996 128.65 119.74 128.65C119.487 128.654 119.239 128.723 119.02 128.85L117.62 129.66L119.03 119.72L128.34 123.47L127 124.28C126.832 124.375 126.685 124.503 126.568 124.656C126.451 124.809 126.365 124.984 126.317 125.17C126.268 125.357 126.258 125.551 126.286 125.742C126.314 125.932 126.38 126.115 126.48 126.28L132.48 136.62L127 139.71Z"></path>
<path fill="#313131" d="M94.9998 78.25C96.7229 78.2473 98.3746 77.5617 99.5931 76.3433C100.811 75.1248 101.497 73.4731 101.5 71.75C101.445 69.6866 100.933 67.6612 99.9998 65.82C99.298 64.3453 98.429 62.9561 97.4098 61.68C95.8398 59.74 95.2498 59.74 94.9698 59.74C94.6898 59.74 94.0998 59.74 92.5298 61.68C91.5315 62.9591 90.6827 64.3481 89.9998 65.82C89.0773 67.6636 88.5753 69.6889 88.5298 71.75C88.5324 73.4679 89.2139 75.1152 90.4259 76.3327C91.6378 77.5503 93.2819 78.2394 94.9998 78.25ZM91.7898 66.67C92.5985 64.949 93.6828 63.3716 94.9998 62C96.3204 63.3837 97.4048 64.9748 98.2098 66.71C99.0088 68.2876 99.4494 70.0223 99.4998 71.79C99.4998 72.9835 99.0257 74.1281 98.1818 74.972C97.3379 75.8159 96.1933 76.29 94.9998 76.29C93.8063 76.29 92.6617 75.8159 91.8178 74.972C90.9739 74.1281 90.4998 72.9835 90.4998 71.79C90.5443 70.0087 90.985 68.2597 91.7898 66.67Z"></path>
<path fill="#313131" d="M138.11 84.49H115.94C115.725 84.4897 115.513 84.4461 115.315 84.362C115.118 84.2778 114.939 84.1547 114.79 84C113.52 82.731 112.115 81.6043 110.6 80.64C110.947 79.9086 111.128 79.1095 111.13 78.3V59.68C111.13 58.2399 110.558 56.8587 109.54 55.8404C108.521 54.8221 107.14 54.25 105.7 54.25H84.3001C82.86 54.25 81.4788 54.8221 80.4605 55.8404C79.4422 56.8587 78.8701 58.2399 78.8701 59.68V78.32C78.8687 79.1299 79.0499 79.9297 79.4001 80.66C77.886 81.6174 76.481 82.7374 75.2101 84C75.0594 84.1511 74.8801 84.2705 74.6826 84.3512C74.4851 84.4319 74.2734 84.4723 74.0601 84.47H51.8901C51.6402 84.47 51.3928 84.5195 51.1622 84.6158C50.9316 84.712 50.7223 84.853 50.5466 85.0306C50.3708 85.2082 50.232 85.419 50.1382 85.6506C50.0444 85.8822 49.9975 86.1301 50.0001 86.38V104.74V109.36C50.0001 109.861 50.1992 110.342 50.5537 110.696C50.9081 111.051 51.3888 111.25 51.8901 111.25H74.0601C74.2734 111.248 74.4851 111.288 74.6826 111.369C74.8801 111.45 75.0594 111.569 75.2101 111.72C80.5217 116.823 87.6353 119.62 95.0001 119.5C102.365 119.62 109.479 116.823 114.79 111.72C114.941 111.569 115.12 111.45 115.318 111.369C115.515 111.288 115.727 111.248 115.94 111.25H138.11C138.611 111.25 139.092 111.051 139.447 110.696C139.801 110.342 140 109.861 140 109.36V86.36C139.995 85.8622 139.793 85.3866 139.44 85.0365C139.086 84.6863 138.608 84.49 138.11 84.49ZM52.0001 92H74.8501C75.8369 92.0047 76.8139 91.8044 77.7194 91.4119C78.6248 91.0195 79.4389 90.4434 80.1101 89.72C83.0224 86.6971 86.8499 84.7184 91.0001 84.09L93.6201 86.72C93.9774 87.0718 94.4587 87.2689 94.9601 87.2689C95.4615 87.2689 95.9428 87.0718 96.3001 86.72L99.0001 84.09C103.165 84.71 107.007 86.6894 109.93 89.72C110.597 90.4384 111.404 91.0116 112.303 91.4039C113.201 91.7962 114.17 91.9991 115.15 92H138V103.74H115.15C114.15 103.744 113.162 103.953 112.246 104.356C111.331 104.759 110.509 105.346 109.83 106.08C106.4 109.78 100.86 112 95.0001 112C89.1401 112 83.6001 109.79 80.1701 106.09C79.4916 105.356 78.669 104.769 77.7537 104.366C76.8384 103.963 75.85 103.754 74.8501 103.75H52.0001V92ZM115.93 86.5H138V90H115.15C114.441 90.0059 113.739 89.864 113.088 89.5833C112.438 89.3027 111.852 88.8894 111.37 88.37C109.522 86.3959 107.285 84.8263 104.8 83.76H105.7C107.079 83.7637 108.408 83.2375 109.41 82.29C110.862 83.1842 112.204 84.2447 113.41 85.45C114.086 86.1134 114.993 86.4896 115.94 86.5H115.93ZM80.8801 64.26V59.67C80.8788 59.2205 80.9663 58.7752 81.1377 58.3597C81.3092 57.9441 81.561 57.5666 81.8789 57.2488C82.1967 56.9309 82.5742 56.679 82.9898 56.5076C83.4053 56.3362 83.8506 56.2487 84.3001 56.25H105.7C106.607 56.2513 107.477 56.6107 108.12 57.25C108.44 57.5684 108.693 57.9473 108.864 58.3645C109.036 58.7817 109.123 59.2289 109.12 59.68V78.32C109.121 78.7695 109.034 79.2148 108.862 79.6303C108.691 80.0459 108.439 80.4234 108.121 80.7412C107.804 81.0591 107.426 81.311 107.01 81.4824C106.595 81.6538 106.15 81.7413 105.7 81.74H99.6201C99.2485 81.7333 98.8794 81.8026 98.5355 81.9436C98.1916 82.0846 97.8801 82.2944 97.6201 82.56L95.0001 85.22L92.3401 82.56C92.0801 82.2944 91.7686 82.0846 91.4247 81.9436C91.0808 81.8026 90.7117 81.7333 90.3401 81.74H84.3001C83.3931 81.74 82.5232 81.3797 81.8818 80.7383C81.2404 80.0969 80.8801 79.227 80.8801 78.32V70.46V64.26ZM74.0601 86.5C75.0261 86.5 75.9531 86.1191 76.6401 85.44C77.846 84.2347 79.1884 83.1742 80.6401 82.28C81.6448 83.224 82.9715 83.7497 84.3501 83.75H85.2501C82.7651 84.8163 80.5281 86.3859 78.6801 88.36C78.1931 88.8876 77.6002 89.3063 76.9402 89.5889C76.2802 89.8716 75.568 90.0116 74.8501 90H52.0001V86.5H74.0601ZM115.94 109.24C114.974 109.24 114.047 109.621 113.36 110.3C108.43 115.027 101.829 117.612 95.0001 117.49C88.1707 117.612 81.5704 115.027 76.6401 110.3C75.9531 109.621 75.0261 109.24 74.0601 109.24H52.0001V105.75H74.8501C75.5739 105.755 76.2889 105.909 76.9511 106.201C77.6132 106.494 78.2085 106.919 78.7001 107.45C82.5001 111.55 88.5901 114 95.0001 114C101.41 114 107.5 111.55 111.3 107.45C111.792 106.919 112.387 106.494 113.049 106.201C113.711 105.909 114.426 105.755 115.15 105.75H138V109.24H115.94Z"></path>
<defs>
<clipPath id="clip0_87_3509">
<rect fill="white" height="196" width="189"></rect>
</clipPath>
</defs>
</svg>
