<svg xmlns="http://www.w3.org/2000/svg" fill="none" viewBox="0 0 189 196" height="196" width="189">
<g clip-path="url(#clip0_719_403)">
<path fill="#018D43" d="M44.4919 14.6153C44.4919 14.6153 45.2044 14.1296 46.6118 13.3343C47.3103 12.9296 48.1745 12.4333 49.1869 11.8456C50.2169 11.2931 51.4197 10.6878 52.7566 9.99804C53.0953 9.82912 53.4304 9.6426 53.7937 9.48072C54.1535 9.31531 54.5239 9.14991 54.9013 8.97747C55.6597 8.6361 56.4499 8.27714 57.2788 7.9041C57.4869 7.8126 57.695 7.71758 57.9032 7.62256C58.1183 7.5381 58.3335 7.45012 58.5522 7.36214C58.9896 7.1897 59.4376 7.01374 59.8926 6.83425C60.8062 6.48233 61.741 6.0917 62.7252 5.73625C64.7111 5.08168 66.7994 4.30041 69.071 3.70918C69.6354 3.55081 70.2069 3.38893 70.7854 3.22704C71.0746 3.1461 71.3639 3.06516 71.6566 2.98422C71.9529 2.91735 72.2492 2.84697 72.5491 2.7801C73.7484 2.5056 74.976 2.22758 76.2247 1.94252C86.2849 -0.0634365 98.3664 -0.82711 110.942 1.19645C117.217 2.19591 123.591 3.85699 129.789 6.20431C135.986 8.5446 142.001 11.5923 147.592 15.2065C153.186 18.8172 158.361 23.0051 162.947 27.5625C167.536 32.1199 171.536 37.0468 174.876 42.0934C178.22 47.14 180.905 52.2992 182.975 57.3071C185.074 62.3079 186.464 67.1926 187.42 71.662C188.418 76.1279 188.778 80.2384 188.979 83.7541C189 85.5242 189 87.1501 188.951 88.6141C188.842 90.0887 188.711 91.4014 188.556 92.5451C188.514 92.8302 188.482 93.1047 188.432 93.3721C188.376 93.6361 188.32 93.8895 188.267 94.1358C188.154 94.6215 188.037 95.0649 187.917 95.4626C187.678 96.2579 187.424 96.8738 187.152 97.2996C186.612 98.1512 186.013 98.2498 185.342 97.5283C185.342 97.5283 185.293 96.7189 185.201 95.2549C185.18 94.8889 185.155 94.4842 185.131 94.0373C185.117 93.8155 185.11 93.5833 185.085 93.344C185.06 93.1047 185.032 92.8548 185.004 92.5944C184.894 91.5632 184.771 90.3878 184.633 89.0892C184.439 87.8012 184.224 86.39 183.998 84.8767C183.882 84.1201 183.699 83.3494 183.547 82.5505C183.388 81.7516 183.222 80.9316 183.053 80.0906C182.235 76.7578 181.318 73.1049 179.967 69.3991C179.367 67.5199 178.556 65.6723 177.829 63.7684C177.413 62.8358 176.996 61.8997 176.577 60.9565C176.365 60.4884 176.168 60.0098 175.942 59.5453L175.247 58.1587L174.555 56.7651C174.323 56.3006 174.104 55.8325 173.843 55.382C173.342 54.4741 172.841 53.5661 172.344 52.6617C172.104 52.2042 171.832 51.7643 171.564 51.3244C171.296 50.8845 171.032 50.4446 170.767 50.0047C170.502 49.5647 170.238 49.1248 169.977 48.6885C169.716 48.2521 169.42 47.8368 169.144 47.4145C168.591 46.5664 168.037 45.7253 167.494 44.8947C166.915 44.0853 166.344 43.2829 165.779 42.4911C165.497 42.0969 165.225 41.6922 164.94 41.3086C164.647 40.9286 164.358 40.552 164.068 40.1754C163.497 39.4188 162.936 38.6762 162.382 37.9478C161.804 37.2369 161.239 36.5436 160.686 35.8609C160.41 35.516 160.142 35.1746 159.874 34.8403C159.61 34.4989 159.32 34.1927 159.052 33.8725C157.959 32.6091 156.982 31.3457 155.987 30.2547C152.142 25.7501 147.581 21.425 141.701 17.304C141.334 17.0435 140.964 16.7831 140.59 16.5192C140.209 16.2658 139.817 16.0265 139.429 15.7766C138.643 15.2839 137.842 14.7807 137.027 14.2704C136.205 13.7671 135.337 13.3167 134.47 12.8275C133.595 12.3524 132.709 11.8351 131.771 11.4057C130.836 10.9588 129.88 10.5013 128.91 10.0368C127.93 9.58629 126.907 9.19214 125.873 8.75575C125.355 8.54108 124.829 8.32641 124.3 8.11173C123.76 7.9217 123.217 7.72814 122.667 7.53458C122.117 7.34102 121.559 7.14747 120.995 6.95039C120.43 6.75683 119.863 6.54568 119.277 6.38731C118.106 6.04947 116.91 5.70458 115.693 5.35618C114.466 5.03241 113.199 4.76495 111.908 4.46229C110.621 4.13852 109.284 3.94849 107.926 3.70214C107.245 3.58601 106.557 3.46283 105.862 3.35374C105.164 3.26927 104.455 3.18481 103.742 3.10035C98.0242 2.41762 91.7524 2.19943 84.948 2.78362C78.1506 3.36781 70.8312 4.76495 63.1802 7.30935C62.2278 7.63664 61.2789 8.00264 60.3124 8.35456C59.8291 8.53404 59.3459 8.71352 58.8591 8.893C58.3688 9.06545 57.8961 9.29068 57.4129 9.49127C56.4463 9.90302 55.4728 10.3218 54.4886 10.7406C53.515 11.1805 52.5485 11.6732 51.5644 12.1448C51.074 12.3841 50.5802 12.6269 50.0828 12.8662C49.5961 13.1231 49.1128 13.3941 48.6225 13.6616C47.6489 14.2035 46.6542 14.7314 45.67 15.3015C44.7035 15.8963 43.7229 16.4981 42.7387 17.1069C42.4918 17.2582 42.2449 17.4131 41.998 17.5644C41.751 17.7192 41.5147 17.8917 41.2713 18.0536C40.788 18.3844 40.3048 18.7152 39.8145 19.0495C39.8145 19.0495 39.4265 19.2994 38.8092 19.697C38.1813 20.0806 37.3594 20.6719 36.4599 21.3053C36.0084 21.6221 35.5392 21.9529 35.0665 22.2802C34.5974 22.611 34.1177 22.9312 33.6873 23.2726C32.8125 23.9377 32.0012 24.5395 31.4051 24.9583C30.2128 25.7994 29.8636 25.9155 31.5285 24.3459C31.9448 23.9553 32.488 23.4556 33.1758 22.8397C33.3487 22.6849 33.5286 22.523 33.7191 22.3541C33.9166 22.1922 34.1247 22.0268 34.3399 21.8508C34.7773 21.5024 35.25 21.1223 35.765 20.7071C36.2835 20.2988 36.8444 19.8554 37.4476 19.3768C38.0719 18.9298 38.7457 18.4512 39.4617 17.9374C39.8215 17.6805 40.1954 17.4166 40.5799 17.1456C40.9644 16.8711 41.3595 16.5896 41.7863 16.3291C42.64 15.7942 43.5394 15.2206 44.4919 14.6153Z"></path>
<path fill="#018D43" d="M22.8584 34.6151C22.8584 34.6151 23.1053 34.3406 23.5744 33.8233C23.8108 33.5663 24.1 33.2461 24.4457 32.8695C24.8055 32.5071 25.2217 32.0918 25.6874 31.6237C26.1565 31.1557 26.6751 30.6383 27.243 30.0718C27.3841 29.931 27.5287 29.7867 27.6768 29.6389C27.832 29.4981 27.9873 29.3538 28.1495 29.2095C28.4705 28.9174 28.8056 28.6148 29.1513 28.3016C29.8462 27.6787 30.5729 26.9959 31.3736 26.3097C32.1884 25.641 33.0491 24.9337 33.9521 24.1946C37.6136 21.2983 42.157 18.1169 47.494 15.2136C52.8204 12.3032 58.937 9.67429 65.5086 7.7352C72.0767 5.78906 79.0927 4.53622 86.0841 4.13503C93.0755 3.71272 100.035 4.1843 106.487 5.31749C112.942 6.45068 118.886 8.28068 123.972 10.4169C129.073 12.5389 133.285 15.0482 136.519 17.311C138.121 18.4759 139.225 19.3311 139.846 20.0173C140.481 20.6789 140.685 21.0696 140.527 21.2244C140.199 21.5447 138.449 20.8549 135.549 19.7217C135.19 19.5739 134.816 19.4155 134.421 19.2536C134.029 19.0882 133.606 18.9475 133.175 18.7785C132.311 18.4513 131.387 18.0923 130.406 17.7017C128.41 17.0154 126.205 16.1778 123.754 15.4669C118.879 13.9748 113.154 12.634 107.023 11.8773C100.899 11.1101 94.3736 10.9307 88.0489 11.4058C81.7207 11.8668 75.6041 12.9859 70.2177 14.4569C64.8243 15.9174 60.1716 17.7193 56.5806 19.2114C55.6847 19.595 54.8487 19.9434 54.0797 20.2566C53.3248 20.598 52.6405 20.9147 52.0232 21.1822C50.7921 21.7171 49.8397 22.0761 49.2577 22.2802C48.6651 22.4702 48.0301 22.6849 47.3529 22.9242C46.6791 23.1705 45.9454 23.4134 45.2117 23.7547C44.471 24.082 43.6843 24.4375 42.8589 24.8281C42.4497 25.0252 42.0123 25.2117 41.5926 25.444C41.1693 25.6762 40.7389 25.912 40.2945 26.1548C36.7141 28.0728 32.6188 30.7932 28.2165 34.594C27.0807 35.5125 26.0225 36.5823 24.8725 37.6592C24.5868 37.9302 24.3011 38.2047 24.0118 38.4827C23.7296 38.7678 23.458 39.0634 23.1758 39.359C22.615 39.9537 22.0471 40.5591 21.4686 41.1749C20.8759 41.7837 20.3327 42.4489 19.7683 43.1175C19.2039 43.7897 18.6325 44.476 18.0505 45.1692C17.4896 45.8801 16.9464 46.6262 16.3785 47.3723C15.8247 48.1289 15.2215 48.875 14.6994 49.6915C14.1597 50.4974 13.613 51.3173 13.0556 52.1514C12.918 52.359 12.777 52.5702 12.6394 52.7813C12.5089 52.9995 12.3819 53.2142 12.2514 53.4324C11.9903 53.8688 11.7293 54.3122 11.4647 54.7556C11.2002 55.2026 10.9356 55.6495 10.6711 56.1035C10.537 56.3287 10.4065 56.5575 10.2725 56.7862C10.149 57.022 10.0256 57.2543 9.90209 57.4901C9.40825 58.4367 8.90736 59.3975 8.3994 60.3723C8.13485 60.858 7.91615 61.3647 7.68334 61.8715C7.45052 62.3783 7.21771 62.8921 6.9849 63.4059C6.75209 63.9232 6.51575 64.4441 6.27942 64.9684C6.05366 65.4963 5.8526 66.0383 5.63742 66.5802C5.22118 67.6677 4.76262 68.7622 4.36755 69.8954C3.99011 71.0356 3.60915 72.1899 3.22113 73.3618C3.22113 73.3618 3.17527 73.0803 3.28815 72.0667C3.34459 71.56 3.44688 70.8667 3.61267 69.9341C3.655 69.7018 3.69733 69.4519 3.75377 69.188C3.81727 68.9276 3.88781 68.6496 3.95836 68.3575C4.10652 67.7697 4.27936 67.1187 4.48042 66.3902C5.27762 63.4833 6.67802 59.4257 9.35887 54.0447C9.70103 53.3761 10.0538 52.6828 10.4242 51.9614C10.7981 51.247 11.2355 50.5361 11.6658 49.783C12.1032 49.0369 12.5477 48.2626 13.0274 47.4743C13.5354 46.7036 14.0574 45.9048 14.6006 45.0848C14.8722 44.6766 15.1509 44.2578 15.4296 43.8355C15.7188 43.4167 16.0328 43.0084 16.3397 42.5861C16.964 41.745 17.606 40.8793 18.2692 39.9854C19.6907 38.2751 21.137 36.4169 22.8584 34.6151Z"></path>
<path fill="#018D43" d="M39.8391 176.968C41.7615 178.34 43.7581 179.519 45.6911 180.712C46.6752 181.279 47.6665 181.81 48.64 182.349C49.1303 182.616 49.6101 182.887 50.1004 183.144C50.5942 183.387 51.0881 183.626 51.5784 183.866C52.5625 184.337 53.5255 184.83 54.4991 185.27C55.4832 185.689 56.4568 186.107 57.4233 186.519C57.9101 186.716 58.3793 186.945 58.8696 187.117C59.3564 187.297 59.8396 187.476 60.3229 187.656C61.2894 188.008 62.2383 188.374 63.1907 188.698C70.8382 191.238 78.1576 192.636 84.9514 193.22C91.7523 193.804 98.0241 193.586 103.742 192.903C104.458 192.819 105.164 192.734 105.862 192.65C106.561 192.541 107.245 192.417 107.926 192.301C109.284 192.055 110.621 191.868 111.908 191.541C113.199 191.238 114.466 190.971 115.693 190.647C116.914 190.295 118.106 189.95 119.277 189.613C119.862 189.454 120.43 189.243 120.995 189.049C121.559 188.852 122.117 188.659 122.667 188.465C123.217 188.272 123.764 188.078 124.304 187.888C124.833 187.67 125.358 187.455 125.877 187.244C126.91 186.808 127.937 186.414 128.917 185.963C129.887 185.499 130.843 185.041 131.778 184.591C132.72 184.161 133.602 183.644 134.48 183.169C135.351 182.68 136.219 182.229 137.041 181.726C137.856 181.216 138.657 180.712 139.443 180.22C139.835 179.97 140.226 179.731 140.604 179.477C140.978 179.213 141.348 178.953 141.715 178.692C147.595 174.568 152.16 170.239 156.001 165.738C156.992 164.644 157.969 163.38 159.063 162.12C159.331 161.8 159.62 161.49 159.881 161.153C160.149 160.818 160.417 160.477 160.693 160.132C161.246 159.453 161.811 158.756 162.386 158.049C162.936 157.32 163.5 156.578 164.072 155.824C164.361 155.451 164.65 155.071 164.943 154.691C165.229 154.304 165.497 153.903 165.783 153.509C166.347 152.717 166.918 151.918 167.497 151.109C168.04 150.278 168.594 149.437 169.148 148.589C169.423 148.163 169.719 147.751 169.98 147.315C170.241 146.879 170.506 146.439 170.77 145.999C171.035 145.559 171.303 145.122 171.568 144.679C171.836 144.239 172.111 143.803 172.347 143.342C172.845 142.437 173.345 141.529 173.846 140.621C174.107 140.174 174.33 139.703 174.559 139.238L175.25 137.845L175.945 136.458C176.171 135.994 176.368 135.515 176.58 135.047C177 134.107 177.416 133.168 177.832 132.239C178.559 130.335 179.374 128.487 179.97 126.608C181.321 122.906 182.238 119.249 183.056 115.92C183.226 115.079 183.388 114.259 183.55 113.46C183.702 112.661 183.885 111.89 184.002 111.134C184.231 109.62 184.443 108.209 184.637 106.921C184.774 105.623 184.898 104.447 185.007 103.416C185.035 103.159 185.064 102.909 185.088 102.666C185.113 102.427 185.117 102.195 185.134 101.973C185.159 101.53 185.184 101.121 185.205 100.755C185.296 99.2915 185.346 98.4821 185.346 98.4821C186.012 97.7641 186.616 97.8592 187.155 98.7108C187.423 99.1366 187.681 99.7525 187.921 100.548C188.041 100.946 188.157 101.389 188.27 101.875C188.323 102.117 188.379 102.374 188.436 102.638C188.489 102.902 188.52 103.177 188.559 103.465C188.714 104.609 188.845 105.922 188.954 107.393C189.004 108.86 189 110.483 188.983 112.253C188.782 115.769 188.425 119.879 187.423 124.345C186.468 128.814 185.078 133.699 182.982 138.696C180.912 143.704 178.227 148.863 174.883 153.91C171.543 158.957 167.546 163.883 162.957 168.441C158.371 173.002 153.2 177.186 147.602 180.8C142.008 184.415 135.997 187.459 129.799 189.803C123.602 192.15 117.231 193.811 110.956 194.81C98.3804 196.834 86.2989 196.074 76.2387 194.068C74.9864 193.783 73.7589 193.501 72.5631 193.23C72.2633 193.16 71.967 193.093 71.6706 193.026C71.3779 192.945 71.0886 192.864 70.7994 192.783C70.2209 192.621 69.6494 192.46 69.085 192.301C66.8134 191.71 64.7287 190.932 62.7392 190.274C61.755 189.922 60.8203 189.532 59.9067 189.18C59.4516 189 59.0036 188.824 58.5662 188.652C58.3475 188.564 58.1288 188.479 57.9172 188.391C57.7055 188.296 57.4974 188.201 57.2928 188.11C56.4674 187.737 55.6737 187.378 54.9189 187.036C54.5414 186.864 54.171 186.695 53.8112 186.533C53.4479 186.371 53.1128 186.181 52.7742 186.016C51.4373 185.326 50.2344 184.721 49.2044 184.168C48.192 183.584 47.3278 183.084 46.6294 182.68C45.9345 182.271 45.3877 181.972 45.0385 181.744C44.6858 181.518 44.5059 181.399 44.5059 181.399C43.5535 180.793 42.654 180.22 41.8074 179.681C41.3806 179.417 40.982 179.139 40.5975 178.861C40.213 178.587 39.8391 178.323 39.4793 178.069C38.7597 177.556 38.0895 177.077 37.4616 176.627C36.8584 176.148 36.2975 175.708 35.779 175.296C35.264 174.885 34.7878 174.501 34.3539 174.153C34.1352 173.977 33.9306 173.808 33.7331 173.649C33.5426 173.48 33.3627 173.318 33.1899 173.164C32.502 172.548 31.9588 172.048 31.5425 171.657C29.8776 170.088 30.2268 170.204 31.4226 171.045C32.0223 171.467 32.8301 172.069 33.7084 172.738C34.1387 173.079 34.6185 173.399 35.0911 173.73C35.5603 174.061 36.033 174.392 36.4845 174.709C36.936 175.025 37.3663 175.331 37.7614 175.609C38.153 175.895 38.5304 176.113 38.8373 176.32C39.4511 176.715 39.8391 176.968 39.8391 176.968Z"></path>
<path fill="#018D43" d="M49.268 173.73C49.85 173.934 50.8025 174.293 52.0371 174.828C52.6544 175.096 53.3387 175.412 54.0935 175.754C54.8625 176.067 55.7021 176.415 56.5945 176.799C60.1854 178.291 64.8381 180.093 70.2316 181.553C75.618 183.025 81.7381 184.144 88.0663 184.601C94.391 185.073 100.917 184.893 107.04 184.126C113.171 183.369 118.9 182.029 123.771 180.533C126.223 179.822 128.427 178.984 130.424 178.295C131.404 177.904 132.329 177.545 133.193 177.218C133.623 177.049 134.046 176.908 134.438 176.743C134.83 176.577 135.207 176.422 135.567 176.275C138.466 175.141 140.216 174.452 140.544 174.772C140.706 174.927 140.498 175.317 139.867 175.979C139.246 176.665 138.145 177.524 136.54 178.685C133.309 180.948 129.101 183.461 123.997 185.579C118.91 187.719 112.97 189.549 106.511 190.682C100.06 191.819 93.1035 192.291 86.1086 191.872C79.1137 191.471 72.0976 190.221 65.5295 188.275C58.9544 186.34 52.8413 183.711 47.5114 180.8C42.1743 177.897 37.6275 174.716 33.966 171.819C33.063 171.08 32.2023 170.373 31.3839 169.704C30.5797 169.021 29.8565 168.335 29.1581 167.712C28.8124 167.399 28.4773 167.096 28.1563 166.804C27.994 166.657 27.8388 166.516 27.6836 166.375C27.5355 166.227 27.3909 166.083 27.2498 165.942C26.6818 165.376 26.1633 164.858 25.6942 164.39C25.2285 163.922 24.8123 163.507 24.4525 163.144C24.1103 162.768 23.8176 162.448 23.5812 162.191C23.1121 161.673 22.8652 161.399 22.8652 161.399C21.1438 159.593 19.694 157.739 18.276 156.025C17.6128 155.131 16.9708 154.265 16.3465 153.424C16.0396 153.002 15.7256 152.59 15.4364 152.175C15.1542 151.753 14.879 151.334 14.6074 150.926C14.0677 150.102 13.5421 149.307 13.0342 148.533C12.5509 147.744 12.11 146.97 11.6726 146.224C11.2423 145.474 10.8049 144.76 10.4309 144.046C10.0641 143.328 9.70782 142.634 9.36566 141.962C6.68128 136.578 5.28442 132.524 4.48722 129.62C4.28615 128.892 4.11331 128.241 3.96516 127.653C3.89108 127.361 3.82406 127.083 3.76056 126.822C3.7006 126.562 3.6618 126.312 3.61594 126.076C3.45015 125.144 3.35138 124.454 3.29142 123.947C3.17501 122.934 3.22439 122.656 3.22439 122.656C3.61241 123.828 3.99338 124.982 4.37081 126.122C4.76941 127.255 5.22445 128.35 5.64069 129.437C5.85586 129.979 6.05693 130.521 6.28621 131.049C6.52255 131.573 6.75889 132.094 6.9917 132.608C7.22451 133.122 7.45732 133.636 7.69013 134.142C7.92294 134.649 8.14164 135.156 8.4062 135.642C8.91415 136.616 9.41504 137.577 9.90889 138.524C10.0323 138.76 10.1558 138.995 10.2793 139.228C10.4133 139.456 10.5474 139.685 10.6814 139.91C10.9495 140.361 11.214 140.811 11.4751 141.258C11.7396 141.702 12.0007 142.142 12.2617 142.582C12.3922 142.8 12.5227 143.018 12.6532 143.233C12.7943 143.444 12.9319 143.651 13.0695 143.863C13.6268 144.697 14.1736 145.513 14.7133 146.322C15.2353 147.139 15.8385 147.885 16.3923 148.642C16.9602 149.391 17.4999 150.134 18.0643 150.845C18.6463 151.538 19.2178 152.224 19.7822 152.896C20.3466 153.565 20.8898 154.23 21.4824 154.839C22.0609 155.455 22.6288 156.06 23.1897 156.655C23.4719 156.951 23.7435 157.246 24.0257 157.531C24.3149 157.809 24.6007 158.084 24.8864 158.355C26.0363 159.432 27.0946 160.501 28.2304 161.42C32.6326 165.221 36.728 167.941 40.3083 169.859C40.7528 170.102 41.1867 170.338 41.6064 170.57C42.0262 170.799 42.4636 170.985 42.8728 171.186C43.7017 171.573 44.4848 171.932 45.2256 172.259C45.9558 172.601 46.6965 172.843 47.3667 173.09C48.0405 173.326 48.6719 173.54 49.268 173.73Z"></path>
<path fill="#018D43" d="M23.2708 45.2502C23.7646 44.8596 24.1385 44.6238 24.3995 44.5288C24.6711 44.4373 24.8264 44.483 24.8828 44.6414C24.9886 44.9511 24.7488 45.7535 24.2267 46.8655C23.9692 47.4216 23.6447 48.0621 23.2637 48.7624C22.9074 49.4768 22.5194 50.2686 22.0855 51.1027C21.8668 51.518 21.6411 51.9438 21.4083 52.3837C21.1684 52.8166 20.9673 53.2881 20.7381 53.7527C20.283 54.6817 19.8103 55.646 19.3271 56.6279C17.4646 60.5835 15.7996 64.9121 14.6391 68.2624C14.1135 69.9552 13.6691 71.3875 13.3587 72.3975C13.0906 73.4181 12.9318 74.0129 12.9318 74.0129C11.3233 80.1187 10.3815 86.2528 10.0217 91.9715C9.65485 97.6903 9.85592 102.983 10.2827 107.449C10.4133 108.565 10.5402 109.631 10.6566 110.641C10.7025 111.148 10.7977 111.637 10.8753 112.112C10.953 112.587 11.0306 113.048 11.1046 113.495C11.1787 113.942 11.2493 114.375 11.3163 114.79C11.3516 114.998 11.3833 115.202 11.415 115.403C11.4574 115.6 11.4997 115.797 11.542 115.987C11.7043 116.75 11.856 117.451 11.99 118.081C12.1276 118.711 12.2334 119.277 12.3533 119.763C12.4803 120.245 12.5897 120.657 12.6743 120.991C12.8472 121.656 12.9389 122.012 12.9389 122.012C12.9389 122.012 13.0941 122.606 13.3657 123.627C13.6797 124.637 14.1241 126.069 14.6462 127.759C15.8067 131.105 17.4752 135.434 19.3341 139.39C19.8139 140.371 20.2901 141.336 20.7451 142.265C20.9779 142.729 21.1755 143.201 21.4189 143.634C21.6517 144.074 21.8774 144.5 22.0961 144.915C22.53 145.745 22.918 146.537 23.2743 147.252C23.6517 147.952 23.9762 148.589 24.2337 149.145C24.7523 150.257 24.9957 151.059 24.8898 151.369C24.8334 151.527 24.6747 151.57 24.4031 151.482C24.1385 151.387 23.7681 151.151 23.2743 150.76C22.5512 150.187 21.7998 149.557 21.0238 148.877C20.2689 148.184 19.5281 147.417 18.7486 146.618C18.3641 146.213 17.962 145.809 17.581 145.376C17.2106 144.936 16.8332 144.485 16.4522 144.031C16.0748 143.57 15.6938 143.102 15.3058 142.627C15.1153 142.388 14.9143 142.152 14.7344 141.902C14.5545 141.652 14.371 141.399 14.1911 141.146C13.4715 140.125 12.7131 139.083 12.0077 137.989C11.3233 136.884 10.639 135.747 9.95116 134.593C9.30564 133.421 8.69187 132.217 8.06751 131.007C7.74298 130.405 7.47137 129.782 7.19623 129.159L6.36728 127.283C4.21908 122.251 2.6529 116.993 1.62994 112.13C1.40771 110.905 1.19254 109.715 0.980891 108.561C0.931506 108.273 0.875067 107.988 0.832738 107.702C0.797464 107.417 0.76219 107.132 0.726915 106.854C0.656366 106.291 0.589345 105.742 0.522324 105.2C0.45883 104.658 0.395336 104.13 0.331842 103.617C0.303623 103.36 0.268349 103.103 0.247184 102.849C0.229547 102.596 0.21191 102.346 0.1978 102.1C0.134306 101.114 0.0743396 100.182 0.0214281 99.3126C-0.0209011 98.0457 0.053175 96.7823 0.0955042 95.5154C0.162526 94.618 0.194272 93.6643 0.303623 92.6683C0.423556 91.6724 0.550543 90.6307 0.681059 89.5468C0.755135 89.0048 0.800991 88.4523 0.903287 87.8962C1.00206 87.3402 1.10435 86.7736 1.20665 86.2C1.31247 85.6263 1.41829 85.0457 1.52412 84.4544C1.57703 84.1588 1.63347 83.8632 1.68991 83.5676C1.74987 83.272 1.82748 82.9728 1.89802 82.6737C2.18727 81.4842 2.48358 80.263 2.78341 79.0243C3.1291 77.796 3.52064 76.5608 3.90161 75.315C3.99685 75.0053 4.09562 74.6921 4.19086 74.3789C4.29668 74.0692 4.41661 73.7595 4.52949 73.4498C4.75877 72.8339 4.98806 72.211 5.21734 71.5916C5.45368 70.9723 5.67238 70.3494 5.92635 69.7335C6.19444 69.1247 6.46253 68.5158 6.73061 67.907L7.54192 66.0876C7.67244 65.7849 7.82059 65.4858 7.9758 65.1937L8.43083 64.3104C8.73419 63.7262 9.04108 63.142 9.34444 62.5613L9.80301 61.6956C9.96174 61.4105 10.1346 61.1325 10.2968 60.8545C10.9671 59.7389 11.6267 58.6409 12.3004 57.5781C13.0165 56.5364 13.7326 55.5193 14.4381 54.5375C14.7802 54.0412 15.1647 53.5732 15.5386 53.1122C15.9125 52.6547 16.2829 52.2042 16.6498 51.7573C17.0201 51.3138 17.3799 50.881 17.7468 50.4622C18.1313 50.0575 18.5122 49.6598 18.8862 49.2656C19.6446 48.4949 20.3571 47.7489 21.0979 47.0802C21.8386 46.4186 22.5653 45.8062 23.2708 45.2502Z"></path>
</g>
<path fill="#E0AB85" d="M73.125 78.3125L70.6269 80.3906C69.3543 81.4513 68.3306 82.7789 67.6282 84.2793C66.9258 85.7797 66.562 87.4162 66.5625 89.0728C66.5628 91.3635 66.9321 93.6393 67.6563 95.8125L63.6214 103.881C63.3973 104.331 63.2809 104.826 63.2813 105.328C63.2812 106.048 63.5218 106.747 63.9647 107.314C64.4076 107.882 65.0275 108.285 65.7258 108.46L67.6563 108.938L69.123 117.002C69.3251 118.115 69.9116 119.122 70.7801 119.847C71.6486 120.572 72.744 120.969 73.8753 120.969C74.104 120.969 74.3324 120.953 74.5589 120.921L81.875 119.875C83.3014 122.015 84.0625 124.529 84.0625 127.1V131.906H103.75L102.973 126.474L73.125 78.3125Z"></path>
<path fill="#542210" d="M127.813 125.344C120.783 124.56 113.978 122.397 107.786 118.978L107.797 118.989C110.35 122.287 113.71 124.872 117.553 126.492L127.813 130.812H123.35C120.49 130.815 117.636 130.57 114.819 130.08C111.999 129.59 109.225 128.862 106.528 127.903C99.5107 125.396 93.1418 121.354 87.8869 116.07C82.6319 110.787 78.6236 104.396 76.1547 97.3656L70.2922 80.6859C69.1178 81.7452 68.179 83.0393 67.5365 84.4844C66.894 85.9295 66.5622 87.4935 66.5625 89.075C66.5645 91.3649 66.9337 93.6396 67.6563 95.8125L66.4313 98.2516C65.1212 97.2032 64.0602 95.877 63.325 94.3688C62.5726 92.8335 62.1834 91.1457 62.1875 89.4359C62.1939 83.0068 64.7507 76.8428 69.2968 72.2967C73.8429 67.7507 80.0068 65.1939 86.436 65.1875C93.1686 65.1904 99.6925 67.5248 104.899 71.7938C110.105 76.0628 113.672 82.003 114.994 88.6047C116.249 94.8626 117.83 101.051 119.73 107.144L120.255 108.817C121.618 113.173 124.249 117.023 127.813 119.875C125.093 119.535 122.489 118.57 120.204 117.056C117.92 115.541 116.017 113.519 114.644 111.147L107.031 98L111.855 108.719C115.099 115.934 120.736 121.807 127.813 125.344Z"></path>
<path fill="#662814" d="M127.812 119.875C124.249 117.023 121.618 113.173 120.255 108.817L119.73 107.144C117.83 101.051 116.249 94.8626 114.994 88.6047C113.672 82.0031 110.105 76.0629 104.899 71.7938C99.6925 67.5248 93.1686 65.1904 86.4359 65.1875C82.5744 65.1831 78.7684 66.107 75.3387 67.8814C75.5586 80.4943 79.0845 92.8286 85.5642 103.652C92.0438 114.476 101.25 123.409 112.264 129.56C113.11 129.752 113.961 129.93 114.819 130.08C117.636 130.57 120.49 130.815 123.35 130.813H127.812L117.553 126.492C113.71 124.872 110.35 122.287 107.797 118.989L107.786 118.978C113.978 122.397 120.783 124.56 127.812 125.344C120.736 121.807 115.099 115.934 111.855 108.719L107.031 98L114.644 111.147C116.017 113.519 117.92 115.541 120.204 117.056C122.489 118.57 125.093 119.535 127.812 119.875Z"></path>
<path fill="#C9368A" d="M79.6875 76.125C80.6128 76.125 81.5095 76.4456 82.225 77.0323C82.9405 77.619 83.4306 78.4355 83.6119 79.3428L84.0625 81.5938L84.5131 79.3428C84.6944 78.4355 85.1845 77.619 85.9 77.0323C86.6155 76.4456 87.5122 76.125 88.4375 76.125C87.5122 76.125 86.6155 75.8044 85.9 75.2177C85.1845 74.631 84.6944 73.8145 84.5131 72.9072L84.0625 70.6562L83.6119 72.9072C83.4306 73.8145 82.9405 74.631 82.225 75.2177C81.5095 75.8044 80.6128 76.125 79.6875 76.125Z"></path>
<path fill="#C9368A" d="M119.062 92.5312C119.988 92.5313 120.884 92.8519 121.6 93.4386C122.315 94.0253 122.806 94.8417 122.987 95.7491L123.438 98L123.888 95.7491C124.069 94.8417 124.56 94.0253 125.275 93.4386C125.991 92.8519 126.887 92.5313 127.812 92.5312C126.887 92.5312 125.991 92.2106 125.275 91.6239C124.56 91.0372 124.069 90.2208 123.888 89.3134L123.438 87.0625L122.987 89.3134C122.806 90.2208 122.315 91.0372 121.6 91.6239C120.884 92.2106 119.988 92.5312 119.062 92.5312Z"></path>
<path fill="#C9368A" d="M111.406 70.6562C112.332 70.6563 113.228 70.9769 113.944 71.5636C114.659 72.1502 115.149 72.9667 115.331 73.8741L115.781 76.125L116.232 73.8741C116.413 72.9667 116.903 72.1502 117.619 71.5636C118.334 70.9769 119.231 70.6563 120.156 70.6562C119.231 70.6562 118.334 70.3356 117.619 69.7489C116.903 69.1623 116.413 68.3458 116.232 67.4384L115.781 65.1875L115.331 67.4384C115.149 68.3458 114.659 69.1623 113.944 69.7489C113.228 70.3356 112.332 70.6562 111.406 70.6562Z"></path>
<path fill="#87321B" d="M104.398 115.628C100.808 110.383 98.243 104.507 96.8386 98.3084L94.9792 90.1053L92.8442 90.5909L94.7036 98.794C95.7587 103.43 97.4372 107.901 99.6933 112.086C94.0829 107.337 89.5363 101.459 86.3495 94.8346L83.9531 89.8679L81.9844 90.8195L84.3797 95.7851C89.3003 106.025 97.3 114.469 107.259 119.936L108.314 118.02C106.967 117.277 105.663 116.476 104.398 115.628Z"></path>
<path fill="#EFC5A5" d="M74.898 97.323L69.3822 81.6299C67.5696 83.6861 66.5673 86.3318 66.5625 89.0728C66.5628 91.3636 66.9321 93.6393 67.6563 95.8125L63.6214 103.881C63.4056 104.313 63.2896 104.789 63.2819 105.272C63.2742 105.755 63.3751 106.234 63.577 106.673C63.779 107.112 64.0769 107.5 64.4488 107.808C64.8207 108.117 65.2571 108.338 65.7258 108.455L67.6563 108.938L69.123 117.002C69.3251 118.115 69.9116 119.122 70.7801 119.847C71.6486 120.572 72.744 120.969 73.8753 120.969C74.104 120.969 74.3324 120.953 74.5589 120.921L81.875 119.875C83.3014 122.015 84.0625 124.529 84.0625 127.1V131.906H103.75L103.225 128.227C96.661 125.256 90.767 120.986 85.8984 115.674C81.0299 110.363 77.2878 104.12 74.898 97.323Z"></path>
<path fill="black" d="M65.086 98.5077L62.6436 103.391C62.3542 103.97 62.1985 104.606 62.1879 105.253C62.1773 105.9 62.3121 106.542 62.5825 107.129C62.8528 107.717 63.2517 108.237 63.7498 108.65C64.2478 109.063 64.8323 109.359 65.46 109.516L66.7069 109.827L68.0467 117.198C68.2943 118.563 69.0137 119.798 70.0792 120.688C71.1447 121.577 72.4886 122.063 73.8764 122.063C74.1564 122.063 74.4361 122.043 74.7131 122.003L81.3259 121.059C82.4033 122.889 82.9705 124.975 82.9688 127.099V131.906H85.1563V127.094C85.1558 124.848 84.6172 122.636 83.5856 120.641L87.5625 119.853L87.125 117.71L81.6836 118.797L74.3981 119.838C73.4442 119.965 72.4778 119.723 71.6969 119.16C70.9161 118.598 70.3798 117.758 70.1981 116.813L68.7314 108.742C68.6938 108.535 68.5973 108.343 68.4536 108.19C68.3098 108.037 68.1249 107.928 67.921 107.877L65.9905 107.393C65.6806 107.316 65.3921 107.17 65.1463 106.966C64.9005 106.762 64.7036 106.505 64.5701 106.215C64.4367 105.925 64.3701 105.609 64.3753 105.289C64.3806 104.97 64.4575 104.656 64.6003 104.37L68.6406 96.3016C68.7698 96.0421 68.7906 95.742 68.6986 95.4671C68.0095 93.4057 67.6575 91.2466 67.6563 89.0731C67.6551 86.7767 68.4315 84.5477 69.8591 82.749L75.1233 97.7334C77.3832 104.201 80.9263 110.145 85.5401 115.209C90.1539 120.273 95.7432 124.353 101.973 127.203L102.667 132.063L104.833 131.752L104.328 128.217C104.936 128.461 105.54 128.708 106.16 128.929C111.677 130.903 117.493 131.91 123.352 131.906H127.813C128.065 131.907 128.31 131.819 128.506 131.659C128.701 131.5 128.836 131.277 128.886 131.029C128.936 130.782 128.898 130.524 128.78 130.301C128.662 130.078 128.47 129.902 128.237 129.804L117.98 125.485C116.316 124.781 114.74 123.883 113.285 122.811C117.902 124.661 122.749 125.879 127.692 126.431C127.732 126.436 127.772 126.438 127.813 126.438C128.061 126.44 128.303 126.358 128.499 126.205C128.694 126.051 128.832 125.836 128.888 125.594C128.945 125.352 128.918 125.098 128.811 124.874C128.704 124.649 128.524 124.468 128.3 124.36C124.934 122.676 121.879 120.431 119.266 117.723C121.767 119.463 124.653 120.572 127.676 120.955C127.912 120.984 128.152 120.936 128.358 120.817C128.565 120.698 128.726 120.515 128.819 120.295C128.912 120.076 128.93 119.832 128.872 119.601C128.813 119.37 128.681 119.164 128.495 119.016C125.097 116.304 122.59 112.635 121.298 108.484L120.776 106.817C118.885 100.759 117.313 94.6051 116.067 88.3818C114.682 81.5392 110.977 75.3848 105.577 70.9592C100.178 66.5336 93.4161 64.1085 86.4349 64.094C79.7167 64.103 73.2763 66.7757 68.5259 71.5261C63.7755 76.2766 61.1027 82.717 61.0938 89.4351C61.0912 91.1419 61.445 92.8304 62.1324 94.3927C62.8199 95.955 63.8258 97.3565 65.086 98.5077ZM86.4349 66.2815C92.9107 66.2961 99.1829 68.5462 104.191 72.6516C109.2 76.7569 112.637 82.4656 113.922 88.8127C115.183 95.111 116.774 101.339 118.688 107.47L119.21 109.138C120.206 112.34 121.866 115.297 124.08 117.816C120.509 116.448 117.514 113.901 115.59 110.597L107.977 97.4534C107.836 97.2121 107.608 97.034 107.34 96.9557C107.071 96.8774 106.783 96.9048 106.534 97.0324C106.286 97.1599 106.095 97.3778 106.002 97.6414C105.909 97.9051 105.92 98.1943 106.034 98.4498L110.859 109.169C113.411 114.826 117.399 119.717 122.428 123.354C116.003 121.952 109.9 119.352 104.438 115.691C100.827 110.43 98.2482 104.532 96.8386 98.3087L94.9792 90.1056L92.8442 90.5912L94.7036 98.7943C95.7617 103.443 97.4469 107.927 99.713 112.122C94.0983 107.355 89.5455 101.464 86.3485 94.8284L83.9531 89.8682L81.9844 90.8198L84.3786 95.7799C89.2766 105.977 97.2222 114.401 107.117 119.885C109.762 123.225 113.206 125.844 117.131 127.502L122.373 129.709C112.407 129.51 102.739 126.271 94.6638 120.427C86.5885 114.583 80.4909 106.411 77.1872 97.006L71.573 81.0296L73.8261 79.1527L72.4239 77.4727L69.928 79.5509C68.5303 80.7126 67.406 82.1682 66.6353 83.8141C65.8645 85.46 65.4662 87.2556 65.4688 89.0731C65.4685 91.3279 65.8089 93.5699 66.4783 95.7231L66.1097 96.4602C64.291 94.5743 63.2767 92.0551 63.2813 89.4351C63.2882 83.2965 65.7298 77.4113 70.0705 73.0707C74.4111 68.7301 80.2963 66.2884 86.4349 66.2815Z"></path>
<path fill="black" d="M79.6875 77.2187C80.3595 77.2201 81.0104 77.4536 81.53 77.8797C82.0496 78.3059 82.406 78.8985 82.5389 79.5572L82.9906 81.8125C83.0408 82.0597 83.175 82.282 83.3703 82.4417C83.5657 82.6014 83.8102 82.6886 84.0625 82.6886C84.3148 82.6886 84.5593 82.6014 84.7547 82.4417C84.95 82.282 85.0842 82.0597 85.1344 81.8125L85.5861 79.5616C85.7181 78.902 86.0741 78.3084 86.5938 77.8814C87.1135 77.4544 87.7649 77.2203 88.4375 77.2187C88.7276 77.2187 89.0058 77.1035 89.2109 76.8984C89.416 76.6933 89.5312 76.4151 89.5312 76.125C89.5312 75.8349 89.416 75.5567 89.2109 75.3516C89.0058 75.1465 88.7276 75.0312 88.4375 75.0312C87.7655 75.0299 87.1146 74.7964 86.595 74.3703C86.0754 73.9441 85.719 73.3515 85.5861 72.6928L85.1344 70.4375C85.0842 70.1902 84.95 69.968 84.7547 69.8083C84.5593 69.6486 84.3148 69.5614 84.0625 69.5614C83.8102 69.5614 83.5657 69.6486 83.3703 69.8083C83.175 69.968 83.0408 70.1902 82.9906 70.4375L82.5389 72.6884C82.4069 73.348 82.0509 73.9416 81.5312 74.3686C81.0115 74.7956 80.3601 75.0297 79.6875 75.0312C79.3974 75.0312 79.1192 75.1465 78.9141 75.3516C78.709 75.5567 78.5938 75.8349 78.5938 76.125C78.5938 76.4151 78.709 76.6933 78.9141 76.8984C79.1192 77.1035 79.3974 77.2187 79.6875 77.2187ZM84.0625 74.7327C84.3837 75.2674 84.7995 75.7392 85.2897 76.125C84.7995 76.5108 84.3837 76.9826 84.0625 77.5173C83.7413 76.9826 83.3255 76.5108 82.8353 76.125C83.3255 75.7392 83.7413 75.2674 84.0625 74.7327Z"></path>
<path fill="black" d="M127.812 91.4375C127.141 91.4361 126.49 91.2026 125.97 90.7765C125.45 90.3504 125.094 89.7578 124.961 89.0991L124.509 86.8437C124.459 86.5965 124.325 86.3742 124.13 86.2145C123.934 86.0549 123.69 85.9677 123.438 85.9677C123.185 85.9677 122.941 86.0549 122.745 86.2145C122.55 86.3742 122.416 86.5965 122.366 86.8437L121.914 89.0947C121.782 89.7542 121.426 90.3478 120.906 90.7748C120.386 91.2018 119.735 91.4359 119.062 91.4375C118.772 91.4375 118.494 91.5527 118.289 91.7578C118.084 91.963 117.969 92.2412 117.969 92.5312C117.969 92.8213 118.084 93.0995 118.289 93.3046C118.494 93.5098 118.772 93.625 119.062 93.625C119.734 93.6264 120.385 93.8599 120.905 94.286C121.425 94.7121 121.781 95.3047 121.914 95.9634L122.366 98.2187C122.416 98.466 122.55 98.6883 122.745 98.848C122.941 99.0076 123.185 99.0948 123.438 99.0948C123.69 99.0948 123.934 99.0076 124.13 98.848C124.325 98.6883 124.459 98.466 124.509 98.2187L124.961 95.9678C125.093 95.3083 125.449 94.7147 125.969 94.2877C126.489 93.8607 127.14 93.6266 127.812 93.625C128.103 93.625 128.381 93.5098 128.586 93.3046C128.791 93.0995 128.906 92.8213 128.906 92.5312C128.906 92.2412 128.791 91.963 128.586 91.7578C128.381 91.5527 128.103 91.4375 127.812 91.4375ZM123.438 93.9236C123.116 93.3889 122.7 92.9171 122.21 92.5312C122.7 92.1454 123.116 91.6736 123.438 91.1389C123.759 91.6736 124.175 92.1454 124.665 92.5312C124.175 92.9171 123.759 93.3889 123.438 93.9236Z"></path>
<path fill="black" d="M111.406 71.75C112.078 71.7514 112.729 71.9849 113.249 72.411C113.768 72.8371 114.125 73.4297 114.258 74.0884L114.709 76.3437C114.76 76.591 114.894 76.8133 115.089 76.973C115.284 77.1326 115.529 77.2198 115.781 77.2198C116.034 77.2198 116.278 77.1326 116.473 76.973C116.669 76.8133 116.803 76.591 116.853 76.3437L117.305 74.0928C117.437 73.4333 117.793 72.8397 118.313 72.4127C118.832 71.9857 119.484 71.7516 120.156 71.75C120.446 71.75 120.725 71.6348 120.93 71.4296C121.135 71.2245 121.25 70.9463 121.25 70.6562C121.25 70.3662 121.135 70.088 120.93 69.8828C120.725 69.6777 120.446 69.5625 120.156 69.5625C119.484 69.5611 118.833 69.3276 118.314 68.9015C117.794 68.4754 117.438 67.8828 117.305 67.2241L116.853 64.9687C116.803 64.7215 116.669 64.4992 116.473 64.3395C116.278 64.1799 116.034 64.0927 115.781 64.0927C115.529 64.0927 115.284 64.1799 115.089 64.3395C114.894 64.4992 114.76 64.7215 114.709 64.9687L114.258 67.2197C114.126 67.8792 113.77 68.4728 113.25 68.8998C112.73 69.3268 112.079 69.5609 111.406 69.5625C111.116 69.5625 110.838 69.6777 110.633 69.8828C110.428 70.088 110.312 70.3662 110.312 70.6562C110.312 70.9463 110.428 71.2245 110.633 71.4296C110.838 71.6348 111.116 71.75 111.406 71.75ZM115.781 69.2639C116.102 69.7986 116.518 70.2704 117.008 70.6562C116.518 71.0421 116.102 71.5139 115.781 72.0486C115.46 71.5139 115.044 71.0421 114.554 70.6562C115.044 70.2704 115.46 69.7986 115.781 69.2639Z"></path>
<defs>
<clipPath id="clip0_719_403">
<rect fill="white" height="196" width="189"></rect>
</clipPath>
</defs>
</svg>
