<svg xmlns="http://www.w3.org/2000/svg" fill="none" viewBox="0 0 189 196" height="196" width="189">
<g clip-path="url(#clip0_90_6075)">
<path fill="#018D43" d="M44.4829 14.6087C44.4829 14.6087 45.1955 14.123 46.6029 13.3277C47.3014 12.923 48.1656 12.4268 49.178 11.839C50.208 11.2865 51.4108 10.6812 52.7477 9.99145C53.0864 9.82253 53.4215 9.63601 53.7848 9.47412C54.1446 9.30872 54.515 9.14332 54.8924 8.97087C55.6508 8.62951 56.441 8.27055 57.2699 7.89751C57.478 7.80601 57.6861 7.71099 57.8943 7.61597C58.1094 7.53151 58.3246 7.44353 58.5433 7.35555C58.9807 7.1831 59.4287 7.00714 59.8837 6.82766C60.7973 6.47574 61.7321 6.0851 62.7163 5.72966C64.7022 5.07509 66.7904 4.29382 69.0621 3.70259C69.6265 3.54422 70.198 3.38234 70.7765 3.22045C71.0657 3.13951 71.3549 3.05857 71.6477 2.97762C71.944 2.91076 72.2403 2.84037 72.5402 2.77351C73.7395 2.49901 74.967 2.22099 76.2158 1.93593C86.276 -0.0700283 98.3575 -0.833701 110.933 1.18986C117.208 2.18932 123.582 3.85039 129.78 6.19772C135.978 8.53801 141.992 11.5857 147.583 15.1999C153.177 18.8106 158.352 22.9985 162.938 27.5559C167.527 32.1133 171.527 37.0403 174.868 42.0868C178.212 47.1334 180.896 52.2926 182.967 57.3005C185.065 62.3013 186.455 67.186 187.411 71.6554C188.409 76.1213 188.769 80.2318 188.97 83.7475C188.991 85.5177 188.991 87.1435 188.942 88.6075C188.833 90.0821 188.702 91.3948 188.547 92.5385C188.505 92.8236 188.473 93.0981 188.423 93.3655C188.367 93.6295 188.311 93.8829 188.258 94.1292C188.145 94.6149 188.028 95.0583 187.908 95.456C187.669 96.2513 187.415 96.8672 187.143 97.293C186.603 98.1447 186.004 98.2432 185.333 97.5218C185.333 97.5218 185.284 96.7123 185.192 95.2483C185.171 94.8823 185.146 94.4776 185.122 94.0307C185.108 93.809 185.101 93.5767 185.076 93.3374C185.051 93.0981 185.023 92.8482 184.995 92.5878C184.885 91.5566 184.762 90.3812 184.624 89.0826C184.43 87.7946 184.215 86.3834 183.99 84.8701C183.873 84.1135 183.69 83.3428 183.538 82.5439C183.379 81.745 183.213 80.9251 183.044 80.084C182.226 76.7513 181.309 73.0983 179.958 69.3925C179.358 67.5133 178.547 65.6657 177.82 63.7618C177.404 62.8292 176.988 61.8931 176.568 60.9499C176.356 60.4818 176.159 60.0032 175.933 59.5387L175.238 58.1521L174.547 56.7585C174.314 56.294 174.095 55.8259 173.834 55.3754C173.333 54.4675 172.832 53.5595 172.335 52.6551C172.095 52.1976 171.823 51.7577 171.555 51.3178C171.287 50.8779 171.023 50.438 170.758 49.9981C170.494 49.5582 170.229 49.1183 169.968 48.6819C169.707 48.2455 169.411 47.8302 169.135 47.4079C168.582 46.5598 168.028 45.7187 167.485 44.8881C166.906 44.0787 166.335 43.2763 165.77 42.4845C165.488 42.0903 165.216 41.6856 164.931 41.302C164.638 40.922 164.349 40.5454 164.059 40.1688C163.488 39.4122 162.927 38.6697 162.373 37.9412C161.795 37.2303 161.23 36.537 160.677 35.8543C160.402 35.5094 160.133 35.168 159.865 34.8337C159.601 34.4923 159.312 34.1862 159.043 33.8659C157.95 32.6025 156.973 31.3391 155.978 30.2481C152.133 25.7435 147.572 21.4184 141.692 17.2974C141.325 17.0369 140.955 16.7765 140.581 16.5126C140.2 16.2592 139.808 16.0199 139.42 15.77C138.634 15.2773 137.833 14.7741 137.018 14.2638C136.196 13.7605 135.329 13.3101 134.461 12.8209C133.586 12.3458 132.701 11.8285 131.762 11.3991C130.828 10.9522 129.872 10.4947 128.902 10.0302C127.921 9.5797 126.898 9.18555 125.864 8.74916C125.346 8.53449 124.82 8.31982 124.291 8.10514C123.751 7.9151 123.208 7.72155 122.658 7.52799C122.108 7.33443 121.55 7.14087 120.986 6.9438C120.422 6.75024 119.854 6.53909 119.268 6.38072C118.097 6.04287 116.901 5.69799 115.684 5.34959C114.457 5.02582 113.19 4.75836 111.899 4.4557C110.612 4.13193 109.275 3.94189 107.917 3.69555C107.236 3.57941 106.548 3.45624 105.853 3.34714C105.155 3.26268 104.446 3.17822 103.733 3.09376C98.0153 2.41103 91.7435 2.19284 84.9391 2.77703C78.1417 3.36122 70.8223 4.75836 63.1713 7.30276C62.2189 7.63005 61.27 7.99605 60.3035 8.34797C59.8202 8.52745 59.337 8.70693 58.8502 8.88641C58.3599 9.05886 57.8872 9.28409 57.4039 9.48468C56.4374 9.89643 55.4639 10.3152 54.4797 10.734C53.5061 11.1739 52.5396 11.6666 51.5555 12.1382C51.0651 12.3775 50.5713 12.6203 50.0739 12.8596C49.5871 13.1165 49.1039 13.3875 48.6136 13.655C47.64 14.1969 46.6453 14.7248 45.6611 15.2949C44.6946 15.8897 43.714 16.4915 42.7298 17.1003C42.4829 17.2516 42.236 17.4065 41.989 17.5578C41.7421 17.7126 41.5058 17.8851 41.2624 18.047C40.7791 18.3778 40.2959 18.7086 39.8056 19.0429C39.8056 19.0429 39.4175 19.2928 38.8002 19.6904C38.1724 20.074 37.3505 20.6653 36.451 21.2987C35.9995 21.6155 35.5303 21.9463 35.0576 22.2736C34.5885 22.6044 34.1088 22.9246 33.6784 23.266C32.8036 23.9311 31.9923 24.5329 31.3962 24.9517C30.2039 25.7928 29.8547 25.9089 31.5196 24.3394C31.9359 23.9487 32.4791 23.449 33.1669 22.8331C33.3398 22.6783 33.5197 22.5164 33.7102 22.3475C33.9077 22.1856 34.1158 22.0202 34.331 21.8442C34.7684 21.4958 35.2411 21.1157 35.7561 20.7005C36.2746 20.2922 36.8355 19.8488 37.4387 19.3702C38.063 18.9233 38.7368 18.4446 39.4528 17.9308C39.8126 17.6739 40.1865 17.41 40.571 17.139C40.9555 16.8645 41.3506 16.583 41.7774 16.3225C42.631 15.7876 43.5305 15.214 44.4829 14.6087Z"></path>
<path fill="#018D43" d="M22.8496 34.6085C22.8496 34.6085 23.0965 34.334 23.5656 33.8167C23.802 33.5598 24.0912 33.2395 24.4369 32.8629C24.7967 32.5005 25.213 32.0852 25.6786 31.6171C26.1477 31.1491 26.6663 30.6318 27.2342 30.0652C27.3753 29.9244 27.5199 29.7801 27.6681 29.6323C27.8233 29.4915 27.9785 29.3472 28.1407 29.2029C28.4617 28.9109 28.7968 28.6082 29.1425 28.295C29.8374 27.6721 30.5641 26.9894 31.3648 26.3031C32.1796 25.6344 33.0403 24.9271 33.9434 24.188C37.6048 21.2917 42.1482 18.1103 47.4852 15.207C52.8116 12.2966 58.9282 9.6677 65.4998 7.72861C72.0679 5.78247 79.0839 4.52963 86.0753 4.12843C93.0667 3.70613 100.026 4.1777 106.478 5.3109C112.933 6.44409 118.877 8.27409 123.964 10.4103C129.064 12.5324 133.276 15.0416 136.511 17.3044C138.112 18.4693 139.216 19.3245 139.837 20.0107C140.472 20.6723 140.677 21.063 140.518 21.2178C140.19 21.5381 138.44 20.8483 135.541 19.7151C135.181 19.5673 134.807 19.4089 134.412 19.247C134.02 19.0816 133.597 18.9409 133.167 18.7719C132.302 18.4447 131.378 18.0857 130.398 17.6951C128.401 17.0088 126.196 16.1712 123.745 15.4604C118.87 13.9682 113.145 12.6274 107.014 11.8707C100.891 11.1035 94.3648 10.9241 88.0401 11.3992C81.7119 11.8602 75.5953 12.9793 70.2089 14.4503C64.8155 15.9108 60.1628 17.7127 56.5719 19.2048C55.6759 19.5884 54.8399 19.9368 54.0709 20.25C53.316 20.5914 52.6317 20.9081 52.0144 21.1756C50.7833 21.7105 49.8309 22.0695 49.2489 22.2736C48.6563 22.4636 48.0214 22.6783 47.3441 22.9176C46.6703 23.1639 45.9366 23.4068 45.2029 23.7481C44.4622 24.0754 43.6756 24.4309 42.8501 24.8215C42.441 25.0186 42.0036 25.2051 41.5838 25.4374C41.1605 25.6696 40.7301 25.9054 40.2857 26.1483C36.7053 28.0662 32.61 30.7866 28.2077 34.5874C27.0719 35.5059 26.0137 36.5757 24.8637 37.6526C24.578 37.9236 24.2923 38.1981 24.003 38.4761C23.7208 38.7612 23.4492 39.0568 23.167 39.3524C22.6062 39.9472 22.0383 40.5525 21.4598 41.1683C20.8672 41.7772 20.3239 42.4423 19.7595 43.1109C19.1952 43.7831 18.6237 44.4694 18.0417 45.1627C17.4808 45.8735 16.9376 46.6196 16.3697 47.3657C15.8159 48.1223 15.2127 48.8684 14.6906 49.6849C14.1509 50.4908 13.6042 51.3108 13.0468 52.1448C12.9093 52.3524 12.7682 52.5636 12.6306 52.7747C12.5001 52.9929 12.3731 53.2076 12.2426 53.4258C11.9815 53.8622 11.7205 54.3056 11.456 54.749C11.1914 55.196 10.9268 55.6429 10.6623 56.0969C10.5282 56.3221 10.3977 56.5509 10.2637 56.7796C10.1402 57.0154 10.0168 57.2477 9.8933 57.4835C9.39946 58.4302 8.89857 59.3909 8.39062 60.3657C8.12606 60.8514 7.90736 61.3582 7.67455 61.8649C7.44174 62.3717 7.20892 62.8855 6.97611 63.3993C6.7433 63.9166 6.50696 64.4375 6.27063 64.9618C6.04487 65.4897 5.84381 66.0317 5.62863 66.5737C5.2124 67.6611 4.75383 68.7556 4.35876 69.8888C3.98132 71.029 3.60036 72.1833 3.21234 73.3552C3.21234 73.3552 3.16648 73.0737 3.27936 72.0601C3.3358 71.5534 3.4381 70.8601 3.60389 69.9275C3.64621 69.6952 3.68854 69.4453 3.74498 69.1814C3.80848 68.921 3.87903 68.643 3.94957 68.3509C4.09773 67.7632 4.27057 67.1121 4.47163 66.3836C5.26883 63.4767 6.66923 59.4191 9.35008 54.0382C9.69224 53.3695 10.045 52.6762 10.4154 51.9548C10.7893 51.2404 11.2267 50.5295 11.657 49.7764C12.0944 49.0303 12.5389 48.2561 13.0186 47.4678C13.5266 46.697 14.0486 45.8982 14.5918 45.0782C14.8635 44.67 15.1421 44.2512 15.4208 43.8289C15.71 43.4101 16.024 43.0019 16.3309 42.5795C16.9552 41.7384 17.5972 40.8727 18.2604 39.9788C19.6819 38.2685 21.1282 36.4103 22.8496 34.6085Z"></path>
<path fill="#018D43" d="M39.8304 176.96C41.7529 178.333 43.7494 179.512 45.6824 180.705C46.6666 181.272 47.6578 181.803 48.6314 182.341C49.1217 182.609 49.6014 182.88 50.0917 183.137C50.5856 183.38 51.0794 183.619 51.5697 183.858C52.5539 184.33 53.5169 184.822 54.4904 185.262C55.4746 185.681 56.4482 186.1 57.4147 186.512C57.9015 186.709 58.3706 186.937 58.8609 187.11C59.3477 187.289 59.831 187.469 60.3142 187.648C61.2807 188 62.2296 188.366 63.182 188.69C70.8295 191.231 78.1489 192.628 84.9428 193.212C91.7437 193.796 98.0155 193.578 103.733 192.896C104.45 192.811 105.155 192.727 105.853 192.642C106.552 192.533 107.236 192.41 107.917 192.294C109.275 192.047 110.612 191.861 111.899 191.534C113.19 191.231 114.457 190.963 115.684 190.64C116.905 190.288 118.097 189.943 119.268 189.605C119.854 189.447 120.422 189.236 120.986 189.042C121.551 188.845 122.108 188.651 122.658 188.458C123.208 188.264 123.755 188.071 124.295 187.881C124.824 187.662 125.35 187.448 125.868 187.237C126.902 186.8 127.928 186.406 128.909 185.956C129.879 185.491 130.835 185.034 131.769 184.583C132.711 184.154 133.593 183.636 134.472 183.161C135.343 182.672 136.211 182.222 137.032 181.718C137.847 181.208 138.648 180.705 139.435 180.212C139.826 179.962 140.218 179.723 140.595 179.47C140.969 179.206 141.339 178.945 141.706 178.685C147.587 174.56 152.151 170.232 155.992 165.731C156.984 164.636 157.961 163.373 159.054 162.113C159.322 161.793 159.612 161.483 159.873 161.145C160.141 160.811 160.409 160.469 160.684 160.124C161.238 159.445 161.802 158.748 162.377 158.041C162.927 157.313 163.492 156.57 164.063 155.817C164.352 155.444 164.642 155.064 164.934 154.684C165.22 154.297 165.488 153.895 165.774 153.501C166.338 152.709 166.91 151.911 167.488 151.101C168.032 150.271 168.585 149.43 169.139 148.581C169.414 148.156 169.711 147.744 169.972 147.307C170.233 146.871 170.497 146.431 170.762 145.991C171.026 145.551 171.294 145.115 171.559 144.672C171.827 144.232 172.102 143.795 172.339 143.334C172.836 142.43 173.337 141.522 173.838 140.614C174.099 140.167 174.321 139.695 174.55 139.231L175.242 137.837L175.937 136.451C176.162 135.986 176.36 135.507 176.571 135.039C176.991 134.1 177.407 133.16 177.824 132.231C178.55 130.327 179.365 128.48 179.961 126.6C181.312 122.898 182.229 119.242 183.048 115.912C183.217 115.071 183.379 114.251 183.542 113.452C183.693 112.654 183.877 111.883 183.993 111.126C184.222 109.613 184.434 108.202 184.628 106.914C184.766 105.615 184.889 104.44 184.998 103.409C185.027 103.152 185.055 102.902 185.08 102.659C185.104 102.42 185.108 102.187 185.125 101.966C185.15 101.522 185.175 101.114 185.196 100.748C185.288 99.284 185.337 98.4746 185.337 98.4746C186.004 97.7567 186.607 97.8517 187.147 98.7034C187.415 99.1292 187.672 99.7451 187.912 100.54C188.032 100.938 188.148 101.382 188.261 101.867C188.314 102.11 188.371 102.367 188.427 102.631C188.48 102.895 188.512 103.169 188.551 103.458C188.706 104.602 188.836 105.914 188.946 107.385C188.995 108.853 188.992 110.475 188.974 112.245C188.773 115.761 188.417 119.872 187.415 124.337C186.459 128.807 185.069 133.692 182.974 138.689C180.903 143.697 178.219 148.856 174.875 153.902C171.534 158.949 167.538 163.876 162.948 168.433C158.363 172.994 153.192 177.179 147.594 180.793C141.999 184.407 135.988 187.451 129.791 189.795C123.593 192.142 117.222 193.804 110.947 194.803C98.3717 196.827 86.2903 196.066 76.23 194.06C74.9778 193.775 73.7502 193.494 72.5544 193.223C72.2546 193.152 71.9583 193.086 71.662 193.019C71.3692 192.938 71.08 192.857 70.7907 192.776C70.2122 192.614 69.6408 192.452 69.0764 192.294C66.8047 191.703 64.72 190.925 62.7305 190.267C61.7464 189.915 60.8116 189.524 59.898 189.172C59.4429 188.993 58.995 188.817 58.5576 188.644C58.3389 188.556 58.1202 188.472 57.9085 188.384C57.6969 188.289 57.4887 188.194 57.2842 188.102C56.4587 187.729 55.6651 187.37 54.9102 187.029C54.5328 186.857 54.1624 186.688 53.8026 186.526C53.4393 186.364 53.1041 186.174 52.7655 186.008C51.4286 185.319 50.2258 184.713 49.1957 184.161C48.1834 183.577 47.3192 183.077 46.6207 182.672C45.9258 182.264 45.3791 181.965 45.0298 181.736C44.6771 181.511 44.4972 181.391 44.4972 181.391C43.5448 180.786 42.6453 180.212 41.7987 179.674C41.3719 179.41 40.9733 179.132 40.5888 178.854C40.2043 178.579 39.8304 178.315 39.4706 178.062C38.751 177.548 38.0808 177.07 37.4529 176.619C36.8497 176.141 36.2889 175.701 35.7703 175.289C35.2553 174.877 34.7791 174.493 34.3452 174.145C34.1265 173.969 33.9219 173.8 33.7244 173.642C33.5339 173.473 33.354 173.311 33.1812 173.156C32.4933 172.54 31.9501 172.041 31.5339 171.65C29.8689 170.08 30.2181 170.197 31.4139 171.038C32.0136 171.46 32.8214 172.062 33.6997 172.73C34.1301 173.072 34.6098 173.392 35.0825 173.723C35.5516 174.054 36.0243 174.384 36.4758 174.701C36.9273 175.018 37.3577 175.324 37.7527 175.602C38.1443 175.887 38.5217 176.105 38.8286 176.313C39.4424 176.707 39.8304 176.96 39.8304 176.96Z"></path>
<path fill="#018D43" d="M49.2591 173.723C49.8411 173.927 50.7935 174.286 52.0281 174.821C52.6454 175.088 53.3298 175.405 54.0846 175.747C54.8536 176.06 55.6931 176.408 56.5856 176.792C60.1765 178.284 64.8292 180.086 70.2227 181.546C75.6091 183.017 81.7292 184.136 88.0574 184.594C94.3821 185.065 100.908 184.886 107.031 184.119C113.162 183.362 118.891 182.021 123.762 180.526C126.214 179.815 128.418 178.977 130.415 178.287C131.395 177.897 132.32 177.538 133.184 177.211C133.614 177.042 134.037 176.901 134.429 176.735C134.821 176.57 135.198 176.415 135.558 176.267C138.457 175.134 140.207 174.444 140.535 174.765C140.697 174.92 140.489 175.31 139.858 175.972C139.237 176.658 138.136 177.517 136.531 178.678C133.3 180.941 129.092 183.454 123.988 185.572C118.901 187.712 112.961 189.542 106.502 190.675C100.051 191.812 93.0946 192.283 86.0996 191.865C79.1047 191.463 72.0887 190.214 65.5206 188.268C58.9454 186.332 52.8324 183.704 47.5024 180.793C42.1654 177.89 37.6186 174.708 33.9571 171.812C33.0541 171.073 32.1934 170.366 31.375 169.697C30.5707 169.014 29.8476 168.328 29.1492 167.705C28.8035 167.392 28.4684 167.089 28.1474 166.797C27.9851 166.649 27.8299 166.509 27.6747 166.368C27.5266 166.22 27.3819 166.076 27.2408 165.935C26.6729 165.368 26.1544 164.851 25.6852 164.383C25.2196 163.915 24.8034 163.5 24.4436 163.137C24.1014 162.761 23.8087 162.44 23.5723 162.183C23.1032 161.666 22.8562 161.392 22.8562 161.392C21.1349 159.586 19.6851 157.732 18.2671 156.018C17.6039 155.124 16.9619 154.258 16.3375 153.417C16.0307 152.995 15.7167 152.583 15.4275 152.168C15.1453 151.745 14.8701 151.327 14.5985 150.918C14.0588 150.095 13.5332 149.3 13.0253 148.525C12.542 147.737 12.1011 146.963 11.6637 146.217C11.2333 145.467 10.7959 144.753 10.422 144.038C10.0552 143.32 9.69891 142.627 9.35675 141.955C6.67237 136.571 5.27551 132.516 4.47831 129.613C4.27724 128.885 4.1044 128.233 3.95624 127.646C3.88217 127.354 3.81515 127.076 3.75165 126.815C3.69169 126.555 3.65289 126.305 3.60703 126.069C3.44124 125.137 3.34247 124.447 3.2825 123.94C3.1661 122.926 3.21548 122.648 3.21548 122.648C3.6035 123.82 3.98446 124.975 4.3619 126.115C4.7605 127.248 5.21554 128.343 5.63178 129.43C5.84695 129.972 6.04801 130.514 6.2773 131.042C6.51364 131.566 6.74997 132.087 6.98278 132.601C7.2156 133.115 7.44841 133.628 7.68122 134.135C7.91403 134.642 8.13273 135.149 8.39729 135.634C8.90524 136.609 9.40613 137.57 9.89997 138.517C10.0234 138.752 10.1469 138.988 10.2704 139.22C10.4044 139.449 10.5384 139.678 10.6725 139.903C10.9406 140.354 11.2051 140.804 11.4662 141.251C11.7307 141.695 11.9917 142.134 12.2528 142.574C12.3833 142.793 12.5138 143.011 12.6443 143.225C12.7854 143.437 12.923 143.644 13.0606 143.855C13.6179 144.689 14.1646 145.506 14.7043 146.315C15.2264 147.132 15.8296 147.878 16.3834 148.634C16.9513 149.384 17.491 150.127 18.0554 150.837C18.6374 151.531 19.2089 152.217 19.7733 152.889C20.3377 153.558 20.8809 154.223 21.4735 154.832C22.052 155.448 22.6199 156.053 23.1808 156.648C23.463 156.943 23.7346 157.239 24.0168 157.524C24.306 157.802 24.5917 158.077 24.8775 158.348C26.0274 159.424 27.0856 160.494 28.2215 161.413C32.6237 165.214 36.7191 167.934 40.2994 169.852C40.7439 170.095 41.1777 170.33 41.5975 170.563C42.0173 170.792 42.4547 170.978 42.8639 171.179C43.6928 171.566 44.4759 171.925 45.2167 172.252C45.9468 172.593 46.6876 172.836 47.3578 173.083C48.0316 173.318 48.663 173.533 49.2591 173.723Z"></path>
<path fill="#018D43" d="M23.262 45.2428C23.7558 44.8521 24.1297 44.6163 24.3907 44.5213C24.6624 44.4298 24.8176 44.4756 24.874 44.6339C24.9798 44.9436 24.74 45.746 24.2179 46.8581C23.9604 47.4141 23.6359 48.0546 23.2549 48.7549C22.8986 49.4694 22.5106 50.2612 22.0767 51.0952C21.858 51.5105 21.6323 51.9363 21.3995 52.3762C21.1596 52.8091 20.9586 53.2807 20.7293 53.7452C20.2742 54.6743 19.8016 55.6386 19.3183 56.6204C17.4558 60.576 15.7909 64.9047 14.6303 68.255C14.1047 69.9478 13.6603 71.3801 13.3499 72.3901C13.0818 73.4107 12.9231 74.0054 12.9231 74.0054C11.3145 80.1113 10.3727 86.2453 10.0129 91.9641C9.64607 97.6828 9.84713 102.976 10.2739 107.442C10.4045 108.557 10.5315 109.624 10.6479 110.634C10.6937 111.14 10.789 111.63 10.8666 112.105C10.9442 112.58 11.0218 113.041 11.0958 113.488C11.1699 113.935 11.2405 114.367 11.3075 114.783C11.3428 114.99 11.3745 115.195 11.4063 115.395C11.4486 115.592 11.4909 115.789 11.5332 115.979C11.6955 116.743 11.8472 117.443 11.9812 118.073C12.1188 118.703 12.2246 119.27 12.3446 119.755C12.4715 120.238 12.5809 120.649 12.6656 120.984C12.8384 121.649 12.9301 122.004 12.9301 122.004C12.9301 122.004 13.0853 122.599 13.3569 123.62C13.6709 124.63 14.1153 126.062 14.6374 127.751C15.7979 131.098 17.4664 135.427 19.3253 139.382C19.8051 140.364 20.2813 141.328 20.7363 142.257C20.9691 142.722 21.1667 143.193 21.4101 143.626C21.6429 144.066 21.8686 144.492 22.0873 144.907C22.5212 145.738 22.9092 146.53 23.2655 147.244C23.6429 147.944 23.9675 148.581 24.225 149.137C24.7435 150.25 24.9869 151.052 24.8811 151.362C24.8246 151.52 24.6659 151.562 24.3943 151.474C24.1297 151.379 23.7593 151.143 23.2655 150.753C22.5424 150.179 21.791 149.549 21.015 148.87C20.2601 148.177 19.5194 147.41 18.7398 146.611C18.3553 146.206 17.9532 145.801 17.5722 145.368C17.2018 144.928 16.8244 144.478 16.4434 144.024C16.066 143.563 15.685 143.095 15.297 142.62C15.1065 142.381 14.9055 142.145 14.7256 141.895C14.5457 141.645 14.3622 141.392 14.1823 141.138C13.4628 140.118 12.7044 139.076 11.9989 137.982C11.3145 136.876 10.6302 135.74 9.94237 134.585C9.29685 133.414 8.68308 132.21 8.05872 130.999C7.7342 130.398 7.46258 129.775 7.18744 129.152L6.3585 127.276C4.21029 122.244 2.64411 116.986 1.62115 112.122C1.39892 110.898 1.18375 109.708 0.972102 108.554C0.922717 108.265 0.866278 107.98 0.823949 107.695C0.788675 107.41 0.7534 107.125 0.718126 106.847C0.647577 106.284 0.580556 105.735 0.513535 105.193C0.450041 104.651 0.386547 104.123 0.323053 103.609C0.294834 103.352 0.25956 103.095 0.238395 102.842C0.220758 102.589 0.203121 102.339 0.189011 102.092C0.125517 101.107 0.0655506 100.174 0.012639 99.3052C-0.0296902 98.0383 0.044386 96.7748 0.0867152 95.5079C0.153736 94.6105 0.185483 93.6568 0.294834 92.6609C0.414767 91.6649 0.541754 90.6232 0.672269 89.5393C0.746346 88.9973 0.792202 88.4448 0.894498 87.8888C0.993266 87.3327 1.09556 86.7662 1.19786 86.1925C1.30368 85.6189 1.4095 85.0382 1.51533 84.447C1.56824 84.1514 1.62468 83.8558 1.68112 83.5601C1.74108 83.2645 1.81869 82.9654 1.88923 82.6662C2.17848 81.4767 2.47479 80.2556 2.77462 79.0168C3.12031 77.7886 3.51186 76.5533 3.89282 75.3075C3.98806 74.9978 4.08683 74.6846 4.18207 74.3714C4.28789 74.0617 4.40782 73.752 4.5207 73.4424C4.74999 72.8265 4.97927 72.2036 5.20855 71.5842C5.44489 70.9648 5.66359 70.3419 5.91757 69.726C6.18565 69.1172 6.45374 68.5084 6.72182 67.8996L7.53313 66.0801C7.66365 65.7775 7.8118 65.4783 7.96701 65.1862L8.42205 64.3029C8.7254 63.7187 9.03229 63.1345 9.33565 62.5539L9.79422 61.6881C9.95295 61.4031 10.1258 61.125 10.2881 60.847C10.9583 59.7314 11.6179 58.6334 12.2916 57.5706C13.0077 56.5289 13.7238 55.5119 14.4293 54.53C14.7714 54.0338 15.1559 53.5657 15.5298 53.1047C15.9037 52.6472 16.2741 52.1968 16.641 51.7498C17.0114 51.3064 17.3712 50.8735 17.738 50.4547C18.1225 50.05 18.5035 49.6524 18.8774 49.2582C19.6358 48.4875 20.3483 47.7414 21.0891 47.0728C21.8298 46.4111 22.5565 45.7988 23.262 45.2428Z"></path>
</g>
<path fill="#313131" d="M141.329 88.6221C140.721 88.1271 139.952 87.8731 139.168 87.9083C138.385 87.9436 137.642 88.2657 137.081 88.8134C133.327 67.8752 115.226 52.3647 94.0581 52.3647C83.8748 52.4437 74.0339 56.051 66.2121 62.572C58.3902 69.093 53.0713 78.1243 51.1615 88.1273C51.0706 88.5875 51.083 89.0622 51.1978 89.517C51.3127 89.9719 51.5272 90.3955 51.8258 90.7574C52.1989 91.2131 52.6939 91.5533 53.253 91.7382C53.8122 91.9232 54.4124 91.9452 54.9837 91.8018C55.5549 91.6584 56.0735 91.3555 56.479 90.9283C56.8845 90.5012 57.1601 89.9675 57.2737 89.3896C58.9031 80.8046 63.4606 73.0509 70.1687 67.4511C76.8769 61.8512 85.3201 58.7523 94.0581 58.6829C112.11 58.6829 127.888 72.197 130.996 90.2126L130.39 89.6953C129.874 89.2382 129.224 88.9591 128.537 88.899C127.85 88.8388 127.162 89.0008 126.574 89.3611C126.134 89.6482 125.774 90.0409 125.525 90.5032C125.277 90.9655 125.148 91.4827 125.152 92.0076C125.151 92.4675 125.249 92.9222 125.44 93.3406C125.631 93.759 125.91 94.1313 126.258 94.4321L131.302 98.7168C132.088 99.3893 133.088 99.7588 134.122 99.7585C134.252 99.7585 134.382 99.7527 134.513 99.7412C135.091 99.6911 135.654 99.5254 136.168 99.2541C136.682 98.9828 137.136 98.6112 137.504 98.1614L141.715 93.0625L141.717 93.0604C142.244 92.4159 142.498 91.5913 142.425 90.7623C142.353 89.9333 141.959 89.1654 141.329 88.6221ZM140.109 91.7367L135.898 96.8352C135.706 97.0707 135.469 97.2655 135.201 97.4081C134.933 97.5507 134.639 97.6383 134.336 97.6656C134.034 97.693 133.729 97.6596 133.44 97.5674C133.15 97.4752 132.882 97.326 132.651 97.1287L127.615 92.8506C127.494 92.7455 127.398 92.6159 127.333 92.4704C127.267 92.3249 127.234 92.1669 127.235 92.0074C127.232 91.8294 127.274 91.6538 127.357 91.4964C127.441 91.3391 127.562 91.2052 127.71 91.107C127.863 91.01 128.04 90.9597 128.221 90.9621C128.522 90.9679 128.811 91.0802 129.037 91.279L130.12 92.2041C130.408 92.4469 130.763 92.5954 131.138 92.6296C131.513 92.6638 131.89 92.582 132.217 92.3954C132.551 92.2087 132.82 91.9239 132.986 91.5794C133.153 91.235 133.21 90.8476 133.149 90.4698C130.123 71.1605 113.318 56.5995 94.0581 56.5995C84.837 56.6696 75.9258 59.9368 68.8448 65.8438C61.7637 71.7509 56.9516 79.9318 55.2292 88.9909C55.1914 89.1811 55.1002 89.3567 54.9662 89.4969C54.8321 89.6371 54.6609 89.7363 54.4726 89.7827C54.2842 89.8291 54.0866 89.8208 53.9028 89.7588C53.7189 89.6969 53.5566 89.5838 53.4348 89.4329C53.3318 89.3082 53.258 89.1622 53.2185 89.0055C53.179 88.8487 53.1749 88.6852 53.2064 88.5266C55.0229 78.9977 60.087 70.3933 67.5359 64.1794C74.9849 57.9655 84.3579 54.5264 94.0581 54.4481C114.954 54.4481 132.713 70.3326 135.368 91.3967C135.394 91.5987 135.478 91.7888 135.61 91.9435C135.742 92.0982 135.917 92.2108 136.113 92.2672C136.308 92.3236 136.516 92.3215 136.711 92.2611C136.905 92.2007 137.078 92.0846 137.207 91.9272L138.521 90.327C138.608 90.2223 138.715 90.136 138.836 90.0732C138.957 90.0103 139.089 89.9723 139.225 89.9612C139.36 89.9501 139.497 89.9662 139.626 90.0086C139.756 90.051 139.875 90.1188 139.978 90.208C140.195 90.3956 140.33 90.6604 140.354 90.946C140.378 91.2315 140.29 91.5151 140.109 91.7367ZM133.786 104.094H133.766C133.046 104.095 132.349 104.345 131.793 104.802C131.237 105.259 130.857 105.895 130.718 106.601C129.092 115.189 124.536 122.946 117.827 128.548C111.118 134.15 102.673 137.249 93.9333 137.317C75.895 137.317 60.1275 123.814 57.0076 105.798L57.6408 106.34C57.9776 106.626 58.3692 106.841 58.7918 106.971C59.2143 107.101 59.6589 107.144 60.0985 107.097C60.5107 107.055 60.91 106.929 61.271 106.726C61.6321 106.523 61.9473 106.247 62.1966 105.916C62.6905 105.27 62.9179 104.459 62.8318 103.651C62.7458 102.842 62.353 102.098 61.7342 101.57L56.7116 97.2845C56.2706 96.907 55.7586 96.6212 55.2057 96.4441C54.6528 96.267 54.07 96.2021 53.4917 96.2532C52.9134 96.3042 52.351 96.4703 51.8377 96.7415C51.3244 97.0128 50.8704 97.3838 50.5024 97.8329L46.2836 102.939C45.7583 103.584 45.504 104.407 45.5745 105.235C45.6451 106.063 46.0349 106.832 46.6615 107.378C47.2697 107.873 48.039 108.127 48.8227 108.092C49.6064 108.056 50.3496 107.734 50.9106 107.185C54.6741 128.124 72.7756 143.636 93.9329 143.636C104.12 143.557 113.965 139.949 121.791 133.426C129.616 126.903 134.938 117.869 136.85 107.862C136.941 107.402 136.928 106.928 136.813 106.473C136.698 106.018 136.484 105.595 136.185 105.233C135.894 104.877 135.528 104.591 135.113 104.394C134.698 104.197 134.245 104.094 133.786 104.094ZM93.9329 141.552C73.0475 141.552 55.288 125.667 52.6228 104.603C52.5972 104.401 52.513 104.211 52.3806 104.056C52.2483 103.902 52.0735 103.789 51.8779 103.733C51.6823 103.677 51.4744 103.679 51.2801 103.739C51.0857 103.8 50.9133 103.916 50.7841 104.073L49.4699 105.673C49.3832 105.778 49.2767 105.864 49.1564 105.927C49.0362 105.989 48.9046 106.028 48.7695 106.039C48.6343 106.05 48.4982 106.035 48.3691 105.993C48.2401 105.951 48.1206 105.884 48.0177 105.796C47.8022 105.607 47.6687 105.341 47.6452 105.055C47.6218 104.769 47.7103 104.486 47.892 104.264L52.1086 99.1598C52.3007 98.9239 52.5382 98.7289 52.8068 98.5863C53.0755 98.4436 53.37 98.3562 53.673 98.3292C53.976 98.3022 54.2814 98.3361 54.5711 98.429C54.8608 98.5218 55.1289 98.6717 55.3598 98.8699L60.3758 103.15C60.4968 103.253 60.5943 103.38 60.6616 103.524C60.7289 103.667 60.7645 103.824 60.7659 103.983C60.7641 104.229 60.6817 104.468 60.5314 104.664C60.4519 104.766 60.3524 104.851 60.2388 104.913C60.1253 104.975 60.0002 105.014 59.8712 105.026C59.7144 105.042 59.5558 105.027 59.405 104.98C59.2543 104.934 59.1144 104.858 58.9938 104.756L57.8784 103.802C57.5916 103.556 57.2354 103.405 56.8589 103.37C56.4825 103.334 56.1044 103.417 55.7768 103.605C55.4426 103.791 55.1741 104.076 55.0084 104.421C54.8428 104.765 54.788 105.153 54.8516 105.53C57.878 124.84 74.6793 139.4 93.9329 139.4C103.156 139.332 112.069 136.064 119.151 130.155C126.232 124.246 131.043 116.062 132.762 107C132.808 106.768 132.934 106.559 133.117 106.41C133.3 106.26 133.529 106.178 133.765 106.178H133.785C133.937 106.178 134.087 106.213 134.224 106.278C134.361 106.344 134.482 106.439 134.577 106.558C134.68 106.682 134.753 106.828 134.793 106.985C134.832 107.141 134.836 107.305 134.805 107.463C132.986 116.996 127.919 125.603 120.467 131.819C113.014 138.035 103.637 141.474 93.9329 141.552ZM107.537 107.12C107.537 97.8144 95.4134 76.7258 94.8971 75.8326C94.7982 75.684 94.6642 75.5622 94.5069 75.4779C94.3495 75.3937 94.1738 75.3496 93.9954 75.3496C93.8169 75.3496 93.6412 75.3937 93.4839 75.4779C93.3266 75.5622 93.1925 75.684 93.0936 75.8326C92.5774 76.7258 80.4537 97.8144 80.4537 107.12C80.4537 110.711 81.8804 114.156 84.42 116.695C86.9595 119.235 90.4039 120.661 93.9954 120.661C97.5868 120.661 101.031 119.235 103.571 116.695C106.11 114.156 107.537 110.711 107.537 107.12ZM82.537 107.12C82.537 99.7808 91.1466 83.6242 93.9954 78.48C96.8442 83.6242 105.454 99.7808 105.454 107.12C105.454 110.159 104.246 113.073 102.098 115.222C99.9488 117.371 97.0343 118.578 93.9954 118.578C90.9564 118.578 88.042 117.371 85.8931 115.222C83.7443 113.073 82.537 110.159 82.537 107.12ZM93.9954 116.495C92.46 116.494 90.9483 116.117 89.5928 115.396C89.349 115.266 89.1669 115.044 89.0865 114.78C89.0061 114.516 89.034 114.23 89.164 113.987C89.2941 113.743 89.5156 113.561 89.7799 113.48C90.0442 113.4 90.3296 113.428 90.5734 113.558C91.6843 114.149 92.9293 114.442 94.1871 114.409C95.445 114.376 96.673 114.019 97.7516 113.371C98.8301 112.722 99.7226 111.806 100.342 110.711C100.962 109.616 101.287 108.379 101.287 107.12C101.269 106.366 101.177 105.615 101.012 104.879C100.962 104.612 101.02 104.335 101.172 104.109C101.324 103.883 101.558 103.726 101.825 103.671C102.091 103.616 102.369 103.667 102.598 103.814C102.827 103.961 102.99 104.192 103.051 104.457C103.246 105.332 103.353 106.224 103.37 107.12C103.367 109.606 102.378 111.989 100.621 113.746C98.8633 115.504 96.4808 116.492 93.9954 116.495ZM99.9376 100.448C99.9376 100.242 99.9987 100.041 100.113 99.8694C100.228 99.6981 100.39 99.5646 100.581 99.4857C100.771 99.4069 100.98 99.3862 101.182 99.4264C101.385 99.4666 101.57 99.5658 101.716 99.7115C101.861 99.8572 101.961 100.043 102.001 100.245C102.041 100.447 102.02 100.656 101.942 100.847C101.863 101.037 101.729 101.2 101.558 101.314C101.387 101.429 101.185 101.49 100.979 101.49C100.703 101.489 100.439 101.379 100.244 101.184C100.048 100.989 99.9384 100.724 99.9376 100.448Z"></path>
<defs>
<clipPath id="clip0_90_6075">
<rect fill="white" height="196" width="189"></rect>
</clipPath>
</defs>
</svg>
